<svg xmlns="http://www.w3.org/2000/svg" width="1806" height="442" fill="none"><path fill="url(#a)" fill-rule="evenodd" d="M535.66 130.5 527 90l-8.66 40.5L527 171l8.66-40.5Z" clip-rule="evenodd"/><path fill="url(#b)" fill-rule="evenodd" d="m416.185 288.38-2.395-35.989-14.657 32.956-.002-.001 2.395 35.99 14.658-32.956h.001Z" clip-rule="evenodd"/><path fill="url(#c)" fill-rule="evenodd" d="m416.185 288.38-2.395-35.989-14.657 32.956-.002-.001 2.395 35.99 14.658-32.956h.001Z" clip-rule="evenodd"/><path fill="url(#d)" fill-rule="evenodd" d="m196.383 156.259 2.143 32.203 9.645-21.685 19.37 13.715-14.608-28.774-2.143-32.201-9.644 21.684-19.37-13.714 14.607 28.772Z" clip-rule="evenodd"/><path fill="url(#e)" fill-rule="evenodd" d="m905.755 172.152-1.143 15.048-4.262-9.948-8.861 6.721 6.781-13.664 1.143-15.046 4.262 9.947 8.861-6.721-6.781 13.663Zm-3.743-.921.001.001v-.001h-.001Z" clip-rule="evenodd"/><path fill="url(#f)" fill-rule="evenodd" d="m522.755 348.152-1.143 15.048-4.262-9.948-8.861 6.721 6.781-13.664 1.143-15.046 4.262 9.947 8.861-6.721-6.781 13.663Zm-3.743-.921.001.001v-.001h-.001Z" clip-rule="evenodd"/><path fill="url(#g)" fill-rule="evenodd" d="m419.693 72.12-12.21-16.375-4.755 19.866 12.21 16.375 4.755-19.865Z" clip-rule="evenodd"/><path fill="url(#h)" fill-rule="evenodd" d="m641.263 341.012-2.396-20.286-14.044 14.834 2.397 20.285 14.043-14.833Z" clip-rule="evenodd"/><path fill="url(#i)" fill-rule="evenodd" d="m839.998 64.148-14.971-13.897-1.084 20.398 14.971 13.897 1.084-20.398Z" clip-rule="evenodd"/><path fill="url(#j)" fill-rule="evenodd" d="m714.307 131.363.496-22.178-16.287 15.061 15.791 7.117Zm0 0-16.287 15.061.496-22.178 15.791 7.117Z" clip-rule="evenodd"/><path fill="url(#k)" fill-rule="evenodd" d="m825.183 140.736.496-22.178-16.287 15.061 15.791 7.117Zm0 0-16.287 15.061.496-22.178 15.791 7.117Z" clip-rule="evenodd"/><ellipse cx="561.5" cy="257" fill="url(#l)" rx="5.5" ry="6"/><ellipse cx="454.5" cy="177" fill="url(#m)" rx="5.5" ry="6"/><ellipse cx="301.5" cy="60" fill="url(#n)" rx="5.5" ry="6"/><ellipse cx="308" cy="203" fill="url(#o)" rx="12" ry="13"/><ellipse cx="698" cy="280.5" fill="url(#p)" rx="8" ry="8.5"/><ellipse cx="755" cy="207.5" fill="url(#q)" rx="8" ry="8.5"/><path fill="url(#r)" fill-rule="evenodd" d="m1551.26 269.56-2.39 20.285-14.05-14.833 2.4-20.286 14.04 14.834Z" clip-rule="evenodd"/><ellipse cx="8" cy="8.5" fill="url(#s)" rx="8" ry="8.5" transform="matrix(1 0 0 -1 1600 338.571)"/><ellipse cx="8" cy="8.5" fill="url(#t)" rx="8" ry="8.5" transform="matrix(1 0 0 -1 1657 411.571)"/><ellipse cx="655" cy="198.5" fill="url(#u)" rx="8" ry="8.5"/><path fill="url(#v)" fill-rule="evenodd" d="m259.259 284.484 15.968-15.398-22.169-.774 6.201 16.172Zm0 0-22.169-.774 15.968-15.398 6.201 16.172Z" clip-rule="evenodd"/><ellipse cx="142.666" cy="378.898" fill="url(#w)" rx="8" ry="8.5" transform="rotate(44.76 142.666 378.898)"/><ellipse cx="169.873" cy="290.395" fill="url(#x)" rx="8" ry="8.5" transform="rotate(44.76 169.873 290.395)"/><ellipse cx="639" cy="53.5" fill="url(#y)" rx="8" ry="8.5"/><path fill="url(#z)" fill-rule="evenodd" d="m1240.48 36.293-4.5-34.554-12.74 33.076 17.24 1.478Zm0 0-12.74 33.076-4.5-34.554 17.24 1.478Z" clip-rule="evenodd"/><path fill="url(#A)" fill-rule="evenodd" d="m1426.13 303.506 2.4-35.989 14.65 32.956.01-.001-2.4 35.99-14.66-32.956Z" clip-rule="evenodd"/><path fill="url(#B)" fill-rule="evenodd" d="m1455.13 80.506 2.4-35.99 14.65 32.957h.01l-2.4 35.989-14.66-32.956Z" clip-rule="evenodd"/><path fill="url(#C)" fill-rule="evenodd" d="m927.337 65.72-1.143 32.255 11.8-20.591 17.875 15.613-11.606-30.11 1.143-32.253-11.799 20.591-17.875-15.612 11.605 30.108Z" clip-rule="evenodd"/><path fill="url(#D)" fill-rule="evenodd" d="m24.183 220.637.496 22.178-16.287-15.061 15.79-7.117Zm0 0L7.896 205.576l.496 22.178 15.79-7.117Z" clip-rule="evenodd"/><path fill="url(#E)" fill-rule="evenodd" d="m135.059 211.264.496 22.178-16.287-15.061 15.791-7.117Zm-.001 0-16.286-15.061.496 22.178 15.79-7.117Z" clip-rule="evenodd"/><ellipse cx="8" cy="8.5" fill="url(#F)" rx="8" ry="8.5" transform="matrix(1 0 0 -1 56.876 153)"/><path fill="url(#G)" fill-rule="evenodd" d="m50.154 52.733 3.204-22.232L79.24 42.605l48.039-14.24-34.96 23.146-3.203 22.23-25.882-12.103-48.038 14.239 34.959-23.144Z" clip-rule="evenodd"/><path fill="url(#H)" fill-rule="evenodd" d="m890.271 247.152 1.142 15.048 4.262-9.948 8.862 6.721-6.782-13.664-1.142-15.046-4.262 9.947-8.862-6.721 6.782 13.663Zm3.742-.921v.001l-.001-.001h.001Z" clip-rule="evenodd"/><path fill="url(#I)" fill-rule="evenodd" d="m1273.27 423.152 1.14 15.048 4.27-9.948 8.86 6.721-6.79-13.664-1.14-15.046-4.26 9.947-8.86-6.721 6.78 13.663Zm3.74-.921v.001-.001Z" clip-rule="evenodd"/><path fill="url(#J)" fill-rule="evenodd" d="m1603.45 153.815 26.54 13.603-41.58.289-38.86 16.059 20.16-23.092-26.54-13.605 41.59-.289 38.85-16.057-20.16 23.092Z" clip-rule="evenodd"/><path fill="url(#K)" fill-rule="evenodd" d="m1349.33 97.158 12.21-13.744 4.76 16.673-16.97-2.929Zm0 0 4.76 16.673 12.21-13.744-16.97-2.929Z" clip-rule="evenodd"/><path fill="url(#L)" fill-rule="evenodd" d="m1099.82 265.313 2.4-17.025 14.04 12.45v-.001l-2.39 17.026-14.05-12.45Z" clip-rule="evenodd"/><path fill="url(#M)" fill-rule="evenodd" d="m1290.1 231.457-13.48 15.348-3.15-20.182 13.48-15.348 3.15 20.182Z" clip-rule="evenodd"/><path fill="url(#N)" fill-rule="evenodd" d="m1158.23 177.374 2.75 22.012-17.74-13.327 14.99-8.685Zm0-.001-17.74-13.326 2.75 22.012 14.99-8.686Z" clip-rule="evenodd"/><path fill="url(#O)" fill-rule="evenodd" d="m1267.57 156.773 2.75 22.012-17.73-13.326 14.98-8.686Zm0 0-17.73-13.326 2.75 22.012 14.98-8.686Z" clip-rule="evenodd"/><ellipse cx="5.5" cy="6" fill="url(#P)" rx="5.5" ry="6" transform="matrix(-1 0 0 1 1240.03 326)"/><ellipse cx="5.5" cy="6" fill="url(#Q)" rx="5.5" ry="6" transform="matrix(-1 0 0 1 1347.03 246)"/><ellipse cx="1207.65" cy="136" fill="url(#R)" rx="5.5" ry="6" transform="rotate(180 1207.65 136)"/><ellipse cx="12" cy="11" fill="url(#S)" rx="12" ry="11" transform="matrix(-1 0 0 1 1473 196)"/><path fill="url(#T)" fill-rule="evenodd" d="m1753.78 42.536 2.4 44.408 14.66-40.665-2.4-44.408-14.66 40.665Z" clip-rule="evenodd"/><path fill="url(#U)" fill-rule="evenodd" d="m1782.78 317.699 2.4 44.408 14.66-40.665v.001l-2.4-44.409-14.66 40.665Z" clip-rule="evenodd"/><path fill="url(#V)" fill-rule="evenodd" d="m1697.75 136.921-13.47-18.938-3.16 24.902 13.48 18.938 3.15-24.902Z" clip-rule="evenodd"/><path fill="url(#W)" fill-rule="evenodd" d="m1675.23 229.074 2.75-27.161-17.74 16.443-2.75 27.161 17.74-16.444v.001Z" clip-rule="evenodd"/><path fill="url(#X)" fill-rule="evenodd" d="m1601.3 61.517-27.25 1.755 19.14 14.789 27.24-1.754-19.13-14.789Z" clip-rule="evenodd"/><ellipse cx="1789" cy="161.5" fill="url(#Y)" rx="12" ry="13.5" transform="rotate(180 1789 161.5)"/><ellipse cx="8" cy="7" fill="url(#Z)" rx="8" ry="7" transform="matrix(-1 0 0 1 1068 28)"/><ellipse cx="8" cy="7" fill="url(#aa)" rx="8" ry="7" transform="matrix(-1 0 0 1 1022 204)"/><ellipse cx="8" cy="8.5" fill="url(#ab)" rx="8" ry="8.5" transform="matrix(-1 0 0 1 1076 130)"/><ellipse cx="8" cy="7.5" fill="url(#ac)" rx="8" ry="7.5" transform="matrix(-1 0 0 1 1138 74)"/><defs><linearGradient id="a" x1="518.34" x2="536.091" y1="130.5" y2="130.72" gradientUnits="userSpaceOnUse"><stop offset=".225" stop-color="#fff"/><stop offset="1" stop-color="#fff"/></linearGradient><linearGradient id="b" x1="399.131" x2="416.564" y1="285.347" y2="288.705" gradientUnits="userSpaceOnUse"><stop offset=".225" stop-color="#fff"/><stop offset="1" stop-color="#fff"/></linearGradient><linearGradient id="c" x1="399.131" x2="416.564" y1="285.347" y2="288.705" gradientUnits="userSpaceOnUse"><stop offset=".225" stop-color="#fff"/><stop offset="1" stop-color="#fff"/></linearGradient><linearGradient id="d" x1="181.776" x2="228.616" y1="153.989" y2="155.788" gradientUnits="userSpaceOnUse"><stop offset=".225" stop-color="#fff"/><stop offset="1" stop-color="#fff"/></linearGradient><linearGradient id="e" x1="893.148" x2="910.916" y1="166.113" y2="177.25" gradientUnits="userSpaceOnUse"><stop offset=".225" stop-color="#fff"/><stop offset="1" stop-color="#fff"/></linearGradient><linearGradient id="f" x1="510.148" x2="527.916" y1="342.113" y2="353.25" gradientUnits="userSpaceOnUse"><stop offset=".225" stop-color="#fff"/><stop offset="1" stop-color="#fff"/></linearGradient><linearGradient id="g" x1="402.728" x2="420.201" y1="75.611" y2="72.507" gradientUnits="userSpaceOnUse"><stop offset=".225" stop-color="#fff"/><stop offset="1" stop-color="#fff"/></linearGradient><linearGradient id="h" x1="624.823" x2="641.511" y1="335.56" y2="341.6" gradientUnits="userSpaceOnUse"><stop offset=".225" stop-color="#fff"/><stop offset="1" stop-color="#fff"/></linearGradient><linearGradient id="i" x1="823.943" x2="840.567" y1="70.649" y2="64.436" gradientUnits="userSpaceOnUse"><stop offset=".225" stop-color="#fff"/><stop offset="1" stop-color="#fff"/></linearGradient><linearGradient id="j" x1="698.516" x2="714.513" y1="124.246" y2="131.933" gradientUnits="userSpaceOnUse"><stop offset=".225" stop-color="#fff"/><stop offset="1" stop-color="#fff"/></linearGradient><linearGradient id="k" x1="809.392" x2="825.389" y1="133.619" y2="141.306" gradientUnits="userSpaceOnUse"><stop offset=".225" stop-color="#fff"/><stop offset="1" stop-color="#fff"/></linearGradient><linearGradient id="l" x1="556" x2="567.244" y1="257" y2="257.596" gradientUnits="userSpaceOnUse"><stop offset=".225" stop-color="#fff"/><stop offset="1" stop-color="#fff"/></linearGradient><linearGradient id="m" x1="449" x2="460.244" y1="177" y2="177.596" gradientUnits="userSpaceOnUse"><stop offset=".225" stop-color="#fff"/><stop offset="1" stop-color="#fff"/></linearGradient><linearGradient id="n" x1="296" x2="307.244" y1="60" y2="60.596" gradientUnits="userSpaceOnUse"><stop offset=".225" stop-color="#fff"/><stop offset="1" stop-color="#fff"/></linearGradient><linearGradient id="o" x1="296" x2="320.53" y1="203" y2="204.31" gradientUnits="userSpaceOnUse"><stop offset=".225" stop-color="#fff"/><stop offset="1" stop-color="#fff"/></linearGradient><linearGradient id="p" x1="690" x2="706.352" y1="280.5" y2="281.39" gradientUnits="userSpaceOnUse"><stop offset=".225" stop-color="#fff"/><stop offset="1" stop-color="#fff"/></linearGradient><linearGradient id="q" x1="747" x2="763.352" y1="207.5" y2="208.39" gradientUnits="userSpaceOnUse"><stop offset=".225" stop-color="#fff"/><stop offset="1" stop-color="#fff"/></linearGradient><linearGradient id="r" x1="1534.82" x2="1551.51" y1="275.012" y2="268.972" gradientUnits="userSpaceOnUse"><stop offset=".225" stop-color="#fff"/><stop offset="1" stop-color="#fff"/></linearGradient><linearGradient id="s" x1="0" x2="16.352" y1="8.5" y2="9.39" gradientUnits="userSpaceOnUse"><stop offset=".225" stop-color="#fff"/><stop offset="1" stop-color="#fff"/></linearGradient><linearGradient id="t" x1="0" x2="16.352" y1="8.5" y2="9.39" gradientUnits="userSpaceOnUse"><stop offset=".225" stop-color="#fff"/><stop offset="1" stop-color="#fff"/></linearGradient><linearGradient id="u" x1="647" x2="663.352" y1="198.5" y2="199.39" gradientUnits="userSpaceOnUse"><stop offset=".225" stop-color="#fff"/><stop offset="1" stop-color="#fff"/></linearGradient><linearGradient id="v" x1="253.058" x2="259.004" y1="268.312" y2="285.034" gradientUnits="userSpaceOnUse"><stop offset=".225" stop-color="#fff"/><stop offset="1" stop-color="#fff"/></linearGradient><linearGradient id="w" x1="134.666" x2="151.018" y1="378.898" y2="379.788" gradientUnits="userSpaceOnUse"><stop offset=".225" stop-color="#fff"/><stop offset="1" stop-color="#fff"/></linearGradient><linearGradient id="x" x1="161.873" x2="178.225" y1="290.395" y2="291.285" gradientUnits="userSpaceOnUse"><stop offset=".225" stop-color="#fff"/><stop offset="1" stop-color="#fff"/></linearGradient><linearGradient id="y" x1="631" x2="647.352" y1="53.5" y2="54.39" gradientUnits="userSpaceOnUse"><stop offset=".225" stop-color="#fff"/><stop offset="1" stop-color="#fff"/></linearGradient><linearGradient id="z" x1="1223.24" x2="1240.79" y1="34.815" y2="37.213" gradientUnits="userSpaceOnUse"><stop offset=".225" stop-color="#fff"/><stop offset="1" stop-color="#fff"/></linearGradient><linearGradient id="A" x1="1443.19" x2="1425.75" y1="300.473" y2="303.831" gradientUnits="userSpaceOnUse"><stop offset=".225" stop-color="#fff"/><stop offset="1" stop-color="#fff"/></linearGradient><linearGradient id="B" x1="1472.19" x2="1454.75" y1="77.473" y2="80.831" gradientUnits="userSpaceOnUse"><stop offset=".225" stop-color="#fff"/><stop offset="1" stop-color="#fff"/></linearGradient><linearGradient id="C" x1="913.037" x2="959.451" y1="61.977" y2="68.53" gradientUnits="userSpaceOnUse"><stop offset=".225" stop-color="#fff"/><stop offset="1" stop-color="#fff"/></linearGradient><linearGradient id="D" x1="8.392" x2="24.389" y1="227.754" y2="220.067" gradientUnits="userSpaceOnUse"><stop offset=".225" stop-color="#fff"/><stop offset="1" stop-color="#fff"/></linearGradient><linearGradient id="E" x1="119.268" x2="135.265" y1="218.381" y2="210.694" gradientUnits="userSpaceOnUse"><stop offset=".225" stop-color="#fff"/><stop offset="1" stop-color="#fff"/></linearGradient><linearGradient id="F" x1="0" x2="16.352" y1="8.5" y2="9.39" gradientUnits="userSpaceOnUse"><stop offset=".225" stop-color="#fff"/><stop offset="1" stop-color="#fff"/></linearGradient><linearGradient id="G" x1="13.372" x2="127.867" y1="58.037" y2="29.397" gradientUnits="userSpaceOnUse"><stop offset=".225" stop-color="#fff"/><stop offset="1" stop-color="#fff"/></linearGradient><linearGradient id="H" x1="902.877" x2="885.11" y1="241.113" y2="252.25" gradientUnits="userSpaceOnUse"><stop offset=".225" stop-color="#fff"/><stop offset="1" stop-color="#fff"/></linearGradient><linearGradient id="I" x1="1285.88" x2="1268.11" y1="417.113" y2="428.25" gradientUnits="userSpaceOnUse"><stop offset=".225" stop-color="#fff"/><stop offset="1" stop-color="#fff"/></linearGradient><linearGradient id="J" x1="1598.97" x2="1571.72" y1="182.586" y2="131.623" gradientUnits="userSpaceOnUse"><stop offset=".225" stop-color="#fff"/><stop offset="1" stop-color="#fff"/></linearGradient><linearGradient id="K" x1="1366.3" x2="1349.05" y1="100.087" y2="96.435" gradientUnits="userSpaceOnUse"><stop offset=".225" stop-color="#fff"/><stop offset="1" stop-color="#fff"/></linearGradient><linearGradient id="L" x1="1116.26" x2="1100.35" y1="260.737" y2="267.601" gradientUnits="userSpaceOnUse"><stop offset=".225" stop-color="#fff"/><stop offset="1" stop-color="#fff"/></linearGradient><linearGradient id="M" x1="1273.47" x2="1290.64" y1="226.623" y2="231.113" gradientUnits="userSpaceOnUse"><stop offset=".225" stop-color="#fff"/><stop offset="1" stop-color="#fff"/></linearGradient><linearGradient id="N" x1="1143.24" x2="1158.37" y1="186.059" y2="176.785" gradientUnits="userSpaceOnUse"><stop offset=".225" stop-color="#fff"/><stop offset="1" stop-color="#fff"/></linearGradient><linearGradient id="O" x1="1252.59" x2="1267.72" y1="165.459" y2="156.185" gradientUnits="userSpaceOnUse"><stop offset=".225" stop-color="#fff"/><stop offset="1" stop-color="#fff"/></linearGradient><linearGradient id="P" x1="0" x2="11.243" y1="6" y2="6.596" gradientUnits="userSpaceOnUse"><stop offset=".225" stop-color="#fff"/><stop offset="1" stop-color="#fff"/></linearGradient><linearGradient id="Q" x1="0" x2="11.243" y1="6" y2="6.596" gradientUnits="userSpaceOnUse"><stop offset=".225" stop-color="#fff"/><stop offset="1" stop-color="#fff"/></linearGradient><linearGradient id="R" x1="1202.15" x2="1213.39" y1="136" y2="136.596" gradientUnits="userSpaceOnUse"><stop offset=".225" stop-color="#fff"/><stop offset="1" stop-color="#fff"/></linearGradient><linearGradient id="S" x1="0" x2="24.503" y1="11" y2="12.546" gradientUnits="userSpaceOnUse"><stop offset=".225" stop-color="#fff"/><stop offset="1" stop-color="#fff"/></linearGradient><linearGradient id="T" x1="1770.84" x2="1753.19" y1="46.279" y2="43.523" gradientUnits="userSpaceOnUse"><stop offset=".225" stop-color="#fff"/><stop offset="1" stop-color="#fff"/></linearGradient><linearGradient id="U" x1="1799.84" x2="1782.19" y1="321.442" y2="318.686" gradientUnits="userSpaceOnUse"><stop offset=".225" stop-color="#fff"/><stop offset="1" stop-color="#fff"/></linearGradient><linearGradient id="V" x1="1681.12" x2="1698.68" y1="142.885" y2="139.165" gradientUnits="userSpaceOnUse"><stop offset=".225" stop-color="#fff"/><stop offset="1" stop-color="#fff"/></linearGradient><linearGradient id="W" x1="1660.24" x2="1676.94" y1="218.356" y2="226.649" gradientUnits="userSpaceOnUse"><stop offset=".225" stop-color="#fff"/><stop offset="1" stop-color="#fff"/></linearGradient><linearGradient id="X" x1="1593.19" x2="1598.62" y1="78.061" y2="60.227" gradientUnits="userSpaceOnUse"><stop offset=".225" stop-color="#fff"/><stop offset="1" stop-color="#fff"/></linearGradient><linearGradient id="Y" x1="1777" x2="1801.54" y1="161.5" y2="162.761" gradientUnits="userSpaceOnUse"><stop offset=".225" stop-color="#fff"/><stop offset="1" stop-color="#fff"/></linearGradient><linearGradient id="Z" x1="0" x2="16.329" y1="7" y2="8.079" gradientUnits="userSpaceOnUse"><stop offset=".225" stop-color="#fff"/><stop offset="1" stop-color="#fff"/></linearGradient><linearGradient id="aa" x1="0" x2="16.329" y1="7" y2="8.079" gradientUnits="userSpaceOnUse"><stop offset=".225" stop-color="#fff"/><stop offset="1" stop-color="#fff"/></linearGradient><linearGradient id="ab" x1="0" x2="16.352" y1="8.5" y2="9.39" gradientUnits="userSpaceOnUse"><stop offset=".225" stop-color="#fff"/><stop offset="1" stop-color="#fff"/></linearGradient><linearGradient id="ac" x1="0" x2="16.338" y1="7.5" y2="8.508" gradientUnits="userSpaceOnUse"><stop offset=".225" stop-color="#fff"/><stop offset="1" stop-color="#fff"/></linearGradient></defs></svg>