<svg xmlns="http://www.w3.org/2000/svg" width="593" height="623" fill="none"><path fill="#FFCE51" fill-rule="evenodd" d="m302.499 0 18.808 59.594c51.627 3.365 99.21 20.85 138.58 48.46l49.608-30.001-22.749 51.564c26.578 24.348 47.9 53.924 62.17 87.006h43.18l-33.862 25.33c7.006 22.847 10.765 47.026 10.765 72.047 0 31.631-6.007 61.918-16.989 89.867l31.949 28.088-43.236-3.42c-18.029 34.321-43.907 64.202-75.374 87.477l16.131 51.115-44.119-33.002C397.93 556.292 352.013 569 302.999 569c-3.353 0-6.692-.06-10.015-.177l-23.529 53.333-11.966-56.874c-32.151-5.313-62.326-16.159-89.422-31.478l-44.548 33.323 16.321-51.716c-42.457-31.654-74.64-75.373-90.948-125.788L.617 385.804l40.904-24.737A246.136 246.136 0 0 1 37 314c0-24.799 3.693-48.771 10.58-71.438l-34.676-25.939h44.18C77.97 168.2 113.967 127.288 159.439 99.289L148.97 49.53l39.144 34.416c29.283-13.463 61.534-21.94 95.556-24.282L302.499 0Z" clip-rule="evenodd"/></svg>