<svg width="1806" height="442" viewBox="0 0 1806 442" fill="none" xmlns="http://www.w3.org/2000/svg">
<path fill-rule="evenodd" clip-rule="evenodd" d="M535.66 130.5L527 90L518.34 130.5L527 171L535.66 130.5Z" fill="url(#paint0_linear_2069_775)"/>
<path fill-rule="evenodd" clip-rule="evenodd" d="M416.185 288.38L413.79 252.391L399.133 285.347L399.131 285.346L401.526 321.336L416.184 288.38L416.185 288.38Z" fill="url(#paint1_linear_2069_775)"/>
<path fill-rule="evenodd" clip-rule="evenodd" d="M416.185 288.38L413.79 252.391L399.133 285.347L399.131 285.346L401.526 321.336L416.184 288.38L416.185 288.38Z" fill="url(#paint2_linear_2069_775)"/>
<path fill-rule="evenodd" clip-rule="evenodd" d="M196.383 156.259L198.526 188.462L208.171 166.777L227.541 180.492L212.933 151.718L210.79 119.517L201.146 141.201L181.776 127.487L196.383 156.259Z" fill="url(#paint3_linear_2069_775)"/>
<path fill-rule="evenodd" clip-rule="evenodd" d="M905.755 172.152L904.612 187.2L900.35 177.252L891.489 183.973L898.27 170.309L899.413 155.263L903.675 165.21L912.536 158.489L905.755 172.152ZM902.012 171.231L902.013 171.232L902.013 171.231L902.013 171.231L902.012 171.231Z" fill="url(#paint4_linear_2069_775)"/>
<path fill-rule="evenodd" clip-rule="evenodd" d="M522.755 348.152L521.612 363.2L517.35 353.252L508.489 359.973L515.27 346.309L516.413 331.263L520.675 341.21L529.536 334.489L522.755 348.152ZM519.012 347.231L519.013 347.232L519.013 347.231L519.013 347.231L519.012 347.231Z" fill="url(#paint5_linear_2069_775)"/>
<path fill-rule="evenodd" clip-rule="evenodd" d="M419.693 72.1208L407.483 55.7452L402.728 75.6108L414.938 91.9864L419.693 72.1208Z" fill="url(#paint6_linear_2069_775)"/>
<path fill-rule="evenodd" clip-rule="evenodd" d="M641.263 341.012L638.867 320.726L624.823 335.56L627.22 355.845L641.263 341.012Z" fill="url(#paint7_linear_2069_775)"/>
<path fill-rule="evenodd" clip-rule="evenodd" d="M839.998 64.148L825.027 50.2507L823.943 70.6486L838.914 84.546L839.998 64.148Z" fill="url(#paint8_linear_2069_775)"/>
<path fill-rule="evenodd" clip-rule="evenodd" d="M714.307 131.363L714.803 109.185L698.516 124.246L714.307 131.363ZM714.307 131.363L698.02 146.424L698.516 124.246L714.307 131.363Z" fill="url(#paint9_linear_2069_775)"/>
<path fill-rule="evenodd" clip-rule="evenodd" d="M825.183 140.736L825.679 118.558L809.392 133.619L825.183 140.736ZM825.183 140.736L808.896 155.797L809.392 133.619L825.183 140.736Z" fill="url(#paint10_linear_2069_775)"/>
<ellipse cx="561.5" cy="257" rx="5.5" ry="6" fill="url(#paint11_linear_2069_775)"/>
<ellipse cx="454.5" cy="177" rx="5.5" ry="6" fill="url(#paint12_linear_2069_775)"/>
<ellipse cx="301.5" cy="60" rx="5.5" ry="6" fill="url(#paint13_linear_2069_775)"/>
<ellipse cx="308" cy="203" rx="12" ry="13" fill="url(#paint14_linear_2069_775)"/>
<ellipse cx="698" cy="280.5" rx="8" ry="8.5" fill="url(#paint15_linear_2069_775)"/>
<ellipse cx="755" cy="207.5" rx="8" ry="8.5" fill="url(#paint16_linear_2069_775)"/>
<path fill-rule="evenodd" clip-rule="evenodd" d="M1551.26 269.56L1548.87 289.845L1534.82 275.012L1537.22 254.726L1551.26 269.56Z" fill="url(#paint17_linear_2069_775)"/>
<ellipse cx="8" cy="8.5" rx="8" ry="8.5" transform="matrix(1 0 0 -1 1600 338.571)" fill="url(#paint18_linear_2069_775)"/>
<ellipse cx="8" cy="8.5" rx="8" ry="8.5" transform="matrix(1 0 0 -1 1657 411.571)" fill="url(#paint19_linear_2069_775)"/>
<ellipse cx="655" cy="198.5" rx="8" ry="8.5" fill="url(#paint20_linear_2069_775)"/>
<path fill-rule="evenodd" clip-rule="evenodd" d="M259.259 284.484L275.227 269.086L253.058 268.312L259.259 284.484ZM259.259 284.484L237.09 283.71L253.058 268.312L259.259 284.484Z" fill="url(#paint21_linear_2069_775)"/>
<ellipse cx="142.666" cy="378.898" rx="8" ry="8.5" transform="rotate(44.7606 142.666 378.898)" fill="url(#paint22_linear_2069_775)"/>
<ellipse cx="169.873" cy="290.395" rx="8" ry="8.5" transform="rotate(44.7606 169.873 290.395)" fill="url(#paint23_linear_2069_775)"/>
<ellipse cx="639" cy="53.5" rx="8" ry="8.5" fill="url(#paint24_linear_2069_775)"/>
<path fill-rule="evenodd" clip-rule="evenodd" d="M1240.48 36.2931L1235.98 1.73919L1223.24 34.8147L1240.48 36.2931ZM1240.48 36.2932L1227.74 69.3687L1223.24 34.8148L1240.48 36.2932Z" fill="url(#paint25_linear_2069_775)"/>
<path fill-rule="evenodd" clip-rule="evenodd" d="M1426.13 303.506L1428.53 267.517L1443.18 300.473L1443.19 300.472L1440.79 336.462L1426.13 303.506L1426.13 303.506Z" fill="url(#paint26_linear_2069_775)"/>
<path fill-rule="evenodd" clip-rule="evenodd" d="M1455.13 80.5064L1457.53 44.5167L1472.18 77.4726L1472.19 77.4724L1469.79 113.462L1455.13 80.5062L1455.13 80.5064Z" fill="url(#paint27_linear_2069_775)"/>
<path fill-rule="evenodd" clip-rule="evenodd" d="M927.337 65.7209L926.194 97.9749L937.994 77.3835L955.869 92.9966L944.263 62.8863L945.406 30.6343L933.607 51.2252L915.732 35.6126L927.337 65.7209Z" fill="url(#paint28_linear_2069_775)"/>
<path fill-rule="evenodd" clip-rule="evenodd" d="M24.1826 220.637L24.6786 242.815L8.39172 227.754L24.1826 220.637ZM24.1825 220.637L7.89561 205.576L8.39168 227.754L24.1825 220.637Z" fill="url(#paint29_linear_2069_775)"/>
<path fill-rule="evenodd" clip-rule="evenodd" d="M135.059 211.264L135.555 233.442L119.268 218.381L135.059 211.264ZM135.058 211.264L118.772 196.203L119.268 218.381L135.058 211.264Z" fill="url(#paint30_linear_2069_775)"/>
<ellipse cx="8" cy="8.5" rx="8" ry="8.5" transform="matrix(1 0 0 -1 56.876 153)" fill="url(#paint31_linear_2069_775)"/>
<path fill-rule="evenodd" clip-rule="evenodd" d="M50.1545 52.733L53.3577 30.501L79.2401 42.6047L127.279 28.3657L92.319 51.5106L89.1159 73.7414L63.2344 61.6381L15.1957 75.877L50.1545 52.733Z" fill="url(#paint32_linear_2069_775)"/>
<path fill-rule="evenodd" clip-rule="evenodd" d="M890.271 247.152L891.413 262.2L895.675 252.252L904.537 258.973L897.755 245.309L896.613 230.263L892.351 240.21L883.489 233.489L890.271 247.152ZM894.013 246.231L894.013 246.232L894.012 246.231L894.012 246.231L894.013 246.231Z" fill="url(#paint33_linear_2069_775)"/>
<path fill-rule="evenodd" clip-rule="evenodd" d="M1273.27 423.152L1274.41 438.2L1278.68 428.252L1287.54 434.973L1280.75 421.309L1279.61 406.263L1275.35 416.21L1266.49 409.489L1273.27 423.152ZM1277.01 422.231L1277.01 422.232L1277.01 422.231L1277.01 422.231L1277.01 422.231Z" fill="url(#paint34_linear_2069_775)"/>
<path fill-rule="evenodd" clip-rule="evenodd" d="M1603.45 153.815L1629.99 167.418L1588.41 167.707L1549.55 183.766L1569.71 160.674L1543.17 147.069L1584.76 146.78L1623.61 130.723L1603.45 153.815Z" fill="url(#paint35_linear_2069_775)"/>
<path fill-rule="evenodd" clip-rule="evenodd" d="M1349.33 97.1581L1361.54 83.4143L1366.3 100.087L1349.33 97.1581ZM1349.33 97.1581L1354.09 113.831L1366.3 100.087L1349.33 97.1581Z" fill="url(#paint36_linear_2069_775)"/>
<path fill-rule="evenodd" clip-rule="evenodd" d="M1099.82 265.313L1102.22 248.288L1116.26 260.738L1116.26 260.737L1113.87 277.763L1099.82 265.313L1099.82 265.313Z" fill="url(#paint37_linear_2069_775)"/>
<path fill-rule="evenodd" clip-rule="evenodd" d="M1290.1 231.457L1276.62 246.805L1273.47 226.623L1286.95 211.275L1290.1 231.457Z" fill="url(#paint38_linear_2069_775)"/>
<path fill-rule="evenodd" clip-rule="evenodd" d="M1158.23 177.374L1160.98 199.386L1143.24 186.059L1158.23 177.374ZM1158.23 177.373L1140.49 164.047L1143.24 186.059L1158.23 177.373Z" fill="url(#paint39_linear_2069_775)"/>
<path fill-rule="evenodd" clip-rule="evenodd" d="M1267.57 156.773L1270.32 178.785L1252.59 165.459L1267.57 156.773ZM1267.57 156.773L1249.84 143.447L1252.59 165.459L1267.57 156.773Z" fill="url(#paint40_linear_2069_775)"/>
<ellipse cx="5.5" cy="6" rx="5.5" ry="6" transform="matrix(-1 0 0 1 1240.03 326)" fill="url(#paint41_linear_2069_775)"/>
<ellipse cx="5.5" cy="6" rx="5.5" ry="6" transform="matrix(-1 0 0 1 1347.03 246)" fill="url(#paint42_linear_2069_775)"/>
<ellipse cx="1207.65" cy="136" rx="5.5" ry="6" transform="rotate(180 1207.65 136)" fill="url(#paint43_linear_2069_775)"/>
<ellipse cx="12" cy="11" rx="12" ry="11" transform="matrix(-1 0 0 1 1473 196)" fill="url(#paint44_linear_2069_775)"/>
<path fill-rule="evenodd" clip-rule="evenodd" d="M1753.78 42.5358L1756.18 86.944L1770.84 46.2793L1770.84 46.2795L1768.44 1.87138L1753.78 42.5361L1753.78 42.5358Z" fill="url(#paint45_linear_2069_775)"/>
<path fill-rule="evenodd" clip-rule="evenodd" d="M1782.78 317.699L1785.18 362.107L1799.84 321.442L1799.84 321.443L1797.44 277.034L1782.78 317.699L1782.78 317.699Z" fill="url(#paint46_linear_2069_775)"/>
<path fill-rule="evenodd" clip-rule="evenodd" d="M1697.75 136.921L1684.28 117.983L1681.12 142.885L1681.12 142.885L1694.6 161.823L1697.75 136.921L1697.75 136.921Z" fill="url(#paint47_linear_2069_775)"/>
<path fill-rule="evenodd" clip-rule="evenodd" d="M1675.23 229.074L1677.98 201.913L1660.24 218.356L1660.24 218.356L1657.49 245.517L1675.23 229.073L1675.23 229.074Z" fill="url(#paint48_linear_2069_775)"/>
<path fill-rule="evenodd" clip-rule="evenodd" d="M1601.3 61.5175L1574.05 63.2718L1593.19 78.0609L1593.19 78.0614L1620.43 76.3071L1601.3 61.518L1601.3 61.5175Z" fill="url(#paint49_linear_2069_775)"/>
<ellipse cx="1789" cy="161.5" rx="12" ry="13.5" transform="rotate(180 1789 161.5)" fill="url(#paint50_linear_2069_775)"/>
<ellipse cx="8" cy="7" rx="8" ry="7" transform="matrix(-1 0 0 1 1068 28)" fill="url(#paint51_linear_2069_775)"/>
<ellipse cx="8" cy="7" rx="8" ry="7" transform="matrix(-1 0 0 1 1022 204)" fill="url(#paint52_linear_2069_775)"/>
<ellipse cx="8" cy="8.5" rx="8" ry="8.5" transform="matrix(-1 0 0 1 1076 130)" fill="url(#paint53_linear_2069_775)"/>
<ellipse cx="8" cy="7.5" rx="8" ry="7.5" transform="matrix(-1 0 0 1 1138 74)" fill="url(#paint54_linear_2069_775)"/>
<defs>
<linearGradient id="paint0_linear_2069_775" x1="518.34" y1="130.5" x2="536.091" y2="130.72" gradientUnits="userSpaceOnUse">
<stop offset="0.225" stop-color="white"/>
<stop offset="1" stop-color="white"/>
</linearGradient>
<linearGradient id="paint1_linear_2069_775" x1="399.131" y1="285.347" x2="416.564" y2="288.705" gradientUnits="userSpaceOnUse">
<stop offset="0.225" stop-color="white"/>
<stop offset="1" stop-color="white"/>
</linearGradient>
<linearGradient id="paint2_linear_2069_775" x1="399.131" y1="285.347" x2="416.564" y2="288.705" gradientUnits="userSpaceOnUse">
<stop offset="0.225" stop-color="white"/>
<stop offset="1" stop-color="white"/>
</linearGradient>
<linearGradient id="paint3_linear_2069_775" x1="181.776" y1="153.989" x2="228.616" y2="155.788" gradientUnits="userSpaceOnUse">
<stop offset="0.225" stop-color="white"/>
<stop offset="1" stop-color="white"/>
</linearGradient>
<linearGradient id="paint4_linear_2069_775" x1="893.148" y1="166.113" x2="910.916" y2="177.25" gradientUnits="userSpaceOnUse">
<stop offset="0.225" stop-color="white"/>
<stop offset="1" stop-color="white"/>
</linearGradient>
<linearGradient id="paint5_linear_2069_775" x1="510.148" y1="342.113" x2="527.916" y2="353.25" gradientUnits="userSpaceOnUse">
<stop offset="0.225" stop-color="white"/>
<stop offset="1" stop-color="white"/>
</linearGradient>
<linearGradient id="paint6_linear_2069_775" x1="402.728" y1="75.6108" x2="420.201" y2="72.5066" gradientUnits="userSpaceOnUse">
<stop offset="0.225" stop-color="white"/>
<stop offset="1" stop-color="white"/>
</linearGradient>
<linearGradient id="paint7_linear_2069_775" x1="624.823" y1="335.56" x2="641.511" y2="341.6" gradientUnits="userSpaceOnUse">
<stop offset="0.225" stop-color="white"/>
<stop offset="1" stop-color="white"/>
</linearGradient>
<linearGradient id="paint8_linear_2069_775" x1="823.943" y1="70.6486" x2="840.567" y2="64.4356" gradientUnits="userSpaceOnUse">
<stop offset="0.225" stop-color="white"/>
<stop offset="1" stop-color="white"/>
</linearGradient>
<linearGradient id="paint9_linear_2069_775" x1="698.516" y1="124.246" x2="714.513" y2="131.933" gradientUnits="userSpaceOnUse">
<stop offset="0.225" stop-color="white"/>
<stop offset="1" stop-color="white"/>
</linearGradient>
<linearGradient id="paint10_linear_2069_775" x1="809.392" y1="133.619" x2="825.389" y2="141.306" gradientUnits="userSpaceOnUse">
<stop offset="0.225" stop-color="white"/>
<stop offset="1" stop-color="white"/>
</linearGradient>
<linearGradient id="paint11_linear_2069_775" x1="556" y1="257" x2="567.244" y2="257.596" gradientUnits="userSpaceOnUse">
<stop offset="0.225" stop-color="white"/>
<stop offset="1" stop-color="white"/>
</linearGradient>
<linearGradient id="paint12_linear_2069_775" x1="449" y1="177" x2="460.244" y2="177.596" gradientUnits="userSpaceOnUse">
<stop offset="0.225" stop-color="white"/>
<stop offset="1" stop-color="white"/>
</linearGradient>
<linearGradient id="paint13_linear_2069_775" x1="296" y1="60" x2="307.244" y2="60.5961" gradientUnits="userSpaceOnUse">
<stop offset="0.225" stop-color="white"/>
<stop offset="1" stop-color="white"/>
</linearGradient>
<linearGradient id="paint14_linear_2069_775" x1="296" y1="203" x2="320.53" y2="204.31" gradientUnits="userSpaceOnUse">
<stop offset="0.225" stop-color="white"/>
<stop offset="1" stop-color="white"/>
</linearGradient>
<linearGradient id="paint15_linear_2069_775" x1="690" y1="280.5" x2="706.352" y2="281.39" gradientUnits="userSpaceOnUse">
<stop offset="0.225" stop-color="white"/>
<stop offset="1" stop-color="white"/>
</linearGradient>
<linearGradient id="paint16_linear_2069_775" x1="747" y1="207.5" x2="763.352" y2="208.39" gradientUnits="userSpaceOnUse">
<stop offset="0.225" stop-color="white"/>
<stop offset="1" stop-color="white"/>
</linearGradient>
<linearGradient id="paint17_linear_2069_775" x1="1534.82" y1="275.012" x2="1551.51" y2="268.972" gradientUnits="userSpaceOnUse">
<stop offset="0.225" stop-color="white"/>
<stop offset="1" stop-color="white"/>
</linearGradient>
<linearGradient id="paint18_linear_2069_775" x1="1.25485e-08" y1="8.5" x2="16.3517" y2="9.39011" gradientUnits="userSpaceOnUse">
<stop offset="0.225" stop-color="white"/>
<stop offset="1" stop-color="white"/>
</linearGradient>
<linearGradient id="paint19_linear_2069_775" x1="1.25485e-08" y1="8.5" x2="16.3517" y2="9.39011" gradientUnits="userSpaceOnUse">
<stop offset="0.225" stop-color="white"/>
<stop offset="1" stop-color="white"/>
</linearGradient>
<linearGradient id="paint20_linear_2069_775" x1="647" y1="198.5" x2="663.352" y2="199.39" gradientUnits="userSpaceOnUse">
<stop offset="0.225" stop-color="white"/>
<stop offset="1" stop-color="white"/>
</linearGradient>
<linearGradient id="paint21_linear_2069_775" x1="253.058" y1="268.312" x2="259.004" y2="285.034" gradientUnits="userSpaceOnUse">
<stop offset="0.225" stop-color="white"/>
<stop offset="1" stop-color="white"/>
</linearGradient>
<linearGradient id="paint22_linear_2069_775" x1="134.666" y1="378.898" x2="151.018" y2="379.788" gradientUnits="userSpaceOnUse">
<stop offset="0.225" stop-color="white"/>
<stop offset="1" stop-color="white"/>
</linearGradient>
<linearGradient id="paint23_linear_2069_775" x1="161.873" y1="290.395" x2="178.225" y2="291.285" gradientUnits="userSpaceOnUse">
<stop offset="0.225" stop-color="white"/>
<stop offset="1" stop-color="white"/>
</linearGradient>
<linearGradient id="paint24_linear_2069_775" x1="631" y1="53.5" x2="647.352" y2="54.3901" gradientUnits="userSpaceOnUse">
<stop offset="0.225" stop-color="white"/>
<stop offset="1" stop-color="white"/>
</linearGradient>
<linearGradient id="paint25_linear_2069_775" x1="1223.24" y1="34.8147" x2="1240.79" y2="37.2129" gradientUnits="userSpaceOnUse">
<stop offset="0.225" stop-color="white"/>
<stop offset="1" stop-color="white"/>
</linearGradient>
<linearGradient id="paint26_linear_2069_775" x1="1443.19" y1="300.473" x2="1425.75" y2="303.831" gradientUnits="userSpaceOnUse">
<stop offset="0.225" stop-color="white"/>
<stop offset="1" stop-color="white"/>
</linearGradient>
<linearGradient id="paint27_linear_2069_775" x1="1472.19" y1="77.4728" x2="1454.75" y2="80.8313" gradientUnits="userSpaceOnUse">
<stop offset="0.225" stop-color="white"/>
<stop offset="1" stop-color="white"/>
</linearGradient>
<linearGradient id="paint28_linear_2069_775" x1="913.037" y1="61.9775" x2="959.451" y2="68.53" gradientUnits="userSpaceOnUse">
<stop offset="0.225" stop-color="white"/>
<stop offset="1" stop-color="white"/>
</linearGradient>
<linearGradient id="paint29_linear_2069_775" x1="8.39172" y1="227.754" x2="24.3888" y2="220.067" gradientUnits="userSpaceOnUse">
<stop offset="0.225" stop-color="white"/>
<stop offset="1" stop-color="white"/>
</linearGradient>
<linearGradient id="paint30_linear_2069_775" x1="119.268" y1="218.381" x2="135.265" y2="210.694" gradientUnits="userSpaceOnUse">
<stop offset="0.225" stop-color="white"/>
<stop offset="1" stop-color="white"/>
</linearGradient>
<linearGradient id="paint31_linear_2069_775" x1="1.25485e-08" y1="8.5" x2="16.3517" y2="9.39011" gradientUnits="userSpaceOnUse">
<stop offset="0.225" stop-color="white"/>
<stop offset="1" stop-color="white"/>
</linearGradient>
<linearGradient id="paint32_linear_2069_775" x1="13.3718" y1="58.0367" x2="127.867" y2="29.3968" gradientUnits="userSpaceOnUse">
<stop offset="0.225" stop-color="white"/>
<stop offset="1" stop-color="white"/>
</linearGradient>
<linearGradient id="paint33_linear_2069_775" x1="902.877" y1="241.113" x2="885.11" y2="252.25" gradientUnits="userSpaceOnUse">
<stop offset="0.225" stop-color="white"/>
<stop offset="1" stop-color="white"/>
</linearGradient>
<linearGradient id="paint34_linear_2069_775" x1="1285.88" y1="417.113" x2="1268.11" y2="428.25" gradientUnits="userSpaceOnUse">
<stop offset="0.225" stop-color="white"/>
<stop offset="1" stop-color="white"/>
</linearGradient>
<linearGradient id="paint35_linear_2069_775" x1="1598.97" y1="182.586" x2="1571.72" y2="131.623" gradientUnits="userSpaceOnUse">
<stop offset="0.225" stop-color="white"/>
<stop offset="1" stop-color="white"/>
</linearGradient>
<linearGradient id="paint36_linear_2069_775" x1="1366.3" y1="100.087" x2="1349.05" y2="96.4353" gradientUnits="userSpaceOnUse">
<stop offset="0.225" stop-color="white"/>
<stop offset="1" stop-color="white"/>
</linearGradient>
<linearGradient id="paint37_linear_2069_775" x1="1116.26" y1="260.737" x2="1100.35" y2="267.601" gradientUnits="userSpaceOnUse">
<stop offset="0.225" stop-color="white"/>
<stop offset="1" stop-color="white"/>
</linearGradient>
<linearGradient id="paint38_linear_2069_775" x1="1273.47" y1="226.623" x2="1290.64" y2="231.113" gradientUnits="userSpaceOnUse">
<stop offset="0.225" stop-color="white"/>
<stop offset="1" stop-color="white"/>
</linearGradient>
<linearGradient id="paint39_linear_2069_775" x1="1143.24" y1="186.059" x2="1158.37" y2="176.785" gradientUnits="userSpaceOnUse">
<stop offset="0.225" stop-color="white"/>
<stop offset="1" stop-color="white"/>
</linearGradient>
<linearGradient id="paint40_linear_2069_775" x1="1252.59" y1="165.459" x2="1267.72" y2="156.185" gradientUnits="userSpaceOnUse">
<stop offset="0.225" stop-color="white"/>
<stop offset="1" stop-color="white"/>
</linearGradient>
<linearGradient id="paint41_linear_2069_775" x1="8.62707e-09" y1="6" x2="11.2435" y2="6.5961" gradientUnits="userSpaceOnUse">
<stop offset="0.225" stop-color="white"/>
<stop offset="1" stop-color="white"/>
</linearGradient>
<linearGradient id="paint42_linear_2069_775" x1="8.62707e-09" y1="6" x2="11.2435" y2="6.5961" gradientUnits="userSpaceOnUse">
<stop offset="0.225" stop-color="white"/>
<stop offset="1" stop-color="white"/>
</linearGradient>
<linearGradient id="paint43_linear_2069_775" x1="1202.15" y1="136" x2="1213.39" y2="136.596" gradientUnits="userSpaceOnUse">
<stop offset="0.225" stop-color="white"/>
<stop offset="1" stop-color="white"/>
</linearGradient>
<linearGradient id="paint44_linear_2069_775" x1="1.88227e-08" y1="11" x2="24.5027" y2="12.546" gradientUnits="userSpaceOnUse">
<stop offset="0.225" stop-color="white"/>
<stop offset="1" stop-color="white"/>
</linearGradient>
<linearGradient id="paint45_linear_2069_775" x1="1770.84" y1="46.279" x2="1753.19" y2="43.5234" gradientUnits="userSpaceOnUse">
<stop offset="0.225" stop-color="white"/>
<stop offset="1" stop-color="white"/>
</linearGradient>
<linearGradient id="paint46_linear_2069_775" x1="1799.84" y1="321.442" x2="1782.19" y2="318.686" gradientUnits="userSpaceOnUse">
<stop offset="0.225" stop-color="white"/>
<stop offset="1" stop-color="white"/>
</linearGradient>
<linearGradient id="paint47_linear_2069_775" x1="1681.12" y1="142.885" x2="1698.68" y2="139.165" gradientUnits="userSpaceOnUse">
<stop offset="0.225" stop-color="white"/>
<stop offset="1" stop-color="white"/>
</linearGradient>
<linearGradient id="paint48_linear_2069_775" x1="1660.24" y1="218.356" x2="1676.94" y2="226.649" gradientUnits="userSpaceOnUse">
<stop offset="0.225" stop-color="white"/>
<stop offset="1" stop-color="white"/>
</linearGradient>
<linearGradient id="paint49_linear_2069_775" x1="1593.19" y1="78.0614" x2="1598.62" y2="60.2274" gradientUnits="userSpaceOnUse">
<stop offset="0.225" stop-color="white"/>
<stop offset="1" stop-color="white"/>
</linearGradient>
<linearGradient id="paint50_linear_2069_775" x1="1777" y1="161.5" x2="1801.54" y2="162.761" gradientUnits="userSpaceOnUse">
<stop offset="0.225" stop-color="white"/>
<stop offset="1" stop-color="white"/>
</linearGradient>
<linearGradient id="paint51_linear_2069_775" x1="1.25485e-08" y1="7" x2="16.3288" y2="8.07933" gradientUnits="userSpaceOnUse">
<stop offset="0.225" stop-color="white"/>
<stop offset="1" stop-color="white"/>
</linearGradient>
<linearGradient id="paint52_linear_2069_775" x1="1.25485e-08" y1="7" x2="16.3288" y2="8.07933" gradientUnits="userSpaceOnUse">
<stop offset="0.225" stop-color="white"/>
<stop offset="1" stop-color="white"/>
</linearGradient>
<linearGradient id="paint53_linear_2069_775" x1="1.25485e-08" y1="8.5" x2="16.3517" y2="9.39011" gradientUnits="userSpaceOnUse">
<stop offset="0.225" stop-color="white"/>
<stop offset="1" stop-color="white"/>
</linearGradient>
<linearGradient id="paint54_linear_2069_775" x1="1.25485e-08" y1="7.5" x2="16.338" y2="8.50794" gradientUnits="userSpaceOnUse">
<stop offset="0.225" stop-color="white"/>
<stop offset="1" stop-color="white"/>
</linearGradient>
</defs>
</svg>
