<svg width="271" height="295" viewBox="0 0 271 295" fill="none" xmlns="http://www.w3.org/2000/svg">
<path d="M223.001 227C221.602 212.49 219.791 206.538 217.203 204.72L207.442 216.412C207.713 216.667 208.343 217.934 210.606 221.534C213.435 226.034 210.044 238.751 208.324 244.5C206.604 250.248 207.442 258.319 208.324 267.5C209.282 277.466 217.141 283.546 227.501 287C238.001 290.5 253.003 287.515 252.001 279.5C251.001 271.5 238.501 270 233.501 269C228.981 268.096 222.188 263.435 220.501 255C219.001 247.5 224.4 241.51 223.001 227Z" fill="#F3885E" stroke="#8B250E" stroke-width="0.5"/>
<g filter="url(#filter0_d_2062_326)">
<path d="M219 206C217.5 209.5 212 214.5 208.5 217.5" stroke="#8C1B00" stroke-width="0.2"/>
</g>
<path d="M223.502 262L213.285 278.47L215.502 281L225.868 264.478L223.502 262Z" fill="#8B250E"/>
<path d="M227.416 266.358L219.501 283.5L223.5 285.501L231.5 268.5L227.416 266.358Z" fill="#8B250E"/>
<path d="M221 256L208.069 267.532L209.749 273.811L222.549 260.164L221.244 258.313L221 256Z" fill="#8B250E"/>
<path d="M154.48 95.0788C164.793 100.558 178.174 109.327 196.089 122.391C211.078 136.965 220.521 154.394 223.677 170.787C226.834 187.184 223.7 202.53 213.558 212.963C203.417 223.395 188.166 226.962 171.686 224.27C155.211 221.578 137.522 212.633 122.532 198.063C109.057 179.099 99.9585 165.257 94.2064 154.836C88.4509 144.408 86.057 137.422 85.9693 132.165C85.8819 126.924 88.0865 123.381 91.5993 119.831C93.1451 118.269 94.9406 116.709 96.9044 115.004C97.1755 114.768 97.4497 114.53 97.727 114.289C100.011 112.3 102.494 110.099 105.045 107.475C107.383 105.07 109.442 102.725 111.361 100.54C111.535 100.342 111.708 100.145 111.879 99.9494C113.947 97.5965 115.862 95.4458 117.811 93.617C121.704 89.9633 125.719 87.605 131.321 87.5115C136.935 87.4178 144.164 89.5975 154.48 95.0788Z" fill="#F3885E" stroke="#8B250E" stroke-width="0.3"/>
<path d="M169.053 133.928C189.94 156.617 207.362 187.411 192.892 200.732C178.422 214.052 149.759 206.457 128.872 183.767C107.985 161.077 102.783 131.885 117.253 118.565C131.723 105.245 148.166 111.238 169.053 133.928Z" fill="#FFE2C8"/>
<g filter="url(#filter1_d_2062_326)">
<mask id="path-8-inside-1_2062_326" fill="white">
<path fill-rule="evenodd" clip-rule="evenodd" d="M80.9559 41.0693C79.6002 40.3396 77.963 41.3512 78.0089 42.8901L78.5656 61.5401C74.9175 63.8126 71.3835 66.4888 68.0417 69.562C64.0787 73.2066 60.6496 77.1671 57.7762 81.315L44.882 77.2749C43.4128 76.8146 41.9962 78.1173 42.3322 79.6198L47.812 104.129C47.8283 104.202 47.8481 104.273 47.8712 104.341C45.4077 117.24 48.034 129.796 56.2975 138.781C72.3731 156.262 103.695 153.612 126.256 132.863C148.818 112.115 154.076 81.1242 138 63.644C129.321 54.2062 116.197 50.6363 102.407 52.6149L80.9559 41.0693Z"/>
</mask>
<path fill-rule="evenodd" clip-rule="evenodd" d="M80.9559 41.0693C79.6002 40.3396 77.963 41.3512 78.0089 42.8901L78.5656 61.5401C74.9175 63.8126 71.3835 66.4888 68.0417 69.562C64.0787 73.2066 60.6496 77.1671 57.7762 81.315L44.882 77.2749C43.4128 76.8146 41.9962 78.1173 42.3322 79.6198L47.812 104.129C47.8283 104.202 47.8481 104.273 47.8712 104.341C45.4077 117.24 48.034 129.796 56.2975 138.781C72.3731 156.262 103.695 153.612 126.256 132.863C148.818 112.115 154.076 81.1242 138 63.644C129.321 54.2062 116.197 50.6363 102.407 52.6149L80.9559 41.0693Z" fill="#F3885E"/>
<path d="M78.0089 42.8901L78.3088 42.8811L78.3088 42.8811L78.0089 42.8901ZM80.9559 41.0693L80.8137 41.3335L80.9559 41.0693ZM78.5656 61.5401L78.7242 61.7948L78.8706 61.7036L78.8655 61.5312L78.5656 61.5401ZM57.7762 81.315L57.6865 81.6012L57.8971 81.6672L58.0228 81.4858L57.7762 81.315ZM44.882 77.2749L44.9717 76.9886L44.9717 76.9886L44.882 77.2749ZM42.3322 79.6198L42.625 79.5543L42.625 79.5543L42.3322 79.6198ZM47.812 104.129L48.1048 104.064L48.1048 104.064L47.812 104.129ZM47.8712 104.341L48.1658 104.397L48.1806 104.32L48.1554 104.245L47.8712 104.341ZM102.407 52.6149L102.265 52.8791L102.352 52.9259L102.45 52.9119L102.407 52.6149ZM78.3088 42.8811C78.2697 41.5731 79.6613 40.7132 80.8137 41.3335L81.0981 40.8051C79.539 39.966 77.6562 41.1293 77.709 42.899L78.3088 42.8811ZM78.8655 61.5312L78.3088 42.8811L77.709 42.899L78.2658 61.5491L78.8655 61.5312ZM78.407 61.2855C74.743 63.5679 71.1941 66.2554 67.8386 69.3412L68.2448 69.7829C71.5729 66.7222 75.092 64.0573 78.7242 61.7948L78.407 61.2855ZM67.8386 69.3412C63.8594 73.0007 60.4157 76.978 57.5296 81.1441L58.0228 81.4858C60.8835 77.3563 64.298 73.4125 68.2448 69.7829L67.8386 69.3412ZM57.8659 81.0287L44.9717 76.9886L44.7923 77.5612L57.6865 81.6012L57.8659 81.0287ZM44.9717 76.9886C43.2821 76.4592 41.6531 77.9574 42.0394 79.6852L42.625 79.5543C42.3394 78.2772 43.5435 77.1699 44.7923 77.5612L44.9717 76.9886ZM42.0394 79.6852L47.5193 104.195L48.1048 104.064L42.625 79.5543L42.0394 79.6852ZM47.5193 104.195C47.5378 104.278 47.5605 104.359 47.5869 104.437L48.1554 104.245C48.1358 104.187 48.1188 104.126 48.1048 104.064L47.5193 104.195ZM47.5765 104.285C45.0993 117.256 47.7355 129.914 56.0767 138.985L56.5184 138.578C48.3326 129.677 45.7161 117.225 48.1658 104.397L47.5765 104.285ZM56.0767 138.985C72.3095 156.636 103.832 153.894 126.459 133.084L126.053 132.643C103.558 153.33 72.4366 155.887 56.5184 138.578L56.0767 138.985ZM126.459 133.084C149.087 112.275 154.454 81.0922 138.221 63.4409L137.78 63.8471C153.698 81.1562 148.549 111.955 126.053 132.643L126.459 133.084ZM138.221 63.4409C129.46 53.9141 116.228 50.3288 102.365 52.318L102.45 52.9119C116.166 50.9439 129.182 54.4982 137.78 63.8471L138.221 63.4409ZM80.8137 41.3335L102.265 52.8791L102.549 52.3508L81.0981 40.8051L80.8137 41.3335Z" fill="#8C1B00" mask="url(#path-8-inside-1_2062_326)"/>
</g>
<g filter="url(#filter2_d_2062_326)">
<circle cx="70.9639" cy="109.671" r="13.5" transform="rotate(-42.6029 70.9639 109.671)" fill="#EDDFD2"/>
<circle cx="70.9639" cy="109.671" r="13.35" transform="rotate(-42.6029 70.9639 109.671)" stroke="#8C1B00" stroke-width="0.3"/>
</g>
<g filter="url(#filter3_d_2062_326)">
<circle cx="101.142" cy="81.9173" r="13.5" transform="rotate(-42.6029 101.142 81.9173)" fill="#EDDFD2"/>
<circle cx="101.142" cy="81.9173" r="13.35" transform="rotate(-42.6029 101.142 81.9173)" stroke="#8C1B00" stroke-width="0.3"/>
</g>
<ellipse cx="71.4188" cy="107.213" rx="10.5" ry="11" transform="rotate(-42.6029 71.4188 107.213)" fill="#2B0000"/>
<ellipse cx="98.6532" cy="82.1671" rx="10.5" ry="11" transform="rotate(-42.6029 98.6532 82.1671)" fill="#2B0000"/>
<mask id="path-16-inside-2_2062_326" fill="white">
<path fill-rule="evenodd" clip-rule="evenodd" d="M45.3326 78.6737C44.5538 78.2593 43.659 78.983 43.9013 79.8313L49.0223 97.753C50.3993 93.3548 52.577 88.6956 55.4948 84.081L45.3326 78.6737Z"/>
</mask>
<path fill-rule="evenodd" clip-rule="evenodd" d="M45.3326 78.6737C44.5538 78.2593 43.659 78.983 43.9013 79.8313L49.0223 97.753C50.3993 93.3548 52.577 88.6956 55.4948 84.081L45.3326 78.6737Z" fill="#EF9C99"/>
<path d="M43.9013 79.8313L43.6129 79.9137L43.6129 79.9137L43.9013 79.8313ZM45.3326 78.6737L45.1917 78.9386L45.1917 78.9386L45.3326 78.6737ZM49.0223 97.753L48.7339 97.8354L49.0092 98.799L49.3086 97.8426L49.0223 97.753ZM55.4948 84.081L55.7483 84.2414L55.9211 83.9681L55.6357 83.8162L55.4948 84.081ZM44.1898 79.7489C44.0201 79.1551 44.6465 78.6485 45.1917 78.9386L45.4735 78.4089C44.4611 77.8702 43.2978 78.811 43.6129 79.9137L44.1898 79.7489ZM49.3108 97.6706L44.1898 79.7489L43.6129 79.9137L48.7339 97.8354L49.3108 97.6706ZM49.3086 97.8426C50.6769 93.4721 52.8428 88.8364 55.7483 84.2414L55.2412 83.9207C52.3111 88.5548 50.1216 93.2376 48.736 97.6634L49.3086 97.8426ZM45.1917 78.9386L55.3539 84.3459L55.6357 83.8162L45.4735 78.4089L45.1917 78.9386Z" fill="#8C1B00" fill-opacity="0.58" mask="url(#path-16-inside-2_2062_326)"/>
<mask id="path-18-inside-3_2062_326" fill="white">
<path fill-rule="evenodd" clip-rule="evenodd" d="M81.4311 43.283C80.7421 42.8921 79.8937 43.4194 79.9393 44.2103L80.874 60.4274C83.0932 58.7821 85.5711 57.327 88.2719 56.1266C91.758 54.5772 95.3102 53.5878 98.7739 53.1227L81.4311 43.283Z"/>
</mask>
<path fill-rule="evenodd" clip-rule="evenodd" d="M81.4311 43.283C80.7421 42.8921 79.8937 43.4194 79.9393 44.2103L80.874 60.4274C83.0932 58.7821 85.5711 57.327 88.2719 56.1266C91.758 54.5772 95.3102 53.5878 98.7739 53.1227L81.4311 43.283Z" fill="#EF9C99"/>
<path d="M79.9393 44.2103L79.6398 44.2276L79.9393 44.2103ZM81.4311 43.283L81.2831 43.544L81.4311 43.283ZM80.874 60.4274L80.5745 60.4447L80.6065 60.9992L81.0527 60.6684L80.874 60.4274ZM88.2719 56.1266L88.3938 56.4007L88.2719 56.1266ZM98.7739 53.1227L98.8139 53.4201L99.6969 53.3015L98.922 52.8618L98.7739 53.1227ZM80.2388 44.1931C80.2069 43.6395 80.8008 43.2703 81.2831 43.544L81.5792 43.0221C80.6834 42.5139 79.5806 43.1994 79.6398 44.2276L80.2388 44.1931ZM81.1735 60.4102L80.2388 44.1931L79.6398 44.2276L80.5745 60.4447L81.1735 60.4102ZM81.0527 60.6684C83.2541 59.0363 85.7129 57.5923 88.3938 56.4007L88.1501 55.8524C85.4293 57.0617 82.9323 58.5279 80.6954 60.1864L81.0527 60.6684ZM88.3938 56.4007C91.8541 54.8627 95.3788 53.8813 98.8139 53.4201L98.734 52.8254C95.2416 53.2943 91.6618 54.2916 88.1501 55.8524L88.3938 56.4007ZM81.2831 43.544L98.6259 53.3837L98.922 52.8618L81.5792 43.0221L81.2831 43.544Z" fill="#8C1B00" fill-opacity="0.58" mask="url(#path-18-inside-3_2062_326)"/>
<path d="M70.8664 87.3C69.9709 87.0016 64.0187 80.6981 60.9908 77.4056L63.5966 74.3299C66.741 77.7491 72.7469 84.4486 72.9694 85.3659C73.1919 86.2832 72.9671 86.7704 72.8269 86.8993C72.5465 87.1572 71.7618 87.5983 70.8664 87.3Z" fill="#8C1B00"/>
<path d="M75.6893 82.2399C74.8691 81.8829 68.8991 74.8785 66.1187 71.5549L68.6864 69.1934C71.5738 72.6449 77.4002 79.7655 77.6068 80.6358C77.8133 81.506 77.6092 81.9375 77.4814 82.0444C77.2257 82.2583 76.5094 82.5968 75.6893 82.2399Z" fill="#8C1B00"/>
<path d="M81.3876 78.3388C80.5407 77.9806 73.6917 70.6922 70.7324 67.3221L73.7395 65.0825C76.8126 68.5822 83.0203 75.8032 83.2661 76.6893C83.5119 77.5754 83.3229 78.0168 83.1976 78.1268C82.9471 78.3467 82.2345 78.6971 81.3876 78.3388Z" fill="#8C1B00"/>
<path d="M124.47 77.9508C124.99 76.945 134.533 68.419 138.798 64.5821L140.748 67.3421C136.319 71.3266 127.197 79.3983 126.142 79.8093C125.088 80.2203 124.601 80.0752 124.489 79.9513C124.266 79.7035 123.951 78.9565 124.47 77.9508Z" fill="#8C1B00"/>
<path d="M128.551 84.4581C129.256 83.6339 140.051 77.989 144.882 75.4408L146.114 78.5852C141.098 81.2313 130.796 86.5527 129.717 86.6693C128.639 86.786 128.214 86.5203 128.136 86.3729C127.98 86.0781 127.846 85.2824 128.551 84.4581Z" fill="#8C1B00"/>
<path d="M129.467 79.0283C129.931 78.2067 138.36 72.25 142.128 69.5635L143.816 72.4816C139.903 75.2714 131.847 80.8936 130.919 81.0638C129.991 81.2341 129.566 81.0053 129.469 80.8696C129.275 80.5982 129.004 79.85 129.467 79.0283Z" fill="#8C1B00"/>
<path d="M71.6492 126.527C70.6035 126.961 61.3098 135.758 57.1299 139.687L59.7172 141.861C64.0579 137.78 72.8638 129.365 73.3615 128.348C73.8592 127.331 73.7553 126.834 73.6412 126.713C73.4129 126.47 72.6948 126.093 71.6492 126.527Z" fill="#8C1B00"/>
<path d="M77.7932 131.137C76.913 131.771 70.3855 142.056 67.4426 146.657L70.473 148.147C73.5291 143.37 79.6929 133.549 79.8992 132.484C80.1056 131.419 79.8763 130.973 79.7359 130.883C79.4551 130.704 78.6735 130.503 77.7932 131.137Z" fill="#8C1B00"/>
<path d="M72.3073 131.596C71.4498 131.989 64.8094 139.891 61.8175 143.421L64.5843 145.347C67.6913 141.682 73.9671 134.123 74.2143 133.213C74.4616 132.302 74.2691 131.859 74.142 131.752C73.8877 131.536 73.1647 131.203 72.3073 131.596Z" fill="#8C1B00"/>
<path d="M96.8301 107.515L100.892 111.931" stroke="#8B250E" stroke-width="0.5"/>
<path d="M97.4136 107.547C97.4339 107.871 97.1461 108.128 96.8271 108.071L90.1775 106.89C89.7667 106.817 89.6206 106.303 89.9318 106.025L96.1567 100.466C96.4679 100.188 96.9626 100.391 96.9888 100.807L97.4136 107.547Z" fill="#EF9C99"/>
<path d="M97.2638 107.557C97.2781 107.783 97.0766 107.963 96.8533 107.923L90.2037 106.743C89.9161 106.691 89.8139 106.331 90.0318 106.137L96.2567 100.577C96.4745 100.383 96.8207 100.525 96.8391 100.816L97.2638 107.557Z" stroke="#8C1B00" stroke-opacity="0.79" stroke-width="0.3"/>
<path fill-rule="evenodd" clip-rule="evenodd" d="M100.821 111.039C100.777 111.029 100.729 111.026 100.679 111.03L100.614 111.036C100.339 111.033 100.079 111.25 100.032 111.521L100.016 111.617C100.002 111.697 100.009 111.773 100.032 111.841L99.6235 117.729C99.6044 118.004 99.812 118.208 100.087 118.185L100.183 118.176C100.459 118.153 100.697 117.91 100.716 117.635L101.098 112.126L106.62 112.206C106.896 112.21 107.157 111.992 107.204 111.72L107.22 111.625C107.267 111.353 107.081 111.129 106.805 111.125L100.821 111.039Z" fill="#8C1B00"/>
<path d="M182.244 131.46C180.97 132.396 179.637 139.657 170.458 140.52C163.772 141.148 159.767 137.31 158.246 134.78C159.564 137.331 161.673 142.315 161.864 146.448C162.126 152.142 157.814 156.687 153.423 152.851C149.045 149.026 146.857 142.25 145.016 136.551L145 136.5C143.525 131.932 146.681 121.432 151.5 119C154.827 117.321 161.975 117.829 166.384 119.768L182.244 131.46Z" fill="#F3885E"/>
<path d="M182.244 131.46C180.97 132.396 179.637 139.657 170.458 140.52C163.115 141.21 159.006 136.512 157.869 134.077C159.113 136.302 161.654 141.892 161.864 146.448C162.126 152.142 157.814 156.687 153.423 152.851C149.032 149.015 146.844 142.21 145 136.5C143.525 131.932 146.681 121.432 151.5 119C154.827 117.321 161.975 117.829 166.384 119.768" stroke="#8C1B00" stroke-width="0.3"/>
<path d="M155.572 150.271C155.686 150.471 156.064 153.042 156.238 154.194L155.54 154.218C155.36 153.021 155.012 150.573 155.062 150.348C155.111 150.123 155.192 150.056 155.226 150.051C155.294 150.041 155.459 150.07 155.572 150.271Z" fill="#8C1B00"/>
<path d="M158.417 148.92C158.542 149.13 159.293 151.88 159.633 153.112L159.048 153.494C158.695 152.215 158.032 149.271 158.031 149.026C158.03 148.782 158.081 148.707 158.107 148.699C158.159 148.685 158.293 148.709 158.417 148.92Z" fill="#8C1B00"/>
<path d="M159.455 148.855C159.576 148.981 160.442 150.793 160.833 151.605L160.391 151.984C159.985 151.141 159.172 149.176 159.149 149.002C159.126 148.829 159.161 148.766 159.181 148.756C159.222 148.736 159.334 148.729 159.455 148.855Z" fill="#8C1B00"/>
<path d="M157.003 149.43C157.126 149.674 157.583 152.771 157.793 154.159L157.072 154.17C156.854 152.728 156.431 149.779 156.477 149.51C156.523 149.241 156.604 149.163 156.639 149.158C156.709 149.147 156.88 149.187 157.003 149.43Z" fill="#8C1B00"/>
<path d="M122.5 176C126.875 170.482 127.343 163.761 126.14 161.179C127.458 163.58 130.62 168.399 134.149 170.934C138.78 174.259 144.941 173.123 144.12 167.35C143.298 161.577 137.281 153.159 133.5 148.5C130.475 144.773 121.458 144.566 116.792 147.28C113.57 149.154 110.099 155.422 109.32 160.176L122.5 176Z" fill="#F3885E"/>
<path d="M122.5 176C127.082 170.22 127.379 163.12 125.957 160.84C127.145 163.096 130.445 168.273 134.149 170.934C138.78 174.259 144.941 173.123 144.12 167.35C143.298 161.577 137.281 153.159 133.5 148.5C130.475 144.773 121.458 144.566 116.792 147.28C113.57 149.154 110.099 155.422 109.32 160.176" stroke="#8C1B00" stroke-width="0.3"/>
<path d="M141.296 167.608C141.364 167.825 142.865 169.789 143.535 170.673L143.953 170.16C143.257 169.242 141.821 167.38 141.642 167.271C141.463 167.162 141.372 167.18 141.349 167.202C141.303 167.247 141.228 167.391 141.296 167.608Z" fill="#8C1B00"/>
<path d="M138.754 168.882C138.822 169.114 140.229 171.478 140.857 172.54L141.449 172.346C140.796 171.244 139.211 168.819 139.048 168.659C138.885 168.499 138.805 168.489 138.785 168.503C138.746 168.533 138.685 168.651 138.754 168.882Z" fill="#8C1B00"/>
<path d="M138.119 169.646C138.139 169.836 138.924 171.863 139.274 172.773L139.788 172.7C139.425 171.755 138.502 169.657 138.393 169.51C138.285 169.364 138.221 169.346 138.203 169.355C138.166 169.373 138.098 169.456 138.119 169.646Z" fill="#8C1B00"/>
<path d="M139.909 168.145C140.001 168.397 141.808 170.765 142.615 171.83L143.038 171.29C142.199 170.185 140.471 167.939 140.265 167.798C140.059 167.657 139.96 167.668 139.936 167.691C139.889 167.737 139.817 167.893 139.909 168.145Z" fill="#8C1B00"/>
<path d="M222.548 161.727C216.718 158.07 209.577 158.657 206.736 159.407L212.952 202.143C213.405 201.301 214.91 198.812 217.3 195.583C220.288 191.547 221.502 192.309 228.934 193.594C234.88 194.621 238.164 196.569 239.063 197.414C243.087 193.465 252.98 183.349 260.365 174.472C267.749 165.595 258.999 162.5 254.851 165.104C250.334 168.461 240.972 175.479 239.671 176.688C238.369 177.898 237.055 177.018 236.562 176.427C234.319 173.05 228.377 165.383 222.548 161.727Z" fill="#F3885E"/>
<path d="M206.736 159.407C209.577 158.657 216.718 158.07 222.548 161.727C228.377 165.383 234.319 173.05 236.562 176.427C237.055 177.018 238.369 177.898 239.671 176.688C240.972 175.479 250.334 168.461 254.851 165.104C259.499 162.5 267.749 165.595 260.365 174.472C252.98 183.348 243.087 193.465 239.063 197.414C238.164 196.569 234.88 194.621 228.934 193.594C221.502 192.309 220.288 191.547 217.3 195.583" stroke="#8C1B00" stroke-width="0.3"/>
<path d="M146.819 205.266C145.374 207.825 143 214.585 145.063 221.15C147.125 227.715 153.039 235.404 155.739 238.428C156.186 239.055 156.705 240.548 155.205 241.502C153.705 242.455 144.548 249.736 140.156 253.257C137 255.5 137.368 265.859 147.824 260.961C158.281 256.064 170.571 249.051 175.41 246.157C174.82 245.074 173.767 241.405 174.277 235.392C174.914 227.877 177.839 223.962 182.5 222.093C183.885 221.538 184.678 221.426 185.174 221.494L185.847 221.778C186.096 221.975 186.231 222.181 186.591 222.093L185.847 221.778C185.693 221.656 185.496 221.537 185.174 221.494L146.819 205.266Z" fill="#F3885E"/>
<path d="M146.821 205.266C145.376 207.825 143.002 214.585 145.064 221.15C147.127 227.714 153.041 235.403 155.74 238.427C156.187 239.055 156.706 240.548 155.207 241.501C153.707 242.455 144.549 249.736 140.158 253.257C137.001 256 137.37 265.859 147.826 260.961C158.282 256.063 170.573 249.051 175.411 246.157C174.821 245.074 173.768 241.404 174.278 235.392C174.916 227.876 176.841 224.869 181.501 223" stroke="#8C1B00" stroke-width="0.3"/>
<mask id="path-49-inside-4_2062_326" fill="white">
<path fill-rule="evenodd" clip-rule="evenodd" d="M200.913 215.118C200.934 215.393 201.174 215.599 201.45 215.578L203.395 215.429L203.362 217.38C203.358 217.656 203.578 217.884 203.854 217.889C204.13 217.893 204.357 217.673 204.362 217.397L204.397 215.352L206.435 215.196C206.71 215.174 206.916 214.934 206.895 214.659C206.874 214.383 206.634 214.177 206.358 214.199L204.414 214.348L204.446 212.398C204.451 212.122 204.231 211.894 203.955 211.889C203.679 211.885 203.451 212.105 203.447 212.381L203.412 214.425L201.373 214.581C201.098 214.602 200.892 214.843 200.913 215.118Z"/>
</mask>
<path fill-rule="evenodd" clip-rule="evenodd" d="M200.913 215.118C200.934 215.393 201.174 215.599 201.45 215.578L203.395 215.429L203.362 217.38C203.358 217.656 203.578 217.884 203.854 217.889C204.13 217.893 204.357 217.673 204.362 217.397L204.397 215.352L206.435 215.196C206.71 215.174 206.916 214.934 206.895 214.659C206.874 214.383 206.634 214.177 206.358 214.199L204.414 214.348L204.446 212.398C204.451 212.122 204.231 211.894 203.955 211.889C203.679 211.885 203.451 212.105 203.447 212.381L203.412 214.425L201.373 214.581C201.098 214.602 200.892 214.843 200.913 215.118Z" fill="#EF9C99"/>
<path d="M201.45 215.578L201.457 215.678L201.45 215.578ZM200.913 215.118L200.813 215.126L200.813 215.126L200.913 215.118ZM203.395 215.429L203.495 215.431L203.497 215.321L203.387 215.329L203.395 215.429ZM203.362 217.38L203.262 217.379L203.362 217.38ZM203.854 217.889L203.855 217.789L203.854 217.889ZM204.362 217.397L204.462 217.399L204.462 217.399L204.362 217.397ZM204.397 215.352L204.389 215.252L204.298 215.259L204.297 215.35L204.397 215.352ZM206.435 215.196L206.427 215.096L206.435 215.196ZM206.895 214.659L206.995 214.651L206.995 214.651L206.895 214.659ZM206.358 214.199L206.351 214.099L206.358 214.199ZM204.414 214.348L204.314 214.346L204.312 214.456L204.421 214.448L204.414 214.348ZM204.446 212.398L204.346 212.396L204.346 212.396L204.446 212.398ZM203.955 211.889L203.953 211.989L203.955 211.889ZM203.447 212.381L203.547 212.383L203.447 212.381ZM203.412 214.425L203.42 214.524L203.511 214.517L203.512 214.426L203.412 214.425ZM201.373 214.581L201.381 214.681L201.381 214.681L201.373 214.581ZM201.442 215.479C201.222 215.496 201.029 215.331 201.012 215.11L200.813 215.126C200.838 215.456 201.127 215.703 201.457 215.678L201.442 215.479ZM203.387 215.329L201.442 215.479L201.457 215.678L203.403 215.529L203.387 215.329ZM203.295 215.427L203.262 217.379L203.462 217.382L203.495 215.431L203.295 215.427ZM203.262 217.379C203.257 217.71 203.521 217.983 203.852 217.989L203.855 217.789C203.635 217.785 203.458 217.603 203.462 217.382L203.262 217.379ZM203.852 217.989C204.183 217.994 204.456 217.73 204.462 217.399L204.262 217.395C204.258 217.616 204.076 217.792 203.855 217.789L203.852 217.989ZM204.462 217.399L204.497 215.354L204.297 215.35L204.262 217.395L204.462 217.399ZM206.427 215.096L204.389 215.252L204.404 215.452L206.443 215.295L206.427 215.096ZM206.795 214.666C206.812 214.887 206.647 215.079 206.427 215.096L206.443 215.295C206.773 215.27 207.02 214.982 206.995 214.651L206.795 214.666ZM206.366 214.298C206.586 214.281 206.779 214.446 206.795 214.666L206.995 214.651C206.969 214.321 206.681 214.073 206.351 214.099L206.366 214.298ZM204.421 214.448L206.366 214.298L206.351 214.099L204.406 214.248L204.421 214.448ZM204.514 214.35L204.546 212.399L204.346 212.396L204.314 214.346L204.514 214.35ZM204.546 212.399C204.552 212.068 204.288 211.795 203.957 211.789L203.953 211.989C204.174 211.993 204.35 212.175 204.346 212.396L204.546 212.399ZM203.957 211.789C203.625 211.784 203.352 212.048 203.347 212.379L203.547 212.383C203.55 212.162 203.732 211.986 203.953 211.989L203.957 211.789ZM203.347 212.379L203.312 214.423L203.512 214.426L203.547 212.383L203.347 212.379ZM201.381 214.681L203.42 214.524L203.404 214.325L201.365 214.482L201.381 214.681ZM201.012 215.11C200.996 214.89 201.16 214.698 201.381 214.681L201.365 214.482C201.035 214.507 200.788 214.795 200.813 215.126L201.012 215.11Z" fill="#8C1B00" fill-opacity="0.63" mask="url(#path-49-inside-4_2062_326)"/>
<mask id="path-51-inside-5_2062_326" fill="white">
<path fill-rule="evenodd" clip-rule="evenodd" d="M150.07 259.764L153.475 258.108L149.657 253.344C149.112 252.663 148.017 252.959 147.888 253.822L147.192 258.48C147.105 259.056 147.528 259.583 148.11 259.625L150.07 259.764ZM145.616 261.931L148.117 260.714C148.155 260.477 148.113 260.255 147.98 260.084C147.64 259.649 146.835 259.708 146.182 260.218C145.529 260.727 145.274 261.493 145.614 261.929C145.615 261.93 145.615 261.93 145.616 261.931ZM144.38 260.238C144.041 259.802 144.295 259.036 144.948 258.527C145.602 258.017 146.407 257.958 146.746 258.393C147.086 258.829 146.832 259.595 146.178 260.104C145.525 260.613 144.72 260.673 144.38 260.238ZM144.347 257.149C143.976 256.74 144.187 255.944 144.818 255.371C145.449 254.798 146.261 254.665 146.633 255.074C147.004 255.483 146.793 256.279 146.162 256.852C145.531 257.425 144.718 257.558 144.347 257.149Z"/>
</mask>
<path fill-rule="evenodd" clip-rule="evenodd" d="M150.07 259.764L153.475 258.108L149.657 253.344C149.112 252.663 148.017 252.959 147.888 253.822L147.192 258.48C147.105 259.056 147.528 259.583 148.11 259.625L150.07 259.764ZM145.616 261.931L148.117 260.714C148.155 260.477 148.113 260.255 147.98 260.084C147.64 259.649 146.835 259.708 146.182 260.218C145.529 260.727 145.274 261.493 145.614 261.929C145.615 261.93 145.615 261.93 145.616 261.931ZM144.38 260.238C144.041 259.802 144.295 259.036 144.948 258.527C145.602 258.017 146.407 257.958 146.746 258.393C147.086 258.829 146.832 259.595 146.178 260.104C145.525 260.613 144.72 260.673 144.38 260.238ZM144.347 257.149C143.976 256.74 144.187 255.944 144.818 255.371C145.449 254.798 146.261 254.665 146.633 255.074C147.004 255.483 146.793 256.279 146.162 256.852C145.531 257.425 144.718 257.558 144.347 257.149Z" fill="#EF9C99"/>
<path d="M150.07 259.764L150.157 259.944L150.109 259.968L150.055 259.964L150.07 259.764ZM153.475 258.108L153.631 257.983L153.788 258.178L153.563 258.287L153.475 258.108ZM149.657 253.344L149.813 253.219L149.813 253.219L149.657 253.344ZM147.888 253.822L148.086 253.851L147.888 253.822ZM147.192 258.48L147.389 258.509L147.389 258.509L147.192 258.48ZM148.11 259.625L148.095 259.824L148.11 259.625ZM145.616 261.931L145.703 262.111L145.558 262.182L145.459 262.055L145.616 261.931ZM148.117 260.714L148.314 260.746L148.298 260.849L148.204 260.894L148.117 260.714ZM147.98 260.084L148.137 259.961L148.137 259.961L147.98 260.084ZM146.182 260.218L146.305 260.376L146.182 260.218ZM145.614 261.929L145.772 261.806L145.772 261.806L145.614 261.929ZM144.948 258.527L144.825 258.369L144.948 258.527ZM144.38 260.238L144.223 260.361L144.223 260.361L144.38 260.238ZM146.746 258.393L146.904 258.27L146.904 258.27L146.746 258.393ZM146.178 260.104L146.055 259.946L146.055 259.946L146.178 260.104ZM144.818 255.371L144.952 255.519L144.952 255.519L144.818 255.371ZM144.347 257.149L144.199 257.283L144.199 257.283L144.347 257.149ZM146.162 256.852L146.027 256.704L146.027 256.704L146.162 256.852ZM149.982 259.585L153.388 257.928L153.563 258.287L150.157 259.944L149.982 259.585ZM153.319 258.233L149.501 253.469L149.813 253.219L153.631 257.983L153.319 258.233ZM149.501 253.469C149.065 252.925 148.189 253.161 148.086 253.851L147.69 253.792C147.845 252.757 149.159 252.402 149.813 253.219L149.501 253.469ZM148.086 253.851L147.389 258.509L146.994 258.45L147.69 253.792L148.086 253.851ZM147.389 258.509C147.321 258.97 147.659 259.392 148.124 259.425L148.095 259.824C147.398 259.775 146.89 259.142 146.994 258.45L147.389 258.509ZM148.124 259.425L150.084 259.565L150.055 259.964L148.095 259.824L148.124 259.425ZM145.528 261.751L148.029 260.535L148.204 260.894L145.703 262.111L145.528 261.751ZM148.137 259.961C148.312 260.186 148.359 260.467 148.314 260.746L147.919 260.683C147.951 260.487 147.914 260.325 147.822 260.207L148.137 259.961ZM146.059 260.06C146.412 259.785 146.814 259.625 147.184 259.597C147.552 259.57 147.914 259.674 148.137 259.961L147.822 260.207C147.706 260.058 147.496 259.975 147.213 259.996C146.932 260.017 146.605 260.142 146.305 260.376L146.059 260.06ZM145.456 262.052C145.232 261.765 145.219 261.389 145.336 261.038C145.453 260.686 145.705 260.336 146.059 260.06L146.305 260.376C146.005 260.609 145.804 260.897 145.715 261.164C145.626 261.433 145.656 261.657 145.772 261.806L145.456 262.052ZM145.459 262.055C145.458 262.054 145.457 262.053 145.456 262.052L145.772 261.806C145.772 261.806 145.773 261.807 145.773 261.808L145.459 262.055ZM145.071 258.685C144.772 258.918 144.571 259.206 144.482 259.473C144.393 259.742 144.422 259.966 144.538 260.115L144.223 260.361C143.999 260.074 143.986 259.698 144.102 259.347C144.219 258.995 144.472 258.645 144.825 258.369L145.071 258.685ZM146.588 258.516C146.473 258.367 146.262 258.284 145.98 258.305C145.699 258.326 145.371 258.451 145.071 258.685L144.825 258.369C145.179 258.094 145.58 257.934 145.95 257.906C146.318 257.879 146.68 257.983 146.904 258.27L146.588 258.516ZM146.055 259.946C146.355 259.712 146.556 259.425 146.645 259.158C146.734 258.889 146.704 258.665 146.588 258.516L146.904 258.27C147.128 258.557 147.141 258.933 147.024 259.284C146.908 259.636 146.655 259.986 146.301 260.262L146.055 259.946ZM144.538 260.115C144.654 260.264 144.864 260.347 145.147 260.326C145.428 260.305 145.755 260.18 146.055 259.946L146.301 260.262C145.948 260.537 145.546 260.697 145.177 260.725C144.808 260.752 144.446 260.648 144.223 260.361L144.538 260.115ZM144.952 255.519C144.661 255.784 144.474 256.093 144.4 256.373C144.325 256.654 144.37 256.877 144.495 257.014L144.199 257.283C143.952 257.012 143.917 256.632 144.013 256.27C144.11 255.906 144.343 255.531 144.683 255.223L144.952 255.519ZM146.485 255.209C146.36 255.071 146.142 255.005 145.855 255.052C145.57 255.099 145.243 255.255 144.952 255.519L144.683 255.223C145.023 254.915 145.419 254.718 145.79 254.657C146.16 254.597 146.534 254.669 146.781 254.94L146.485 255.209ZM146.027 256.704C146.319 256.44 146.506 256.13 146.58 255.851C146.654 255.569 146.609 255.346 146.485 255.209L146.781 254.94C147.027 255.211 147.062 255.591 146.966 255.953C146.87 256.317 146.636 256.692 146.296 257L146.027 256.704ZM144.495 257.014C144.62 257.152 144.837 257.218 145.125 257.171C145.41 257.125 145.736 256.968 146.027 256.704L146.296 257C145.956 257.309 145.561 257.505 145.189 257.566C144.82 257.626 144.445 257.555 144.199 257.283L144.495 257.014Z" fill="#8C1B00" fill-opacity="0.58" mask="url(#path-51-inside-5_2062_326)"/>
<mask id="path-53-inside-6_2062_326" fill="white">
<path fill-rule="evenodd" clip-rule="evenodd" d="M260.134 174.779L257.841 177.794L253.919 173.115C253.359 172.446 253.864 171.431 254.735 171.474L259.439 171.705C260.021 171.734 260.455 172.252 260.382 172.83L260.134 174.779ZM263.133 170.838L261.449 173.051C261.209 173.042 260.999 172.957 260.858 172.793C260.497 172.374 260.714 171.597 261.342 171.056C261.97 170.516 262.771 170.417 263.131 170.835C263.132 170.836 263.132 170.837 263.133 170.838ZM261.715 169.294C261.355 168.875 260.554 168.974 259.926 169.515C259.298 170.056 259.081 170.833 259.442 171.252C259.802 171.67 260.603 171.571 261.231 171.031C261.859 170.49 262.075 169.712 261.715 169.294ZM258.693 168.655C258.364 168.21 257.543 168.261 256.857 168.767C256.171 169.274 255.882 170.045 256.21 170.489C256.538 170.933 257.36 170.883 258.045 170.376C258.731 169.87 259.021 169.099 258.693 168.655Z"/>
</mask>
<path fill-rule="evenodd" clip-rule="evenodd" d="M260.134 174.779L257.841 177.794L253.919 173.115C253.359 172.446 253.864 171.431 254.735 171.474L259.439 171.705C260.021 171.734 260.455 172.252 260.382 172.83L260.134 174.779ZM263.133 170.838L261.449 173.051C261.209 173.042 260.999 172.957 260.858 172.793C260.497 172.374 260.714 171.597 261.342 171.056C261.97 170.516 262.771 170.417 263.131 170.835C263.132 170.836 263.132 170.837 263.133 170.838ZM261.715 169.294C261.355 168.875 260.554 168.974 259.926 169.515C259.298 170.056 259.081 170.833 259.442 171.252C259.802 171.67 260.603 171.571 261.231 171.031C261.859 170.49 262.075 169.712 261.715 169.294ZM258.693 168.655C258.364 168.21 257.543 168.261 256.857 168.767C256.171 169.274 255.882 170.045 256.21 170.489C256.538 170.933 257.36 170.883 258.045 170.376C258.731 169.87 259.021 169.099 258.693 168.655Z" fill="#EF9C99"/>
<path d="M260.134 174.779L260.293 174.9L260.326 174.858L260.332 174.805L260.134 174.779ZM257.841 177.794L257.688 177.922L257.849 178.114L258 177.915L257.841 177.794ZM253.919 173.115L253.766 173.243H253.766L253.919 173.115ZM254.735 171.474L254.725 171.674L254.735 171.474ZM259.439 171.705L259.429 171.905H259.429L259.439 171.705ZM260.382 172.83L260.58 172.855L260.382 172.83ZM263.133 170.838L263.292 170.959L263.39 170.83L263.285 170.708L263.133 170.838ZM261.449 173.051L261.441 173.251L261.545 173.255L261.608 173.172L261.449 173.051ZM260.858 172.793L260.706 172.923V172.923L260.858 172.793ZM261.342 171.056L261.472 171.208L261.342 171.056ZM263.131 170.835L262.979 170.966L262.979 170.966L263.131 170.835ZM259.926 169.515L259.795 169.363L259.926 169.515ZM261.715 169.294L261.867 169.163V169.163L261.715 169.294ZM259.442 171.252L259.29 171.382V171.382L259.442 171.252ZM261.231 171.031L261.1 170.879L261.1 170.879L261.231 171.031ZM256.857 168.767L256.976 168.928L256.976 168.928L256.857 168.767ZM258.693 168.655L258.853 168.536V168.536L258.693 168.655ZM258.045 170.376L257.927 170.215V170.215L258.045 170.376ZM259.975 174.658L257.682 177.673L258 177.915L260.293 174.9L259.975 174.658ZM257.994 177.665L254.073 172.987L253.766 173.243L257.688 177.922L257.994 177.665ZM254.073 172.987C253.624 172.452 254.028 171.639 254.725 171.674L254.745 171.274C253.699 171.223 253.094 172.441 253.766 173.243L254.073 172.987ZM254.725 171.674L259.429 171.905L259.449 171.506L254.745 171.274L254.725 171.674ZM259.429 171.905C259.895 171.928 260.242 172.343 260.183 172.805L260.58 172.855C260.668 172.162 260.147 171.54 259.449 171.506L259.429 171.905ZM260.183 172.805L259.936 174.754L260.332 174.805L260.58 172.855L260.183 172.805ZM262.974 170.716L261.29 172.93L261.608 173.172L263.292 170.959L262.974 170.716ZM260.706 172.923C260.892 173.139 261.159 173.24 261.441 173.251L261.457 172.851C261.258 172.844 261.106 172.775 261.009 172.662L260.706 172.923ZM261.211 170.905C260.872 171.197 260.636 171.559 260.537 171.917C260.437 172.272 260.469 172.648 260.706 172.923L261.009 172.662C260.886 172.52 260.846 172.297 260.922 172.024C260.997 171.753 261.184 171.456 261.472 171.208L261.211 170.905ZM263.283 170.705C263.045 170.429 262.679 170.342 262.312 170.388C261.944 170.433 261.551 170.612 261.211 170.905L261.472 171.208C261.76 170.96 262.082 170.819 262.361 170.785C262.642 170.75 262.856 170.823 262.979 170.966L263.283 170.705ZM263.285 170.708C263.284 170.707 263.283 170.706 263.283 170.705L262.979 170.966C262.98 170.966 262.98 170.967 262.981 170.967L263.285 170.708ZM260.056 169.667C260.344 169.418 260.666 169.278 260.945 169.243C261.226 169.209 261.44 169.282 261.563 169.424L261.867 169.163C261.629 168.888 261.263 168.801 260.896 168.846C260.528 168.892 260.135 169.071 259.795 169.363L260.056 169.667ZM259.593 171.121C259.47 170.978 259.43 170.756 259.506 170.483C259.581 170.212 259.768 169.915 260.056 169.667L259.795 169.363C259.456 169.656 259.22 170.018 259.121 170.375C259.021 170.731 259.053 171.106 259.29 171.382L259.593 171.121ZM261.1 170.879C260.812 171.127 260.491 171.268 260.211 171.302C259.93 171.337 259.716 171.264 259.593 171.121L259.29 171.382C259.527 171.658 259.894 171.744 260.26 171.699C260.629 171.654 261.022 171.475 261.361 171.182L261.1 170.879ZM261.563 169.424C261.686 169.567 261.727 169.79 261.651 170.063C261.575 170.334 261.388 170.631 261.1 170.879L261.361 171.182C261.701 170.89 261.936 170.527 262.036 170.17C262.135 169.815 262.104 169.439 261.867 169.163L261.563 169.424ZM256.976 168.928C257.292 168.695 257.633 168.572 257.921 168.554C258.212 168.536 258.421 168.624 258.532 168.774L258.853 168.536C258.636 168.241 258.27 168.132 257.897 168.155C257.52 168.178 257.107 168.334 256.738 168.607L256.976 168.928ZM256.371 170.37C256.26 170.221 256.238 169.994 256.341 169.722C256.442 169.451 256.659 169.162 256.976 168.928L256.738 168.607C256.369 168.879 256.099 169.228 255.966 169.581C255.834 169.932 255.831 170.313 256.049 170.608L256.371 170.37ZM257.927 170.215C257.61 170.449 257.27 170.572 256.981 170.589C256.691 170.607 256.481 170.519 256.371 170.37L256.049 170.608C256.267 170.902 256.632 171.012 257.006 170.989C257.382 170.965 257.795 170.81 258.164 170.537L257.927 170.215ZM258.532 168.774C258.642 168.923 258.664 169.149 258.562 169.422C258.46 169.692 258.243 169.981 257.927 170.215L258.164 170.537C258.533 170.264 258.804 169.915 258.936 169.562C259.068 169.212 259.071 168.831 258.853 168.536L258.532 168.774Z" fill="#8C1B00" fill-opacity="0.58" mask="url(#path-53-inside-6_2062_326)"/>
<ellipse cx="69.8064" cy="39.1632" rx="7.5" ry="3.5" transform="rotate(-23.4051 69.8064 39.1632)" fill="#D9D9D9"/>
<path d="M116.673 36.8467C116.713 38.7793 105.855 36.6712 97.6307 36.8396C89.4069 37.0081 83.2999 38.0079 83.2604 36.0754C83.2208 34.1428 89.2635 30.0095 97.4873 29.8411C105.711 29.6726 116.633 34.9141 116.673 36.8467Z" fill="#D9D9D9"/>
<ellipse cx="92.3918" cy="91.9437" rx="68.5" ry="62" transform="rotate(-42.2063 92.3918 91.9437)" fill="#93A4FF" fill-opacity="0.42"/>
<path d="M143.021 46.0261C165.959 71.3184 161.915 112.389 133.943 137.758C105.97 163.127 64.7016 163.154 41.7628 137.861C18.8241 112.569 22.8685 71.4989 50.8408 46.1295C78.8131 20.7602 120.082 20.7337 143.021 46.0261Z" stroke="#000C7C" stroke-opacity="0.72" stroke-width="0.3"/>
<path d="M155.57 150.271C155.684 150.471 156.062 153.042 156.236 154.194L155.538 154.218C155.358 153.021 155.01 150.573 155.06 150.348C155.109 150.123 155.19 150.056 155.224 150.051C155.292 150.041 155.457 150.07 155.57 150.271Z" fill="#8C1B00"/>
<path d="M184.468 134.062C184.776 133.114 191.24 124.719 194.531 121.016L197.748 124.103C194.33 127.948 187.249 135.298 186.342 135.717C185.435 136.136 184.958 136.02 184.833 135.91C184.583 135.689 184.16 135.011 184.468 134.062Z" fill="#8C1B00"/>
<path d="M189.383 139.922C189.894 139.135 199.31 132.345 203.349 129.812L206.095 133.28C201.901 135.91 191.829 141.774 190.849 141.922C189.869 142.069 189.428 141.84 189.331 141.706C189.135 141.44 188.872 140.71 189.383 139.922Z" fill="#8C1B00"/>
<path d="M189.29 134.872C189.578 134.096 196.365 128.281 199.394 125.66L201.768 127.961C198.622 130.683 191.821 136.507 190.99 136.699C190.159 136.891 189.724 136.695 189.611 136.573C189.384 136.33 189.003 135.649 189.29 134.872Z" fill="#8C1B00"/>
<path d="M127.543 187.932C126.859 188.019 121.254 192.415 119 194.5L122.001 197.5C124.341 195.335 129.064 190.474 129.213 189.791C129.362 189.109 129.176 188.69 129.065 188.566C128.842 188.318 128.226 187.844 127.543 187.932Z" fill="#8C1B00"/>
<path d="M133.117 193.081C132.6 193.367 129.138 200.011 127.951 202.93L131.218 205.841C132.451 202.811 135.056 195.454 134.977 194.662C134.899 193.871 134.631 193.462 134.507 193.357C134.259 193.146 133.634 192.796 133.117 193.081Z" fill="#8C1B00"/>
<path d="M129.135 192.102C128.583 192.203 124.957 196.941 123.5 199L126.184 201.279C127.697 199.141 130.92 194.506 130.906 193.847C130.891 193.187 130.652 192.79 130.534 192.674C130.298 192.441 129.687 192.001 129.135 192.102Z" fill="#8C1B00"/>
<defs>
<filter id="filter0_d_2062_326" x="204.436" y="202.96" width="18.6562" height="19.6152" filterUnits="userSpaceOnUse" color-interpolation-filters="sRGB">
<feFlood flood-opacity="0" result="BackgroundImageFix"/>
<feColorMatrix in="SourceAlpha" type="matrix" values="0 0 0 0 0 0 0 0 0 0 0 0 0 0 0 0 0 0 127 0" result="hardAlpha"/>
<feOffset dy="1"/>
<feGaussianBlur stdDeviation="2"/>
<feComposite in2="hardAlpha" operator="out"/>
<feColorMatrix type="matrix" values="0 0 0 0 0.54902 0 0 0 0 0.105882 0 0 0 0 0 0 0 0 1 0"/>
<feBlend mode="normal" in2="BackgroundImageFix" result="effect1_dropShadow_2062_326"/>
<feBlend mode="normal" in="SourceGraphic" in2="effect1_dropShadow_2062_326" result="shape"/>
</filter>
<filter id="filter1_d_2062_326" x="38.2832" y="40.8274" width="113.029" height="117.51" filterUnits="userSpaceOnUse" color-interpolation-filters="sRGB">
<feFlood flood-opacity="0" result="BackgroundImageFix"/>
<feColorMatrix in="SourceAlpha" type="matrix" values="0 0 0 0 0 0 0 0 0 0 0 0 0 0 0 0 0 0 127 0" result="hardAlpha"/>
<feOffset dy="4"/>
<feGaussianBlur stdDeviation="2"/>
<feComposite in2="hardAlpha" operator="out"/>
<feColorMatrix type="matrix" values="0 0 0 0 0.545098 0 0 0 0 0.145098 0 0 0 0 0.054902 0 0 0 0.32 0"/>
<feBlend mode="normal" in2="BackgroundImageFix" result="effect1_dropShadow_2062_326"/>
<feBlend mode="normal" in="SourceGraphic" in2="effect1_dropShadow_2062_326" result="shape"/>
</filter>
<filter id="filter2_d_2062_326" x="51.4629" y="90.1708" width="35.002" height="35.0001" filterUnits="userSpaceOnUse" color-interpolation-filters="sRGB">
<feFlood flood-opacity="0" result="BackgroundImageFix"/>
<feColorMatrix in="SourceAlpha" type="matrix" values="0 0 0 0 0 0 0 0 0 0 0 0 0 0 0 0 0 0 127 0" result="hardAlpha"/>
<feOffset dx="-2" dy="-2"/>
<feGaussianBlur stdDeviation="2"/>
<feComposite in2="hardAlpha" operator="out"/>
<feColorMatrix type="matrix" values="0 0 0 0 0.831373 0 0 0 0 0.294118 0 0 0 0 0.168627 0 0 0 1 0"/>
<feBlend mode="normal" in2="BackgroundImageFix" result="effect1_dropShadow_2062_326"/>
<feBlend mode="normal" in="SourceGraphic" in2="effect1_dropShadow_2062_326" result="shape"/>
</filter>
<filter id="filter3_d_2062_326" x="85.6406" y="62.4172" width="35.002" height="35.0001" filterUnits="userSpaceOnUse" color-interpolation-filters="sRGB">
<feFlood flood-opacity="0" result="BackgroundImageFix"/>
<feColorMatrix in="SourceAlpha" type="matrix" values="0 0 0 0 0 0 0 0 0 0 0 0 0 0 0 0 0 0 127 0" result="hardAlpha"/>
<feOffset dx="2" dy="-2"/>
<feGaussianBlur stdDeviation="2"/>
<feComposite in2="hardAlpha" operator="out"/>
<feColorMatrix type="matrix" values="0 0 0 0 0.831373 0 0 0 0 0.294118 0 0 0 0 0.168627 0 0 0 1 0"/>
<feBlend mode="normal" in2="BackgroundImageFix" result="effect1_dropShadow_2062_326"/>
<feBlend mode="normal" in="SourceGraphic" in2="effect1_dropShadow_2062_326" result="shape"/>
</filter>
</defs>
</svg>
