<svg width="303" height="318" viewBox="0 0 303 318" fill="none" xmlns="http://www.w3.org/2000/svg">
<path d="M82.0853 242.422C96.6091 241.173 104.317 231.525 106.162 228.956L94.5713 219.074C94.3132 219.343 93.0397 219.96 89.4166 222.186C84.8878 224.968 71.8469 221.441 66.1168 219.662C60.3868 217.882 46.2528 215.064 36.5544 212.576C26.856 210.087 14.2973 214.564 8.31825 223.702C2.33919 232.84 4.81812 245.652 11.091 250.741C17.3638 255.83 29.4704 249.119 33.931 246.316C37.834 243.863 41.3314 237.095 49.449 239.616C57.5665 242.137 67.5615 243.67 82.0853 242.422Z" fill="#F3885E" stroke="#8B250E" stroke-width="0.5"/>
<g filter="url(#filter0_d_2062_223)">
<path d="M104.465 231.047C104.083 230.929 96.0407 223.894 92.0674 220.391" stroke="#8C1B00" stroke-width="0.2"/>
</g>
<path d="M38.9048 242.101L36.5554 212.576L32.1096 211.719L33.9311 246.316L38.9048 242.101Z" fill="#8B250E"/>
<path d="M30.6528 248.439L28.3212 212.113L22.8047 213.018L24.0657 251.105L30.6528 248.439Z" fill="#8B250E"/>
<path d="M48.1747 239.221L47.2078 215.361L41.0002 213.433L43.2554 239.464L45.6389 238.957L48.1747 239.221Z" fill="#8B250E"/>
<path d="M144.276 164.859C148.37 172.889 153.591 176.072 153.742 176.548L165.782 164.874C162.62 164.825 160.183 158.779 158.5 155.116C156.817 151.453 149.735 139.009 146.772 136.275C143.81 133.541 139.043 135.049 138.167 140.57C137.291 146.091 140.132 156.73 144.276 164.859Z" fill="#F3885E" stroke="#8B250E" stroke-width="0.5"/>
<path d="M231.324 193.677L237.228 162.898L219.743 155.329L179.276 142.763L164.711 156.04C142.482 167.671 107.959 184.909 108.27 179.874C108.659 173.579 103.002 169.861 96.5308 170.469C90.9128 170.997 77.0899 184.15 71.8107 191.064C72.8419 189.424 74.1652 183.743 68.5035 176.425C61.4265 167.277 59.6099 181.461 58.8527 183.899C58.0956 186.337 57.4402 198.588 59.0635 201.765C60.6868 204.942 63.3391 205.13 72.06 207.304C79.0367 209.043 85.0515 213.655 87.1868 215.744L110.689 235.873C110.329 236.474 109.521 238.291 109.175 240.749C108.743 243.823 110.409 250.221 127.743 258.278C141.611 264.722 156.618 262.789 162.388 261.017C171.736 258.93 193.206 251.875 204.302 240.351C215.397 228.828 228.967 206.31 231.324 193.677Z" fill="#F3885E" stroke="#8B250E" stroke-width="0.5"/>
<path d="M173.385 214.943C181.487 209.082 197.543 189.272 201.102 177.812C201.695 175.902 202.361 171.397 198.37 168.063C194.379 164.73 186.993 160.865 185.412 160.898L185.38 160.896C183.299 160.779 178.031 160.483 174.663 161.937C170.431 163.764 158.309 174.136 152.644 175.518C146.979 176.9 112.509 191.661 111.207 197.539C109.905 203.418 109.776 205.66 117.991 212.924C127.659 221.47 135.543 220.469 146.312 221.195C157.081 221.922 165.282 220.803 173.385 214.943Z" fill="#FFE2C8"/>
<path d="M150.937 214.589C154.257 216.039 157.26 219.519 158.346 221.078C157.852 222.67 156.708 226.015 156.089 226.66C155.315 227.467 140.462 228.09 139.029 227.645C137.883 227.289 131.845 224.367 128.969 222.95C129.019 222.791 129.612 221.893 131.588 219.575C134.059 216.678 135.162 216.497 137.188 215.031C139.213 213.566 143.001 213.172 144.104 212.991C145.207 212.81 146.788 212.777 150.937 214.589Z" fill="#F3885E"/>
<path d="M125.463 214.008C127.255 214.984 127.428 217.236 127.29 218.241L126.516 219.047L122.696 217.861C122.219 217.713 117.114 215.604 119.288 213.662C121.462 211.719 123.224 212.79 125.463 214.008Z" fill="#F3885E"/>
<path d="M190.737 181.4C189.894 177.369 191.677 173.315 193.077 172.179C195.317 170.361 198.89 170.319 200.174 171.242L204.718 176.841C205.607 179.037 207.42 183.649 207.565 184.532C207.746 185.635 205.522 192.797 203.38 196.321C201.667 199.14 197.716 197.703 195.954 196.632L192.152 188.645C191.741 186.598 191.579 185.431 190.737 181.4Z" fill="#F3885E"/>
<path d="M110.419 236.038C109.612 235.264 112.881 221.44 116.414 216.731C119.935 212.04 121.928 212.638 123.818 213.225C125.765 213.83 127.147 215.844 127.194 219.026C127.233 221.571 124.867 230.088 122.942 234.065L129.19 222.282C132.873 217.092 141.639 210.209 150.229 214.565C160.966 220.011 161.856 227.149 153.569 238.826C146.94 248.167 141.546 248.639 140.858 248.073" stroke="#8B250E" stroke-width="0.5"/>
<path d="M205.174 206.621C205.043 206.208 199.746 203.705 195.917 196.854C192.042 189.92 189.684 180.692 190.929 175.765C192.174 170.838 197.271 169.225 200.222 171.465C203.173 173.705 209.881 184.278 211.434 187.413C212.986 190.549 215.19 195.745 218.509 195.602" stroke="#8B250E" stroke-width="0.5"/>
<ellipse cx="1.5" cy="1" rx="1.5" ry="1" transform="matrix(-0.297721 -0.954653 -0.954653 0.297721 196.25 175.373)" fill="#EF9C99"/>
<path d="M194.432 172.902C194.21 172.972 194.04 173.173 193.954 173.465C193.868 173.757 193.871 174.128 193.99 174.507C194.108 174.886 194.316 175.193 194.552 175.384C194.789 175.576 195.044 175.645 195.266 175.575C195.487 175.506 195.658 175.305 195.744 175.013C195.829 174.721 195.826 174.35 195.708 173.971C195.59 173.592 195.381 173.285 195.145 173.094C194.908 172.902 194.654 172.833 194.432 172.902Z" stroke="#8C1B00" stroke-opacity="0.58" stroke-width="0.2"/>
<ellipse cx="1.5" cy="1" rx="1.5" ry="1" transform="matrix(-0.297721 -0.954653 -0.954653 0.297721 196.25 175.373)" fill="#EF9C99"/>
<path d="M194.432 172.902C194.21 172.972 194.04 173.173 193.954 173.465C193.868 173.757 193.871 174.128 193.99 174.507C194.108 174.886 194.316 175.193 194.552 175.384C194.789 175.576 195.044 175.645 195.266 175.575C195.487 175.506 195.658 175.305 195.744 175.013C195.829 174.721 195.826 174.35 195.708 173.971C195.59 173.592 195.381 173.285 195.145 173.094C194.908 172.902 194.654 172.833 194.432 172.902Z" stroke="#8C1B00" stroke-opacity="0.58" stroke-width="0.2"/>
<ellipse cx="1.5" cy="1" rx="1.5" ry="1" transform="matrix(-0.297721 -0.954653 -0.954653 0.297721 198.455 175.011)" fill="#EF9C99"/>
<path d="M196.637 172.541C196.415 172.61 196.245 172.811 196.159 173.103C196.073 173.395 196.076 173.766 196.195 174.145C196.313 174.524 196.521 174.831 196.758 175.022C196.994 175.214 197.249 175.283 197.471 175.214C197.692 175.144 197.863 174.943 197.949 174.651C198.034 174.359 198.031 173.988 197.913 173.609C197.795 173.23 197.586 172.923 197.35 172.732C197.113 172.54 196.859 172.471 196.637 172.541Z" stroke="#8C1B00" stroke-opacity="0.58" stroke-width="0.2"/>
<path d="M197.563 175.822C197.043 175.541 196.394 175.77 196.166 176.315L194.181 181.053C193.846 181.853 194.619 182.671 195.437 182.382L201.94 180.086C202.758 179.797 202.846 178.675 202.082 178.263L197.563 175.822Z" fill="#EF9C99"/>
<path d="M197.492 175.954C197.05 175.715 196.498 175.91 196.304 176.373L194.32 181.111C194.035 181.791 194.692 182.486 195.387 182.241L201.89 179.944C202.585 179.699 202.66 178.745 202.011 178.395L197.492 175.954Z" stroke="#8C1B00" stroke-opacity="0.58" stroke-width="0.3"/>
<ellipse cx="1.54332" cy="1" rx="1.54332" ry="1" transform="matrix(-0.225719 -0.974193 -0.974193 0.225719 201.201 176.068)" fill="#EF9C99"/>
<path d="M199.553 173.384C199.328 173.436 199.144 173.627 199.037 173.92C198.932 174.213 198.909 174.594 199.002 174.993C199.094 175.392 199.282 175.725 199.506 175.941C199.73 176.158 199.979 176.248 200.204 176.196C200.429 176.144 200.614 175.953 200.72 175.659C200.826 175.367 200.848 174.986 200.755 174.587C200.663 174.188 200.475 173.855 200.252 173.639C200.027 173.422 199.778 173.332 199.553 173.384Z" stroke="#8C1B00" stroke-opacity="0.58" stroke-width="0.2"/>
<ellipse cx="1.54332" cy="1" rx="1.54332" ry="1" transform="matrix(-0.225719 -0.974193 -0.974193 0.225719 194.285 178.108)" fill="#EF9C99"/>
<path d="M192.637 175.425C192.412 175.477 192.228 175.668 192.121 175.961C192.016 176.253 191.993 176.635 192.086 177.034C192.178 177.433 192.366 177.765 192.59 177.981C192.814 178.198 193.063 178.289 193.288 178.237C193.513 178.185 193.698 177.993 193.804 177.7C193.91 177.408 193.932 177.027 193.839 176.627C193.747 176.228 193.559 175.896 193.336 175.68C193.111 175.463 192.862 175.372 192.637 175.425Z" stroke="#8C1B00" stroke-opacity="0.58" stroke-width="0.2"/>
<ellipse cx="1.5" cy="1" rx="1.5" ry="1" transform="matrix(0.369567 -0.929204 -0.929204 -0.369567 122.42 217.305)" fill="#EF9C99"/>
<path d="M122.562 214.24C122.347 214.154 122.088 214.203 121.837 214.377C121.587 214.549 121.356 214.839 121.209 215.209C121.062 215.578 121.031 215.947 121.094 216.245C121.157 216.543 121.312 216.756 121.528 216.842C121.744 216.928 122.003 216.879 122.253 216.706C122.503 216.533 122.735 216.243 122.881 215.874C123.028 215.505 123.059 215.135 122.996 214.838C122.933 214.54 122.778 214.326 122.562 214.24Z" stroke="#8C1B00" stroke-opacity="0.58" stroke-width="0.2"/>
<ellipse cx="1.5" cy="1" rx="1.5" ry="1" transform="matrix(0.369567 -0.929204 -0.929204 -0.369567 122.42 217.305)" fill="#EF9C99"/>
<path d="M122.562 214.24C122.347 214.154 122.088 214.203 121.837 214.377C121.587 214.549 121.356 214.839 121.209 215.209C121.062 215.578 121.031 215.947 121.094 216.245C121.157 216.543 121.312 216.756 121.528 216.842C121.744 216.928 122.003 216.879 122.253 216.706C122.503 216.533 122.735 216.243 122.881 215.874C123.028 215.505 123.059 215.135 122.996 214.838C122.933 214.54 122.778 214.326 122.562 214.24Z" stroke="#8C1B00" stroke-opacity="0.58" stroke-width="0.2"/>
<ellipse cx="1.5" cy="1" rx="1.5" ry="1" transform="matrix(0.369567 -0.929204 -0.929204 -0.369567 124.389 218.015)" fill="#EF9C99"/>
<path d="M124.531 214.951C124.315 214.865 124.056 214.914 123.806 215.087C123.555 215.26 123.324 215.55 123.178 215.919C123.031 216.288 122.999 216.658 123.063 216.955C123.126 217.253 123.281 217.467 123.496 217.553C123.712 217.639 123.971 217.59 124.222 217.416C124.472 217.244 124.703 216.953 124.85 216.584C124.997 216.215 125.028 215.846 124.965 215.548C124.902 215.25 124.747 215.037 124.531 214.951Z" stroke="#8C1B00" stroke-opacity="0.58" stroke-width="0.2"/>
<path d="M123.055 217.899C122.852 217.353 122.227 217.094 121.698 217.338L117.422 219.311C116.629 219.676 116.652 220.81 117.458 221.143L123.372 223.587C124.178 223.92 124.994 223.133 124.691 222.315L123.055 217.899Z" fill="#EF9C99"/>
<path d="M122.914 217.951C122.742 217.487 122.211 217.267 121.761 217.475L117.484 219.447C116.811 219.758 116.83 220.721 117.516 221.005L123.429 223.448C124.114 223.731 124.808 223.063 124.551 222.367L122.914 217.951Z" stroke="#8C1B00" stroke-opacity="0.58" stroke-width="0.3"/>
<ellipse cx="1.54332" cy="1" rx="1.54332" ry="1" transform="matrix(0.437814 -0.899065 -0.899065 -0.437814 125.83 220.961)" fill="#EF9C99"/>
<path d="M126.239 217.838C126.031 217.737 125.768 217.769 125.5 217.931C125.234 218.091 124.977 218.373 124.798 218.742C124.618 219.11 124.555 219.487 124.592 219.795C124.63 220.105 124.767 220.332 124.975 220.433C125.182 220.534 125.446 220.502 125.713 220.341C125.979 220.18 126.236 219.898 126.416 219.53C126.595 219.161 126.659 218.785 126.621 218.476C126.583 218.167 126.446 217.939 126.239 217.838Z" stroke="#8C1B00" stroke-opacity="0.58" stroke-width="0.2"/>
<ellipse cx="1.54332" cy="1" rx="1.54332" ry="1" transform="matrix(0.437814 -0.899065 -0.899065 -0.437814 119.17 218.193)" fill="#EF9C99"/>
<path d="M119.578 215.07C119.371 214.969 119.107 215.002 118.84 215.163C118.574 215.323 118.317 215.605 118.137 215.974C117.958 216.342 117.895 216.719 117.932 217.027C117.97 217.337 118.107 217.564 118.315 217.665C118.522 217.767 118.786 217.734 119.053 217.573C119.319 217.412 119.576 217.13 119.756 216.762C119.935 216.393 119.999 216.017 119.961 215.708C119.923 215.399 119.786 215.171 119.578 215.07Z" stroke="#8C1B00" stroke-opacity="0.58" stroke-width="0.2"/>
<ellipse cx="1.5" cy="1" rx="1.5" ry="1" transform="matrix(-0.297721 -0.954653 -0.954653 0.297721 143.035 141.047)" fill="#EF9C99"/>
<path d="M141.217 138.576C140.995 138.645 140.825 138.846 140.739 139.139C140.653 139.43 140.656 139.801 140.775 140.181C140.893 140.56 141.101 140.867 141.338 141.058C141.574 141.25 141.829 141.318 142.051 141.249C142.273 141.18 142.443 140.979 142.529 140.687C142.614 140.395 142.611 140.024 142.493 139.645C142.375 139.266 142.166 138.959 141.93 138.767C141.693 138.576 141.439 138.507 141.217 138.576Z" stroke="#8C1B00" stroke-opacity="0.58" stroke-width="0.2"/>
<ellipse cx="1.5" cy="1" rx="1.5" ry="1" transform="matrix(-0.297721 -0.954653 -0.954653 0.297721 143.035 141.047)" fill="#EF9C99"/>
<path d="M141.217 138.576C140.995 138.645 140.825 138.846 140.739 139.139C140.653 139.43 140.656 139.801 140.775 140.181C140.893 140.56 141.101 140.867 141.338 141.058C141.574 141.25 141.829 141.318 142.051 141.249C142.273 141.18 142.443 140.979 142.529 140.687C142.614 140.395 142.611 140.024 142.493 139.645C142.375 139.266 142.166 138.959 141.93 138.767C141.693 138.576 141.439 138.507 141.217 138.576Z" stroke="#8C1B00" stroke-opacity="0.58" stroke-width="0.2"/>
<ellipse cx="1.5" cy="1" rx="1.5" ry="1" transform="matrix(-0.297721 -0.954653 -0.954653 0.297721 145.242 140.685)" fill="#EF9C99"/>
<path d="M143.424 138.214C143.202 138.284 143.032 138.485 142.946 138.777C142.86 139.069 142.864 139.44 142.982 139.819C143.1 140.198 143.308 140.505 143.545 140.696C143.781 140.888 144.036 140.957 144.258 140.887C144.48 140.818 144.65 140.617 144.736 140.325C144.821 140.033 144.818 139.662 144.7 139.283C144.582 138.904 144.374 138.597 144.137 138.406C143.9 138.214 143.646 138.145 143.424 138.214Z" stroke="#8C1B00" stroke-opacity="0.58" stroke-width="0.2"/>
<path d="M143.94 141.707C143.429 141.423 142.785 141.635 142.543 142.167L140.454 146.762C140.093 147.555 140.849 148.398 141.677 148.126L148.177 145.986C149.005 145.713 149.112 144.586 148.35 144.162L143.94 141.707Z" fill="#EF9C99"/>
<path d="M143.867 141.839C143.433 141.597 142.885 141.777 142.68 142.229L140.59 146.824C140.284 147.498 140.926 148.215 141.63 147.983L148.13 145.843C148.833 145.611 148.925 144.653 148.277 144.293L143.867 141.839Z" stroke="#8C1B00" stroke-opacity="0.58" stroke-width="0.3"/>
<ellipse cx="1.54332" cy="1" rx="1.54332" ry="1" transform="matrix(-0.225719 -0.974193 -0.974193 0.225719 147.986 141.742)" fill="#EF9C99"/>
<path d="M146.338 139.058C146.113 139.11 145.929 139.301 145.823 139.594C145.717 139.887 145.695 140.268 145.787 140.667C145.879 141.066 146.067 141.399 146.291 141.615C146.515 141.831 146.765 141.922 146.99 141.87C147.215 141.818 147.399 141.627 147.505 141.333C147.611 141.041 147.633 140.66 147.541 140.261C147.448 139.861 147.26 139.529 147.037 139.313C146.812 139.096 146.563 139.006 146.338 139.058Z" stroke="#8C1B00" stroke-opacity="0.58" stroke-width="0.2"/>
<ellipse cx="1.54332" cy="1" rx="1.54332" ry="1" transform="matrix(-0.225719 -0.974193 -0.974193 0.225719 141.07 143.782)" fill="#EF9C99"/>
<path d="M139.422 141.098C139.197 141.151 139.013 141.342 138.907 141.635C138.801 141.927 138.779 142.308 138.871 142.708C138.963 143.107 139.151 143.439 139.375 143.655C139.599 143.872 139.849 143.963 140.074 143.911C140.299 143.858 140.483 143.667 140.589 143.374C140.695 143.082 140.717 142.7 140.625 142.301C140.532 141.902 140.344 141.57 140.121 141.354C139.896 141.137 139.647 141.046 139.422 141.098Z" stroke="#8C1B00" stroke-opacity="0.58" stroke-width="0.2"/>
<mask id="path-50-inside-1_2062_223" fill="white">
<path fill-rule="evenodd" clip-rule="evenodd" d="M61.0124 176.786L60.0297 179.632C60.1596 179.676 60.2973 179.701 60.4397 179.703C61.2098 179.71 61.8269 179.028 61.8181 178.179C61.8117 177.569 61.4831 177.038 61.0124 176.786Z"/>
</mask>
<path fill-rule="evenodd" clip-rule="evenodd" d="M61.0124 176.786L60.0297 179.632C60.1596 179.676 60.2973 179.701 60.4397 179.703C61.2098 179.71 61.8269 179.028 61.8181 178.179C61.8117 177.569 61.4831 177.038 61.0124 176.786Z" fill="#EF9C99"/>
<path d="M61.0124 176.786L60.8235 176.719L60.8995 176.499L61.1055 176.61L61.0124 176.786ZM60.0297 179.632L59.9659 179.821L59.7752 179.755L59.8408 179.565L60.0297 179.632ZM60.4397 179.703L60.4395 179.903L60.4397 179.703ZM61.8181 178.179L62.0179 178.179L61.8181 178.179ZM61.2013 176.853L60.2186 179.698L59.8408 179.565L60.8235 176.719L61.2013 176.853ZM60.0935 179.442C60.2034 179.48 60.3196 179.501 60.4399 179.502L60.4395 179.903C60.2749 179.901 60.1158 179.873 59.9659 179.821L60.0935 179.442ZM60.4399 179.502C61.0809 179.509 61.6261 178.936 61.6183 178.18L62.0179 178.179C62.0277 179.12 61.3386 179.911 60.4395 179.903L60.4399 179.502ZM61.6183 178.18C61.6126 177.639 61.3216 177.178 60.9193 176.962L61.1055 176.61C61.6446 176.899 62.0108 177.499 62.0179 178.179L61.6183 178.18Z" fill="#8C1B00" fill-opacity="0.58" mask="url(#path-50-inside-1_2062_223)"/>
<mask id="path-52-inside-2_2062_223" fill="white">
<path fill-rule="evenodd" clip-rule="evenodd" d="M61.6436 180.977C61.3684 180.433 60.6832 180.252 60.188 180.592L59.6992 180.928L58.5647 186.57L63.255 187.811C64.0854 188.031 64.7735 187.167 64.3831 186.395L61.6436 180.977Z"/>
</mask>
<path fill-rule="evenodd" clip-rule="evenodd" d="M61.6436 180.977C61.3684 180.433 60.6832 180.252 60.188 180.592L59.6992 180.928L58.5647 186.57L63.255 187.811C64.0854 188.031 64.7735 187.167 64.3831 186.395L61.6436 180.977Z" fill="#EF9C99"/>
<path d="M60.188 180.592L60.0181 180.345L60.0181 180.345L60.188 180.592ZM61.6436 180.977L61.9113 180.842L61.6436 180.977ZM59.6992 180.928L59.5293 180.681L59.4291 180.75L59.4051 180.869L59.6992 180.928ZM58.5647 186.57L58.2706 186.511L58.2149 186.788L58.488 186.86L58.5647 186.57ZM63.255 187.811L63.3318 187.521L63.255 187.811ZM64.3831 186.395L64.6508 186.259L64.6508 186.259L64.3831 186.395ZM60.3579 180.839C60.6992 180.605 61.1803 180.726 61.3758 181.113L61.9113 180.842C61.5565 180.14 60.6671 179.899 60.0181 180.345L60.3579 180.839ZM59.8691 181.175L60.3579 180.839L60.0181 180.345L59.5293 180.681L59.8691 181.175ZM58.8588 186.629L59.9933 180.987L59.4051 180.869L58.2706 186.511L58.8588 186.629ZM63.3318 187.521L58.6415 186.28L58.488 186.86L63.1783 188.101L63.3318 187.521ZM64.1153 186.53C64.3926 187.078 63.9042 187.673 63.3318 187.521L63.1783 188.101C64.2666 188.389 65.1545 187.255 64.6508 186.259L64.1153 186.53ZM61.3758 181.113L64.1153 186.53L64.6508 186.259L61.9113 180.842L61.3758 181.113Z" fill="#8C1B00" fill-opacity="0.58" mask="url(#path-52-inside-2_2062_223)"/>
<ellipse cx="1.57366" cy="1.08714" rx="1.57366" ry="1.08714" transform="matrix(0.325162 -0.945658 -0.938364 -0.345648 64.8359 180.726)" fill="#EF9C99"/>
<path d="M64.8067 177.468C64.5646 177.379 64.2861 177.438 64.0267 177.626C63.7677 177.814 63.5367 178.126 63.4012 178.52C63.2657 178.915 63.2541 179.308 63.34 179.623C63.4261 179.939 63.6062 180.166 63.8483 180.255C64.0904 180.344 64.3689 180.286 64.6283 180.097C64.8873 179.909 65.1183 179.597 65.2538 179.203C65.3893 178.809 65.4009 178.416 65.315 178.1C65.2289 177.785 65.0488 177.557 64.8067 177.468Z" stroke="#8C1B00" stroke-opacity="0.58" stroke-width="0.2"/>
<g filter="url(#filter1_d_2062_223)">
<mask id="path-56-inside-3_2062_223" fill="white">
<path fill-rule="evenodd" clip-rule="evenodd" d="M258.052 78.5837C258.003 77.0449 256.306 76.1371 254.998 76.9497L239.15 86.797C235.353 84.7835 231.264 83.0714 226.928 81.7249C221.786 80.1282 216.639 79.1518 211.609 78.75L208.627 65.5707C208.288 64.0691 206.45 63.4983 205.319 64.5434L186.876 81.5906C186.821 81.6413 186.77 81.6938 186.723 81.7481C174.331 86.0957 164.792 94.6721 161.172 106.33C154.129 129.01 172.15 154.765 201.422 163.856C230.695 172.946 260.135 161.93 267.178 139.25C270.981 127.005 267.477 113.863 258.841 102.932L258.052 78.5837Z"/>
</mask>
<path fill-rule="evenodd" clip-rule="evenodd" d="M258.052 78.5837C258.003 77.0449 256.306 76.1371 254.998 76.9497L239.15 86.797C235.353 84.7835 231.264 83.0714 226.928 81.7249C221.786 80.1282 216.639 79.1518 211.609 78.75L208.627 65.5707C208.288 64.0691 206.45 63.4983 205.319 64.5434L186.876 81.5906C186.821 81.6413 186.77 81.6938 186.723 81.7481C174.331 86.0957 164.792 94.6721 161.172 106.33C154.129 129.01 172.15 154.765 201.422 163.856C230.695 172.946 260.135 161.93 267.178 139.25C270.981 127.005 267.477 113.863 258.841 102.932L258.052 78.5837Z" fill="#F3885E"/>
<path d="M254.998 76.9497L255.156 77.2045L255.156 77.2045L254.998 76.9497ZM258.052 78.5837L257.753 78.5934L258.052 78.5837ZM239.15 86.797L239.009 87.0621L239.162 87.1429L239.308 87.0518L239.15 86.797ZM211.609 78.75L211.316 78.8162L211.365 79.0314L211.585 79.049L211.609 78.75ZM208.627 65.5707L208.92 65.5045L208.92 65.5045L208.627 65.5707ZM205.319 64.5434L205.523 64.7637L205.523 64.7637L205.319 64.5434ZM186.876 81.5906L187.08 81.811L187.08 81.811L186.876 81.5906ZM186.723 81.7481L186.822 82.0312L186.897 82.0051L186.948 81.9458L186.723 81.7481ZM258.841 102.932L258.541 102.942L258.544 103.041L258.606 103.118L258.841 102.932ZM255.156 77.2045C256.268 76.5138 257.71 77.2855 257.753 78.5934L258.352 78.574C258.295 76.8044 256.343 75.7604 254.84 76.6949L255.156 77.2045ZM239.308 87.0518L255.156 77.2045L254.84 76.6949L238.991 86.5422L239.308 87.0518ZM239.29 86.532C235.477 84.5097 231.37 82.7904 227.017 81.4384L226.839 82.0114C231.157 83.3524 235.229 85.0573 239.009 87.0621L239.29 86.532ZM227.017 81.4384C221.854 79.8351 216.685 78.8545 211.633 78.4509L211.585 79.049C216.593 79.449 221.718 80.4212 226.839 82.0114L227.017 81.4384ZM211.902 78.6838L208.92 65.5045L208.335 65.6369L211.316 78.8162L211.902 78.6838ZM208.92 65.5045C208.529 63.7776 206.416 63.1213 205.115 64.3231L205.523 64.7637C206.484 63.8754 208.046 64.3605 208.335 65.6369L208.92 65.5045ZM205.115 64.3231L186.673 81.3703L187.08 81.811L205.523 64.7637L205.115 64.3231ZM186.673 81.3703C186.61 81.4281 186.552 81.4882 186.497 81.5505L186.948 81.9458C186.989 81.8995 187.033 81.8544 187.08 81.811L186.673 81.3703ZM186.623 81.465C174.163 85.8369 164.54 94.4735 160.885 106.242L161.458 106.419C165.045 94.8707 174.499 86.3546 186.822 82.0312L186.623 81.465ZM160.885 106.242C153.773 129.143 171.975 155.025 201.333 164.142L201.511 163.569C172.324 154.505 154.484 128.877 161.458 106.419L160.885 106.242ZM201.333 164.142C230.692 173.26 260.353 162.241 267.465 139.339L266.892 139.161C259.917 161.619 230.698 172.633 201.511 163.569L201.333 164.142ZM267.465 139.339C271.303 126.978 267.759 113.736 259.076 102.746L258.606 103.118C267.195 113.991 270.658 127.032 266.892 139.161L267.465 139.339ZM257.753 78.5934L258.541 102.942L259.141 102.922L258.352 78.574L257.753 78.5934Z" fill="#8C1B00" mask="url(#path-56-inside-3_2062_223)"/>
</g>
<g filter="url(#filter2_d_2062_223)">
<circle cx="193.709" cy="104.393" r="13.5" transform="rotate(17.252 193.709 104.393)" fill="#EDDFD2"/>
<circle cx="193.709" cy="104.393" r="13.35" transform="rotate(17.252 193.709 104.393)" stroke="#8C1B00" stroke-width="0.3"/>
</g>
<g filter="url(#filter3_d_2062_223)">
<circle cx="232.865" cy="116.553" r="13.5" transform="rotate(17.252 232.865 116.553)" fill="#EDDFD2"/>
<circle cx="232.865" cy="116.553" r="13.35" transform="rotate(17.252 232.865 116.553)" stroke="#8C1B00" stroke-width="0.3"/>
</g>
<ellipse cx="196.064" cy="103.554" rx="10.5" ry="11" transform="rotate(17.252 196.064 103.554)" fill="#2B0000"/>
<ellipse cx="231.4" cy="114.527" rx="10.5" ry="11" transform="rotate(17.252 231.4 114.527)" fill="#2B0000"/>
<mask id="path-64-inside-4_2062_223" fill="white">
<path fill-rule="evenodd" clip-rule="evenodd" d="M207.644 66.662C207.611 65.7804 206.536 65.37 205.924 66.0056L192.998 79.4342C197.493 78.4162 202.615 77.9595 208.071 78.1653L207.644 66.662Z"/>
</mask>
<path fill-rule="evenodd" clip-rule="evenodd" d="M207.644 66.662C207.611 65.7804 206.536 65.37 205.924 66.0056L192.998 79.4342C197.493 78.4162 202.615 77.9595 208.071 78.1653L207.644 66.662Z" fill="#EF9C99"/>
<path d="M205.924 66.0056L205.708 65.7976L205.708 65.7976L205.924 66.0056ZM207.644 66.662L207.344 66.6731L207.344 66.6731L207.644 66.662ZM192.998 79.4342L192.782 79.2261L192.087 79.9481L193.064 79.7268L192.998 79.4342ZM208.071 78.1653L208.06 78.4651L208.383 78.4773L208.371 78.1542L208.071 78.1653ZM206.14 66.2137C206.568 65.7688 207.321 66.056 207.344 66.6731L207.943 66.6509C207.901 65.5048 206.503 64.9713 205.708 65.7976L206.14 66.2137ZM193.214 79.6422L206.14 66.2137L205.708 65.7976L192.782 79.2261L193.214 79.6422ZM193.064 79.7268C197.531 78.7151 202.627 78.2602 208.06 78.4651L208.082 77.8655C202.604 77.6589 197.454 78.1172 192.931 79.1416L193.064 79.7268ZM207.344 66.6731L207.771 78.1765L208.371 78.1542L207.943 66.6509L207.344 66.6731Z" fill="#8C1B00" fill-opacity="0.58" mask="url(#path-64-inside-4_2062_223)"/>
<mask id="path-66-inside-5_2062_223" fill="white">
<path fill-rule="evenodd" clip-rule="evenodd" d="M256.376 80.1067C256.368 79.3145 255.486 78.8457 254.825 79.2823L241.271 88.2347C243.808 89.3274 246.311 90.7395 248.705 92.4722C251.796 94.7087 254.435 97.2836 256.577 100.045L256.376 80.1067Z"/>
</mask>
<path fill-rule="evenodd" clip-rule="evenodd" d="M256.376 80.1067C256.368 79.3145 255.486 78.8457 254.825 79.2823L241.271 88.2347C243.808 89.3274 246.311 90.7395 248.705 92.4722C251.796 94.7087 254.435 97.2836 256.577 100.045L256.376 80.1067Z" fill="#EF9C99"/>
<path d="M254.825 79.2823L254.66 79.032L254.825 79.2823ZM256.376 80.1067L256.076 80.1097L256.376 80.1067ZM241.271 88.2347L241.105 87.9844L240.642 88.2905L241.152 88.5102L241.271 88.2347ZM248.705 92.4722L248.529 92.7152L248.705 92.4722ZM256.577 100.045L256.34 100.229L256.886 100.933L256.877 100.042L256.577 100.045ZM254.991 79.5326C255.453 79.227 256.071 79.5552 256.076 80.1097L256.676 80.1037C256.666 79.0738 255.519 78.4644 254.66 79.032L254.991 79.5326ZM241.436 88.485L254.991 79.5326L254.66 79.032L241.105 87.9844L241.436 88.485ZM241.152 88.5102C243.669 89.5942 246.153 90.9953 248.529 92.7152L248.881 92.2292C246.469 90.4836 243.947 89.0607 241.389 87.9591L241.152 88.5102ZM248.529 92.7152C251.597 94.9352 254.216 97.4903 256.34 100.229L256.814 99.8615C254.654 97.0769 251.994 94.4822 248.881 92.2292L248.529 92.7152ZM256.076 80.1097L256.277 100.048L256.877 100.042L256.676 80.1037L256.076 80.1097Z" fill="#8C1B00" fill-opacity="0.58" mask="url(#path-66-inside-5_2062_223)"/>
<path d="M213.005 93.0747C212.813 92.1505 215.275 83.8378 216.602 79.5659L220.57 80.2747C219.192 84.7109 216.415 93.269 215.734 93.922C215.052 94.5751 214.518 94.6254 214.336 94.5689C213.972 94.4559 213.197 93.9989 213.005 93.0747Z" fill="#8C1B00"/>
<path d="M219.803 94.7037C219.7 93.8152 222.759 85.1351 224.237 81.0616L227.569 82.0961C226.034 86.3264 222.802 94.9407 222.154 95.5563C221.505 96.1719 221.029 96.2122 220.873 96.1553C220.559 96.0416 219.907 95.5922 219.803 94.7037Z" fill="#8C1B00"/>
<path d="M226.039 97.6727C225.924 96.7605 228.787 87.1777 230.215 82.9261L233.662 84.4018C232.179 88.8168 229.052 97.8113 228.409 98.4688C227.766 99.1263 227.289 99.1846 227.131 99.1315C226.815 99.0254 226.155 98.585 226.039 97.6727Z" fill="#8C1B00"/>
<path d="M248.009 134.735C249.14 134.679 261.305 138.65 266.765 140.411L265.358 143.483C259.688 141.654 248.127 137.82 247.242 137.114C246.357 136.408 246.238 135.914 246.289 135.756C246.391 135.439 246.879 134.79 248.009 134.735Z" fill="#8C1B00"/>
<path d="M244.432 141.531C245.499 141.727 255.802 148.227 260.431 151.125L258.331 153.769C253.523 150.761 243.748 144.524 243.106 143.65C242.463 142.776 242.479 142.275 242.568 142.134C242.745 141.851 243.365 141.335 244.432 141.531Z" fill="#8C1B00"/>
<path d="M249.588 139.597C250.531 139.585 259.915 143.883 264.13 145.792L262.455 148.717C258.077 146.735 249.169 142.591 248.556 141.874C247.943 141.157 247.927 140.675 247.996 140.523C248.134 140.219 248.644 139.609 249.588 139.597Z" fill="#8C1B00"/>
<path d="M183.708 217.764C185.291 218.522 201.119 230.289 208.314 236.072L205.218 239.299C197.746 233.293 183.195 221.072 182.121 219.695C181.047 218.319 180.99 217.717 181.096 217.588C181.307 217.331 182.126 217.005 183.708 217.764Z" fill="#8C1B00"/>
<path d="M177.251 222.281C178.689 223.256 193.53 238.427 199.322 244.798L195.42 247.251C189.405 240.635 175.645 224.914 174.944 223.537C174.244 222.16 174.376 221.648 174.53 221.565C174.837 221.397 175.812 221.306 177.251 222.281Z" fill="#8C1B00"/>
<path d="M184.833 223.984C186.146 224.652 198.234 235.921 203.668 240.96L201.348 243.333C195.705 238.1 183.596 226.81 182.902 225.618C182.208 224.427 182.292 223.911 182.42 223.802C182.678 223.584 183.521 223.315 184.833 223.984Z" fill="#8C1B00"/>
<path d="M183.708 217.764C185.291 218.522 201.119 230.289 208.314 236.072L205.218 239.299C197.746 233.293 183.195 221.072 182.121 219.695C181.047 218.319 180.99 217.717 181.096 217.588C181.307 217.331 182.126 217.005 183.708 217.764Z" fill="#8C1B00"/>
<path d="M177.251 222.281C178.689 223.256 193.53 238.427 199.322 244.798L195.42 247.251C189.405 240.635 175.645 224.914 174.944 223.537C174.244 222.16 174.376 221.648 174.53 221.565C174.837 221.397 175.812 221.306 177.251 222.281Z" fill="#8C1B00"/>
<path d="M184.833 223.984C186.146 224.652 198.234 235.921 203.668 240.96L201.348 243.333C195.705 238.1 183.596 226.81 182.902 225.618C182.208 224.427 182.292 223.911 182.42 223.802C182.678 223.584 183.521 223.315 184.833 223.984Z" fill="#8C1B00"/>
<path d="M128.532 180.791C128.039 180.701 125.763 177.171 124.988 175.641L128.744 173.666C129.548 175.255 130.931 179.114 130.724 179.589C130.516 180.064 130.172 180.343 130.026 180.423C129.734 180.583 129.026 180.881 128.532 180.791Z" fill="#8C1B00"/>
<path d="M135.343 177.503C135.074 177.284 135.518 172.57 135.975 170.515L139.916 168.661C139.442 170.795 137.988 175.96 137.55 176.5C137.113 177.04 136.709 177.309 136.562 177.376C136.268 177.51 135.612 177.722 135.343 177.503Z" fill="#8C1B00"/>
<path d="M131.758 177.999C131.374 177.906 131.05 174.589 130.887 173.111L133.807 171.569C133.976 173.104 134.299 176.428 133.974 176.88C133.65 177.332 133.273 177.594 133.125 177.669C132.83 177.818 132.143 178.093 131.758 177.999Z" fill="#8C1B00"/>
<path d="M179.478 113.452C178.578 112.766 166.303 109.147 160.806 107.505L160.226 110.834C165.934 112.539 177.633 115.928 178.763 115.848C179.892 115.767 180.27 115.428 180.317 115.268C180.413 114.949 180.378 114.138 179.478 113.452Z" fill="#8C1B00"/>
<path d="M178.578 121.08C177.588 120.637 165.415 120.158 159.959 119.923L160.192 123.292C165.858 123.536 177.446 123.934 178.471 123.578C179.495 123.221 179.766 122.799 179.773 122.633C179.787 122.3 179.568 121.523 178.578 121.08Z" fill="#8C1B00"/>
<path d="M175.423 116.565C174.653 116.021 164.484 114.247 159.929 113.433L159.653 116.793C164.383 117.639 174.072 119.27 174.983 119.026C175.894 118.783 176.181 118.394 176.21 118.23C176.269 117.902 176.194 117.11 175.423 116.565Z" fill="#8C1B00"/>
<path d="M208.564 125.68L206.785 131.41" stroke="#8B250E" stroke-width="0.5"/>
<path d="M208.829 126.2C208.56 126.38 208.193 126.26 208.082 125.956L205.763 119.612C205.62 119.22 205.992 118.836 206.388 118.965L214.322 121.556C214.718 121.686 214.791 122.216 214.444 122.447L208.829 126.2Z" fill="#EF9C99"/>
<path d="M208.746 126.075C208.557 126.201 208.3 126.117 208.222 125.904L205.904 119.561C205.804 119.286 206.064 119.017 206.342 119.108L214.275 121.699C214.553 121.79 214.604 122.16 214.361 122.323L208.746 126.075Z" stroke="#8C1B00" stroke-opacity="0.79" stroke-width="0.3"/>
<path fill-rule="evenodd" clip-rule="evenodd" d="M207.521 130.9C207.507 130.857 207.486 130.814 207.457 130.773L207.42 130.72C207.284 130.481 206.966 130.364 206.708 130.461L206.617 130.494C206.54 130.523 206.478 130.567 206.431 130.621L201.134 133.224C200.886 133.346 200.814 133.628 200.973 133.854L201.028 133.933C201.187 134.159 201.517 134.244 201.764 134.122L206.72 131.686L209.424 136.501C209.559 136.741 209.878 136.858 210.137 136.762L210.228 136.728C210.487 136.632 210.587 136.359 210.451 136.118L207.521 130.9Z" fill="#8C1B00"/>
<circle cx="198.881" cy="123.982" r="0.25" transform="rotate(17.252 198.881 123.982)" fill="#8C1B00" fill-opacity="0.74"/>
<circle cx="202.044" cy="123.917" r="0.25" transform="rotate(17.252 202.044 123.917)" fill="#8C1B00" fill-opacity="0.74"/>
<circle cx="201.153" cy="126.782" r="0.25" transform="rotate(17.252 201.153 126.782)" fill="#8C1B00" fill-opacity="0.74"/>
<circle cx="0.25" cy="0.25" r="0.25" transform="matrix(-0.95501 -0.296574 -0.296574 0.95501 218.295 129.749)" fill="#8C1B00" fill-opacity="0.74"/>
<circle cx="0.25" cy="0.25" r="0.25" transform="matrix(-0.95501 -0.296574 -0.296574 0.95501 215.727 127.904)" fill="#8C1B00" fill-opacity="0.74"/>
<circle cx="0.25" cy="0.25" r="0.25" transform="matrix(-0.95501 -0.296574 -0.296574 0.95501 214.836 130.769)" fill="#8C1B00" fill-opacity="0.74"/>
<mask id="path-96-inside-6_2062_223" fill="white">
<path fill-rule="evenodd" clip-rule="evenodd" d="M102.654 218.721C102.384 218.777 102.211 219.042 102.267 219.312L102.665 221.223L100.726 221.441C100.451 221.472 100.254 221.719 100.285 221.994C100.316 222.268 100.563 222.465 100.838 222.435L102.87 222.206L103.287 224.207C103.344 224.477 103.609 224.651 103.879 224.595C104.149 224.538 104.323 224.273 104.266 224.003L103.868 222.094L105.806 221.875C106.081 221.845 106.278 221.597 106.247 221.323C106.216 221.048 105.969 220.851 105.695 220.882L103.663 221.11L103.246 219.108C103.189 218.838 102.925 218.664 102.654 218.721Z"/>
</mask>
<path fill-rule="evenodd" clip-rule="evenodd" d="M102.654 218.721C102.384 218.777 102.211 219.042 102.267 219.312L102.665 221.223L100.726 221.441C100.451 221.472 100.254 221.719 100.285 221.994C100.316 222.268 100.563 222.465 100.838 222.435L102.87 222.206L103.287 224.207C103.344 224.477 103.609 224.651 103.879 224.595C104.149 224.538 104.323 224.273 104.266 224.003L103.868 222.094L105.806 221.875C106.081 221.845 106.278 221.597 106.247 221.323C106.216 221.048 105.969 220.851 105.695 220.882L103.663 221.11L103.246 219.108C103.189 218.838 102.925 218.664 102.654 218.721Z" fill="#EF9C99"/>
<path d="M102.267 219.312L102.169 219.333L102.267 219.312ZM102.654 218.721L102.634 218.623L102.634 218.623L102.654 218.721ZM102.665 221.223L102.676 221.322L102.785 221.31L102.763 221.202L102.665 221.223ZM100.726 221.441L100.715 221.341L100.726 221.441ZM100.285 221.994L100.384 221.982L100.285 221.994ZM100.838 222.435L100.849 222.534L100.849 222.534L100.838 222.435ZM102.87 222.206L102.968 222.185L102.949 222.096L102.859 222.106L102.87 222.206ZM103.287 224.207L103.385 224.187L103.287 224.207ZM103.879 224.595L103.899 224.692L103.899 224.692L103.879 224.595ZM104.266 224.003L104.364 223.983L104.266 224.003ZM103.868 222.094L103.857 221.994L103.748 222.006L103.77 222.114L103.868 222.094ZM105.806 221.875L105.795 221.776L105.795 221.776L105.806 221.875ZM106.247 221.323L106.148 221.334L106.247 221.323ZM105.695 220.882L105.706 220.981L105.695 220.882ZM103.663 221.11L103.565 221.131L103.584 221.22L103.674 221.21L103.663 221.11ZM103.246 219.108L103.148 219.129L103.148 219.129L103.246 219.108ZM102.365 219.292C102.32 219.076 102.458 218.864 102.675 218.819L102.634 218.623C102.309 218.691 102.101 219.008 102.169 219.333L102.365 219.292ZM102.763 221.202L102.365 219.292L102.169 219.333L102.567 221.243L102.763 221.202ZM102.654 221.123L100.715 221.341L100.737 221.54L102.676 221.322L102.654 221.123ZM100.715 221.341C100.385 221.379 100.149 221.675 100.186 222.005L100.384 221.982C100.36 221.763 100.518 221.565 100.737 221.54L100.715 221.341ZM100.186 222.005C100.223 222.334 100.52 222.571 100.849 222.534L100.827 222.335C100.607 222.36 100.409 222.202 100.384 221.982L100.186 222.005ZM100.849 222.534L102.881 222.305L102.859 222.106L100.827 222.335L100.849 222.534ZM103.385 224.187L102.968 222.185L102.772 222.226L103.19 224.228L103.385 224.187ZM103.859 224.497C103.642 224.542 103.43 224.403 103.385 224.187L103.19 224.228C103.257 224.552 103.575 224.76 103.899 224.692L103.859 224.497ZM104.168 224.023C104.214 224.24 104.075 224.452 103.859 224.497L103.899 224.692C104.224 224.625 104.432 224.307 104.364 223.983L104.168 224.023ZM103.77 222.114L104.168 224.023L104.364 223.983L103.966 222.073L103.77 222.114ZM103.879 222.193L105.818 221.975L105.795 221.776L103.857 221.994L103.879 222.193ZM105.818 221.975C106.147 221.938 106.384 221.641 106.347 221.312L106.148 221.334C106.173 221.553 106.015 221.751 105.795 221.776L105.818 221.975ZM106.347 221.312C106.31 220.982 106.013 220.745 105.683 220.782L105.706 220.981C105.925 220.956 106.123 221.114 106.148 221.334L106.347 221.312ZM105.683 220.782L103.652 221.011L103.674 221.21L105.706 220.981L105.683 220.782ZM103.148 219.129L103.565 221.131L103.761 221.09L103.344 219.088L103.148 219.129ZM102.675 218.819C102.891 218.774 103.103 218.912 103.148 219.129L103.344 219.088C103.276 218.763 102.958 218.555 102.634 218.623L102.675 218.819Z" fill="#8C1B00" fill-opacity="0.63" mask="url(#path-96-inside-6_2062_223)"/>
<ellipse cx="252.478" cy="62.5956" rx="7.5" ry="3.5" transform="rotate(36.0532 252.478 62.5956)" fill="#D9D9D9"/>
<path d="M278.29 101.783C276.646 102.799 272.943 92.3765 268.619 85.3793C264.295 78.3821 260.331 73.6305 261.975 72.6143C263.619 71.5982 270.25 74.7022 274.574 81.6994C278.898 88.6966 279.934 100.767 278.29 101.783Z" fill="#D9D9D9"/>
<ellipse cx="218.497" cy="108.869" rx="68.5" ry="62" transform="rotate(17.252 218.497 108.869)" fill="#93A4FF" fill-opacity="0.42"/>
<path d="M283.772 129.14C273.646 161.749 236.218 179.136 200.154 167.937C164.09 156.737 143.096 121.207 153.222 88.5986C163.349 55.9897 200.776 38.6025 236.84 49.8021C272.905 61.0017 293.899 96.5314 283.772 129.14Z" stroke="#000C7C" stroke-opacity="0.72" stroke-width="0.3"/>
<defs>
<filter id="filter0_d_2062_223" x="88.002" y="217.316" width="20.4922" height="18.8268" filterUnits="userSpaceOnUse" color-interpolation-filters="sRGB">
<feFlood flood-opacity="0" result="BackgroundImageFix"/>
<feColorMatrix in="SourceAlpha" type="matrix" values="0 0 0 0 0 0 0 0 0 0 0 0 0 0 0 0 0 0 127 0" result="hardAlpha"/>
<feOffset dy="1"/>
<feGaussianBlur stdDeviation="2"/>
<feComposite in2="hardAlpha" operator="out"/>
<feColorMatrix type="matrix" values="0 0 0 0 0.54902 0 0 0 0 0.105882 0 0 0 0 0 0 0 0 1 0"/>
<feBlend mode="normal" in2="BackgroundImageFix" result="effect1_dropShadow_2062_223"/>
<feBlend mode="normal" in="SourceGraphic" in2="effect1_dropShadow_2062_223" result="shape"/>
</filter>
<filter id="filter1_d_2062_223" x="155.646" y="64.0105" width="117.057" height="111.033" filterUnits="userSpaceOnUse" color-interpolation-filters="sRGB">
<feFlood flood-opacity="0" result="BackgroundImageFix"/>
<feColorMatrix in="SourceAlpha" type="matrix" values="0 0 0 0 0 0 0 0 0 0 0 0 0 0 0 0 0 0 127 0" result="hardAlpha"/>
<feOffset dy="4"/>
<feGaussianBlur stdDeviation="2"/>
<feComposite in2="hardAlpha" operator="out"/>
<feColorMatrix type="matrix" values="0 0 0 0 0.545098 0 0 0 0 0.145098 0 0 0 0 0.054902 0 0 0 0.32 0"/>
<feBlend mode="normal" in2="BackgroundImageFix" result="effect1_dropShadow_2062_223"/>
<feBlend mode="normal" in="SourceGraphic" in2="effect1_dropShadow_2062_223" result="shape"/>
</filter>
<filter id="filter2_d_2062_223" x="174.205" y="84.8898" width="35.0078" height="35.0072" filterUnits="userSpaceOnUse" color-interpolation-filters="sRGB">
<feFlood flood-opacity="0" result="BackgroundImageFix"/>
<feColorMatrix in="SourceAlpha" type="matrix" values="0 0 0 0 0 0 0 0 0 0 0 0 0 0 0 0 0 0 127 0" result="hardAlpha"/>
<feOffset dx="-2" dy="-2"/>
<feGaussianBlur stdDeviation="2"/>
<feComposite in2="hardAlpha" operator="out"/>
<feColorMatrix type="matrix" values="0 0 0 0 0.831373 0 0 0 0 0.294118 0 0 0 0 0.168627 0 0 0 1 0"/>
<feBlend mode="normal" in2="BackgroundImageFix" result="effect1_dropShadow_2062_223"/>
<feBlend mode="normal" in="SourceGraphic" in2="effect1_dropShadow_2062_223" result="shape"/>
</filter>
<filter id="filter3_d_2062_223" x="217.361" y="97.0493" width="35.0078" height="35.0072" filterUnits="userSpaceOnUse" color-interpolation-filters="sRGB">
<feFlood flood-opacity="0" result="BackgroundImageFix"/>
<feColorMatrix in="SourceAlpha" type="matrix" values="0 0 0 0 0 0 0 0 0 0 0 0 0 0 0 0 0 0 127 0" result="hardAlpha"/>
<feOffset dx="2" dy="-2"/>
<feGaussianBlur stdDeviation="2"/>
<feComposite in2="hardAlpha" operator="out"/>
<feColorMatrix type="matrix" values="0 0 0 0 0.831373 0 0 0 0 0.294118 0 0 0 0 0.168627 0 0 0 1 0"/>
<feBlend mode="normal" in2="BackgroundImageFix" result="effect1_dropShadow_2062_223"/>
<feBlend mode="normal" in="SourceGraphic" in2="effect1_dropShadow_2062_223" result="shape"/>
</filter>
</defs>
</svg>
