<svg width="276" height="224" viewBox="0 0 276 224" fill="none" xmlns="http://www.w3.org/2000/svg">
<path d="M60.6121 111.701C71.5418 121.346 83.8433 120.263 86.975 119.824L93.8093 107.842C93.4366 107.841 84.4251 104.12 80.3138 103.035C75.1746 101.679 68.7232 89.8097 66.0549 84.4357C63.3867 79.0616 55.6687 66.8901 50.7738 58.1557C45.8788 49.4213 33.9701 43.4257 23.2314 45.4081C12.4927 47.3905 4.93497 58.0283 5.58327 66.08C6.23157 74.1317 19.4448 78.2575 24.5522 79.5495C29.0212 80.6801 36.3316 78.5387 40.1116 86.1519C43.8917 93.7652 49.6823 102.055 60.6121 111.701Z" fill="#F3885E" stroke="#8B250E" stroke-width="0.5"/>
<path d="M60.6121 111.701C71.5418 121.346 83.8433 120.263 86.975 119.824L93.8093 107.842C93.4366 107.841 84.4251 104.12 80.3138 103.035C75.1746 101.679 68.7232 89.8097 66.0549 84.4357C63.3867 79.0616 55.6687 66.8901 50.7738 58.1557C45.8788 49.4213 33.9701 43.4257 23.2314 45.4081C12.4927 47.3905 4.93497 58.0283 5.58327 66.08C6.23157 74.1317 19.4448 78.2575 24.5522 79.5495C29.0212 80.6801 36.3316 78.5387 40.1116 86.1519C43.8917 93.7652 49.6823 102.055 60.6121 111.701Z" fill="#F3885E" stroke="#8B250E" stroke-width="0.5"/>
<g filter="url(#filter0_d_2062_504)">
<path d="M86.0805 120.15C85.9026 119.792 89.6549 109.64 92.7077 107.658" stroke="#8C1B00" stroke-width="0.2"/>
</g>
<path d="M22.222 79.0742L45.1826 51.632L41.766 49.0194L17.9959 77.2326L22.222 79.0742Z" fill="#8B250E"/>
<path d="M12.5217 74.7288L35.189 46.3305L30.1535 45.2605L7.85549 71.453L12.5217 74.7288Z" fill="#8B250E"/>
<path d="M32.6251 80.5894L51.9409 60.0191L48.4362 54.4312L27.7364 79.9974L30.8978 80.0734L32.6251 80.5894Z" fill="#8B250E"/>
<path d="M199.771 114.643C195.465 106.724 190.162 103.681 189.999 103.208L178.273 115.198C181.435 115.163 184.031 121.143 185.811 124.76C187.59 128.377 195 140.628 198.034 143.283C201.068 145.937 205.794 144.303 206.523 138.761C207.252 133.218 204.13 122.659 199.771 114.643Z" fill="#F3885E" stroke="#8B250E" stroke-width="0.5"/>
<path d="M136.327 130.838C145.303 120.701 143.059 113.379 140.815 110.986C130.468 104.791 109.175 96.371 106.781 112.253C103.789 132.106 108.651 149.424 109.773 153.225C110.895 157.027 119.497 174.345 125.107 167.587C129.595 162.18 125.481 146.185 122.863 138.864C123.611 140.413 127.351 140.976 136.327 130.838Z" fill="#F3885E" stroke="#8C1B00" stroke-width="0.3"/>
<path d="M145.394 78.2433L145.394 78.2437L145.404 78.2406C177.188 68.6025 197.507 63.8498 210.18 62.4511C216.517 61.7516 220.929 61.8928 223.9 62.6728C226.866 63.4511 228.379 64.8587 228.965 66.6885C229.556 68.5344 229.217 70.8462 228.386 73.4569C227.616 75.8732 226.434 78.5193 225.213 81.2526C225.116 81.4683 225.02 81.6844 224.923 81.9011C223.603 84.8595 222.274 87.9037 221.416 90.8354C220.559 93.766 220.168 96.6005 220.741 99.1367C222.981 109.057 217.536 119.761 206.844 129.051C196.158 138.337 180.26 146.183 161.681 150.378C143.102 154.573 125.375 154.32 111.736 150.526C98.0899 146.731 88.5739 139.405 86.334 129.485C84.094 119.564 89.5392 108.861 100.231 99.5699C110.917 90.2839 126.815 82.4382 145.394 78.2433Z" fill="#F3885E" stroke="#8B250E" stroke-width="0.3"/>
<path d="M139.069 133.167C122.693 134.812 115.164 144.249 113.446 150.829C116.098 151.294 116.949 151.82 125.168 152.789C132.085 153.604 138.368 153.311 144.887 153.228C148.917 153.176 165.033 149.57 166.122 149.313C172.316 147.854 178.328 145.105 182.841 143.194C183.759 142.978 188.573 133.995 179.017 130.435C166.691 125.844 157.876 131.278 139.069 133.167Z" fill="#FFE2C8"/>
<path d="M223.254 29.5936C224.009 28.4941 225.632 28.4941 226.387 29.5936L241.64 51.8101C242.506 53.0708 241.603 54.7855 240.074 54.7855H209.567C208.038 54.7855 207.135 53.0708 208.001 51.8101L223.254 29.5936Z" fill="#DF6332" stroke="#8C1B00" stroke-width="0.2"/>
<g filter="url(#filter1_d_2062_504)">
<mask id="path-12-inside-1_2062_504" fill="white">
<path fill-rule="evenodd" clip-rule="evenodd" d="M214.158 30.8543C213.358 29.7732 211.741 29.7732 210.941 30.8543L196.245 50.728C196.093 50.9335 195.988 51.1522 195.924 51.3752C185.63 58.5272 179 69.7364 179 82.3376C179 103.936 198.476 121.444 222.5 121.444C246.524 121.444 266 103.936 266 82.3376C266 60.9843 246.963 43.6283 223.315 43.2377L214.158 30.8543Z"/>
</mask>
<path fill-rule="evenodd" clip-rule="evenodd" d="M214.158 30.8543C213.358 29.7732 211.741 29.7732 210.941 30.8543L196.245 50.728C196.093 50.9335 195.988 51.1522 195.924 51.3752C185.63 58.5272 179 69.7364 179 82.3376C179 103.936 198.476 121.444 222.5 121.444C246.524 121.444 266 103.936 266 82.3376C266 60.9843 246.963 43.6283 223.315 43.2377L214.158 30.8543Z" fill="#F3885E"/>
<path d="M210.941 30.8543L211.183 31.0327L210.941 30.8543ZM214.158 30.8543L213.916 31.0327L214.158 30.8543ZM196.245 50.728L196.004 50.5496V50.5496L196.245 50.728ZM195.924 51.3752L196.096 51.6216L196.184 51.5605L196.213 51.4575L195.924 51.3752ZM223.315 43.2377L223.074 43.4161L223.162 43.5352L223.31 43.5377L223.315 43.2377ZM211.183 31.0327C211.862 30.1137 213.237 30.1137 213.916 31.0327L214.399 30.6759C213.479 29.4326 211.62 29.4326 210.7 30.6759L211.183 31.0327ZM196.487 50.9063L211.183 31.0327L210.7 30.6759L196.004 50.5496L196.487 50.9063ZM196.213 51.4575C196.267 51.2692 196.356 51.083 196.487 50.9063L196.004 50.5496C195.831 50.7839 195.709 51.0352 195.636 51.293L196.213 51.4575ZM179.3 82.3376C179.3 69.8467 185.871 58.7248 196.096 51.6216L195.753 51.1288C185.388 58.3296 178.7 69.626 178.7 82.3376H179.3ZM222.5 121.144C198.61 121.144 179.3 103.741 179.3 82.3376H178.7C178.7 104.131 198.341 121.744 222.5 121.744V121.144ZM265.7 82.3376C265.7 103.741 246.39 121.144 222.5 121.144V121.744C246.659 121.744 266.3 104.131 266.3 82.3376H265.7ZM223.31 43.5377C246.825 43.926 265.7 61.1769 265.7 82.3376H266.3C266.3 60.7918 247.102 43.3305 223.32 42.9378L223.31 43.5377ZM213.916 31.0327L223.074 43.4161L223.556 43.0593L214.399 30.6759L213.916 31.0327Z" fill="#8C1B00" mask="url(#path-12-inside-1_2062_504)"/>
</g>
<g filter="url(#filter2_d_2062_504)">
<circle cx="241.32" cy="72.6355" r="13.5" fill="#EDDFD2"/>
<circle cx="241.32" cy="72.6355" r="13.35" stroke="#8C1B00" stroke-width="0.3"/>
</g>
<ellipse cx="244.32" cy="72.1356" rx="10.5" ry="11" fill="#2B0000"/>
<mask id="path-17-inside-2_2062_504" fill="white">
<path fill-rule="evenodd" clip-rule="evenodd" d="M214.805 33.3513C214.323 32.5257 213.061 32.8553 212.965 33.8321L212.117 42.4192C215.051 41.8455 217.813 41.9524 220.258 42.6817L214.805 33.3513Z"/>
</mask>
<path fill-rule="evenodd" clip-rule="evenodd" d="M214.805 33.3513C214.323 32.5257 213.061 32.8553 212.965 33.8321L212.117 42.4192C215.051 41.8455 217.813 41.9524 220.258 42.6817L214.805 33.3513Z" fill="#EF9C99"/>
<path d="M212.965 33.8321L212.666 33.8027L212.965 33.8321ZM214.805 33.3513L215.064 33.1999L214.805 33.3513ZM212.117 42.4192L211.819 42.3897L211.779 42.791L212.175 42.7136L212.117 42.4192ZM220.258 42.6817L220.172 42.9692L220.901 43.1863L220.517 42.5303L220.258 42.6817ZM213.263 33.8616C213.298 33.5098 213.538 33.2787 213.816 33.2061C214.092 33.134 214.382 33.2214 214.546 33.5027L215.064 33.1999C214.746 32.6556 214.164 32.495 213.664 32.6255C213.167 32.7555 212.728 33.1776 212.666 33.8027L213.263 33.8616ZM212.416 42.4486L213.263 33.8616L212.666 33.8027L211.819 42.3897L212.416 42.4486ZM212.175 42.7136C215.067 42.148 217.779 42.2554 220.172 42.9692L220.344 42.3942C217.846 41.6494 215.035 41.5429 212.06 42.1247L212.175 42.7136ZM214.546 33.5027L219.999 42.8331L220.517 42.5303L215.064 33.1999L214.546 33.5027Z" fill="#8C1B00" fill-opacity="0.58" mask="url(#path-17-inside-2_2062_504)"/>
<path d="M245.036 57.4559C244.494 57.1448 244.105 50.1995 243.58 47.9512L246.827 49.9513C247.372 52.286 248.167 56.2874 247.819 56.8064C247.47 57.3254 247.012 57.5418 246.827 57.585C246.456 57.6716 245.578 57.767 245.036 57.4559Z" fill="#8C1B00"/>
<path d="M249.126 56.5178C248.675 56.1055 248.548 53.5484 248.069 50.9533L250.401 52.4844C250.898 55.1793 251.355 55.9053 251.081 56.4513C250.807 56.9973 250.081 56.9513 250.081 56.9513C249.779 57.007 249.577 56.93 249.126 56.5178Z" fill="#8C1B00"/>
<path d="M231.45 96.2438C232.203 95.6749 242.308 93.5718 246.834 92.6097C247.253 92.5207 251.822 91.6355 251.822 93.1355C251.822 94.3355 249.489 95.3021 248.322 95.6354L231.97 98.6892C230.822 98.6355 230.752 98.0961 230.718 97.9331C230.648 97.607 230.698 96.8127 231.45 96.2438Z" fill="#8C1B00"/>
<path d="M230.003 91.0217C230.829 90.6285 241.121 89.8412 245.733 89.4722C246.16 89.4381 250.803 89.1353 250.588 90.3524C250.416 91.3261 247.97 91.8982 246.769 92.0626L230.166 93.0532C229.039 92.9052 229.047 92.4612 229.037 92.3257C229.015 92.0549 229.178 91.4148 230.003 91.0217Z" fill="#8C1B00"/>
<path d="M231.142 102.178C231.893 101.588 242.204 98.2355 246.822 96.7173C247.249 96.5768 251.914 95.1152 251.976 96.3537C252.026 97.3446 249.665 98.5158 248.479 98.9776L231.779 104.114C230.595 104.253 230.501 103.819 230.459 103.69C230.374 103.432 230.392 102.768 231.142 102.178Z" fill="#8C1B00"/>
<path fill-rule="evenodd" clip-rule="evenodd" d="M265.528 89.5363L261.993 93.2852C261.804 93.4861 261.47 93.5156 261.248 93.3512L261.191 93.3086C260.969 93.1441 260.943 92.848 261.132 92.6471L265.266 88.2636C265.308 88.2188 265.358 88.1825 265.412 88.1549C265.511 88.5838 265.553 89.0508 265.528 89.5363Z" fill="#8C1B00"/>
<mask id="path-25-inside-3_2062_504" fill="white">
<path fill-rule="evenodd" clip-rule="evenodd" d="M265.387 85.7551C265.666 84.8838 265.821 83.9185 265.821 82.9025C265.821 81.6304 265.578 80.4375 265.153 79.4095L260.969 79.3426C260.544 79.3358 260.306 79.8282 260.575 80.1578L264.986 85.5705C265.089 85.6969 265.239 85.7587 265.387 85.7551Z"/>
</mask>
<path fill-rule="evenodd" clip-rule="evenodd" d="M265.387 85.7551C265.666 84.8838 265.821 83.9185 265.821 82.9025C265.821 81.6304 265.578 80.4375 265.153 79.4095L260.969 79.3426C260.544 79.3358 260.306 79.8282 260.575 80.1578L264.986 85.5705C265.089 85.6969 265.239 85.7587 265.387 85.7551Z" fill="#EF9C99"/>
<path d="M265.387 85.7551L265.394 86.055L265.608 86.0499L265.673 85.8466L265.387 85.7551ZM265.153 79.4095L265.43 79.2948L265.355 79.1127L265.158 79.1095L265.153 79.4095ZM260.969 79.3426L260.973 79.0426L260.969 79.3426ZM260.575 80.1578L260.342 80.3474L260.575 80.1578ZM264.986 85.5705L265.219 85.381L264.986 85.5705ZM265.521 82.9025C265.521 83.8882 265.37 84.8226 265.101 85.6636L265.673 85.8466C265.961 84.945 266.121 83.9488 266.121 82.9025H265.521ZM264.875 79.5241C265.285 80.5143 265.521 81.6681 265.521 82.9025H266.121C266.121 81.5927 265.871 80.3607 265.43 79.2948L264.875 79.5241ZM260.964 79.6426L265.148 79.7094L265.158 79.1095L260.973 79.0426L260.964 79.6426ZM260.807 79.9683C260.699 79.8353 260.795 79.6399 260.964 79.6426L260.973 79.0426C260.292 79.0318 259.913 79.821 260.342 80.3474L260.807 79.9683ZM265.219 85.381L260.807 79.9683L260.342 80.3474L264.754 85.76L265.219 85.381ZM265.38 85.4552C265.319 85.4566 265.26 85.4319 265.219 85.381L264.754 85.76C264.918 85.9619 265.158 86.0607 265.394 86.055L265.38 85.4552Z" fill="#8C1B00" fill-opacity="0.79" mask="url(#path-25-inside-3_2062_504)"/>
<path d="M118.327 146.838C127.303 136.701 125.059 129.379 122.815 126.986C112.468 120.791 91.1749 112.371 88.7814 128.253C85.7894 148.106 90.6514 165.424 91.7733 169.225C92.8953 173.027 101.497 190.345 107.107 183.587C111.595 178.18 107.481 162.185 104.863 154.864C105.611 156.413 109.351 156.976 118.327 146.838Z" fill="#F3885E"/>
<path d="M88.7806 128.253C85.7886 148.105 90.6506 165.424 91.7725 169.225C92.8945 173.027 101.496 190.345 107.106 183.587C111.594 178.18 107.48 162.185 104.862 154.864C105.61 156.413 109.351 156.976 118.326 146.838C121.325 143.604 126.722 135.735 124.322 130.135" stroke="#8B250E" stroke-width="0.3"/>
<path d="M189.771 122.643C185.465 114.724 180.162 111.681 179.999 111.208L168.273 123.198C171.435 123.163 174.031 129.143 175.811 132.76C177.59 136.377 185 148.628 188.034 151.283C191.068 153.937 195.794 152.303 196.523 146.761C197.252 141.218 194.13 130.659 189.771 122.643Z" fill="#F3885E"/>
<path d="M169.321 121.135C169.87 123.572 174.031 129.143 175.81 132.76C177.59 136.377 185 148.629 188.034 151.283C191.068 153.937 195.793 152.304 196.522 146.761C197.251 141.219 194.129 130.659 189.771 122.643C187.955 119.307 187.322 118.635 182.821 115.136" stroke="#8B250E" stroke-width="0.5"/>
<path d="M105.244 179.951C105.322 180.165 106.909 182.061 107.617 182.914L108.012 182.382C107.276 181.497 105.758 179.701 105.574 179.6C105.39 179.499 105.3 179.52 105.278 179.544C105.234 179.591 105.166 179.738 105.244 179.951Z" fill="#8C1B00"/>
<path d="M102.761 181.339C102.84 181.567 104.35 183.866 105.025 184.898L105.607 184.679C104.907 183.606 103.214 181.255 103.044 181.102C102.874 180.95 102.794 180.943 102.775 180.959C102.737 180.99 102.681 181.11 102.761 181.339Z" fill="#8C1B00"/>
<path d="M102.161 182.13C102.19 182.318 103.065 184.309 103.455 185.203L103.965 185.107C103.56 184.179 102.544 182.123 102.43 181.982C102.315 181.841 102.25 181.825 102.232 181.835C102.196 181.855 102.132 181.941 102.161 182.13Z" fill="#8C1B00"/>
<path d="M103.882 180.55C103.985 180.797 105.896 183.083 106.75 184.11L107.148 183.553C106.261 182.486 104.434 180.319 104.222 180.187C104.01 180.056 103.912 180.071 103.889 180.095C103.844 180.144 103.779 180.302 103.882 180.55Z" fill="#8C1B00"/>
<path d="M123.782 163.98C123.788 164.214 124.673 166.523 125.067 167.56L125.601 167.132C125.193 166.055 124.34 163.863 124.201 163.714C124.061 163.565 123.97 163.563 123.942 163.581C123.887 163.617 123.776 163.746 123.782 163.98Z" fill="#8C1B00"/>
<path d="M121.03 164.722C121.032 164.971 121.518 167.928 121.823 169.136L122.322 169.136C122.005 167.881 121.479 164.756 121.369 164.559C121.258 164.362 121.185 164.335 121.163 164.346C121.118 164.367 121.028 164.473 121.03 164.722Z" fill="#8C1B00"/>
<path d="M120.223 165.357C120.191 165.553 120.382 167.772 120.465 168.767L120.971 168.804C120.884 167.77 120.582 165.45 120.519 165.279C120.456 165.108 120.401 165.075 120.381 165.081C120.342 165.091 120.255 165.161 120.223 165.357Z" fill="#8C1B00"/>
<path d="M122.325 164.224C122.344 164.499 123.409 167.282 123.883 168.532L124.429 168.077C123.937 166.78 122.913 164.137 122.756 163.95C122.6 163.763 122.503 163.753 122.474 163.772C122.417 163.808 122.306 163.95 122.325 164.224Z" fill="#8C1B00"/>
<path d="M204.448 136.535C204.457 136.809 205.086 140.072 205.464 141.409L206.032 141.422C205.639 140.034 204.959 136.585 204.828 136.366C204.698 136.146 204.614 136.114 204.589 136.125C204.538 136.148 204.439 136.262 204.448 136.535Z" fill="#8C1B00"/>
<path d="M203.548 137.213C203.516 137.427 204.367 141.764 204.488 142.86L205.322 142.635C205.197 141.497 203.958 137.325 203.882 137.135C203.807 136.945 203.743 136.908 203.721 136.913C203.676 136.923 203.579 136.998 203.548 137.213Z" fill="#8C1B00"/>
<path d="M194.756 143.618C194.765 143.892 195.394 147.155 195.773 148.491L196.34 148.504C195.947 147.117 195.268 143.668 195.137 143.448C195.006 143.229 194.923 143.196 194.897 143.208C194.847 143.23 194.747 143.344 194.756 143.618Z" fill="#8C1B00"/>
<path d="M193.856 144.295C193.825 144.51 194.703 149.539 194.823 150.636L195.631 149.718C195.505 148.579 194.267 144.407 194.191 144.217C194.115 144.027 194.051 143.99 194.029 143.995C193.984 144.006 193.887 144.08 193.856 144.295Z" fill="#8C1B00"/>
<mask id="path-43-inside-4_2062_504" fill="white">
<path fill-rule="evenodd" clip-rule="evenodd" d="M185.308 147.354C185.362 147.109 185.496 146.878 185.714 146.716L188.028 144.991C188.633 144.54 189.441 144.939 189.504 145.72L189.762 148.886C189.829 149.712 189.02 150.314 188.35 149.939L185.779 148.497C185.778 148.496 185.777 148.496 185.776 148.495C185.595 148.135 185.438 147.753 185.308 147.354ZM191.774 152.015C191.788 152.012 191.802 152.01 191.816 152.007C191.769 151.703 191.617 151.314 191.379 150.934C190.948 150.244 190.399 149.841 190.152 150.034C189.905 150.228 190.054 150.943 190.484 151.633C190.592 151.805 190.706 151.959 190.821 152.09C191.137 152.098 191.455 152.074 191.774 152.015ZM190.678 152.084C190.621 151.965 190.554 151.843 190.478 151.722C190.048 151.032 189.498 150.629 189.251 150.822C189.081 150.955 189.098 151.337 189.267 151.788C189.724 151.956 190.197 152.057 190.678 152.084ZM188.537 151.455C188.473 151.287 188.39 151.11 188.29 150.934C187.877 150.203 187.324 149.74 187.056 149.898C186.978 149.944 186.933 150.038 186.918 150.166C187.401 150.696 187.949 151.132 188.537 151.455ZM191.837 150.113C192.104 149.955 191.986 149.235 191.573 148.505C191.159 147.774 190.607 147.311 190.339 147.469C190.071 147.628 190.189 148.348 190.603 149.078C191.016 149.808 191.569 150.272 191.837 150.113Z"/>
</mask>
<path fill-rule="evenodd" clip-rule="evenodd" d="M185.308 147.354C185.362 147.109 185.496 146.878 185.714 146.716L188.028 144.991C188.633 144.54 189.441 144.939 189.504 145.72L189.762 148.886C189.829 149.712 189.02 150.314 188.35 149.939L185.779 148.497C185.778 148.496 185.777 148.496 185.776 148.495C185.595 148.135 185.438 147.753 185.308 147.354ZM191.774 152.015C191.788 152.012 191.802 152.01 191.816 152.007C191.769 151.703 191.617 151.314 191.379 150.934C190.948 150.244 190.399 149.841 190.152 150.034C189.905 150.228 190.054 150.943 190.484 151.633C190.592 151.805 190.706 151.959 190.821 152.09C191.137 152.098 191.455 152.074 191.774 152.015ZM190.678 152.084C190.621 151.965 190.554 151.843 190.478 151.722C190.048 151.032 189.498 150.629 189.251 150.822C189.081 150.955 189.098 151.337 189.267 151.788C189.724 151.956 190.197 152.057 190.678 152.084ZM188.537 151.455C188.473 151.287 188.39 151.11 188.29 150.934C187.877 150.203 187.324 149.74 187.056 149.898C186.978 149.944 186.933 150.038 186.918 150.166C187.401 150.696 187.949 151.132 188.537 151.455ZM191.837 150.113C192.104 149.955 191.986 149.235 191.573 148.505C191.159 147.774 190.607 147.311 190.339 147.469C190.071 147.628 190.189 148.348 190.603 149.078C191.016 149.808 191.569 150.272 191.837 150.113Z" fill="#EF9C99"/>
<path d="M185.308 147.354L185.113 147.311L185.101 147.364L185.118 147.416L185.308 147.354ZM185.714 146.716L185.834 146.876L185.714 146.716ZM188.028 144.991L188.148 145.151L188.028 144.991ZM189.504 145.72L189.305 145.736L189.305 145.736L189.504 145.72ZM189.762 148.886L189.562 148.902L189.562 148.902L189.762 148.886ZM188.35 149.939L188.252 150.113L188.35 149.939ZM185.779 148.497L185.877 148.322L185.877 148.322L185.779 148.497ZM185.776 148.495L185.598 148.585L185.625 148.64L185.678 148.67L185.776 148.495ZM191.816 152.007L191.854 152.203L192.043 152.167L192.013 151.977L191.816 152.007ZM191.774 152.015L191.81 152.212L191.81 152.212L191.774 152.015ZM191.379 150.934L191.549 150.828L191.379 150.934ZM190.152 150.034L190.029 149.877L190.029 149.877L190.152 150.034ZM190.484 151.633L190.654 151.528L190.654 151.528L190.484 151.633ZM190.821 152.09L190.671 152.222L190.729 152.288L190.816 152.29L190.821 152.09ZM190.678 152.084L190.667 152.284L191.006 152.303L190.859 151.998L190.678 152.084ZM190.478 151.722L190.648 151.616L190.648 151.616L190.478 151.722ZM189.251 150.822L189.128 150.665L189.128 150.665L189.251 150.822ZM189.267 151.788L189.08 151.858L189.112 151.944L189.198 151.975L189.267 151.788ZM188.537 151.455L188.441 151.63L188.919 151.892L188.724 151.383L188.537 151.455ZM188.29 150.934L188.464 150.835L188.29 150.934ZM187.056 149.898L186.955 149.726L187.056 149.898ZM186.918 150.166L186.72 150.143L186.709 150.234L186.771 150.301L186.918 150.166ZM191.573 148.505L191.747 148.406L191.573 148.505ZM191.837 150.113L191.735 149.941L191.735 149.941L191.837 150.113ZM190.339 147.469L190.441 147.641L190.441 147.641L190.339 147.469ZM190.603 149.078L190.429 149.177L190.603 149.078ZM185.503 147.397C185.548 147.194 185.658 147.007 185.834 146.876L185.595 146.555C185.335 146.749 185.175 147.024 185.113 147.311L185.503 147.397ZM185.834 146.876L188.148 145.151L187.909 144.83L185.595 146.555L185.834 146.876ZM188.148 145.151C188.612 144.805 189.253 145.093 189.305 145.736L189.704 145.703C189.629 144.785 188.654 144.275 187.909 144.83L188.148 145.151ZM189.305 145.736L189.562 148.902L189.961 148.87L189.704 145.703L189.305 145.736ZM189.562 148.902C189.59 149.244 189.437 149.535 189.213 149.703C188.99 149.869 188.705 149.908 188.448 149.764L188.252 150.113C188.665 150.344 189.12 150.271 189.452 150.023C189.783 149.777 190 149.354 189.961 148.87L189.562 148.902ZM188.448 149.764L185.877 148.322L185.681 148.671L188.252 150.113L188.448 149.764ZM185.877 148.322C185.876 148.322 185.875 148.322 185.875 148.321L185.678 148.67C185.679 148.67 185.68 148.671 185.681 148.671L185.877 148.322ZM185.955 148.406C185.778 148.054 185.625 147.682 185.498 147.292L185.118 147.416C185.251 147.825 185.412 148.216 185.598 148.585L185.955 148.406ZM191.777 151.811C191.764 151.813 191.751 151.816 191.737 151.818L191.81 152.212C191.825 152.209 191.839 152.206 191.854 152.203L191.777 151.811ZM191.21 151.04C191.437 151.404 191.576 151.767 191.618 152.038L192.013 151.977C191.961 151.639 191.797 151.225 191.549 150.828L191.21 151.04ZM190.275 150.192C190.275 150.192 190.288 150.179 190.343 150.191C190.399 150.204 190.48 150.242 190.578 150.314C190.775 150.458 191.004 150.71 191.21 151.04L191.549 150.828C191.324 150.468 191.063 150.173 190.815 149.992C190.692 149.901 190.561 149.831 190.432 149.801C190.3 149.771 190.152 149.78 190.029 149.877L190.275 150.192ZM190.654 151.528C190.448 151.198 190.314 150.869 190.26 150.607C190.232 150.476 190.227 150.37 190.237 150.295C190.248 150.218 190.27 150.196 190.275 150.192L190.029 149.877C189.91 149.97 189.859 150.109 189.841 150.242C189.823 150.377 189.835 150.53 189.868 150.688C189.934 151.005 190.09 151.379 190.315 151.739L190.654 151.528ZM190.972 151.958C190.864 151.836 190.756 151.691 190.654 151.528L190.315 151.739C190.427 151.92 190.548 152.082 190.671 152.222L190.972 151.958ZM191.737 151.818C191.433 151.875 191.128 151.898 190.826 151.89L190.816 152.29C191.145 152.298 191.478 152.273 191.81 152.212L191.737 151.818ZM190.859 151.998C190.798 151.871 190.727 151.743 190.648 151.616L190.309 151.828C190.38 151.943 190.444 152.058 190.498 152.171L190.859 151.998ZM190.648 151.616C190.423 151.256 190.162 150.961 189.914 150.779C189.791 150.689 189.66 150.619 189.531 150.589C189.399 150.559 189.251 150.568 189.128 150.665L189.374 150.98C189.374 150.98 189.387 150.967 189.442 150.979C189.498 150.992 189.579 151.03 189.678 151.102C189.874 151.246 190.103 151.498 190.309 151.828L190.648 151.616ZM189.128 150.665C188.966 150.791 188.927 151.004 188.932 151.191C188.937 151.389 188.991 151.62 189.08 151.858L189.455 151.718C189.375 151.505 189.335 151.32 189.332 151.181C189.328 151.031 189.366 150.986 189.374 150.98L189.128 150.665ZM190.69 151.885C190.229 151.859 189.775 151.762 189.336 151.6L189.198 151.975C189.672 152.15 190.165 152.256 190.667 152.284L190.69 151.885ZM188.724 151.383C188.656 151.206 188.569 151.02 188.464 150.835L188.116 151.032C188.212 151.201 188.29 151.368 188.351 151.526L188.724 151.383ZM188.464 150.835C188.249 150.455 187.993 150.136 187.747 149.93C187.625 149.827 187.496 149.745 187.368 149.701C187.241 149.658 187.09 149.646 186.955 149.726L187.158 150.07C187.159 150.07 187.163 150.068 187.174 150.067C187.187 150.067 187.208 150.069 187.24 150.08C187.304 150.102 187.389 150.151 187.49 150.236C187.691 150.404 187.918 150.682 188.116 151.032L188.464 150.835ZM186.955 149.726C186.798 149.819 186.738 149.988 186.72 150.143L187.117 150.189C187.123 150.142 187.133 150.111 187.142 150.092C187.151 150.075 187.157 150.071 187.158 150.07L186.955 149.726ZM188.633 151.279C188.065 150.968 187.535 150.546 187.066 150.031L186.771 150.301C187.267 150.846 187.832 151.296 188.441 151.63L188.633 151.279ZM191.399 148.603C191.597 148.953 191.72 149.293 191.763 149.556C191.785 149.688 191.784 149.79 191.77 149.859C191.764 149.893 191.755 149.914 191.747 149.926C191.741 149.938 191.736 149.941 191.735 149.941L191.938 150.286C192.073 150.206 192.136 150.069 192.163 149.937C192.189 149.804 192.184 149.65 192.158 149.491C192.105 149.171 191.962 148.786 191.747 148.406L191.399 148.603ZM190.441 147.641C190.442 147.641 190.446 147.639 190.457 147.638C190.47 147.638 190.491 147.64 190.522 147.651C190.586 147.673 190.672 147.722 190.773 147.807C190.973 147.975 191.201 148.253 191.399 148.603L191.747 148.406C191.532 148.026 191.276 147.707 191.03 147.501C190.908 147.398 190.779 147.316 190.651 147.272C190.523 147.229 190.372 147.217 190.237 147.297L190.441 147.641ZM190.777 148.979C190.579 148.63 190.456 148.289 190.413 148.027C190.391 147.895 190.392 147.793 190.405 147.724C190.412 147.69 190.421 147.669 190.428 147.656C190.435 147.645 190.44 147.642 190.441 147.641L190.237 147.297C190.103 147.376 190.039 147.514 190.013 147.646C189.987 147.779 189.992 147.933 190.018 148.092C190.071 148.411 190.214 148.796 190.429 149.177L190.777 148.979ZM191.735 149.941C191.734 149.942 191.73 149.944 191.719 149.944C191.706 149.945 191.685 149.942 191.653 149.932C191.589 149.91 191.504 149.86 191.403 149.776C191.202 149.607 190.975 149.329 190.777 148.979L190.429 149.177C190.644 149.557 190.9 149.876 191.146 150.082C191.268 150.185 191.397 150.267 191.525 150.31C191.652 150.354 191.803 150.365 191.938 150.286L191.735 149.941Z" fill="#8C1B00" fill-opacity="0.58" mask="url(#path-43-inside-4_2062_504)"/>
<mask id="path-45-inside-5_2062_504" fill="white">
<path fill-rule="evenodd" clip-rule="evenodd" d="M197.64 142.871C197.307 142.542 197.016 142.157 196.776 141.728C196.804 141.207 196.918 140.827 197.083 140.79C197.315 140.738 197.558 141.383 197.626 142.23C197.644 142.455 197.648 142.673 197.64 142.871ZM198.894 143.739C198.597 143.605 198.316 143.435 198.055 143.234C198.087 142.829 198.182 142.534 198.321 142.478C198.544 142.387 198.798 142.948 198.894 143.739ZM198.937 143.757C198.935 143.74 198.933 143.722 198.931 143.704C198.839 142.889 198.949 142.153 199.177 142.061C199.404 141.968 199.664 142.554 199.756 143.369C199.781 143.595 199.791 143.815 199.787 144.018C199.492 143.963 199.208 143.875 198.937 143.757ZM197.655 140.775C198.064 141.481 199.19 141.061 199.423 140.114L200.044 137.586C200.227 136.84 199.69 136.302 199.014 136.554L197.299 137.195C196.623 137.448 196.238 138.331 196.561 138.887L197.655 140.775ZM200.315 142.757C200.546 142.705 200.679 141.977 200.611 141.13C200.543 140.283 200.3 139.638 200.068 139.69C199.836 139.742 199.704 140.471 199.772 141.318C199.84 142.165 200.083 142.809 200.315 142.757Z"/>
</mask>
<path fill-rule="evenodd" clip-rule="evenodd" d="M197.64 142.871C197.307 142.542 197.016 142.157 196.776 141.728C196.804 141.207 196.918 140.827 197.083 140.79C197.315 140.738 197.558 141.383 197.626 142.23C197.644 142.455 197.648 142.673 197.64 142.871ZM198.894 143.739C198.597 143.605 198.316 143.435 198.055 143.234C198.087 142.829 198.182 142.534 198.321 142.478C198.544 142.387 198.798 142.948 198.894 143.739ZM198.937 143.757C198.935 143.74 198.933 143.722 198.931 143.704C198.839 142.889 198.949 142.153 199.177 142.061C199.404 141.968 199.664 142.554 199.756 143.369C199.781 143.595 199.791 143.815 199.787 144.018C199.492 143.963 199.208 143.875 198.937 143.757ZM197.655 140.775C198.064 141.481 199.19 141.061 199.423 140.114L200.044 137.586C200.227 136.84 199.69 136.302 199.014 136.554L197.299 137.195C196.623 137.448 196.238 138.331 196.561 138.887L197.655 140.775ZM200.315 142.757C200.546 142.705 200.679 141.977 200.611 141.13C200.543 140.283 200.3 139.638 200.068 139.69C199.836 139.742 199.704 140.471 199.772 141.318C199.84 142.165 200.083 142.809 200.315 142.757Z" fill="#EF9C99"/>
<path d="M197.64 142.871L197.499 143.013L197.821 143.33L197.84 142.879L197.64 142.871ZM196.776 141.728L196.576 141.718L196.573 141.775L196.601 141.826L196.776 141.728ZM197.083 140.79L197.127 140.985L197.083 140.79ZM197.626 142.23L197.825 142.214L197.626 142.23ZM198.894 143.739L198.812 143.921L199.136 144.066L199.093 143.714L198.894 143.739ZM198.055 143.234L197.856 143.218L197.847 143.326L197.933 143.392L198.055 143.234ZM198.321 142.478L198.246 142.293L198.246 142.293L198.321 142.478ZM198.937 143.757L198.739 143.782L198.753 143.895L198.857 143.941L198.937 143.757ZM198.931 143.704L198.732 143.727L198.732 143.727L198.931 143.704ZM199.177 142.061L199.252 142.246L199.177 142.061ZM199.756 143.369L199.954 143.346L199.756 143.369ZM199.787 144.018L199.751 144.214L199.983 144.257L199.987 144.021L199.787 144.018ZM199.423 140.114L199.617 140.162L199.423 140.114ZM197.655 140.775L197.481 140.875L197.655 140.775ZM200.044 137.586L199.85 137.538L199.85 137.538L200.044 137.586ZM199.014 136.554L198.944 136.367L198.944 136.367L199.014 136.554ZM197.299 137.195L197.229 137.008L197.299 137.195ZM196.561 138.887L196.734 138.787L196.561 138.887ZM200.611 141.13L200.412 141.146L200.611 141.13ZM200.315 142.757L200.358 142.952L200.315 142.757ZM200.068 139.69L200.112 139.885L200.112 139.885L200.068 139.69ZM199.772 141.318L199.572 141.334L199.772 141.318ZM197.78 142.728C197.461 142.414 197.182 142.044 196.95 141.631L196.601 141.826C196.85 142.27 197.152 142.671 197.499 143.013L197.78 142.728ZM197.039 140.595C196.93 140.62 196.855 140.694 196.806 140.764C196.756 140.836 196.717 140.924 196.688 141.017C196.628 141.204 196.59 141.447 196.576 141.718L196.975 141.739C196.989 141.488 197.023 141.281 197.069 141.139C197.092 141.067 197.115 141.02 197.133 140.994C197.153 140.966 197.154 140.979 197.127 140.985L197.039 140.595ZM197.825 142.214C197.79 141.778 197.71 141.386 197.603 141.102C197.55 140.963 197.486 140.836 197.409 140.745C197.334 140.658 197.206 140.558 197.039 140.595L197.127 140.985C197.076 140.997 197.065 140.958 197.104 141.004C197.139 141.045 197.183 141.123 197.229 141.244C197.319 141.482 197.394 141.835 197.427 142.246L197.825 142.214ZM197.84 142.879C197.848 142.673 197.844 142.447 197.825 142.214L197.427 142.246C197.444 142.464 197.448 142.673 197.44 142.862L197.84 142.879ZM198.976 143.556C198.694 143.429 198.426 143.268 198.177 143.076L197.933 143.392C198.206 143.603 198.5 143.781 198.812 143.921L198.976 143.556ZM198.246 142.293C198.162 142.327 198.103 142.389 198.061 142.449C198.018 142.511 197.985 142.584 197.959 142.66C197.907 142.813 197.873 143.006 197.856 143.218L198.254 143.25C198.27 143.057 198.3 142.9 198.337 142.79C198.356 142.735 198.375 142.699 198.39 142.677C198.406 142.654 198.41 142.658 198.396 142.663L198.246 142.293ZM199.093 143.714C199.043 143.307 198.952 142.948 198.837 142.695C198.781 142.571 198.712 142.457 198.627 142.378C198.538 142.297 198.4 142.23 198.246 142.293L198.396 142.663C198.353 142.681 198.331 142.65 198.356 142.673C198.384 142.699 198.426 142.757 198.473 142.861C198.565 143.064 198.649 143.38 198.696 143.763L199.093 143.714ZM199.136 143.733C199.134 143.716 199.132 143.699 199.13 143.682L198.732 143.727C198.734 143.745 198.736 143.764 198.739 143.782L199.136 143.733ZM199.13 143.682C199.085 143.288 199.09 142.918 199.132 142.641C199.152 142.502 199.181 142.394 199.213 142.321C199.248 142.239 199.271 142.238 199.252 142.246L199.101 141.875C198.969 141.929 198.892 142.055 198.846 142.163C198.795 142.279 198.76 142.424 198.736 142.582C198.689 142.9 198.685 143.305 198.732 143.727L199.13 143.682ZM199.252 142.246C199.208 142.264 199.186 142.231 199.213 142.257C199.243 142.285 199.286 142.347 199.334 142.455C199.428 142.667 199.512 142.996 199.557 143.391L199.954 143.346C199.907 142.926 199.816 142.555 199.7 142.293C199.643 142.165 199.573 142.047 199.488 141.966C199.399 141.883 199.26 141.811 199.101 141.875L199.252 142.246ZM199.557 143.391C199.581 143.609 199.591 143.821 199.587 144.014L199.987 144.021C199.991 143.81 199.981 143.581 199.954 143.346L199.557 143.391ZM199.824 143.821C199.543 143.769 199.274 143.686 199.017 143.574L198.857 143.941C199.142 144.064 199.44 144.157 199.751 144.214L199.824 143.821ZM199.229 140.066C199.128 140.474 198.836 140.765 198.535 140.877C198.237 140.988 197.97 140.92 197.828 140.674L197.481 140.875C197.748 141.336 198.249 141.411 198.675 141.252C199.098 141.094 199.485 140.7 199.617 140.162L199.229 140.066ZM199.85 137.538L199.229 140.066L199.617 140.162L200.238 137.633L199.85 137.538ZM199.084 136.741C199.358 136.639 199.576 136.703 199.71 136.837C199.847 136.974 199.928 137.219 199.85 137.538L200.238 137.633C200.343 137.206 200.247 136.809 199.993 136.554C199.735 136.296 199.346 136.216 198.944 136.367L199.084 136.741ZM197.369 137.383L199.084 136.741L198.944 136.367L197.229 137.008L197.369 137.383ZM196.734 138.787C196.613 138.579 196.615 138.29 196.739 138.007C196.861 137.727 197.09 137.487 197.369 137.383L197.229 137.008C196.832 137.156 196.531 137.484 196.372 137.847C196.214 138.209 196.185 138.639 196.388 138.988L196.734 138.787ZM197.828 140.674L196.734 138.787L196.388 138.988L197.481 140.875L197.828 140.674ZM200.412 141.146C200.445 141.556 200.428 141.932 200.378 142.206C200.353 142.344 200.322 142.446 200.289 142.511C200.252 142.587 200.236 142.57 200.271 142.562L200.358 142.952C200.509 142.919 200.597 142.791 200.648 142.689C200.703 142.577 200.744 142.434 200.772 142.277C200.829 141.962 200.845 141.55 200.81 141.114L200.412 141.146ZM200.112 139.885C200.06 139.897 200.05 139.858 200.089 139.904C200.124 139.945 200.168 140.023 200.214 140.143C200.303 140.381 200.378 140.735 200.412 141.146L200.81 141.114C200.775 140.678 200.695 140.285 200.588 140.002C200.535 139.863 200.471 139.736 200.393 139.645C200.319 139.557 200.191 139.458 200.024 139.495L200.112 139.885ZM199.971 141.302C199.938 140.891 199.954 140.515 200.004 140.242C200.029 140.104 200.061 140.001 200.094 139.936C200.131 139.86 200.146 139.878 200.112 139.885L200.024 139.495C199.874 139.529 199.785 139.657 199.735 139.759C199.68 139.871 199.639 140.013 199.611 140.17C199.553 140.485 199.537 140.897 199.572 141.334L199.971 141.302ZM200.271 142.562C200.322 142.551 200.333 142.589 200.294 142.544C200.259 142.503 200.215 142.425 200.169 142.304C200.079 142.066 200.004 141.713 199.971 141.302L199.572 141.334C199.608 141.77 199.688 142.162 199.795 142.445C199.848 142.585 199.912 142.711 199.989 142.803C200.063 142.89 200.191 142.99 200.358 142.952L200.271 142.562Z" fill="#8C1B00" fill-opacity="0.58" mask="url(#path-45-inside-5_2062_504)"/>
<ellipse cx="6.03515" cy="3.04759" rx="6.03515" ry="3.04759" transform="matrix(0.935977 0.352062 -0.294481 0.955657 232.471 24)" fill="#D9D9D9"/>
<path d="M266.082 55.2056C265.072 56.4874 259.8 48.7026 254.863 43.9558C249.927 39.2091 245.793 36.2537 246.803 34.972C247.812 33.6903 253.583 34.5675 258.52 39.3142C263.456 44.061 267.092 53.9239 266.082 55.2056Z" fill="#D9D9D9"/>
<circle cx="221.5" cy="74.5" r="54.5" fill="#93A4FF" fill-opacity="0.42"/>
<circle cx="221.5" cy="74.5" r="54.35" stroke="#000C7C" stroke-opacity="0.72" stroke-width="0.3"/>
<path d="M133.41 103.031C132.688 102.129 127.915 89.9949 126 84L130.5 82.5C132.488 88.7254 135.727 100.442 135.712 101.753C135.697 103.065 135.387 103.563 135.233 103.648C134.926 103.818 134.132 103.933 133.41 103.031Z" fill="#8C1B00"/>
<path d="M143.02 101.587C142.446 100.603 139.164 86.1285 138.115 80.0986L142.5 79C143.589 85.2618 145.583 99.5381 145.396 100.78C145.21 102.023 144.846 102.441 144.688 102.495C144.371 102.602 143.594 102.572 143.02 101.587Z" fill="#8C1B00"/>
<path d="M136.982 98.6842C136.407 97.9038 134.099 86.574 133.046 81.5024L136.5 80.5C137.594 85.7666 139.551 96.6177 139.364 97.7099C139.178 98.802 138.813 99.205 138.655 99.27C138.337 99.3999 137.558 99.4646 136.982 98.6842Z" fill="#8C1B00"/>
<defs>
<filter id="filter0_d_2062_504" x="81.9746" y="104.574" width="14.7871" height="20.6211" filterUnits="userSpaceOnUse" color-interpolation-filters="sRGB">
<feFlood flood-opacity="0" result="BackgroundImageFix"/>
<feColorMatrix in="SourceAlpha" type="matrix" values="0 0 0 0 0 0 0 0 0 0 0 0 0 0 0 0 0 0 127 0" result="hardAlpha"/>
<feOffset dy="1"/>
<feGaussianBlur stdDeviation="2"/>
<feComposite in2="hardAlpha" operator="out"/>
<feColorMatrix type="matrix" values="0 0 0 0 0.54902 0 0 0 0 0.105882 0 0 0 0 0 0 0 0 1 0"/>
<feBlend mode="normal" in2="BackgroundImageFix" result="effect1_dropShadow_2062_504"/>
<feBlend mode="normal" in="SourceGraphic" in2="effect1_dropShadow_2062_504" result="shape"/>
</filter>
<filter id="filter1_d_2062_504" x="173" y="28.0435" width="95" height="99.4008" filterUnits="userSpaceOnUse" color-interpolation-filters="sRGB">
<feFlood flood-opacity="0" result="BackgroundImageFix"/>
<feColorMatrix in="SourceAlpha" type="matrix" values="0 0 0 0 0 0 0 0 0 0 0 0 0 0 0 0 0 0 127 0" result="hardAlpha"/>
<feOffset dx="-2" dy="2"/>
<feGaussianBlur stdDeviation="2"/>
<feComposite in2="hardAlpha" operator="out"/>
<feColorMatrix type="matrix" values="0 0 0 0 0.545098 0 0 0 0 0.145098 0 0 0 0 0.054902 0 0 0 0.32 0"/>
<feBlend mode="normal" in2="BackgroundImageFix" result="effect1_dropShadow_2062_504"/>
<feBlend mode="normal" in="SourceGraphic" in2="effect1_dropShadow_2062_504" result="shape"/>
</filter>
<filter id="filter2_d_2062_504" x="221.82" y="55.1355" width="35" height="35" filterUnits="userSpaceOnUse" color-interpolation-filters="sRGB">
<feFlood flood-opacity="0" result="BackgroundImageFix"/>
<feColorMatrix in="SourceAlpha" type="matrix" values="0 0 0 0 0 0 0 0 0 0 0 0 0 0 0 0 0 0 127 0" result="hardAlpha"/>
<feOffset dx="-2"/>
<feGaussianBlur stdDeviation="2"/>
<feComposite in2="hardAlpha" operator="out"/>
<feColorMatrix type="matrix" values="0 0 0 0 0.831373 0 0 0 0 0.294118 0 0 0 0 0.168627 0 0 0 1 0"/>
<feBlend mode="normal" in2="BackgroundImageFix" result="effect1_dropShadow_2062_504"/>
<feBlend mode="normal" in="SourceGraphic" in2="effect1_dropShadow_2062_504" result="shape"/>
</filter>
</defs>
</svg>
