<svg xmlns="http://www.w3.org/2000/svg" width="302" height="218" fill="none"><path fill="#F3885E" stroke="#8C1B00" stroke-width=".3" d="M191.409 58.49c-4.858 4.717-9.151 7.534-10.691 8.353l13.771 33.608c3.486-4.134 10.346-13.411 9.902-17.442-.554-5.04 3.349-22.19 4.797-26.902 1.157-3.77 6.83-8.426 9.521-10.283 3.312-3.45 3.837-6.61-2.564-6.637-8.001-.035-18.663 13.405-24.736 19.302Z"/><path fill="#8C1B00" d="M215.023 42.693c.196-.143 1.674-2.33 2.34-3.307l-.66-.247c-.692 1.016-2.088 3.102-2.138 3.32-.049.218-.001.304.03.32.061.03.232.057.428-.086ZM217.171 44.824c.211-.149 2.988-2.758 3.848-3.755l-.501-1c-.894 1.036-3.565 4.315-3.672 4.535-.107.219-.09.303-.068.318.043.03.183.05.393-.098ZM218.158 45.203c.185-.086 1.738-1.369 2.54-2.033l-.017-.695c-.833.69-2.642 2.337-2.753 2.497-.111.16-.108.23-.093.245.031.031.139.071.323-.014ZM216.098 43.945c.233-.173 2.621-3.201 3.42-4.374l-1.111-.155c-.829 1.218-2.777 3.998-2.84 4.258-.062.26-.007.36.028.379.071.036.271.065.503-.108Z"/><path fill="#F3885E" stroke="#8B250E" stroke-width=".5" d="M220.067 41.702c-12.421 7.63-14.983 19.71-15.48 22.834l9.46 10.04c.11-.356 6.304-7.886 8.544-11.5 2.8-4.518 16.037-7.215 21.956-8.195 5.92-.98 19.816-4.8 29.601-6.926 9.784-2.127 19-11.76 20.245-22.61 1.246-10.849-6.716-21.187-14.606-22.922-7.889-1.736-15.699 9.693-18.428 14.2-2.389 3.942-2.479 11.56-10.865 12.947-8.386 1.388-18.007 4.5-30.427 12.132Z"/><path fill="#F3885E" stroke="#8B250E" stroke-width=".5" d="M220.067 41.702c-12.421 7.63-14.983 19.71-15.48 22.834l9.46 10.04c.11-.356 6.304-7.886 8.544-11.5 2.8-4.518 16.037-7.215 21.956-8.195 5.92-.98 19.816-4.8 29.601-6.926 9.784-2.127 19-11.76 20.245-22.61 1.246-10.849-6.716-21.187-14.606-22.922-7.889-1.736-15.699 9.693-18.428 14.2-2.389 3.942-2.479 11.56-10.865 12.947-8.386 1.388-18.007 4.5-30.427 12.132Z"/><g filter="url(#a)"><path stroke="#8C1B00" stroke-width=".2" d="M204.538 63.584c.394-.065 9.005 6.492 10.008 9.991"/></g><path fill="#8B250E" d="m262.495 14.534 19.526 29.983 3.498-2.504-20.027-30.982-2.997 3.502ZM269.488 6.527l20.526 29.983 2.496-4.503-18.525-28.984-4.497 3.504ZM258.004 24.037l14.021 24.488 6.368-1.717L260 19.535l-.998 3.001-.998 1.501Z"/><path fill="#F3885E" stroke="#8B250E" stroke-width=".3" d="m210.129 67.998.006.008.007.008c8.857 9.008 11.136 22.838 7.623 37.942-3.512 15.103-12.811 31.457-27.07 45.476-7.109 6.989-20.404 12.627-35.25 16.895-14.839 4.266-31.2 7.157-44.414 8.665-6.607.755-12.425 1.163-16.872 1.226-2.223.031-4.1-.024-5.561-.165-1.469-.142-2.492-.369-3.026-.668-.267-.149-.376-.296-.395-.428-.019-.131.044-.309.275-.541.462-.464 1.482-1.03 3.165-1.693 3.353-1.32 9.245-2.991 18.268-5.011l.263-.059-.189-.193c-2.238-2.276-5.154-4.401-8.344-6.485-1.862-1.217-3.823-2.424-5.8-3.64a379.643 379.643 0 0 1-4.214-2.619c-6.713-4.255-12.924-8.796-15.516-14.521-1.294-2.856-1.688-6.009-.789-9.578.9-3.573 3.1-7.569 7.007-12.102 7.816-9.068 22.443-20.252 47.073-34.45 5.02-2.894 9.923-5.867 14.69-8.757 3.595-2.18 7.113-4.313 10.546-6.33 7.994-4.697 15.545-8.777 22.601-11.4 7.057-2.624 13.606-3.786 19.602-2.663 5.99 1.123 11.446 4.53 16.314 11.083Z"/><path fill="#F3885E" stroke="#8C1B00" stroke-width=".3" d="M87.07 181.729c1.385-1.612 11.659-20.537 11.817-21.48l23.131 2.535c-3.723 4.581-11.447 14.119-12.565 15.625-1.396 1.883-21.085 23.903-27.547 19.916-6.462-3.987 3.613-14.793 5.163-16.596Z"/><path fill="#8C1B00" d="M85.358 195.62c-.182.137-1.53 2.21-2.137 3.137l.623.222c.631-.963 1.904-2.941 1.947-3.147.043-.205-.004-.285-.033-.299-.058-.028-.219-.051-.4.087ZM83.304 193.651c-.196.143-1.951 2.26-2.74 3.208l.38.492c.82-.984 2.572-3.291 2.668-3.498.097-.207.08-.286.06-.299-.042-.027-.173-.046-.368.097ZM82.372 193.31c-.172.083-1.82 1.502-2.56 2.137l.242.459c.769-.659 2.436-2.232 2.538-2.383.101-.151.097-.218.082-.232-.029-.028-.13-.064-.302.019ZM84.386 194.493c-.206.171-1.831 2.668-2.563 3.785l.65.218c.76-1.161 2.296-3.543 2.36-3.784.063-.241.02-.331-.01-.346-.06-.029-.23-.044-.437.127Z"/><path fill="#F3885E" d="M226.615 72.596c-7.422 2.998-13.359 4.228-15.4 4.468l-.59 40.83c5.671-2.939 16.05-10.567 18.733-14.329 3.212-4.506 13.834-21.95 17.568-26.316 2.987-3.492 11.261-6.098 15.025-6.964 2.971-1.582 7.189-5.396.284-8.001-8.631-3.257-26.342 6.564-35.62 10.312Z"/><path stroke="#8C1B00" stroke-width=".3" d="M210.626 117.894c5.671-2.939 16.05-10.567 18.732-14.329 3.213-4.506 13.835-21.95 17.569-26.316 2.987-3.492 11.261-6.098 15.024-6.965 2.972-1.58 7.19-5.395.285-8-8.632-3.257-26.342 6.564-35.62 10.312-3.355 1.492-11.365 4.478-16.565 4.483"/><path fill="#8C1B00" d="M261.033 64.678c.219.01 2.49-.728 3.51-1.055l-.327-.569c-1.058.34-3.216 1.053-3.373 1.184-.158.131-.172.222-.16.252.026.058.131.178.35.188ZM261.348 67.504c.233.014 3.028-.246 4.195-.473l.499-1c-1.212.235-4.6 1.022-4.799 1.12-.198.099-.234.17-.227.194.014.047.1.144.332.159ZM261.831 68.36c.178.046 1.994.016 2.933-.002l.379-.52c-.974.018-3.176.166-3.344.218-.168.052-.206.106-.204.126.005.04.058.133.236.179ZM261.087 66.23c.261.008 3.63-.977 4.852-1.37l-.677-.602c-1.27.408-4.206 1.306-4.396 1.46-.191.154-.209.261-.194.295.03.068.154.207.415.216Z"/><path fill="#F3885E" d="M106.96 190.447c1.685-1.78 14.652-21.25 14.948-22.328l19.719-.017c-4.389 4.436-15.643 22.063-16.98 23.551-1.67 1.86-19.403 23.599-25.274 17.116-5.87-6.483 5.868-16.506 7.587-18.322Z"/><path stroke="#8C1B00" stroke-width=".3" d="M121.908 168.119c-.296 1.078-13.263 20.548-14.948 22.328-1.719 1.816-13.457 11.839-7.587 18.322 5.871 6.483 23.604-15.256 25.274-17.116 5.16-7.338 15.78-23.014 16.977-27.015"/><path fill="#FFE2C8" d="M165.355 140.372c-13.053 10.025-14.48 22.012-12.475 28.511 2.499-1.002 3.977-.956 11.762-3.764 6.263-2.26 13.995-5.513 19.492-9.017 6.996-4.461 14.802-13.631 15.488-14.514 3.496-4.503 8.489-12.007 9.986-15.508.499-1.001-3.266-1.744-13.264.265-12.896 2.591-15.998 2.514-30.989 14.027Z"/><path fill="#8C1B00" d="M103.293 206.945c-.195.117-1.752 2.038-2.453 2.897l.597.285c.728-.892 2.201-2.726 2.265-2.925.064-.2.025-.284-.002-.301-.054-.035-.212-.074-.407.044ZM101.456 204.772c-.209.122-2.176 2.044-3.06 2.904l.327.53c.918-.893 2.902-3.004 3.019-3.2.118-.197.109-.277.09-.292-.038-.031-.167-.063-.376.058ZM100.564 204.335c-.179.065-1.966 1.304-2.768 1.858l.192.482c.833-.575 2.656-1.965 2.773-2.104.116-.14.119-.207.106-.222-.026-.032-.123-.078-.303-.014ZM102.444 205.723c-.224.148-2.101 2.461-2.946 3.496l.624.284c.877-1.074 2.654-3.282 2.743-3.516.088-.233.054-.327.026-.344-.056-.036-.224-.069-.447.08Z"/><g filter="url(#b)"><mask id="c" fill="#fff"><path fill-rule="evenodd" d="M35.561 118.303a2 2 0 0 1 1.67-2.819l18.302-1.388c5.577-6.144 12.122-10.77 19.014-13.789l1.802-16.091c.17-1.53 1.934-2.301 3.174-1.388l18.29 13.48c7.938.736 15.424 3.733 21.508 9.124 17.361 15.384 16.737 44.441-1.394 64.902-18.13 20.461-46.902 24.577-64.263 9.194-12.003-10.636-15.41-27.809-10.376-44.158l-7.727-17.067Z" clip-rule="evenodd"/></mask><path fill="#F3885E" fill-rule="evenodd" d="M35.561 118.303a2 2 0 0 1 1.67-2.819l18.302-1.388c5.577-6.144 12.122-10.77 19.014-13.789l1.802-16.091c.17-1.53 1.934-2.301 3.174-1.388l18.29 13.48c7.938.736 15.424 3.733 21.508 9.124 17.361 15.384 16.737 44.441-1.394 64.902-18.13 20.461-46.902 24.577-64.263 9.194-12.003-10.636-15.41-27.809-10.376-44.158l-7.727-17.067Z" clip-rule="evenodd"/><path fill="#8C1B00" d="m37.232 115.484.022.299-.022-.299Zm-1.67 2.819-.274.124.273-.124Zm19.971-4.207.222.201-.08.089-.12.009-.022-.299Zm19.014-13.789.298.034-.019.172-.158.069-.12-.275Zm1.802-16.091.298.033-.299-.033Zm3.174-1.388.178-.241-.178.241Zm18.29 13.48-.028.298-.083-.008-.067-.05.178-.24ZM43.288 135.37l.274-.124.046.104-.033.108-.287-.088Zm-6.034-19.587a1.7 1.7 0 0 0-1.42 2.396l-.546.248a2.3 2.3 0 0 1 1.921-3.242l.045.598Zm18.302-1.388-18.302 1.388-.045-.598 18.301-1.389.046.599Zm-.245-.501c5.605-6.175 12.185-10.826 19.116-13.861l.24.549c-6.852 3.002-13.363 7.602-18.912 13.715l-.444-.403Zm18.938-13.62 1.801-16.092.597.067-1.802 16.092-.596-.067Zm1.801-16.092c.197-1.76 2.225-2.646 3.65-1.595l-.355.483c-1.054-.777-2.553-.121-2.698 1.18l-.597-.068Zm3.65-1.595 18.291 13.479-.356.483-18.29-13.48.356-.482Zm18.141 13.421c7.996.743 15.543 3.762 21.679 9.199l-.398.449c-6.033-5.345-13.457-8.318-21.337-9.05l.056-.597Zm21.679 9.199c17.518 15.523 16.84 44.777-1.368 65.326l-.45-.398c18.053-20.373 18.624-49.234 1.42-64.479l.398-.449Zm-1.368 65.326c-18.21 20.549-47.169 24.742-64.687 9.219l.398-.449c17.204 15.244 45.787 11.205 63.839-9.168l.45.398Zm-64.687 9.219c-12.11-10.73-15.524-28.034-10.464-44.47l.574.176c-5.006 16.261-1.61 33.303 10.288 43.845l-.398.449Zm-17.63-61.573 7.727 17.067-.547.248-7.727-17.067.546-.248Z" mask="url(#c)"/></g><g filter="url(#d)" transform="scale(-1 1) rotate(35.329 -211.137 -97.474)"><circle cx="13.5" cy="13.5" r="13.5" fill="#EDDFD2"/><circle cx="13.5" cy="13.5" r="13.35" stroke="#8C1B00" stroke-width=".3"/></g><g filter="url(#e)"><path fill="#EDDFD2" d="M52.59 155.861c5.58 4.945 13.963 4.597 18.725-.776 4.761-5.374 4.098-13.738-1.483-18.683-5.58-4.945-13.963-4.597-18.725.776-4.762 5.374-4.098 13.739 1.482 18.683Z"/><path stroke="#8C1B00" stroke-width=".3" d="M52.689 155.749c5.522 4.894 13.81 4.544 18.514-.764 4.703-5.307 4.052-13.577-1.47-18.471-5.522-4.893-13.81-4.544-18.514.764-4.703 5.308-4.053 13.578 1.47 18.471Z"/></g><circle cx="10.5" cy="10.5" r="10.5" fill="#2B0000" transform="scale(-1 1) rotate(48.456 -164.973 -43.806)"/><circle cx="10.5" cy="10.5" r="10.5" fill="#2B0000" transform="scale(-1 1) rotate(48.456 -174.585 1.304)"/><mask id="f" fill="#fff"><path fill-rule="evenodd" d="M77.513 87.073c.078-.88 1.18-1.229 1.758-.555l8.746 10.21c-3.7.603-7.623 1.637-11.631 3.104l1.127-12.759Z" clip-rule="evenodd"/></mask><path fill="#EF9C99" fill-rule="evenodd" d="M77.513 87.073c.078-.88 1.18-1.229 1.758-.555l8.746 10.21c-3.7.603-7.623 1.637-11.631 3.104l1.127-12.759Z" clip-rule="evenodd"/><path fill="#8C1B00" fill-opacity=".58" d="m79.27 86.518.228-.195-.227.195Zm-1.757.555-.3-.026.3.026Zm10.504 9.656.228-.196.347.406-.527.086-.048-.297Zm-11.631 3.103.103.281-.444.163.042-.47.299.026Zm2.657-13.119c-.407-.475-1.177-.225-1.232.387l-.597-.053c.101-1.15 1.537-1.596 2.284-.724l-.455.39Zm8.746 10.21-8.746-10.21.455-.39 8.747 10.21-.456.39Zm.276.102c-3.68.598-7.584 1.627-11.576 3.088l-.206-.563c4.024-1.473 7.966-2.512 11.686-3.118l.096.593ZM77.811 87.1l-1.126 12.758-.598-.053 1.127-12.758.597.053Z" mask="url(#f)"/><mask id="g" fill="#fff"><path fill-rule="evenodd" d="M38.565 116.803c-.828-.255-1.567.587-1.205 1.372l6.575 14.271c1.377-3.73 4.133-7.699 7.974-11.538l-13.344-4.105Z" clip-rule="evenodd"/></mask><path fill="#EF9C99" fill-rule="evenodd" d="M38.565 116.803c-.828-.255-1.567.587-1.205 1.372l6.575 14.271c1.377-3.73 4.133-7.699 7.974-11.538l-13.344-4.105Z" clip-rule="evenodd"/><path fill="#8C1B00" fill-opacity=".58" d="m37.36 118.175.272-.126-.272.126Zm1.205-1.372-.089.287.089-.287Zm5.37 15.643-.272.125.303.658.25-.679-.28-.104Zm7.974-11.538.212.212.353-.352-.476-.147-.088.287Zm-14.277-2.859a.7.7 0 0 1 .844-.959l.177-.574c-1.073-.33-2.036.763-1.566 1.784l.545-.251Zm6.576 14.271-6.576-14.271-.545.251 6.576 14.271.545-.251Zm.009.23c1.356-3.677 4.082-7.61 7.904-11.43l-.424-.424c-3.861 3.858-6.647 7.863-8.043 11.646l.563.208Zm-5.74-15.46 13.344 4.105.177-.574-13.345-4.105-.177.574Z" mask="url(#g)"/><path fill="#8C1B00" d="M76.037 114.017c-.095-.761-5.037-7.462-7.129-10.5l-1.369.792-1.7 1.165c2.172 3.154 7.699 9.438 8.376 9.798.678.36 1.09.283 1.212.199a1.58 1.58 0 0 0 .61-1.454ZM71.375 116.768c-.151-.715-5.202-7.384-7.356-10.235l-1.912 1.646c2.236 2.959 7.088 9.427 7.731 9.765.644.338 1.01.265 1.112.187.205-.157.577-.649.425-1.363ZM67.635 120.288c-.173-.727-5.03-7.649-7.29-10.556l-1.097.925-1.322 1.016c2.346 3.019 7.523 9.461 8.184 9.807.661.346 1.03.273 1.132.194.203-.159.566-.659.393-1.386ZM63.89 162.014c-1.107.019-13.108 4.924-18.3 7.021l1.957 3.07c5.391-2.178 16.46-7.04 17.27-7.794.81-.755.888-1.25.827-1.403-.124-.306-.648-.914-1.755-.894ZM67.895 168.48c-1.02.259-10.61 7.167-14.877 10.309l1.495 1.327 1.12.996c4.433-3.263 13.159-9.728 13.714-10.629.556-.9.501-1.393.404-1.526-.193-.267-.836-.737-1.856-.477ZM62.717 166.915c-.92.05-10.038 4.73-14.004 6.89L51 176.501c4.119-2.244 12.493-6.918 13.037-7.666.544-.747.379-.966.3-1.111-.157-.291-.7-.859-1.621-.809ZM114.861 121.885c.337-.765 7.785-6.259 10.948-8.698l1.488 2.898c-3.285 2.532-10.063 7.632-10.893 7.767-.831.136-1.245-.093-1.347-.224-.206-.262-.533-.978-.196-1.743ZM118.803 128.4c.506-.568 7.804-3.308 11.549-4.507l.918 3.486c-3.888 1.246-10.433 3.314-11.309 3.189-.877-.126-1.25-.446-1.328-.591-.154-.289-.336-1.009.17-1.577ZM119.068 123.872c.307-.617 6.673-3.998 9.531-5.541l1.25 3.113c-2.967 1.602-8.656 4.55-9.404 4.503-.748-.047-1.118-.335-1.21-.474-.184-.276-.474-.984-.167-1.601Z"/><path fill="#8C1B00" fill-rule="evenodd" d="M89.942 151.919a.507.507 0 0 0-.01.103v.04a.49.49 0 0 0 .013.122l.497 5.662a.472.472 0 0 0 .539.431l.027-.003a.53.53 0 0 0 .451-.566l-.454-5.182 5.2-.172a.53.53 0 0 0 .506-.517v-.027a.473.473 0 0 0-.492-.484l-5.59.186a.489.489 0 0 0-.216-.019l-.027.003a.541.541 0 0 0-.127.035l-3.79-3.359-.332.375 3.805 3.372Z" clip-rule="evenodd"/><path fill="#EF9C99" d="M86.177 148.97a.5.5 0 0 0 .603-.505l-.205-6.75a.5.5 0 0 0-.82-.369l-6.403 5.354a.5.5 0 0 0 .217.873l6.608 1.397Z"/><path stroke="#8C1B00" stroke-opacity=".79" stroke-width=".3" d="M86.208 148.823a.35.35 0 0 0 .422-.353l-.205-6.751a.35.35 0 0 0-.575-.257l-6.402 5.354a.35.35 0 0 0 .152.61l6.608 1.397Z"/><ellipse cx="6.99" cy="3.238" fill="#D9D9D9" rx="6.99" ry="3.238" transform="matrix(.97476 -.22324 .21759 .97604 62.55 78.316)"/><path fill="#D9D9D9" d="M110.052 87.353c-.39 1.75-9.746-2.452-17.221-4.044-7.475-1.592-13.22-1.986-12.829-3.737.39-1.75 6.766-4.195 14.242-2.603 7.475 1.592 16.198 8.633 15.808 10.384Z"/><ellipse cx="79.141" cy="135.706" fill="#93A4FF" fill-opacity=".42" rx="63.907" ry="57.295" transform="rotate(-64.899 79.141 135.706)"/><path stroke="#000C7C" stroke-opacity=".72" stroke-width=".3" d="M106.188 77.97c28.566 13.383 39.646 50.078 24.702 81.978-14.944 31.901-50.23 46.876-78.795 33.494-28.567-13.383-39.647-50.077-24.702-81.978 14.944-31.9 50.228-46.875 78.795-33.493Z"/><path fill="#8C1B00" d="M175.562 101.826c-.276-2.124-8.492-26.982-12.308-37.617l-4.264 2.484c3.963 11.044 12.758 34.329 13.891 36.132 1.134 1.804 1.774 2.121 1.953 2.055.358-.134 1.003-.931.728-3.054ZM168.327 107.296c-.564-2.05-11.826-26.884-16.781-36.166l-4.498 2.504c5.146 9.639 17.821 34.388 19.087 35.765 1.265 1.377 1.874 1.441 2.02 1.301.292-.281.736-1.354.172-3.404ZM169.129 97.933c-.272-1.778-8.404-21.99-12.022-30.304l-4.183 2.179c3.758 8.634 12.665 28.35 13.729 29.642 1.065 1.292 1.661 1.413 1.826 1.312.33-.203.922-1.052.65-2.83Z"/><defs><filter id="a" width="18.121" height="18.119" x="200.521" y="60.483" color-interpolation-filters="sRGB" filterUnits="userSpaceOnUse"><feFlood flood-opacity="0" result="BackgroundImageFix"/><feColorMatrix in="SourceAlpha" result="hardAlpha" values="0 0 0 0 0 0 0 0 0 0 0 0 0 0 0 0 0 0 127 0"/><feOffset dy="1"/><feGaussianBlur stdDeviation="2"/><feComposite in2="hardAlpha" operator="out"/><feColorMatrix values="0 0 0 0 0.54902 0 0 0 0 0.105882 0 0 0 0 0 0 0 0 1 0"/><feBlend in2="BackgroundImageFix" result="effect1_dropShadow_2062_422"/><feBlend in="SourceGraphic" in2="effect1_dropShadow_2062_422" result="shape"/></filter><filter id="b" width="104.562" height="114.398" x="35.381" y="78.436" color-interpolation-filters="sRGB" filterUnits="userSpaceOnUse"><feFlood flood-opacity="0" result="BackgroundImageFix"/><feColorMatrix in="SourceAlpha" result="hardAlpha" values="0 0 0 0 0 0 0 0 0 0 0 0 0 0 0 0 0 0 127 0"/><feOffset dx="4"/><feGaussianBlur stdDeviation="2"/><feComposite in2="hardAlpha" operator="out"/><feColorMatrix values="0 0 0 0 0.545098 0 0 0 0 0.145098 0 0 0 0 0.054902 0 0 0 0.32 0"/><feBlend in2="BackgroundImageFix" result="effect1_dropShadow_2062_422"/><feBlend in="SourceGraphic" in2="effect1_dropShadow_2062_422" result="shape"/></filter><filter id="d" width="35.004" height="35.002" x="76.541" y="103.464" color-interpolation-filters="sRGB" filterUnits="userSpaceOnUse"><feFlood flood-opacity="0" result="BackgroundImageFix"/><feColorMatrix in="SourceAlpha" result="hardAlpha" values="0 0 0 0 0 0 0 0 0 0 0 0 0 0 0 0 0 0 127 0"/><feOffset dx="2" dy="-2"/><feGaussianBlur stdDeviation="2"/><feComposite in2="hardAlpha" operator="out"/><feColorMatrix values="0 0 0 0 0.831373 0 0 0 0 0.294118 0 0 0 0 0.168627 0 0 0 1 0"/><feBlend in2="BackgroundImageFix" result="effect1_dropShadow_2062_422"/><feBlend in="SourceGraphic" in2="effect1_dropShadow_2062_422" result="shape"/></filter><filter id="e" width="34.566" height="34.445" x="45.928" y="126.909" color-interpolation-filters="sRGB" filterUnits="userSpaceOnUse"><feFlood flood-opacity="0" result="BackgroundImageFix"/><feColorMatrix in="SourceAlpha" result="hardAlpha" values="0 0 0 0 0 0 0 0 0 0 0 0 0 0 0 0 0 0 127 0"/><feOffset dx="2" dy="-2"/><feGaussianBlur stdDeviation="2"/><feComposite in2="hardAlpha" operator="out"/><feColorMatrix values="0 0 0 0 0.831373 0 0 0 0 0.294118 0 0 0 0 0.168627 0 0 0 1 0"/><feBlend in2="BackgroundImageFix" result="effect1_dropShadow_2062_422"/><feBlend in="SourceGraphic" in2="effect1_dropShadow_2062_422" result="shape"/></filter></defs></svg>