<svg xmlns="http://www.w3.org/2000/svg" width="303" height="318" fill="none"><path fill="#F3885E" stroke="#8B250E" stroke-width=".5" d="M82.085 242.422c14.524-1.249 22.232-10.897 24.077-13.466l-11.59-9.882c-.259.269-1.532.886-5.155 3.112-4.53 2.782-17.57-.745-23.3-2.524-5.73-1.78-19.864-4.598-29.563-7.086-9.698-2.489-22.257 1.988-28.236 11.126-5.979 9.138-3.5 21.95 2.773 27.039 6.273 5.089 18.38-1.622 22.84-4.425 3.903-2.453 7.4-9.221 15.518-6.7 8.117 2.521 18.112 4.054 32.636 2.806Z"/><g filter="url(#a)"><path stroke="#8C1B00" stroke-width=".2" d="M104.465 231.047c-.382-.118-8.424-7.153-12.398-10.656"/></g><path fill="#8B250E" d="m38.905 242.101-2.35-29.525-4.445-.857 1.821 34.597 4.974-4.215ZM30.653 248.439l-2.332-36.326-5.516.905 1.26 38.087 6.588-2.666ZM48.175 239.221l-.967-23.86L41 213.433l2.255 26.031 2.384-.507 2.536.264Z"/><path fill="#F3885E" stroke="#8B250E" stroke-width=".5" d="M144.276 164.859c4.094 8.03 9.315 11.213 9.466 11.689l12.04-11.674c-3.162-.049-5.599-6.095-7.282-9.758-1.683-3.663-8.765-16.107-11.728-18.841-2.962-2.734-7.729-1.226-8.605 4.295-.876 5.521 1.965 16.16 6.109 24.289Z"/><path fill="#F3885E" stroke="#8B250E" stroke-width=".5" d="m231.324 193.677 5.904-30.779-17.485-7.569-40.467-12.566-14.565 13.277c-22.229 11.631-56.752 28.869-56.441 23.834.389-6.295-5.268-10.013-11.74-9.405-5.617.528-19.44 13.681-24.72 20.595 1.032-1.64 2.355-7.321-3.306-14.639-7.078-9.148-8.894 5.036-9.651 7.474-.757 2.438-1.413 14.689.21 17.866 1.624 3.177 4.276 3.365 12.997 5.539 6.977 1.739 12.992 6.351 15.127 8.44l23.502 20.129c-.36.601-1.168 2.418-1.514 4.876-.432 3.074 1.234 9.472 18.568 17.529 13.868 6.444 28.875 4.511 34.645 2.739 9.348-2.087 30.818-9.142 41.914-20.666 11.095-11.523 24.665-34.041 27.022-46.674Z"/><path fill="#FFE2C8" d="M173.385 214.943c8.102-5.861 24.158-25.671 27.717-37.131.593-1.91 1.259-6.415-2.732-9.749-3.991-3.333-11.377-7.198-12.958-7.165l-.032-.002c-2.081-.117-7.349-.413-10.717 1.041-4.232 1.827-16.354 12.199-22.019 13.581-5.665 1.382-40.135 16.143-41.437 22.021-1.302 5.879-1.431 8.121 6.784 15.385 9.668 8.546 17.552 7.545 28.321 8.271 10.769.727 18.97-.392 27.073-6.252Z"/><path fill="#F3885E" d="M150.937 214.589c3.32 1.45 6.323 4.93 7.409 6.489-.494 1.592-1.638 4.937-2.257 5.582-.774.807-15.627 1.43-17.06.985-1.146-.356-7.184-3.278-10.06-4.695.05-.159.643-1.057 2.619-3.375 2.471-2.897 3.574-3.078 5.6-4.544 2.025-1.465 5.813-1.859 6.916-2.04 1.103-.181 2.684-.214 6.833 1.598ZM125.463 214.008c1.792.976 1.965 3.228 1.827 4.233l-.774.806-3.82-1.186c-.477-.148-5.582-2.257-3.408-4.199 2.174-1.943 3.936-.872 6.175.346ZM190.737 181.4c-.843-4.031.94-8.085 2.34-9.221 2.24-1.818 5.813-1.86 7.097-.937l4.544 5.599c.889 2.196 2.702 6.808 2.847 7.691.181 1.103-2.043 8.265-4.185 11.789-1.713 2.819-5.664 1.382-7.426.311l-3.802-7.987c-.411-2.047-.573-3.214-1.415-7.245Z"/><path stroke="#8B250E" stroke-width=".5" d="M110.419 236.038c-.807-.774 2.462-14.598 5.995-19.307 3.521-4.691 5.514-4.093 7.404-3.506 1.947.605 3.329 2.619 3.376 5.801.039 2.545-2.327 11.062-4.252 15.039l6.248-11.783c3.683-5.19 12.449-12.073 21.039-7.717 10.737 5.446 11.627 12.584 3.34 24.261-6.629 9.341-12.023 9.813-12.711 9.247M205.174 206.621c-.131-.413-5.428-2.916-9.257-9.767-3.875-6.934-6.233-16.162-4.988-21.089 1.245-4.927 6.342-6.54 9.293-4.3 2.951 2.24 9.659 12.813 11.212 15.948 1.552 3.136 3.756 8.332 7.075 8.189"/><ellipse cx="1.5" cy="1" fill="#EF9C99" rx="1.5" ry="1" transform="scale(-1 1) rotate(-72.679 21.073 221.074)"/><path stroke="#8C1B00" stroke-opacity=".58" stroke-width=".2" d="M194.432 172.902c-.222.07-.392.271-.478.563-.086.292-.083.663.036 1.042.118.379.326.686.562.877.237.192.492.261.714.191.221-.069.392-.27.478-.562.085-.292.082-.663-.036-1.042s-.327-.686-.563-.877c-.237-.192-.491-.261-.713-.192Z"/><ellipse cx="1.5" cy="1" fill="#EF9C99" rx="1.5" ry="1" transform="scale(-1 1) rotate(-72.679 21.073 221.074)"/><path stroke="#8C1B00" stroke-opacity=".58" stroke-width=".2" d="M194.432 172.902c-.222.07-.392.271-.478.563-.086.292-.083.663.036 1.042.118.379.326.686.562.877.237.192.492.261.714.191.221-.069.392-.27.478-.562.085-.292.082-.663-.036-1.042s-.327-.686-.563-.877c-.237-.192-.491-.261-.713-.192Z"/><ellipse cx="1.5" cy="1" fill="#EF9C99" rx="1.5" ry="1" transform="scale(-1 1) rotate(-72.679 19.724 222.392)"/><path stroke="#8C1B00" stroke-opacity=".58" stroke-width=".2" d="M196.637 172.541c-.222.069-.392.27-.478.562-.086.292-.083.663.036 1.042.118.379.326.686.563.877.236.192.491.261.713.192.221-.07.392-.271.478-.563.085-.292.082-.663-.036-1.042s-.327-.686-.563-.877c-.237-.192-.491-.261-.713-.191Z"/><path fill="#EF9C99" d="M197.563 175.822a1 1 0 0 0-1.397.493l-1.985 4.738c-.335.8.438 1.618 1.256 1.329l6.503-2.296c.818-.289.906-1.411.142-1.823l-4.519-2.441Z"/><path stroke="#8C1B00" stroke-opacity=".58" stroke-width=".3" d="M197.492 175.954a.85.85 0 0 0-1.188.419l-1.984 4.738a.85.85 0 0 0 1.067 1.13l6.503-2.297a.85.85 0 0 0 .121-1.549l-4.519-2.441Z"/><ellipse cx="1.543" cy="1" fill="#EF9C99" rx="1.543" ry="1" transform="scale(-1 1) rotate(-76.955 10.163 214.608)"/><path stroke="#8C1B00" stroke-opacity=".58" stroke-width=".2" d="M199.553 173.384c-.225.052-.409.243-.516.536-.105.293-.128.674-.035 1.073.092.399.28.732.504.948.224.217.473.307.698.255.225-.052.41-.243.516-.537.106-.292.128-.673.035-1.072-.092-.399-.28-.732-.503-.948-.225-.217-.474-.307-.699-.255Z"/><ellipse cx="1.543" cy="1" fill="#EF9C99" rx="1.543" ry="1" transform="scale(-1 1) rotate(-76.955 14.904 211.278)"/><path stroke="#8C1B00" stroke-opacity=".58" stroke-width=".2" d="M192.637 175.425c-.225.052-.409.243-.516.536-.105.292-.128.674-.035 1.073.092.399.28.731.504.947.224.217.473.308.698.256.225-.052.41-.244.516-.537.106-.292.128-.673.035-1.073-.092-.399-.28-.731-.503-.947-.225-.217-.474-.308-.699-.255Z"/><ellipse cx="1.5" cy="1" fill="#EF9C99" rx="1.5" ry="1" transform="scale(1 -1) rotate(68.311 221.354 -18.434)"/><path stroke="#8C1B00" stroke-opacity=".58" stroke-width=".2" d="M122.562 214.24c-.215-.086-.474-.037-.725.137-.25.172-.481.462-.628.832-.147.369-.178.738-.115 1.036.063.298.218.511.434.597.216.086.475.037.725-.136.25-.173.482-.463.628-.832.147-.369.178-.739.115-1.036-.063-.298-.218-.512-.434-.598Z"/><ellipse cx="1.5" cy="1" fill="#EF9C99" rx="1.5" ry="1" transform="scale(1 -1) rotate(68.311 221.354 -18.434)"/><path stroke="#8C1B00" stroke-opacity=".58" stroke-width=".2" d="M122.562 214.24c-.215-.086-.474-.037-.725.137-.25.172-.481.462-.628.832-.147.369-.178.738-.115 1.036.063.298.218.511.434.597.216.086.475.037.725-.136.25-.173.482-.463.628-.832.147-.369.178-.739.115-1.036-.063-.298-.218-.512-.434-.598Z"/><ellipse cx="1.5" cy="1" fill="#EF9C99" rx="1.5" ry="1" transform="scale(1 -1) rotate(68.311 222.862 -17.338)"/><path stroke="#8C1B00" stroke-opacity=".58" stroke-width=".2" d="M124.531 214.951c-.216-.086-.475-.037-.725.136-.251.173-.482.463-.628.832-.147.369-.179.739-.115 1.036.063.298.218.512.433.598.216.086.475.037.726-.137.25-.172.481-.463.628-.832.147-.369.178-.738.115-1.036-.063-.298-.218-.511-.434-.597Z"/><path fill="#EF9C99" d="M123.055 217.899a1.001 1.001 0 0 0-1.357-.561l-4.276 1.973c-.793.365-.77 1.499.036 1.832l5.914 2.444c.806.333 1.622-.454 1.319-1.272l-1.636-4.416Z"/><path stroke="#8C1B00" stroke-opacity=".58" stroke-width=".3" d="M122.914 217.951a.85.85 0 0 0-1.153-.476l-4.277 1.972a.85.85 0 0 0 .032 1.558l5.913 2.443a.85.85 0 0 0 1.122-1.081l-1.637-4.416Z"/><ellipse cx="1.543" cy="1" fill="#EF9C99" rx="1.543" ry="1" transform="scale(1 -1) rotate(64.035 239.6 -9.865)"/><path stroke="#8C1B00" stroke-opacity=".58" stroke-width=".2" d="M126.239 217.838c-.208-.101-.471-.069-.739.093-.266.16-.523.442-.702.811-.18.368-.243.745-.206 1.053.038.31.175.537.383.638.207.101.471.069.738-.092.266-.161.523-.443.703-.811.179-.369.243-.745.205-1.054-.038-.309-.175-.537-.382-.638Z"/><ellipse cx="1.543" cy="1" fill="#EF9C99" rx="1.543" ry="1" transform="scale(1 -1) rotate(64.035 234.056 -13.806)"/><path stroke="#8C1B00" stroke-opacity=".58" stroke-width=".2" d="M119.578 215.07c-.207-.101-.471-.068-.738.093-.266.16-.523.442-.703.811-.179.368-.242.745-.205 1.053.038.31.175.537.383.638.207.102.471.069.738-.092.266-.161.523-.443.703-.811.179-.369.243-.745.205-1.054-.038-.309-.175-.537-.383-.638Z"/><ellipse cx="1.5" cy="1" fill="#EF9C99" rx="1.5" ry="1" transform="scale(-1 1) rotate(-72.679 24.35 167.742)"/><path stroke="#8C1B00" stroke-opacity=".58" stroke-width=".2" d="M141.217 138.576c-.222.069-.392.27-.478.563-.086.291-.083.662.036 1.042.118.379.326.686.563.877.236.192.491.26.713.191.222-.069.392-.27.478-.562.085-.292.082-.663-.036-1.042a1.84 1.84 0 0 0-.563-.878c-.237-.191-.491-.26-.713-.191Z"/><ellipse cx="1.5" cy="1" fill="#EF9C99" rx="1.5" ry="1" transform="scale(-1 1) rotate(-72.679 24.35 167.742)"/><path stroke="#8C1B00" stroke-opacity=".58" stroke-width=".2" d="M141.217 138.576c-.222.069-.392.27-.478.563-.086.291-.083.662.036 1.042.118.379.326.686.563.877.236.192.491.26.713.191.222-.069.392-.27.478-.562.085-.292.082-.663-.036-1.042a1.84 1.84 0 0 0-.563-.878c-.237-.191-.491-.26-.713-.191Z"/><ellipse cx="1.5" cy="1" fill="#EF9C99" rx="1.5" ry="1" transform="scale(-1 1) rotate(-72.679 23 169.06)"/><path stroke="#8C1B00" stroke-opacity=".58" stroke-width=".2" d="M143.424 138.214c-.222.07-.392.271-.478.563-.086.292-.082.663.036 1.042s.326.686.563.877c.236.192.491.261.713.191.222-.069.392-.27.478-.562.085-.292.082-.663-.036-1.042s-.326-.686-.563-.877c-.237-.192-.491-.261-.713-.192Z"/><path fill="#EF9C99" d="M143.94 141.707a1 1 0 0 0-1.397.46l-2.089 4.595c-.361.793.395 1.636 1.223 1.364l6.5-2.14c.828-.273.935-1.4.173-1.824l-4.41-2.455Z"/><path stroke="#8C1B00" stroke-opacity=".58" stroke-width=".3" d="M143.867 141.839a.85.85 0 0 0-1.187.39l-2.09 4.595a.85.85 0 0 0 1.04 1.159l6.5-2.14a.85.85 0 0 0 .147-1.55l-4.41-2.454Z"/><ellipse cx="1.543" cy="1" fill="#EF9C99" rx="1.543" ry="1" transform="scale(-1 1) rotate(-76.955 15.176 163.968)"/><path stroke="#8C1B00" stroke-opacity=".58" stroke-width=".2" d="M146.338 139.058c-.225.052-.409.243-.515.536-.106.293-.128.674-.036 1.073.092.399.28.732.504.948.224.216.474.307.699.255.225-.052.409-.243.515-.537.106-.292.128-.673.036-1.072-.093-.4-.281-.732-.504-.948-.225-.217-.474-.307-.699-.255Z"/><ellipse cx="1.543" cy="1" fill="#EF9C99" rx="1.543" ry="1" transform="scale(-1 1) rotate(-76.955 19.918 160.637)"/><path stroke="#8C1B00" stroke-opacity=".58" stroke-width=".2" d="M139.422 141.098c-.225.053-.409.244-.515.537-.106.292-.128.673-.036 1.073.092.399.28.731.504.947.224.217.474.308.699.256.225-.053.409-.244.515-.537.106-.292.128-.674.036-1.073-.093-.399-.281-.731-.504-.947-.225-.217-.474-.308-.699-.256Z"/><mask id="b" fill="#fff"><path fill-rule="evenodd" d="m61.012 176.786-.982 2.846c.13.044.267.069.41.071.77.007 1.387-.675 1.378-1.524-.006-.61-.335-1.141-.806-1.393Z" clip-rule="evenodd"/></mask><path fill="#EF9C99" fill-rule="evenodd" d="m61.012 176.786-.982 2.846c.13.044.267.069.41.071.77.007 1.387-.675 1.378-1.524-.006-.61-.335-1.141-.806-1.393Z" clip-rule="evenodd"/><path fill="#8C1B00" fill-opacity=".58" d="m61.012 176.786-.188-.067.076-.22.206.111-.094.176Zm-.982 2.846-.064.189-.19-.066.065-.19.189.067Zm.41.071v.2-.2Zm1.378-1.524h.2-.2Zm-.617-1.326-.982 2.845-.378-.133.983-2.846.377.134Zm-1.108 2.589c.11.038.227.059.347.06v.401a1.497 1.497 0 0 1-.474-.082l.127-.379Zm.347.06c.64.007 1.186-.566 1.178-1.322l.4-.001c.01.941-.68 1.732-1.578 1.724v-.401Zm1.178-1.322c-.005-.541-.296-1.002-.699-1.218l.187-.352c.539.289.905.889.912 1.569l-.4.001Z" mask="url(#b)"/><mask id="c" fill="#fff"><path fill-rule="evenodd" d="M61.644 180.977a1 1 0 0 0-1.456-.385l-.489.336-1.134 5.642 4.69 1.241c.83.22 1.518-.644 1.128-1.416l-2.74-5.418Z" clip-rule="evenodd"/></mask><path fill="#EF9C99" fill-rule="evenodd" d="M61.644 180.977a1 1 0 0 0-1.456-.385l-.489.336-1.134 5.642 4.69 1.241c.83.22 1.518-.644 1.128-1.416l-2.74-5.418Z" clip-rule="evenodd"/><path fill="#8C1B00" fill-opacity=".58" d="m60.188 180.592-.17-.247.17.247Zm1.456.385.267-.135-.267.135Zm-1.945-.049-.17-.247-.1.069-.024.119.294.059Zm-1.134 5.642-.294-.059-.056.277.273.072.077-.29Zm4.69 1.241.077-.29-.077.29Zm1.128-1.416.268-.136-.268.136Zm-4.025-5.556a.7.7 0 0 1 1.018.274l.535-.271a1.3 1.3 0 0 0-1.893-.497l.34.494Zm-.489.336.489-.336-.34-.494-.489.336.34.494Zm-1.01 5.454 1.134-5.642-.588-.118-1.134 5.642.588.118Zm4.473.892-4.69-1.241-.154.58 4.69 1.241.154-.58Zm.783-.991c.278.548-.21 1.143-.783.991l-.154.58c1.089.288 1.977-.846 1.473-1.842l-.536.271Zm-2.74-5.417 2.74 5.417.536-.271-2.74-5.417-.535.271Z" mask="url(#c)"/><ellipse cx="1.574" cy="1.087" fill="#EF9C99" rx="1.574" ry="1.087" transform="matrix(.32516 -.94566 -.93836 -.34565 64.836 180.726)"/><path stroke="#8C1B00" stroke-opacity=".58" stroke-width=".2" d="M64.807 177.468c-.242-.089-.52-.03-.78.158s-.49.5-.626.894a1.911 1.911 0 0 0-.061 1.103c.086.316.266.543.508.632.242.089.52.031.78-.158.26-.188.49-.5.626-.894a1.91 1.91 0 0 0 .061-1.103c-.086-.315-.266-.543-.508-.632Z"/><g filter="url(#d)"><mask id="e" fill="#fff"><path fill-rule="evenodd" d="M258.052 78.584c-.049-1.54-1.746-2.447-3.054-1.634l-15.848 9.847a71.091 71.091 0 0 0-12.222-5.072 70.683 70.683 0 0 0-15.319-2.975l-2.982-13.18c-.339-1.5-2.177-2.072-3.308-1.027l-18.443 17.048a1.95 1.95 0 0 0-.153.157c-12.392 4.348-21.931 12.924-25.551 24.582-7.043 22.68 10.978 48.435 40.25 57.526 29.273 9.09 58.713-1.926 65.756-24.606 3.803-12.245.299-25.387-8.337-36.318l-.789-24.348Z" clip-rule="evenodd"/></mask><path fill="#F3885E" fill-rule="evenodd" d="M258.052 78.584c-.049-1.54-1.746-2.447-3.054-1.634l-15.848 9.847a71.091 71.091 0 0 0-12.222-5.072 70.683 70.683 0 0 0-15.319-2.975l-2.982-13.18c-.339-1.5-2.177-2.072-3.308-1.027l-18.443 17.048a1.95 1.95 0 0 0-.153.157c-12.392 4.348-21.931 12.924-25.551 24.582-7.043 22.68 10.978 48.435 40.25 57.526 29.273 9.09 58.713-1.926 65.756-24.606 3.803-12.245.299-25.387-8.337-36.318l-.789-24.348Z" clip-rule="evenodd"/><path fill="#8C1B00" d="m254.998 76.95.158.254-.158-.254Zm3.054 1.634-.299.01.299-.01Zm-18.902 8.213-.141.265.153.08.146-.09-.158-.255Zm-27.541-8.047-.293.066.049.215.22.018.024-.299Zm-2.982-13.18.293-.066-.293.067Zm-3.308-1.027.204.22-.204-.22Zm-18.443 17.048.204.22-.204-.22Zm-.153.157.099.283.075-.026.051-.06-.225-.197Zm72.118 21.184-.3.01.003.099.062.077.235-.186Zm-3.685-25.728c1.112-.69 2.554.082 2.597 1.39l.599-.02c-.057-1.77-2.009-2.814-3.512-1.88l.316.51Zm-15.848 9.848 15.848-9.848-.316-.51-15.849 9.848.317.51Zm-.018-.52a71.39 71.39 0 0 0-12.273-5.094l-.178.573a70.775 70.775 0 0 1 12.17 5.051l.281-.53Zm-12.273-5.094a70.982 70.982 0 0 0-15.384-2.987l-.048.598a70.379 70.379 0 0 1 15.254 2.962l.178-.573Zm-15.115-2.754-2.982-13.18-.585.133 2.981 13.18.586-.133Zm-2.982-13.18c-.391-1.726-2.504-2.383-3.805-1.18l.408.44c.961-.889 2.523-.403 2.812.873l.585-.133Zm-3.805-1.18L186.673 81.37l.407.441 18.443-17.047-.408-.44ZM186.673 81.37a2.387 2.387 0 0 0-.176.18l.451.396a1.88 1.88 0 0 1 .132-.135l-.407-.44Zm-.05.095c-12.46 4.372-22.083 13.008-25.738 24.777l.573.177c3.587-11.548 13.041-20.064 25.364-24.388l-.199-.566Zm-25.738 24.777c-7.112 22.901 11.09 48.783 40.448 57.9l.178-.573c-29.187-9.064-47.027-34.692-40.053-57.15l-.573-.177Zm40.448 57.9c29.359 9.118 59.02-1.901 66.132-24.803l-.573-.178c-6.975 22.458-36.194 33.472-65.381 24.408l-.178.573Zm66.132-24.803c3.838-12.361.294-25.603-8.389-36.593l-.47.372c8.589 10.873 12.052 23.914 8.286 36.043l.573.178Zm-9.712-60.746.788 24.349.6-.02-.789-24.348-.599.02Z" mask="url(#e)"/></g><g filter="url(#f)" transform="rotate(17.252 193.709 104.393)"><circle cx="193.709" cy="104.393" r="13.5" fill="#EDDFD2"/><circle cx="193.709" cy="104.393" r="13.35" stroke="#8C1B00" stroke-width=".3"/></g><g filter="url(#g)" transform="rotate(17.252 232.865 116.553)"><circle cx="232.865" cy="116.553" r="13.5" fill="#EDDFD2"/><circle cx="232.865" cy="116.553" r="13.35" stroke="#8C1B00" stroke-width=".3"/></g><ellipse cx="196.064" cy="103.554" fill="#2B0000" rx="10.5" ry="11" transform="rotate(17.252 196.064 103.554)"/><ellipse cx="231.4" cy="114.527" fill="#2B0000" rx="10.5" ry="11" transform="rotate(17.252 231.4 114.527)"/><mask id="h" fill="#fff"><path fill-rule="evenodd" d="M207.644 66.662c-.033-.882-1.108-1.292-1.72-.656l-12.926 13.428c4.495-1.018 9.617-1.474 15.073-1.269l-.427-11.503Z" clip-rule="evenodd"/></mask><path fill="#EF9C99" fill-rule="evenodd" d="M207.644 66.662c-.033-.882-1.108-1.292-1.72-.656l-12.926 13.428c4.495-1.018 9.617-1.474 15.073-1.269l-.427-11.503Z" clip-rule="evenodd"/><path fill="#8C1B00" fill-opacity=".58" d="m205.924 66.006-.216-.208.216.208Zm1.72.656-.3.011.3-.011Zm-14.646 12.772-.216-.208-.695.722.977-.221-.066-.293Zm15.073-1.269-.011.3.323.012-.012-.323-.3.011Zm-1.931-11.951a.7.7 0 0 1 1.204.46l.599-.023c-.042-1.146-1.44-1.68-2.235-.853l.432.416Zm-12.926 13.428 12.926-13.428-.432-.416-12.926 13.428.432.416Zm-.15.085c4.467-1.012 9.563-1.467 14.996-1.262l.022-.6c-5.478-.206-10.628.252-15.151 1.277l.133.585Zm14.28-13.054.427 11.504.6-.023-.428-11.503-.599.022Z" mask="url(#h)"/><mask id="i" fill="#fff"><path fill-rule="evenodd" d="M256.376 80.107a1 1 0 0 0-1.551-.825l-13.554 8.953a39.044 39.044 0 0 1 7.434 4.237c3.091 2.237 5.73 4.812 7.872 7.573l-.201-19.938Z" clip-rule="evenodd"/></mask><path fill="#EF9C99" fill-rule="evenodd" d="M256.376 80.107a1 1 0 0 0-1.551-.825l-13.554 8.953a39.044 39.044 0 0 1 7.434 4.237c3.091 2.237 5.73 4.812 7.872 7.573l-.201-19.938Z" clip-rule="evenodd"/><path fill="#8C1B00" fill-opacity=".58" d="m254.825 79.282-.165-.25.165.25Zm1.551.825-.3.003.3-.003Zm-15.105 8.128-.166-.25-.463.305.51.22.119-.275Zm7.434 4.237-.176.243.176-.243Zm7.872 7.573-.237.184.546.704-.009-.891-.3.003Zm-1.586-20.512a.7.7 0 0 1 1.085.577l.6-.006a1.3 1.3 0 0 0-2.016-1.072l.331.5Zm-13.555 8.952 13.555-8.952-.331-.501-13.555 8.952.331.501Zm-.284.025a38.728 38.728 0 0 1 7.377 4.205l.352-.486a39.341 39.341 0 0 0-7.492-4.27l-.237.551Zm7.377 4.205c3.068 2.22 5.687 4.775 7.811 7.514l.474-.367c-2.16-2.785-4.82-5.38-7.933-7.633l-.352.486Zm7.547-12.605.201 19.938.6-.006-.201-19.938-.6.006Z" mask="url(#i)"/><path fill="#8C1B00" d="M213.005 93.075c-.192-.925 2.27-9.237 3.597-13.51l3.968.71c-1.378 4.436-4.155 12.994-4.836 13.647-.682.653-1.216.703-1.398.647-.364-.113-1.139-.57-1.331-1.494ZM219.803 94.704c-.103-.889 2.956-9.569 4.434-13.642l3.332 1.034c-1.535 4.23-4.767 12.845-5.415 13.46-.649.616-1.125.656-1.281.6-.314-.114-.966-.564-1.07-1.452ZM226.039 97.673c-.115-.913 2.748-10.495 4.176-14.747l3.447 1.476c-1.483 4.415-4.61 13.41-5.253 14.067-.643.657-1.12.716-1.278.663-.316-.107-.976-.547-1.092-1.46ZM248.009 134.735c1.131-.056 13.296 3.915 18.756 5.676l-1.407 3.072c-5.67-1.829-17.231-5.663-18.116-6.369-.885-.706-1.004-1.2-.953-1.358.102-.317.59-.966 1.72-1.021ZM244.432 141.531c1.067.196 11.37 6.696 15.999 9.594l-2.1 2.644c-4.808-3.008-14.583-9.245-15.225-10.119-.643-.874-.627-1.375-.538-1.516.177-.283.797-.799 1.864-.603ZM249.588 139.597c.943-.012 10.327 4.286 14.542 6.195l-1.675 2.925c-4.378-1.982-13.286-6.126-13.899-6.843-.613-.717-.629-1.199-.56-1.351.138-.304.648-.914 1.592-.926ZM183.708 217.764c1.583.758 17.411 12.525 24.606 18.308l-3.096 3.227c-7.472-6.006-22.023-18.227-23.097-19.604-1.074-1.376-1.131-1.978-1.025-2.107.211-.257 1.03-.583 2.612.176ZM177.251 222.281c1.438.975 16.279 16.146 22.071 22.517l-3.902 2.453c-6.015-6.616-19.775-22.337-20.476-23.714-.7-1.377-.568-1.889-.414-1.972.307-.168 1.282-.259 2.721.716ZM184.833 223.984c1.313.668 13.401 11.937 18.835 16.976l-2.32 2.373c-5.643-5.233-17.752-16.523-18.446-17.715-.694-1.191-.61-1.707-.482-1.816.258-.218 1.101-.487 2.413.182Z"/><path fill="#8C1B00" d="M183.708 217.764c1.583.758 17.411 12.525 24.606 18.308l-3.096 3.227c-7.472-6.006-22.023-18.227-23.097-19.604-1.074-1.376-1.131-1.978-1.025-2.107.211-.257 1.03-.583 2.612.176ZM177.251 222.281c1.438.975 16.279 16.146 22.071 22.517l-3.902 2.453c-6.015-6.616-19.775-22.337-20.476-23.714-.7-1.377-.568-1.889-.414-1.972.307-.168 1.282-.259 2.721.716ZM184.833 223.984c1.313.668 13.401 11.937 18.835 16.976l-2.32 2.373c-5.643-5.233-17.752-16.523-18.446-17.715-.694-1.191-.61-1.707-.482-1.816.258-.218 1.101-.487 2.413.182ZM128.532 180.791c-.493-.09-2.769-3.62-3.544-5.15l3.756-1.975c.804 1.589 2.187 5.448 1.98 5.923-.208.475-.552.754-.698.834-.292.16-1 .458-1.494.368ZM135.343 177.503c-.269-.219.175-4.933.632-6.988l3.941-1.854c-.474 2.134-1.928 7.299-2.366 7.839-.437.54-.841.809-.988.876-.294.134-.95.346-1.219.127ZM131.758 177.999c-.384-.093-.708-3.41-.871-4.888l2.92-1.542c.169 1.535.492 4.859.167 5.311-.324.452-.701.714-.849.789-.295.149-.982.424-1.367.33ZM179.478 113.452c-.9-.686-13.175-4.305-18.672-5.947l-.58 3.329c5.708 1.705 17.407 5.094 18.537 5.014 1.129-.081 1.507-.42 1.554-.58.096-.319.061-1.13-.839-1.816ZM178.578 121.08c-.99-.443-13.163-.922-18.619-1.157l.233 3.369c5.666.244 17.254.642 18.279.286 1.024-.357 1.295-.779 1.302-.945.014-.333-.205-1.11-1.195-1.553ZM175.423 116.565c-.77-.544-10.939-2.318-15.494-3.132l-.276 3.36c4.73.846 14.419 2.477 15.33 2.233.911-.243 1.198-.632 1.227-.796.059-.328-.016-1.12-.787-1.665Z"/><path stroke="#8B250E" stroke-width=".5" d="m208.564 125.68-1.779 5.73"/><path fill="#EF9C99" d="M208.829 126.2a.5.5 0 0 1-.747-.244l-2.319-6.344a.5.5 0 0 1 .625-.647l7.934 2.591a.5.5 0 0 1 .122.891l-5.615 3.753Z"/><path stroke="#8C1B00" stroke-opacity=".79" stroke-width=".3" d="M208.746 126.075a.35.35 0 0 1-.524-.171l-2.318-6.343a.35.35 0 0 1 .438-.453l7.933 2.591a.35.35 0 0 1 .086.624l-5.615 3.752Z"/><path fill="#8C1B00" fill-rule="evenodd" d="M207.521 130.9a.474.474 0 0 0-.064-.127l-.037-.053a.602.602 0 0 0-.712-.259l-.091.033a.457.457 0 0 0-.186.127l-5.297 2.603a.414.414 0 0 0-.161.63l.055.079a.604.604 0 0 0 .736.189l4.956-2.436 2.704 4.815c.135.24.454.357.713.261l.091-.034a.413.413 0 0 0 .223-.61l-2.93-5.218Z" clip-rule="evenodd"/><circle cx="198.881" cy="123.982" r=".25" fill="#8C1B00" fill-opacity=".74" transform="rotate(17.252 198.881 123.982)"/><circle cx="202.044" cy="123.917" r=".25" fill="#8C1B00" fill-opacity=".74" transform="rotate(17.252 202.044 123.917)"/><circle cx="201.153" cy="126.782" r=".25" fill="#8C1B00" fill-opacity=".74" transform="rotate(17.252 201.153 126.782)"/><circle cx=".25" cy=".25" r=".25" fill="#8C1B00" fill-opacity=".74" transform="scale(-1 1) rotate(-17.252 318.504 784.373)"/><circle cx=".25" cy=".25" r=".25" fill="#8C1B00" fill-opacity=".74" transform="scale(-1 1) rotate(-17.252 313.707 774.986)"/><circle cx=".25" cy=".25" r=".25" fill="#8C1B00" fill-opacity=".74" transform="scale(-1 1) rotate(-17.252 323.595 773.482)"/><mask id="j" fill="#fff"><path fill-rule="evenodd" d="M102.654 218.721a.5.5 0 0 0-.387.591l.398 1.911-1.939.218a.5.5 0 1 0 .112.994l2.032-.229.417 2.001a.5.5 0 1 0 .979-.204l-.398-1.909 1.938-.219a.499.499 0 1 0-.111-.993l-2.032.228-.417-2.002a.5.5 0 0 0-.592-.387Z" clip-rule="evenodd"/></mask><path fill="#EF9C99" fill-rule="evenodd" d="M102.654 218.721a.5.5 0 0 0-.387.591l.398 1.911-1.939.218a.5.5 0 1 0 .112.994l2.032-.229.417 2.001a.5.5 0 1 0 .979-.204l-.398-1.909 1.938-.219a.499.499 0 1 0-.111-.993l-2.032.228-.417-2.002a.5.5 0 0 0-.592-.387Z" clip-rule="evenodd"/><path fill="#8C1B00" fill-opacity=".63" d="m102.267 219.312-.098.021.098-.021Zm.387-.591-.02-.098.02.098Zm.011 2.502.011.099.109-.012-.022-.108-.098.021Zm-1.939.218-.011-.1.011.1Zm-.441.553.099-.012-.099.012Zm.553.441.011.099-.011-.099Zm2.032-.229.098-.021-.019-.089-.09.01.011.1Zm.417 2.001.098-.02-.098.02Zm.592.388.02.097-.02-.097Zm.387-.592.098-.02-.098.02Zm-.398-1.909-.011-.1-.109.012.022.108.098-.02Zm1.938-.219-.011-.099.011.099Zm.441-.552-.099.011.099-.011Zm-.552-.441.011.099-.011-.099Zm-2.032.228-.098.021.019.089.09-.01-.011-.1Zm-.417-2.002-.098.021.098-.021Zm-.881.184a.4.4 0 0 1 .31-.473l-.041-.196a.6.6 0 0 0-.465.71l.196-.041Zm.398 1.91-.398-1.91-.196.041.398 1.91.196-.041Zm-.109-.079-1.939.218.022.199 1.939-.218-.022-.199Zm-1.939.218a.6.6 0 0 0-.529.664l.198-.023a.401.401 0 0 1 .353-.442l-.022-.199Zm-.529.664a.6.6 0 0 0 .663.529l-.022-.199a.4.4 0 0 1-.443-.353l-.198.023Zm.663.529 2.032-.229-.022-.199-2.032.229.022.199Zm2.536 1.653-.417-2.002-.196.041.418 2.002.195-.041Zm.474.31a.4.4 0 0 1-.474-.31l-.195.041a.598.598 0 0 0 .709.464l-.04-.195Zm.309-.474a.4.4 0 0 1-.309.474l.04.195a.598.598 0 0 0 .465-.709l-.196.04Zm-.398-1.909.398 1.909.196-.04-.398-1.91-.196.041Zm.109.079 1.939-.218-.023-.199-1.938.218.022.199Zm1.939-.218a.6.6 0 0 0 .529-.663l-.199.022a.4.4 0 0 1-.353.442l.023.199Zm.529-.663a.6.6 0 0 0-.664-.53l.023.199a.4.4 0 0 1 .442.353l.199-.022Zm-.664-.53-2.031.229.022.199 2.032-.229-.023-.199Zm-2.535-1.653.417 2.002.196-.041-.417-2.002-.196.041Zm-.473-.31a.4.4 0 0 1 .473.31l.196-.041a.6.6 0 0 0-.71-.465l.041.196Z" mask="url(#j)"/><ellipse cx="252.478" cy="62.596" fill="#D9D9D9" rx="7.5" ry="3.5" transform="rotate(36.053 252.478 62.596)"/><path fill="#D9D9D9" d="M278.29 101.783c-1.644 1.016-5.347-9.407-9.671-16.404-4.324-6.997-8.288-11.749-6.644-12.765 1.644-1.016 8.275 2.088 12.599 9.085 4.324 6.998 5.36 19.068 3.716 20.084Z"/><ellipse cx="218.497" cy="108.869" fill="#93A4FF" fill-opacity=".42" rx="68.5" ry="62" transform="rotate(17.252 218.497 108.869)"/><path stroke="#000C7C" stroke-opacity=".72" stroke-width=".3" d="M283.772 129.14c-10.126 32.609-47.554 49.996-83.618 38.797-36.064-11.2-57.058-46.73-46.932-79.338 10.127-32.61 47.554-49.997 83.618-38.797 36.065 11.2 57.059 46.73 46.932 79.338Z"/><defs><filter id="a" width="20.492" height="18.827" x="88.002" y="217.316" color-interpolation-filters="sRGB" filterUnits="userSpaceOnUse"><feFlood flood-opacity="0" result="BackgroundImageFix"/><feColorMatrix in="SourceAlpha" result="hardAlpha" values="0 0 0 0 0 0 0 0 0 0 0 0 0 0 0 0 0 0 127 0"/><feOffset dy="1"/><feGaussianBlur stdDeviation="2"/><feComposite in2="hardAlpha" operator="out"/><feColorMatrix values="0 0 0 0 0.54902 0 0 0 0 0.105882 0 0 0 0 0 0 0 0 1 0"/><feBlend in2="BackgroundImageFix" result="effect1_dropShadow_2062_223"/><feBlend in="SourceGraphic" in2="effect1_dropShadow_2062_223" result="shape"/></filter><filter id="d" width="117.057" height="111.033" x="155.646" y="64.01" color-interpolation-filters="sRGB" filterUnits="userSpaceOnUse"><feFlood flood-opacity="0" result="BackgroundImageFix"/><feColorMatrix in="SourceAlpha" result="hardAlpha" values="0 0 0 0 0 0 0 0 0 0 0 0 0 0 0 0 0 0 127 0"/><feOffset dy="4"/><feGaussianBlur stdDeviation="2"/><feComposite in2="hardAlpha" operator="out"/><feColorMatrix values="0 0 0 0 0.545098 0 0 0 0 0.145098 0 0 0 0 0.054902 0 0 0 0.32 0"/><feBlend in2="BackgroundImageFix" result="effect1_dropShadow_2062_223"/><feBlend in="SourceGraphic" in2="effect1_dropShadow_2062_223" result="shape"/></filter><filter id="f" width="35.008" height="35.007" x="174.205" y="84.89" color-interpolation-filters="sRGB" filterUnits="userSpaceOnUse"><feFlood flood-opacity="0" result="BackgroundImageFix"/><feColorMatrix in="SourceAlpha" result="hardAlpha" values="0 0 0 0 0 0 0 0 0 0 0 0 0 0 0 0 0 0 127 0"/><feOffset dx="-2" dy="-2"/><feGaussianBlur stdDeviation="2"/><feComposite in2="hardAlpha" operator="out"/><feColorMatrix values="0 0 0 0 0.831373 0 0 0 0 0.294118 0 0 0 0 0.168627 0 0 0 1 0"/><feBlend in2="BackgroundImageFix" result="effect1_dropShadow_2062_223"/><feBlend in="SourceGraphic" in2="effect1_dropShadow_2062_223" result="shape"/></filter><filter id="g" width="35.008" height="35.007" x="217.361" y="97.049" color-interpolation-filters="sRGB" filterUnits="userSpaceOnUse"><feFlood flood-opacity="0" result="BackgroundImageFix"/><feColorMatrix in="SourceAlpha" result="hardAlpha" values="0 0 0 0 0 0 0 0 0 0 0 0 0 0 0 0 0 0 127 0"/><feOffset dx="2" dy="-2"/><feGaussianBlur stdDeviation="2"/><feComposite in2="hardAlpha" operator="out"/><feColorMatrix values="0 0 0 0 0.831373 0 0 0 0 0.294118 0 0 0 0 0.168627 0 0 0 1 0"/><feBlend in2="BackgroundImageFix" result="effect1_dropShadow_2062_223"/><feBlend in="SourceGraphic" in2="effect1_dropShadow_2062_223" result="shape"/></filter></defs></svg>