<svg xmlns="http://www.w3.org/2000/svg" width="241" height="244" fill="none"><path fill="#F3885E" stroke="#8B250E" stroke-width=".5" d="M179.005 154.469c-11.061 14.046-23.922 15.369-27.202 15.509l-7.539-13.071c.389-.081 9.655-6.528 13.903-8.726 5.311-2.747 11.626-18.53 14.222-25.621 2.597-7.092 10.222-23.513 15.023-35.16 4.802-11.645 17.009-21.473 28.273-21.37 11.263.101 19.51 11.386 19.112 21.293-.398 9.907-14.03 17.746-19.31 20.409-4.62 2.33-12.315 1.299-15.992 11.346-3.678 10.047-9.428 21.345-20.49 35.391Z"/><path fill="#F3885E" stroke="#8B250E" stroke-width=".5" d="M179.005 154.469c-11.061 14.046-23.922 15.369-27.202 15.509l-7.539-13.071c.389-.081 9.655-6.528 13.903-8.726 5.311-2.747 11.626-18.53 14.222-25.621 2.597-7.092 10.222-23.513 15.023-35.16 4.802-11.645 17.009-21.473 28.273-21.37 11.263.101 19.51 11.386 19.112 21.293-.398 9.907-14.03 17.746-19.31 20.409-4.62 2.33-12.315 1.299-15.992 11.346-3.678 10.047-9.428 21.345-20.49 35.391Z"/><g filter="url(#a)"><path stroke="#8C1B00" stroke-width=".2" d="M152.748 170.182c.173-.473-4.089-11.984-7.34-13.735"/></g><path fill="#8B250E" d="m217.902 106.655-24.885-28.368 3.472-3.902 25.755 29.13-4.342 3.14ZM227.865 99.303l-24.612-29.59 5.213-2.378 24.15 26.993-4.751 4.975ZM207.108 110.724l-20.847-20.813 3.461-7.53 22.462 26.577-3.293.77-1.783.996Z"/><path fill="#F3885E" stroke="#8C1B00" stroke-width=".3" d="M138.669 100.678c3.339 12.096 6.859 30.026 11.119 56.338 1.089 18.43.274 31.6-2.018 41.021-2.292 9.419-6.059 15.079-10.866 18.506-4.811 3.43-10.686 4.64-17.227 5.113-3.24.234-6.637.288-10.147.343l-.099.001c-3.54.056-7.192.116-10.9.366-3.655-.25-7.316-.278-10.91-.281l-1.296-.001c-3.15 0-6.242-.001-9.23-.137-6.792-.309-13.021-1.32-18.143-4.606-5.117-3.283-9.149-8.852-11.517-18.323-2.37-9.475-3.07-22.847-1.526-41.719 2-24.44 4.476-41.449 7.518-53.217 3.043-11.771 6.647-18.273 10.884-21.728 4.229-3.448 9.116-3.882 14.792-3.442 2.009.156 4.11.42 6.313.698.912.115 1.842.232 2.79.344 3.234.384 6.673.713 10.325.713 5.884 0 10.801-1.171 15.02-2.176 1.021-.243 2-.476 2.943-.681 4.849-1.053 8.701-1.345 12.182 1.587 3.5 2.948 6.652 9.176 9.993 21.281Z"/><g filter="url(#b)"><mask id="c" fill="#fff"><path fill-rule="evenodd" d="M125.23 22.346c-.504-1.455-2.394-1.818-3.401-.655l-12.215 14.105a71.109 71.109 0 0 0-13.177-1.22c-4.705 0-9.273.454-13.636 1.308L70.286 23.032c-1.074-1.104-2.94-.63-3.358.852l-5.79 20.509c-12.336 7.887-20.2 19.824-20.2 33.184 0 23.748 24.848 43 55.5 43 30.651 0 55.5-19.252 55.5-43 0-12.822-7.244-24.334-18.734-32.212l-7.974-23.019Z" clip-rule="evenodd"/></mask><path fill="#F3885E" fill-rule="evenodd" d="M125.23 22.346c-.504-1.455-2.394-1.818-3.401-.655l-12.215 14.105a71.109 71.109 0 0 0-13.177-1.22c-4.705 0-9.273.454-13.636 1.308L70.286 23.032c-1.074-1.104-2.94-.63-3.358.852l-5.79 20.509c-12.336 7.887-20.2 19.824-20.2 33.184 0 23.748 24.848 43 55.5 43 30.651 0 55.5-19.252 55.5-43 0-12.822-7.244-24.334-18.734-32.212l-7.974-23.019Z" clip-rule="evenodd"/><path fill="#8C1B00" d="m121.829 21.691.226.197-.226-.197Zm3.401.655-.283.098.283-.098Zm-15.616 13.45-.056.295.17.032.113-.13-.227-.197Zm-26.813.088-.215.21.113.116.16-.031-.058-.295ZM70.286 23.032l.215-.21-.215.21Zm-3.358.852-.288-.082.288.082Zm-5.79 20.509.163.253.096-.062.03-.11-.288-.081Zm72.066.972-.283.098.032.094.082.055.169-.247Zm-11.149-23.477c.857-.99 2.463-.68 2.892.556l.567-.196c-.58-1.673-2.753-2.091-3.912-.753l.453.393Zm-12.214 14.104 12.214-14.104-.453-.393-12.215 14.104.454.393Zm-.171-.491a71.412 71.412 0 0 0-13.233-1.224v.6c4.522 0 8.916.42 13.121 1.214l.112-.59Zm-13.233-1.224c-4.724 0-9.312.455-13.694 1.313l.115.589a70.72 70.72 0 0 1 13.58-1.302v-.6Zm-13.421 1.398L70.5 22.822l-.43.419 12.515 12.853.43-.419ZM70.5 22.822c-1.235-1.268-3.38-.724-3.862.98l.578.163a1.7 1.7 0 0 1 2.854-.724l.43-.419Zm-3.862.98-5.789 20.51.578.162 5.789-20.509-.578-.163ZM60.977 44.14c-12.4 7.928-20.34 19.95-20.34 33.437h.6c0-13.234 7.79-25.085 20.063-32.931l-.323-.506Zm-20.34 33.437c0 23.98 25.059 43.3 55.8 43.3v-.6c-30.561 0-55.2-19.184-55.2-42.7h-.6Zm55.8 43.3c30.742 0 55.801-19.32 55.801-43.3h-.601c0 23.516-24.638 42.7-55.2 42.7v.6Zm55.801-43.3c0-12.943-7.313-24.539-18.864-32.46l-.339.495c11.428 7.837 18.602 19.264 18.602 31.965h.601Zm-27.291-55.133 7.974 23.02.567-.197-7.974-23.02-.567.197Z" mask="url(#c)"/></g><g filter="url(#d)"><ellipse cx="75.438" cy="63.5" fill="#EDDFD2" rx="13.5" ry="1.5"/><path stroke="#8C1B00" stroke-width=".3" d="M88.787 63.5c0 .003 0 .02-.03.052a.644.644 0 0 1-.165.118c-.164.09-.416.18-.754.269-.672.176-1.652.337-2.871.473-2.436.27-5.805.438-9.53.438-3.724 0-7.093-.168-9.529-.438-1.219-.136-2.199-.297-2.872-.473-.337-.089-.589-.18-.753-.269a.644.644 0 0 1-.165-.118c-.03-.032-.03-.05-.03-.052 0-.003 0-.02.03-.052a.644.644 0 0 1 .165-.118c.164-.09.416-.18.753-.269.673-.176 1.653-.337 2.872-.473 2.436-.27 5.805-.438 9.53-.438 3.724 0 7.093.168 9.529.438 1.219.136 2.199.297 2.871.473.338.089.59.18.754.269a.644.644 0 0 1 .165.118c.03.032.03.05.03.052Z"/></g><g filter="url(#e)"><ellipse cx="118.438" cy="63.5" fill="#EDDFD2" rx="13.5" ry="1.5"/><path stroke="#8C1B00" stroke-width=".3" d="M131.788 63.5c0 .003-.001.02-.031.052a.631.631 0 0 1-.165.118c-.164.09-.416.18-.754.269-.672.176-1.652.337-2.871.473-2.436.27-5.805.438-9.529.438-3.725 0-7.094-.168-9.53-.438-1.219-.136-2.199-.297-2.871-.473-.338-.089-.59-.18-.754-.269a.631.631 0 0 1-.165-.118c-.03-.032-.03-.05-.03-.052 0-.003 0-.02.03-.052a.631.631 0 0 1 .165-.118c.164-.09.416-.18.754-.269.672-.176 1.652-.337 2.871-.473 2.436-.27 5.805-.438 9.53-.438 3.724 0 7.093.168 9.529.438 1.219.136 2.199.297 2.871.473.338.089.59.18.754.269a.631.631 0 0 1 .165.118c.03.032.031.05.031.052Z"/></g><ellipse cx="75.438" cy="63.5" fill="#2B0000" rx="10.5" ry="1.5"/><ellipse cx="118.438" cy="63.5" fill="#2B0000" rx="10.5" ry="1.5"/><mask id="f" fill="#fff"><path fill-rule="evenodd" d="M70.231 26.347a1 1 0 0 0-1.728.415l-3.566 14.529c3.958-2.133 8.59-3.929 13.68-5.228l-8.386-9.716Z" clip-rule="evenodd"/></mask><path fill="#EF9C99" fill-rule="evenodd" d="M70.231 26.347a1 1 0 0 0-1.728.415l-3.566 14.529c3.958-2.133 8.59-3.929 13.68-5.228l-8.386-9.716Z" clip-rule="evenodd"/><path fill="#8C1B00" fill-opacity=".58" d="m68.503 26.762.291.072-.291-.072Zm1.728-.415-.227.196.227-.196Zm-5.293 14.944-.292-.072-.16.657.594-.321-.142-.264Zm13.679-5.228.074.29.47-.12-.317-.366-.227.196Zm-9.823-9.23a.7.7 0 0 1 1.21-.29l.454-.392a1.3 1.3 0 0 0-2.246.54l.582.143Zm-3.565 14.53 3.565-14.53-.582-.142-3.566 14.528.583.143Zm-.15.192c3.934-2.12 8.544-3.907 13.612-5.202l-.148-.581c-5.111 1.305-9.767 3.11-13.748 5.255l.285.528Zm4.925-15.012 8.386 9.715.454-.392-8.386-9.715-.454.392Z" mask="url(#f)"/><mask id="g" fill="#fff"><path fill-rule="evenodd" d="M123.68 25.342a1 1 0 0 0-1.726-.327l-9.472 11.57c2.615.308 5.281.9 7.941 1.797a38.805 38.805 0 0 1 8.821 4.26l-5.564-17.3Z" clip-rule="evenodd"/></mask><path fill="#EF9C99" fill-rule="evenodd" d="M123.68 25.342a1 1 0 0 0-1.726-.327l-9.472 11.57c2.615.308 5.281.9 7.941 1.797a38.805 38.805 0 0 1 8.821 4.26l-5.564-17.3Z" clip-rule="evenodd"/><path fill="#8C1B00" fill-opacity=".58" d="m121.954 25.015.233.19-.233-.19Zm1.726.327-.285.092.285-.092Zm-11.198 11.244-.232-.19-.347.424.544.064.035-.298Zm7.941 1.796.095-.285-.095.285Zm8.821 4.26-.164.252.709.463-.259-.806-.286.092Zm-7.057-17.437a.7.7 0 0 1 1.208.23l.571-.184a1.3 1.3 0 0 0-2.244-.426l.465.38Zm-9.472 11.571 9.472-11.57-.465-.38-9.472 11.57.465.38Zm-.268.108c2.594.304 5.24.891 7.88 1.782l.191-.569a39.407 39.407 0 0 0-8.001-1.809l-.07.596Zm7.88 1.782a38.492 38.492 0 0 1 8.753 4.228l.328-.502a39.077 39.077 0 0 0-8.89-4.295l-.191.569Zm3.068-13.232 5.563 17.3.572-.183-5.564-17.3-.571.183Z" mask="url(#g)"/><path fill="#8C1B00" d="M87.509 49.001c-.457-.8-.572-9.188-.572-13.517l4-.484c0 4.495-.114 13.202-.57 14.001-.458.8-.953.999-1.144.999-.38 0-1.257-.2-1.714-.999ZM94.482 48.533c-.363-.796-.027-9.75.17-13.963l3.489.004c-.206 4.376-.725 13.317-1.162 14.077-.436.759-.878.933-1.044.925a1.783 1.783 0 0 1-1.453-1.043ZM101.336 49.553c-.38-.79-.496-10.328-.398-14.553l3.996.114c-.1 4.388-.699 13.725-1.114 14.496-.416.771-.851.956-1.016.952-.332-.007-1.089-.22-1.468-1.009ZM132.293 78.949c1.064-.389 13.859-.205 19.596-.142l-.433 3.352c-5.957-.066-18.135-.299-19.19-.71-1.055-.412-1.315-.848-1.313-1.015.004-.333.277-1.097 1.34-1.485ZM130.893 86.5c1.077-.129 12.844 3.024 18.124 4.418l-1.221 3.148c-5.484-1.448-16.669-4.504-17.541-5.148-.873-.645-1.006-1.128-.964-1.289.085-.322.525-1 1.602-1.129ZM135.243 83.124c.897-.29 11.134 1.03 15.726 1.604l-.733 3.29c-4.768-.595-14.504-1.91-15.303-2.413-.798-.503-.956-.96-.935-1.124.041-.331.348-1.066 1.245-1.357ZM60.535 78.948c-1.064-.388-13.859-.204-19.595-.141l.432 3.351c5.958-.065 18.136-.298 19.19-.71 1.055-.411 1.315-.847 1.313-1.014-.004-.333-.277-1.097-1.34-1.486ZM61.935 86.5c-1.077-.129-12.844 3.023-18.124 4.418l1.221 3.148c5.484-1.448 16.669-4.504 17.542-5.148.872-.645 1.005-1.128.963-1.29-.085-.321-.525-.998-1.602-1.128ZM57.585 83.124c-.897-.291-11.134 1.03-15.725 1.604l.732 3.29c4.769-.595 14.505-1.91 15.303-2.413.798-.503.956-.96.936-1.125-.042-.33-.349-1.065-1.246-1.356Z"/><path fill="#EF9C99" stroke="#8C1B00" stroke-opacity=".58" stroke-width=".2" d="M94.938 93c2.131 0 1.998-2.576 1.998-4.09L94.937 88l-1.998.91c0 1.514-.133 4.09 1.999 4.09Z"/><path stroke="#8B250E" stroke-width=".5" d="M94.938 82v6"/><path fill="#EF9C99" d="M95.344 82.418a.5.5 0 0 1-.787-.012l-4.095-5.37a.5.5 0 0 1 .405-.803l8.345.122a.5.5 0 0 1 .382.814l-4.25 5.249Z"/><path stroke="#8C1B00" stroke-opacity=".79" stroke-width=".3" d="M95.227 82.324a.35.35 0 0 1-.55-.008l-4.096-5.37a.35.35 0 0 1 .284-.563l8.345.122a.35.35 0 0 1 .267.57l-4.25 5.249Z"/><path fill="#8C1B00" fill-rule="evenodd" d="M95.489 87.295a.472.472 0 0 0-.099-.103l-.05-.04a.604.604 0 0 0-.758-.036l-.077.06a.452.452 0 0 0-.14.175L90.08 91.41c-.2.19-.186.48.033.65l.076.058a.603.603 0 0 0 .759-.038l4.01-3.796 4.01 3.796c.2.19.54.207.759.038l.076-.059a.414.414 0 0 0 .033-.65l-4.346-4.113Z" clip-rule="evenodd"/><path fill="#F3885E" d="M169.936 189.5c.187-6.878-16.999-31.5-24-29.5l-15.889 41.941c.955-.037 3.863-.006 7.859.411 4.994.523 4.955 1.956 7.625 9.01 2.136 5.643 2.128 9.461 1.857 10.664 5.445 1.459 19.186 4.84 30.583 6.689 11.398 1.849 9.617-7.26 5.267-9.509-5.187-2.185-15.988-6.681-17.691-7.188-1.704-.506-1.613-2.085-1.355-2.81 1.769-3.648 5.557-12.83 5.744-19.708Z"/><path stroke="#8C1B00" stroke-width=".3" d="M147.435 160.5c8.001 0 22.483 22.289 22.296 29.167-.187 6.879-3.771 15.893-5.54 19.54-.258.726-.349 2.304 1.355 2.811 1.703.506 12.504 5.002 17.691 7.187 4.351 2.249 6.131 11.358-5.266 9.509-11.398-1.849-25.139-5.229-30.584-6.688.271-1.204.279-5.022-1.857-10.665-2.67-7.054-1.6-8.339-6.594-8.861"/><path fill="#F3885E" d="M32.154 187.668c-.187-6.879 15.193-25.602 17.283-27.668l22.402 39.941c-.955-.037-3.864-.006-7.86.411-4.993.523-4.954 1.956-7.625 9.01-2.136 5.643-2.127 9.461-1.856 10.664-5.446 1.459-19.187 4.84-30.584 6.689-11.397 1.848-9.617-7.26-5.267-9.509 5.188-2.185 15.989-6.681 17.692-7.188 1.703-.507 1.613-2.085 1.355-2.81-1.77-3.648-5.353-12.662-5.54-19.54Z"/><path stroke="#8C1B00" stroke-width=".3" d="M46.436 163.5c-2.09 2.066-14.469 17.288-14.282 24.167.187 6.878 3.771 15.893 5.54 19.54.258.726.349 2.304-1.355 2.81-1.703.507-12.504 5.003-17.692 7.188-4.35 2.249-6.13 11.358 5.267 9.509 11.398-1.849 25.138-5.229 30.584-6.689-.271-1.203-.28-5.021 1.857-10.664 2.67-7.054 2.63-8.487 7.625-9.009"/><path fill="#FFE2C8" d="M66.022 157.538c-2.798-25.979 17.484-31.442 27.974-30.927 5.974-.515 20.107.825 28.849 10.309 10.927 11.855 4.31 59.612-.739 73.668-3.931 10.945-21.391 8.973-37.564 8.457-16.173-.515-15.023-29.035-18.52-61.507Z"/><path fill="#F3885E" d="M115.431 215.482c1.2-3.525 5.736-40.523 8.069-61.482l12.5-10.5 8 8c1.5 24.5-3.069 51.166-7.287 66.785-.317 1.174-2.282 8.41-9.5 10.413-4.278 1.187-10.782 1.602-14.782-2.804-4-4.405 1.5-6.007 3-10.412Z"/><path stroke="#8C1B00" stroke-width=".3" d="M123.777 153.762c-2.357 19.813-7.153 58.758-8.365 62.09-1.515 4.164-7.015 5.878-2.975 10.042 4.04 4.165 10.179 3.926 14.5 2.804 7.29-1.893 9.649-9.086 9.97-10.196 4.26-14.765 2.02-44.043 3.03-65.497"/><path fill="#F3885E" d="M80.77 215.433c-1.13-3.437-5.577-39.494-7.771-59.933l-19-7-3.258 13.333c.929 21.847 6.155 41.913 10.104 57.077l.154.59c.298 1.145 1.904 6.869 8.69 8.822 4.024 1.157 10.14 1.562 13.901-2.734 3.761-4.296-1.41-5.859-2.82-10.155Z"/><path stroke="#8C1B00" stroke-width=".3" d="M72.982 155.348c2.194 19.396 6.618 57.724 7.954 60.935 1.5 3.604 6.417 5.407 2.655 9.484-3.761 4.077-9.877 3.693-13.9 2.594-6.787-1.853-8.635-8.549-8.933-9.636-3.967-14.454-1.881-43.116-2.821-64.118"/><path fill="#8C1B00" d="M77.94 219.37c.133.428 3.313 4.6 4.732 6.475l.985-.815c-1.474-1.946-4.52-5.905-4.91-6.17-.392-.264-.597-.262-.651-.228-.108.068-.29.311-.156.738ZM72.132 220.904c.142.471 3.19 5.554 4.552 7.834l1.354-.144c-1.414-2.369-4.866-7.636-5.227-8.007-.36-.37-.54-.421-.586-.4-.09.043-.236.245-.093.717ZM70.643 222.128c.04.391 1.75 4.803 2.512 6.781l1.169.066c-.791-2.055-2.811-6.666-3.053-7.006-.24-.34-.385-.404-.427-.393-.084.021-.241.161-.201.552ZM74.78 219.901c.183.501 4.012 5.529 5.722 7.788l.998-.862c-1.776-2.345-5.44-7.119-5.889-7.452-.449-.333-.672-.346-.727-.311-.11.07-.287.336-.104.837ZM117.828 219.329c-.127.448-3.263 4.785-4.662 6.734l-1.009-.875c1.454-2.024 4.458-6.139 4.848-6.41.39-.272.597-.266.652-.229.11.073.298.332.171.78ZM123.719 221.047c-.136.494-3.123 5.792-4.456 8.17l-1.37-.177c1.385-2.469 4.777-7.954 5.134-8.338.357-.384.538-.434.585-.411.092.046.242.262.107.756ZM125.244 222.363c-.033.411-1.681 5.026-2.415 7.096l-1.179.048c.762-2.15 2.719-6.969 2.957-7.323.237-.353.382-.418.424-.406.085.024.247.174.213.585ZM121.028 219.944c-.175.524-3.952 5.752-5.638 8.1l-1.022-.925c1.751-2.439 5.365-7.401 5.812-7.743.447-.343.672-.353.729-.315.113.076.295.359.119.883Z"/><mask id="h" fill="#fff"><path fill-rule="evenodd" d="m179.042 228.794-5.398-.801 1.385-4.266c.269-.83 1.398-.941 1.824-.18l2.299 4.111a1 1 0 0 1-.11 1.136Zm2.085.309-1.483-.22a1.956 1.956 0 0 1 1.068.043c.149.047.289.107.415.177Zm1.277-.795c.163-.528-.346-1.154-1.137-1.4-.791-.245-1.565-.016-1.729.511-.163.528.345 1.154 1.137 1.4.791.245 1.565.016 1.729-.511Zm-1.062-2.901c.203-.514-.276-1.184-1.069-1.497-.793-.312-1.6-.149-1.803.365-.202.514.277 1.184 1.07 1.496.793.313 1.6.149 1.802-.364Z" clip-rule="evenodd"/></mask><path fill="#EF9C99" fill-rule="evenodd" d="m179.042 228.794-5.398-.801 1.385-4.266c.269-.83 1.398-.941 1.824-.18l2.299 4.111a1 1 0 0 1-.11 1.136Zm2.085.309-1.483-.22a1.956 1.956 0 0 1 1.068.043c.149.047.289.107.415.177Zm1.277-.795c.163-.528-.346-1.154-1.137-1.4-.791-.245-1.565-.016-1.729.511-.163.528.345 1.154 1.137 1.4.791.245 1.565.016 1.729-.511Zm-1.062-2.901c.203-.514-.276-1.184-1.069-1.497-.793-.312-1.6-.149-1.803.365-.202.514.277 1.184 1.07 1.496.793.313 1.6.149 1.802-.364Z" clip-rule="evenodd"/><path fill="#8C1B00" fill-opacity=".58" d="m179.042 228.794-.03.198.11.016.072-.085-.152-.129Zm-5.398-.801-.191-.062-.073.225.234.035.03-.198Zm1.385-4.266-.19-.062.19.062Zm1.824-.18-.175.098.175-.098Zm2.299 4.111-.174.097.174-.097Zm1.975 1.445-.029.198.126-.373-.097.175Zm-1.483-.22-.052-.193.022.391.03-.198Zm1.068.043-.06.191.06-.191Zm.555-2.018.059-.191-.059.191Zm1.137 1.4.191.059-.191-.059Zm-2.866-.889-.191-.059.191.059Zm1.137 1.4.059-.191-.059.191Zm-.402-4.909-.074.187.074-.187Zm1.069 1.497.186.073-.186-.073Zm-1.802.364.073-.186-.073.186Zm-.469 2.825-5.398-.801-.059.396 5.398.801.059-.396Zm-5.237-.541 1.385-4.266-.38-.124-1.386 4.266.381.124Zm1.385-4.266a.8.8 0 0 1 1.459-.144l.349-.195c-.511-.914-1.865-.781-2.188.215l.38.124Zm1.459-.144 2.3 4.11.349-.195-2.3-4.11-.349.195Zm2.3 4.11a.802.802 0 0 1-.089.909l.305.259a1.2 1.2 0 0 0 .133-1.363l-.349.195Zm2.179 1.15-1.484-.22-.059.396 1.484.22.059-.396Zm-.386-.17a2.152 2.152 0 0 0-1.179-.045l.104.386c.266-.072.606-.067.956.041l.119-.382Zm.453.193a2.46 2.46 0 0 0-.453-.193l-.119.382c.137.043.264.097.378.161l.194-.35Zm-.016-1.829c.363.113.653.311.83.529.179.22.23.441.175.621l.382.118c.107-.348-.014-.704-.246-.991-.234-.288-.595-.526-1.023-.659l-.118.382Zm-1.479.379c.056-.18.223-.332.495-.412.27-.08.621-.079.984.033l.118-.382c-.428-.132-.86-.14-1.215-.035-.354.105-.656.331-.764.678l.382.118Zm1.005 1.15c-.363-.113-.653-.311-.83-.529-.179-.22-.231-.441-.175-.621l-.382-.118c-.108.348.013.704.246.991.234.288.594.526 1.023.659l.118-.382Zm1.479-.379c-.056.18-.223.332-.495.412-.27.08-.621.079-.984-.033l-.118.382c.428.132.86.14 1.215.035.354-.105.656-.331.764-.678l-.382-.118Zm-2.014-4.152c.366.144.651.367.819.602.169.237.206.461.138.634l.372.147c.134-.341.033-.709-.185-1.013-.219-.307-.57-.574-.997-.743l-.147.373Zm-1.543.251c.068-.172.248-.311.534-.369.283-.057.643-.027 1.009.118l.147-.373c-.427-.168-.866-.212-1.236-.137-.367.074-.691.274-.826.615l.372.146Zm.957 1.237c-.366-.144-.651-.368-.819-.603-.169-.236-.206-.461-.138-.634l-.372-.146c-.134.341-.033.708.185 1.013.219.307.57.574.997.742l.147-.372Zm1.543-.252c-.068.173-.248.312-.533.37-.283.057-.644.026-1.01-.118l-.147.372c.427.169.867.213 1.236.138.367-.074.692-.274.826-.615l-.372-.147Z" mask="url(#h)"/><mask id="i" fill="#fff"><path fill-rule="evenodd" d="m28.189 225.794 5.398-.801-1.386-4.266c-.269-.83-1.398-.941-1.823-.18l-2.3 4.111a1 1 0 0 0 .11 1.136Zm-2.086.309 1.484-.22a1.956 1.956 0 0 0-1.068.043c-.15.047-.29.107-.416.177Zm-1.276-.795c-.164-.528.345-1.154 1.136-1.4.792-.245 1.566-.016 1.73.511.163.528-.346 1.154-1.137 1.4-.791.245-1.566.016-1.73-.511Zm1.061-2.901c-.202-.514.277-1.184 1.07-1.497.793-.312 1.6-.149 1.802.365.203.514-.276 1.184-1.07 1.496-.792.313-1.6.149-1.802-.364Z" clip-rule="evenodd"/></mask><path fill="#EF9C99" fill-rule="evenodd" d="m28.189 225.794 5.398-.801-1.386-4.266c-.269-.83-1.398-.941-1.823-.18l-2.3 4.111a1 1 0 0 0 .11 1.136Zm-2.086.309 1.484-.22a1.956 1.956 0 0 0-1.068.043c-.15.047-.29.107-.416.177Zm-1.276-.795c-.164-.528.345-1.154 1.136-1.4.792-.245 1.566-.016 1.73.511.163.528-.346 1.154-1.137 1.4-.791.245-1.566.016-1.73-.511Zm1.061-2.901c-.202-.514.277-1.184 1.07-1.497.793-.312 1.6-.149 1.802.365.203.514-.276 1.184-1.07 1.496-.792.313-1.6.149-1.802-.364Z" clip-rule="evenodd"/><path fill="#8C1B00" fill-opacity=".58" d="m28.189 225.794.03.198-.11.016-.073-.085.153-.129Zm5.398-.801.19-.062.073.225-.234.035-.03-.198Zm-1.386-4.266.19-.062-.19.062Zm-1.823-.18.174.098-.174-.098Zm-2.3 4.111.175.097-.175-.097Zm-1.975 1.445.03.198-.127-.373.097.175Zm1.484-.22.052-.193-.023.391-.03-.198Zm-1.068.043.059.191-.06-.191Zm-.556-2.018-.059-.191.06.191Zm-1.136 1.4-.191.059.19-.059Zm2.865-.889.191-.059-.19.059Zm-1.136 1.4-.06-.191.06.191Zm.402-4.909.073.187-.073-.187Zm-1.07 1.497-.186.073.186-.073Zm1.803.364-.073-.186.073.186Zm.468 2.825 5.399-.801.058.396-5.398.801-.059-.396Zm5.238-.541-1.386-4.266.38-.124 1.386 4.266-.38.124Zm-1.386-4.266a.8.8 0 0 0-1.459-.144l-.349-.195c.511-.914 1.865-.781 2.189.215l-.38.124Zm-1.459-.144-2.3 4.11-.348-.195 2.3-4.11.348.195Zm-2.3 4.11a.8.8 0 0 0 .09.909l-.306.259a1.2 1.2 0 0 1-.132-1.363l.349.195Zm-2.178 1.15 1.483-.22.059.396-1.483.22-.06-.396Zm.385-.17a2.153 2.153 0 0 1 1.18-.045l-.104.386a1.758 1.758 0 0 0-.957.041l-.119-.382Zm-.453.193c.139-.077.291-.142.453-.193l.119.382a2.015 2.015 0 0 0-.378.161l-.194-.35Zm.017-1.829c-.364.113-.653.311-.83.529-.18.22-.23.441-.175.621l-.382.118c-.108-.348.013-.704.246-.991.234-.288.594-.526 1.022-.659l.119.382Zm1.478.379c-.056-.18-.223-.332-.495-.412-.27-.08-.62-.079-.983.033l-.119-.382c.428-.132.86-.14 1.216-.035.354.105.655.331.763.678l-.382.118Zm-1.005 1.15c.364-.113.653-.311.83-.529.18-.22.231-.441.175-.621l.382-.118c.108.348-.013.704-.246.991-.233.288-.594.526-1.022.659l-.118-.382Zm-1.478-.379c.056.18.223.332.495.412.27.08.62.079.983-.033l.119.382c-.428.132-.86.14-1.216.035-.354-.105-.655-.331-.763-.678l.382-.118Zm2.013-4.152c-.366.144-.65.367-.819.602-.169.237-.206.461-.137.634l-.373.147c-.134-.341-.033-.709.185-1.013.22-.307.57-.574.997-.743l.147.373Zm1.543.251c-.068-.172-.248-.311-.533-.369-.283-.057-.644-.027-1.01.118l-.147-.373c.427-.168.867-.212 1.236-.137.367.074.692.274.826.615l-.372.146Zm-.957 1.237c.366-.144.651-.368.82-.603.168-.236.205-.461.137-.634l.372-.146c.135.341.033.708-.184 1.013-.22.307-.57.574-.998.742l-.146-.372Zm-1.543-.252c.069.173.248.312.534.37.283.057.644.026 1.01-.118l.146.372c-.427.169-.866.213-1.235.138-.367-.074-.692-.274-.827-.615l.372-.147Z" mask="url(#i)"/><ellipse cx="115.165" cy="7.73" fill="#D9D9D9" rx="7.5" ry="3.5" transform="rotate(18.801 115.165 7.73)"/><path fill="#D9D9D9" d="M151.437 37.5c-1.269 1.458-7.896-7.398-14.101-12.798-6.205-5.4-11.4-8.762-10.131-10.22 1.269-1.458 8.522-.46 14.726 4.94 6.205 5.4 10.775 16.62 9.506 18.078Z"/><ellipse cx="96.438" cy="62" fill="#93A4FF" fill-opacity=".42" rx="68.5" ry="62"/><path stroke="#000C7C" stroke-opacity=".72" stroke-width=".3" d="M164.788 62c0 34.145-30.587 61.85-68.35 61.85-37.764 0-68.35-27.705-68.35-61.85S58.674.15 96.438.15c37.763 0 68.35 27.705 68.35 61.85Z"/><path fill="#8C1B00" d="M135.119 134.916c.526-.484 7.237-2.25 10.438-2.733l.603 4.414c-3.324.501-9.98 1.091-10.636.786-.656-.306-.874-.711-.901-.876-.054-.329-.03-1.107.496-1.591ZM135.622 142.496c.586-.227 8.852 1.171 12.073 2.057l.804 4.947c-3.344-.921-12.223-4.006-12.825-4.561-.603-.554-.761-1.019-.764-1.181-.007-.326.126-1.035.712-1.262ZM137.463 138.752c.45-.372 6.591-.129 9.241 0l.796 3.748c-2.752-.134-9.264-.854-9.792-1.273-.529-.42-.693-.855-.71-1.02-.033-.33.015-1.083.465-1.455ZM59.395 130.835c-.566-.437-7.402-1.626-10.633-1.835l-.477 4.327c3.355.217 10.288.36 10.916 0 .627-.36.81-.782.823-.949.026-.332-.064-1.106-.63-1.543ZM59.538 138.431c-.603-.177-8.906 1.912-12.039 3.069l-.5 5c3.253-1.202 12.142-5.027 12.695-5.631.554-.603.671-1.08.66-1.242-.02-.325-.212-1.02-.816-1.196ZM57.385 134.856c-.48-.332-6.578.433-9.207.786l-.475 3.803c2.73-.368 9.158-1.639 9.648-2.102.491-.463.619-.911.62-1.076.005-.332-.106-1.078-.586-1.411Z"/><defs><filter id="a" width="15.492" height="21.857" x="141.361" y="153.359" color-interpolation-filters="sRGB" filterUnits="userSpaceOnUse"><feFlood flood-opacity="0" result="BackgroundImageFix"/><feColorMatrix in="SourceAlpha" result="hardAlpha" values="0 0 0 0 0 0 0 0 0 0 0 0 0 0 0 0 0 0 127 0"/><feOffset dy="1"/><feGaussianBlur stdDeviation="2"/><feComposite in2="hardAlpha" operator="out"/><feColorMatrix values="0 0 0 0 0.54902 0 0 0 0 0.105882 0 0 0 0 0 0 0 0 1 0"/><feBlend in2="BackgroundImageFix" result="effect1_dropShadow_2062_674"/><feBlend in="SourceGraphic" in2="effect1_dropShadow_2062_674" result="shape"/></filter><filter id="b" width="119" height="107.577" x="36.938" y="21" color-interpolation-filters="sRGB" filterUnits="userSpaceOnUse"><feFlood flood-opacity="0" result="BackgroundImageFix"/><feColorMatrix in="SourceAlpha" result="hardAlpha" values="0 0 0 0 0 0 0 0 0 0 0 0 0 0 0 0 0 0 127 0"/><feOffset dy="4"/><feGaussianBlur stdDeviation="2"/><feComposite in2="hardAlpha" operator="out"/><feColorMatrix values="0 0 0 0 0.545098 0 0 0 0 0.145098 0 0 0 0 0.054902 0 0 0 0.32 0"/><feBlend in2="BackgroundImageFix" result="effect1_dropShadow_2062_674"/><feBlend in="SourceGraphic" in2="effect1_dropShadow_2062_674" result="shape"/></filter><filter id="d" width="35" height="11" x="55.938" y="56" color-interpolation-filters="sRGB" filterUnits="userSpaceOnUse"><feFlood flood-opacity="0" result="BackgroundImageFix"/><feColorMatrix in="SourceAlpha" result="hardAlpha" values="0 0 0 0 0 0 0 0 0 0 0 0 0 0 0 0 0 0 127 0"/><feOffset dx="-2" dy="-2"/><feGaussianBlur stdDeviation="2"/><feComposite in2="hardAlpha" operator="out"/><feColorMatrix values="0 0 0 0 0.831373 0 0 0 0 0.294118 0 0 0 0 0.168627 0 0 0 1 0"/><feBlend in2="BackgroundImageFix" result="effect1_dropShadow_2062_674"/><feBlend in="SourceGraphic" in2="effect1_dropShadow_2062_674" result="shape"/></filter><filter id="e" width="35" height="11" x="102.938" y="56" color-interpolation-filters="sRGB" filterUnits="userSpaceOnUse"><feFlood flood-opacity="0" result="BackgroundImageFix"/><feColorMatrix in="SourceAlpha" result="hardAlpha" values="0 0 0 0 0 0 0 0 0 0 0 0 0 0 0 0 0 0 127 0"/><feOffset dx="2" dy="-2"/><feGaussianBlur stdDeviation="2"/><feComposite in2="hardAlpha" operator="out"/><feColorMatrix values="0 0 0 0 0.831373 0 0 0 0 0.294118 0 0 0 0 0.168627 0 0 0 1 0"/><feBlend in2="BackgroundImageFix" result="effect1_dropShadow_2062_674"/><feBlend in="SourceGraphic" in2="effect1_dropShadow_2062_674" result="shape"/></filter></defs></svg>