<svg xmlns="http://www.w3.org/2000/svg" width="276" height="224" fill="none"><path fill="#F3885E" stroke="#8B250E" stroke-width=".5" d="M60.612 111.701c10.93 9.645 23.231 8.562 26.363 8.123l6.834-11.982c-.372-.001-9.384-3.722-13.495-4.807-5.14-1.356-11.59-13.225-14.26-18.6-2.667-5.373-10.385-17.545-15.28-26.28-4.895-8.734-16.804-14.73-27.543-12.747C12.493 47.391 4.935 58.028 5.583 66.08c.649 8.052 13.862 12.177 18.97 13.47 4.468 1.13 11.779-1.011 15.559 6.602 3.78 7.613 9.57 15.903 20.5 25.549Z"/><path fill="#F3885E" stroke="#8B250E" stroke-width=".5" d="M60.612 111.701c10.93 9.645 23.231 8.562 26.363 8.123l6.834-11.982c-.372-.001-9.384-3.722-13.495-4.807-5.14-1.356-11.59-13.225-14.26-18.6-2.667-5.373-10.385-17.545-15.28-26.28-4.895-8.734-16.804-14.73-27.543-12.747C12.493 47.391 4.935 58.028 5.583 66.08c.649 8.052 13.862 12.177 18.97 13.47 4.468 1.13 11.779-1.011 15.559 6.602 3.78 7.613 9.57 15.903 20.5 25.549Z"/><g filter="url(#a)"><path stroke="#8C1B00" stroke-width=".2" d="M86.08 120.15c-.177-.358 3.575-10.51 6.628-12.492"/></g><path fill="#8B250E" d="m22.222 79.074 22.96-27.442-3.416-2.613-23.77 28.214 4.226 1.841ZM12.522 74.729 35.189 46.33l-5.035-1.07L7.855 71.453l4.667 3.276ZM32.625 80.59l19.316-20.57-3.505-5.589-20.7 25.566 3.162.076 1.727.516Z"/><path fill="#F3885E" stroke="#8B250E" stroke-width=".5" d="M199.771 114.643c-4.306-7.919-9.609-10.962-9.772-11.435l-11.726 11.99c3.162-.035 5.758 5.945 7.538 9.562 1.779 3.617 9.189 15.868 12.223 18.523 3.034 2.654 7.76 1.02 8.489-4.522.729-5.543-2.393-16.102-6.752-24.118Z"/><path fill="#F3885E" stroke="#8C1B00" stroke-width=".3" d="M136.327 130.838c8.976-10.137 6.732-17.459 4.488-19.852-10.347-6.195-31.64-14.615-34.034 1.267-2.992 19.853 1.87 37.171 2.992 40.972 1.122 3.802 9.724 21.12 15.334 14.362 4.488-5.407.374-21.402-2.244-28.723.748 1.549 4.488 2.112 13.464-8.026Z"/><path fill="#F3885E" stroke="#8B250E" stroke-width=".3" d="m145.394 78.243.01-.002c31.784-9.638 52.103-14.391 64.776-15.79 6.337-.7 10.749-.558 13.72.222 2.966.778 4.479 2.186 5.065 4.016.591 1.845.252 4.157-.579 6.768-.77 2.416-1.952 5.062-3.173 7.796l-.29.648c-1.32 2.959-2.649 6.003-3.507 8.934-.857 2.931-1.248 5.766-.675 8.302 2.24 9.92-3.205 20.624-13.897 29.914-10.686 9.286-26.584 17.132-45.163 21.327-18.579 4.195-36.306 3.942-49.945.148-13.646-3.795-23.162-11.121-25.402-21.041-2.24-9.921 3.205-20.624 13.897-29.915 10.686-9.286 26.584-17.132 45.163-21.327Z"/><path fill="#FFE2C8" d="M139.069 133.167c-16.376 1.645-23.905 11.082-25.623 17.662 2.652.465 3.503.991 11.722 1.96 6.917.815 13.2.522 19.719.439 4.03-.052 20.146-3.658 21.235-3.915 6.194-1.459 12.206-4.208 16.719-6.119.918-.216 5.732-9.199-3.824-12.759-12.326-4.591-21.141.843-39.948 2.732Z"/><path fill="#DF6332" stroke="#8C1B00" stroke-width=".2" d="M223.254 29.594a1.9 1.9 0 0 1 3.133 0L241.64 51.81c.866 1.26-.037 2.975-1.566 2.975h-30.507c-1.529 0-2.432-1.714-1.566-2.975l15.253-22.216Z"/><g filter="url(#b)"><mask id="c" fill="#fff"><path fill-rule="evenodd" d="M214.158 30.854a2 2 0 0 0-3.217 0l-14.696 19.874a2.024 2.024 0 0 0-.321.647C185.63 58.527 179 69.736 179 82.338c0 21.598 19.476 39.106 43.5 39.106S266 103.936 266 82.338c0-21.354-19.037-38.71-42.685-39.1l-9.157-12.384Z" clip-rule="evenodd"/></mask><path fill="#F3885E" fill-rule="evenodd" d="M214.158 30.854a2 2 0 0 0-3.217 0l-14.696 19.874a2.024 2.024 0 0 0-.321.647C185.63 58.527 179 69.736 179 82.338c0 21.598 19.476 39.106 43.5 39.106S266 103.936 266 82.338c0-21.354-19.037-38.71-42.685-39.1l-9.157-12.384Z" clip-rule="evenodd"/><path fill="#8C1B00" d="m210.941 30.854.242.179-.242-.179Zm3.217 0-.242.179.242-.179Zm-17.913 19.874-.241-.178.241.178Zm-.321.647.172.247.088-.062.029-.102-.289-.083Zm27.391-8.137-.241.178.088.12.148.002.005-.3Zm-12.132-12.205a1.7 1.7 0 0 1 2.733 0l.483-.357a2.3 2.3 0 0 0-3.699 0l.483.357Zm-14.696 19.873 14.696-19.873-.483-.357-14.696 19.874.483.356Zm-.274.552c.054-.189.143-.375.274-.552l-.483-.356a2.31 2.31 0 0 0-.368.743l.577.165ZM179.3 82.338c0-12.491 6.571-23.613 16.796-30.716l-.343-.493c-10.365 7.2-17.053 18.497-17.053 31.209h.6Zm43.2 38.806c-23.89 0-43.2-17.403-43.2-38.806h-.6c0 21.793 19.641 39.406 43.8 39.406v-.6Zm43.2-38.806c0 21.403-19.31 38.806-43.2 38.806v.6c24.159 0 43.8-17.613 43.8-39.406h-.6Zm-42.39-38.8c23.515.388 42.39 17.639 42.39 38.8h.6c0-21.546-19.198-39.007-42.98-39.4l-.01.6Zm-9.394-12.505 9.158 12.383.482-.357-9.157-12.383-.483.357Z" mask="url(#c)"/></g><g filter="url(#d)"><circle cx="241.32" cy="72.635" r="13.5" fill="#EDDFD2"/><circle cx="241.32" cy="72.635" r="13.35" stroke="#8C1B00" stroke-width=".3"/></g><ellipse cx="244.32" cy="72.136" fill="#2B0000" rx="10.5" ry="11"/><mask id="e" fill="#fff"><path fill-rule="evenodd" d="M214.805 33.351c-.482-.825-1.744-.496-1.84.481l-.848 8.587c2.934-.573 5.696-.467 8.141.263l-5.453-9.33Z" clip-rule="evenodd"/></mask><path fill="#EF9C99" fill-rule="evenodd" d="M214.805 33.351c-.482-.825-1.744-.496-1.84.481l-.848 8.587c2.934-.573 5.696-.467 8.141.263l-5.453-9.33Z" clip-rule="evenodd"/><path fill="#8C1B00" fill-opacity=".58" d="m212.965 33.832-.299-.03.299.03Zm1.84-.48.259-.152-.259.151Zm-2.688 9.067-.298-.03-.04.402.396-.077-.058-.295Zm8.141.263-.086.287.729.217-.384-.656-.259.152Zm-6.995-8.82a.738.738 0 0 1 .553-.656.629.629 0 0 1 .73.297l.518-.303c-.318-.544-.9-.705-1.4-.575-.497.13-.936.553-.998 1.178l.597.059Zm-.847 8.587.847-8.587-.597-.06-.847 8.588.597.059Zm-.241.265c2.892-.566 5.604-.459 7.997.255l.172-.575c-2.498-.745-5.309-.851-8.284-.27l.115.59Zm2.371-9.211 5.453 9.33.518-.303-5.453-9.33-.518.303Z" mask="url(#e)"/><path fill="#8C1B00" d="M245.036 57.456c-.542-.311-.931-7.257-1.456-9.505l3.247 2c.545 2.335 1.34 6.336.992 6.855-.349.52-.807.736-.992.779-.371.087-1.249.182-1.791-.13ZM249.126 56.518c-.451-.413-.578-2.97-1.057-5.565l2.332 1.531c.497 2.695.954 3.421.68 3.967-.274.546-1 .5-1 .5-.302.056-.504-.021-.955-.433ZM231.45 96.244c.753-.57 10.858-2.672 15.384-3.634.419-.09 4.988-.975 4.988.525 0 1.2-2.333 2.167-3.5 2.5L231.97 98.69c-1.148-.053-1.218-.593-1.252-.756-.07-.326-.02-1.12.732-1.69ZM230.003 91.022c.826-.394 11.118-1.18 15.73-1.55.427-.034 5.07-.337 4.855.88-.172.974-2.618 1.546-3.819 1.71l-16.603.991c-1.127-.148-1.119-.592-1.129-.727-.022-.271.141-.911.966-1.304ZM231.142 102.178c.751-.59 11.062-3.942 15.68-5.46.427-.141 5.092-1.603 5.154-.364.05.99-2.311 2.162-3.497 2.624l-16.7 5.136c-1.184.139-1.278-.295-1.32-.424-.085-.258-.067-.922.683-1.512Z"/><path fill="#8C1B00" fill-rule="evenodd" d="m265.528 89.536-3.535 3.75a.577.577 0 0 1-.745.065l-.057-.042a.434.434 0 0 1-.059-.662l4.134-4.383a.53.53 0 0 1 .146-.11c.099.43.141.897.116 1.382Z" clip-rule="evenodd"/><mask id="f" fill="#fff"><path fill-rule="evenodd" d="M265.387 85.755a9.375 9.375 0 0 0 .434-2.852 9.176 9.176 0 0 0-.668-3.494l-4.184-.066a.499.499 0 0 0-.394.815l4.411 5.412a.5.5 0 0 0 .401.185Z" clip-rule="evenodd"/></mask><path fill="#EF9C99" fill-rule="evenodd" d="M265.387 85.755a9.375 9.375 0 0 0 .434-2.852 9.176 9.176 0 0 0-.668-3.494l-4.184-.066a.499.499 0 0 0-.394.815l4.411 5.412a.5.5 0 0 0 .401.185Z" clip-rule="evenodd"/><path fill="#8C1B00" fill-opacity=".79" d="m265.387 85.755.007.3.214-.005.065-.203-.286-.092Zm-.234-6.346.277-.114-.075-.182-.197-.004-.005.3Zm-4.184-.066.004-.3-.004.3Zm-.394.815-.233.19.233-.19Zm4.411 5.412.233-.189-.233.19Zm.535-2.667c0 .985-.151 1.92-.42 2.76l.572.184a9.697 9.697 0 0 0 .448-2.944h-.6Zm-.646-3.379c.41.99.646 2.144.646 3.379h.6a9.47 9.47 0 0 0-.691-3.608l-.555.23Zm-3.911.119 4.184.066.01-.6-4.185-.066-.009.6Zm-.157.325a.2.2 0 0 1 .157-.325l.009-.6a.799.799 0 0 0-.631 1.304l.465-.379Zm4.412 5.413-4.412-5.413-.465.38 4.412 5.412.465-.379Zm.161.074a.198.198 0 0 1-.161-.074l-.465.379c.164.202.404.3.64.295l-.014-.6Z" mask="url(#f)"/><path fill="#F3885E" d="M118.327 146.838c8.976-10.137 6.732-17.459 4.488-19.852-10.347-6.195-31.64-14.615-34.034 1.267-2.992 19.853 1.87 37.171 2.992 40.972 1.122 3.802 9.724 21.12 15.334 14.362 4.488-5.407.374-21.402-2.244-28.723.748 1.549 4.488 2.112 13.464-8.026Z"/><path stroke="#8B250E" stroke-width=".3" d="M88.78 128.253c-2.991 19.852 1.87 37.171 2.992 40.972 1.122 3.802 9.724 21.12 15.334 14.362 4.488-5.407.374-21.402-2.244-28.723.748 1.549 4.489 2.112 13.464-8.026 2.999-3.234 8.396-11.103 5.996-16.703"/><path fill="#F3885E" d="M189.771 122.643c-4.306-7.919-9.609-10.962-9.772-11.435l-11.726 11.99c3.162-.035 5.758 5.945 7.538 9.562 1.779 3.617 9.189 15.868 12.223 18.523 3.034 2.654 7.76 1.02 8.489-4.522.729-5.543-2.393-16.102-6.752-24.118Z"/><path stroke="#8B250E" stroke-width=".5" d="M169.321 121.135c.549 2.437 4.71 8.008 6.489 11.625 1.78 3.617 9.19 15.869 12.224 18.523 3.034 2.654 7.759 1.021 8.488-4.522.729-5.542-2.393-16.102-6.751-24.118-1.816-3.336-2.449-4.008-6.95-7.507"/><path fill="#8C1B00" d="M105.244 179.951c.078.214 1.665 2.11 2.373 2.963l.395-.532c-.736-.885-2.254-2.681-2.438-2.782-.184-.101-.274-.08-.296-.056-.044.047-.112.194-.034.407ZM102.761 181.339c.079.228 1.589 2.527 2.264 3.559l.582-.219c-.7-1.073-2.393-3.424-2.563-3.577-.17-.152-.25-.159-.269-.143-.038.031-.094.151-.014.38ZM102.161 182.13c.029.188.904 2.179 1.294 3.073l.51-.096c-.405-.928-1.421-2.984-1.535-3.125-.115-.141-.18-.157-.198-.147-.036.02-.1.106-.071.295ZM103.882 180.55c.103.247 2.014 2.533 2.868 3.56l.398-.557c-.887-1.067-2.714-3.234-2.926-3.366-.212-.131-.31-.116-.333-.092-.045.049-.11.207-.007.455ZM123.782 163.98c.006.234.891 2.543 1.285 3.58l.534-.428c-.408-1.077-1.261-3.269-1.4-3.418-.14-.149-.231-.151-.259-.133-.055.036-.166.165-.16.399ZM121.03 164.722c.002.249.488 3.206.793 4.414h.499c-.317-1.255-.843-4.38-.953-4.577-.111-.197-.184-.224-.206-.213-.045.021-.135.127-.133.376ZM120.223 165.357c-.032.196.159 2.415.242 3.41l.506.037c-.087-1.034-.389-3.354-.452-3.525-.063-.171-.118-.204-.138-.198-.039.01-.126.08-.158.276ZM122.325 164.224c.019.275 1.084 3.058 1.558 4.308l.546-.455c-.492-1.297-1.516-3.94-1.673-4.127-.156-.187-.253-.197-.282-.178-.057.036-.168.178-.149.452ZM204.448 136.535c.009.274.638 3.537 1.016 4.874l.568.013c-.393-1.388-1.073-4.837-1.204-5.056-.13-.22-.214-.252-.239-.241-.051.023-.15.137-.141.41ZM203.548 137.213c-.032.214.819 4.551.94 5.647l.834-.225c-.125-1.138-1.364-5.31-1.44-5.5-.075-.19-.139-.227-.161-.222-.045.01-.142.085-.173.3ZM194.756 143.618c.009.274.638 3.537 1.017 4.873l.567.013c-.393-1.387-1.072-4.836-1.203-5.056-.131-.219-.214-.252-.24-.24-.05.022-.15.136-.141.41ZM193.856 144.295c-.031.215.847 5.244.967 6.341l.808-.918c-.126-1.139-1.364-5.311-1.44-5.501-.076-.19-.14-.227-.162-.222-.045.011-.142.085-.173.3Z"/><mask id="g" fill="#fff"><path fill-rule="evenodd" d="M185.308 147.354c.054-.245.188-.476.406-.638l2.314-1.725c.605-.451 1.413-.052 1.476.729l.258 3.166c.067.826-.742 1.428-1.412 1.053l-2.571-1.442-.003-.002a8.19 8.19 0 0 1-.468-1.141Zm6.466 4.661.042-.008c-.047-.304-.199-.693-.437-1.073-.431-.69-.98-1.093-1.227-.9-.247.194-.098.909.332 1.599.108.172.222.326.337.457.316.008.634-.016.953-.075Zm-1.096.069a3.641 3.641 0 0 0-.2-.362c-.43-.69-.98-1.093-1.227-.9-.17.133-.153.515.016.966.457.168.93.269 1.411.296Zm-2.141-.629a3.81 3.81 0 0 0-.247-.521c-.413-.731-.966-1.194-1.234-1.036-.078.046-.123.14-.138.268a6.32 6.32 0 0 0 1.619 1.289Zm3.3-1.342c.267-.158.149-.878-.264-1.608-.414-.731-.966-1.194-1.234-1.036-.268.159-.15.879.264 1.609.413.73.966 1.194 1.234 1.035Z" clip-rule="evenodd"/></mask><path fill="#EF9C99" fill-rule="evenodd" d="M185.308 147.354c.054-.245.188-.476.406-.638l2.314-1.725c.605-.451 1.413-.052 1.476.729l.258 3.166c.067.826-.742 1.428-1.412 1.053l-2.571-1.442-.003-.002a8.19 8.19 0 0 1-.468-1.141Zm6.466 4.661.042-.008c-.047-.304-.199-.693-.437-1.073-.431-.69-.98-1.093-1.227-.9-.247.194-.098.909.332 1.599.108.172.222.326.337.457.316.008.634-.016.953-.075Zm-1.096.069a3.641 3.641 0 0 0-.2-.362c-.43-.69-.98-1.093-1.227-.9-.17.133-.153.515.016.966.457.168.93.269 1.411.296Zm-2.141-.629a3.81 3.81 0 0 0-.247-.521c-.413-.731-.966-1.194-1.234-1.036-.078.046-.123.14-.138.268a6.32 6.32 0 0 0 1.619 1.289Zm3.3-1.342c.267-.158.149-.878-.264-1.608-.414-.731-.966-1.194-1.234-1.036-.268.159-.15.879.264 1.609.413.73.966 1.194 1.234 1.035Z" clip-rule="evenodd"/><path fill="#8C1B00" fill-opacity=".58" d="m185.308 147.354-.195-.043-.012.053.017.052.19-.062Zm.406-.638.12.16-.12-.16Zm2.314-1.725.12.16-.12-.16Zm1.476.729-.199.016.199-.016Zm.258 3.166-.2.016.2-.016Zm-1.412 1.053-.098.174.098-.174Zm-2.571-1.442.098-.175-.098.175Zm-.003-.002-.178.09.027.055.053.03.098-.175Zm6.04 3.512.038.196.189-.036-.03-.19-.197.03Zm-.042.008.036.197-.036-.197Zm-.395-1.081.17-.106-.17.106Zm-1.227-.9-.123-.157.123.157Zm.332 1.599.17-.105-.17.105Zm.337.457-.15.132.058.066.087.002.005-.2Zm-.143-.006-.011.2.339.019-.147-.305-.181.086Zm-.2-.362.17-.106-.17.106Zm-1.227-.9-.123-.157.123.157Zm.016.966-.187.07.032.086.086.031.069-.187Zm-.73-.333-.096.175.478.262-.195-.509-.187.072Zm-.247-.521.174-.099-.174.099Zm-1.234-1.036-.101-.172.101.172Zm-.138.268-.198-.023-.011.091.062.067.147-.135Zm4.655-1.661.174-.099-.174.099Zm.264 1.608-.102-.172.102.172Zm-1.498-2.644.102.172-.102-.172Zm.264 1.609-.174.099.174-.099Zm-5.1-1.681a.88.88 0 0 1 .331-.521l-.239-.321c-.26.194-.42.469-.482.756l.39.086Zm.331-.521 2.314-1.725-.239-.321-2.314 1.725.239.321Zm2.314-1.725c.464-.346 1.105-.058 1.157.585l.399-.033c-.075-.918-1.05-1.428-1.795-.873l.239.321Zm1.157.585.257 3.166.399-.032-.257-3.167-.399.033Zm.257 3.166a.901.901 0 0 1-.349.801.688.688 0 0 1-.765.061l-.196.349c.413.231.868.158 1.2-.09.331-.246.548-.669.509-1.153l-.399.032Zm-1.114.862-2.571-1.442-.196.349 2.571 1.442.196-.349Zm-2.571-1.442-.002-.001-.197.349.003.001.196-.349Zm.078.084a7.975 7.975 0 0 1-.457-1.114l-.38.124c.133.409.294.8.48 1.169l.357-.179Zm5.822 3.405-.04.007.073.394.044-.009-.077-.392Zm-.567-.771c.227.364.366.727.408.998l.395-.061c-.052-.338-.216-.752-.464-1.149l-.339.212Zm-.935-.848s.013-.013.068-.001a.698.698 0 0 1 .235.123c.197.144.426.396.632.726l.339-.212c-.225-.36-.486-.655-.734-.836a1.075 1.075 0 0 0-.383-.191.467.467 0 0 0-.403.076l.246.315Zm.379 1.336a2.957 2.957 0 0 1-.394-.921.953.953 0 0 1-.023-.312c.011-.077.033-.099.038-.103l-.246-.315a.54.54 0 0 0-.188.365 1.35 1.35 0 0 0 .027.446c.066.317.222.691.447 1.051l.339-.211Zm.318.43a3.265 3.265 0 0 1-.318-.43l-.339.211c.112.181.233.343.356.483l.301-.264Zm.765-.14c-.304.057-.609.08-.911.072l-.01.4c.329.008.662-.017.994-.078l-.073-.394Zm-.878.18a4.031 4.031 0 0 0-.211-.382l-.339.212c.071.115.135.23.189.343l.361-.173Zm-.211-.382c-.225-.36-.486-.655-.734-.837a1.09 1.09 0 0 0-.383-.19.467.467 0 0 0-.403.076l.246.315s.013-.013.068-.001a.71.71 0 0 1 .236.123c.196.144.425.396.631.726l.339-.212Zm-1.52-.951c-.162.126-.201.339-.196.526.005.198.059.429.148.667l.375-.14a1.714 1.714 0 0 1-.123-.537c-.004-.15.034-.195.042-.201l-.246-.315Zm1.562 1.22a4.663 4.663 0 0 1-1.354-.285l-.138.375c.474.175.967.281 1.469.309l.023-.399Zm-1.966-.502a4.09 4.09 0 0 0-.26-.548l-.348.197c.096.169.174.336.235.494l.373-.143Zm-.26-.548c-.215-.38-.471-.699-.717-.905a1.227 1.227 0 0 0-.379-.229.49.49 0 0 0-.413.025l.203.344c.001 0 .005-.002.016-.003.013 0 .034.002.066.013a.838.838 0 0 1 .25.156c.201.168.428.446.626.796l.348-.197Zm-1.509-1.109c-.157.093-.217.262-.235.417l.397.046a.327.327 0 0 1 .025-.097c.009-.017.015-.021.016-.022l-.203-.344Zm1.678 1.553a6.085 6.085 0 0 1-1.567-1.248l-.295.27a6.491 6.491 0 0 0 1.67 1.329l.192-.351Zm2.766-2.676c.198.35.321.69.364.953a.871.871 0 0 1 .007.303.179.179 0 0 1-.023.067c-.006.012-.011.015-.012.015l.203.345a.505.505 0 0 0 .225-.349 1.29 1.29 0 0 0-.005-.446c-.053-.32-.196-.705-.411-1.085l-.348.197Zm-.958-.962c.001 0 .005-.002.016-.003.013 0 .034.002.065.013a.84.84 0 0 1 .251.156c.2.168.428.446.626.796l.348-.197c-.215-.38-.471-.699-.717-.905a1.227 1.227 0 0 0-.379-.229.491.491 0 0 0-.414.025l.204.344Zm.336 1.338a3.036 3.036 0 0 1-.364-.952.903.903 0 0 1-.008-.303.246.246 0 0 1 .023-.068c.007-.011.012-.014.013-.015l-.204-.344a.502.502 0 0 0-.224.349 1.29 1.29 0 0 0 .005.446c.053.319.196.704.411 1.085l.348-.198Zm.958.962c-.001.001-.005.003-.016.003a.193.193 0 0 1-.066-.012.86.86 0 0 1-.25-.156c-.201-.169-.428-.447-.626-.797l-.348.198c.215.38.471.699.717.905.122.103.251.185.379.228a.489.489 0 0 0 .413-.024l-.203-.345Z" mask="url(#g)"/><mask id="h" fill="#fff"><path fill-rule="evenodd" d="M197.64 142.871a5.113 5.113 0 0 1-.864-1.143c.028-.521.142-.901.307-.938.232-.052.475.593.543 1.44.018.225.022.443.014.641Zm1.254.868a4.222 4.222 0 0 1-.839-.505c.032-.405.127-.7.266-.756.223-.091.477.47.573 1.261Zm.043.018a8.429 8.429 0 0 1-.006-.053c-.092-.815.018-1.551.246-1.643.227-.093.487.493.579 1.308.025.226.035.446.031.649a3.93 3.93 0 0 1-.85-.261Zm-1.282-2.982c.409.706 1.535.286 1.768-.661l.621-2.528c.183-.746-.354-1.284-1.03-1.032l-1.715.641c-.676.253-1.061 1.136-.738 1.692l1.094 1.888Zm2.66 1.982c.231-.052.364-.78.296-1.627s-.311-1.492-.543-1.44c-.232.052-.364.781-.296 1.628.068.847.311 1.491.543 1.439Z" clip-rule="evenodd"/></mask><path fill="#EF9C99" fill-rule="evenodd" d="M197.64 142.871a5.113 5.113 0 0 1-.864-1.143c.028-.521.142-.901.307-.938.232-.052.475.593.543 1.44.018.225.022.443.014.641Zm1.254.868a4.222 4.222 0 0 1-.839-.505c.032-.405.127-.7.266-.756.223-.091.477.47.573 1.261Zm.043.018a8.429 8.429 0 0 1-.006-.053c-.092-.815.018-1.551.246-1.643.227-.093.487.493.579 1.308.025.226.035.446.031.649a3.93 3.93 0 0 1-.85-.261Zm-1.282-2.982c.409.706 1.535.286 1.768-.661l.621-2.528c.183-.746-.354-1.284-1.03-1.032l-1.715.641c-.676.253-1.061 1.136-.738 1.692l1.094 1.888Zm2.66 1.982c.231-.052.364-.78.296-1.627s-.311-1.492-.543-1.44c-.232.052-.364.781-.296 1.628.068.847.311 1.491.543 1.439Z" clip-rule="evenodd"/><path fill="#8C1B00" fill-opacity=".58" d="m197.64 142.871-.141.142.322.317.019-.451-.2-.008Zm-.864-1.143-.2-.01-.003.057.028.051.175-.098Zm.307-.938.044.195-.044-.195Zm.543 1.44.199-.016-.199.016Zm1.268 1.509-.082.182.324.145-.043-.352-.199.025Zm-.839-.505-.199-.016-.009.108.086.066.122-.158Zm.266-.756-.075-.185.075.185Zm.616 1.279-.198.025.014.113.104.046.08-.184Zm-.006-.053-.199.023.199-.023Zm.246-1.643.075.185-.075-.185Zm.579 1.308.198-.023-.198.023Zm.031.649-.036.196.232.043.004-.236-.2-.003Zm-.364-3.904.194.048-.194-.048Zm-1.768.661-.174.1.174-.1Zm2.389-3.189-.194-.048.194.048Zm-1.03-1.032-.07-.187.07.187Zm-1.715.641-.07-.187.07.187Zm-.738 1.692.173-.1-.173.1Zm4.05 2.243-.199.016.199-.016Zm-.296 1.627.043.195-.043-.195Zm-.247-3.067.044.195-.044-.195Zm-.296 1.628-.2.016.2-.016Zm-1.992 1.41a4.909 4.909 0 0 1-.83-1.097l-.349.195c.249.444.551.845.898 1.187l.281-.285Zm-.741-2.133a.398.398 0 0 0-.233.169.935.935 0 0 0-.118.253c-.06.187-.098.43-.112.701l.399.021c.014-.251.048-.458.094-.6a.575.575 0 0 1 .064-.145c.02-.028.021-.015-.006-.009l-.088-.39Zm.786 1.619a4.256 4.256 0 0 0-.222-1.112 1.255 1.255 0 0 0-.194-.357c-.075-.087-.203-.187-.37-.15l.088.39c-.051.012-.062-.027-.023.019a.863.863 0 0 1 .125.24c.09.238.165.591.198 1.002l.398-.032Zm.015.665a5.59 5.59 0 0 0-.015-.665l-.398.032c.017.218.021.427.013.616l.4.017Zm1.136.677a3.996 3.996 0 0 1-.799-.48l-.244.316c.273.211.567.389.879.529l.164-.365Zm-.73-1.263a.424.424 0 0 0-.185.156.86.86 0 0 0-.102.211 2.376 2.376 0 0 0-.103.558l.398.032c.016-.193.046-.35.083-.46a.484.484 0 0 1 .053-.113c.016-.023.02-.019.006-.014l-.15-.37Zm.847 1.421c-.05-.407-.141-.766-.256-1.019a.99.99 0 0 0-.21-.317c-.089-.081-.227-.148-.381-.085l.15.37c-.043.018-.065-.013-.04.01.028.026.07.084.117.188.092.203.176.519.223.902l.397-.049Zm.043.019-.006-.051-.398.045.007.055.397-.049Zm-.006-.051a4.129 4.129 0 0 1 .002-1.041c.02-.139.049-.247.081-.32.035-.082.058-.083.039-.075l-.151-.371c-.132.054-.209.18-.255.288a1.702 1.702 0 0 0-.11.419 4.628 4.628 0 0 0-.004 1.145l.398-.045Zm.122-1.436c-.044.018-.066-.015-.039.011.03.028.073.09.121.198.094.212.178.541.223.936l.397-.045c-.047-.42-.138-.791-.254-1.053a1.039 1.039 0 0 0-.212-.327c-.089-.083-.228-.155-.387-.091l.151.371Zm.305 1.145c.024.218.034.43.03.623l.4.007a5.112 5.112 0 0 0-.033-.675l-.397.045Zm.267.43a3.699 3.699 0 0 1-.807-.247l-.16.367c.285.123.583.216.894.273l.073-.393Zm-.595-3.755a1.163 1.163 0 0 1-.694.811c-.298.111-.565.043-.707-.203l-.347.201c.267.461.768.536 1.194.377a1.56 1.56 0 0 0 .942-1.09l-.388-.096Zm.621-2.528-.621 2.528.388.096.621-2.529-.388-.095Zm-.766-.797c.274-.102.492-.038.626.096.137.137.218.382.14.701l.388.095c.105-.427.009-.824-.245-1.079-.258-.258-.647-.338-1.049-.187l.14.374Zm-1.715.642 1.715-.642-.14-.374-1.715.641.14.375Zm-.635 1.404c-.121-.208-.119-.497.005-.78.122-.28.351-.52.63-.624l-.14-.375c-.397.148-.698.476-.857.839-.158.362-.187.792.016 1.141l.346-.201Zm1.094 1.887-1.094-1.887-.346.201 1.093 1.887.347-.201Zm2.584.472c.033.41.016.786-.034 1.06-.025.138-.056.24-.089.305-.037.076-.053.059-.018.051l.087.39c.151-.033.239-.161.29-.263a1.59 1.59 0 0 0 .124-.412c.057-.315.073-.727.038-1.163l-.398.032Zm-.3-1.261c-.052.012-.062-.027-.023.019a.869.869 0 0 1 .125.239c.089.238.164.592.198 1.003l.398-.032a4.247 4.247 0 0 0-.222-1.112 1.232 1.232 0 0 0-.195-.357c-.074-.088-.202-.187-.369-.15l.088.39Zm-.141 1.417a4.274 4.274 0 0 1 .033-1.06c.025-.138.057-.241.09-.306.037-.076.052-.058.018-.051l-.088-.39c-.15.034-.239.162-.289.264a1.583 1.583 0 0 0-.124.411 4.65 4.65 0 0 0-.039 1.164l.399-.032Zm.3 1.26c.051-.011.062.027.023-.018a.863.863 0 0 1-.125-.24 3.852 3.852 0 0 1-.198-1.002l-.399.032c.036.436.116.828.223 1.111.053.14.117.266.194.358.074.087.202.187.369.149l-.087-.39Z" mask="url(#h)"/><ellipse cx="6.035" cy="3.048" fill="#D9D9D9" rx="6.035" ry="3.048" transform="matrix(.93598 .35206 -.29448 .95566 232.471 24)"/><path fill="#D9D9D9" d="M266.082 55.206c-1.01 1.281-6.282-6.503-11.219-11.25-4.936-4.747-9.07-7.702-8.06-8.984 1.009-1.282 6.78-.404 11.717 4.342 4.936 4.747 8.572 14.61 7.562 15.892Z"/><circle cx="221.5" cy="74.5" r="54.5" fill="#93A4FF" fill-opacity=".42"/><circle cx="221.5" cy="74.5" r="54.35" stroke="#000C7C" stroke-opacity=".72" stroke-width=".3"/><path fill="#8C1B00" d="M133.41 103.031c-.722-.902-5.495-13.036-7.41-19.031l4.5-1.5c1.988 6.225 5.227 17.942 5.212 19.253-.015 1.312-.325 1.81-.479 1.895-.307.17-1.101.285-1.823-.617ZM143.02 101.587c-.574-.984-3.856-15.459-4.905-21.488L142.5 79c1.089 6.262 3.083 20.538 2.896 21.78-.186 1.243-.55 1.661-.708 1.715-.317.107-1.094.077-1.668-.908ZM136.982 98.684c-.575-.78-2.883-12.11-3.936-17.182L136.5 80.5c1.094 5.267 3.051 16.118 2.864 17.21-.186 1.092-.551 1.495-.709 1.56-.318.13-1.097.195-1.673-.586Z"/><defs><filter id="a" width="14.787" height="20.621" x="81.975" y="104.574" color-interpolation-filters="sRGB" filterUnits="userSpaceOnUse"><feFlood flood-opacity="0" result="BackgroundImageFix"/><feColorMatrix in="SourceAlpha" result="hardAlpha" values="0 0 0 0 0 0 0 0 0 0 0 0 0 0 0 0 0 0 127 0"/><feOffset dy="1"/><feGaussianBlur stdDeviation="2"/><feComposite in2="hardAlpha" operator="out"/><feColorMatrix values="0 0 0 0 0.54902 0 0 0 0 0.105882 0 0 0 0 0 0 0 0 1 0"/><feBlend in2="BackgroundImageFix" result="effect1_dropShadow_2062_504"/><feBlend in="SourceGraphic" in2="effect1_dropShadow_2062_504" result="shape"/></filter><filter id="b" width="95" height="99.401" x="173" y="28.044" color-interpolation-filters="sRGB" filterUnits="userSpaceOnUse"><feFlood flood-opacity="0" result="BackgroundImageFix"/><feColorMatrix in="SourceAlpha" result="hardAlpha" values="0 0 0 0 0 0 0 0 0 0 0 0 0 0 0 0 0 0 127 0"/><feOffset dx="-2" dy="2"/><feGaussianBlur stdDeviation="2"/><feComposite in2="hardAlpha" operator="out"/><feColorMatrix values="0 0 0 0 0.545098 0 0 0 0 0.145098 0 0 0 0 0.054902 0 0 0 0.32 0"/><feBlend in2="BackgroundImageFix" result="effect1_dropShadow_2062_504"/><feBlend in="SourceGraphic" in2="effect1_dropShadow_2062_504" result="shape"/></filter><filter id="d" width="35" height="35" x="221.82" y="55.136" color-interpolation-filters="sRGB" filterUnits="userSpaceOnUse"><feFlood flood-opacity="0" result="BackgroundImageFix"/><feColorMatrix in="SourceAlpha" result="hardAlpha" values="0 0 0 0 0 0 0 0 0 0 0 0 0 0 0 0 0 0 127 0"/><feOffset dx="-2"/><feGaussianBlur stdDeviation="2"/><feComposite in2="hardAlpha" operator="out"/><feColorMatrix values="0 0 0 0 0.831373 0 0 0 0 0.294118 0 0 0 0 0.168627 0 0 0 1 0"/><feBlend in2="BackgroundImageFix" result="effect1_dropShadow_2062_504"/><feBlend in="SourceGraphic" in2="effect1_dropShadow_2062_504" result="shape"/></filter></defs></svg>