<svg width="241" height="244" viewBox="0 0 241 244" fill="none" xmlns="http://www.w3.org/2000/svg">
<path d="M179.005 154.469C167.944 168.515 155.083 169.838 151.803 169.978L144.264 156.907C144.653 156.826 153.919 150.379 158.167 148.181C163.478 145.434 169.793 129.651 172.389 122.56C174.986 115.468 182.611 99.0466 187.412 87.4006C192.214 75.7546 204.421 65.9271 215.685 66.0292C226.948 66.1313 235.195 77.4159 234.797 87.3229C234.399 97.23 220.767 105.069 215.487 107.732C210.867 110.062 203.172 109.031 199.495 119.078C195.817 129.125 190.067 140.423 179.005 154.469Z" fill="#F3885E" stroke="#8B250E" stroke-width="0.5"/>
<path d="M179.005 154.469C167.944 168.515 155.083 169.838 151.803 169.978L144.264 156.907C144.653 156.826 153.919 150.379 158.167 148.181C163.478 145.434 169.793 129.651 172.389 122.56C174.986 115.468 182.611 99.0466 187.412 87.4006C192.214 75.7546 204.421 65.9271 215.685 66.0292C226.948 66.1313 235.195 77.4159 234.797 87.3229C234.399 97.23 220.767 105.069 215.487 107.732C210.867 110.062 203.172 109.031 199.495 119.078C195.817 129.125 190.067 140.423 179.005 154.469Z" fill="#F3885E" stroke="#8B250E" stroke-width="0.5"/>
<g filter="url(#filter0_d_2062_674)">
<path d="M152.748 170.182C152.921 169.709 148.659 158.198 145.408 156.447" stroke="#8C1B00" stroke-width="0.2"/>
</g>
<path d="M217.902 106.655L193.017 78.2873L196.489 74.3851L222.244 103.515L217.902 106.655Z" fill="#8B250E"/>
<path d="M227.865 99.3032L203.253 69.7125L208.466 67.3345L232.616 94.3284L227.865 99.3032Z" fill="#8B250E"/>
<path d="M207.108 110.724L186.261 89.9115L189.722 82.3808L212.184 108.958L208.891 109.728L207.108 110.724Z" fill="#8B250E"/>
<path d="M138.669 100.678C142.008 112.774 145.528 130.704 149.788 157.016C150.877 175.446 150.062 188.616 147.77 198.037C145.478 207.456 141.711 213.116 136.904 216.543C132.093 219.973 126.218 221.183 119.677 221.656C116.437 221.89 113.04 221.944 109.53 221.999L109.431 222C105.891 222.056 102.239 222.116 98.5307 222.366C94.876 222.116 91.2146 222.088 87.6205 222.085C87.1875 222.084 86.7556 222.084 86.3248 222.084C83.1741 222.084 80.083 222.083 77.0959 221.947C70.3032 221.638 64.0736 220.627 58.9516 217.341C53.8353 214.058 49.8031 208.489 47.435 199.018C45.0659 189.543 44.3651 176.171 45.9092 157.299C47.9089 132.859 50.3847 115.85 53.4268 104.082C56.4699 92.3106 60.0738 85.8087 64.3106 82.3541C68.5399 78.9056 73.4266 78.4723 79.1032 78.9125C81.1118 79.0682 83.2127 79.3326 85.4159 79.6099C86.3282 79.7247 87.2579 79.8417 88.2059 79.9541C91.4402 80.3376 94.8789 80.6665 98.5307 80.6665C104.415 80.6665 109.332 79.4957 113.551 78.4909C114.572 78.2479 115.551 78.0146 116.494 77.81C121.343 76.757 125.195 76.4649 128.676 79.3966C132.176 82.3448 135.328 88.5728 138.669 100.678Z" fill="#F3885E" stroke="#8C1B00" stroke-width="0.3"/>
<g filter="url(#filter1_d_2062_674)">
<mask id="path-8-inside-1_2062_674" fill="white">
<path fill-rule="evenodd" clip-rule="evenodd" d="M125.23 22.346C124.726 20.8913 122.836 20.5276 121.829 21.6914L109.614 35.7958C105.39 34.9991 100.978 34.5767 96.4375 34.5767C91.7322 34.5767 87.1636 35.0304 82.8008 35.8843L70.286 23.0316C69.2119 21.9285 67.3465 22.4018 66.9283 23.8835L61.1389 44.3929C48.8016 52.2797 40.9375 64.2166 40.9375 77.5767C40.9375 101.325 65.7857 120.577 96.4375 120.577C127.089 120.577 151.938 101.325 151.938 77.5767C151.938 64.7546 144.694 53.2433 133.204 45.3651L125.23 22.346Z"/>
</mask>
<path fill-rule="evenodd" clip-rule="evenodd" d="M125.23 22.346C124.726 20.8913 122.836 20.5276 121.829 21.6914L109.614 35.7958C105.39 34.9991 100.978 34.5767 96.4375 34.5767C91.7322 34.5767 87.1636 35.0304 82.8008 35.8843L70.286 23.0316C69.2119 21.9285 67.3465 22.4018 66.9283 23.8835L61.1389 44.3929C48.8016 52.2797 40.9375 64.2166 40.9375 77.5767C40.9375 101.325 65.7857 120.577 96.4375 120.577C127.089 120.577 151.938 101.325 151.938 77.5767C151.938 64.7546 144.694 53.2433 133.204 45.3651L125.23 22.346Z" fill="#F3885E"/>
<path d="M121.829 21.6914L122.055 21.8878L122.055 21.8878L121.829 21.6914ZM125.23 22.346L124.947 22.4442L125.23 22.346ZM109.614 35.7958L109.558 36.0906L109.728 36.1226L109.841 35.9922L109.614 35.7958ZM82.8008 35.8843L82.5858 36.0936L82.6991 36.2099L82.8584 36.1787L82.8008 35.8843ZM70.286 23.0316L70.5009 22.8223V22.8223L70.286 23.0316ZM66.9283 23.8835L66.6395 23.802V23.802L66.9283 23.8835ZM61.1389 44.3929L61.3005 44.6456L61.3967 44.5842L61.4277 44.4744L61.1389 44.3929ZM133.204 45.3651L132.921 45.4633L132.953 45.5567L133.035 45.6125L133.204 45.3651ZM122.055 21.8878C122.912 20.8985 124.518 21.2077 124.947 22.4442L125.514 22.2478C124.934 20.5748 122.761 20.1566 121.602 21.495L122.055 21.8878ZM109.841 35.9922L122.055 21.8878L121.602 21.495L109.387 35.5994L109.841 35.9922ZM109.67 35.501C105.428 34.7008 100.996 34.2767 96.4375 34.2767V34.8767C100.959 34.8767 105.353 35.2973 109.558 36.0906L109.67 35.501ZM96.4375 34.2767C91.7129 34.2767 87.1251 34.7322 82.7431 35.5899L82.8584 36.1787C87.2022 35.3285 91.7515 34.8767 96.4375 34.8767V34.2767ZM83.0157 35.675L70.5009 22.8223L70.071 23.2409L82.5858 36.0936L83.0157 35.675ZM70.5009 22.8223C69.2657 21.5538 67.1205 22.0981 66.6395 23.802L67.217 23.965C67.5725 22.7056 69.1581 22.3033 70.071 23.2409L70.5009 22.8223ZM66.6395 23.802L60.8502 44.3114L61.4277 44.4744L67.217 23.965L66.6395 23.802ZM60.9774 44.1401C48.5761 52.0677 40.6375 64.0903 40.6375 77.5767H41.2375C41.2375 64.343 49.027 52.4916 61.3005 44.6456L60.9774 44.1401ZM40.6375 77.5767C40.6375 101.557 65.6957 120.877 96.4375 120.877V120.277C65.8757 120.277 41.2375 101.093 41.2375 77.5767H40.6375ZM96.4375 120.877C127.179 120.877 152.238 101.557 152.238 77.5767H151.637C151.637 101.093 126.999 120.277 96.4375 120.277V120.877ZM152.238 77.5767C152.238 64.6337 144.925 53.0381 133.374 45.1177L133.035 45.6125C144.463 53.4485 151.637 64.8755 151.637 77.5767H152.238ZM124.947 22.4442L132.921 45.4633L133.488 45.2669L125.514 22.2478L124.947 22.4442Z" fill="#8C1B00" mask="url(#path-8-inside-1_2062_674)"/>
</g>
<g filter="url(#filter2_d_2062_674)">
<ellipse cx="75.4375" cy="63.5" rx="13.5" ry="1.5" fill="#EDDFD2"/>
<path d="M88.7875 63.5C88.7875 63.5029 88.7869 63.5196 88.7571 63.5522C88.7265 63.5856 88.6738 63.6259 88.5917 63.6705C88.4276 63.7596 88.176 63.8501 87.8385 63.9388C87.1659 64.1155 86.1858 64.2761 84.9669 64.4116C82.5309 64.6822 79.1617 64.85 75.4375 64.85C71.7133 64.85 68.3441 64.6822 65.9081 64.4116C64.6892 64.2761 63.7091 64.1155 63.0365 63.9388C62.699 63.8501 62.4474 63.7596 62.2833 63.6705C62.2012 63.6259 62.1485 63.5856 62.1179 63.5522C62.0881 63.5196 62.0875 63.5029 62.0875 63.5C62.0875 63.4971 62.0881 63.4804 62.1179 63.4478C62.1485 63.4144 62.2012 63.3741 62.2833 63.3295C62.4474 63.2404 62.699 63.1499 63.0365 63.0612C63.7091 62.8845 64.6892 62.7239 65.9081 62.5884C68.3441 62.3178 71.7133 62.15 75.4375 62.15C79.1617 62.15 82.5309 62.3178 84.9669 62.5884C86.1858 62.7239 87.1659 62.8845 87.8385 63.0612C88.176 63.1499 88.4276 63.2404 88.5917 63.3295C88.6738 63.3741 88.7265 63.4144 88.7571 63.4478C88.7869 63.4804 88.7875 63.4971 88.7875 63.5Z" stroke="#8C1B00" stroke-width="0.3"/>
</g>
<g filter="url(#filter3_d_2062_674)">
<ellipse cx="118.438" cy="63.5" rx="13.5" ry="1.5" fill="#EDDFD2"/>
<path d="M131.788 63.5C131.788 63.5029 131.787 63.5196 131.757 63.5522C131.727 63.5856 131.674 63.6259 131.592 63.6705C131.428 63.7596 131.176 63.8501 130.838 63.9388C130.166 64.1155 129.186 64.2761 127.967 64.4116C125.531 64.6822 122.162 64.85 118.438 64.85C114.713 64.85 111.344 64.6822 108.908 64.4116C107.689 64.2761 106.709 64.1155 106.037 63.9388C105.699 63.8501 105.447 63.7596 105.283 63.6705C105.201 63.6259 105.148 63.5856 105.118 63.5522C105.088 63.5196 105.088 63.5029 105.088 63.5C105.088 63.4971 105.088 63.4804 105.118 63.4478C105.148 63.4144 105.201 63.3741 105.283 63.3295C105.447 63.2404 105.699 63.1499 106.037 63.0612C106.709 62.8845 107.689 62.7239 108.908 62.5884C111.344 62.3178 114.713 62.15 118.438 62.15C122.162 62.15 125.531 62.3178 127.967 62.5884C129.186 62.7239 130.166 62.8845 130.838 63.0612C131.176 63.1499 131.428 63.2404 131.592 63.3295C131.674 63.3741 131.727 63.4144 131.757 63.4478C131.787 63.4804 131.788 63.4971 131.788 63.5Z" stroke="#8C1B00" stroke-width="0.3"/>
</g>
<ellipse cx="75.4375" cy="63.5" rx="10.5" ry="1.5" fill="#2B0000"/>
<ellipse cx="118.438" cy="63.5" rx="10.5" ry="1.5" fill="#2B0000"/>
<mask id="path-16-inside-2_2062_674" fill="white">
<path fill-rule="evenodd" clip-rule="evenodd" d="M70.2311 26.3472C69.7002 25.7322 68.6965 25.9733 68.5029 26.7623L64.9375 41.2909C68.8947 39.1585 73.5275 37.3623 78.6169 36.0625L70.2311 26.3472Z"/>
</mask>
<path fill-rule="evenodd" clip-rule="evenodd" d="M70.2311 26.3472C69.7002 25.7322 68.6965 25.9733 68.5029 26.7623L64.9375 41.2909C68.8947 39.1585 73.5275 37.3623 78.6169 36.0625L70.2311 26.3472Z" fill="#EF9C99"/>
<path d="M68.5029 26.7623L68.7942 26.8338L68.5029 26.7623ZM70.2311 26.3472L70.004 26.5432V26.5432L70.2311 26.3472ZM64.9375 41.2909L64.6461 41.2194L64.4851 41.8755L65.0798 41.555L64.9375 41.2909ZM78.6169 36.0625L78.6911 36.3532L79.1606 36.2333L78.844 35.8665L78.6169 36.0625ZM68.7942 26.8338C68.9298 26.2815 69.6324 26.1128 70.004 26.5432L70.4582 26.1512C69.7681 25.3517 68.4632 25.6651 68.2115 26.6908L68.7942 26.8338ZM65.2289 41.3624L68.7942 26.8338L68.2115 26.6908L64.6461 41.2194L65.2289 41.3624ZM65.0798 41.555C69.0134 39.4353 73.6231 37.6475 78.6911 36.3532L78.5426 35.7718C73.4319 37.077 68.7759 38.8817 64.7952 41.0268L65.0798 41.555ZM70.004 26.5432L78.3898 36.2585L78.844 35.8665L70.4582 26.1512L70.004 26.5432Z" fill="#8C1B00" fill-opacity="0.58" mask="url(#path-16-inside-2_2062_674)"/>
<mask id="path-18-inside-3_2062_674" fill="white">
<path fill-rule="evenodd" clip-rule="evenodd" d="M123.68 25.3424C123.438 24.5882 122.456 24.4021 121.954 25.0151L112.482 36.5859C115.097 36.8926 117.763 37.4845 120.423 38.3815C123.647 39.4692 126.609 40.9206 129.244 42.6426L123.68 25.3424Z"/>
</mask>
<path fill-rule="evenodd" clip-rule="evenodd" d="M123.68 25.3424C123.438 24.5882 122.456 24.4021 121.954 25.0151L112.482 36.5859C115.097 36.8926 117.763 37.4845 120.423 38.3815C123.647 39.4692 126.609 40.9206 129.244 42.6426L123.68 25.3424Z" fill="#EF9C99"/>
<path d="M121.954 25.0151L122.187 25.2052L121.954 25.0151ZM123.68 25.3424L123.395 25.4343L123.68 25.3424ZM112.482 36.5859L112.25 36.3959L111.903 36.82L112.447 36.8839L112.482 36.5859ZM120.423 38.3815L120.518 38.0972L120.423 38.3815ZM129.244 42.6426L129.08 42.8938L129.789 43.3571L129.53 42.5508L129.244 42.6426ZM122.187 25.2052C122.538 24.7761 123.225 24.9063 123.395 25.4343L123.966 25.2506C123.65 24.2701 122.375 24.0282 121.722 24.8251L122.187 25.2052ZM112.715 36.776L122.187 25.2052L121.722 24.8251L112.25 36.3959L112.715 36.776ZM112.447 36.8839C115.041 37.1881 117.687 37.7754 120.327 38.6658L120.518 38.0972C117.84 37.1936 115.153 36.5971 112.517 36.288L112.447 36.8839ZM120.327 38.6658C123.528 39.7454 126.466 41.1857 129.08 42.8938L129.408 42.3915C126.752 40.6554 123.767 39.193 120.518 38.0972L120.327 38.6658ZM123.395 25.4343L128.958 42.7345L129.53 42.5508L123.966 25.2506L123.395 25.4343Z" fill="#8C1B00" fill-opacity="0.58" mask="url(#path-18-inside-3_2062_674)"/>
<path d="M87.5089 49.001C87.0518 48.2019 86.9375 39.8127 86.9375 35.4839L90.9375 35C90.9375 39.4953 90.8232 48.2019 90.3661 49.001C89.9089 49.8002 89.4137 50 89.2232 50C88.8423 50 87.9661 49.8002 87.5089 49.001Z" fill="#8C1B00"/>
<path d="M94.4822 48.5332C94.1192 47.7366 94.4548 38.7837 94.6527 34.57L98.141 34.5743C97.9355 38.9501 97.4156 47.8914 96.9795 48.6505C96.5434 49.4097 96.1014 49.5838 95.9349 49.576C95.602 49.5604 94.8453 49.3299 94.4822 48.5332Z" fill="#8C1B00"/>
<path d="M101.336 49.553C100.956 48.7638 100.84 39.2253 100.938 34.9999L104.934 35.114C104.834 39.5019 104.235 48.8391 103.82 49.61C103.404 50.381 102.969 50.5661 102.804 50.5623C102.472 50.5547 101.715 50.3422 101.336 49.553Z" fill="#8C1B00"/>
<path d="M132.293 78.9486C133.357 78.5603 146.152 78.7442 151.889 78.807L151.456 82.1585C145.499 82.0933 133.321 81.8601 132.266 81.4485C131.211 81.0369 130.951 80.6007 130.953 80.4341C130.957 80.1008 131.23 79.337 132.293 78.9486Z" fill="#8C1B00"/>
<path d="M130.893 86.5005C131.97 86.3712 143.737 89.5236 149.017 90.9178L147.796 94.0663C142.312 92.6185 131.127 89.5618 130.255 88.9177C129.382 88.2735 129.249 87.7902 129.291 87.6291C129.376 87.3068 129.816 86.6299 130.893 86.5005Z" fill="#8C1B00"/>
<path d="M135.243 83.1243C136.14 82.8331 146.377 84.1547 150.969 84.7276L150.236 88.0182C145.468 87.4233 135.732 86.1077 134.933 85.605C134.135 85.1024 133.977 84.6459 133.998 84.4805C134.039 84.1498 134.346 83.4154 135.243 83.1243Z" fill="#8C1B00"/>
<path d="M60.5348 78.9485C59.4714 78.5601 46.676 78.7441 40.9395 78.8068L41.3724 82.1583C47.3295 82.0932 59.5075 81.8599 60.5621 81.4484C61.6168 81.0368 61.8768 80.6006 61.875 80.434C61.8714 80.1006 61.5982 79.3369 60.5348 78.9485Z" fill="#8C1B00"/>
<path d="M61.9353 86.5004C60.8584 86.371 49.0912 89.5235 43.8109 90.9176L45.0324 94.0662C50.5158 92.6183 61.7008 89.5617 62.5736 88.9176C63.4463 88.2734 63.5794 87.7901 63.5368 87.6289C63.4517 87.3067 63.0123 86.6297 61.9353 86.5004Z" fill="#8C1B00"/>
<path d="M57.5852 83.1242C56.688 82.833 46.4512 84.1546 41.8596 84.7275L42.5922 88.0181C47.3605 87.4232 57.0966 86.1076 57.8947 85.6049C58.6929 85.1022 58.8512 84.6458 58.8306 84.4804C58.7893 84.1496 58.4824 83.4153 57.5852 83.1242Z" fill="#8C1B00"/>
<path d="M94.9375 93C97.0691 93 96.9359 90.4242 96.9359 88.9091L94.9371 88L92.9391 88.9091C92.9391 90.4242 92.806 93 94.9375 93Z" fill="#EF9C99" stroke="#8C1B00" stroke-opacity="0.58" stroke-width="0.2"/>
<path d="M94.9375 82V88" stroke="#8B250E" stroke-width="0.5"/>
<path d="M95.3436 82.418C95.1397 82.6698 94.7539 82.6642 94.5574 82.4065L90.4622 77.0361C90.2092 76.7043 90.4499 76.2269 90.8671 76.233L99.2123 76.3546C99.6295 76.3607 99.8562 76.8449 99.5936 77.1692L95.3436 82.418Z" fill="#EF9C99"/>
<path d="M95.227 82.3236C95.0843 82.4998 94.8142 82.4959 94.6767 82.3156L90.5815 76.9451C90.4044 76.7129 90.5729 76.3787 90.8649 76.3829L99.2101 76.5046C99.5021 76.5088 99.6608 76.8478 99.477 77.0748L95.227 82.3236Z" stroke="#8C1B00" stroke-opacity="0.79" stroke-width="0.3"/>
<path fill-rule="evenodd" clip-rule="evenodd" d="M95.489 87.2947C95.4629 87.2576 95.4301 87.223 95.3905 87.1925L95.3391 87.1528C95.1383 86.9644 94.7998 86.9479 94.5818 87.1162L94.5053 87.1753C94.4406 87.2252 94.3938 87.2859 94.3651 87.3514L90.0788 91.4088C89.8783 91.5986 89.8929 91.8893 90.1115 92.0581L90.188 92.1172C90.4066 92.2859 90.7464 92.2688 90.9469 92.079L94.957 88.2831L98.9671 92.079C99.1676 92.2688 99.5074 92.2859 99.7259 92.1172L99.8025 92.058C100.021 91.8893 100.036 91.5986 99.8351 91.4087L95.489 87.2947Z" fill="#8C1B00"/>
<path d="M169.936 189.5C170.123 182.622 152.937 158 145.936 160L130.047 201.941C131.002 201.904 133.91 201.935 137.906 202.352C142.9 202.875 142.861 204.308 145.531 211.362C147.667 217.005 147.659 220.823 147.388 222.026C152.833 223.485 166.574 226.866 177.971 228.715C189.369 230.564 187.588 221.455 183.238 219.206C178.051 217.021 167.25 212.525 165.547 212.018C163.843 211.512 163.934 209.933 164.192 209.208C165.961 205.56 169.749 196.378 169.936 189.5Z" fill="#F3885E"/>
<path d="M147.435 160.5C155.436 160.5 169.918 182.789 169.731 189.667C169.544 196.546 165.96 205.56 164.191 209.207C163.933 209.933 163.842 211.511 165.546 212.018C167.249 212.524 178.05 217.02 183.237 219.205C187.588 221.454 189.368 230.563 177.971 228.714C166.573 226.865 152.832 223.485 147.387 222.026C147.658 220.822 147.666 217.004 145.53 211.361C142.86 204.307 143.93 203.022 138.936 202.5" stroke="#8C1B00" stroke-width="0.3"/>
<path d="M32.154 187.668C31.967 180.789 47.3466 162.066 49.4368 160L71.8388 199.941C70.8839 199.904 67.9751 199.935 63.9797 200.352C58.9856 200.875 59.0245 202.308 56.3544 209.362C54.2182 215.005 54.2266 218.823 54.4978 220.026C49.0521 221.485 35.3114 224.866 23.914 226.715C12.5166 228.563 14.297 219.455 18.6472 217.206C23.8347 215.021 34.6356 210.525 36.3389 210.018C38.0423 209.511 37.9517 207.933 37.6935 207.208C35.9249 203.56 32.3409 194.546 32.154 187.668Z" fill="#F3885E"/>
<path d="M46.4364 163.5C44.3462 165.566 31.9673 180.788 32.1543 187.667C32.3413 194.545 35.9252 203.56 37.6938 207.207C37.952 207.933 38.0426 209.511 36.3392 210.017C34.6358 210.524 23.835 215.02 18.6474 217.205C14.2973 219.454 12.5169 228.563 23.9143 226.714C35.3117 224.865 49.0524 221.485 54.4981 220.025C54.2269 218.822 54.2185 215.004 56.3547 209.361C59.0248 202.307 58.9859 200.874 63.98 200.352" stroke="#8C1B00" stroke-width="0.3"/>
<path d="M66.0219 157.538C63.2245 131.559 83.5059 126.096 93.9963 126.611C99.9699 126.096 114.103 127.436 122.845 136.92C133.772 148.775 127.155 196.532 122.106 210.588C118.175 221.533 100.715 219.561 84.5419 219.045C68.3692 218.53 69.5187 190.01 66.0219 157.538Z" fill="#FFE2C8"/>
<path d="M115.431 215.482C116.631 211.957 121.167 174.959 123.5 154L136 143.5L144 151.5C145.5 176 140.931 202.666 136.713 218.285C136.396 219.459 134.431 226.695 127.213 228.698C122.935 229.885 116.431 230.3 112.431 225.894C108.431 221.489 113.931 219.887 115.431 215.482Z" fill="#F3885E"/>
<path d="M123.777 153.762C121.42 173.575 116.624 212.52 115.412 215.852C113.897 220.016 108.397 221.73 112.437 225.894C116.477 230.059 122.616 229.82 126.937 228.698C134.227 226.805 136.586 219.612 136.907 218.502C141.167 203.737 138.927 174.459 139.937 153.005" stroke="#8C1B00" stroke-width="0.3"/>
<path d="M80.7691 215.433C79.6407 211.996 75.1932 175.939 72.999 155.5L53.999 148.5L50.7415 161.833C51.6697 183.68 56.896 203.746 60.8454 218.91L60.999 219.5C61.2972 220.645 62.9027 226.369 69.6898 228.322C73.7129 229.479 79.8287 229.884 83.5901 225.588C87.3515 221.292 82.1796 219.729 80.7691 215.433Z" fill="#F3885E"/>
<path d="M72.9821 155.348C75.1762 174.744 79.5997 213.072 80.9363 216.283C82.4369 219.887 87.3526 221.69 83.5912 225.767C79.8298 229.844 73.714 229.46 69.6909 228.361C62.9037 226.508 61.0559 219.812 60.7577 218.725C56.7915 204.271 58.877 175.609 57.9366 154.607" stroke="#8C1B00" stroke-width="0.3"/>
<path d="M77.9396 219.37C78.0726 219.798 81.2529 223.97 82.6723 225.845L83.6569 225.03C82.1829 223.084 79.1372 219.125 78.7461 218.86C78.355 218.596 78.1497 218.598 78.0959 218.632C77.9884 218.7 77.8066 218.943 77.9396 219.37Z" fill="#8C1B00"/>
<path d="M72.1316 220.904C72.2741 221.375 75.3227 226.458 76.684 228.738L78.0379 228.594C76.6242 226.225 73.1716 220.958 72.8115 220.587C72.4514 220.217 72.2707 220.166 72.2254 220.187C72.1347 220.23 71.989 220.432 72.1316 220.904Z" fill="#8C1B00"/>
<path d="M70.6429 222.128C70.683 222.519 72.3931 226.931 73.1548 228.909L74.3237 228.975C73.5327 226.92 71.5125 222.309 71.2713 221.969C71.0302 221.629 70.8861 221.565 70.8442 221.576C70.7604 221.597 70.6028 221.737 70.6429 222.128Z" fill="#8C1B00"/>
<path d="M74.78 219.901C74.9627 220.402 78.7922 225.43 80.5024 227.689L81.4999 226.827C79.7239 224.482 76.0597 219.708 75.611 219.375C75.1623 219.042 74.9393 219.029 74.8839 219.064C74.7731 219.134 74.5972 219.4 74.78 219.901Z" fill="#8C1B00"/>
<path d="M117.828 219.329C117.701 219.777 114.565 224.114 113.166 226.063L112.157 225.188C113.611 223.164 116.615 219.049 117.005 218.778C117.395 218.506 117.602 218.512 117.657 218.549C117.767 218.622 117.955 218.881 117.828 219.329Z" fill="#8C1B00"/>
<path d="M123.719 221.047C123.583 221.541 120.596 226.839 119.263 229.217L117.893 229.04C119.278 226.571 122.67 221.086 123.027 220.702C123.384 220.318 123.565 220.268 123.612 220.291C123.704 220.337 123.854 220.553 123.719 221.047Z" fill="#8C1B00"/>
<path d="M125.244 222.363C125.211 222.774 123.563 227.389 122.829 229.459L121.65 229.507C122.412 227.357 124.369 222.538 124.607 222.184C124.844 221.831 124.989 221.766 125.031 221.778C125.116 221.802 125.278 221.952 125.244 222.363Z" fill="#8C1B00"/>
<path d="M121.028 219.944C120.853 220.468 117.076 225.696 115.39 228.044L114.368 227.119C116.119 224.68 119.733 219.718 120.18 219.376C120.627 219.033 120.852 219.023 120.909 219.061C121.022 219.137 121.204 219.42 121.028 219.944Z" fill="#8C1B00"/>
<mask id="path-51-inside-4_2062_674" fill="white">
<path fill-rule="evenodd" clip-rule="evenodd" d="M179.042 228.794L173.644 227.993L175.029 223.727C175.298 222.897 176.427 222.786 176.853 223.547L179.152 227.658C179.363 228.035 179.303 228.486 179.042 228.794ZM181.127 229.103L179.644 228.883C179.951 228.8 180.329 228.808 180.712 228.926C180.861 228.973 181.001 229.033 181.127 229.103ZM182.404 228.308C182.567 227.78 182.058 227.154 181.267 226.908C180.476 226.663 179.702 226.892 179.538 227.419C179.375 227.947 179.883 228.573 180.675 228.819C181.466 229.064 182.24 228.835 182.404 228.308ZM181.342 225.407C181.545 224.893 181.066 224.223 180.273 223.91C179.48 223.598 178.673 223.761 178.47 224.275C178.268 224.789 178.747 225.459 179.54 225.771C180.333 226.084 181.14 225.92 181.342 225.407Z"/>
</mask>
<path fill-rule="evenodd" clip-rule="evenodd" d="M179.042 228.794L173.644 227.993L175.029 223.727C175.298 222.897 176.427 222.786 176.853 223.547L179.152 227.658C179.363 228.035 179.303 228.486 179.042 228.794ZM181.127 229.103L179.644 228.883C179.951 228.8 180.329 228.808 180.712 228.926C180.861 228.973 181.001 229.033 181.127 229.103ZM182.404 228.308C182.567 227.78 182.058 227.154 181.267 226.908C180.476 226.663 179.702 226.892 179.538 227.419C179.375 227.947 179.883 228.573 180.675 228.819C181.466 229.064 182.24 228.835 182.404 228.308ZM181.342 225.407C181.545 224.893 181.066 224.223 180.273 223.91C179.48 223.598 178.673 223.761 178.47 224.275C178.268 224.789 178.747 225.459 179.54 225.771C180.333 226.084 181.14 225.92 181.342 225.407Z" fill="#EF9C99"/>
<path d="M179.042 228.794L179.012 228.992L179.122 229.008L179.194 228.923L179.042 228.794ZM173.644 227.993L173.453 227.931L173.38 228.156L173.614 228.191L173.644 227.993ZM175.029 223.727L174.839 223.665L174.839 223.665L175.029 223.727ZM176.853 223.547L176.678 223.645L176.853 223.547ZM179.152 227.658L178.978 227.755L178.978 227.755L179.152 227.658ZM181.127 229.103L181.098 229.301L181.224 228.928L181.127 229.103ZM179.644 228.883L179.592 228.69L179.614 229.081L179.644 228.883ZM180.712 228.926L180.652 229.117L180.712 228.926ZM181.267 226.908L181.326 226.717L181.267 226.908ZM182.404 228.308L182.595 228.367L182.595 228.367L182.404 228.308ZM179.538 227.419L179.347 227.36L179.347 227.36L179.538 227.419ZM180.675 228.819L180.734 228.628L180.734 228.628L180.675 228.819ZM180.273 223.91L180.199 224.097L180.199 224.097L180.273 223.91ZM181.342 225.407L181.528 225.48L181.528 225.48L181.342 225.407ZM179.54 225.771L179.613 225.585L179.613 225.585L179.54 225.771ZM179.071 228.596L173.673 227.795L173.614 228.191L179.012 228.992L179.071 228.596ZM173.834 228.055L175.219 223.789L174.839 223.665L173.453 227.931L173.834 228.055ZM175.219 223.789C175.435 223.125 176.338 223.036 176.678 223.645L177.027 223.45C176.516 222.536 175.162 222.669 174.839 223.665L175.219 223.789ZM176.678 223.645L178.978 227.755L179.327 227.56L177.027 223.45L176.678 223.645ZM178.978 227.755C179.146 228.057 179.098 228.418 178.889 228.664L179.194 228.923C179.507 228.554 179.58 228.013 179.327 227.56L178.978 227.755ZM181.157 228.905L179.673 228.685L179.614 229.081L181.098 229.301L181.157 228.905ZM180.771 228.735C180.357 228.607 179.94 228.596 179.592 228.69L179.696 229.076C179.962 229.004 180.302 229.009 180.652 229.117L180.771 228.735ZM181.224 228.928C181.085 228.851 180.933 228.786 180.771 228.735L180.652 229.117C180.789 229.16 180.916 229.214 181.03 229.278L181.224 228.928ZM181.208 227.099C181.571 227.212 181.861 227.41 182.038 227.628C182.217 227.848 182.268 228.069 182.213 228.249L182.595 228.367C182.702 228.019 182.581 227.663 182.349 227.376C182.115 227.088 181.754 226.85 181.326 226.717L181.208 227.099ZM179.729 227.478C179.785 227.298 179.952 227.146 180.224 227.066C180.494 226.986 180.845 226.987 181.208 227.099L181.326 226.717C180.898 226.585 180.466 226.577 180.111 226.682C179.757 226.787 179.455 227.013 179.347 227.36L179.729 227.478ZM180.734 228.628C180.371 228.515 180.081 228.317 179.904 228.099C179.725 227.879 179.673 227.658 179.729 227.478L179.347 227.36C179.239 227.708 179.36 228.064 179.593 228.351C179.827 228.639 180.187 228.877 180.616 229.01L180.734 228.628ZM182.213 228.249C182.157 228.429 181.99 228.581 181.718 228.661C181.448 228.741 181.097 228.74 180.734 228.628L180.616 229.01C181.044 229.142 181.476 229.15 181.831 229.045C182.185 228.94 182.487 228.714 182.595 228.367L182.213 228.249ZM180.199 224.097C180.565 224.241 180.85 224.464 181.018 224.699C181.187 224.936 181.224 225.16 181.156 225.333L181.528 225.48C181.662 225.139 181.561 224.771 181.343 224.467C181.124 224.16 180.773 223.893 180.346 223.724L180.199 224.097ZM178.656 224.348C178.724 224.176 178.904 224.037 179.19 223.979C179.473 223.922 179.833 223.952 180.199 224.097L180.346 223.724C179.919 223.556 179.48 223.512 179.11 223.587C178.743 223.661 178.419 223.861 178.284 224.202L178.656 224.348ZM179.613 225.585C179.247 225.441 178.962 225.217 178.794 224.982C178.625 224.746 178.588 224.521 178.656 224.348L178.284 224.202C178.15 224.543 178.251 224.91 178.469 225.215C178.688 225.522 179.039 225.789 179.466 225.957L179.613 225.585ZM181.156 225.333C181.088 225.506 180.908 225.645 180.623 225.703C180.34 225.76 179.979 225.729 179.613 225.585L179.466 225.957C179.893 226.126 180.333 226.17 180.702 226.095C181.069 226.021 181.394 225.821 181.528 225.48L181.156 225.333Z" fill="#8C1B00" fill-opacity="0.58" mask="url(#path-51-inside-4_2062_674)"/>
<mask id="path-53-inside-5_2062_674" fill="white">
<path fill-rule="evenodd" clip-rule="evenodd" d="M28.1887 225.794L33.5869 224.993L32.2014 220.727C31.932 219.897 30.8035 219.786 30.3776 220.547L28.0783 224.658C27.8673 225.035 27.9277 225.486 28.1887 225.794ZM26.1032 226.103L27.5867 225.883C27.2793 225.8 26.9011 225.808 26.5188 225.926C26.3693 225.973 26.2299 226.033 26.1032 226.103ZM24.8269 225.308C24.6633 224.78 25.1721 224.154 25.9634 223.908C26.7547 223.663 27.5287 223.892 27.6923 224.419C27.8558 224.947 27.347 225.573 26.5557 225.819C25.7645 226.064 24.9904 225.835 24.8269 225.308ZM25.8884 222.407C25.686 221.893 26.1647 221.223 26.9577 220.91C27.7508 220.598 28.5578 220.761 28.7602 221.275C28.9626 221.789 28.4839 222.459 27.6908 222.771C26.8978 223.084 26.0908 222.92 25.8884 222.407Z"/>
</mask>
<path fill-rule="evenodd" clip-rule="evenodd" d="M28.1887 225.794L33.5869 224.993L32.2014 220.727C31.932 219.897 30.8035 219.786 30.3776 220.547L28.0783 224.658C27.8673 225.035 27.9277 225.486 28.1887 225.794ZM26.1032 226.103L27.5867 225.883C27.2793 225.8 26.9011 225.808 26.5188 225.926C26.3693 225.973 26.2299 226.033 26.1032 226.103ZM24.8269 225.308C24.6633 224.78 25.1721 224.154 25.9634 223.908C26.7547 223.663 27.5287 223.892 27.6923 224.419C27.8558 224.947 27.347 225.573 26.5557 225.819C25.7645 226.064 24.9904 225.835 24.8269 225.308ZM25.8884 222.407C25.686 221.893 26.1647 221.223 26.9577 220.91C27.7508 220.598 28.5578 220.761 28.7602 221.275C28.9626 221.789 28.4839 222.459 27.6908 222.771C26.8978 223.084 26.0908 222.92 25.8884 222.407Z" fill="#EF9C99"/>
<path d="M28.1887 225.794L28.2181 225.992L28.1082 226.008L28.0362 225.923L28.1887 225.794ZM33.5869 224.993L33.7771 224.931L33.8502 225.156L33.6163 225.191L33.5869 224.993ZM32.2014 220.727L32.3917 220.665L32.3917 220.665L32.2014 220.727ZM30.3776 220.547L30.5522 220.645L30.3776 220.547ZM28.0783 224.658L28.2528 224.755L28.2528 224.755L28.0783 224.658ZM26.1032 226.103L26.1325 226.301L26.0061 225.928L26.1032 226.103ZM27.5867 225.883L27.6388 225.69L27.616 226.081L27.5867 225.883ZM26.5188 225.926L26.578 226.117L26.5188 225.926ZM25.9634 223.908L25.9042 223.717L25.9634 223.908ZM24.8269 225.308L24.6358 225.367L24.6358 225.367L24.8269 225.308ZM27.6923 224.419L27.8833 224.36L27.8833 224.36L27.6923 224.419ZM26.5557 225.819L26.4965 225.628L26.4965 225.628L26.5557 225.819ZM26.9577 220.91L27.0311 221.097L27.0311 221.097L26.9577 220.91ZM25.8884 222.407L25.7023 222.48L25.7023 222.48L25.8884 222.407ZM27.6908 222.771L27.6175 222.585L27.6175 222.585L27.6908 222.771ZM28.1594 225.596L33.5576 224.795L33.6163 225.191L28.2181 225.992L28.1594 225.596ZM33.3967 225.055L32.0112 220.789L32.3917 220.665L33.7771 224.931L33.3967 225.055ZM32.0112 220.789C31.7957 220.125 30.8929 220.036 30.5522 220.645L30.2031 220.45C30.7142 219.536 32.0683 219.669 32.3917 220.665L32.0112 220.789ZM30.5522 220.645L28.2528 224.755L27.9038 224.56L30.2031 220.45L30.5522 220.645ZM28.2528 224.755C28.0843 225.057 28.132 225.418 28.3412 225.664L28.0362 225.923C27.7234 225.554 27.6504 225.013 27.9038 224.56L28.2528 224.755ZM26.0739 225.905L27.5574 225.685L27.616 226.081L26.1325 226.301L26.0739 225.905ZM26.4595 225.735C26.8734 225.607 27.2905 225.596 27.6388 225.69L27.5345 226.076C27.2682 226.004 26.9288 226.009 26.578 226.117L26.4595 225.735ZM26.0061 225.928C26.145 225.851 26.2971 225.786 26.4595 225.735L26.578 226.117C26.4415 226.16 26.3148 226.214 26.2003 226.278L26.0061 225.928ZM26.0226 224.099C25.6594 224.212 25.3698 224.41 25.1923 224.628C25.0137 224.848 24.9621 225.069 25.0179 225.249L24.6358 225.367C24.5281 225.019 24.649 224.663 24.8818 224.376C25.1156 224.088 25.4761 223.85 25.9042 223.717L26.0226 224.099ZM27.5012 224.478C27.4454 224.298 27.2782 224.146 27.0065 224.066C26.7365 223.986 26.3858 223.987 26.0226 224.099L25.9042 223.717C26.3322 223.585 26.7642 223.577 27.1199 223.682C27.474 223.787 27.7755 224.013 27.8833 224.36L27.5012 224.478ZM26.4965 225.628C26.8597 225.515 27.1493 225.317 27.3268 225.099C27.5054 224.879 27.5571 224.658 27.5012 224.478L27.8833 224.36C27.991 224.708 27.8701 225.064 27.6373 225.351C27.4035 225.639 27.043 225.877 26.615 226.01L26.4965 225.628ZM25.0179 225.249C25.0737 225.429 25.2409 225.581 25.5126 225.661C25.7826 225.741 26.1333 225.74 26.4965 225.628L26.615 226.01C26.1869 226.142 25.7549 226.15 25.3992 226.045C25.0451 225.94 24.7436 225.714 24.6358 225.367L25.0179 225.249ZM27.0311 221.097C26.6651 221.241 26.3804 221.464 26.2125 221.699C26.0432 221.936 26.0064 222.16 26.0745 222.333L25.7023 222.48C25.568 222.139 25.6693 221.771 25.8871 221.467C26.1061 221.16 26.4574 220.893 26.8844 220.724L27.0311 221.097ZM28.5741 221.348C28.506 221.176 28.3262 221.037 28.0408 220.979C27.7577 220.922 27.397 220.952 27.0311 221.097L26.8844 220.724C27.3115 220.556 27.7508 220.512 28.1201 220.587C28.4871 220.661 28.8119 220.861 28.9463 221.202L28.5741 221.348ZM27.6175 222.585C27.9835 222.441 28.2682 222.217 28.4361 221.982C28.6054 221.746 28.6422 221.521 28.5741 221.348L28.9463 221.202C29.0806 221.543 28.9792 221.91 28.7615 222.215C28.5425 222.522 28.1912 222.789 27.7642 222.957L27.6175 222.585ZM26.0745 222.333C26.1426 222.506 26.3224 222.645 26.6078 222.703C26.8909 222.76 27.2516 222.729 27.6175 222.585L27.7642 222.957C27.3371 223.126 26.8978 223.17 26.5285 223.095C26.1615 223.021 25.8367 222.821 25.7023 222.48L26.0745 222.333Z" fill="#8C1B00" fill-opacity="0.58" mask="url(#path-53-inside-5_2062_674)"/>
<ellipse cx="115.165" cy="7.73039" rx="7.5" ry="3.5" transform="rotate(18.8012 115.165 7.73039)" fill="#D9D9D9"/>
<path d="M151.437 37.5C150.168 38.9581 143.541 30.1021 137.336 24.7021C131.131 19.3021 125.936 15.9401 127.205 14.4819C128.474 13.0238 135.727 14.0218 141.931 19.4217C148.136 24.8217 152.706 36.0419 151.437 37.5Z" fill="#D9D9D9"/>
<ellipse cx="96.4375" cy="62" rx="68.5" ry="62" fill="#93A4FF" fill-opacity="0.42"/>
<path d="M164.788 62C164.788 96.1451 134.201 123.85 96.4375 123.85C58.6744 123.85 28.0875 96.1451 28.0875 62C28.0875 27.8549 58.6744 0.15 96.4375 0.15C134.201 0.15 164.788 27.8549 164.788 62Z" stroke="#000C7C" stroke-opacity="0.72" stroke-width="0.3"/>
<path d="M135.119 134.916C135.645 134.432 142.356 132.666 145.557 132.183L146.16 136.597C142.836 137.098 136.18 137.688 135.524 137.383C134.868 137.077 134.65 136.672 134.623 136.507C134.569 136.178 134.593 135.4 135.119 134.916Z" fill="#8C1B00"/>
<path d="M135.622 142.496C136.208 142.269 144.474 143.667 147.695 144.553L148.499 149.5C145.155 148.579 136.276 145.494 135.674 144.939C135.071 144.385 134.913 143.92 134.91 143.758C134.903 143.432 135.036 142.723 135.622 142.496Z" fill="#8C1B00"/>
<path d="M137.463 138.752C137.913 138.38 144.054 138.623 146.704 138.752L147.5 142.5C144.748 142.366 138.236 141.646 137.708 141.227C137.179 140.807 137.015 140.372 136.998 140.207C136.965 139.877 137.013 139.124 137.463 138.752Z" fill="#8C1B00"/>
<path d="M59.3946 130.835C58.8292 130.398 51.9927 129.209 48.7621 129L48.2853 133.327C51.6402 133.544 58.573 133.687 59.2005 133.327C59.828 132.967 60.0107 132.545 60.0237 132.378C60.0495 132.046 59.96 131.272 59.3946 130.835Z" fill="#8C1B00"/>
<path d="M59.5381 138.431C58.9347 138.254 50.6321 140.343 47.499 141.5L46.9987 146.5C50.2523 145.298 59.141 141.473 59.6944 140.869C60.2478 140.266 60.3653 139.789 60.3549 139.627C60.3341 139.302 60.1415 138.607 59.5381 138.431Z" fill="#8C1B00"/>
<path d="M57.3854 134.856C56.9053 134.524 50.8072 135.289 48.1775 135.642L47.7029 139.445C50.4337 139.077 56.8606 137.806 57.3515 137.343C57.8424 136.88 57.9696 136.432 57.9719 136.267C57.9764 135.935 57.8654 135.189 57.3854 134.856Z" fill="#8C1B00"/>
<defs>
<filter id="filter0_d_2062_674" x="141.361" y="153.359" width="15.4922" height="21.8569" filterUnits="userSpaceOnUse" color-interpolation-filters="sRGB">
<feFlood flood-opacity="0" result="BackgroundImageFix"/>
<feColorMatrix in="SourceAlpha" type="matrix" values="0 0 0 0 0 0 0 0 0 0 0 0 0 0 0 0 0 0 127 0" result="hardAlpha"/>
<feOffset dy="1"/>
<feGaussianBlur stdDeviation="2"/>
<feComposite in2="hardAlpha" operator="out"/>
<feColorMatrix type="matrix" values="0 0 0 0 0.54902 0 0 0 0 0.105882 0 0 0 0 0 0 0 0 1 0"/>
<feBlend mode="normal" in2="BackgroundImageFix" result="effect1_dropShadow_2062_674"/>
<feBlend mode="normal" in="SourceGraphic" in2="effect1_dropShadow_2062_674" result="shape"/>
</filter>
<filter id="filter1_d_2062_674" x="36.9375" y="21" width="119" height="107.577" filterUnits="userSpaceOnUse" color-interpolation-filters="sRGB">
<feFlood flood-opacity="0" result="BackgroundImageFix"/>
<feColorMatrix in="SourceAlpha" type="matrix" values="0 0 0 0 0 0 0 0 0 0 0 0 0 0 0 0 0 0 127 0" result="hardAlpha"/>
<feOffset dy="4"/>
<feGaussianBlur stdDeviation="2"/>
<feComposite in2="hardAlpha" operator="out"/>
<feColorMatrix type="matrix" values="0 0 0 0 0.545098 0 0 0 0 0.145098 0 0 0 0 0.054902 0 0 0 0.32 0"/>
<feBlend mode="normal" in2="BackgroundImageFix" result="effect1_dropShadow_2062_674"/>
<feBlend mode="normal" in="SourceGraphic" in2="effect1_dropShadow_2062_674" result="shape"/>
</filter>
<filter id="filter2_d_2062_674" x="55.9375" y="56" width="35" height="11" filterUnits="userSpaceOnUse" color-interpolation-filters="sRGB">
<feFlood flood-opacity="0" result="BackgroundImageFix"/>
<feColorMatrix in="SourceAlpha" type="matrix" values="0 0 0 0 0 0 0 0 0 0 0 0 0 0 0 0 0 0 127 0" result="hardAlpha"/>
<feOffset dx="-2" dy="-2"/>
<feGaussianBlur stdDeviation="2"/>
<feComposite in2="hardAlpha" operator="out"/>
<feColorMatrix type="matrix" values="0 0 0 0 0.831373 0 0 0 0 0.294118 0 0 0 0 0.168627 0 0 0 1 0"/>
<feBlend mode="normal" in2="BackgroundImageFix" result="effect1_dropShadow_2062_674"/>
<feBlend mode="normal" in="SourceGraphic" in2="effect1_dropShadow_2062_674" result="shape"/>
</filter>
<filter id="filter3_d_2062_674" x="102.938" y="56" width="35" height="11" filterUnits="userSpaceOnUse" color-interpolation-filters="sRGB">
<feFlood flood-opacity="0" result="BackgroundImageFix"/>
<feColorMatrix in="SourceAlpha" type="matrix" values="0 0 0 0 0 0 0 0 0 0 0 0 0 0 0 0 0 0 127 0" result="hardAlpha"/>
<feOffset dx="2" dy="-2"/>
<feGaussianBlur stdDeviation="2"/>
<feComposite in2="hardAlpha" operator="out"/>
<feColorMatrix type="matrix" values="0 0 0 0 0.831373 0 0 0 0 0.294118 0 0 0 0 0.168627 0 0 0 1 0"/>
<feBlend mode="normal" in2="BackgroundImageFix" result="effect1_dropShadow_2062_674"/>
<feBlend mode="normal" in="SourceGraphic" in2="effect1_dropShadow_2062_674" result="shape"/>
</filter>
</defs>
</svg>
