<svg width="302" height="218" viewBox="0 0 302 218" fill="none" xmlns="http://www.w3.org/2000/svg">
<path d="M191.409 58.4893C186.551 63.2069 182.258 66.0239 180.718 66.8427L194.489 100.451C197.975 96.3169 204.835 87.0399 204.391 83.0088C203.837 77.9698 207.74 60.819 209.188 56.1066C210.345 52.3368 216.018 47.6808 218.709 45.8241C222.021 42.3742 222.546 39.2145 216.145 39.1867C208.144 39.152 197.482 52.5923 191.409 58.4893Z" fill="#F3885E" stroke="#8C1B00" stroke-width="0.3"/>
<path d="M215.023 42.6929C215.219 42.5497 216.697 40.3637 217.363 39.3855L216.703 39.1392C216.011 40.155 214.615 42.2411 214.565 42.4591C214.516 42.6771 214.564 42.7628 214.595 42.7783C214.656 42.8095 214.827 42.8361 215.023 42.6929Z" fill="#8C1B00"/>
<path d="M217.171 44.824C217.382 44.6753 220.159 42.066 221.019 41.0694L220.518 40.0698C219.624 41.1047 216.953 44.3844 216.846 44.6036C216.739 44.8229 216.756 44.9071 216.778 44.9218C216.821 44.9511 216.961 44.9727 217.171 44.824Z" fill="#8C1B00"/>
<path d="M218.158 45.2027C218.343 45.1171 219.896 43.8341 220.698 43.1702L220.681 42.4746C219.848 43.1641 218.039 44.8123 217.928 44.9718C217.817 45.1313 217.82 45.202 217.835 45.2174C217.866 45.2482 217.974 45.2883 218.158 45.2027Z" fill="#8C1B00"/>
<path d="M216.098 43.9451C216.331 43.772 218.719 40.7437 219.518 39.5708L218.407 39.4162C217.578 40.6342 215.63 43.4137 215.567 43.6737C215.505 43.9337 215.56 44.0348 215.595 44.0529C215.666 44.0891 215.866 44.1182 216.098 43.9451Z" fill="#8C1B00"/>
<path d="M220.067 41.7015C207.646 49.332 205.084 61.4125 204.587 64.5355L214.047 74.5756C214.157 74.2195 220.351 66.6904 222.591 63.0762C225.391 58.5584 238.628 55.8607 244.547 54.8809C250.467 53.9012 264.363 50.0808 274.148 47.9546C283.932 45.8284 293.148 36.1942 294.393 25.3452C295.639 14.4963 287.677 4.15763 279.787 2.42256C271.898 0.687487 264.088 12.1162 261.359 16.6223C258.97 20.5652 258.88 28.1822 250.494 29.5702C242.108 30.9581 232.487 34.0709 220.067 41.7015Z" fill="#F3885E" stroke="#8B250E" stroke-width="0.5"/>
<path d="M220.067 41.7015C207.646 49.332 205.084 61.4125 204.587 64.5355L214.047 74.5756C214.157 74.2195 220.351 66.6904 222.591 63.0762C225.391 58.5584 238.628 55.8607 244.547 54.8809C250.467 53.9012 264.363 50.0808 274.148 47.9546C283.932 45.8284 293.148 36.1942 294.393 25.3452C295.639 14.4963 287.677 4.15763 279.787 2.42256C271.898 0.687487 264.088 12.1162 261.359 16.6223C258.97 20.5652 258.88 28.1822 250.494 29.5702C242.108 30.9581 232.487 34.0709 220.067 41.7015Z" fill="#F3885E" stroke="#8B250E" stroke-width="0.5"/>
<g filter="url(#filter0_d_2062_422)">
<path d="M204.538 63.5839C204.932 63.5186 213.543 70.0761 214.546 73.5752" stroke="#8C1B00" stroke-width="0.2"/>
</g>
<path d="M262.495 14.5335L282.021 44.5165L285.519 42.0134L265.492 11.0308L262.495 14.5335Z" fill="#8B250E"/>
<path d="M269.488 6.52735L290.014 36.5095L292.51 32.0073L273.985 3.02337L269.488 6.52735Z" fill="#8B250E"/>
<path d="M258.004 24.0373L272.025 48.525L278.393 46.8079L260 19.5355L259.002 22.5364L258.004 24.0373Z" fill="#8B250E"/>
<path d="M210.129 67.998L210.135 68.0064L210.142 68.0138C218.999 77.0223 221.278 90.8518 217.765 105.956C214.253 121.059 204.954 137.413 190.695 151.432C183.586 158.421 170.291 164.059 155.445 168.327C140.606 172.593 124.245 175.484 111.031 176.992C104.424 177.747 98.6056 178.155 94.1593 178.218C91.9359 178.249 90.0582 178.194 88.5977 178.053C87.1294 177.911 86.1057 177.684 85.572 177.385C85.3049 177.236 85.1957 177.089 85.1771 176.957C85.1584 176.826 85.2211 176.648 85.4522 176.416C85.9139 175.952 86.9341 175.386 88.6168 174.723C91.9697 173.403 97.8624 171.732 106.885 169.712L107.148 169.653L106.959 169.46C104.721 167.184 101.805 165.059 98.6149 162.975C96.7533 161.758 94.7918 160.551 92.8151 159.335C91.408 158.469 89.9932 157.598 88.6013 156.716C81.8875 152.461 75.6775 147.92 73.0846 142.195C71.7913 139.339 71.3968 136.186 72.2962 132.617C73.1966 129.044 75.3955 125.048 79.3029 120.515C87.1193 111.447 101.746 100.263 126.376 86.0651C131.396 83.171 136.299 80.1984 141.066 77.308C144.661 75.1282 148.179 72.9951 151.612 70.9776C159.606 66.2805 167.157 62.2008 174.213 59.5774C181.27 56.9539 187.819 55.7919 193.815 56.9153C199.805 58.0377 205.261 61.445 210.129 67.998Z" fill="#F3885E" stroke="#8B250E" stroke-width="0.3"/>
<path d="M87.0691 181.729C88.4551 180.117 98.7288 161.192 98.8871 160.249L122.018 162.784C118.295 167.365 110.571 176.903 109.453 178.409C108.057 180.292 88.3685 202.312 81.9061 198.325C75.4436 194.338 85.5192 183.532 87.0691 181.729Z" fill="#F3885E" stroke="#8C1B00" stroke-width="0.3"/>
<path d="M85.3576 195.62C85.1761 195.757 83.8285 197.83 83.221 198.757L83.8444 198.979C84.4753 198.016 85.7479 196.038 85.7908 195.832C85.8336 195.627 85.7866 195.547 85.7577 195.533C85.7 195.505 85.5391 195.482 85.3576 195.62Z" fill="#8C1B00"/>
<path d="M83.3036 193.651C83.1084 193.794 81.3527 195.911 80.5632 196.859L80.9441 197.351C81.764 196.367 83.5162 194.06 83.6125 193.853C83.7088 193.646 83.6917 193.567 83.6711 193.554C83.6299 193.527 83.4987 193.508 83.3036 193.651Z" fill="#8C1B00"/>
<path d="M82.3718 193.31C82.2 193.393 80.5529 194.812 79.8128 195.447L80.054 195.906C80.8226 195.247 82.4901 193.674 82.5916 193.523C82.6931 193.372 82.6891 193.305 82.6745 193.291C82.6452 193.263 82.5436 193.227 82.3718 193.31Z" fill="#8C1B00"/>
<path d="M84.3862 194.493C84.1797 194.664 82.5546 197.161 81.8225 198.278L82.4722 198.496C83.2324 197.335 84.7688 194.953 84.8325 194.712C84.8963 194.471 84.8527 194.381 84.8229 194.366C84.7634 194.337 84.5928 194.322 84.3862 194.493Z" fill="#8C1B00"/>
<path d="M226.615 72.5956C219.193 75.5937 213.256 76.8236 211.215 77.0638L210.625 117.894C216.296 114.955 226.675 107.327 229.358 103.565C232.57 99.0591 243.192 81.6141 246.926 77.2488C249.913 73.7565 258.187 71.1509 261.951 70.2846C264.922 68.7031 269.14 64.8889 262.235 62.2836C253.604 59.0271 235.893 68.8479 226.615 72.5956Z" fill="#F3885E"/>
<path d="M210.626 117.894C216.297 114.955 226.676 107.327 229.358 103.565C232.571 99.0591 243.193 81.6141 246.927 77.2488C249.914 73.7565 258.188 71.1508 261.951 70.2845C264.923 68.7031 269.141 64.8888 262.236 62.2836C253.604 59.0271 235.894 68.8479 226.616 72.5956C223.261 74.088 215.251 77.0741 210.051 77.0786" stroke="#8C1B00" stroke-width="0.3"/>
<path d="M261.033 64.6782C261.252 64.6881 263.523 63.95 264.543 63.6226L264.216 63.0544C263.158 63.3945 261 64.1072 260.843 64.2381C260.685 64.369 260.671 64.4603 260.683 64.4897C260.709 64.5484 260.814 64.6682 261.033 64.6782Z" fill="#8C1B00"/>
<path d="M261.348 67.5039C261.581 67.5185 264.376 67.2576 265.543 67.0307L266.042 66.0303C264.83 66.2659 261.442 67.053 261.243 67.1513C261.045 67.2496 261.009 67.3212 261.016 67.3447C261.03 67.3917 261.116 67.4894 261.348 67.5039Z" fill="#8C1B00"/>
<path d="M261.831 68.3609C262.009 68.4064 263.825 68.3756 264.764 68.3583L265.143 67.8376C264.169 67.8555 261.967 68.0045 261.799 68.0564C261.631 68.1083 261.593 68.1619 261.595 68.1822C261.6 68.2228 261.653 68.3154 261.831 68.3609Z" fill="#8C1B00"/>
<path d="M261.087 66.2291C261.348 66.2384 264.717 65.2533 265.939 64.8607L265.262 64.2582C263.992 64.6659 261.056 65.5641 260.866 65.7183C260.675 65.8725 260.657 65.9792 260.672 66.0132C260.702 66.0814 260.826 66.2199 261.087 66.2291Z" fill="#8C1B00"/>
<path d="M106.96 190.447C108.645 188.667 121.612 169.197 121.908 168.119L141.627 168.102C137.238 172.538 125.984 190.165 124.647 191.653C122.977 193.513 105.244 215.252 99.3734 208.769C93.5025 202.286 105.241 192.263 106.96 190.447Z" fill="#F3885E"/>
<path d="M121.908 168.119C121.612 169.197 108.645 188.667 106.96 190.447C105.241 192.263 93.5025 202.286 99.3734 208.769C105.244 215.252 122.977 193.513 124.647 191.653C129.807 184.315 140.427 168.639 141.624 164.638" stroke="#8C1B00" stroke-width="0.3"/>
<path d="M165.355 140.372C152.302 150.397 150.875 162.384 152.88 168.883C155.379 167.881 156.857 167.927 164.642 165.119C170.905 162.859 178.637 159.606 184.134 156.102C191.13 151.641 198.936 142.471 199.622 141.588C203.118 137.085 208.111 129.581 209.608 126.08C210.107 125.079 206.342 124.336 196.344 126.345C183.448 128.936 180.346 128.859 165.355 140.372Z" fill="#FFE2C8"/>
<path d="M103.293 206.945C103.098 207.062 101.541 208.983 100.84 209.842L101.437 210.127C102.165 209.235 103.638 207.401 103.702 207.202C103.766 207.002 103.727 206.918 103.7 206.901C103.646 206.866 103.488 206.827 103.293 206.945Z" fill="#8C1B00"/>
<path d="M101.456 204.772C101.247 204.894 99.2797 206.816 98.3954 207.676L98.7227 208.206C99.6409 207.313 101.625 205.202 101.742 205.006C101.86 204.809 101.851 204.729 101.832 204.714C101.794 204.683 101.665 204.651 101.456 204.772Z" fill="#8C1B00"/>
<path d="M100.564 204.335C100.385 204.4 98.5982 205.639 97.7958 206.193L97.9877 206.675C98.821 206.1 100.644 204.71 100.761 204.571C100.877 204.431 100.88 204.364 100.867 204.349C100.841 204.317 100.744 204.271 100.564 204.335Z" fill="#8C1B00"/>
<path d="M102.444 205.723C102.22 205.871 100.343 208.184 99.4983 209.219L100.122 209.503C100.999 208.429 102.776 206.221 102.865 205.987C102.953 205.754 102.919 205.66 102.891 205.643C102.835 205.607 102.667 205.574 102.444 205.723Z" fill="#8C1B00"/>
<g filter="url(#filter1_d_2062_422)">
<mask id="path-31-inside-1_2062_422" fill="white">
<path fill-rule="evenodd" clip-rule="evenodd" d="M35.5611 118.303C34.9884 117.038 35.8473 115.589 37.2318 115.484L55.5331 114.096C61.1098 107.952 67.6553 103.326 74.5471 100.307L76.3485 84.2158C76.5198 82.6858 78.2832 81.9149 79.5226 82.8283L97.8133 96.3072C105.751 97.0444 113.237 100.041 119.321 105.432C136.682 120.816 136.058 149.873 117.927 170.334C99.7964 190.795 71.0249 194.911 53.664 179.528C41.6608 168.892 38.2549 151.719 43.2882 135.37L35.5611 118.303Z"/>
</mask>
<path fill-rule="evenodd" clip-rule="evenodd" d="M35.5611 118.303C34.9884 117.038 35.8473 115.589 37.2318 115.484L55.5331 114.096C61.1098 107.952 67.6553 103.326 74.5471 100.307L76.3485 84.2158C76.5198 82.6858 78.2832 81.9149 79.5226 82.8283L97.8133 96.3072C105.751 97.0444 113.237 100.041 119.321 105.432C136.682 120.816 136.058 149.873 117.927 170.334C99.7964 190.795 71.0249 194.911 53.664 179.528C41.6608 168.892 38.2549 151.719 43.2882 135.37L35.5611 118.303Z" fill="#F3885E"/>
<path d="M37.2318 115.484L37.2544 115.783L37.2544 115.783L37.2318 115.484ZM35.5611 118.303L35.2878 118.427L35.5611 118.303ZM55.5331 114.096L55.7552 114.297L55.6749 114.386L55.5558 114.395L55.5331 114.096ZM74.5471 100.307L74.8452 100.341L74.826 100.513L74.6675 100.582L74.5471 100.307ZM76.3485 84.2158L76.6467 84.2492L76.3485 84.2158ZM79.5226 82.8283L79.7006 82.5868L79.7006 82.5868L79.5226 82.8283ZM97.8133 96.3072L97.7855 96.6059L97.7024 96.5982L97.6353 96.5487L97.8133 96.3072ZM43.2882 135.37L43.5615 135.246L43.6083 135.35L43.5749 135.458L43.2882 135.37ZM37.2544 115.783C36.0776 115.872 35.3476 117.104 35.8344 118.179L35.2878 118.427C34.6292 116.972 35.6169 115.306 37.2091 115.185L37.2544 115.783ZM55.5558 114.395L37.2544 115.783L37.2091 115.185L55.5104 113.796L55.5558 114.395ZM55.3109 113.894C60.9157 107.719 67.4959 103.068 74.4268 100.033L74.6675 100.582C67.8147 103.584 61.3038 108.184 55.7552 114.297L55.3109 113.894ZM74.249 100.274L76.0504 84.1824L76.6467 84.2492L74.8452 100.341L74.249 100.274ZM76.0504 84.1824C76.2474 82.4229 78.2753 81.5364 79.7006 82.5868L79.3446 83.0698C78.2911 82.2934 76.7923 82.9487 76.6467 84.2492L76.0504 84.1824ZM79.7006 82.5868L97.9912 96.0657L97.6353 96.5487L79.3446 83.0698L79.7006 82.5868ZM97.841 96.0085C105.837 96.7511 113.384 99.7704 119.52 105.207L119.122 105.656C113.089 100.311 105.665 97.3377 97.7855 96.6059L97.841 96.0085ZM119.52 105.207C137.038 120.73 136.36 149.984 118.152 170.533L117.702 170.135C135.755 149.762 136.326 120.901 119.122 105.656L119.52 105.207ZM118.152 170.533C99.9429 191.082 70.9831 195.275 53.4651 179.752L53.863 179.303C71.0666 194.547 99.6498 190.508 117.702 170.135L118.152 170.533ZM53.4651 179.752C41.3559 169.022 37.9412 151.718 43.0015 135.282L43.5749 135.458C38.5686 151.719 41.9658 168.761 53.863 179.303L53.4651 179.752ZM35.8344 118.179L43.5615 135.246L43.0149 135.494L35.2878 118.427L35.8344 118.179Z" fill="#8C1B00" mask="url(#path-31-inside-1_2062_422)"/>
</g>
<g filter="url(#filter2_d_2062_422)">
<circle cx="13.5" cy="13.5" r="13.5" transform="matrix(-0.81584 0.578277 0.578277 0.81584 95.25 104.145)" fill="#EDDFD2"/>
<circle cx="13.5" cy="13.5" r="13.35" transform="matrix(-0.81584 0.578277 0.578277 0.81584 95.25 104.145)" stroke="#8C1B00" stroke-width="0.3"/>
</g>
<g filter="url(#filter3_d_2062_422)">
<path d="M52.5893 155.861C58.1695 160.806 66.5533 160.458 71.3148 155.085C76.0764 149.711 75.4127 141.347 69.8325 136.402C64.2522 131.457 55.8685 131.805 51.1069 137.178C46.3453 142.552 47.009 150.917 52.5893 155.861Z" fill="#EDDFD2"/>
<path d="M52.6888 155.749C58.211 160.643 66.4994 160.293 71.2026 154.985C75.9057 149.678 75.2553 141.408 69.733 136.514C64.2107 131.621 55.9223 131.97 51.2192 137.278C46.516 142.586 47.1665 150.856 52.6888 155.749Z" stroke="#8C1B00" stroke-width="0.3"/>
</g>
<circle cx="10.5" cy="10.5" r="10.5" transform="matrix(-0.6632 0.748442 0.748442 0.6632 88.3496 108.719)" fill="#2B0000"/>
<circle cx="10.5" cy="10.5" r="10.5" transform="matrix(-0.6632 0.748442 0.748442 0.6632 57.8242 131.106)" fill="#2B0000"/>
<mask id="path-39-inside-2_2062_422" fill="white">
<path fill-rule="evenodd" clip-rule="evenodd" d="M77.5127 87.0734C77.5905 86.1928 78.6935 85.8444 79.2706 86.5182L88.0172 96.7285C84.3174 97.3305 80.3937 98.3648 76.3858 99.8318L77.5127 87.0734Z"/>
</mask>
<path fill-rule="evenodd" clip-rule="evenodd" d="M77.5127 87.0734C77.5905 86.1928 78.6935 85.8444 79.2706 86.5182L88.0172 96.7285C84.3174 97.3305 80.3937 98.3648 76.3858 99.8318L77.5127 87.0734Z" fill="#EF9C99"/>
<path d="M79.2706 86.5182L79.4984 86.323L79.4984 86.323L79.2706 86.5182ZM77.5127 87.0734L77.2139 87.047L77.2139 87.047L77.5127 87.0734ZM88.0172 96.7285L88.245 96.5333L88.5924 96.9388L88.0653 97.0246L88.0172 96.7285ZM76.3858 99.8318L76.4889 100.113L76.0454 100.276L76.087 99.8054L76.3858 99.8318ZM79.0428 86.7133C78.6357 86.2381 77.8656 86.4881 77.8115 87.0998L77.2139 87.047C77.3154 85.8974 78.7513 85.4508 79.4984 86.323L79.0428 86.7133ZM87.7893 96.9237L79.0428 86.7133L79.4984 86.323L88.245 96.5333L87.7893 96.9237ZM88.0653 97.0246C84.3858 97.6233 80.4805 98.6525 76.4889 100.113L76.2827 99.55C80.3069 98.0771 84.249 97.0377 87.969 96.4324L88.0653 97.0246ZM77.8115 87.0998L76.6846 99.8582L76.087 99.8054L77.2139 87.047L77.8115 87.0998Z" fill="#8C1B00" fill-opacity="0.58" mask="url(#path-39-inside-2_2062_422)"/>
<mask id="path-41-inside-3_2062_422" fill="white">
<path fill-rule="evenodd" clip-rule="evenodd" d="M38.5645 116.803C37.7375 116.548 36.9983 117.39 37.3598 118.175L43.9352 132.446C45.3115 128.716 48.0676 124.747 51.9095 120.908L38.5645 116.803Z"/>
</mask>
<path fill-rule="evenodd" clip-rule="evenodd" d="M38.5645 116.803C37.7375 116.548 36.9983 117.39 37.3598 118.175L43.9352 132.446C45.3115 128.716 48.0676 124.747 51.9095 120.908L38.5645 116.803Z" fill="#EF9C99"/>
<path d="M37.3598 118.175L37.6323 118.049L37.6323 118.049L37.3598 118.175ZM38.5645 116.803L38.4763 117.09L38.4763 117.09L38.5645 116.803ZM43.9352 132.446L43.6627 132.571L43.9659 133.229L44.2166 132.55L43.9352 132.446ZM51.9095 120.908L52.1215 121.12L52.4742 120.768L51.9977 120.621L51.9095 120.908ZM37.6323 118.049C37.38 117.502 37.8955 116.911 38.4763 117.09L38.6527 116.516C37.5795 116.186 36.6166 117.279 37.0873 118.3L37.6323 118.049ZM44.2077 132.32L37.6323 118.049L37.0873 118.3L43.6627 132.571L44.2077 132.32ZM44.2166 132.55C45.5733 128.873 48.2992 124.94 52.1215 121.12L51.6974 120.696C47.836 124.554 45.0497 128.559 43.6537 132.342L44.2166 132.55ZM38.4763 117.09L51.8213 121.195L51.9977 120.621L38.6527 116.516L38.4763 117.09Z" fill="#8C1B00" fill-opacity="0.58" mask="url(#path-41-inside-3_2062_422)"/>
<path d="M76.0368 114.017C75.9421 113.256 71.0001 106.555 68.9084 103.517L67.5393 104.309L65.8386 105.474C68.0108 108.628 73.5377 114.912 74.2153 115.272C74.8929 115.632 75.3051 115.555 75.4266 115.471C75.6694 115.304 76.1315 114.779 76.0368 114.017Z" fill="#8C1B00"/>
<path d="M71.3753 116.768C71.2237 116.053 66.1732 109.384 64.0195 106.533L62.1066 108.179C64.3431 111.138 69.1946 117.606 69.8381 117.944C70.4817 118.282 70.8475 118.209 70.95 118.131C71.1549 117.974 71.527 117.482 71.3753 116.768Z" fill="#8C1B00"/>
<path d="M67.635 120.288C67.4619 119.561 62.6048 112.639 60.3457 109.732L59.2483 110.657L57.9264 111.673C60.2723 114.692 65.4494 121.134 66.1104 121.48C66.7714 121.826 67.1399 121.753 67.2416 121.674C67.4448 121.515 67.8081 121.015 67.635 120.288Z" fill="#8C1B00"/>
<path d="M63.8894 162.014C62.7827 162.033 50.7819 166.938 45.5908 169.035L47.5472 172.105C52.938 169.927 64.0062 165.065 64.8163 164.311C65.6263 163.556 65.7053 163.061 65.6435 162.908C65.5199 162.602 64.996 161.994 63.8894 162.014Z" fill="#8C1B00"/>
<path d="M67.8951 168.48C66.8749 168.739 57.2853 175.647 53.0176 178.789L54.5128 180.116L55.6337 181.112C60.0656 177.849 68.7919 171.384 69.3474 170.483C69.9029 169.583 69.8482 169.09 69.7513 168.957C69.5577 168.69 68.9154 168.22 67.8951 168.48Z" fill="#8C1B00"/>
<path d="M62.7168 166.915C61.7962 166.965 52.6794 171.645 48.7129 173.805L51.0008 176.501C55.1199 174.257 63.4942 169.583 64.0382 168.835C64.5823 168.088 64.4165 167.869 64.338 167.724C64.1812 167.433 63.6373 166.865 62.7168 166.915Z" fill="#8C1B00"/>
<path d="M114.861 121.885C115.198 121.12 122.646 115.626 125.809 113.187L127.297 116.085C124.012 118.617 117.234 123.717 116.404 123.852C115.573 123.988 115.159 123.759 115.057 123.628C114.851 123.366 114.524 122.65 114.861 121.885Z" fill="#8C1B00"/>
<path d="M118.803 128.4C119.309 127.832 126.607 125.092 130.352 123.893L131.27 127.379C127.382 128.625 120.837 130.693 119.961 130.568C119.084 130.442 118.711 130.122 118.633 129.977C118.479 129.688 118.297 128.968 118.803 128.4Z" fill="#8C1B00"/>
<path d="M119.068 123.872C119.375 123.255 125.741 119.874 128.599 118.331L129.849 121.444C126.882 123.046 121.193 125.994 120.445 125.947C119.697 125.9 119.327 125.612 119.235 125.473C119.051 125.197 118.761 124.489 119.068 123.872Z" fill="#8C1B00"/>
<path fill-rule="evenodd" clip-rule="evenodd" d="M89.9421 151.919C89.9355 151.952 89.9322 151.987 89.9325 152.022L89.9321 152.035L89.9318 152.062C89.9312 152.104 89.9358 152.145 89.9452 152.184L90.4415 157.846C90.4657 158.121 90.707 158.314 90.9807 158.277L91.0076 158.274C91.2812 158.236 91.4835 157.983 91.4594 157.708L91.0051 152.526L96.2042 152.354C96.4802 152.344 96.7071 152.113 96.711 151.837L96.7114 151.81C96.7153 151.534 96.4947 151.317 96.2188 151.326L90.6298 151.512C90.5627 151.49 90.4892 151.483 90.4131 151.493L90.3862 151.496C90.3416 151.503 90.2989 151.514 90.2587 151.531L86.4683 148.172L86.1367 148.547L89.9421 151.919Z" fill="#8C1B00"/>
<path d="M86.1767 148.97C86.4937 149.037 86.7898 148.789 86.7799 148.465L86.5747 141.715C86.562 141.298 86.0743 141.079 85.7542 141.346L79.3517 146.7C79.0316 146.968 79.1608 147.487 79.569 147.573L86.1767 148.97Z" fill="#EF9C99"/>
<path d="M86.2078 148.823C86.4297 148.87 86.6369 148.697 86.63 148.47L86.4248 141.719C86.4159 141.427 86.0745 141.274 85.8504 141.462L79.4479 146.816C79.2239 147.003 79.3143 147.366 79.6001 147.426L86.2078 148.823Z" stroke="#8C1B00" stroke-opacity="0.79" stroke-width="0.3"/>
<ellipse cx="6.99022" cy="3.23764" rx="6.99022" ry="3.23764" transform="matrix(0.974763 -0.223243 0.217587 0.976041 62.5508 78.3164)" fill="#D9D9D9"/>
<path d="M110.052 87.3531C109.662 89.1039 100.306 84.9008 92.8307 83.3088C85.3556 81.7167 79.6119 81.3232 80.002 79.5724C80.3921 77.8217 86.7684 75.3767 94.2435 76.9687C101.719 78.5608 110.442 85.6024 110.052 87.3531Z" fill="#D9D9D9"/>
<ellipse cx="79.1412" cy="135.706" rx="63.9065" ry="57.2953" transform="rotate(-64.8988 79.1412 135.706)" fill="#93A4FF" fill-opacity="0.42"/>
<path d="M106.188 77.9709C134.754 91.3531 145.834 128.048 130.89 159.948C115.946 191.849 80.6609 206.824 52.0945 193.442C23.5281 180.059 12.4484 143.365 27.3926 111.464C42.3368 79.5635 77.6215 64.5887 106.188 77.9709Z" stroke="#000C7C" stroke-opacity="0.72" stroke-width="0.3"/>
<path d="M175.562 101.826C175.286 99.7022 167.07 74.8435 163.254 64.2085L158.99 66.6931C162.953 77.7372 171.748 101.022 172.881 102.825C174.015 104.629 174.655 104.946 174.834 104.88C175.192 104.746 175.837 103.949 175.562 101.826Z" fill="#8C1B00"/>
<path d="M168.327 107.296C167.763 105.246 156.501 80.4119 151.546 71.1298L147.048 73.6337C152.194 83.2728 164.869 108.022 166.135 109.399C167.4 110.776 168.009 110.84 168.155 110.7C168.447 110.419 168.891 109.346 168.327 107.296Z" fill="#8C1B00"/>
<path d="M169.129 97.9329C168.857 96.1552 160.725 75.9431 157.107 67.6288L152.924 69.8077C156.682 78.4418 165.589 98.1573 166.653 99.4496C167.718 100.742 168.314 100.863 168.479 100.762C168.809 100.559 169.401 99.7105 169.129 97.9329Z" fill="#8C1B00"/>
<defs>
<filter id="filter0_d_2062_422" x="200.521" y="60.4834" width="18.1211" height="18.1194" filterUnits="userSpaceOnUse" color-interpolation-filters="sRGB">
<feFlood flood-opacity="0" result="BackgroundImageFix"/>
<feColorMatrix in="SourceAlpha" type="matrix" values="0 0 0 0 0 0 0 0 0 0 0 0 0 0 0 0 0 0 127 0" result="hardAlpha"/>
<feOffset dy="1"/>
<feGaussianBlur stdDeviation="2"/>
<feComposite in2="hardAlpha" operator="out"/>
<feColorMatrix type="matrix" values="0 0 0 0 0.54902 0 0 0 0 0.105882 0 0 0 0 0 0 0 0 1 0"/>
<feBlend mode="normal" in2="BackgroundImageFix" result="effect1_dropShadow_2062_422"/>
<feBlend mode="normal" in="SourceGraphic" in2="effect1_dropShadow_2062_422" result="shape"/>
</filter>
<filter id="filter1_d_2062_422" x="35.3809" y="78.4359" width="104.562" height="114.398" filterUnits="userSpaceOnUse" color-interpolation-filters="sRGB">
<feFlood flood-opacity="0" result="BackgroundImageFix"/>
<feColorMatrix in="SourceAlpha" type="matrix" values="0 0 0 0 0 0 0 0 0 0 0 0 0 0 0 0 0 0 127 0" result="hardAlpha"/>
<feOffset dx="4"/>
<feGaussianBlur stdDeviation="2"/>
<feComposite in2="hardAlpha" operator="out"/>
<feColorMatrix type="matrix" values="0 0 0 0 0.545098 0 0 0 0 0.145098 0 0 0 0 0.054902 0 0 0 0.32 0"/>
<feBlend mode="normal" in2="BackgroundImageFix" result="effect1_dropShadow_2062_422"/>
<feBlend mode="normal" in="SourceGraphic" in2="effect1_dropShadow_2062_422" result="shape"/>
</filter>
<filter id="filter2_d_2062_422" x="76.541" y="103.464" width="35.0039" height="35.0022" filterUnits="userSpaceOnUse" color-interpolation-filters="sRGB">
<feFlood flood-opacity="0" result="BackgroundImageFix"/>
<feColorMatrix in="SourceAlpha" type="matrix" values="0 0 0 0 0 0 0 0 0 0 0 0 0 0 0 0 0 0 127 0" result="hardAlpha"/>
<feOffset dx="2" dy="-2"/>
<feGaussianBlur stdDeviation="2"/>
<feComposite in2="hardAlpha" operator="out"/>
<feColorMatrix type="matrix" values="0 0 0 0 0.831373 0 0 0 0 0.294118 0 0 0 0 0.168627 0 0 0 1 0"/>
<feBlend mode="normal" in2="BackgroundImageFix" result="effect1_dropShadow_2062_422"/>
<feBlend mode="normal" in="SourceGraphic" in2="effect1_dropShadow_2062_422" result="shape"/>
</filter>
<filter id="filter3_d_2062_422" x="45.9277" y="126.909" width="34.5664" height="34.4447" filterUnits="userSpaceOnUse" color-interpolation-filters="sRGB">
<feFlood flood-opacity="0" result="BackgroundImageFix"/>
<feColorMatrix in="SourceAlpha" type="matrix" values="0 0 0 0 0 0 0 0 0 0 0 0 0 0 0 0 0 0 127 0" result="hardAlpha"/>
<feOffset dx="2" dy="-2"/>
<feGaussianBlur stdDeviation="2"/>
<feComposite in2="hardAlpha" operator="out"/>
<feColorMatrix type="matrix" values="0 0 0 0 0.831373 0 0 0 0 0.294118 0 0 0 0 0.168627 0 0 0 1 0"/>
<feBlend mode="normal" in2="BackgroundImageFix" result="effect1_dropShadow_2062_422"/>
<feBlend mode="normal" in="SourceGraphic" in2="effect1_dropShadow_2062_422" result="shape"/>
</filter>
</defs>
</svg>
