<svg xmlns="http://www.w3.org/2000/svg" width="271" height="295" fill="none"><path fill="#F3885E" stroke="#8B250E" stroke-width=".5" d="M223.001 227c-1.399-14.51-3.21-20.462-5.798-22.28l-9.761 11.692c.271.255.901 1.522 3.164 5.122 2.829 4.5-.562 17.217-2.282 22.966-1.72 5.748-.882 13.819 0 23 .958 9.966 8.817 16.046 19.177 19.5 10.5 3.5 25.502.515 24.5-7.5-1-8-13.5-9.5-18.5-10.5-4.52-.904-11.313-5.565-13-14-1.5-7.5 3.899-13.49 2.5-28Z"/><g filter="url(#a)"><path stroke="#8C1B00" stroke-width=".2" d="M219 206c-1.5 3.5-7 8.5-10.5 11.5"/></g><path fill="#8B250E" d="m223.502 262-10.217 16.47 2.217 2.53 10.366-16.522-2.366-2.478ZM227.416 266.358l-7.915 17.142 3.999 2.001 8-17.001-4.084-2.142ZM221 256l-12.931 11.532 1.68 6.279 12.8-13.647-1.305-1.851L221 256Z"/><path fill="#F3885E" stroke="#8B250E" stroke-width=".3" d="M154.48 95.079c10.313 5.479 23.694 14.248 41.609 27.312 14.989 14.574 24.432 32.003 27.588 48.396 3.157 16.397.023 31.743-10.119 42.176-10.141 10.432-25.392 13.999-41.872 11.307-16.475-2.692-34.164-11.637-49.154-26.207-13.475-18.964-22.573-32.806-28.326-43.227-5.755-10.428-8.149-17.414-8.237-22.671-.087-5.241 2.118-8.784 5.63-12.334 1.546-1.562 3.342-3.122 5.305-4.827l.823-.715c2.284-1.989 4.767-4.19 7.318-6.814 2.338-2.405 4.397-4.75 6.316-6.935l.518-.59c2.068-2.353 3.983-4.504 5.932-6.333 3.893-3.654 7.908-6.012 13.51-6.106 5.614-.093 12.843 2.087 23.159 7.568Z"/><path fill="#FFE2C8" d="M169.053 133.928c20.887 22.689 38.309 53.483 23.839 66.804-14.47 13.32-43.133 5.725-64.02-16.965-20.887-22.69-26.089-51.882-11.619-65.202 14.47-13.32 30.913-7.327 51.8 15.363Z"/><g filter="url(#b)"><mask id="c" fill="#fff"><path fill-rule="evenodd" d="M80.956 41.07c-1.356-.73-2.993.281-2.947 1.82l.557 18.65a71.107 71.107 0 0 0-10.524 8.022 70.675 70.675 0 0 0-10.266 11.753l-12.894-4.04c-1.47-.46-2.886.842-2.55 2.345l5.48 24.509c.016.073.036.144.06.212-2.464 12.899.162 25.455 8.425 34.44 16.076 17.481 47.398 14.831 69.959-5.918 22.562-20.748 27.82-51.739 11.744-69.219-8.679-9.438-21.803-13.008-35.593-11.03L80.956 41.07Z" clip-rule="evenodd"/></mask><path fill="#F3885E" fill-rule="evenodd" d="M80.956 41.07c-1.356-.73-2.993.281-2.947 1.82l.557 18.65a71.107 71.107 0 0 0-10.524 8.022 70.675 70.675 0 0 0-10.266 11.753l-12.894-4.04c-1.47-.46-2.886.842-2.55 2.345l5.48 24.509c.016.073.036.144.06.212-2.464 12.899.162 25.455 8.425 34.44 16.076 17.481 47.398 14.831 69.959-5.918 22.562-20.748 27.82-51.739 11.744-69.219-8.679-9.438-21.803-13.008-35.593-11.03L80.956 41.07Z" clip-rule="evenodd"/><path fill="#8C1B00" d="m78.009 42.89.3-.009-.3.01Zm2.947-1.82-.142.264.142-.265Zm-2.39 20.47.158.255.147-.091-.005-.173-.3.01Zm-20.79 19.775-.09.286.211.066.126-.181-.247-.171Zm-12.894-4.04.09-.286-.09.286Zm-2.55 2.345.293-.066-.293.066Zm5.48 24.509.293-.065-.293.065Zm.06.212.294.056.015-.077-.026-.075-.284.096Zm54.535-51.726-.142.264.087.047.098-.014-.043-.297ZM78.309 42.88a1.7 1.7 0 0 1 2.505-1.547l.284-.529c-1.559-.839-3.442.324-3.389 2.094l.6-.018Zm.556 18.65-.556-18.65-.6.018.557 18.65.6-.018Zm-.458-.245a71.406 71.406 0 0 0-10.568 8.055l.406.442a70.793 70.793 0 0 1 10.48-7.988l-.318-.51ZM67.839 69.34a70.98 70.98 0 0 0-10.31 11.803l.494.342a70.373 70.373 0 0 1 10.222-11.703l-.406-.442ZM57.866 81.03l-12.894-4.04-.18.572 12.895 4.04.179-.572Zm-12.894-4.04c-1.69-.53-3.319.968-2.933 2.696l.586-.13c-.286-1.278.919-2.385 2.167-1.994l.18-.572Zm-2.933 2.696 5.48 24.51.586-.131-5.48-24.51-.586.131Zm5.48 24.51c.019.083.041.164.068.242l.568-.192a1.82 1.82 0 0 1-.05-.181l-.586.131Zm.058.09c-2.478 12.971.159 25.629 8.5 34.7l.441-.407c-8.185-8.901-10.802-21.353-8.352-34.181l-.59-.112Zm8.5 34.7c16.233 17.651 47.755 14.909 70.382-5.901l-.406-.441c-22.495 20.687-53.616 23.244-69.535 5.935l-.441.407Zm70.382-5.901c22.628-20.809 27.995-51.992 11.762-69.643l-.441.406c15.918 17.31 10.769 48.108-11.727 68.796l.406.441Zm11.762-69.643c-8.761-9.527-21.993-13.112-35.856-11.123l.085.594c13.716-1.968 26.732 1.586 35.33 10.935l.441-.406ZM80.814 41.333l21.451 11.546.284-.528-21.45-11.546-.285.529Z" mask="url(#c)"/></g><g filter="url(#d)" transform="rotate(-42.603 70.964 109.671)"><circle cx="70.964" cy="109.671" r="13.5" fill="#EDDFD2"/><circle cx="70.964" cy="109.671" r="13.35" stroke="#8C1B00" stroke-width=".3"/></g><g filter="url(#e)" transform="rotate(-42.603 101.142 81.917)"><circle cx="101.142" cy="81.917" r="13.5" fill="#EDDFD2"/><circle cx="101.142" cy="81.917" r="13.35" stroke="#8C1B00" stroke-width=".3"/></g><ellipse cx="71.419" cy="107.213" fill="#2B0000" rx="10.5" ry="11" transform="rotate(-42.603 71.419 107.213)"/><ellipse cx="98.653" cy="82.167" fill="#2B0000" rx="10.5" ry="11" transform="rotate(-42.603 98.653 82.167)"/><mask id="f" fill="#fff"><path fill-rule="evenodd" d="M45.333 78.674c-.78-.415-1.674.309-1.432 1.157l5.121 17.922c1.377-4.398 3.555-9.057 6.473-13.672l-10.162-5.407Z" clip-rule="evenodd"/></mask><path fill="#EF9C99" fill-rule="evenodd" d="M45.333 78.674c-.78-.415-1.674.309-1.432 1.157l5.121 17.922c1.377-4.398 3.555-9.057 6.473-13.672l-10.162-5.407Z" clip-rule="evenodd"/><path fill="#8C1B00" fill-opacity=".58" d="m43.901 79.831-.288.083.288-.083Zm1.432-1.157-.141.265.14-.265Zm3.69 19.079-.29.082.276.964.3-.956-.287-.09Zm6.472-13.672.253.16.173-.273-.285-.152-.141.265ZM44.19 79.749a.7.7 0 0 1 1.002-.81l.282-.53c-1.013-.539-2.176.402-1.861 1.505l.577-.165Zm5.12 17.922-5.12-17.922-.577.165 5.12 17.921.578-.164Zm-.001.172c1.368-4.37 3.534-9.007 6.44-13.602l-.508-.32c-2.93 4.634-5.12 9.317-6.505 13.742l.573.18Zm-4.117-18.904 10.162 5.407.282-.53-10.163-5.407-.281.53Z" mask="url(#f)"/><mask id="g" fill="#fff"><path fill-rule="evenodd" d="M81.431 43.283a1 1 0 0 0-1.492.927l.935 16.217a39.056 39.056 0 0 1 7.398-4.3c3.486-1.55 7.038-2.54 10.502-3.004l-17.343-9.84Z" clip-rule="evenodd"/></mask><path fill="#EF9C99" fill-rule="evenodd" d="M81.431 43.283a1 1 0 0 0-1.492.927l.935 16.217a39.056 39.056 0 0 1 7.398-4.3c3.486-1.55 7.038-2.54 10.502-3.004l-17.343-9.84Z" clip-rule="evenodd"/><path fill="#8C1B00" fill-opacity=".58" d="m79.94 44.21-.3.018.3-.018Zm1.491-.927-.148.261.148-.261Zm-.557 17.144-.3.018.032.554.447-.33-.179-.242Zm7.398-4.3.122.274-.122-.274Zm10.502-3.004.04.297.883-.119-.775-.44-.148.262Zm-18.535-8.93a.7.7 0 0 1 1.044-.649l.296-.522a1.3 1.3 0 0 0-1.94 1.206l.6-.035Zm.934 16.217-.934-16.217-.6.035.936 16.217.599-.035Zm-.12.258a38.758 38.758 0 0 1 7.34-4.267l-.243-.549a39.353 39.353 0 0 0-7.455 4.334l.358.482Zm7.34-4.267c3.461-1.538 6.986-2.52 10.42-2.98l-.079-.596c-3.492.47-7.072 1.467-10.584 3.027l.244.549Zm-7.11-12.857 17.343 9.84.296-.522-17.343-9.84-.296.522Z" mask="url(#g)"/><path fill="#8C1B00" d="M70.866 87.3c-.895-.298-6.847-6.602-9.875-9.894l2.606-3.076c3.144 3.42 9.15 10.119 9.372 11.036.223.917-.002 1.404-.142 1.533-.28.258-1.065.7-1.96.401ZM75.69 82.24c-.82-.357-6.79-7.361-9.571-10.685l2.567-2.362c2.888 3.452 8.714 10.573 8.92 11.443.207.87.003 1.302-.125 1.408-.255.214-.972.553-1.792.196ZM81.388 78.339c-.847-.358-7.696-7.647-10.656-11.017l3.008-2.24c3.073 3.5 9.28 10.721 9.526 11.607.246.886.057 1.328-.068 1.438-.25.22-.963.57-1.81.212ZM124.47 77.95c.52-1.005 10.063-9.531 14.328-13.368l1.95 2.76c-4.429 3.985-13.551 12.056-14.606 12.467-1.054.411-1.541.266-1.653.142-.223-.247-.538-.994-.019-2ZM128.551 84.458c.705-.824 11.5-6.469 16.331-9.017l1.232 3.144c-5.016 2.646-15.318 7.968-16.397 8.084-1.078.117-1.503-.149-1.581-.296-.156-.295-.29-1.09.415-1.915ZM129.467 79.028c.464-.821 8.893-6.778 12.661-9.465l1.688 2.919c-3.913 2.79-11.969 8.412-12.897 8.582-.928.17-1.353-.059-1.45-.194-.194-.272-.465-1.02-.002-1.842ZM71.65 126.527c-1.047.434-10.34 9.231-14.52 13.16l2.587 2.174c4.34-4.081 13.147-12.496 13.645-13.513.497-1.017.393-1.514.28-1.635-.23-.243-.947-.62-1.993-.186ZM77.793 131.137c-.88.634-7.408 10.919-10.35 15.52l3.03 1.49c3.056-4.777 9.22-14.598 9.426-15.663.207-1.065-.023-1.511-.163-1.601-.28-.179-1.063-.38-1.943.254ZM72.307 131.596c-.857.393-7.498 8.295-10.49 11.825l2.767 1.926c3.107-3.665 9.383-11.224 9.63-12.134.248-.911.055-1.354-.072-1.461-.254-.216-.977-.549-1.835-.156Z"/><path stroke="#8B250E" stroke-width=".5" d="m96.83 107.515 4.062 4.416"/><path fill="#EF9C99" d="M97.414 107.547a.5.5 0 0 1-.587.524l-6.65-1.181a.5.5 0 0 1-.245-.865l6.225-5.559a.5.5 0 0 1 .832.341l.425 6.74Z"/><path stroke="#8C1B00" stroke-opacity=".79" stroke-width=".3" d="M97.264 107.557a.35.35 0 0 1-.41.366l-6.65-1.18a.35.35 0 0 1-.172-.606l6.225-5.56a.35.35 0 0 1 .582.239l.425 6.741Z"/><path fill="#8C1B00" fill-rule="evenodd" d="M100.821 111.039a.473.473 0 0 0-.142-.009l-.065.006a.604.604 0 0 0-.582.485l-.016.096a.452.452 0 0 0 .016.224l-.408 5.888a.415.415 0 0 0 .463.456l.096-.009a.602.602 0 0 0 .533-.541l.382-5.509 5.522.08a.604.604 0 0 0 .584-.486l.016-.095a.414.414 0 0 0-.415-.5l-5.984-.086Z" clip-rule="evenodd"/><path fill="#F3885E" d="M182.244 131.46c-1.274.936-2.607 8.197-11.786 9.06-6.686.628-10.691-3.21-12.212-5.74 1.318 2.551 3.427 7.535 3.618 11.668.262 5.694-4.05 10.239-8.441 6.403-4.378-3.825-6.566-10.601-8.407-16.3L145 136.5c-1.475-4.568 1.681-15.068 6.5-17.5 3.327-1.679 10.475-1.171 14.884.768l15.86 11.692Z"/><path stroke="#8C1B00" stroke-width=".3" d="M182.244 131.46c-1.274.936-2.607 8.197-11.786 9.06-7.343.69-11.452-4.008-12.589-6.443 1.244 2.225 3.785 7.815 3.995 12.371.262 5.694-4.05 10.239-8.441 6.403-4.391-3.836-6.579-10.641-8.423-16.351-1.475-4.568 1.681-15.068 6.5-17.5 3.327-1.679 10.475-1.171 14.884.768"/><path fill="#8C1B00" d="M155.572 150.271c.114.2.492 2.771.666 3.923l-.698.024c-.18-1.197-.528-3.645-.478-3.87.049-.225.13-.292.164-.297.068-.01.233.019.346.22ZM158.417 148.92c.125.21.876 2.96 1.216 4.192l-.585.382c-.353-1.279-1.016-4.223-1.017-4.468-.001-.244.05-.319.076-.327.052-.014.186.01.31.221ZM159.455 148.855c.121.126.987 1.938 1.378 2.75l-.442.379c-.406-.843-1.219-2.808-1.242-2.982-.023-.173.012-.236.032-.246.041-.02.153-.027.274.099ZM157.003 149.43c.123.244.58 3.341.79 4.729l-.721.011c-.218-1.442-.641-4.391-.595-4.66.046-.269.127-.347.162-.352.07-.011.241.029.364.272Z"/><path fill="#F3885E" d="M122.5 176c4.375-5.518 4.843-12.239 3.64-14.821 1.318 2.401 4.48 7.22 8.009 9.755 4.631 3.325 10.792 2.189 9.971-3.584-.822-5.773-6.839-14.191-10.62-18.85-3.025-3.727-12.042-3.934-16.708-1.22-3.222 1.874-6.693 8.142-7.472 12.896L122.5 176Z"/><path stroke="#8C1B00" stroke-width=".3" d="M122.5 176c4.582-5.78 4.879-12.88 3.457-15.16 1.188 2.256 4.488 7.433 8.192 10.094 4.631 3.325 10.792 2.189 9.971-3.584-.822-5.773-6.839-14.191-10.62-18.85-3.025-3.727-12.042-3.934-16.708-1.22-3.222 1.874-6.693 8.142-7.472 12.896"/><path fill="#8C1B00" d="M141.296 167.608c.068.217 1.569 2.181 2.239 3.065l.418-.513c-.696-.918-2.132-2.78-2.311-2.889-.179-.109-.27-.091-.293-.069-.046.045-.121.189-.053.406ZM138.754 168.882c.068.232 1.475 2.596 2.103 3.658l.592-.194c-.653-1.102-2.238-3.527-2.401-3.687-.163-.16-.243-.17-.263-.156-.039.03-.1.148-.031.379ZM138.119 169.646c.02.19.805 2.217 1.155 3.127l.514-.073c-.363-.945-1.286-3.043-1.395-3.19-.108-.146-.172-.164-.19-.155-.037.018-.105.101-.084.291ZM139.909 168.145c.092.252 1.899 2.62 2.706 3.685l.423-.54c-.839-1.105-2.567-3.351-2.773-3.492-.206-.141-.305-.13-.329-.107-.047.046-.119.202-.027.454Z"/><path fill="#F3885E" d="M222.548 161.727c-5.83-3.657-12.971-3.07-15.812-2.32l6.216 42.736c.453-.842 1.958-3.331 4.348-6.56 2.988-4.036 4.202-3.274 11.634-1.989 5.946 1.027 9.23 2.975 10.129 3.82 4.024-3.949 13.917-14.065 21.302-22.942 7.384-8.877-1.366-11.972-5.514-9.368-4.517 3.357-13.879 10.375-15.18 11.584-1.302 1.21-2.616.33-3.109-.261-2.243-3.377-8.185-11.044-14.014-14.7Z"/><path stroke="#8C1B00" stroke-width=".3" d="M206.736 159.407c2.841-.75 9.982-1.337 15.812 2.32 5.829 3.656 11.771 11.323 14.014 14.7.493.591 1.807 1.471 3.109.261 1.301-1.209 10.663-8.227 15.18-11.584 4.648-2.604 12.898.491 5.514 9.368-7.385 8.876-17.278 18.993-21.302 22.942-.899-.845-4.183-2.793-10.129-3.82-7.432-1.285-8.646-2.047-11.634 1.989"/><path fill="#F3885E" d="M146.819 205.266c-1.445 2.559-3.819 9.319-1.756 15.884 2.062 6.565 7.976 14.254 10.676 17.278.447.627.966 2.12-.534 3.074-1.5.953-10.657 8.234-15.049 11.755-3.156 2.243-2.788 12.602 7.668 7.704 10.457-4.897 22.747-11.91 27.586-14.804-.59-1.083-1.643-4.752-1.133-10.765.637-7.515 3.562-11.43 8.223-13.299 1.385-.555 2.178-.667 2.674-.599l.673.284c.249.197.384.403.744.315l-.744-.315a1.294 1.294 0 0 0-.673-.284l-38.355-16.228Z"/><path stroke="#8C1B00" stroke-width=".3" d="M146.821 205.266c-1.445 2.559-3.819 9.319-1.757 15.884 2.063 6.564 7.977 14.253 10.676 17.277.447.628.966 2.121-.533 3.074-1.5.954-10.658 8.235-15.049 11.756-3.157 2.743-2.788 12.602 7.668 7.704 10.456-4.898 22.747-11.91 27.585-14.804-.59-1.083-1.643-4.753-1.133-10.765.638-7.516 2.563-10.523 7.223-12.392"/><mask id="h" fill="#fff"><path fill-rule="evenodd" d="M200.913 215.118a.5.5 0 0 0 .537.46l1.945-.149-.033 1.951a.5.5 0 0 0 1 .017l.035-2.045 2.038-.156a.501.501 0 0 0-.077-.997l-1.944.149.032-1.95a.5.5 0 1 0-.999-.017l-.035 2.044-2.039.156a.5.5 0 0 0-.46.537Z" clip-rule="evenodd"/></mask><path fill="#EF9C99" fill-rule="evenodd" d="M200.913 215.118a.5.5 0 0 0 .537.46l1.945-.149-.033 1.951a.5.5 0 0 0 1 .017l.035-2.045 2.038-.156a.501.501 0 0 0-.077-.997l-1.944.149.032-1.95a.5.5 0 1 0-.999-.017l-.035 2.044-2.039.156a.5.5 0 0 0-.46.537Z" clip-rule="evenodd"/><path fill="#8C1B00" fill-opacity=".63" d="m201.45 215.578.007.1-.007-.1Zm-.537-.46-.1.008.1-.008Zm2.482.311.1.002.002-.11-.11.008.008.1Zm-.033 1.951-.1-.001.1.001Zm.492.509.001-.1-.001.1Zm.508-.492.1.002-.1-.002Zm.035-2.045-.008-.1-.091.007-.001.091.1.002Zm2.038-.156-.008-.1.008.1Zm.46-.537.1-.008-.1.008Zm-.537-.46-.007-.1.007.1Zm-1.944.149-.1-.002-.002.11.109-.008-.007-.1Zm.032-1.95-.1-.002.1.002Zm-.491-.509-.002.1.002-.1Zm-.508.492.1.002-.1-.002Zm-.035 2.044.008.099.091-.007.001-.091-.1-.001Zm-2.039.156.008.1-.008-.1Zm.069.898a.4.4 0 0 1-.43-.369l-.199.016a.6.6 0 0 0 .644.552l-.015-.199Zm1.945-.15-1.945.15.015.199 1.946-.149-.016-.2Zm-.092.098-.033 1.952.2.003.033-1.951-.2-.004Zm-.033 1.952a.601.601 0 0 0 .59.61l.003-.2a.4.4 0 0 1-.393-.407l-.2-.003Zm.59.61a.601.601 0 0 0 .61-.59l-.2-.004a.401.401 0 0 1-.407.394l-.003.2Zm.61-.59.035-2.045-.2-.004-.035 2.045.2.004Zm1.965-2.303-2.038.156.015.2 2.039-.157-.016-.199Zm.368-.43a.4.4 0 0 1-.368.43l.016.199a.6.6 0 0 0 .552-.644l-.2.015Zm-.429-.368a.4.4 0 0 1 .429.368l.2-.015a.6.6 0 0 0-.644-.552l.015.199Zm-1.945.15 1.945-.15-.015-.199-1.945.149.015.2Zm.093-.098.032-1.951-.2-.003-.032 1.95.2.004Zm.032-1.951a.6.6 0 0 0-.589-.61l-.004.2a.4.4 0 0 1 .393.407l.2.003Zm-.589-.61a.6.6 0 0 0-.61.59l.2.004a.4.4 0 0 1 .406-.394l.004-.2Zm-.61.59-.035 2.044.2.003.035-2.043-.2-.004Zm-1.966 2.302 2.039-.157-.016-.199-2.039.157.016.199Zm-.369.429a.4.4 0 0 1 .369-.429l-.016-.199a.6.6 0 0 0-.552.644l.199-.016Z" mask="url(#h)"/><mask id="i" fill="#fff"><path fill-rule="evenodd" d="m150.07 259.764 3.405-1.656-3.818-4.764c-.545-.681-1.64-.385-1.769.478l-.696 4.658a1 1 0 0 0 .918 1.145l1.96.139Zm-4.454 2.167 2.501-1.217c.038-.237-.004-.459-.137-.63-.34-.435-1.145-.376-1.798.134-.653.509-.908 1.275-.568 1.711l.002.002Zm-1.236-1.693c-.339-.436-.085-1.202.568-1.711.654-.51 1.459-.569 1.798-.134.34.436.086 1.202-.568 1.711-.653.509-1.458.569-1.798.134Zm-.033-3.089c-.371-.409-.16-1.205.471-1.778s1.443-.706 1.815-.297c.371.409.16 1.205-.471 1.778s-1.444.706-1.815.297Z" clip-rule="evenodd"/></mask><path fill="#EF9C99" fill-rule="evenodd" d="m150.07 259.764 3.405-1.656-3.818-4.764c-.545-.681-1.64-.385-1.769.478l-.696 4.658a1 1 0 0 0 .918 1.145l1.96.139Zm-4.454 2.167 2.501-1.217c.038-.237-.004-.459-.137-.63-.34-.435-1.145-.376-1.798.134-.653.509-.908 1.275-.568 1.711l.002.002Zm-1.236-1.693c-.339-.436-.085-1.202.568-1.711.654-.51 1.459-.569 1.798-.134.34.436.086 1.202-.568 1.711-.653.509-1.458.569-1.798.134Zm-.033-3.089c-.371-.409-.16-1.205.471-1.778s1.443-.706 1.815-.297c.371.409.16 1.205-.471 1.778s-1.444.706-1.815.297Z" clip-rule="evenodd"/><path fill="#8C1B00" fill-opacity=".58" d="m150.07 259.764.087.18-.048.024-.054-.004.015-.2Zm3.405-1.656.156-.125.157.195-.225.109-.088-.179Zm-3.818-4.764.156-.125-.156.125Zm-1.769.478.198.029-.198-.029Zm-.696 4.658.197.029-.197-.029Zm.918 1.145-.015.199.015-.199Zm-2.494 2.306.087.18-.145.071-.099-.127.157-.124Zm2.501-1.217.197.032-.016.103-.094.045-.087-.18Zm-.137-.63.157-.123-.157.123Zm-1.798.134.123.158-.123-.158Zm-.568 1.711.158-.123-.158.123Zm-.666-3.402-.123-.158.123.158Zm-.568 1.711-.157.123.157-.123Zm2.366-1.845.158-.123-.158.123Zm-.568 1.711-.123-.158.123.158Zm-1.36-4.733.134.148-.134-.148Zm-.471 1.778-.148.134.148-.134Zm1.815-.297-.135-.148.135.148Zm3.82 2.733 3.406-1.657.175.359-3.406 1.657-.175-.359Zm3.337-1.352-3.818-4.764.312-.25 3.818 4.764-.312.25Zm-3.818-4.764a.8.8 0 0 0-1.415.382l-.396-.059c.155-1.035 1.469-1.39 2.123-.573l-.312.25Zm-1.415.382-.697 4.658-.395-.059.696-4.658.396.059Zm-.697 4.658a.8.8 0 0 0 .735.916l-.029.399a1.199 1.199 0 0 1-1.101-1.374l.395.059Zm.735.916 1.96.14-.029.399-1.96-.14.029-.399Zm-2.596 2.326 2.501-1.216.175.359-2.501 1.217-.175-.36Zm2.609-1.79c.175.225.222.506.177.785l-.395-.063c.032-.196-.005-.358-.097-.476l.315-.246Zm-2.078.099c.353-.275.755-.435 1.125-.463.368-.027.73.077.953.364l-.315.246c-.116-.149-.326-.232-.609-.211-.281.021-.608.146-.908.38l-.246-.316Zm-.603 1.992c-.224-.287-.237-.663-.12-1.014.117-.352.369-.702.723-.978l.246.316c-.3.233-.501.521-.59.788-.089.269-.059.493.057.642l-.316.246Zm.003.003-.003-.003.316-.246.001.002-.314.247Zm-.388-3.37c-.299.233-.5.521-.589.788-.089.269-.06.493.056.642l-.315.246c-.224-.287-.237-.663-.121-1.014.117-.352.37-.702.723-.978l.246.316Zm1.517-.169c-.115-.149-.326-.232-.608-.211-.281.021-.609.146-.909.38l-.246-.316c.354-.275.755-.435 1.125-.463.368-.027.73.077.954.364l-.316.246Zm-.533 1.43c.3-.234.501-.521.59-.788.089-.269.059-.493-.057-.642l.316-.246c.224.287.237.663.12 1.014-.116.352-.369.702-.723.978l-.246-.316Zm-1.517.169c.116.149.326.232.609.211.281-.021.608-.146.908-.38l.246.316c-.353.275-.755.435-1.124.463-.369.027-.731-.077-.954-.364l.315-.246Zm.414-4.596c-.291.265-.478.574-.552.854-.075.281-.03.504.095.641l-.296.269c-.247-.271-.282-.651-.186-1.013.097-.364.33-.739.67-1.047l.269.296Zm1.533-.31c-.125-.138-.343-.204-.63-.157-.285.047-.612.203-.903.467l-.269-.296c.34-.308.736-.505 1.107-.566.37-.06.744.012.991.283l-.296.269Zm-.458 1.495c.292-.264.479-.574.553-.853.074-.282.029-.505-.095-.642l.296-.269c.246.271.281.651.185 1.013-.096.364-.33.739-.67 1.047l-.269-.296Zm-1.532.31c.125.138.342.204.63.157.285-.046.611-.203.902-.467l.269.296c-.34.309-.735.505-1.107.566-.369.06-.744-.011-.99-.283l.296-.269Z" mask="url(#i)"/><mask id="j" fill="#fff"><path fill-rule="evenodd" d="m260.134 174.779-2.293 3.015-3.922-4.679c-.56-.669-.055-1.684.816-1.641l4.704.231a1 1 0 0 1 .943 1.125l-.248 1.949Zm2.999-3.941-1.684 2.213c-.24-.009-.45-.094-.591-.258-.361-.419-.144-1.196.484-1.737.628-.54 1.429-.639 1.789-.221l.002.003Zm-1.418-1.544c-.36-.419-1.161-.32-1.789.221-.628.541-.845 1.318-.484 1.737.36.418 1.161.319 1.789-.221.628-.541.844-1.319.484-1.737Zm-3.022-.639c-.329-.445-1.15-.394-1.836.112-.686.507-.975 1.278-.647 1.722.328.444 1.15.394 1.835-.113.686-.506.976-1.277.648-1.721Z" clip-rule="evenodd"/></mask><path fill="#EF9C99" fill-rule="evenodd" d="m260.134 174.779-2.293 3.015-3.922-4.679c-.56-.669-.055-1.684.816-1.641l4.704.231a1 1 0 0 1 .943 1.125l-.248 1.949Zm2.999-3.941-1.684 2.213c-.24-.009-.45-.094-.591-.258-.361-.419-.144-1.196.484-1.737.628-.54 1.429-.639 1.789-.221l.002.003Zm-1.418-1.544c-.36-.419-1.161-.32-1.789.221-.628.541-.845 1.318-.484 1.737.36.418 1.161.319 1.789-.221.628-.541.844-1.319.484-1.737Zm-3.022-.639c-.329-.445-1.15-.394-1.836.112-.686.507-.975 1.278-.647 1.722.328.444 1.15.394 1.835-.113.686-.506.976-1.277.648-1.721Z" clip-rule="evenodd"/><path fill="#8C1B00" fill-opacity=".58" d="m260.134 174.779.159.121.033-.042.006-.053-.198-.026Zm-2.293 3.015-.153.128.161.192.151-.199-.159-.121Zm-3.922-4.679-.153.128.153-.128Zm.816-1.641-.01.2.01-.2Zm4.704.231-.01.2.01-.2Zm.943 1.125.198.025-.198-.025Zm2.751-1.992.159.121.098-.129-.105-.122-.152.13Zm-1.684 2.213-.008.2.104.004.063-.083-.159-.121Zm-.591-.258-.152.13.152-.13Zm.484-1.737.13.152-.13-.152Zm1.789-.221-.152.131.152-.131Zm-3.205-1.32-.131-.152.131.152Zm1.789-.221.152-.131-.152.131Zm-2.273 1.958-.152.13.152-.13Zm1.789-.221-.131-.152.131.152Zm-4.374-2.264.119.161-.119-.161Zm1.836-.112.16-.119-.16.119Zm-.648 1.721-.118-.161.118.161Zm1.93 4.282-2.293 3.015.318.242 2.293-3.015-.318-.242Zm-1.981 3.007-3.921-4.678-.307.256 3.922 4.679.306-.257Zm-3.921-4.678a.8.8 0 0 1 .652-1.313l.02-.4c-1.046-.051-1.651 1.167-.979 1.969l.307-.256Zm.652-1.313 4.704.231.02-.399-4.704-.232-.02.4Zm4.704.231a.8.8 0 0 1 .754.9l.397.05a1.2 1.2 0 0 0-1.131-1.349l-.02.399Zm.754.9-.247 1.949.396.051.248-1.95-.397-.05Zm2.791-2.089-1.684 2.214.318.242 1.684-2.213-.318-.243Zm-2.268 2.207c.186.216.453.317.735.328l.016-.4c-.199-.007-.351-.076-.448-.189l-.303.261Zm.505-2.018c-.339.292-.575.654-.674 1.012-.1.355-.068.731.169 1.006l.303-.261c-.123-.142-.163-.365-.087-.638.075-.271.262-.568.55-.816l-.261-.303Zm2.072-.2c-.238-.276-.604-.363-.971-.317-.368.045-.761.224-1.101.517l.261.303c.288-.248.61-.389.889-.423.281-.035.495.038.618.181l.304-.261Zm.002.003-.002-.003-.304.261.002.001.304-.259Zm-3.229-1.041c.288-.249.61-.389.889-.424.281-.034.495.039.618.181l.304-.261c-.238-.275-.604-.362-.971-.317-.368.046-.761.225-1.101.517l.261.304Zm-.463 1.454c-.123-.143-.163-.365-.087-.638.075-.271.262-.568.55-.816l-.261-.304c-.339.293-.575.655-.674 1.012-.1.356-.068.731.169 1.007l.303-.261Zm1.507-.242c-.288.248-.609.389-.889.423-.281.035-.495-.038-.618-.181l-.303.261c.237.276.604.362.97.317.369-.045.762-.224 1.101-.517l-.261-.303Zm.463-1.455c.123.143.164.366.088.639-.076.271-.263.568-.551.816l.261.303c.34-.292.575-.655.675-1.012.099-.355.068-.731-.169-1.007l-.304.261Zm-4.587-.496c.316-.233.657-.356.945-.374.291-.018.5.07.611.22l.321-.238c-.217-.295-.583-.404-.956-.381-.377.023-.79.179-1.159.452l.238.321Zm-.605 1.442c-.111-.149-.133-.376-.03-.648.101-.271.318-.56.635-.794l-.238-.321c-.369.272-.639.621-.772.974-.132.351-.135.732.083 1.027l.322-.238Zm1.556-.155c-.317.234-.657.357-.946.374-.29.018-.5-.07-.61-.219l-.322.238c.218.294.583.404.957.381.376-.024.789-.179 1.158-.452l-.237-.322Zm.605-1.441c.11.149.132.375.03.648-.102.27-.319.559-.635.793l.237.322c.369-.273.64-.622.772-.975.132-.35.135-.731-.083-1.026l-.321.238Z" mask="url(#j)"/><ellipse cx="69.806" cy="39.163" fill="#D9D9D9" rx="7.5" ry="3.5" transform="rotate(-23.405 69.806 39.163)"/><path fill="#D9D9D9" d="M116.673 36.847c.04 1.932-10.818-.176-19.042-.007-8.224.168-14.331 1.168-14.37-.765-.04-1.932 6.002-6.066 14.226-6.234 8.224-.168 19.146 5.073 19.186 7.006Z"/><ellipse cx="92.392" cy="91.944" fill="#93A4FF" fill-opacity=".42" rx="68.5" ry="62" transform="rotate(-42.206 92.392 91.944)"/><path stroke="#000C7C" stroke-opacity=".72" stroke-width=".3" d="M143.021 46.026c22.938 25.292 18.894 66.363-9.078 91.732-27.973 25.369-69.241 25.396-92.18.103-22.939-25.292-18.894-66.362 9.078-91.731 27.972-25.37 69.241-25.396 92.18-.104Z"/><path fill="#8C1B00" d="M155.57 150.271c.114.2.492 2.771.666 3.923l-.698.024c-.18-1.197-.528-3.645-.478-3.87.049-.225.13-.292.164-.297.068-.01.233.019.346.22ZM184.468 134.062c.308-.948 6.772-9.343 10.063-13.046l3.217 3.087c-3.418 3.845-10.499 11.195-11.406 11.614-.907.419-1.384.303-1.509.193-.25-.221-.673-.899-.365-1.848ZM189.383 139.922c.511-.787 9.927-7.577 13.966-10.11l2.746 3.468c-4.194 2.63-14.266 8.494-15.246 8.642-.98.147-1.421-.082-1.518-.216-.196-.266-.459-.996.052-1.784ZM189.29 134.872c.288-.776 7.075-6.591 10.104-9.212l2.374 2.301c-3.146 2.722-9.947 8.546-10.778 8.738-.831.192-1.266-.004-1.379-.126-.227-.243-.608-.924-.321-1.701ZM127.543 187.932c-.684.087-6.289 4.483-8.543 6.568l3.001 3c2.34-2.165 7.063-7.026 7.212-7.709.149-.682-.037-1.101-.148-1.225-.223-.248-.839-.722-1.522-.634ZM133.117 193.081c-.517.286-3.979 6.93-5.166 9.849l3.267 2.911c1.233-3.03 3.838-10.387 3.759-11.179-.078-.791-.346-1.2-.47-1.305-.248-.211-.873-.561-1.39-.276ZM129.135 192.102c-.552.101-4.178 4.839-5.635 6.898l2.684 2.279c1.513-2.138 4.736-6.773 4.722-7.432-.015-.66-.254-1.057-.372-1.173-.236-.233-.847-.673-1.399-.572Z"/><defs><filter id="a" width="18.656" height="19.615" x="204.436" y="202.96" color-interpolation-filters="sRGB" filterUnits="userSpaceOnUse"><feFlood flood-opacity="0" result="BackgroundImageFix"/><feColorMatrix in="SourceAlpha" result="hardAlpha" values="0 0 0 0 0 0 0 0 0 0 0 0 0 0 0 0 0 0 127 0"/><feOffset dy="1"/><feGaussianBlur stdDeviation="2"/><feComposite in2="hardAlpha" operator="out"/><feColorMatrix values="0 0 0 0 0.54902 0 0 0 0 0.105882 0 0 0 0 0 0 0 0 1 0"/><feBlend in2="BackgroundImageFix" result="effect1_dropShadow_2062_326"/><feBlend in="SourceGraphic" in2="effect1_dropShadow_2062_326" result="shape"/></filter><filter id="b" width="113.029" height="117.51" x="38.283" y="40.827" color-interpolation-filters="sRGB" filterUnits="userSpaceOnUse"><feFlood flood-opacity="0" result="BackgroundImageFix"/><feColorMatrix in="SourceAlpha" result="hardAlpha" values="0 0 0 0 0 0 0 0 0 0 0 0 0 0 0 0 0 0 127 0"/><feOffset dy="4"/><feGaussianBlur stdDeviation="2"/><feComposite in2="hardAlpha" operator="out"/><feColorMatrix values="0 0 0 0 0.545098 0 0 0 0 0.145098 0 0 0 0 0.054902 0 0 0 0.32 0"/><feBlend in2="BackgroundImageFix" result="effect1_dropShadow_2062_326"/><feBlend in="SourceGraphic" in2="effect1_dropShadow_2062_326" result="shape"/></filter><filter id="d" width="35.002" height="35" x="51.463" y="90.171" color-interpolation-filters="sRGB" filterUnits="userSpaceOnUse"><feFlood flood-opacity="0" result="BackgroundImageFix"/><feColorMatrix in="SourceAlpha" result="hardAlpha" values="0 0 0 0 0 0 0 0 0 0 0 0 0 0 0 0 0 0 127 0"/><feOffset dx="-2" dy="-2"/><feGaussianBlur stdDeviation="2"/><feComposite in2="hardAlpha" operator="out"/><feColorMatrix values="0 0 0 0 0.831373 0 0 0 0 0.294118 0 0 0 0 0.168627 0 0 0 1 0"/><feBlend in2="BackgroundImageFix" result="effect1_dropShadow_2062_326"/><feBlend in="SourceGraphic" in2="effect1_dropShadow_2062_326" result="shape"/></filter><filter id="e" width="35.002" height="35" x="85.641" y="62.417" color-interpolation-filters="sRGB" filterUnits="userSpaceOnUse"><feFlood flood-opacity="0" result="BackgroundImageFix"/><feColorMatrix in="SourceAlpha" result="hardAlpha" values="0 0 0 0 0 0 0 0 0 0 0 0 0 0 0 0 0 0 127 0"/><feOffset dx="2" dy="-2"/><feGaussianBlur stdDeviation="2"/><feComposite in2="hardAlpha" operator="out"/><feColorMatrix values="0 0 0 0 0.831373 0 0 0 0 0.294118 0 0 0 0 0.168627 0 0 0 1 0"/><feBlend in2="BackgroundImageFix" result="effect1_dropShadow_2062_326"/><feBlend in="SourceGraphic" in2="effect1_dropShadow_2062_326" result="shape"/></filter></defs></svg>