<svg xmlns="http://www.w3.org/2000/svg" width="1134" height="1267" fill="none"><path fill="#107500" d="M421.985 1225.2c3.74-14.96 26.18-67.33 26.18-97.25s18.701-74.81 0-97.25c-18.7-22.44-29.92-63.584-59.841-63.584-29.92 0-59.841 14.962-82.281 11.221-22.44-3.74-41.141-7.48-63.581-41.143-22.44-33.663-37.4-78.547-37.4-93.508 0-14.961 11.22 7.481 29.92 33.663 18.7 26.182 63.581 44.885 78.541 52.365 14.96 7.48 52.361-7.482 74.801 7.48 22.441 14.962 78.542 82.286 78.542 93.506v82.29c0 14.96-18.701 44.88-18.701 63.58 0 14.97-12.467 38.65-18.7 48.63 7.48 9.97 23.936 23.94 29.92 0 7.481-29.92 37.401-157.09 33.661-175.8-3.74-18.7 3.74 0-14.96-41.14-18.701-41.144-33.661-56.103-48.621-93.507s3.74-44.884-41.141-63.586c-44.88-18.701-130.902-26.182-145.862-63.585-14.96-37.403-29.92-67.326-52.361-89.767v-.001c-22.44-22.442-41.141-41.143-63.581-52.364-22.44-11.221-52.36 3.74-71.06-37.403-18.701-41.143-37.401-74.806-44.882-97.248-7.48-22.442-14.96-52.364-7.48-63.585 7.48-11.221 48.62 48.624 63.58 63.585 14.96 14.961 26.18 33.662 78.541 44.883 52.361 11.221 119.682 29.922 134.643 59.845 14.96 29.923 26.182 52.364 33.661 67.326 7.479 14.962 33.66 22.442 48.62 26.182 14.96 3.74 29.919 3.74 44.881 33.663 14.961 29.922 22.441 44.883 22.441 82.287 0 37.403 3.738 37.402 11.219 63.585s.001 22.442 26.182 59.845c26.18 37.403 22.439 18.702 33.659 59.845 11.22 41.14 14.96 22.44 14.96 56.1 0 33.67-7.481 37.41-14.96 56.11-7.479 18.7.002 29.92-7.479 48.62-7.481 18.71-10.874 62.43-10.254 67.33 2.35 18.55 32.693-93.51 40.173-108.47 7.48-14.96 33.661-74.81 37.401-112.21 3.74-37.403 14.96-63.583 0-100.987-14.96-37.404-14.96-29.924-37.401-78.547-22.44-48.624-29.921-44.884-37.4-82.287-7.479-37.403-22.439-18.702-7.479-86.028 14.96-67.325-74.8-71.065-89.762-86.027-14.961-14.961-26.181-33.663-41.141-63.585-14.961-29.923-26.18-59.845-33.66-97.248-7.48-37.403-26.181-18.702-33.661-56.105-7.481-37.403 7.48-56.105 0-82.287-7.481-26.182-14.962-7.48-29.921-56.104-14.959-48.625-22.439-63.586-14.959-112.21 7.48-48.624 0-74.806 0-104.729 0-23.938 37.4 2.494 56.1 18.702 23.687 4.987 71.061 27.677 71.061 78.546 0 63.585-3.738 82.286 26.181 100.988 29.92 18.703 37.399-7.48 63.58 26.182 26.182 33.663 14.962 52.365 14.962 86.028 0 33.662-11.221 37.403 0 59.845 11.22 22.441 18.699 22.443 29.919 41.144 11.22 18.701 29.92 52.363 14.96 82.286-14.96 29.922-29.92 48.623-14.96 63.585 14.96 14.962 33.66 18.701 26.18 59.845v.001c-7.48 41.144-14.96 82.288-7.48 115.95 7.48 33.662 26.181 56.104 44.881 82.287 18.7 26.182 26.18 37.404 26.18 89.768 0 52.363 0 74.803-7.48 104.727-7.48 29.92-3.74 41.14-18.7 74.81-14.96 33.66-41.306 69.61-52.526 110.75-11.22 41.14 7.48 41.15 22.44 7.48 14.96-33.66 41.306-103.27 56.266-118.23 14.961-14.96 48.621-86.03 48.621-115.953 0-29.922 11.22-78.546 0-89.767-11.22-11.221-18.7-14.96-18.7-63.585s11.22-97.246 18.7-127.17c7.48-29.924 11.22-14.962 18.7-52.365 7.48-37.403 3.74-59.847-7.48-93.509s-16.938-56.264-11.22-71.066c4.335-11.221 7.48-63.585 63.581-82.287 56.101-18.701 71.061-52.364 71.061-78.546 0-26.183-11.22-44.884 7.48-78.547 18.701-33.663 41.141-48.624 63.581-52.364 22.441-3.741 67.321-37.404 71.061-52.365 3.74-14.961 33.661-48.624 44.881-52.364 11.22-3.74 56.098 7.48 74.798 7.48 18.7 0-14.96 22.443-22.44 22.443s-26.177 11.22-26.177 22.441v59.845c0 22.442-3.741 71.066-37.401 97.248-33.661 26.183-67.321 41.143-86.021 56.105-18.701 14.962-33.661 26.181-26.181 48.624s7.48 48.624 7.48 71.065v.001c0 17.954-17.453 72.313-26.18 97.248-16.895 37.776-56.468 69.434-74.801 78.548-24.151 12.007-44.984 11.464-52.361 22.441-8.602 12.801-26.181 18.703-33.661 41.144s-6.45 28.609-7.48 44.884c-2.644 41.807 0 72.312 0 82.287-.553 13.825-2.136 1.162 0 29.921 2.826 38.039 7.48 14.964 7.48 63.587 0 48.623-14.96 67.324-18.7 89.766-3.74 22.44-7.48 56.1-18.7 74.81-11.22 18.7-18.701 48.62-37.401 56.1-17.441 6.98-38.28 65.01-47.076 78.85 14.082-16.72 94.666-108.64 114.397-134.95 22.441-29.93 44.881-86.03 74.801-115.953 29.921-29.922 33.661-44.883 48.621-89.767 14.96-44.884 18.7-56.104 44.881-63.585 26.18-7.482 33.66-11.221 71.061 0 37.401 11.221 52.361-.001 74.801-11.222 22.44-11.221 14.96-44.884 52.358-41.144 37.4 3.741 56.1 0 74.8 0 14.96 0 31.17-12.467 37.4-18.7 6.24 2.494 14.96 12.719 0 33.663-18.7 26.181-18.7 3.739-52.36 14.96s-48.62 11.219-67.32 29.922c-18.698 18.703 7.48 33.664-29.918 44.885-37.4 11.22-59.841 7.48-93.501 18.701-33.661 11.221-52.361 11.221-67.321 41.144-14.96 29.922 7.48 41.142-33.661 59.844-41.14 18.702-48.62 14.962-59.841 33.662-11.211 18.69-44.828 52.31-59.806 67.29l-.035.04c-11.968 11.97-22.44 32.41-26.18 41.14-11.22 18.7-36.652 56.85-48.621 59.85-14.96 3.74-41.14 22.44-48.62 37.4-7.481 14.96-3.742 18.7-37.401 22.44-33.659 3.74-41.142 7.48-59.841 7.48-18.699 0-41.141-14.96-37.401-18.7 3.741-3.74 3.743-18.7 18.702-22.44Z"/><path fill="#21CE05" d="M403.646 786.714c9.498 14.246 4.749 31.659 6.332 45.905-3.694-3.694-11.397-11.714-12.664-14.246-1.583-3.166-1.583-18.995-3.166-25.327-1.582-6.332-4.748-14.247-14.246-22.161-9.497-7.915-22.161-4.749-37.99-9.498-15.829-4.748-26.91-6.331-34.824-11.08-7.915-4.749-18.996-17.412-23.744-30.076-4.749-12.663-11.081-23.744-15.83-34.824-4.748-11.081-7.914-23.744-14.246-36.407-6.332-12.664-39.573-26.91-52.236-28.493-12.664-1.583-33.242 11.08-44.322 7.915-11.081-3.166-20.578-11.081-25.327-18.996-4.749-7.914-30.076-28.492-42.74-36.407-12.663-7.915-30.075-22.161-37.99-37.99-7.914-15.829-11.08-26.91-20.577-39.573-7.599-10.131-11.609-24.272-12.664-30.076 4.749 5.277 15.83 18.679 22.161 30.076 7.915 14.246 23.744 30.075 30.076 42.739 6.331 12.663 44.322 37.99 66.483 58.568 22.161 20.578 41.156 7.915 68.065 12.663 26.91 4.749 34.825 14.247 49.071 26.91 14.246 12.664 22.161 31.659 30.076 53.82 7.914 22.161 17.412 28.492 39.573 49.07s26.91 6.332 50.653 15.83c23.744 9.497 20.578 17.412 30.076 31.658ZM275.429 52.237c-1.583-20.579-23.744-34.825-30.075-42.74 5.804 1.584 18.361 5.383 22.16 7.915 4.749 3.166 7.915 11.08 12.664 14.247 4.749 3.165 3.166 9.497 4.749 18.995 1.583 9.497 1.583 17.412-1.583 28.492-3.166 11.08 4.749 22.161 3.166 33.242-1.583 11.08 14.246 34.824 15.829 44.322 1.583 9.497 14.246 9.497 25.327 20.578 11.08 11.08 15.829 53.819 15.829 69.648 0 15.83 1.583 17.413 0 28.493-1.583 11.081 14.246 47.488 17.412 61.734 3.166 14.247 9.498 18.995 17.412 33.242 7.915 14.246 15.83 23.744 22.161 31.658 6.332 7.915 22.161 12.664 25.327 22.161 3.166 9.498 0 39.573 0 56.985 0 17.413 11.081 53.82 11.081 66.483 0 12.664 20.578 23.744 25.326 28.493 4.749 4.749 33.242 25.327 36.408 33.241 2.139 5.35 3.556 25.162 4.25 34.51.324 1.259.498 2.428.498 3.481 0 3.078-.166 1.001-.498-3.481-2.6-10.11-14.8-26.064-23.245-34.51-9.498-9.497-25.327-23.743-42.739-49.07-17.413-25.327-22.161-42.739-18.996-90.227 3.166-47.488-11.08-30.076-23.743-55.402-12.664-25.327-17.413-22.161-41.157-58.569-23.743-36.407-18.995-82.312-22.16-98.141-3.166-15.829-3.166-30.076-7.915-50.654-4.749-20.578-22.161-30.075-31.659-49.07-9.497-18.996-11.08-37.991-15.829-56.986-4.749-18.995 1.583-28.492 0-49.07ZM960.841 134.548c1.582-20.578 33.236-28.492 39.569-36.407-5.805 1.583-24.694.633-28.493 3.166-4.749 3.166-15.83 7.915-18.996 14.247-2.552 5.104-2.959 9.156-7.914 17.412-4.749 7.912-1.585 18.989 1.58 30.067l.003.008c3.166 11.08-6.332 11.081-11.082 18.995-5.761 9.597-34.825 28.493-44.322 33.241-8.612 4.307-44.322 9.498-55.402 20.578-11.081 11.081-20.578 33.242-20.578 49.071s-1.583 17.412 0 28.493c1.583 11.08-14.247 47.488-17.413 61.734-3.165 14.246-9.497 18.995-17.412 33.241-7.914 14.247-15.829 23.744-22.161 31.659-6.331 7.914-22.161 12.663-25.326 22.161-3.166 9.498 0 39.573 0 56.985s-11.081 53.82-11.081 66.483c0 12.664-20.578 23.744-25.327 28.493-4.749 4.749-33.241 25.327-36.407 33.241-2.14 5.35-3.556 25.162-4.25 34.51-.324 1.259-.499 2.428-.499 3.481 0 3.078.166 1.001.499-3.481 2.6-10.11 14.8-26.064 23.245-34.51 9.498-9.497 25.327-23.744 42.739-49.07 17.412-25.327 22.161-42.739 18.995-90.227-3.166-47.488 11.081-30.076 23.744-55.403 12.663-25.327 17.412-22.161 41.156-58.568s18.995-82.312 22.161-98.141c3.166-15.83 3.166-30.076 7.915-50.654 4.748-20.578 48.272-11.235 66.482-22.161 15.83-9.498 53.821-41.156 58.569-60.151 4.749-18.995-1.577-7.915.006-28.493ZM1115.04 768.136c.05.229.25 1.067.92 2.749 0 2.638-1.58 8.548-7.91 11.081-7.92 3.166-9.5 6.331-17.41 7.914-7.92 1.583-41.16 4.749-49.08 4.749-7.91 0-26.9 6.332-36.4 12.664-9.5 6.331-15.832 15.829-17.415 20.578-1.583 4.748-44.322 26.909-50.653 26.909-6.332 0-39.573 1.583-60.151 0-20.578-1.583-25.327 1.583-33.242 6.332-7.915 4.749-22.161 14.246-26.91 22.161-4.748 7.915-11.08 26.91-14.246 39.573-3.166 12.664-30.076 42.739-39.573 42.739-9.498 0-30.076 17.412-26.91 11.081 3.166-6.332 23.744-23.744 36.407-33.242 12.664-9.497 17.413-30.075 22.161-44.322 4.749-14.246 11.081-15.829 26.91-37.99s34.825-17.412 55.403-17.412h53.819c18.995 0 23.744-9.498 42.739-23.744 18.995-14.246 7.915-4.749 25.327-22.161 17.414-17.412 45.904-11.081 58.564-11.081 12.67 0 28.5-1.582 47.49-7.914 10.69-3.563 10.26-9.947 10.16-10.664-.01-.086-.01-.091 0 0ZM221.61 878.524c-4.749-9.498-7.915-22.161-9.498-23.744 3.166 3.166 9.498 11.081 9.498 17.412 0 7.915 6.332 11.081 11.08 15.829 4.749 4.749 11.081 11.081 15.83 14.247 4.748 3.166 9.497 4.749 15.829 11.08 6.332 6.332 6.332 11.081 11.08 15.83 4.749 4.748 4.749 6.331 9.498 9.497 4.749 3.166 11.08 4.749 22.161 6.332 11.08 1.583 22.161-6.332 36.407-6.332 14.247 0 26.91 7.915 30.076 9.498 3.166 1.583 20.578 12.663 12.663 11.08-7.914-1.583-18.995-6.332-26.91-11.08-7.914-4.749-15.829 0-25.326 0-9.498 0-22.161 7.914-37.991 4.748-15.829-3.165-17.412-7.914-31.658-23.743-14.246-15.83-9.498-12.664-18.995-22.161-9.498-9.498-18.995-18.996-23.744-28.493Z"/></svg>