<svg xmlns="http://www.w3.org/2000/svg" width="1920" height="1080"><defs><style>.cls-2,.cls-3{fill-rule:evenodd}.cls-2{fill:#619132}.cls-3{fill:#7bba3e}</style></defs><path id="algue_04" d="M1066.28 387.682s-65.32 32.186-66.631 69.463c-1.3 37.094 37.361 134.8 37.831 155.454.68 30.155-50.956 63.314-50.324 104.336s43.264 95.867 43.034 126.422-58.39 59.873-58.303 84.743 34.7 37.51 34.7 37.51h77.73s-14.89-24.878-13.88-44.456c.74-14.23 32.96-47.884 34.71-69.463s-50.92-89.542-49.98-133.368c.94-43.8 44.86-79.872 45.26-100.86.95-48.707-60.87-114.962-60.53-151.984.313-32.514 8.793-36.613 26.383-77.797Z" style="fill-rule:evenodd;fill:#94c961"/><path id="algue_03" d="M952.453 608.573s36.069 60.12 34.7 83.355c-2.377 40.462-62.379 49.489-63.853 90.3-1.4 38.853 35.9 60.923 34.7 91.69-1.88 48.117-34.7 90.3-34.7 90.3l59.689 1.39s24.608-34.463 26.378-98.637c1-36.3-35.735-53.45-34.707-87.523.68-22.546 54.1-49.72 54.137-88.912.033-24.383-76.344-81.963-76.344-81.963Z" class="cls-2"/><path id="algue_01" d="M833.075 608.573s-44.545 38.641-43.032 76.409c1.374 34.282 49.118 63.376 48.585 91.691s-38.55 50.55-38.868 83.355 6.94 104.193 6.94 104.193h97.168s-34.517-101.086-36.091-122.254 19.358-43.681 19.434-66.684-62.027-77.168-63.854-97.247c-1.545-16.992 9.718-69.463 9.718-69.463Z" class="cls-2"/><path id="algue_02" d="M912.2 114s-77.5 69.914-49.972 134.757 66.964 97.515 68.017 148.65c-3.111 50.673-73.287 96.961-77.734 172.267-3.127 52.941 30.115 101.349 29.15 126.422-.9 23.419-29.667 66.992-27.762 98.637 1.6 26.625 65.18 123.205 56.913 140.314s-5.553 29.174-5.553 29.174h73.571s-52.073-155.534-52.749-179.213c-.631-22.1 31.955-74.3 31.927-98.637s-26.589-73.19-26.865-113.394c-.257-37.5 66-121.521 68.508-176.959 2.511-55.338-82.361-126.885-102.72-168.1S912.2 114 912.2 114Z" class="cls-3"/><path id="algue_05" d="M1121.8 569.674s16.64 36.764 9.72 65.3c-4.44 18.307-55.74 70.928-56.91 101.415-.89 23.017 22.85 75.075 20.82 95.859s-72.7 63.687-72.18 87.522 22.21 45.846 22.21 45.846l72.18 1.384s-14.4-18.772-13.88-41.678 50.93-59.049 52.75-86.133c2.08-31.021-32.12-77.106-30.54-104.194 1.62-27.919 42.36-83.677 43.03-104.194s-47.2-61.127-47.2-61.127Z" class="cls-3"/></svg>