<svg xmlns="http://www.w3.org/2000/svg" width="1240" height="792" fill="none"><path fill="#303562" d="M121.441 324.532c19.998-37.836 53.047-37.59 67.072-32.737 11.382 18.963 26.215 32.407 18.508 57.125-5.646 18.104-42.067 71.347-44.376 117.896-2.309 46.55-107.153 136.453-84.8 80.998 22.354-55.456.436-54.319 3.516-110.022 3.079-55.702 15.083-65.966 40.08-113.26Z"/><path fill="#303562" d="M336.584 301.6c100.93 104.649 137.05 89.088 277.333 102.893 140.283 13.804 253.529 36.726 344.086 13.659 113.197-28.834 42.217 99.634-69.532 159.963-98.814 53.343-378.008 129.095-598.61 39.608C69.26 528.236 47.411 273.145 112.233 126.585S235.654 196.951 336.584 301.6Z"/><path fill="#EEC3C0" d="M137.233 153.379c-21.32-30.6-34.02-11.46-36.466 1.624-8.137 23.82-21.97 80.044-22.118 116.873-.186 46.037 1.222 120.038 17.544 157.272 14.715 33.565 67.224 120.45 166.449 180.614 99.224 60.164 333.931 52.665 374.304 46.391 38.313-5.955 131.499-25.972 166.334-44.548-45.214-5.608-167.644-.42-331.644-15.168-205-18.434-292.151-333.755-292.504-339.004-.352-5.248-15.249-65.804-41.899-104.054Z"/><path fill="#C27A75" d="M101.483 158.011c-1.337-8.92-3.753 8.077-3.504 11.527l6.235 14.288c3.086 6.714 4.136 11.668 7.594 21.129 4.322 11.826.197 14.724 6.858 22.914 6.661 8.189 8.707 24.515 9.018 28.828.312 4.313 4.198 10.101 4.145 21.377-.053 11.275 10.245 21.803 22.402 46.069 12.156 24.267 9.756 27.041 15.678 37.018 5.923 9.977.81 11.213 10.504 37.391 7.755 20.943 51.852 97.7 72.931 133.46 10.796 17.429 34.325 55.093 42.072 66.326 9.674 14.025 62.386 24.943 121.285 37.143l.185.038c58.974 12.216 123.051 11.057 162.239 13.429 31.351 1.898 77.84 1.316 97.166.787-47.28-2.366-144.983-7.392-157.553-8.565-15.713-1.466-136.488-17.022-140.987-19.298-4.5-2.277-39.687-9.273-61.26-19.854s-71.427-100.621-78.826-107.023c-7.398-6.402-57.262-108.581-59.183-123.182-1.921-14.601-5.932-22.114-10.005-30.491-4.073-8.376-28.627-48.221-31.171-71.447-2.544-23.227-5.007-21.315-5.443-27.353-.436-6.037-16.042-30.058-14.939-38.808 1.102-8.75-13.768-34.552-15.441-45.703ZM96.305 230.35c-2.228-11.631-7.96-14.165-10.547-13.979l-.614 3.513c1.562 1.621 5.118 6.046 6.847 10.777 2.161 5.913-1.03 21.75-1.456 27.851-.427 6.1 8.405 32.34 10.628 39.116 2.223 6.776 8.707 24.516 15.43 33.568 6.722 9.051 10.244 21.803 13.268 27.654 3.024 5.851 5.185 11.764 5.994 22.977.81 11.213-3.316 14.112-2.319 27.913.996 13.801 19.2 49.769 25.061 58.883 5.86 9.114 12.334 14.716 18.995 22.906 6.66 8.189 12.272 13.853 17.945 20.38 5.674 6.526 10.485 13.115 15.669 24.88 5.185 11.764 14.079 38.867 17.102 44.718 2.419 4.681 14.655 14.837 20.471 19.331-3.103-2.955-11.335-12.881-19.431-28.944-8.096-16.062-8.657-39.837-7.925-49.716-24.988-17.848-75.134-65.498-75.812-113.31-.847-59.765-21.38-79.958-25.142-84.022-3.761-4.063-6.848-10.777-14.256-29.317s-8.59-34.928-8.227-41.891c.365-6.962 1.103-8.75-1.681-23.288Z"/><path fill="#C27A75" d="M85.856 265.786c-1.486-8.563-2.78-10.493-6.11-12.564l-1.04 9.612c-.488 5.238 4.43 25.345 4.83 30.865.498 6.9 5.921 23.518 8.894 27.103 4.748 5.726.623 8.625 14.557 21.492 13.935 12.866 10.006 30.491 10.691 39.979.548 7.59-.085 22.838-.47 29.513.806 7.167 2.926 23.719 4.954 32.59 2.535 11.089 6.359 16.015 16.719 27.405 10.36 11.391 7.71 10.715 9.684 14.041 1.974 3.325 4.936 8.314 6.421 16.877 1.486 8.563 8.146 16.752 8.395 20.202.2 2.761 7.364 13.919 12.646 19.029-1.029-2.238.154-7.467-.685-9.488-1.05-2.525-9.445-22.728-13.892-36.279-4.446-13.552-16.594-25.68-23.628-39.045-7.034-13.365-15.367-32.705-13.661-57.105 1.706-24.401-1.078-38.939-3.239-44.853-2.161-5.913-14.006-25.867-20.729-34.919-6.723-9.052-9.133-18.415-11.481-26.916-2.348-8.501-.912-16.332-2.856-27.539ZM101.645 208.288c-2.077-9.561-8.063-15.602-10.796-17.428l-2.151 6.224c1.212.78 4.192 2.819 6.411 4.74 2.775 2.4 2.037 4.188 3.21 8.438 1.175 4.251 3.336 10.164 4.572 15.277 1.236 5.113 2.784 14.539 3.896 17.927 1.111 3.387 1.796 12.875 2.295 19.776.498 6.9-.729 13.925.632 20.763 1.361 6.838 5.247 12.627 8.271 18.478 3.023 5.851 12.521 17.303 13.508 18.966.987 1.663 5.362 2.214 11.222 11.328 5.861 9.115 9.071 17.553 9.694 26.179l1.806 25.014c.623 8.625 4.207 22.239 5.755 31.665 1.548 9.425 8.582 22.79 14.629 34.492 6.048 11.702 24.118 33.807 29.791 40.334 5.674 6.526 18.755 31.593 21.779 37.444 3.024 5.851 7.399 6.402 10.245 21.803 2.846 15.401 15.99 41.331 19.627 43.669 3.637 2.338 9.124 6.278 16.522 12.68 7.399 6.402 9.186 7.14 12.824 9.478 3.637 2.339 9.986 6.215 16.397 10.955 5.13 3.791 42.319 13.707 60.273 18.19l75.3 10.17 38.388 3.297 39.988 1.447c4.064-3.761-115.011-19.787-146.163-18.924-38.939 1.077-106.442-45.204-114.152-55.918-7.71-10.715-10.316-34.804-17.413-49.031-7.097-14.228-41.459-69.838-52.868-83.754-11.41-13.916-25.373-63.196-25.746-68.371l-2.056-28.464c-.747-10.351-6.608-19.465-21.041-39.232-14.433-19.766-19.982-24.568-20.365-41.881-.383-17.313-8.227-41.891-9.401-46.142-1.174-4.25-2.286-7.638-4.883-19.589Z"/><path fill="#C27A75" d="M112.622 151.825c-1.481-11.442-2.68-8.085-5.092-10.06-1.632 1.867-3.035 7.87.972 16.606 5.008 10.921 12.923 9.961 14.404 21.404 1.481 11.442.874 8.775 3.047 22.024 2.172 13.248 14.866 31.876 16.164 36.349 1.298 4.473 14.406 32.7 13.729 39.586-.678 6.885 32.571 72.722 35.787 93.025 3.216 20.302 27.44 47.886 27.905 69.656.464 21.77 38.232 70.672 54.696 88.803 16.464 18.13 41.1 44.017 60.146 62.401 19.046 18.385 48.319 18.658 108.044 32.356 61.676 14.146 174.466 17.168 205.448 20.217 24.787 2.439 53.866-5.689 81.571-7.597 4.759-1.27 34.087-7.897 24.313-7.469-12.218.536-54.623 8.813-79.06 9.885-24.436 1.071-73.323-5.478-172.465-13.495-99.142-8.018-155.802-32.711-167.089-41.642-11.287-8.932-27.934-34.032-58.436-59.627-30.502-25.594-103.521-219.607-104.213-221.413-.691-1.806-13.472-30.871-15.377-38.01-1.904-7.139-3.809-14.278-5.882-19.696-2.074-5.418-5.53-14.448-6.137-17.114-.606-2.667-8.451-11.259-10.891-30.617-2.44-19.357-3.893-13.417-5.374-24.86-1.481-11.442-14.729-9.27-16.21-20.712Z"/><path fill="#C27A75" d="M146.857 189.957c-4.367-19.2-16.934-42.801-25.295-52.024-5.858-4.052-7.83.099-7.139 1.905 2.07 2.521 4.712 8.635 12.161 17.71 9.311 11.344 9.579 17.453 14.249 31.816 3.735 11.49 7.33 28.528 8.661 35.611 6.334 15.106 23.585 58.804 41.913 112.745 18.327 53.942 58.395 124.795 76.138 153.479 14.113 18.478 50.059 61.756 80.939 87.04 38.6 31.605 137.277 32.32 157.847 35.214 20.571 2.893 209.411 11.258 224.987 11.922 12.461.531 42.757-3.972 55.431-6.2-5.507.037-27.34-1.599-37.182-.482-12.303 1.396-246.48-4.385-349.431-26.682-82.361-17.837-157.359-146.408-184.563-208.465l-51.675-137.168c-3.86-10.807-12.674-37.222-17.041-56.421Z"/><path fill="#303562" d="M1100.06 293.625c-19.19 11.32-44.99 45.104-55.5 60.581l-54.249 39.164-76.264 42.027 36.894 93.134c83.249-86.526 234.939 129.289 239.269 85.241 2.45-24.959-44.86-80.437-46.97-96.732-2.96-22.885 1-27.709 26.42-56.49 9.78-11.072 18.3-26.875 10.43-52.85-7.92-26.132-33.76-18.964-46.7-37.616-23.58-34.006.32-47.577 31.79-75.948 26.64-24.025-41.14-14.661-65.12-.511Z"/><ellipse cx="16.971" cy="18.355" fill="#fff" rx="16.971" ry="18.355" transform="matrix(.99578 -.09175 .11167 .99375 211.215 207.071)"/><ellipse cx="13.184" cy="13.35" fill="#000" rx="13.184" ry="13.35" transform="matrix(.99714 -.07557 .0939 .99558 215.511 211.291)"/><path fill="#303562" d="M213.418 399.624c19.998-37.836 53.047-37.59 67.071-32.737 11.383 18.963 26.216 32.407 18.508 57.125-5.645 18.105-42.067 71.347-44.376 117.896-2.309 46.55-107.152 136.453-84.799 80.998 22.353-55.455.436-54.319 3.515-110.021 3.079-55.703 15.084-65.967 40.081-113.261Z"/><path fill="#C27A75" d="M93.31 345.015c-.622-8.625-13.268-27.654-14.13-27.592l.498 6.901 3.762 4.063c1.645 2.772 4.972 8.832 5.122 10.902.187 2.588 1.548 9.426 2.784 14.539 1.236 5.113 2.223 6.775 3.273 9.301.84 2.02 1.26 9.446.81 11.213.228 3.162-1.227 7.025-.978 10.475.335 4.645 3.335 10.164 4.384 12.689 1.05 2.525 2.899 4.126 4.936 8.314 2.036 4.188 1.619 22.426 1.681 23.289.063.862.499 6.9 1.673 11.15 1.174 4.251 6.234 14.29 8.333 19.341 2.098 5.05 4.811 6.589 7.897 13.302 2.468 5.371 10.2 17.182 13.757 22.417.225-.884.626-3.34.426-6.1-.249-3.451-25.415-39.783-24.989-45.883.427-6.1-4.145-21.377-2.055-28.464 2.089-7.087-4.313-18.629-7.844-24.578-2.962-4.988-3.647-14.476-1.807-25.014 1.841-10.537-6.91-11.639-7.532-20.265Z"/><ellipse cx="396.822" cy="369.676" fill="#EFD9D7" rx="10.327" ry="7.892" transform="rotate(36.841 396.822 369.676)"/><ellipse cx="461.549" cy="426.821" fill="#EFD9D7" rx="18.936" ry="10.377" transform="rotate(29.012 461.549 426.821)"/><ellipse cx="420.616" cy="388.456" fill="#EFD9D7" rx="8.757" ry="4.264" transform="rotate(18.352 420.616 388.456)"/><ellipse cx="334.896" cy="318.906" fill="#EFD9D7" rx="5.542" ry="4.264" transform="rotate(18.352 334.896 318.906)"/><ellipse cx="205.239" cy="132.317" fill="#EFD9D7" rx="5.542" ry="4.264" transform="rotate(18.352 205.239 132.317)"/><ellipse cx="219.831" cy="149.156" fill="#EFD9D7" rx="10.873" ry="5.579" transform="rotate(43.58 219.831 149.156)"/><ellipse cx="203.227" cy="147.551" fill="#EFD9D7" rx="5.109" ry="2.621" transform="rotate(43.58 203.227 147.551)"/><ellipse cx="368.034" cy="350.685" fill="#EFD9D7" rx="7.459" ry="4.264" transform="rotate(-14.62 368.034 350.685)"/><ellipse cx="739.626" cy="429.631" fill="#EFD9D7" rx="7.459" ry="4.264" transform="rotate(19.218 739.626 429.631)"/><ellipse cx="484.142" cy="405.54" fill="#EFD9D7" rx="13.862" ry="6.75" transform="rotate(1.558 484.142 405.54)"/><ellipse cx="450.97" cy="396.59" fill="#EFD9D7" rx="9.291" ry="4.524" transform="rotate(1.558 450.97 396.59)"/><ellipse cx="594.876" cy="465.122" fill="#EFD9D7" rx="10.842" ry="8.739" transform="rotate(1.558 594.876 465.122)"/><ellipse cx="421.264" cy="417.807" fill="#EFD9D7" rx="11.114" ry="8.504" transform="rotate(-2.164 421.264 417.807)"/><ellipse cx="399.892" cy="402.603" fill="#EFD9D7" rx="11.114" ry="4.591" transform="rotate(25.386 399.892 402.603)"/><ellipse cx="586.48" cy="437.487" fill="#EFD9D7" rx="11.154" ry="4.928" transform="rotate(150.187 586.48 437.487)"/><ellipse cx="554.626" cy="419.702" fill="#EFD9D7" rx="18.936" ry="10.377" transform="rotate(-161.285 554.626 419.702)"/><ellipse cx="540.077" cy="442.647" fill="#EFD9D7" rx="10.251" ry="5.395" transform="rotate(173.06 540.077 442.647)"/><ellipse cx="511.942" cy="451.741" fill="#EFD9D7" rx="8.757" ry="4.264" transform="rotate(-171.945 511.942 451.741)"/><ellipse cx="497.198" cy="432.419" fill="#EFD9D7" rx="11.393" ry="8.633" transform="rotate(158.598 497.198 432.419)"/><ellipse cx="622.755" cy="418.15" fill="#EFD9D7" rx="11.393" ry="8.633" transform="rotate(158.598 622.755 418.15)"/><ellipse cx="622.755" cy="418.15" fill="#EFD9D7" rx="11.393" ry="8.633" transform="rotate(158.598 622.755 418.15)"/><ellipse cx="609.377" cy="445.8" fill="#EFD9D7" rx="7.448" ry="5.644" transform="rotate(-171.757 609.377 445.8)"/><ellipse cx="675.597" cy="445.87" fill="#EFD9D7" rx="14.088" ry="9.142" transform="rotate(-171.757 675.597 445.87)"/><ellipse cx="883.573" cy="438.178" fill="#EFD9D7" rx="6.801" ry="4.055" transform="rotate(-171.757 883.573 438.178)"/><ellipse cx="831.164" cy="443.466" fill="#EFD9D7" rx="9.814" ry="4.145" transform="rotate(-177.879 831.164 443.466)"/><ellipse cx="634.84" cy="454.885" fill="#EFD9D7" rx="10.17" ry="3.695" transform="rotate(-171.074 634.84 454.885)"/><ellipse cx="640.326" cy="435.293" fill="#EFD9D7" rx="5.367" ry="5.863" transform="rotate(152.593 640.326 435.293)"/><ellipse cx="857.745" cy="461.014" fill="#EFD9D7" rx="5.033" ry="3.622" transform="rotate(152.593 857.745 461.014)"/><ellipse cx="796.707" cy="432.209" fill="#EFD9D7" rx="5.033" ry="3.622" transform="rotate(152.593 796.707 432.209)"/><ellipse cx="694.056" cy="427.484" fill="#EFD9D7" rx="5.033" ry="3.622" transform="rotate(152.593 694.056 427.484)"/><ellipse cx="710.354" cy="445.803" fill="#EFD9D7" rx="7.593" ry="5.401" transform="rotate(-174.171 710.354 445.803)"/><ellipse cx="657.019" cy="419.594" fill="#EFD9D7" rx="8.816" ry="5.863" transform="rotate(-177.177 657.019 419.594)"/><ellipse cx="478.173" cy="462.088" fill="#EFD9D7" rx="9.291" ry="4.524" transform="rotate(171.261 478.173 462.088)"/><ellipse cx="545.813" cy="474.122" fill="#EFD9D7" rx="11.114" ry="8.504" transform="rotate(167.539 545.813 474.122)"/><ellipse cx="515.084" cy="411.879" fill="#EFD9D7" rx="11.114" ry="4.591" transform="rotate(-164.911 515.084 411.879)"/></svg>