<svg width="1240" height="792" viewBox="0 0 1240 792" fill="none" xmlns="http://www.w3.org/2000/svg">
<path d="M121.441 324.532C141.439 286.696 174.488 286.942 188.513 291.795C199.895 310.758 214.728 324.202 207.021 348.92C201.375 367.024 164.954 420.267 162.645 466.816C160.336 513.366 55.4919 603.269 77.8453 547.814C100.199 492.358 78.2814 493.495 81.3607 437.792C84.4399 382.09 96.4441 371.826 121.441 324.532Z" fill="#303562"/>
<path d="M336.584 301.6C437.514 406.249 473.634 390.688 613.917 404.493C754.2 418.297 867.446 441.219 958.003 418.152C1071.2 389.318 1000.22 517.786 888.471 578.115C789.657 631.458 510.463 707.21 289.861 617.723C69.2599 528.236 47.4113 273.145 112.233 126.585C177.055 -19.9742 235.654 196.951 336.584 301.6Z" fill="#303562"/>
<path d="M137.233 153.379C115.913 122.779 103.213 141.919 100.767 155.003C92.6302 178.823 78.7969 235.047 78.6487 271.876C78.4634 317.913 79.8712 391.914 96.1935 429.148C110.908 462.713 163.417 549.598 262.642 609.762C361.866 669.926 596.573 662.427 636.946 656.153C675.259 650.198 768.445 630.181 803.28 611.605C758.066 605.997 635.636 611.185 471.636 596.437C266.636 578.003 179.485 262.682 179.132 257.433C178.78 252.185 163.883 191.629 137.233 153.379Z" fill="#EEC3C0"/>
<path d="M101.483 158.011C100.146 149.091 97.7298 166.088 97.9789 169.538L104.214 183.826C107.3 190.54 108.35 195.494 111.808 204.955C116.13 216.781 112.005 219.679 118.666 227.869C125.327 236.058 127.373 252.384 127.684 256.697C127.996 261.01 131.882 266.798 131.829 278.074C131.776 289.349 142.074 299.877 154.231 324.143C166.387 348.41 163.987 351.184 169.909 361.161C175.832 371.138 170.719 372.374 180.413 398.552C188.168 419.495 232.265 496.252 253.344 532.012C264.14 549.441 287.669 587.105 295.416 598.338C305.09 612.363 357.802 623.281 416.701 635.481L416.886 635.519C475.86 647.735 539.937 646.576 579.125 648.948C610.476 650.846 656.965 650.264 676.291 649.735C629.011 647.369 531.308 642.343 518.738 641.17C503.025 639.704 382.25 624.148 377.751 621.872C373.251 619.595 338.064 612.599 316.491 602.018C294.918 591.437 245.064 501.397 237.665 494.995C230.267 488.593 180.403 386.414 178.482 371.813C176.561 357.212 172.55 349.699 168.477 341.322C164.404 332.946 139.85 293.101 137.306 269.875C134.762 246.648 132.299 248.56 131.863 242.522C131.427 236.485 115.821 212.464 116.924 203.714C118.026 194.964 103.156 169.162 101.483 158.011Z" fill="#C27A75"/>
<path d="M96.3047 230.35C94.0775 218.719 88.3455 216.185 85.7579 216.371L85.1437 219.884C86.7058 221.505 90.2623 225.93 91.9912 230.661C94.1523 236.574 90.9615 252.411 90.5349 258.512C90.1084 264.612 98.9396 290.852 101.163 297.628C103.386 304.404 109.87 322.144 116.593 331.196C123.315 340.247 126.837 352.999 129.861 358.85C132.885 364.701 135.046 370.614 135.855 381.827C136.665 393.04 132.539 395.939 133.536 409.74C134.532 423.541 152.736 459.509 158.597 468.623C164.457 477.737 170.931 483.339 177.592 491.529C184.252 499.718 189.864 505.382 195.537 511.909C201.211 518.435 206.022 525.024 211.206 536.789C216.391 548.553 225.285 575.656 228.308 581.507C230.727 586.188 242.963 596.344 248.779 600.838C245.676 597.883 237.444 587.957 229.348 571.894C221.252 555.832 220.691 532.057 221.423 522.178C196.435 504.33 146.289 456.68 145.611 408.868C144.764 349.103 124.231 328.91 120.469 324.846C116.708 320.783 113.621 314.069 106.213 295.529C98.8048 276.989 97.6221 260.601 97.9864 253.638C98.3507 246.676 99.0886 244.888 96.3047 230.35Z" fill="#C27A75"/>
<path d="M85.8556 265.786C84.3702 257.223 83.0751 255.293 79.7464 253.222L78.7064 262.834C78.2176 268.072 83.1368 288.179 83.5355 293.699C84.0337 300.599 89.4572 317.217 92.4298 320.802C97.1782 326.528 93.0526 329.427 106.987 342.294C120.922 355.16 116.993 372.785 117.678 382.273C118.226 389.863 117.593 405.111 117.208 411.786C118.014 418.953 120.134 435.505 122.162 444.376C124.697 455.465 128.521 460.391 138.881 471.781C149.241 483.172 146.591 482.496 148.565 485.822C150.539 489.147 153.501 494.136 154.986 502.699C156.472 511.262 163.132 519.451 163.381 522.901C163.581 525.662 170.745 536.82 176.027 541.93C174.998 539.692 176.181 534.463 175.342 532.442C174.292 529.917 165.897 509.714 161.45 496.163C157.004 482.611 144.856 470.483 137.822 457.118C130.788 443.753 122.455 424.413 124.161 400.013C125.867 375.612 123.083 361.074 120.922 355.16C118.761 349.247 106.916 329.293 100.193 320.241C93.4697 311.189 91.0595 301.826 88.7116 293.325C86.3636 284.824 87.7996 276.993 85.8556 265.786Z" fill="#C27A75"/>
<path d="M101.645 208.288C99.5677 198.727 93.5823 192.686 90.8494 190.86L88.6977 197.084C89.9101 197.864 92.8896 199.903 95.1092 201.824C97.8837 204.224 97.1457 206.012 98.3197 210.262C99.4937 214.513 101.655 220.426 102.891 225.539C104.127 230.652 105.675 240.078 106.787 243.466C107.898 246.853 108.583 256.341 109.082 263.242C109.58 270.142 108.353 277.167 109.714 284.005C111.075 290.843 114.961 296.632 117.985 302.483C121.008 308.334 130.506 319.786 131.493 321.449C132.48 323.112 136.855 323.663 142.715 332.777C148.576 341.892 151.786 350.33 152.409 358.956L154.215 383.97C154.838 392.595 158.422 406.209 159.97 415.635C161.518 425.06 168.552 438.425 174.599 450.127C180.647 461.829 198.717 483.934 204.39 490.461C210.064 496.987 223.145 522.054 226.169 527.905C229.193 533.756 233.568 534.307 236.414 549.708C239.26 565.109 252.404 591.039 256.041 593.377C259.678 595.715 265.165 599.655 272.563 606.057C279.962 612.459 281.749 613.197 285.387 615.535C289.024 617.874 295.373 621.75 301.784 626.49C306.914 630.281 344.103 640.197 362.057 644.68L437.357 654.85L475.745 658.147L515.733 659.594C519.797 655.833 400.722 639.807 369.57 640.67C330.631 641.747 263.128 595.466 255.418 584.752C247.708 574.037 245.102 549.948 238.005 535.721C230.908 521.493 196.546 465.883 185.137 451.967C173.727 438.051 159.764 388.771 159.391 383.596L157.335 355.132C156.588 344.781 150.727 335.667 136.294 315.9C121.861 296.134 116.312 291.332 115.929 274.019C115.546 256.706 107.702 232.128 106.528 227.877C105.354 223.627 104.242 220.239 101.645 208.288Z" fill="#C27A75"/>
<path d="M112.622 151.825C111.141 140.383 109.942 143.74 107.53 141.765C105.898 143.632 104.495 149.635 108.502 158.371C113.51 169.292 121.425 168.332 122.906 179.775C124.387 191.217 123.78 188.55 125.953 201.799C128.125 215.047 140.819 233.675 142.117 238.148C143.415 242.621 156.523 270.848 155.846 277.734C155.168 284.619 188.417 350.456 191.633 370.759C194.849 391.061 219.073 418.645 219.538 440.415C220.002 462.185 257.77 511.087 274.234 529.218C290.698 547.348 315.334 573.235 334.38 591.619C353.426 610.004 382.699 610.277 442.424 623.975C504.1 638.121 616.89 641.143 647.872 644.192C672.659 646.631 701.738 638.503 729.443 636.595C734.202 635.325 763.53 628.698 753.756 629.126C741.538 629.662 699.133 637.939 674.696 639.011C650.26 640.082 601.373 633.533 502.231 625.516C403.089 617.498 346.429 592.805 335.142 583.874C323.855 574.942 307.208 549.842 276.706 524.247C246.204 498.653 173.185 304.64 172.493 302.834C171.802 301.028 159.021 271.963 157.116 264.824L157.116 264.824C155.212 257.685 153.307 250.546 151.234 245.128C149.16 239.71 145.704 230.68 145.097 228.014C144.491 225.347 136.646 216.755 134.206 197.397C131.766 178.04 130.313 183.98 128.832 172.537C127.351 161.095 114.103 163.267 112.622 151.825Z" fill="#C27A75"/>
<path d="M146.857 189.957C142.49 170.757 129.923 147.156 121.562 137.933C115.704 133.881 113.732 138.032 114.423 139.838C116.493 142.359 119.135 148.473 126.584 157.548C135.895 168.892 136.163 175.001 140.833 189.364C144.568 200.854 148.163 217.892 149.494 224.975C155.828 240.081 173.079 283.779 191.407 337.72C209.734 391.662 249.802 462.515 267.545 491.199C281.658 509.677 317.604 552.955 348.484 578.239C387.084 609.844 485.761 610.559 506.331 613.453C526.902 616.346 715.742 624.711 731.318 625.375C743.779 625.906 774.075 621.403 786.749 619.175C781.242 619.212 759.409 617.576 749.567 618.693C737.264 620.089 503.087 614.308 400.136 592.011C317.775 574.174 242.777 445.603 215.573 383.546L163.898 246.378C160.038 235.571 151.224 209.156 146.857 189.957Z" fill="#C27A75"/>
<path d="M1100.06 293.625C1080.87 304.945 1055.07 338.729 1044.56 354.206L990.311 393.37L914.047 435.397L950.941 528.531C1034.19 442.005 1185.88 657.82 1190.21 613.772C1192.66 588.813 1145.35 533.335 1143.24 517.04C1140.28 494.155 1144.24 489.331 1169.66 460.55C1179.44 449.478 1187.96 433.675 1180.09 407.7C1172.17 381.568 1146.33 388.736 1133.39 370.084C1109.81 336.078 1133.71 322.507 1165.18 294.136C1191.82 270.111 1124.04 279.475 1100.06 293.625Z" fill="#303562"/>
<ellipse cx="16.9707" cy="18.355" rx="16.9707" ry="18.355" transform="matrix(0.995782 -0.0917476 0.111667 0.993746 211.215 207.071)" fill="white"/>
<ellipse cx="13.1835" cy="13.3498" rx="13.1835" ry="13.3498" transform="matrix(0.997141 -0.0755695 0.0939001 0.995582 215.511 211.291)" fill="black"/>
<path d="M213.418 399.624C233.416 361.788 266.465 362.034 280.489 366.887C291.872 385.85 306.705 399.294 298.997 424.012C293.352 442.117 256.93 495.359 254.621 541.908C252.312 588.458 147.469 678.361 169.822 622.906C192.175 567.451 170.258 568.587 173.337 512.885C176.416 457.182 188.421 446.918 213.418 399.624Z" fill="#303562"/>
<path d="M93.3107 345.015C92.6879 336.39 80.0422 317.361 79.1797 317.423L79.678 324.324L83.4396 328.387C85.0848 331.159 88.4125 337.219 88.562 339.289C88.7489 341.877 90.1097 348.715 91.3459 353.828C92.5822 358.941 93.5693 360.603 94.6187 363.129C95.4582 365.149 95.8789 372.575 95.4284 374.342C95.6568 377.504 94.2016 381.367 94.4508 384.817C94.7862 389.462 97.7858 394.981 98.8352 397.506C99.8846 400.031 101.734 401.632 103.771 405.82C105.807 410.008 105.39 428.246 105.452 429.109C105.515 429.971 105.951 436.009 107.125 440.259C108.299 444.51 113.359 454.549 115.458 459.6C117.556 464.65 120.269 466.189 123.355 472.902C125.823 478.273 133.555 490.084 137.112 495.319C137.337 494.435 137.738 491.979 137.538 489.219C137.289 485.768 112.123 449.436 112.549 443.336C112.976 437.236 108.404 421.959 110.494 414.872C112.583 407.785 106.181 396.243 102.65 390.294C99.6883 385.306 99.0032 375.818 100.843 365.28C102.684 354.743 93.9336 353.641 93.3107 345.015Z" fill="#C27A75"/>
<ellipse cx="396.822" cy="369.676" rx="10.327" ry="7.89199" transform="rotate(36.8414 396.822 369.676)" fill="#EFD9D7"/>
<ellipse cx="461.549" cy="426.821" rx="18.9359" ry="10.3775" transform="rotate(29.0117 461.549 426.821)" fill="#EFD9D7"/>
<ellipse cx="420.616" cy="388.456" rx="8.75688" ry="4.2643" transform="rotate(18.3518 420.616 388.456)" fill="#EFD9D7"/>
<ellipse cx="334.896" cy="318.906" rx="5.54246" ry="4.2643" transform="rotate(18.3518 334.896 318.906)" fill="#EFD9D7"/>
<ellipse cx="205.239" cy="132.317" rx="5.54246" ry="4.2643" transform="rotate(18.3518 205.239 132.317)" fill="#EFD9D7"/>
<ellipse cx="219.831" cy="149.156" rx="10.8735" ry="5.57932" transform="rotate(43.5793 219.831 149.156)" fill="#EFD9D7"/>
<ellipse cx="203.227" cy="147.551" rx="5.10866" ry="2.62132" transform="rotate(43.5793 203.227 147.551)" fill="#EFD9D7"/>
<ellipse cx="368.034" cy="350.685" rx="7.45863" ry="4.2643" transform="rotate(-14.6198 368.034 350.685)" fill="#EFD9D7"/>
<ellipse cx="739.626" cy="429.631" rx="7.45863" ry="4.2643" transform="rotate(19.2182 739.626 429.631)" fill="#EFD9D7"/>
<ellipse cx="484.142" cy="405.54" rx="13.862" ry="6.7503" transform="rotate(1.55831 484.142 405.54)" fill="#EFD9D7"/>
<ellipse cx="450.97" cy="396.59" rx="9.29078" ry="4.52429" transform="rotate(1.55831 450.97 396.59)" fill="#EFD9D7"/>
<ellipse cx="594.876" cy="465.122" rx="10.8416" ry="8.73883" transform="rotate(1.55831 594.876 465.122)" fill="#EFD9D7"/>
<ellipse cx="421.264" cy="417.807" rx="11.1135" ry="8.50361" transform="rotate(-2.16368 421.264 417.807)" fill="#EFD9D7"/>
<ellipse cx="399.892" cy="402.603" rx="11.1135" ry="4.59133" transform="rotate(25.3857 399.892 402.603)" fill="#EFD9D7"/>
<ellipse cx="586.48" cy="437.487" rx="11.154" ry="4.92803" transform="rotate(150.187 586.48 437.487)" fill="#EFD9D7"/>
<ellipse cx="554.626" cy="419.702" rx="18.9359" ry="10.3775" transform="rotate(-161.285 554.626 419.702)" fill="#EFD9D7"/>
<ellipse cx="540.077" cy="442.647" rx="10.2514" ry="5.39473" transform="rotate(173.06 540.077 442.647)" fill="#EFD9D7"/>
<ellipse cx="511.942" cy="451.741" rx="8.75688" ry="4.2643" transform="rotate(-171.945 511.942 451.741)" fill="#EFD9D7"/>
<ellipse cx="497.198" cy="432.419" rx="11.3928" ry="8.63348" transform="rotate(158.598 497.198 432.419)" fill="#EFD9D7"/>
<ellipse cx="622.755" cy="418.15" rx="11.3928" ry="8.63348" transform="rotate(158.598 622.755 418.15)" fill="#EFD9D7"/>
<ellipse cx="622.755" cy="418.15" rx="11.3928" ry="8.63348" transform="rotate(158.598 622.755 418.15)" fill="#EFD9D7"/>
<ellipse cx="609.377" cy="445.8" rx="7.44777" ry="5.64394" transform="rotate(-171.757 609.377 445.8)" fill="#EFD9D7"/>
<ellipse cx="675.597" cy="445.87" rx="14.0881" ry="9.14164" transform="rotate(-171.757 675.597 445.87)" fill="#EFD9D7"/>
<ellipse cx="883.573" cy="438.178" rx="6.80147" ry="4.0554" transform="rotate(-171.757 883.573 438.178)" fill="#EFD9D7"/>
<ellipse cx="831.164" cy="443.466" rx="9.81421" ry="4.14468" transform="rotate(-177.879 831.164 443.466)" fill="#EFD9D7"/>
<ellipse cx="634.84" cy="454.885" rx="10.1698" ry="3.69523" transform="rotate(-171.074 634.84 454.885)" fill="#EFD9D7"/>
<ellipse cx="640.326" cy="435.293" rx="5.36669" ry="5.86288" transform="rotate(152.593 640.326 435.293)" fill="#EFD9D7"/>
<ellipse cx="857.745" cy="461.014" rx="5.03253" ry="3.62209" transform="rotate(152.593 857.745 461.014)" fill="#EFD9D7"/>
<ellipse cx="796.707" cy="432.209" rx="5.03253" ry="3.62209" transform="rotate(152.593 796.707 432.209)" fill="#EFD9D7"/>
<ellipse cx="694.056" cy="427.484" rx="5.03253" ry="3.62209" transform="rotate(152.593 694.056 427.484)" fill="#EFD9D7"/>
<ellipse cx="710.354" cy="445.803" rx="7.59274" ry="5.4013" transform="rotate(-174.171 710.354 445.803)" fill="#EFD9D7"/>
<ellipse cx="657.019" cy="419.594" rx="8.81623" ry="5.86288" transform="rotate(-177.177 657.019 419.594)" fill="#EFD9D7"/>
<ellipse cx="478.173" cy="462.088" rx="9.29078" ry="4.52429" transform="rotate(171.261 478.173 462.088)" fill="#EFD9D7"/>
<ellipse cx="545.813" cy="474.122" rx="11.1135" ry="8.50361" transform="rotate(167.539 545.813 474.122)" fill="#EFD9D7"/>
<ellipse cx="515.084" cy="411.879" rx="11.1135" ry="4.59133" transform="rotate(-164.911 515.084 411.879)" fill="#EFD9D7"/>
</svg>
