<svg width="1093" height="1120" viewBox="0 0 1093 1120" fill="none" xmlns="http://www.w3.org/2000/svg">
<path d="M434.597 81.5591C361.628 72.9745 314.771 138.79 300.464 172.77C305.829 183.501 413.136 237.155 461.424 237.155C509.712 237.155 574.096 135.213 574.096 129.848C574.096 124.482 525.807 92.2898 434.597 81.5591Z" fill="#D4DB7C"/>
<path d="M338.021 430.307C326.766 381.532 302.252 240.731 300.464 172.77C302.252 176.347 326.218 189.939 407.771 215.693C489.324 241.446 552.635 169.193 574.096 129.847C583.039 187.078 604.142 307.977 617.019 333.73C633.115 365.922 633.115 419.576 633.115 467.864V634.19C633.115 702.866 627.75 709.305 600.923 720.035L482.886 752.227C445.328 741.497 416.355 681.405 386.309 612.728C348.752 526.883 354.117 500.056 338.021 430.307Z" fill="#739643"/>
<path fill-rule="evenodd" clip-rule="evenodd" d="M321.837 346.327C311.692 286.993 301.588 215.49 300.464 172.77C302.252 176.347 326.218 189.939 407.771 215.693C489.324 241.447 552.635 169.193 574.096 129.847C579.07 161.68 587.807 213.211 596.797 257.111C576.749 268.914 548.382 283.726 534.839 289.55C508.045 301.074 429.016 296.255 411.856 291.965C384.919 285.231 414.857 302.217 431.876 304.836C450.467 307.696 557.225 303.196 573.337 289.55C581.299 282.806 584.861 280.565 587.9 278.652C590.954 276.73 593.482 275.14 599.418 269.646C605.73 299.194 612 323.691 617.019 333.731C629.863 359.419 632.458 398.773 632.983 438.161C597.146 443.84 559.707 448.738 551.535 444.143C527.332 430.534 568.368 474.245 582.896 465C586.333 462.813 591.355 460.899 597.327 459.243C588.163 466.487 568.479 478.112 542.06 482.707C508.517 488.542 390.099 504.737 349.412 489.9C349.104 488.095 348.796 486.278 348.486 484.448L348.483 484.432L348.483 484.428L348.483 484.427C347.012 475.752 345.486 466.751 343.625 456.981C344.833 458.371 346.055 459.635 347.264 460.71C360.134 472.15 461.667 463.57 480.258 453.56C489.445 448.612 493.393 447.158 496.763 445.917C500.212 444.646 503.055 443.599 510.288 439.259C524.589 430.679 533.169 420.669 534.599 416.379C529.355 422.099 513.148 434.683 490.268 439.259C463.85 444.543 367.885 459.587 340.996 443.821C340.088 439.489 339.103 434.995 338.021 430.307C334.443 414.801 329.525 389.993 324.422 361.182C340.331 362.707 364.477 361.712 386.941 360.786C410.599 359.812 432.393 358.914 440.738 361.117C458.475 365.799 475.866 357.157 490.102 350.083C491.709 349.284 493.276 348.505 494.798 347.768C509.808 340.501 540.182 316.131 541.989 311.986C536.256 317.214 475.185 345.256 451.987 347.768C429.85 350.166 359.805 354.957 321.837 346.327ZM599.386 458.692C595.613 464.351 584.908 474.148 568.507 482.707C558.952 487.693 555.196 488.896 550.64 490.356C546.189 491.782 540.973 493.453 528.836 499.137C504.279 510.638 370.155 520.496 353.153 507.352C352.905 507.159 352.655 506.962 352.406 506.759C356.217 527.021 361.123 547.644 370.991 574.751C412.82 572.057 455.385 565.926 473.418 562.789C503.643 557.532 525.053 543.074 531.979 536.502C530.09 541.431 518.756 552.931 499.865 562.789C490.31 567.775 486.555 568.979 481.999 570.438C477.547 571.864 472.331 573.535 460.195 579.219C448.772 584.569 413.643 589.563 377.622 592.052C380.234 598.559 383.117 605.431 386.309 612.729C416.355 681.405 445.328 741.497 482.886 752.227L600.923 720.035C627.75 709.305 633.115 702.866 633.115 634.19V467.864C633.115 462.936 633.115 457.951 633.098 452.939C621.353 454.243 609.251 456.141 599.386 458.692ZM348.934 241.914C326.054 237.338 309.847 224.754 304.603 219.033C306.033 223.324 314.613 233.334 328.914 241.914C336.147 246.254 338.99 247.301 342.439 248.572C345.809 249.813 349.757 251.267 358.945 256.214C377.535 266.225 479.068 274.805 491.938 263.365C504.808 251.924 519.109 219.033 503.378 241.914C487.648 264.795 377.535 247.634 348.934 241.914ZM520.539 373.477C543.419 370.617 576.343 340.237 580.081 333.436C580.039 333.944 580.026 334.673 580.01 335.568C579.887 342.618 579.581 360.039 563.44 362.037C555.864 362.975 544.138 370.245 531.865 377.854C517.325 386.868 502.019 396.358 491.938 396.358C470.824 396.358 421.866 400.648 406.136 410.658C391.608 419.903 350.572 376.193 374.774 389.802C385.352 395.75 444.968 385.791 486.669 378.825L486.671 378.824C500.963 376.437 513.151 374.401 520.539 373.477Z" fill="#90B162"/>
<path d="M351.793 137.521C353.223 117.501 417.575 101.77 420.435 101.77C442.362 101.77 490.219 103.486 506.236 110.35C526.256 118.931 531.976 137.521 531.976 147.531C531.976 157.542 476.205 191.863 451.894 196.153C427.584 200.443 388.974 191.863 377.534 183.282C366.094 174.702 350.363 157.542 351.793 137.521Z" fill="#A0A650"/>
<path d="M380.453 141.409C381.361 128.821 422.199 118.931 424.014 118.931C437.929 118.931 468.299 120.01 478.463 124.326C491.168 129.72 494.798 141.409 494.798 147.704C494.798 153.998 459.406 175.577 443.978 178.275C428.55 180.972 404.049 175.577 396.788 170.182C389.528 164.787 379.546 153.998 380.453 141.409Z" fill="#5B5E31"/>
<path d="M380.453 141.409C381.361 128.821 422.199 118.931 424.014 118.931C437.929 118.931 468.299 120.01 478.463 124.326C491.168 129.72 494.798 141.409 494.798 147.704C494.798 153.998 459.406 175.577 443.978 178.275C428.55 180.972 404.049 175.577 396.788 170.182C389.528 164.787 379.546 153.998 380.453 141.409Z" fill="#5B5E31"/>
<path d="M128.691 439.077C56.3363 451.839 30.3863 528.349 26.4552 565.009C34.6798 573.743 152.883 594.271 199.132 580.384C245.38 566.498 277.728 450.347 276.185 445.208C274.642 440.069 219.135 423.124 128.691 439.077Z" fill="#ACB62E"/>
<path d="M122.143 454.835C74.2033 462.662 58.4497 517.745 56.565 544.308C62.2181 550.82 141.363 568.105 171.89 558.938C202.418 549.772 221.64 466.008 220.509 462.243C219.378 458.478 182.067 445.052 122.143 454.835Z" fill="#8F991A"/>
<path d="M126.358 469.066C93.7416 474.204 83.45 512.982 82.3811 531.729C86.2876 536.374 140.38 549.225 161.116 542.999C181.852 536.773 194.275 477.766 193.473 475.097C192.672 472.428 167.128 462.642 126.358 469.066Z" fill="#727A10"/>
<path d="M136.484 800.869C111.678 757.392 47.7082 629.588 26.4511 565.012C29.1927 567.924 56.0543 574.05 141.569 575.262C227.083 576.475 266.941 489.067 276.181 445.212C301.204 497.453 356.184 607.176 375.923 628.138C400.597 654.342 416.027 705.729 429.913 751.977L477.745 911.276C497.495 977.052 494.208 984.761 471.6 1002.75L367.807 1067.53C328.75 1068.05 283.72 1018.83 235.193 961.698C174.535 890.279 171.959 863.043 136.484 800.869Z" fill="#567D20"/>
<path d="M136.487 800.868C111.681 757.391 47.7111 629.587 26.454 565.011C29.1956 567.923 56.0573 574.049 141.572 575.262C227.086 576.474 266.944 489.066 276.184 445.211C301.207 497.452 356.187 607.175 375.926 628.138C400.6 654.341 416.029 705.728 429.916 751.976L477.748 911.276C497.498 977.051 494.211 984.76 471.603 1002.75L367.81 1067.53C328.753 1068.05 283.723 1018.83 235.196 961.697C174.538 890.279 171.962 863.042 136.487 800.868Z" fill="#416411"/>
<path d="M949.507 291.214C899.981 258.771 843.647 286.292 821.67 304.108C821.838 313.34 880.56 388.866 915.288 406.484C950.017 424.103 1031.38 378.486 1033.23 374.848C1035.07 371.211 1011.41 331.768 949.507 291.214Z" fill="#E8CE89"/>
<path d="M940.154 302.51C908.266 281.283 870.863 301.018 856.147 313.538C856.095 319.823 893.252 370.231 915.702 381.62C938.153 393.01 992.278 360.511 993.552 358.001C994.825 355.491 980.014 329.043 940.154 302.51Z" fill="#BA9E57"/>
<path d="M940.154 302.51C908.266 281.283 870.863 301.018 856.147 313.538C856.095 319.823 893.252 370.231 915.702 381.62C938.153 393.01 992.278 360.511 993.552 358.001C994.825 355.491 980.014 329.043 940.154 302.51Z" fill="#BA9E57"/>
<path d="M940.154 302.51C908.266 281.283 870.863 301.018 856.147 313.538C856.095 319.823 893.252 370.231 915.702 381.62C938.153 393.01 992.278 360.511 993.552 358.001C994.825 355.491 980.014 329.043 940.154 302.51Z" fill="#BA9E57"/>
<path d="M940.154 302.51C908.266 281.283 870.863 301.018 856.147 313.538C856.095 319.823 893.252 370.231 915.702 381.62C938.153 393.01 992.278 360.511 993.552 358.001C994.825 355.491 980.014 329.043 940.154 302.51Z" fill="#BA9E57"/>
<path d="M937.126 313.524C914.159 298.359 887.633 311.836 877.241 320.47C877.262 324.872 904.263 360.527 920.4 368.714C936.537 376.9 974.885 354.637 975.771 352.891C976.657 351.145 965.835 332.481 937.126 313.524Z" fill="#967D3C"/>
<path d="M760.125 492.402C768.805 455.23 799.6 350.834 821.687 304.109C821.743 307.186 834.304 325.145 884.099 372.359C933.894 419.574 1004.28 393.692 1033.24 374.849C1019.99 416.909 1001.3 505.901 993.993 528.727C984.449 558.524 976.045 592.796 959.438 625.532L902.234 738.287C878.615 784.845 872.541 787.252 849.557 784.738L753.594 763.494C730.273 742.517 730.103 691.208 732.114 633.688C734.627 561.788 747.712 545.559 760.125 492.402Z" fill="#3E5420"/>
<path d="M616.885 468.267C540.605 446.525 483.106 471.041 463.89 486.017C468.293 493.064 575.57 547.171 626.727 558.495C677.884 569.819 758.267 529.924 758.908 527.03C759.548 524.135 712.234 495.445 616.885 468.267Z" fill="#F7FF96"/>
<path d="M603.529 483.029C553.243 469.388 516.551 480.512 504.491 487.78C507.565 491.598 578.983 523.096 612.611 530.54C646.239 537.984 697.367 519.49 697.698 517.994C698.029 516.499 666.387 500.081 603.529 483.029Z" fill="#BBC636"/>
<path d="M603.977 490.47C570.196 481.322 545.574 488.685 537.485 493.51C539.554 496.058 587.546 517.127 610.135 522.127C632.723 527.127 667.029 514.873 667.249 513.877C667.47 512.881 646.204 501.906 603.977 490.47Z" fill="#7C841E"/>
<path d="M450.47 632.316C444.37 603.365 457.682 523.097 463.902 486.015C465.37 488.364 489.136 501.317 572.46 534.334C655.784 567.351 731.484 543.221 758.919 527.028C761.559 559.998 778.763 629.179 780.047 647.079C781.724 670.446 786.849 697.164 781.083 723.213L761.222 812.938C753.022 849.985 746.569 852.2 716.867 851.698L572.46 873.992C533.952 859.396 510.433 820.185 486.802 776.092C457.264 720.975 459.194 673.717 450.47 632.316Z" fill="#2D440F"/>
<path fill-rule="evenodd" clip-rule="evenodd" d="M626.365 751.126C647.392 748.221 745.489 726.145 783.731 693.835C783.576 683.394 782.531 673.089 781.525 663.179L781.525 663.179L781.525 663.178L781.525 663.176C780.967 657.674 780.421 652.293 780.047 647.079C779.612 641.007 777.344 629.034 774.434 614.575C770.448 617.402 766.363 620.476 762.216 623.734C754.846 629.525 751.545 632.99 749.033 635.628C744.72 640.156 742.73 642.246 726.465 649.475C700.724 660.915 626.362 673.786 599.191 666.635C577.455 660.915 547.233 635.651 534.84 623.734C540.083 623.734 556.576 626.594 580.601 638.035C610.632 652.335 715.024 633.744 736.475 623.734C749.439 617.684 762.676 606.9 771.251 598.905C766.102 573.621 760.355 544.966 758.919 527.028C731.484 543.221 655.784 567.351 572.46 534.334C489.136 501.317 465.37 488.364 463.902 486.015C461.082 502.827 456.804 528.517 453.538 554.276C472.972 569.902 508.139 589.868 547.707 587.983C572.12 586.821 585.429 587.784 596.276 588.57C612.116 589.717 622.706 590.484 654.96 583.693C698.433 574.541 723.602 575.113 730.752 576.543C716.452 586.077 678.985 605.43 643.52 606.574C612.15 607.586 585.792 607.165 564.954 606.833L564.954 606.833C556.344 606.696 548.677 606.574 541.987 606.574C535.542 606.574 530.118 607.708 525.076 608.763C512.219 611.453 501.845 613.623 483.356 595.133C470.633 582.411 460.168 569.396 452.903 559.396C449.348 588.712 447.319 617.361 450.47 632.316C452.703 642.911 454.238 653.889 455.781 665.284C465.09 668.795 475.9 673.341 488.158 679.17C496.662 683.213 503.992 686.881 510.595 690.186C542.934 706.371 557.833 713.827 607.769 713.827C657.82 713.827 732.837 685.156 750.773 673.786C745.099 679.662 733.491 686.734 714.248 698.458L714.247 698.459L714.243 698.461L714.222 698.474C711.327 700.238 708.258 702.108 705.011 704.094C673.959 723.093 622.869 749.216 600.624 743.859C590.73 741.476 576.987 735.674 561.014 728.93L561.014 728.929L561.014 728.929C541.077 720.512 517.666 710.627 493.924 704.093C481.748 700.742 469.866 695.089 459.085 688.629C463.27 715.449 469.86 744.478 486.802 776.092L486.848 776.177C496.29 779.245 508.023 783.589 522.006 789.353L495.868 792.68C516.675 829.785 538.862 861.257 572.46 873.992L716.867 851.698C746.569 852.2 753.022 849.985 761.222 812.938L776.174 745.389C771.953 749.294 766.995 753.749 761.257 758.906L751.733 760.118C761.44 753.166 770.134 746.542 777.156 740.955L781.056 723.333C779.305 725.748 777.775 727.841 776.519 729.557C767.648 741.669 744.731 742.014 719.857 742.389C706.821 742.586 693.247 742.791 680.876 744.701C677.103 745.284 673.544 745.841 670.185 746.366C647.922 749.847 634.492 751.947 626.365 751.126ZM751.729 760.121L751.733 760.118L522.006 789.353L522.007 789.354L495.868 792.68C510.694 800.709 527.832 808.686 544.356 813.77C581.537 825.21 625.898 828.323 648.748 829.5C671.599 830.678 726.181 790.526 753.213 766.144C756.037 763.596 758.708 761.196 761.229 758.931L761.248 758.914L761.253 758.909L751.729 760.121ZM751.729 760.121C720.583 782.427 679.004 808.113 648.748 813.77C598.007 823.258 588.68 819.027 554.82 803.671C549.237 801.139 542.987 798.305 535.775 795.179C530.967 793.096 526.377 791.155 522.007 789.354L751.729 760.121Z" fill="#3A5417"/>
<path d="M270.99 636.45C207.665 649.99 179.97 701.528 174.037 725.604C180.53 730.674 281.115 735.406 321.988 723.033C362.862 710.66 398.824 632.933 397.849 629.71C396.873 626.487 350.146 619.524 270.99 636.45Z" fill="#569451"/>
<path d="M253.213 660.895C215.735 668.962 199.221 699.094 195.649 713.151C199.474 716.091 258.935 718.581 283.135 711.255C307.336 703.929 328.808 658.501 328.24 656.624C327.672 654.747 300.062 650.811 253.213 660.895Z" fill="#367330"/>
<path d="M255.259 669.459C227.836 675.532 215.36 696.393 212.55 706.065C215.294 708.019 258.576 708.845 276.314 703.475C294.053 698.106 310.367 666.705 309.981 665.429C309.595 664.153 289.538 661.868 255.259 669.459Z" fill="#24561F"/>
<path d="M252.658 870.661C234.263 844.249 187.913 765.96 174.042 725.598C176.207 727.288 198.963 729.312 272.676 723.884C346.389 718.456 386.842 658.836 397.854 629.704C415.828 661.788 461.6 723.679 471.256 741.166C483.861 763.996 500.488 788.604 509.268 817.608L539.509 917.51C551.996 958.759 548.625 964.001 527.869 977.32L433.809 1026.9C400.068 1030.08 364.618 1001.41 326.699 967.858C279.3 925.919 278.964 908.431 252.658 870.661Z" fill="#7C9B50"/>
<path fill-rule="evenodd" clip-rule="evenodd" d="M244.839 858.919C246.865 859.639 249.741 860.822 253.137 862.22C263.791 866.605 279.564 873.098 290.302 873.992C307.463 875.422 351.799 872.561 371.819 862.551C391.84 852.541 411.86 829.66 414.72 825.37C417.008 821.938 431.881 795.339 439.031 782.469C435.694 802.489 427.019 844.532 419.011 852.541C417.253 854.298 415.452 856.232 413.536 858.288L413.534 858.291L413.533 858.291C404.54 867.945 393.039 880.291 371.819 889.722C346.079 901.162 294.586 892.582 290.302 889.722C286.017 886.862 265.997 878.281 258.846 878.281C258.474 878.281 258.092 878.225 257.701 878.117C263.084 886.321 267.327 893.589 271.355 900.488L271.355 900.488C281.921 918.584 291.001 934.137 315.266 957.357C318.075 957.938 321.511 959.064 325.56 960.391C337.859 964.422 355.806 970.304 378.964 968.374C413.286 965.514 443.321 954.074 459.052 942.634C467.842 936.241 476.186 927.614 482.586 920.998C487.639 915.775 491.48 911.804 493.372 911.173C497.663 909.743 460.482 959.794 443.321 968.374C442.309 968.881 441.301 969.387 440.297 969.891C424.294 977.932 409.333 985.45 391.84 984.104C380.126 983.203 366.142 980.599 354.537 978.438C347.724 977.169 341.73 976.053 337.498 975.524C336.589 975.41 335.653 975.192 334.7 974.886C369.62 1005.3 402.454 1029.85 433.811 1026.9L527.871 977.32C548.627 964.001 551.998 958.759 539.511 917.51L514.025 833.318C507.789 836.659 499.896 840.096 490.512 843.96C468.893 852.862 464.238 866.288 460.455 877.197C459.984 878.555 459.527 879.875 459.052 881.141L458.898 881.55C454.526 893.215 444.567 919.786 429.021 922.612C416.436 924.901 373.249 914.986 353.229 909.742C362.762 909.265 387.55 907.74 410.43 905.452C430.766 903.418 431.582 895.601 432.411 887.655C432.749 884.425 433.088 881.174 434.741 878.281C436.201 875.725 437.848 872.517 439.611 869.084C444.749 859.073 450.867 847.155 456.191 843.96C459.856 841.762 464.27 837.685 469.051 833.271L469.051 833.27C473.598 829.071 478.477 824.566 483.357 821.08C490.51 815.97 495.156 798.306 497.087 787.46C491.766 776.699 485.849 766.522 480.165 756.745L480.164 756.744L480.158 756.733C477.079 751.436 474.068 746.257 471.257 741.167C468.465 736.109 462.652 727.337 455.363 716.647C456.948 731.252 455.588 747.513 454.767 752.437C454.063 756.658 447.474 758.802 439.94 761.254C432.161 763.786 423.375 766.646 419.016 772.457C416.001 776.478 413.778 780.03 411.802 783.187C406.668 791.394 403.205 796.927 391.845 801.058C385.566 803.341 378.603 807.676 370.683 812.606C358.764 820.025 344.677 828.794 327.494 833.949C304.613 840.813 272.676 827.752 261.712 815.358C269.339 817.265 290.313 821.078 313.193 821.078C339.558 821.078 376.856 791.913 412.77 763.829L412.77 763.829L412.772 763.827L412.78 763.822C415.822 761.442 418.855 759.071 421.871 756.725C443.366 740.007 450.874 723.703 452.489 712.442C449.719 708.398 446.78 704.132 443.748 699.729L443.697 699.656L443.685 699.638L443.658 699.599L443.658 699.598C427.228 675.747 408.061 647.921 397.856 629.705C386.844 658.836 346.391 718.457 272.678 723.884C198.965 729.312 176.209 727.288 174.044 725.598C176.137 731.688 178.969 738.64 182.333 746.148C191.921 750.641 201.788 754.583 210.571 756.83C218.831 758.944 225.832 761.123 232.128 763.083L232.128 763.084L232.128 763.084C253.288 769.671 266.483 773.778 292.729 764.568C326.786 752.616 352.497 744.434 358.748 743.081C363.748 741.999 381.044 725.169 389.067 716.889C377.607 740.526 345.587 777.207 321.436 779.293C309.122 780.357 297.713 784.6 286.876 788.63L286.876 788.63C271.145 794.48 256.618 799.883 242.272 794.464C236.303 792.209 231.003 790.628 226.18 789.188L226.18 789.188C213.278 785.337 203.795 782.507 194.075 770.545C210.174 802.185 230.902 837.299 244.839 858.919Z" fill="#4D632F"/>
<path d="M914.242 475.016C870.06 449.835 821.145 483.69 802.209 503.766C802.549 512.7 855.704 578.507 886.579 591.187C917.453 603.866 987.981 549.276 989.526 545.513C991.072 541.75 969.469 506.492 914.242 475.016Z" fill="#D4DB7C"/>
<path d="M908.413 487.74C876.766 469.738 841.831 493.763 828.319 508.025C828.576 514.387 866.709 561.329 888.816 570.408C910.922 579.487 961.284 540.734 962.383 538.058C963.482 535.381 947.971 510.242 908.413 487.74Z" fill="#ACB542"/>
<path d="M904.668 501.822C883.876 490.045 861.069 505.507 852.265 514.71C852.455 518.836 877.591 549.4 892.103 555.36C906.615 561.32 939.479 536.359 940.19 534.627C940.901 532.895 930.657 516.543 904.668 501.822Z" fill="#8C932D"/>
<path d="M738.159 734.488C748.346 689.638 782.746 562.216 805.636 503.295C805.492 506.831 815.689 524.684 857.631 567.799C899.574 610.915 964.724 565.034 992.056 536.704C977.434 588.233 947.931 697.658 946.892 723.122C945.593 754.951 926.638 801.105 909.579 842.644L850.819 985.722C826.557 1044.8 820.924 1048.96 800.344 1051.29L715.096 1048.65C695.381 1029.76 698.477 970.623 703.935 903.823C710.756 820.323 723.592 798.625 738.159 734.488Z" fill="#617D3B"/>
<path fill-rule="evenodd" clip-rule="evenodd" d="M771.202 609.975C782.851 569.723 795.395 529.654 805.635 503.295C805.491 506.831 815.688 524.683 857.63 567.799C899.573 610.915 964.723 565.033 992.055 536.703C988.931 547.712 985.128 561.362 981.069 576.271C977.113 578.66 972.801 581.146 968.135 583.691C958.293 589.06 952.09 593.869 947.117 597.724C936.195 606.19 931.21 610.055 906.644 605.142C899.292 603.671 892.968 602.503 887.473 601.488L887.472 601.488L887.472 601.488C866.248 597.568 857.394 595.933 849.442 587.981C839.432 577.971 809.401 536.5 806.541 529.35C803.681 522.199 810.831 580.831 819.412 590.841C827.992 600.852 835.14 606.571 849.442 612.291C863.745 618.011 886.627 623.731 896.636 620.871C906.644 618.011 932.386 612.291 946.687 616.581C952.597 618.354 962.17 615.487 971.773 611.007C965.681 634.202 959.708 657.884 955.139 677.852C946.798 682.135 936.805 687.236 922.377 689.514C904.264 692.375 884.879 691.421 865.494 690.468C855.801 689.991 846.108 689.514 836.575 689.514C827.995 700.955 903.786 709.535 906.647 709.535C908.075 709.535 928.896 704.334 950.603 698.802C948.453 709.524 947.099 718.013 946.891 723.121C946.649 729.038 945.798 735.449 944.462 742.234C930.614 744.966 905.901 749.699 887.564 752.731C862.251 756.917 840.008 751.63 799.998 742.121L799.998 742.121C798.756 741.826 797.497 741.527 796.22 741.224C769.024 734.767 760.61 723.577 753.771 714.484C751.059 710.878 748.596 707.601 745.307 705.08C751.186 681.904 759.132 652.249 767.768 621.934C770.489 626.108 773.431 629.342 776.512 630.883C784.108 634.681 787.669 638.075 791.481 641.708C794.847 644.916 798.408 648.31 805.113 652.333C809.448 654.935 812.207 658.193 814.981 661.471C821.359 669.006 827.825 676.644 853.734 676.644C890.915 676.644 955.267 642.323 943.827 643.753C939.479 644.297 930.382 645.253 919.596 646.387C901.998 648.237 879.904 650.56 866.605 652.333C845.154 655.194 833.715 649.473 790.813 623.733C782.346 618.653 775.996 614.074 771.202 609.975ZM742.167 717.638C740.587 724.061 739.237 729.738 738.158 734.488C733.771 753.803 729.541 769.269 725.585 783.733C724.581 787.405 723.595 791.012 722.628 794.601C726.186 797.41 731.866 798.965 745.053 796.767C765.645 793.335 778.42 791.524 782.234 791.047C765.073 799.627 729.036 816.502 722.172 815.358C720.781 815.126 719.201 814.781 717.55 814.318C712.843 833.786 708.782 855.126 705.65 885.245C709.876 887.221 714.859 889.639 720.741 892.58C768.582 916.5 794.271 911.346 808.706 908.45L809.403 908.31C823.704 905.45 849.444 899.73 858.024 892.58C864.889 886.86 883.765 867.316 892.345 858.259C883.765 879.233 860.599 921.466 836.574 922.611C825.549 923.135 811.055 924.624 796.134 926.157L796.133 926.157L796.132 926.157C770.411 928.799 743.421 931.571 730.751 929.761C719.246 928.117 709.158 924.585 702.658 919.978C701.826 930.985 701.109 941.699 700.603 951.965C712.868 953.955 730.764 956.399 755.897 959.831C762.292 960.704 769.155 961.641 776.514 962.651C827.526 969.653 848.455 960.563 864.257 952.999L909.578 842.644C913.091 834.088 916.686 825.336 920.189 816.554C907.87 818.42 892.738 822.115 883.765 831.088C882.012 832.842 880.729 834.259 879.638 835.464L879.637 835.465L879.637 835.465C873.611 842.122 873.451 842.299 832.284 856.829C793.387 870.557 754.108 845.389 739.331 831.088C741.238 832.518 751.344 835.664 776.512 836.808C796.618 837.722 810.884 833.964 830.133 828.892C841.004 826.028 853.465 822.745 869.465 819.648C897.396 814.242 915.676 804.295 927.525 797.674C934.124 780.122 939.865 762.926 943.363 747.427C933.128 755.679 912.72 765.678 881.039 765.678C863.453 765.678 850.208 766.548 839.381 767.259L839.379 767.259L839.377 767.259L839.376 767.259C819.077 768.593 807.283 769.368 791.327 762.801C766.86 752.731 750.548 744.101 745.655 731.154C744.037 726.873 742.92 722.117 742.167 717.638ZM862.214 957.973C847.471 965.202 825.426 974.424 795.104 984.101C755.387 996.777 721.162 979.491 700.103 964.113C698.811 1004.13 701.642 1035.76 715.095 1048.65L800.343 1051.29C820.923 1048.96 826.556 1044.8 850.818 985.722L862.214 957.973Z" fill="#90B162"/>
<path d="M693.389 9.6259C640.256 -2.45581 599.354 50.2167 585.155 89.3626C587.992 102.007 632.378 141.399 668.142 142.781C703.906 144.164 781.115 96.05 781.115 62.138C781.115 55.8871 759.805 24.728 693.389 9.6259Z" fill="#EEF684"/>
<path d="M686.35 26.5533C651.272 18.1979 624.059 55.0148 614.542 82.3537C616.374 91.1737 662.317 108.12 685.951 109.033C709.585 109.947 748.994 66.9066 749.391 62.5472C749.788 58.1878 730.198 36.9975 686.35 26.5533Z" fill="#BEC655"/>
<path d="M685.189 40.3654C661.648 34.5215 643.256 60.5047 636.78 79.7852C637.984 85.9992 668.798 97.8839 684.672 98.4975C700.547 99.111 727.151 68.7261 727.431 65.6531C727.711 62.5801 714.614 47.6703 685.189 40.3654Z" fill="#929A2D"/>
<path d="M584.57 582.67C581.404 495.025 578.692 202.309 584.572 80.7963C585.517 87.2661 584.697 69.9288 638.484 123.716C676.042 161.273 756.498 120.363 780.809 54.581C781.365 157.234 794.636 375.782 801.443 422.365C809.951 480.593 804.264 576.462 799.145 662.744L781.514 959.938C774.234 1082.65 777.983 1057.29 767.253 1062.66L600.996 1046.56C574.317 1025.74 590.196 1025.1 600.996 910.746C615.679 755.272 589.097 708.007 584.57 582.67Z" fill="#A3DA57"/>
<path fill-rule="evenodd" clip-rule="evenodd" d="M581.348 379.913C581.207 356.727 581.122 332.984 581.108 309.313C583.125 312.342 584.926 315.217 586.31 317.707C592.102 328.134 610.095 333.866 620.521 337.188C622.965 337.966 624.993 338.613 626.351 339.156C630.579 340.847 640.808 340.538 658.516 340.003L658.516 340.003L658.516 340.003L658.517 340.003L658.517 340.003L658.517 340.003L658.517 340.003L658.518 340.003L658.52 340.003L658.523 340.003L658.524 340.003L658.524 340.003C670.761 339.633 686.568 339.156 706.433 339.156C736.243 339.156 769.076 311.718 790.515 288.385C793.624 338.347 796.962 382.424 799.688 407.959C779.875 420.352 746.326 440.335 689.283 439.258C631.546 438.169 617.633 430.941 617.669 426.96C617.703 426.765 617.739 426.574 617.776 426.387C617.708 426.569 617.671 426.761 617.669 426.96C615.977 436.708 618.847 456.221 643.521 460.707C674.982 466.428 737.899 450.697 742.189 449.267C745.212 448.26 780.175 430.927 800.573 415.771C800.873 418.245 801.163 420.448 801.443 422.361C803.926 439.35 805.2 459.543 805.632 481.768C802.388 485.049 798.43 489.407 793.673 495.03C785.317 504.905 730.896 509.466 684.058 513.391L684.058 513.391L684.055 513.391L684.053 513.392L684.051 513.392L684.05 513.392L684.049 513.392L684.049 513.392C666.01 514.904 649.097 516.321 636.374 517.912C602.62 522.132 589.093 506.119 582.598 496.854C582.085 464.503 581.664 427.27 581.401 388.221C588.529 399.186 597.823 411.157 604.906 413.518C616.215 417.287 637.46 415.536 655.061 414.086C657.491 413.886 659.852 413.691 662.107 413.518C676.98 412.374 705.485 384.44 717.879 370.617C716.926 371.093 707.872 375.48 679.273 389.208C649.77 403.371 600.782 389.287 581.348 379.913ZM582.79 508.462C583.322 539.395 583.937 565.134 584.57 582.666C584.6 583.482 584.63 584.294 584.661 585.103C601.948 590.831 629.184 597.375 640.404 592.274C652.987 586.553 664.714 581.309 669.005 579.402C654.228 596.562 618.382 626.593 593.213 609.433C590.363 607.489 587.828 605.638 585.577 603.878C587.71 640.047 591.601 669.78 595.373 698.599L595.373 698.603C596.533 707.463 597.681 716.237 598.763 725.085C608.291 727.399 617.839 730.056 627.241 732.673C665.56 743.336 701.45 753.324 723.604 736.706C746.483 719.545 766.501 709.534 773.65 706.674C764.593 720.498 743.333 749.289 730.749 753.865C715.019 759.585 649.237 765.305 627.786 759.585C616.096 756.468 606.397 745.653 600.045 735.91C601.759 750.926 603.225 766.337 604.183 782.903C610.75 785.964 618.73 791.525 626.356 801.059C643.515 822.509 703.567 809.642 743.611 801.062L743.625 801.059C766.462 796.166 782.9 784.198 792.528 774.275L799.145 662.741C799.332 659.591 799.52 656.429 799.707 653.257C775.691 667.486 743.667 684.592 713.56 695.781C667.51 712.895 633.415 661.38 622.124 633.483C624.304 635.208 632.873 641.796 649.705 654.355C670.746 670.053 711.554 666.683 753.468 654.803C781.42 646.88 795.625 635.708 801.133 628.791C803.692 583.926 805.901 538.161 805.802 497.759C799.089 506.465 790.464 514.88 782.232 517.912C760.815 525.801 702.966 533.692 675.926 537.38C668.663 538.371 663.623 539.058 662.109 539.361C654.959 540.791 600.618 540.794 587.747 517.912C585.753 514.366 584.12 511.228 582.79 508.462ZM792.077 781.891C775.144 804.865 739.481 826.256 723.599 829.659C703.573 833.949 644.947 841.099 626.356 829.659C618.731 824.966 611.281 815.311 605.124 805.281C605.734 828.462 605.282 854.191 603.187 884.173C625.947 898.826 700.61 943.131 738.001 916.954C763.043 899.422 778.402 888.2 786.114 882.393L792.077 781.891ZM785.597 891.111C779.947 901.953 771.203 914.818 760.533 920.929C741.15 932.031 695.34 952.992 670.985 942.887C650.225 934.273 616.102 911.697 602.683 891.06C602.195 897.427 601.635 903.982 600.996 910.742C597.287 950.02 592.978 975.882 590.001 993.754C584.309 1027.91 583.481 1032.89 600.996 1046.56L767.253 1062.65C769.089 1061.73 770.501 1061.72 771.617 1061.7C772.286 1061.69 772.849 1061.69 773.333 1061.49C775.889 1060.43 776.241 1054.03 778.455 1013.77C778.864 1006.34 779.336 997.753 779.898 987.831C770.62 992.973 760.208 998.563 750.769 1002.69C727.889 1012.7 712.158 1012.7 689.278 1012.7C670.973 1012.7 636.843 986.962 622.066 974.092C627.31 975.998 640.657 980.67 652.097 984.102C666.397 988.392 713.588 986.962 756.49 979.812C765.184 978.363 773.328 975.72 780.782 972.396C781.013 968.422 781.257 964.27 781.514 959.934L785.597 891.111ZM582.019 296.255L581.108 295.668C581.126 264.919 581.267 234.499 581.563 205.798C599.814 207.436 623.553 209.022 644.952 209.022C678.129 209.022 711.211 174.701 723.604 157.541C707.397 166.121 666.117 184.426 630.652 189.002C614.279 191.114 597.32 187.18 581.866 180.872C582.415 141.968 583.289 107.305 584.572 80.7925C584.826 82.5341 584.953 82.5506 586.051 82.6937C589.033 83.0822 599.176 84.4038 638.485 123.712C676.042 161.27 755.068 120.363 780.809 54.5818C781.011 91.9298 782.896 144.618 785.541 198.785C778.121 207.169 770.648 214.145 765.068 216.174C761.243 217.565 756.995 219.885 752.098 222.56C736.855 230.887 715.325 242.648 680.69 240.483C634.929 237.623 613.48 236.193 606.328 231.903C598.476 227.193 672.11 299.113 726.452 257.644C752.408 237.835 772.519 222.819 786.237 212.716C787.374 235.033 788.626 257.399 789.929 278.852L782.225 283.384C776.981 287.674 760.774 297.971 737.894 304.835C712.229 312.534 704.991 313.325 675.878 316.507L675.84 316.511L675.821 316.513C672.506 316.875 668.908 317.269 664.967 317.707C630.196 321.571 600.058 305.715 586.052 298.346C584.506 297.533 583.157 296.823 582.019 296.255Z" fill="#7BBB22"/>
<path d="M233.174 283.915C198.641 301.187 188.006 306.841 191.258 352.684C197.148 366.027 250.364 379.151 274.128 373.617C297.892 368.083 316.895 288.707 315.27 281.728C313.644 274.748 265.351 267.821 233.174 283.915Z" fill="#EEF684"/>
<path d="M239.713 293.526C214.995 305.406 207.379 309.288 209.19 339.785C213.228 348.608 250.885 356.768 267.825 352.824C284.765 348.879 299.128 295.805 298.05 291.174C296.972 286.543 262.744 282.456 239.713 293.526Z" fill="#B7C04C"/>
<path d="M242.372 300.705C224.929 309.049 219.554 311.774 220.789 333.102C223.624 339.268 250.161 344.924 262.11 342.142C274.058 339.359 284.257 302.217 283.503 298.98C282.75 295.742 258.624 292.93 242.372 300.705Z" fill="#969F32"/>
<path d="M294.457 708.391C274.143 646.233 211.426 437.091 189.96 348.89C191.924 353.338 190.386 356.749 243.889 364.393C281.446 369.758 314.996 332.193 313.639 278.551C335.376 351.973 388.366 518.763 402.504 550.789C420.177 590.821 436.429 660.615 451.056 723.43L501.439 939.792C522.242 1029.13 519.407 1010.22 513.527 1016.18L401.758 1037.44C380.024 1027.79 390.246 1024.2 373.479 940.157C350.682 825.892 323.506 797.279 294.457 708.391Z" fill="#518011"/>
<path fill-rule="evenodd" clip-rule="evenodd" d="M243.671 541.907C239.993 529.413 236.304 516.802 232.663 504.255C239.201 505.387 247.979 506.18 255.42 506.853L255.42 506.853L255.421 506.853C259.566 507.227 263.295 507.564 265.992 507.902C277.432 509.332 297.453 503.611 311.753 497.891C317.788 495.477 318.932 495.509 319.873 495.535C321.162 495.57 322.068 495.595 334.637 489.311C352.913 480.173 366.42 465.474 368.635 453.916C383.367 498.927 396.472 537.124 402.505 550.788C403.8 553.724 405.089 556.82 406.369 560.061C404.27 563.557 401.934 566.998 399.364 570.224C384.746 588.564 272.018 586.17 270.288 585.123C275.017 588.374 337.911 599.16 346.078 597.994C353.054 596.997 369.913 592.472 383.253 588.891C389.056 587.334 394.193 585.955 397.56 585.123C402.25 583.965 407.384 580.644 412.249 576.072C416.199 587.566 420.072 600.277 423.864 613.755C419.066 617.895 413.351 622.255 407.568 625.592C404.887 627.139 401.872 629.641 398.127 632.749L398.127 632.749L398.126 632.75L398.126 632.75C391.614 638.154 382.894 645.391 369.882 652.626C355.676 660.527 301.675 641.28 269.467 628.181C261.798 602.938 253.325 574.652 244.768 545.629C249.273 550.283 255.398 556.132 260.275 559.383C268.855 565.103 318.905 565.103 330.346 565.103L330.346 565.103C341.787 565.103 361.807 549.373 371.818 536.502C379.826 526.206 377.061 503.611 374.678 493.601C373.248 496.938 370.387 504.183 370.387 506.472C370.387 509.332 357.521 532.212 338.932 546.513C322.504 559.151 259.158 546.099 243.671 541.907ZM271.968 636.398C277.43 654.312 282.422 670.469 286.664 683.976C304.04 693.634 361.97 721.2 387.548 710.967C404.6 704.145 429.484 687.083 440.648 679.175C435.953 659.598 431.11 640.162 426.126 621.916C418.739 632.061 409.118 642.594 403.885 647.583C392.084 658.834 373.859 667.408 362.544 665.719C359.114 665.207 353.84 664.527 347.882 663.759L347.881 663.759L347.878 663.759L347.875 663.758C334.178 661.993 316.867 659.763 310.038 658.03C305.712 656.932 287.901 646.502 271.968 636.398ZM294.457 708.391C292.827 703.404 290.925 697.471 288.792 690.73C293.966 696.568 300.934 702.636 307.466 705.248C321.766 710.967 358.947 722.407 371.818 725.267C384.688 728.127 401.848 720.977 408.998 715.257C409.385 714.948 409.877 714.559 410.461 714.098L410.471 714.091C416.786 709.106 433.716 695.742 441.85 684.203C444.647 695.938 447.391 707.691 450.081 719.238C443.25 727.807 418.474 753.312 386.118 749.579C356.372 746.147 327.011 740.999 317.476 735.279C327.963 748.149 358.089 762.448 383.258 762.448C414.719 762.448 433.385 750.661 441.889 743.858C445.258 741.162 449.368 736.668 453.022 731.87L467.702 794.912C462.62 804.671 454.16 816.314 443.319 819.65C428.447 824.226 401.848 823.463 390.408 822.51L368.957 819.65C378.491 824.893 402.42 835.38 421.869 835.38C446.179 835.38 463.34 828.23 467.63 823.94C469.056 822.514 470.861 819.557 472.654 816.177L486.638 876.23L484.793 878.281C479.073 886.385 462.198 905.738 440.462 918.322C421.024 929.576 387.939 924.895 369.228 920.03C365.83 904.836 362.342 891.27 358.772 878.88C367.035 881.694 376.483 884.829 383.258 886.861C393.469 889.925 410.242 884.968 424.205 880.841C429.798 879.189 434.94 877.669 439.029 876.851C450.47 874.563 456.19 856.831 457.62 848.25C456.783 848.418 455.464 849.506 453.305 851.288C449.313 854.582 442.449 860.245 430.455 866.841C406.897 879.795 377.529 873.353 355.118 866.683C347.308 841.59 339.129 821.25 330.66 801.148C340.631 806.095 353.348 810.31 366.097 809.639C385.379 808.625 390.977 801.849 396.691 794.933C399.029 792.103 401.387 789.25 404.708 786.759C413.861 779.895 415.195 769.598 414.719 765.308C410.428 769.599 399.273 780.754 388.978 791.05C379.384 800.645 345.943 795.934 327.175 792.915L326.537 791.413L325.641 789.305C315.583 765.648 305.147 741.1 294.457 708.391ZM373.049 938.011C373.192 938.723 373.336 939.438 373.479 940.157C377.012 957.862 379.346 971.997 381.034 983.369C392.725 989.368 412.384 997.492 429.019 991.254C447.323 984.39 459.526 974.094 463.34 969.804C464.77 972.664 466.2 979.528 460.48 984.104C453.33 989.824 424.729 1004.12 416.149 1005.55C407.568 1006.98 387.548 1005.55 384.688 999.834C384.25 998.958 383.629 997.822 382.89 996.523C383.139 998.375 383.372 1000.13 383.593 1001.79C386.995 1027.38 387.489 1031.11 401.758 1037.44L513.527 1016.18C514.533 1015.16 515.45 1014.87 516.175 1014.64C516.586 1014.51 516.934 1014.4 517.203 1014.19C518.72 1012.99 517.666 1008.54 510.655 978.962L510.654 978.957C508.591 970.253 506.012 959.373 502.832 945.76C499.537 948.009 496.08 950.476 493.371 952.643C487.597 957.262 477.163 955.354 468.089 953.696L468.087 953.695C465.923 953.3 463.837 952.918 461.91 952.643C453.902 951.499 443.319 943.586 439.029 939.773C446.656 941.68 465.342 945.207 479.07 944.063C490.531 943.108 496.81 936.106 499.403 931.046L488.186 882.877C477.138 903.099 461.172 926.955 447.612 931.193C428.847 937.057 390.846 941.959 373.049 938.011ZM273.148 495.033C257.379 499.539 238.945 495.172 229.034 491.715C218.53 455.324 208.59 420.003 200.627 390.278C210.695 398.861 225.737 406.395 240.365 408.148C260.668 410.581 279.203 402.751 291.151 397.704C295.165 396.007 298.436 394.626 300.78 394.053C308.236 392.233 320.305 359.881 321.225 342.978C319.236 347.414 313.443 359.098 306.184 370.351C297.11 384.416 254.697 396.748 239.801 397.752C226.51 398.648 220.034 395.26 198.587 382.62C195.274 370.115 192.36 358.747 189.96 348.889C190.068 349.133 190.165 349.372 190.26 349.61C191.92 353.723 193.31 357.167 243.889 364.393C281.447 369.758 314.997 332.193 313.64 278.551C323.184 310.789 338.753 361.027 354.413 409.954C353.844 410.759 353.28 411.564 352.717 412.369L352.709 412.38C349.107 417.527 345.505 422.674 340.357 427.821C331.775 436.401 297.456 443.55 268.855 440.69C245.974 438.402 225 434.016 217.373 432.11C236.917 443.55 280.867 465.286 300.316 460.71C302.26 460.253 304.277 459.786 306.344 459.308L306.344 459.308C330.116 453.81 360.377 446.811 360.377 434.97L360.377 428.508C362.852 436.174 365.31 443.745 367.728 451.143C365.554 452.13 362.256 454.578 360.375 459.28C358.855 463.078 350.074 465.262 340.887 467.547C332.779 469.564 324.356 471.658 320.333 475.011C311.753 482.161 293.167 489.311 273.148 495.033Z" fill="#669F18"/>
<path d="M526.049 668.975C469.619 651.626 424.866 678.964 409.543 694.801C412.486 701.525 490.572 749.171 528.594 757.587C566.615 766.003 629.484 722.232 630.124 719.338C630.765 716.443 596.587 690.661 526.049 668.975Z" fill="#ACDB7C"/>
<path d="M521.952 678.291C483.916 667.123 454.674 681.72 444.806 690.414C446.921 694.317 500.084 723.262 525.639 728.918C551.194 734.575 592.153 711.006 592.515 709.369C592.878 707.731 569.497 692.25 521.952 678.291Z" fill="#79A44D"/>
<path d="M522.931 685.597C494.663 677.528 473.335 686.697 466.204 692.29C467.832 694.915 507.576 715.037 526.536 719.233C545.495 723.43 575.315 708.516 575.554 707.436C575.793 706.357 558.266 695.683 522.931 685.597Z" fill="#507030"/>
<path d="M408.375 840.275C405.336 812.001 402.847 731.773 409.554 694.8C410.535 697.041 427.782 708.55 488.922 736.657C550.061 764.764 608.539 736.821 630.136 719.336C630.343 751.768 639.588 819.187 639.588 836.803C639.588 859.799 642.011 885.918 636.245 911.967L616.384 1001.69C608.184 1038.74 603.19 1041.28 580.786 1042.39L484 1039.18C455.709 1026.85 440.071 989.383 424.614 947.099C405.292 894.243 412.72 880.707 408.375 840.275Z" fill="#618430"/>
</svg>
