<svg width="1544" height="1024" viewBox="0 0 1544 1024" fill="none" xmlns="http://www.w3.org/2000/svg">
<path d="M421.046 172.227C518.734 82.3609 643.778 12.0279 678.945 12.0279C723.231 -19.2303 866.506 21.4071 944.656 12.0297C1042.34 0.30807 1054.07 35.4731 1100.96 101.896C1147.85 168.319 1167.38 250.37 1257.26 316.793C1347.13 383.216 1429.19 566.855 1507.34 711.422C1585.49 855.99 1526.87 875.526 1429.19 914.598C1331.5 953.67 1233.81 934.134 1073.6 965.392C913.396 996.65 870.413 1024 761.003 1024C651.593 1024 131.891 938.041 38.1104 875.526C-55.6698 813.01 45.9254 730.958 104.538 645C163.151 559.041 229.578 512.154 245.208 426.195C260.839 340.236 323.359 262.093 421.046 172.227Z" fill="#A3DC99"/>
<path d="M515.018 228.058C518.038 203.893 543.714 199.362 563.348 193.321C590.534 184.329 637.355 193.321 649.438 193.321C661.52 193.321 685.686 250.713 649.438 268.837C613.19 286.961 619.231 291.492 607.149 294.513C595.066 297.533 563.348 296.023 536.162 282.43C508.977 268.837 511.997 252.224 515.018 228.058Z" fill="#D376FF"/>
<path d="M538.973 231.772C541.027 215.322 558.486 212.237 571.838 208.125C590.324 202.004 622.162 208.125 630.378 208.125C638.595 208.125 655.027 247.194 630.378 259.532C605.73 271.869 609.838 274.954 601.622 277.01C593.406 279.066 571.838 278.038 553.351 268.785C534.865 259.532 536.919 248.222 538.973 231.772Z" fill="#A156C5"/>
<path d="M550.722 234.242C552.248 221.904 565.218 219.591 575.136 216.507C588.868 211.916 612.52 216.507 618.623 216.507C624.727 216.507 636.933 245.809 618.623 255.062C600.313 264.315 603.364 266.628 597.261 268.171C591.158 269.713 575.136 268.942 561.403 262.002C547.67 255.062 549.196 246.58 550.722 234.242Z" fill="#783A95"/>
<path d="M732.534 37.7581C715.618 11.1764 731.02 1.00688 740.082 0L779.355 1.51032L823.126 6.0413C824.636 10.5723 827.383 21.1445 832.216 27.1858C838.257 34.7375 841.278 37.7581 844.299 48.3304C847.319 58.9027 841.278 57.3923 832.216 67.9646C823.154 78.5369 803.52 78.5369 782.375 77.0266C761.231 75.5162 753.679 70.9853 732.534 37.7581Z" fill="#D376FF"/>
<path d="M748.224 35.4697C736.739 16.8787 747.196 9.76622 753.348 9.06201L780.011 10.1183L808.719 12.2309C809.744 15.3999 812.618 23.8503 815.899 28.0755C820.001 33.3571 822.051 35.4697 824.102 42.8638C826.153 50.258 822.051 49.2017 815.899 56.5958C809.747 63.99 796.417 63.99 782.062 62.9337C767.706 61.8774 762.579 58.7085 748.224 35.4697Z" fill="#A156C5"/>
<path d="M758.783 34.1752C750.702 20.7484 758.06 15.6116 762.389 15.103L781.152 15.8659L801.354 17.3917C802.075 19.6804 804.098 25.7835 806.407 28.835C809.293 32.6495 810.736 34.1752 812.179 39.5155C813.622 44.8557 810.736 44.0928 806.407 49.433C802.077 54.7732 792.697 54.7732 782.595 54.0104C772.493 53.2475 768.885 50.9588 758.783 34.1752Z" fill="#783A95"/>
<path d="M605.183 970.126C646.032 1000.66 604.878 1005.44 581.237 1003.54L479.461 989.708L366.354 971.597C362.956 966.825 357.045 955.936 345.195 948.683C330.382 939.618 322.889 935.801 316.266 924.825C309.643 913.849 325.152 917.188 349.895 910.026C374.638 902.865 425.608 909.062 480.324 917.168C535.04 925.274 554.123 931.953 605.183 970.126Z" fill="#D376FF"/>
<path d="M564.186 967.343C591.856 988.591 563.892 992.033 547.84 990.759L478.746 981.341L404.465 970.277C402.169 966.949 395.682 958.031 387.651 952.99C377.613 946.689 372.533 944.039 368.061 936.382C363.59 928.725 374.115 931.021 390.939 925.954C407.762 920.887 442.366 925.094 479.51 930.627C516.654 936.159 529.599 940.782 564.186 967.343Z" fill="#A156C5"/>
<path d="M536.637 965.238C556.069 980.517 536.376 983.064 525.078 982.179L476.459 975.534L424.192 967.71C422.582 965.313 418.036 958.889 412.393 955.268C405.34 950.741 401.77 948.839 398.639 943.321C395.508 937.803 402.913 939.437 414.768 935.741C426.622 932.046 450.973 935.007 477.109 938.918C503.245 942.83 512.348 946.139 536.637 965.238Z" fill="#783A95"/>
<path d="M768.758 166.136C767.247 131.398 794.433 138.95 801.985 134.419C814.067 131.398 840.044 125.357 847.293 125.357C856.355 125.357 888.072 143.481 898.644 166.136C909.216 188.791 882.031 184.26 869.948 185.77C857.865 187.28 842.762 208.425 838.231 234.1C833.7 259.776 801.985 235.611 785.37 222.018C768.755 208.425 770.268 200.873 768.758 166.136Z" fill="#D376FF"/>
<path d="M779.375 166.708C778.203 140.489 799.301 146.189 805.161 142.769C814.537 140.489 834.697 135.929 840.323 135.929C847.355 135.929 871.969 149.609 880.174 166.708C888.379 183.808 867.281 180.388 857.904 181.528C848.527 182.668 836.806 198.627 833.29 218.007C829.774 237.386 805.161 219.147 792.267 208.887C779.373 198.627 780.547 192.927 779.375 166.708Z" fill="#A156C5"/>
<path d="M779.375 166.708C778.203 140.489 799.301 146.189 805.161 142.769C814.537 140.489 834.697 135.929 840.323 135.929C847.355 135.929 871.969 149.609 880.174 166.708C888.379 183.808 867.281 180.388 857.904 181.528C848.527 182.668 836.806 198.627 833.29 218.007C829.774 237.386 805.161 219.147 792.267 208.887C779.373 198.627 780.547 192.927 779.375 166.708Z" fill="#A156C5"/>
<path d="M794.463 165.511C793.671 148.031 807.942 151.831 811.907 149.551C818.25 148.031 831.887 144.991 835.693 144.991C840.45 144.991 857.101 154.111 862.651 165.511C868.201 176.91 853.929 174.63 847.586 175.39C841.243 176.15 833.314 186.79 830.935 199.71C828.557 212.629 811.907 200.47 803.184 193.63C794.462 186.79 795.256 182.99 794.463 165.511Z" fill="#783A95"/>
<path d="M715.26 911.215C716.77 934.591 689.584 929.509 682.033 932.558C669.951 934.591 643.974 938.656 636.724 938.656C627.662 938.656 595.946 926.46 585.373 911.215C574.801 895.97 601.987 899.019 614.07 898.003C626.152 896.986 641.255 882.758 645.786 865.48C650.317 848.202 682.033 864.463 698.648 873.611C715.263 882.758 713.749 887.839 715.26 911.215Z" fill="#D376FF"/>
<path d="M704.642 910.83C705.815 928.474 684.717 924.638 678.856 926.939C669.48 928.474 649.321 931.542 643.695 931.542C636.662 931.542 612.048 922.337 603.844 910.83C595.639 899.323 616.737 901.625 626.113 900.857C635.49 900.09 647.211 889.351 650.727 876.31C654.244 863.269 678.856 875.543 691.751 882.447C704.645 889.351 703.47 893.186 704.642 910.83Z" fill="#A156C5"/>
<path d="M704.642 910.83C705.815 928.474 684.717 924.638 678.856 926.939C669.48 928.474 649.321 931.542 643.695 931.542C636.662 931.542 612.048 922.337 603.844 910.83C595.639 899.323 616.737 901.625 626.113 900.857C635.49 900.09 647.211 889.351 650.727 876.31C654.244 863.269 678.856 875.543 691.751 882.447C704.645 889.351 703.47 893.186 704.642 910.83Z" fill="#A156C5"/>
<path d="M689.554 911.636C690.347 923.398 676.075 920.841 672.111 922.375C665.768 923.398 652.131 925.444 648.325 925.444C643.568 925.444 626.917 919.307 621.367 911.636C615.817 903.965 630.089 905.499 636.432 904.987C642.775 904.476 650.704 897.316 653.082 888.622C655.461 879.928 672.111 888.111 680.833 892.714C689.556 897.316 688.761 899.873 689.554 911.636Z" fill="#783A95"/>
<path d="M697.771 327.741C702.302 308.107 723.446 300.555 735.529 294.514C740.563 289.983 753.351 280.015 764.225 276.39C777.818 271.859 779.329 283.942 780.839 291.494C782.349 299.045 795.942 309.617 832.19 317.169C868.438 324.721 839.742 367.01 839.742 371.541C839.742 376.072 808.025 382.113 785.37 391.175C762.715 400.237 774.798 415.34 764.225 418.361C753.653 421.381 709.853 404.768 697.771 382.113C685.688 359.458 693.24 347.376 697.771 327.741Z" fill="#D376FF"/>
<path d="M709.01 330.8C712.619 315.488 729.461 309.599 739.085 304.888C743.095 301.354 753.281 293.58 761.943 290.754C772.77 287.22 773.973 296.643 775.176 302.532C776.379 308.421 787.206 316.666 816.078 322.555C844.951 328.444 822.093 361.423 822.093 364.957C822.093 368.49 796.83 373.202 778.785 380.269C760.74 387.336 770.364 399.114 761.943 401.47C753.521 403.825 718.634 390.869 709.01 373.202C699.385 355.534 705.4 346.112 709.01 330.8Z" fill="#A156C5"/>
<path d="M719.854 332.954C722.604 321.366 735.436 316.91 742.769 313.345C745.824 310.671 753.585 304.788 760.184 302.649C768.433 299.975 769.35 307.105 770.267 311.562C771.183 316.019 779.432 322.258 801.43 326.714C823.428 331.171 806.013 356.128 806.013 358.802C806.013 361.476 786.765 365.042 773.016 370.39C759.268 375.738 766.6 384.651 760.184 386.434C753.768 388.216 727.187 378.412 719.854 365.042C712.522 351.672 717.104 344.541 719.854 332.954Z" fill="#783A95"/>
<path d="M380.631 446.486C379.587 407.511 398.726 400.236 421.339 404.996C434.213 412.121 461.63 423.855 468.311 413.797C476.661 401.224 495.45 383.623 525.72 383.623C555.99 383.623 571.647 408.768 582.085 446.486C592.523 484.204 509.019 510.607 482.924 500.549C456.829 490.491 433.865 521.923 421.339 519.408C408.812 516.893 381.674 485.462 380.631 446.486Z" fill="#D376FF"/>
<path d="M407.817 448.073C407.085 421.223 420.51 416.212 436.372 419.491C445.402 424.399 464.635 432.483 469.321 425.554C475.178 416.893 488.358 404.767 509.591 404.767C530.824 404.767 541.807 422.09 549.129 448.073C556.451 474.057 497.876 492.245 479.571 485.316C461.267 478.387 445.159 500.04 436.372 498.308C427.585 496.576 408.549 474.923 407.817 448.073Z" fill="#A156C5"/>
<path d="M428.95 450.83C428.483 433.508 437.052 430.275 447.177 432.391C452.941 435.557 465.217 440.772 468.208 436.302C471.947 430.714 480.359 422.891 493.912 422.891C507.465 422.891 514.476 434.067 519.149 450.83C523.823 467.594 486.435 479.329 474.751 474.858C463.067 470.388 452.785 484.358 447.177 483.24C441.568 482.123 429.417 468.153 428.95 450.83Z" fill="#783A95"/>
<path d="M637.114 565.634C606.012 554.138 618.439 535.995 635.152 506.455C638.141 497.439 646.254 477.248 654.787 468.608C665.452 457.809 680.737 454.951 696.156 473.558C711.574 492.165 716.193 500.106 726.029 509.609C735.865 519.112 741.98 545.428 719.884 563.738C697.788 582.047 668.216 577.13 637.114 565.634Z" fill="#D376FF"/>
<path d="M645.868 559.73C621.233 550.624 631.075 536.254 644.313 512.856C646.681 505.715 653.107 489.722 659.865 482.879C668.313 474.325 680.42 472.061 692.633 486.799C704.845 501.537 708.504 507.827 716.294 515.354C724.085 522.881 728.929 543.725 711.427 558.228C693.925 572.73 670.503 568.835 645.868 559.73Z" fill="#A156C5"/>
<path d="M654.43 550.317C636.394 543.651 643.6 533.129 653.292 515.998C655.026 510.77 659.731 499.061 664.679 494.051C670.864 487.788 679.728 486.13 688.67 496.921C697.611 507.711 700.29 512.317 705.994 517.828C711.698 523.339 715.244 538.6 702.43 549.218C689.616 559.836 672.467 556.984 654.43 550.317Z" fill="#783A95"/>
<path d="M824.637 447.055C833.699 409.297 854.846 410.808 871.457 421.38C882.03 429.938 901.666 448.264 895.624 453.097C888.073 459.138 877.501 483.303 888.073 493.875C898.645 504.448 907.707 566.371 883.542 564.861C859.377 563.35 838.23 546.737 818.596 521.061C798.961 495.386 815.575 484.813 824.637 447.055Z" fill="#D376FF"/>
<path d="M829.902 455.917C836.632 427.783 852.339 428.908 864.677 436.786C872.53 443.163 887.115 456.817 882.628 460.419C877.019 464.92 869.166 482.926 877.019 490.804C884.871 498.681 891.602 544.822 873.653 543.696C855.705 542.571 839.998 530.192 825.414 511.061C810.831 491.929 823.171 484.052 829.902 455.917Z" fill="#A156C5"/>
<path d="M835.367 466.269C839.957 447.259 850.666 448.02 859.078 453.342C864.433 457.651 874.376 466.877 871.317 469.31C867.493 472.352 862.139 484.518 867.493 489.841C872.847 495.164 877.436 526.34 865.198 525.579C852.96 524.819 842.251 516.455 832.308 503.528C822.365 490.601 830.778 485.279 835.367 466.269Z" fill="#783A95"/>
<path d="M338.313 293.003C321.397 289.378 315.658 283.438 315.658 280.92C319.283 271.254 396.712 194.328 434.974 157.074C437.491 158.584 444.338 161.907 445.546 163.115C447.056 164.625 451.587 175.198 447.056 185.77C442.525 196.342 424.402 203.894 413.829 217.487C403.257 231.08 413.829 237.121 409.298 253.735C404.767 270.348 394.195 280.92 379.092 293.003C363.989 305.086 359.458 297.534 338.313 293.003Z" fill="#D376FF"/>
<path d="M430.442 187.28C435.275 184.863 429.436 171.674 425.911 166.136L324.72 268.838C325.727 270.852 328.647 277.295 332.271 280.92C336.802 285.451 347.375 285.451 356.437 286.961C365.498 288.471 368.519 280.92 383.622 270.347C398.726 259.775 391.174 244.672 392.684 238.631C394.195 232.589 404.767 202.383 410.808 194.831C416.85 187.28 424.401 190.3 430.442 187.28Z" fill="#A156C5"/>
<path d="M347.588 253.888C345.213 250.252 345.681 246.474 346.361 245.114C349.692 240.253 385.833 206.382 403.487 190.054C403.578 191.12 404.038 193.594 403.951 194.366C403.842 195.332 401.884 201.492 398.128 206.753C394.373 212.015 388.739 214.296 382.969 220.589C377.199 226.883 377.663 231.195 372.275 239.719C366.887 248.243 361.934 252.905 355.674 257.933C349.414 262.962 350.556 258.433 347.588 253.888Z" fill="#783A95"/>
<path d="M889.204 324.268C890.714 363.536 925.452 360.516 942.066 368.067C956.665 368.067 989.188 369.275 1002.48 374.108C1019.09 380.15 1028.15 374.108 1040.24 368.067C1052.32 362.026 1056.85 345.412 1055.34 324.268C1053.83 303.123 1023.62 291.041 1002.48 283.489C981.334 275.937 979.824 245.731 972.272 223.076C964.72 200.421 926.962 227.607 901.287 245.731C875.611 263.855 887.694 284.999 889.204 324.268Z" fill="#D376FF"/>
<path d="M900.516 319.573C901.747 351.761 930.045 349.285 943.578 355.475C955.472 355.475 981.965 356.465 992.792 360.427C1006.33 365.379 1013.71 360.427 1023.55 355.475C1033.39 350.523 1037.08 336.905 1035.85 319.573C1034.62 302.241 1010.02 292.337 992.792 286.147C975.567 279.957 974.337 255.197 968.185 236.627C962.034 218.057 931.275 240.341 910.359 255.197C889.443 270.053 899.286 287.385 900.516 319.573Z" fill="#A156C5"/>
<path d="M914.664 314.125C915.546 336.803 935.847 335.059 945.556 339.42C954.088 339.42 973.094 340.118 980.862 342.909C990.571 346.398 995.866 342.909 1002.93 339.42C1009.99 335.931 1012.64 326.337 1011.75 314.125C1010.87 301.914 993.219 294.936 980.862 290.575C968.505 286.214 967.622 268.769 963.209 255.686C958.796 242.603 936.73 258.303 921.725 268.769C906.72 279.236 913.781 291.447 914.664 314.125Z" fill="#783A95"/>
<path d="M519.548 137.44C503.84 128.982 492.365 116.295 493.872 111.764L530.123 86.0886L569.389 60.4131C568.382 62.9303 564.858 69.475 558.816 75.5163C551.265 83.0679 587.512 72.4957 608.657 57.3925C629.802 42.2892 635.843 48.3305 646.415 55.8821C656.987 63.4338 644.905 98.1712 610.167 102.702C575.43 107.233 598.085 126.867 590.533 141.971C582.982 157.074 539.182 148.012 519.548 137.44Z" fill="#D376FF"/>
<path d="M516.102 126.722C506.229 119.846 501.363 110.719 500.662 107.056L528.613 86.0887L557.309 67.9648C556.496 69.6998 550.034 80.872 545.688 84.8372C540.256 89.7937 574.172 90.9405 589.026 81.3587C603.88 71.7768 623.269 63.3271 629.804 69.2769C636.34 75.2267 606.191 105.737 582.984 107.055C559.778 108.373 568.589 123.508 562.71 133.835C556.832 144.162 528.444 135.317 516.102 126.722Z" fill="#A156C5"/>
<path d="M517.524 117.686C510.228 112.605 506.632 105.86 506.115 103.153L526.769 87.6599L547.974 74.2673C547.373 75.5493 542.598 83.805 539.386 86.7351C535.372 90.3977 562.945 102.231 573.922 95.1504C584.898 88.0699 609.874 75.6499 614.703 80.0465C619.533 84.4431 588.05 103.238 570.901 104.212C553.752 105.187 556.309 115.311 551.965 122.942C547.621 130.573 526.643 124.037 517.524 117.686Z" fill="#783A95"/>
<path d="M909.213 61.9231C919.785 45.3095 928.847 51.3508 936.399 48.3302C941.433 44.3026 953.013 36.2476 959.055 36.2476C966.606 36.2476 969.627 45.3095 971.137 61.9231C972.647 78.5366 971.137 75.516 980.199 90.6192C989.261 105.722 1004.36 90.6192 1031.55 81.5573C1058.74 72.4953 1064.78 104.212 1067.8 113.274C1070.82 122.336 1028.53 187.28 1017.96 188.79C1007.38 190.301 1002.85 185.77 983.22 163.115C963.586 140.46 975.668 137.439 956.034 125.357C936.4 113.274 918.275 116.295 903.171 107.233C888.068 98.1709 898.64 78.5366 909.213 61.9231Z" fill="#D376FF"/>
<path d="M909.213 61.9231C919.785 45.3095 928.847 51.3508 936.399 48.3302C941.433 44.3026 953.013 36.2476 959.055 36.2476C966.606 36.2476 969.627 45.3095 971.137 61.9231C972.647 78.5366 971.137 75.516 980.199 90.6192C989.261 105.722 1004.36 90.6192 1031.55 81.5573C1058.74 72.4953 1064.78 104.212 1067.8 113.274C1070.82 122.336 1028.53 187.28 1017.96 188.79C1007.38 190.301 1002.85 185.77 983.22 163.115C963.586 140.46 975.668 137.439 956.034 125.357C936.4 113.274 918.275 116.295 903.171 107.233C888.068 98.1709 898.64 78.5366 909.213 61.9231Z" fill="#D376FF"/>
<path d="M913.744 66.4548C922.27 54.3035 933.331 52.0503 939.421 49.841C943.481 46.8952 961.063 53.1001 963.366 57.3931C966.607 63.4336 962.148 67.8962 963.366 80.0475C964.584 92.1988 973.11 86.1144 980.417 97.161C987.725 108.208 999.904 97.161 1021.83 90.533C1043.75 83.905 1053.28 112.688 1055.72 119.316C1058.15 125.944 1024.05 173.444 1015.52 174.549C1007 175.654 998.686 166.755 982.853 150.185C967.02 133.615 976.763 131.406 960.93 122.568C945.097 113.731 930.481 115.94 918.302 109.312C906.122 102.684 905.219 78.6061 913.744 66.4548Z" fill="#A156C5"/>
<path d="M922.873 72.0252C929.847 61.7941 938.895 59.8971 943.876 58.0369C947.197 55.5566 961.578 60.781 963.462 64.3955C966.112 69.4815 962.465 73.2388 963.462 83.4699C964.458 93.701 971.431 88.578 977.409 97.879C983.386 107.18 993.348 97.879 1011.28 92.2984C1029.21 86.7178 1037.01 110.952 1039 116.533C1040.99 122.113 1013.1 162.107 1006.12 163.037C999.151 163.968 992.352 156.475 979.401 142.524C966.45 128.572 974.42 126.712 961.469 119.271C948.518 111.83 936.563 113.691 926.601 108.11C916.639 102.53 915.9 82.2563 922.873 72.0252Z" fill="#783A95"/>
<path d="M673.97 125.472C670.949 116.411 687.563 110.369 689.073 108.859C694.107 107.349 706.592 104.026 716.258 102.818C728.341 101.307 725.32 114.9 722.3 126.983C719.279 139.065 722.3 136.045 711.727 149.638C701.155 163.231 689.073 148.127 684.542 143.596C680.01 139.065 676.99 134.534 673.97 125.472Z" fill="#D376FF"/>
<path d="M679.924 125.781C677.617 119.001 690.309 114.48 691.463 113.35C695.31 112.22 704.848 109.734 712.233 108.83C721.464 107.7 719.157 117.871 716.849 126.911C714.541 135.952 716.849 133.692 708.772 143.862C700.694 154.033 691.463 142.732 688.001 139.342C684.539 135.952 682.232 132.561 679.924 125.781Z" fill="#A156C5"/>
<path d="M685.879 126.58C684.282 121.886 693.069 118.756 693.868 117.974C696.531 117.192 703.134 115.47 708.247 114.844C714.638 114.062 713.04 121.103 711.442 127.362C709.845 133.621 711.442 132.056 705.85 139.098C700.258 146.139 693.868 138.315 691.471 135.968C689.074 133.621 687.477 131.274 685.879 126.58Z" fill="#783A95"/>
<path d="M726.891 194.065C731.057 190.591 734.485 208.869 735.25 210.516C736.137 216.06 738.14 229.814 739.047 240.483C740.181 253.82 733.668 250.682 727.867 247.523C722.066 244.363 723.596 247.657 716.819 236.171C710.043 224.684 716.74 211.101 718.717 206.024C720.695 200.946 722.725 197.54 726.891 194.065Z" fill="#D376FF"/>
<path d="M726.954 200.654C730.069 198.001 732.643 211.968 733.216 213.227C733.883 217.462 735.388 227.971 736.072 236.123C736.927 246.312 732.053 243.912 727.711 241.495C723.369 239.078 724.515 241.596 719.438 232.817C714.362 224.038 719.367 213.664 720.844 209.786C722.321 205.908 723.838 203.306 726.954 200.654Z" fill="#A156C5"/>
<path d="M726.783 207.25C728.94 205.413 730.722 215.082 731.118 215.954C731.58 218.886 732.622 226.162 733.096 231.805C733.688 238.859 730.313 237.198 727.307 235.525C724.301 233.851 725.094 235.594 721.58 229.517C718.066 223.439 721.53 216.257 722.553 213.572C723.576 210.887 724.626 209.086 726.783 207.25Z" fill="#783A95"/>
<path d="M1176.29 305.085C1165.42 284.545 1177.8 256.252 1185.36 244.672C1189.89 250.21 1200.76 263.098 1208.01 270.348C1217.08 279.41 1258.9 314.965 1266.92 323.209C1320.93 378.727 1312.34 373.623 1330 395.275C1330.35 395.136 1330.35 395.315 1330.35 395.705C1330.23 395.56 1330.11 395.417 1330 395.275C1329.44 395.494 1328.01 396.505 1324.31 398.725C1316.76 403.256 1324.31 427.422 1331.86 447.056C1339.41 466.69 1306.18 505.958 1275.98 502.938C1245.77 499.917 1236.71 487.835 1208.01 465.18C1179.32 442.525 1203.48 428.932 1208.01 371.54C1212.54 314.147 1189.89 330.761 1176.29 305.085Z" fill="#D376FF"/>
<path d="M1193.52 307.793C1184.94 291.467 1191.74 268.979 1197.69 259.775C1201.26 264.177 1212.81 274.421 1218.52 280.183C1225.67 287.385 1258.4 316.213 1265.65 321.699C1270.39 325.277 1307.46 363.495 1319.79 381.762C1319.94 381.889 1320.03 382.01 1320.03 382.112C1319.95 381.996 1319.87 381.879 1319.79 381.762C1318.74 380.888 1314.36 379.705 1310.2 382.219C1304.25 385.82 1310.2 405.027 1316.15 420.633C1322.11 436.238 1295.91 467.449 1272.1 465.049C1248.29 462.648 1241.14 453.044 1218.52 435.038C1195.9 417.031 1214.95 406.228 1218.52 360.611C1222.09 314.995 1204.23 328.2 1193.52 307.793Z" fill="#A156C5"/>
<path d="M1211.45 313.01C1204.71 300.046 1208.11 282.187 1212.79 274.879C1215.81 277.9 1226.22 286.942 1231.12 291.085C1236.96 296.023 1262.49 319.697 1268.19 324.053C1271.92 326.9 1302.7 357.449 1312.35 371.922C1312.43 371.991 1312.47 372.057 1312.47 372.114C1312.43 372.05 1312.39 371.986 1312.35 371.922C1311.5 371.213 1306.65 370.031 1303.24 372.114C1298.55 374.973 1303.24 390.226 1307.92 402.619C1312.6 415.011 1292 439.797 1273.26 437.89C1254.53 435.983 1248.91 428.357 1231.12 414.058C1213.32 399.759 1228.31 391.179 1231.12 354.955C1233.93 318.73 1219.88 329.216 1211.45 313.01Z" fill="#783A95"/>
<path d="M434.974 314.147C434.974 297.533 439.505 303.575 451.587 302.064C455.615 300.051 464.878 294.211 469.711 286.961C475.752 277.899 489.345 283.941 501.428 286.961C513.511 289.982 501.428 309.616 495.387 314.147C489.345 318.677 480.283 318.678 480.283 330.761C480.283 342.843 468.201 347.374 451.587 344.354C434.974 341.333 434.974 330.76 434.974 314.147Z" fill="#D376FF"/>
<path d="M444.035 314.435C444.035 303.298 447.093 307.348 455.246 306.336C457.963 304.986 464.214 301.071 467.475 296.211C471.552 290.137 480.724 294.186 488.877 296.211C497.03 298.236 488.877 311.398 484.8 314.435C480.724 317.472 474.609 317.473 474.609 325.572C474.609 333.672 466.456 336.709 455.246 334.685C444.035 332.66 444.035 325.572 444.035 314.435Z" fill="#A156C5"/>
<path d="M450.076 314.353C450.076 306.398 452.369 309.291 458.484 308.567C460.522 307.603 465.21 304.807 467.656 301.336C470.714 296.997 477.593 299.889 483.708 301.336C489.822 302.782 483.708 312.183 480.65 314.353C477.593 316.522 473.007 316.522 473.007 322.308C473.007 328.093 466.892 330.263 458.484 328.817C450.076 327.37 450.076 322.308 450.076 314.353Z" fill="#783A95"/>
<path d="M1049.67 261.287C1039.1 252.225 1048.16 234.101 1055.71 223.528C1064.78 206.915 1086.53 208.727 1101.03 203.894C1119.15 197.853 1119.15 218.998 1117.64 234.101C1116.13 249.204 1116.13 253.735 1129.72 267.328C1143.32 280.921 1122.17 311.127 1108.58 312.638C1094.99 314.148 1104.05 297.534 1084.41 271.859C1064.78 246.183 1060.25 270.349 1049.67 261.287Z" fill="#D376FF"/>
<path d="M1066.05 254.761C1059.36 248.034 1066.37 236.055 1072 229.178C1078.94 218.233 1093.53 220.537 1103.56 217.932C1116.1 214.676 1115.05 229.168 1113.28 239.446C1111.52 249.724 1111.29 252.829 1119.8 262.809C1128.3 272.788 1112.53 292.459 1103.27 292.831C1094.02 293.202 1100.96 282.258 1088.98 263.703C1076.99 245.147 1072.74 261.488 1066.05 254.761Z" fill="#A156C5"/>
<path d="M1073.71 251.083C1068.63 245.978 1073.96 236.889 1078.22 231.67C1083.49 223.366 1094.56 225.114 1102.17 223.137C1111.69 220.667 1110.89 231.663 1109.55 239.462C1108.21 247.26 1108.04 249.616 1114.49 257.189C1120.94 264.761 1108.98 279.687 1101.96 279.969C1094.93 280.251 1100.2 271.947 1091.11 257.867C1082.01 243.788 1078.78 256.187 1073.71 251.083Z" fill="#783A95"/>
<path d="M446.315 702.649C441.305 693.932 445.599 676.496 449.177 666.325C453.472 650.342 463.778 652.086 470.649 647.437C479.237 641.625 479.237 661.966 478.522 676.496C477.806 691.026 477.806 695.385 484.247 708.461C490.688 721.538 480.669 750.597 474.227 752.05C467.786 753.503 472.08 737.521 462.776 712.82C453.472 688.12 451.324 711.367 446.315 702.649Z" fill="#D376FF"/>
<path d="M454.072 696.371C450.902 689.9 454.227 678.375 456.891 671.759C460.181 661.231 467.097 663.447 471.849 660.941C477.79 657.809 477.294 671.75 476.456 681.637C475.618 691.525 475.512 694.512 479.542 704.113C483.572 713.713 476.097 732.637 471.713 732.995C467.328 733.352 470.618 722.824 464.938 704.973C459.259 687.122 457.242 702.842 454.072 696.371Z" fill="#A156C5"/>
<path d="M457.701 692.833C455.296 687.923 457.819 679.178 459.841 674.158C462.337 666.169 467.585 667.851 471.191 665.949C475.698 663.572 475.322 674.151 474.686 681.653C474.05 689.156 473.97 691.423 477.027 698.707C480.085 705.992 474.414 720.351 471.087 720.623C467.76 720.894 470.256 712.905 465.947 699.36C461.637 685.815 460.107 697.743 457.701 692.833Z" fill="#783A95"/>
<path d="M981.63 964.743C966.501 966.866 949.677 947.847 940.87 935.007C925.784 916.989 937.541 901.442 938.427 887.064C939.535 869.092 963.865 883.138 980.572 894.335C997.278 905.532 1002.49 908.542 1024.18 907.103C1045.86 905.663 1071.22 942.016 1066.91 953.489C1062.6 964.961 1047.52 946.945 1009.24 945.01C970.968 943.076 996.758 962.621 981.63 964.743Z" fill="#D376FF"/>
<path d="M981.405 947.799C970.69 948.482 960.026 935.12 954.613 926.221C945.108 913.603 954.248 903.892 955.711 894.437C957.539 882.619 973.748 893.053 984.788 901.242C995.828 909.432 999.301 911.668 1014.57 911.747C1029.83 911.827 1045.45 937.043 1041.76 944.416C1038.08 951.79 1028.57 939.173 1001.89 936.077C975.211 932.98 992.12 947.115 981.405 947.799Z" fill="#A156C5"/>
<path d="M980.58 939.453C972.45 939.972 964.358 929.833 960.251 923.08C953.038 913.506 959.974 906.138 961.083 898.963C962.471 889.996 974.77 897.913 983.147 904.127C991.523 910.341 994.159 912.037 1005.74 912.098C1017.32 912.158 1029.18 931.292 1026.38 936.887C1023.58 942.482 1016.37 932.908 996.124 930.559C975.879 928.209 988.71 938.935 980.58 939.453Z" fill="#783A95"/>
<path d="M1013.57 585.637C973.538 557.891 987.673 534.866 986.831 492.344C991.938 468.53 1012.94 505.836 1014.83 484.17C1017.19 457.087 1011.96 447.534 1019.55 430.003C1027.14 412.472 1044.68 420.064 1068.55 441.854C1092.42 463.643 1068.54 476.722 1087.32 487.455C1106.09 498.187 1141.48 492.175 1150.83 506.636C1160.19 521.097 1127.92 595.602 1104.5 620.85C1081.07 646.097 1053.6 613.382 1013.57 585.637Z" fill="#D376FF"/>
<path d="M1025.87 576.437C995.181 555.17 1006.02 537.52 1005.37 504.925C1009.29 486.672 1025.39 515.268 1026.83 498.66C1028.64 477.9 1024.63 470.578 1030.45 457.14C1036.27 443.702 1049.71 449.521 1068.01 466.223C1086.31 482.925 1068.01 492.951 1082.4 501.178C1096.79 509.404 1123.92 504.796 1131.08 515.881C1138.25 526.966 1113.52 584.076 1095.56 603.429C1077.61 622.782 1056.55 597.705 1025.87 576.437Z" fill="#A156C5"/>
<path d="M1035.89 567.535C1013.76 552.199 1021.57 539.473 1021.11 515.969C1023.93 502.807 1035.54 523.427 1036.58 511.451C1037.89 496.481 1035 491.202 1039.19 481.512C1043.39 471.822 1053.08 476.018 1066.28 488.062C1079.47 500.105 1066.27 507.335 1076.65 513.267C1087.03 519.199 1106.59 515.876 1111.76 523.869C1116.93 531.862 1099.09 573.043 1086.14 586.998C1073.2 600.953 1058.01 582.871 1035.89 567.535Z" fill="#783A95"/>
<path d="M1103.56 894.524C1076.95 876.084 1086.35 860.782 1085.79 832.521C1089.18 816.695 1103.14 841.488 1104.4 827.089C1105.97 809.089 1102.49 802.741 1107.53 791.09C1112.58 779.439 1124.23 784.484 1140.1 798.966C1155.96 813.447 1140.09 822.139 1152.57 829.272C1165.05 836.405 1188.57 832.409 1194.78 842.02C1201 851.631 1179.56 901.147 1163.99 917.926C1148.42 934.706 1130.16 912.963 1103.56 894.524Z" fill="#D376FF"/>
<path d="M1111.73 888.41C1091.34 874.275 1098.54 862.546 1098.11 840.883C1100.71 828.752 1111.41 847.757 1112.37 836.719C1113.58 822.922 1110.91 818.055 1114.78 809.125C1118.65 800.194 1127.58 804.061 1139.74 815.161C1151.9 826.262 1139.74 832.925 1149.3 838.392C1158.86 843.86 1176.89 840.797 1181.66 848.164C1186.42 855.531 1169.99 893.487 1158.05 906.349C1146.12 919.211 1132.12 902.544 1111.73 888.41Z" fill="#A156C5"/>
<path d="M1118.39 882.493C1103.69 872.301 1108.88 863.843 1108.57 848.222C1110.45 839.475 1118.16 853.179 1118.86 845.22C1119.72 835.271 1117.8 831.762 1120.59 825.322C1123.38 818.882 1129.82 821.671 1138.59 829.675C1147.36 837.679 1138.59 842.484 1145.48 846.426C1152.38 850.369 1165.38 848.16 1168.82 853.473C1172.25 858.785 1160.4 886.154 1151.79 895.428C1143.19 904.703 1133.1 892.685 1118.39 882.493Z" fill="#783A95"/>
<path d="M285.452 448.566C291.493 420.776 267.832 396.712 255.245 388.153C250.211 406.277 239.84 444.639 238.632 453.097C237.121 463.67 223.529 486.324 212.956 504.448C202.384 522.572 235.611 505.959 262.797 507.469C289.983 508.979 277.9 483.304 285.452 448.566Z" fill="#D376FF"/>
<path d="M274.142 453.106C278.736 432.26 259.325 413.821 249.755 407.401C245.926 420.996 238.04 449.774 237.122 456.118C235.973 464.049 227.056 481.43 219.017 495.026C210.978 508.621 236.244 496.159 256.916 497.292C277.588 498.425 268.4 479.164 274.142 453.106Z" fill="#A156C5"/>
<path d="M265.269 456.578C268.899 439.835 253.562 425.026 246.001 419.87C242.976 430.789 236.746 453.901 236.02 458.997C235.112 465.366 228.067 479.326 221.716 490.245C215.364 501.164 235.326 491.155 251.659 492.065C267.992 492.975 260.733 477.506 265.269 456.578Z" fill="#783A95"/>
<path d="M266.94 565.191C277.805 544.227 306.45 547.721 323.242 544.227C331.143 537.239 341.021 525.593 348.923 525.593C358.801 525.593 358.801 537.239 370.654 560.532C382.507 583.825 387.446 581.496 395.348 589.649C403.25 597.801 396.336 636.235 384.482 644.387C372.629 652.54 349.911 633.906 323.242 628.082C296.574 622.259 295.584 642.058 278.792 640.894C262 639.729 259.038 626.918 255.087 608.283C251.136 589.649 256.075 586.155 266.94 565.191Z" fill="#D376FF"/>
<path d="M281.488 569.405C289.41 554.206 310.297 556.739 322.542 554.206C328.303 549.14 335.505 540.696 341.267 540.696C348.469 540.696 348.469 549.14 357.112 566.027C365.755 582.915 369.356 581.226 375.118 587.136C380.88 593.047 375.839 620.911 367.196 626.822C358.553 632.733 341.987 619.223 322.542 615.001C303.096 610.779 302.374 625.133 290.13 624.289C277.886 623.444 275.726 614.156 272.845 600.646C269.964 587.136 273.565 584.603 281.488 569.405Z" fill="#A156C5"/>
<path d="M291.37 573.567C297.482 562.561 313.595 564.396 323.04 562.561C327.484 558.893 333.041 552.778 337.485 552.778C343.042 552.778 343.042 558.893 349.709 571.122C356.376 583.35 359.154 582.128 363.599 586.408C368.044 590.688 364.155 610.865 357.488 615.146C350.82 619.426 338.041 609.643 323.04 606.585C308.039 603.528 307.482 613.923 298.037 613.311C288.591 612.7 286.925 605.974 284.703 596.191C282.48 586.408 285.258 584.573 291.37 573.567Z" fill="#783A95"/>
<path d="M524.447 649.165C508.68 655.048 502.845 644.493 500.44 633.393C500.953 632.391 501.734 618.741 500.649 612.676C499.219 604.685 491.709 600.503 481.289 585.294C470.87 570.085 487.604 558.17 499.732 553.761C511.86 549.352 508.672 565.934 517.627 576.597C526.582 587.26 535.75 576.78 549.251 585.979C562.752 595.177 544.157 641.812 524.447 649.165Z" fill="#D376FF"/>
<path d="M522.724 636.065C511.57 640.227 507.443 632.761 505.741 624.908C506.104 624.2 506.656 614.544 505.889 610.254C504.877 604.601 499.565 601.642 492.194 590.884C484.824 580.125 496.662 571.697 505.241 568.578C513.819 565.459 511.564 577.189 517.899 584.732C524.233 592.275 530.719 584.861 540.269 591.368C549.819 597.875 536.666 630.864 522.724 636.065Z" fill="#A156C5"/>
<path d="M521.689 627.522C513.909 630.425 511.03 625.217 509.843 619.74C510.097 619.246 510.482 612.511 509.946 609.519C509.241 605.576 505.536 603.512 500.395 596.008C495.254 588.504 503.51 582.625 509.494 580.45C515.478 578.275 513.905 586.456 518.323 591.717C522.742 596.979 527.265 591.808 533.926 596.346C540.588 600.885 531.413 623.894 521.689 627.522Z" fill="#783A95"/>
<path d="M823.692 769.792C785.695 771.349 747.194 722.5 767.387 705.462C776.012 702.028 791.392 691.178 783.92 675.251C774.58 655.342 756.272 589.456 759.342 570.6C762.412 551.743 815.998 561.435 818.124 584.04C820.251 606.646 830.556 632.518 871.447 648.853C912.338 665.188 903.063 683.516 889.908 734.602C876.752 785.689 861.689 768.236 823.692 769.792Z" fill="#D376FF"/>
<path d="M825.156 757.972C796.524 758.913 767.104 719.388 782.188 705.875C788.661 703.188 800.168 694.603 794.406 681.757C787.203 665.7 772.867 612.661 775.028 597.549C777.189 582.438 817.663 590.653 819.45 608.816C821.237 626.98 829.215 647.832 860.174 661.277C891.132 674.722 884.289 689.359 874.786 730.261C865.284 771.164 853.787 757.032 825.156 757.972Z" fill="#A156C5"/>
<path d="M825.613 741.328C805.825 741.978 785.491 714.661 795.917 705.321C800.391 703.464 808.343 697.531 804.361 688.652C799.383 677.554 789.474 640.897 790.968 630.453C792.461 620.009 820.435 625.687 821.67 638.24C822.905 650.794 828.419 665.206 849.816 674.498C871.212 683.79 866.483 693.906 859.915 722.176C853.348 750.445 845.402 740.678 825.613 741.328Z" fill="#783A95"/>
<path d="M930.356 428.932C916.763 418.36 928.846 409.298 943.949 401.746C949.488 398.222 962.378 391.476 969.627 392.684C978.689 394.195 975.669 406.277 965.096 415.339C954.524 424.401 969.627 436.484 960.565 444.036C951.503 451.587 943.949 439.505 930.356 428.932Z" fill="#D376FF"/>
<path d="M934.954 427.303C924.395 419.001 933.781 411.885 945.513 405.954C949.816 403.187 959.828 397.89 965.46 398.838C972.499 400.024 970.153 409.513 961.94 416.629C953.728 423.745 965.46 433.233 958.42 439.163C951.381 445.093 945.513 435.605 934.954 427.303Z" fill="#A156C5"/>
<path d="M936.915 424.2C928.793 417.677 936.013 412.085 945.038 407.426C948.347 405.252 956.049 401.089 960.381 401.835C965.796 402.767 963.991 410.222 957.674 415.813C951.356 421.404 960.381 428.859 954.966 433.519C949.551 438.178 945.038 430.723 936.915 424.2Z" fill="#783A95"/>
<path d="M744.321 943.159C771.695 926.526 793.729 943.437 811.788 964.14C820.307 971.82 836.476 989.523 833.004 998.904C828.665 1010.63 798.497 1005.27 776.372 990.345C754.247 975.418 722.988 993.86 704.565 981.09C686.142 968.32 716.947 959.792 744.321 943.159Z" fill="#D376FF"/>
<path d="M748.139 949.384C769.628 936.474 786.937 949.619 801.126 965.709C807.819 971.678 820.522 985.437 817.8 992.723C814.397 1001.83 790.706 997.656 773.326 986.052C755.946 974.447 731.407 988.761 716.935 978.834C702.464 968.907 726.65 962.294 748.139 949.384Z" fill="#A156C5"/>
<path d="M755.815 952.312C772.689 942.397 786.298 952.522 797.458 964.91C802.72 969.506 812.712 980.1 810.578 985.703C807.912 992.707 789.295 989.478 775.631 980.538C761.967 971.598 742.698 982.591 731.321 974.943C719.943 967.296 738.941 962.227 755.815 952.312Z" fill="#783A95"/>
<path d="M594.748 348.94C582.665 333.836 593.238 332.326 594.748 324.774C600.79 320.243 613.477 312.994 615.894 320.243C618.914 329.305 612.873 330.816 627.976 351.96C643.079 373.105 656.672 383.677 668.755 394.249C680.838 404.822 695.941 430.497 692.92 438.049C689.9 445.6 668.755 430.497 661.203 418.415C653.652 406.332 644.59 395.76 627.976 379.146C611.363 362.533 606.831 364.043 594.748 348.94Z" fill="#D376FF"/>
<path d="M605.861 355.862C597.145 344.557 597.24 339.201 598.09 333.376C602.141 329.764 612.851 331.3 614.701 336.803C617.014 343.682 617.9 341.552 628.852 357.419C639.804 373.286 649.447 381.082 658.047 388.912C666.648 396.742 687.578 418.542 685.687 424.401C683.795 430.26 663.562 416.879 658.047 407.788C652.533 398.696 641.421 390.622 629.542 378.263C617.663 365.904 614.576 367.166 605.861 355.862Z" fill="#A156C5"/>
<path d="M613.192 357.946C605.808 348.37 603.904 347.103 604.624 342.169C608.056 339.109 614.644 341.202 616.212 345.864C618.171 351.692 617.506 352.056 626.784 365.498C636.063 378.94 648.132 382.583 655.418 389.217C662.705 395.85 680.436 414.319 678.834 419.282C677.231 424.246 666.197 410.959 661.525 403.257C656.853 395.554 642.892 388.051 632.829 377.581C622.766 367.111 620.575 367.523 613.192 357.946Z" fill="#783A95"/>
<path d="M841.365 922.638C834.605 934.699 831.674 926.2 826.849 926.009C822.971 921.664 816.189 912.222 820.081 909.22C824.946 905.467 827.01 910.233 836.821 894.84C846.632 879.447 850.381 866.773 854.42 855.344C858.458 843.914 870.991 827.889 876.105 829.324C881.219 830.759 876.193 850.287 870.38 858.194C864.567 866.101 859.951 875.042 853.151 891.047C846.35 907.053 848.125 910.576 841.365 922.638Z" fill="#D376FF"/>
<path d="M843.399 912.515C838.276 921.273 835.041 921.942 831.379 922.055C828.434 919.221 827.308 910.183 830.259 907.891C833.949 905.026 832.499 904.593 839.935 893.356C847.37 882.119 850.208 873.087 853.265 864.909C856.323 856.731 865.413 836.446 869.294 837.186C873.175 837.927 869.009 856.464 864.603 862.276C860.197 868.087 857.474 878.369 852.323 889.879C847.173 901.39 848.521 903.758 843.399 912.515Z" fill="#A156C5"/>
<path d="M843.246 906.186C838.907 913.605 838.51 915.35 835.408 915.445C832.914 913.045 832.91 907.325 835.411 905.383C838.536 902.955 838.882 903.453 845.181 893.933C851.48 884.414 851.359 873.962 853.949 867.033C856.54 860.105 864.24 842.92 867.528 843.548C870.816 844.175 864.947 855.12 861.214 860.043C857.482 864.967 855.646 877.516 851.283 887.268C846.919 897.019 847.586 898.766 843.246 906.186Z" fill="#783A95"/>
<path d="M1103.32 145.077C1102.75 135.352 1111.98 128.497 1116.67 126.285L1131.65 151.496L1145.02 178.115C1143.95 179.053 1139.96 181.412 1138.59 183.743C1136.88 186.657 1133.87 186.458 1125.13 181.337C1116.39 176.216 1121.01 175.009 1114.07 165.467C1107.14 155.926 1104.02 157.233 1103.32 145.077Z" fill="#D376FF"/>
<path d="M1110.55 147.509C1110.13 140.265 1117.01 135.158 1120.5 133.51L1132.74 152.543L1141.62 172.123C1140.82 172.821 1137.85 174.579 1136.83 176.316C1135.56 178.486 1133.31 178.338 1126.8 174.523C1120.29 170.708 1123.73 169.809 1118.56 162.7C1113.4 155.592 1111.08 156.565 1110.55 147.509Z" fill="#A156C5"/>
<path d="M1118.97 151.819C1118.69 146.933 1123.33 143.488 1125.68 142.376L1132.74 152.543L1139.93 168.422C1139.39 168.893 1137.39 170.079 1136.7 171.25C1135.84 172.715 1134.33 172.614 1129.93 170.041C1125.54 167.468 1127.86 166.861 1124.38 162.066C1120.89 157.271 1119.33 157.928 1118.97 151.819Z" fill="#783A95"/>
<path d="M1377.24 550.29C1373.09 526.102 1387.13 506.859 1394.67 500.26L1429.19 559.891L1461.34 623.406C1459.75 625.996 1453.49 632.803 1451.84 638.943C1449.78 646.619 1444.41 646.806 1427.36 635.992C1410.32 625.179 1418.06 621.108 1402.77 598.828C1387.47 576.548 1382.41 580.526 1377.24 550.29Z" fill="#D376FF"/>
<path d="M1390.76 554.727C1387.67 536.707 1398.13 522.371 1403.74 517.455L1431.45 562.259L1453.41 609.197C1452.23 611.126 1447.56 616.198 1446.34 620.772C1444.8 626.49 1440.8 626.629 1428.1 618.574C1415.4 610.518 1421.17 607.485 1409.78 590.887C1398.38 574.289 1394.61 577.252 1390.76 554.727Z" fill="#A156C5"/>
<path d="M1406.98 563.585C1404.9 551.43 1411.95 541.76 1415.74 538.444L1431.45 562.259L1449.24 600.327C1448.45 601.629 1445.3 605.05 1444.47 608.135C1443.44 611.992 1440.74 612.086 1432.17 606.652C1423.6 601.218 1427.5 599.172 1419.81 587.976C1412.13 576.78 1409.58 578.779 1406.98 563.585Z" fill="#783A95"/>
<path d="M989.264 661.521C1011.92 622.253 1033.06 656.99 1042.13 661.521C1059.75 664.542 1094.08 672.698 1090.45 681.156C1085.92 691.728 1014.94 723.445 1024 746.1C1033.06 768.755 1082.9 812.554 1058.74 809.534C1034.57 806.513 1002.86 789.9 975.671 746.1C948.485 702.301 966.609 700.79 989.264 661.521Z" fill="#D376FF"/>
<path d="M996.758 669.029C1017.82 642.621 1029.8 670.462 1036.04 674.78C1048.81 678.918 1073.45 688.65 1069.84 694.474C1065.34 701.755 1009.17 717.351 1013.47 734.994C1017.76 752.637 1050.09 790.263 1032.46 785.413C1014.82 780.563 993.041 764.898 977.552 729.736C962.063 694.575 975.695 695.436 996.758 669.029Z" fill="#A156C5"/>
<path d="M1002.13 671.793C1018.04 648.929 1023.83 673.107 1027.62 676.866C1035.74 680.483 1051.26 688.979 1048.44 694.024C1044.92 700.33 1006.66 713.741 1008.15 729.056C1009.65 744.371 1028.13 777.082 1016.86 772.837C1005.59 768.591 992.397 754.954 984.842 724.418C977.287 693.881 986.22 694.657 1002.13 671.793Z" fill="#783A95"/>
<path d="M1286.6 591.331C1290.21 600.176 1264.17 618.531 1252.11 619.321L1215.94 621.69C1197.86 622.875 1179.01 589.297 1193.49 579.268C1207.97 569.238 1201.15 557.576 1191.02 541.59C1180.89 525.604 1233.05 513.107 1242.26 538.234C1251.48 563.361 1255.5 555.529 1266.55 562.374C1277.59 569.216 1282.99 582.478 1286.6 591.323L1286.6 591.331Z" fill="#D376FF"/>
<path d="M1275.73 590.362C1278.53 597.227 1258.32 611.472 1248.97 612.085L1220.9 613.924C1206.86 614.843 1192.23 588.784 1203.47 581C1214.71 573.216 1209.41 564.165 1201.55 551.759C1193.69 539.352 1234.17 529.653 1241.32 549.154C1248.47 568.655 1251.6 562.577 1260.17 567.889C1268.74 573.199 1272.93 583.491 1275.73 590.356L1275.73 590.362Z" fill="#A156C5"/>
<path d="M1261.66 587.137C1263.35 591.755 1251.41 601.208 1245.85 601.572L1229.17 602.664C1220.83 603.211 1212 585.66 1218.64 580.496C1225.29 575.332 1222.1 569.235 1217.36 560.875C1212.62 552.515 1236.64 546.213 1240.99 559.327C1245.34 572.442 1247.17 568.381 1252.29 571.987C1257.41 575.591 1259.96 582.515 1261.65 587.133L1261.66 587.137Z" fill="#783A95"/>
<path d="M557.307 708.343C531.632 706.833 543.714 740.06 545.224 761.204C545.224 767.245 541.6 779.328 527.101 779.328C508.977 779.328 522.57 791.41 536.163 801.983C549.755 812.555 563.348 842.761 576.941 851.823C590.534 860.885 617.72 862.396 634.334 842.761C650.947 823.127 647.927 820.106 660.009 801.983C672.092 783.859 652.458 777.817 647.927 746.101C643.396 714.384 679.643 708.343 688.705 693.24C697.767 678.137 667.561 626.786 638.865 629.807C610.168 632.827 619.23 669.075 617.72 685.689C616.21 702.302 582.983 709.853 557.307 708.343Z" fill="#D376FF"/>
<path d="M557.307 708.343C531.632 706.833 543.714 740.06 545.224 761.204C545.224 767.245 541.6 779.328 527.101 779.328C508.977 779.328 522.57 791.41 536.163 801.983C549.755 812.555 563.348 842.761 576.941 851.823C590.534 860.885 617.72 862.396 634.334 842.761C650.947 823.127 647.927 820.106 660.009 801.983C672.092 783.859 652.458 777.817 647.927 746.101C643.396 714.384 679.643 708.343 688.705 693.24C697.767 678.137 667.561 626.786 638.865 629.807C610.168 632.827 619.23 669.075 617.72 685.689C616.21 702.302 582.983 709.853 557.307 708.343Z" fill="#D376FF"/>
<path d="M568.463 715.876C548.17 714.658 557.72 741.445 558.913 758.491C558.913 763.361 547.627 783.859 536.167 783.859C521.842 783.859 537.51 796.48 548.254 805.003C558.998 813.526 569.23 838.477 579.973 845.782C590.717 853.087 616.213 840.067 629.344 824.238C642.476 808.41 641.4 810.552 650.95 795.941C660.5 781.33 643.669 771.883 640.088 746.315C636.507 720.746 674.003 699.373 681.165 687.198C688.327 675.023 669.109 637.942 646.428 640.377C623.746 642.812 624.966 681.356 623.773 694.749C622.579 708.143 588.757 717.094 568.463 715.876Z" fill="#A156C5"/>
<path d="M575.432 726.467C558.524 725.439 568.398 752.86 569.392 767.245C569.392 771.355 549.756 782.349 542.208 788.39C532.889 795.848 566.477 805.363 575.428 812.555C584.38 819.748 577.054 830.555 586.006 836.72C594.957 842.885 608.292 827.423 619.233 814.065C630.174 800.708 627.133 805.251 635.09 792.921C643.047 780.591 638.074 763.537 635.09 741.959C632.106 720.382 658.574 703.514 664.541 693.239C670.509 682.965 672.867 647.385 653.969 649.44C635.071 651.495 627.133 687.978 626.139 699.281C625.144 710.583 592.341 727.494 575.432 726.467Z" fill="#783A95"/>
<path d="M1181.08 650.951C1209.77 656.992 1217.32 661.523 1232.43 664.544C1253.57 668.772 1264.44 695.354 1277.73 697.77C1294.35 700.791 1332.11 679.646 1356.27 672.095C1380.44 664.543 1397.05 693.239 1404.6 715.894C1412.15 738.549 1371.37 756.673 1345.7 752.142C1320.02 747.611 1307.94 735.528 1280.75 724.956C1253.57 714.384 1246.02 724.956 1241.49 735.528C1234.03 752.922 1238.47 753.652 1215.81 765.735C1193.16 777.817 1175.03 753.652 1150.87 735.528C1126.7 717.404 1135.77 706.833 1137.28 675.116C1138.79 643.399 1152.38 644.909 1181.08 650.951Z" fill="#D376FF"/>
<path d="M1189.47 658.5C1215.05 663.756 1221.78 667.699 1235.24 670.327C1254.08 674.006 1263.77 697.135 1275.62 699.238C1290.42 701.866 1324.07 683.468 1345.61 676.897C1367.14 670.327 1381.95 695.295 1388.68 715.007C1395.41 734.719 1359.07 750.489 1336.19 746.547C1313.3 742.604 1302.54 732.091 1278.31 722.892C1254.08 713.693 1247.35 722.892 1243.31 732.091C1236.67 747.226 1240.62 747.861 1220.43 758.374C1200.24 768.887 1184.09 747.861 1162.55 732.091C1141.02 716.321 1149.09 707.123 1150.44 679.526C1151.79 651.929 1163.9 653.243 1189.47 658.5Z" fill="#A156C5"/>
<path d="M1195.41 664.196C1219.07 668.852 1225.3 672.344 1237.75 674.672C1255.17 677.931 1264.14 698.416 1275.1 700.278C1288.79 702.606 1319.92 686.311 1339.84 680.491C1359.76 674.671 1373.45 696.787 1379.68 714.246C1385.9 731.705 1352.29 745.673 1331.12 742.181C1309.96 738.689 1300 729.377 1277.59 721.23C1255.17 713.082 1248.95 721.23 1245.21 729.377C1239.07 742.782 1242.72 743.345 1224.05 752.656C1205.37 761.968 1190.43 743.345 1170.51 729.377C1150.59 715.41 1158.06 707.263 1159.31 682.82C1160.55 658.377 1171.76 659.541 1195.41 664.196Z" fill="#783A95"/>
<path d="M309.617 367.008C289.982 359.457 303.574 339.823 309.616 338.313C313.14 333.782 327.742 330.157 333.783 333.782C341.335 338.313 339.824 348.884 342.845 348.884C345.866 348.884 360.969 336.802 374.562 338.312C388.155 339.822 376.072 367.008 368.52 367.008C360.969 367.008 357.948 377.581 348.886 386.642C339.824 395.704 329.251 374.56 309.617 367.008Z" fill="#D376FF"/>
<path d="M316.085 366.116C300.771 360.066 311.373 344.337 316.085 343.128C318.834 339.498 330.222 336.594 334.934 339.498C340.824 343.128 339.646 351.597 342.002 351.597C344.358 351.597 356.138 341.917 366.74 343.127C377.342 344.337 367.918 366.116 362.028 366.116C356.138 366.116 353.782 374.586 346.714 381.845C339.646 389.105 331.399 372.166 316.085 366.116Z" fill="#A156C5"/>
<path d="M321.608 364.998C309.941 360.158 316.632 349.174 320.223 348.206C322.317 345.302 330.994 342.979 334.584 345.302C339.072 348.206 338.174 354.981 339.969 354.981C341.764 354.981 350.739 347.238 358.817 348.206C366.895 349.174 359.714 366.597 355.227 366.597C350.739 366.597 350.33 371.773 344.945 377.581C339.559 383.389 333.276 369.837 321.608 364.998Z" fill="#783A95"/>
<path d="M219.633 870.188C236.643 882.564 218.433 898.011 212.206 897.906C207.629 901.37 192.587 901.092 187.69 896.027C181.568 889.696 185.763 879.876 182.846 879.094C179.928 878.312 162.212 886.074 149.473 881.097C136.734 876.12 155.442 852.988 162.736 854.942C170.03 856.897 175.684 847.467 186.783 841.059C197.881 834.651 202.622 857.812 219.633 870.188Z" fill="#D376FF"/>
<path d="M213.153 869.375C226.379 879.182 212.069 891.631 207.204 891.581C203.609 894.375 191.857 894.233 188.057 890.208C183.308 885.177 186.637 877.302 184.362 876.692C182.086 876.082 168.202 882.383 158.275 878.47C148.347 874.558 163.087 855.96 168.776 857.484C174.465 859.009 178.933 851.437 187.639 846.255C196.345 841.072 199.927 859.568 213.153 869.375Z" fill="#A156C5"/>
<path d="M207.528 869.026C217.545 876.721 208.239 885.599 204.521 885.604C201.746 887.867 192.763 887.865 189.897 884.692C186.314 880.726 188.934 874.414 187.201 873.949C185.467 873.484 174.793 878.641 167.241 875.616C159.689 872.59 171.134 857.619 175.469 858.78C179.804 859.942 181.539 855.048 188.244 850.832C194.949 846.616 197.51 861.331 207.528 869.026Z" fill="#783A95"/>
<path d="M1466.52 780.838C1478.61 765.13 1513.85 764.224 1529.96 765.734C1532.48 770.769 1542.04 793.222 1542.04 806.513C1542.04 823.127 1540.53 832.189 1537.51 847.292C1535.09 859.375 1509.32 876.492 1496.73 883.54C1467.03 892.602 1404 911.632 1389.5 915.257C1371.38 919.788 1318.51 906.195 1310.96 872.968C1303.41 839.74 1336.64 823.127 1381.95 812.555C1427.26 801.982 1451.42 800.472 1466.52 780.838Z" fill="#D376FF"/>
<path d="M1473.72 790.066C1484.41 776.23 1515.59 775.432 1529.84 776.762C1536.52 779.327 1540.53 800.975 1540.53 812.683C1540.53 827.317 1539.19 835.299 1536.52 848.603C1534.38 859.246 1511.58 874.323 1500.44 880.532C1474.16 888.514 1418.39 905.277 1405.56 908.469C1389.53 912.461 1342.76 900.487 1336.08 871.219C1329.39 841.951 1358.79 827.317 1398.88 818.004C1438.97 808.692 1460.35 807.361 1473.72 790.066Z" fill="#A156C5"/>
<path d="M1479.47 796.626C1488.27 785.306 1513.95 784.653 1525.69 785.742C1531.19 787.84 1534.49 805.552 1534.49 815.131C1534.49 827.104 1533.39 833.635 1531.19 844.52C1529.43 853.228 1510.65 865.564 1501.48 870.644C1479.83 877.175 1433.91 890.889 1423.34 893.502C1410.14 896.767 1371.62 886.971 1366.12 863.024C1360.61 839.078 1384.82 827.104 1417.84 819.485C1450.85 811.865 1468.46 810.777 1479.47 796.626Z" fill="#783A95"/>
<path d="M915.257 610.171C909.216 598.088 921.299 598.088 928.85 593.557C934.891 588.523 948.785 578.152 956.034 576.943C965.096 575.433 963.586 590.536 960.565 596.578C957.544 602.619 953.013 602.619 956.034 613.191C959.055 623.763 942.441 634.336 931.869 631.315C921.297 628.294 921.299 622.253 915.257 610.171Z" fill="#D376FF"/>
<path d="M919.579 608.614C914.765 599.324 924.393 599.324 930.41 595.84C935.223 591.969 946.294 583.995 952.07 583.066C959.291 581.905 958.087 593.518 955.68 598.163C953.274 602.808 949.663 602.808 952.07 610.937C954.477 619.065 941.239 627.194 932.815 624.872C924.391 622.549 924.393 617.904 919.579 608.614Z" fill="#A156C5"/>
<path d="M922.3 609.164C918.597 601.864 926.003 601.864 930.631 599.127C934.334 596.086 942.849 589.821 947.293 589.091C952.847 588.178 951.921 597.302 950.07 600.952C948.219 604.602 945.441 604.602 947.293 610.989C949.144 617.375 938.961 623.762 932.481 621.938C926.001 620.113 926.003 616.463 922.3 609.164Z" fill="#783A95"/>
<path d="M287.863 883.025C284.531 873.904 291.196 873.904 295.362 870.484C298.694 866.684 306.358 858.856 310.357 857.944C315.356 856.804 314.523 868.204 312.857 872.764C311.19 877.325 308.691 877.325 310.357 885.305C312.024 893.285 302.859 901.265 297.027 898.985C291.195 896.705 291.196 892.145 287.863 883.025Z" fill="#D376FF"/>
<path d="M290.252 881.85C287.597 874.837 292.908 874.837 296.227 872.208C298.882 869.286 304.989 863.267 308.175 862.566C312.159 861.689 311.495 870.455 310.167 873.961C308.839 877.467 306.848 877.467 308.175 883.603C309.503 889.739 302.201 895.875 297.554 894.121C292.907 892.368 292.908 888.862 290.252 881.85Z" fill="#A156C5"/>
<path d="M291.749 882.265C289.707 876.755 293.792 876.755 296.345 874.689C298.388 872.393 303.085 867.664 305.536 867.113C308.6 866.424 308.09 873.312 307.068 876.066C306.047 878.821 304.515 878.821 305.536 883.642C306.558 888.463 300.941 893.284 297.366 891.907C293.791 890.529 293.792 887.775 291.749 882.265Z" fill="#783A95"/>
<path d="M394.192 687.198C370.027 652.46 326.227 690.218 308.104 721.935C308.104 735.528 264.304 708.342 246.18 711.363C228.056 714.384 246.18 759.693 276.387 750.631C306.593 741.569 321.697 735.528 348.882 759.693C376.068 783.859 332.269 801.982 348.882 854.844C365.496 907.705 412.316 866.926 442.522 854.844C472.729 842.761 445.543 800.472 422.888 771.776C400.233 743.08 418.357 721.935 394.192 687.198Z" fill="#D376FF"/>
<path d="M390.752 688.702C369.893 658.422 329.791 698.819 314.148 726.466C314.148 738.315 264.844 719.302 249.2 721.935C233.557 724.569 262.994 751.896 289.067 743.997C315.14 736.097 328.177 730.831 351.642 751.896C375.108 772.961 352.669 784.6 367.009 830.679C381.349 876.758 408.901 860.845 434.974 850.313C461.047 839.781 428.853 799.811 409.298 774.797C389.743 749.783 411.61 718.982 390.752 688.702Z" fill="#A156C5"/>
<path d="M388.153 697.771C371.134 671.397 331.443 703.896 318.678 727.977C318.678 738.297 268.008 727.194 255.244 729.487C242.48 731.781 276.26 745.43 297.534 738.55C318.807 731.67 340.311 729.265 359.457 747.612C378.603 765.959 364.37 778.463 376.071 818.597C387.771 858.731 403.127 854.956 424.401 845.783C445.675 836.609 416.191 795.074 400.236 773.287C384.281 751.5 405.172 724.145 388.153 697.771Z" fill="#783A95"/>
<path d="M787.856 874.903C800.097 872.61 809.353 838.454 808.837 833.706C808.53 829.415 806.463 819.838 800.649 815.858C793.382 810.883 786.405 817.407 776.682 825.191C766.96 832.974 753.798 822.395 750.36 804.033C746.921 785.67 722.828 758.505 705.548 749.815C688.268 741.125 701.443 791.578 724.617 805.872C747.791 820.166 735.386 847.459 745.69 862.674C755.993 877.89 775.614 877.195 787.856 874.903Z" fill="#D376FF"/>
<path d="M780.055 865.639C789.38 863.893 802.373 838.826 801.98 835.209C801.746 831.941 806.406 830.805 801.977 827.773C796.442 823.984 780.692 826.26 773.286 832.189C765.881 838.118 754.113 825.643 751.494 811.656C748.875 797.669 725.1 764.392 711.938 757.773C698.776 751.154 708.811 789.584 726.463 800.472C744.115 811.36 740.088 844.734 747.936 856.324C755.785 867.915 770.73 867.385 780.055 865.639Z" fill="#A156C5"/>
<path d="M776.457 862.921C784.124 861.733 792.92 848.802 794.43 845.782C794.966 842.76 799.203 838.35 795.402 835.436C790.651 831.793 777.674 833.193 771.772 838.229C765.87 843.266 753.274 825.811 750.522 813.099C747.77 800.388 726.664 769.421 715.466 762.913C704.269 756.405 714.185 791.448 729.285 801.988C744.386 812.528 742.422 842.434 749.415 853.202C756.407 863.969 768.79 864.11 776.457 862.921Z" fill="#783A95"/>
<path d="M902.092 808.152C892.589 796.316 908.755 780.445 909.872 775.116C913.152 766.958 922.493 750.027 933.623 747.566C947.535 744.491 941.969 769.003 939.774 775.391C937.579 781.779 932.191 787.069 928.918 794.516C925.645 801.962 951.275 802.197 958.701 807.606C966.128 813.015 952.136 824.634 935.049 824.476C917.963 824.319 911.595 819.988 902.092 808.152Z" fill="#D376FF"/>
<path d="M903.645 806.118C896.645 797.399 908.553 785.708 909.376 781.782C911.792 775.773 918.673 763.301 926.872 761.488C937.12 759.222 933.02 777.279 931.403 781.985C929.786 786.69 925.817 790.587 923.406 796.073C920.995 801.558 939.875 801.731 945.346 805.716C950.816 809.7 940.509 818.259 927.923 818.143C915.336 818.027 910.645 814.836 903.645 806.118Z" fill="#A156C5"/>
<path d="M907.147 803.004C901.413 796.145 909.05 788.648 909.329 785.877C910.587 781.728 914.543 773.265 920.299 772.61C927.493 771.791 925.984 784.511 925.196 787.782C924.408 791.053 921.863 793.552 920.566 797.323C919.268 801.094 932.869 802.727 937.124 806.043C941.379 809.358 934.645 814.72 925.578 813.632C916.511 812.543 912.88 809.863 907.147 803.004Z" fill="#783A95"/>
<path d="M255.239 673.962C265.112 666.37 257.722 648.948 221.278 621.985C218.121 619.482 211.464 611.507 210.09 599.625C208.372 584.773 188.828 592.407 178.262 603.304C167.697 614.202 176.922 619.588 169.907 633.3C162.892 647.012 142.655 657.952 135.192 677.091C127.729 696.23 149.236 705.57 161.23 697.732C173.225 689.895 188.727 675.202 215.863 677.44C242.999 679.678 245.366 681.554 255.239 673.962Z" fill="#D376FF"/>
<path d="M240.099 665.046C247.365 659.459 241.927 646.636 215.104 626.791C212.78 624.95 207.881 619.08 206.87 610.335C205.606 599.404 191.221 605.023 183.445 613.043C175.669 621.063 182.459 625.027 177.295 635.119C172.132 645.211 157.238 653.263 151.746 667.349C146.253 681.435 162.082 688.309 170.91 682.541C179.738 676.773 191.147 665.959 211.119 667.606C231.09 669.253 232.833 670.634 240.099 665.046Z" fill="#A156C5"/>
<path d="M227.821 659C233.12 654.926 229.154 645.575 209.593 631.103C207.899 629.76 204.326 625.479 203.588 619.102C202.667 611.131 192.177 615.228 186.506 621.077C180.835 626.926 185.787 629.817 182.022 637.176C178.256 644.536 167.395 650.407 163.389 660.68C159.384 670.952 170.927 675.965 177.365 671.758C183.802 667.552 192.123 659.666 206.687 660.867C221.251 662.068 222.522 663.075 227.821 659Z" fill="#783A95"/>
<path d="M90.6193 709.852C72.4954 697.77 58.9025 709.852 55.8819 709.852L31.7167 740.059L13.5928 770.266C22.1513 772.783 41.3827 776.911 49.8406 773.286C60.4128 768.755 83.0677 782.348 86.0883 789.9C89.109 797.451 98.1709 830.679 119.315 839.741C140.46 848.802 158.584 817.086 158.584 809.534C158.584 801.982 129.888 797.451 108.743 782.348C87.5987 767.245 104.212 755.162 107.233 740.059C110.254 724.956 108.743 721.935 90.6193 709.852Z" fill="#D376FF"/>
<path d="M80.7071 714.119C65.9815 704.519 54.9372 714.119 52.4829 714.119L32.8487 738.118L18.123 762.117C25.0768 764.116 40.7024 767.396 47.5744 764.516C56.1643 760.917 74.9484 774.841 80.7071 777.817C86.7484 780.939 105.155 821.969 122.335 829.168C139.515 836.368 143.48 818.554 143.48 812.555C143.48 806.555 118.371 791.327 101.191 779.327C84.011 767.328 91.7514 750.117 94.2056 738.118C96.6599 726.118 95.4328 723.718 80.7071 714.119Z" fill="#A156C5"/>
<path d="M75.4343 716.601C62.6603 708.214 53.0797 716.601 50.9507 716.601L33.9186 737.57L21.1445 758.538C27.1767 760.285 40.7314 763.151 46.6927 760.635C54.1442 757.49 73.4594 768.145 78.455 770.746C83.6956 773.473 110.454 810.795 125.357 817.086C140.26 823.376 134.419 817.797 134.419 812.555C134.419 807.313 107.033 786.791 92.1298 776.307C77.2267 765.823 85.0149 748.054 87.1439 737.57C89.2729 727.086 88.2084 724.989 75.4343 716.601Z" fill="#783A95"/>
<path d="M202.385 786.879C196.344 770.266 214.467 770.266 220.509 770.266C226.55 773.79 240.747 778.724 249.204 770.266C259.777 759.694 276.39 770.266 282.431 780.838C288.473 791.41 267.328 800.472 262.797 812.555C258.266 824.638 258.266 845.782 249.204 848.803C240.142 851.823 229.57 835.21 229.57 818.596C229.57 801.983 208.426 803.493 202.385 786.879Z" fill="#D376FF"/>
<path d="M209.407 787.78C204.531 773.919 219.159 773.919 224.034 773.919C228.91 776.859 240.368 780.975 247.194 773.919C255.727 765.099 269.135 773.919 274.011 782.74C278.887 791.56 261.821 799.12 258.165 809.201C254.508 819.281 254.508 836.922 247.194 839.442C239.88 841.962 231.348 828.101 231.348 814.241C231.348 800.38 214.283 801.64 209.407 787.78Z" fill="#A156C5"/>
<path d="M218.246 790.014C214.478 779.166 225.781 779.166 229.549 779.166C233.316 781.467 242.17 784.689 247.445 779.166C254.038 772.264 264.399 779.166 268.167 786.069C271.934 792.972 258.748 798.889 255.922 806.778C253.096 814.667 253.096 828.473 247.445 830.445C241.793 832.417 235.2 821.57 235.2 810.722C235.2 799.875 222.013 800.861 218.246 790.014Z" fill="#783A95"/>
</svg>
