<svg xmlns="http://www.w3.org/2000/svg" width="1544" height="1024" fill="none"><path fill="#A3DC99" d="M421.046 172.227c97.688-89.866 222.732-160.2 257.899-160.2 44.286-31.257 187.561 9.38 265.711.003C1042.34.308 1054.07 35.473 1100.96 101.896s66.42 148.474 156.3 214.897c89.87 66.423 171.93 250.062 250.08 394.629 78.15 144.568 19.53 164.104-78.15 203.176-97.69 39.072-195.38 19.536-355.59 50.794C913.396 996.65 870.413 1024 761.003 1024c-109.41 0-629.112-85.959-722.893-148.474C-55.67 813.01 45.925 730.958 104.538 645c58.613-85.959 125.04-132.846 140.67-218.805 15.631-85.959 78.151-164.102 175.838-253.968Z"/><path fill="#D376FF" d="M515.018 228.058c3.02-24.165 28.696-28.696 48.33-34.737 27.186-8.992 74.007 0 86.09 0 12.082 0 36.248 57.392 0 75.516-36.248 18.124-30.207 22.655-42.289 25.676-12.083 3.02-43.801 1.51-70.987-12.083-27.185-13.593-24.165-30.206-21.144-54.372Z"/><path fill="#A156C5" d="M538.973 231.772c2.054-16.45 19.513-19.535 32.865-23.647 18.486-6.121 50.324 0 58.54 0 8.217 0 24.649 39.069 0 51.407-24.648 12.337-20.54 15.422-28.756 17.478-8.216 2.056-29.784 1.028-48.271-8.225-18.486-9.253-16.432-20.563-14.378-37.013Z"/><path fill="#783A95" d="M550.722 234.242c1.526-12.338 14.496-14.651 24.414-17.735 13.732-4.591 37.384 0 43.487 0 6.104 0 18.31 29.302 0 38.555s-15.259 11.566-21.362 13.109c-6.103 1.542-22.125.771-35.858-6.169-13.733-6.94-12.207-15.422-10.681-27.76Z"/><path fill="#D376FF" d="M732.534 37.758C715.618 11.176 731.02 1.007 740.082 0l39.273 1.51 43.771 4.531c1.51 4.531 4.257 15.104 9.09 21.145 6.041 7.551 9.062 10.572 12.083 21.144 3.02 10.573-3.021 9.062-12.083 19.635-9.062 10.572-28.696 10.572-49.841 9.062-21.144-1.51-28.696-6.042-49.841-39.269Z"/><path fill="#A156C5" d="M748.224 35.47c-11.485-18.591-1.028-25.704 5.124-26.408l26.663 1.056 28.708 2.113c1.025 3.169 3.899 11.62 7.18 15.845 4.102 5.281 6.152 7.394 8.203 14.788 2.051 7.394-2.051 6.338-8.203 13.732-6.152 7.394-19.482 7.394-33.837 6.338-14.356-1.057-19.483-4.225-33.838-27.464Z"/><path fill="#783A95" d="M758.783 34.175c-8.081-13.427-.723-18.563 3.606-19.072l18.763.763 20.202 1.526c.721 2.288 2.744 8.392 5.053 11.443 2.886 3.815 4.329 5.34 5.772 10.68 1.443 5.34-1.443 4.578-5.772 9.918-4.33 5.34-13.71 5.34-23.812 4.577-10.102-.762-13.71-3.051-23.812-19.835Z"/><path fill="#D376FF" d="M605.183 970.126c40.849 30.534-.305 35.314-23.946 33.414l-101.776-13.832-113.107-18.111c-3.398-4.772-9.309-15.661-21.159-22.914-14.813-9.065-22.306-12.882-28.929-23.858-6.623-10.976 8.886-7.637 33.629-14.799 24.743-7.161 75.713-.964 130.429 7.142 54.716 8.106 73.799 14.785 124.859 52.958Z"/><path fill="#A156C5" d="M564.186 967.343c27.67 21.248-.294 24.69-16.346 23.416l-69.094-9.418-74.281-11.064c-2.296-3.328-8.783-12.246-16.814-17.287-10.038-6.301-15.118-8.951-19.59-16.608-4.471-7.657 6.054-5.361 22.878-10.428 16.823-5.067 51.427-.86 88.571 4.673 37.144 5.532 50.089 10.155 84.676 36.716Z"/><path fill="#783A95" d="M536.637 965.238c19.432 15.279-.261 17.826-11.559 16.941l-48.619-6.645-52.267-7.824c-1.61-2.397-6.156-8.821-11.799-12.442-7.053-4.527-10.623-6.429-13.754-11.947-3.131-5.518 4.274-3.884 16.129-7.58 11.854-3.695 36.205-.734 62.341 3.177 26.136 3.912 35.239 7.221 59.528 26.32Z"/><path fill="#D376FF" d="M768.758 166.136c-1.511-34.738 25.675-27.186 33.227-31.717 12.082-3.021 38.059-9.062 45.308-9.062 9.062 0 40.779 18.124 51.351 40.779 10.572 22.655-16.613 18.124-28.696 19.634-12.083 1.51-27.186 22.655-31.717 48.33-4.531 25.676-36.246 1.511-52.861-12.082-16.615-13.593-15.102-21.145-16.612-55.882Z"/><path fill="#A156C5" d="M779.375 166.708c-1.172-26.219 19.926-20.519 25.786-23.939 9.376-2.28 29.536-6.84 35.162-6.84 7.032 0 31.646 13.68 39.851 30.779 8.205 17.1-12.893 13.68-22.27 14.82-9.377 1.14-21.098 17.099-24.614 36.479-3.516 19.379-28.129 1.14-41.023-9.12-12.894-10.26-11.72-15.96-12.892-42.179Z"/><path fill="#A156C5" d="M779.375 166.708c-1.172-26.219 19.926-20.519 25.786-23.939 9.376-2.28 29.536-6.84 35.162-6.84 7.032 0 31.646 13.68 39.851 30.779 8.205 17.1-12.893 13.68-22.27 14.82-9.377 1.14-21.098 17.099-24.614 36.479-3.516 19.379-28.129 1.14-41.023-9.12-12.894-10.26-11.72-15.96-12.892-42.179Z"/><path fill="#783A95" d="M794.463 165.511c-.792-17.48 13.479-13.68 17.444-15.96 6.343-1.52 19.98-4.56 23.786-4.56 4.757 0 21.408 9.12 26.958 20.52 5.55 11.399-8.722 9.119-15.065 9.879-6.343.76-14.272 11.4-16.651 24.32-2.378 12.919-19.028.76-27.751-6.08-8.722-6.84-7.928-10.64-8.721-28.119Z"/><path fill="#D376FF" d="M715.26 911.215c1.51 23.376-25.676 18.294-33.227 21.343-12.082 2.033-38.059 6.098-45.309 6.098-9.062 0-40.778-12.196-51.351-27.441-10.572-15.245 16.614-12.196 28.697-13.212 12.082-1.017 27.185-15.245 31.716-32.523 4.531-17.278 36.247-1.017 52.862 8.131 16.615 9.147 15.101 14.228 16.612 37.604Z"/><path fill="#A156C5" d="M704.642 910.83c1.173 17.644-19.925 13.808-25.786 16.109-9.376 1.535-29.535 4.603-35.161 4.603-7.033 0-31.647-9.205-39.851-20.712-8.205-11.507 12.893-9.205 22.269-9.973 9.377-.767 21.098-11.506 24.614-24.547 3.517-13.041 28.129-.767 41.024 6.137 12.894 6.904 11.719 10.739 12.891 28.383Z"/><path fill="#A156C5" d="M704.642 910.83c1.173 17.644-19.925 13.808-25.786 16.109-9.376 1.535-29.535 4.603-35.161 4.603-7.033 0-31.647-9.205-39.851-20.712-8.205-11.507 12.893-9.205 22.269-9.973 9.377-.767 21.098-11.506 24.614-24.547 3.517-13.041 28.129-.767 41.024 6.137 12.894 6.904 11.719 10.739 12.891 28.383Z"/><path fill="#783A95" d="M689.554 911.636c.793 11.762-13.479 9.205-17.443 10.739-6.343 1.023-19.98 3.069-23.786 3.069-4.757 0-21.408-6.137-26.958-13.808-5.55-7.671 8.722-6.137 15.065-6.649 6.343-.511 14.272-7.671 16.65-16.365 2.379-8.694 19.029-.511 27.751 4.092 8.723 4.602 7.928 7.159 8.721 18.922Z"/><path fill="#D376FF" d="M697.771 327.741c4.531-19.634 25.675-27.186 37.758-33.227 5.034-4.531 17.822-14.499 28.696-18.124 13.593-4.531 15.104 7.552 16.614 15.104 1.51 7.551 15.103 18.123 51.351 25.675s7.552 49.841 7.552 54.372c0 4.531-31.717 10.572-54.372 19.634-22.655 9.062-10.572 24.165-21.145 27.186-10.572 3.02-54.372-13.593-66.454-36.248-12.083-22.655-4.531-34.737 0-54.372Z"/><path fill="#A156C5" d="M709.01 330.8c3.609-15.312 20.451-21.201 30.075-25.912 4.01-3.534 14.196-11.308 22.858-14.134 10.827-3.534 12.03 5.889 13.233 11.778 1.203 5.889 12.03 14.134 40.902 20.023 28.873 5.889 6.015 38.868 6.015 42.402 0 3.533-25.263 8.245-43.308 15.312-18.045 7.067-8.421 18.845-16.842 21.201-8.422 2.355-43.309-10.601-52.933-28.268-9.625-17.668-3.61-27.09 0-42.402Z"/><path fill="#783A95" d="M719.854 332.954c2.75-11.588 15.582-16.044 22.915-19.609 3.055-2.674 10.816-8.557 17.415-10.696 8.249-2.674 9.166 4.456 10.083 8.913.916 4.457 9.165 10.696 31.163 15.152 21.998 4.457 4.583 29.414 4.583 32.088 0 2.674-19.248 6.24-32.997 11.588-13.748 5.348-6.416 14.261-12.832 16.044-6.416 1.782-32.997-8.022-40.33-21.392-7.332-13.37-2.75-20.501 0-32.088Z"/><path fill="#D376FF" d="M380.631 446.486c-1.044-38.975 18.095-46.25 40.708-41.49 12.874 7.125 40.291 18.859 46.972 8.801 8.35-12.573 27.139-30.174 57.409-30.174s45.927 25.145 56.365 62.863c10.438 37.718-73.066 64.121-99.161 54.063-26.095-10.058-49.059 21.374-61.585 18.859-12.527-2.515-39.665-33.946-40.708-72.922Z"/><path fill="#A156C5" d="M407.817 448.073c-.732-26.85 12.693-31.861 28.555-28.582 9.03 4.908 28.263 12.992 32.949 6.063 5.857-8.661 19.037-20.787 40.27-20.787 21.233 0 32.216 17.323 39.538 43.306 7.322 25.984-51.253 44.172-69.558 37.243-18.304-6.929-34.412 14.724-43.199 12.992-8.787-1.732-27.823-23.385-28.555-50.235Z"/><path fill="#783A95" d="M428.95 450.83c-.467-17.322 8.102-20.555 18.227-18.439 5.764 3.166 18.04 8.381 21.031 3.911 3.739-5.588 12.151-13.411 25.704-13.411s20.564 11.176 25.237 27.939c4.674 16.764-32.714 28.499-44.398 24.028-11.684-4.47-21.966 9.5-27.574 8.382-5.609-1.117-17.76-15.087-18.227-32.41Z"/><path fill="#D376FF" d="M637.114 565.634c-31.102-11.496-18.675-29.639-1.962-59.179 2.989-9.016 11.102-29.207 19.635-37.847 10.665-10.799 25.95-13.657 41.369 4.95 15.418 18.607 20.037 26.548 29.873 36.051 9.836 9.503 15.951 35.819-6.145 54.129-22.096 18.309-51.668 13.392-82.77 1.896Z"/><path fill="#A156C5" d="M645.868 559.73c-24.635-9.106-14.793-23.476-1.555-46.874 2.368-7.141 8.794-23.134 15.552-29.977 8.448-8.554 20.555-10.818 32.768 3.92 12.212 14.738 15.871 21.028 23.661 28.555 7.791 7.527 12.635 28.371-4.867 42.874-17.502 14.502-40.924 10.607-65.559 1.502Z"/><path fill="#783A95" d="M654.43 550.317c-18.036-6.666-10.83-17.188-1.138-34.319 1.734-5.228 6.439-16.937 11.387-21.947 6.185-6.263 15.049-7.921 23.991 2.87 8.941 10.79 11.62 15.396 17.324 20.907 5.704 5.511 9.25 20.772-3.564 31.39-12.814 10.618-29.963 7.766-48 1.099Z"/><path fill="#D376FF" d="M824.637 447.055c9.062-37.758 30.209-36.247 46.82-25.675 10.573 8.558 30.209 26.884 24.167 31.717-7.551 6.041-18.123 30.206-7.551 40.778 10.572 10.573 19.634 72.496-4.531 70.986-24.165-1.511-45.312-18.124-64.946-43.8-19.635-25.675-3.021-36.248 6.041-74.006Z"/><path fill="#A156C5" d="M829.902 455.917c6.73-28.134 22.437-27.009 34.775-19.131 7.853 6.377 22.438 20.031 17.951 23.633-5.609 4.501-13.462 22.507-5.609 30.385 7.852 7.877 14.583 54.018-3.366 52.892-17.948-1.125-33.655-13.504-48.239-32.635-14.583-19.132-2.243-27.009 4.488-55.144Z"/><path fill="#783A95" d="M835.367 466.269c4.59-19.01 15.299-18.249 23.711-12.927 5.355 4.309 15.298 13.535 12.239 15.968-3.824 3.042-9.178 15.208-3.824 20.531 5.354 5.323 9.943 36.499-2.295 35.738-12.238-.76-22.947-9.124-32.89-22.051-9.943-12.927-1.53-18.249 3.059-37.259Z"/><path fill="#D376FF" d="M338.313 293.003c-16.916-3.625-22.655-9.565-22.655-12.083 3.625-9.666 81.054-86.592 119.316-123.846 2.517 1.51 9.364 4.833 10.572 6.041 1.51 1.51 6.041 12.083 1.51 22.655-4.531 10.572-22.654 18.124-33.227 31.717-10.572 13.593 0 19.634-4.531 36.248-4.531 16.613-15.103 27.185-30.206 39.268-15.103 12.083-19.634 4.531-40.779 0Z"/><path fill="#A156C5" d="M430.442 187.28c4.833-2.417-1.006-15.606-4.531-21.144L324.72 268.838c1.007 2.014 3.927 8.457 7.551 12.082 4.531 4.531 15.104 4.531 24.166 6.041 9.061 1.51 12.082-6.041 27.185-16.614 15.104-10.572 7.552-25.675 9.062-31.716 1.511-6.042 12.083-36.248 18.124-43.8 6.042-7.551 13.593-4.531 19.634-7.551Z"/><path fill="#783A95" d="M347.588 253.888c-2.375-3.636-1.907-7.414-1.227-8.774 3.331-4.861 39.472-38.732 57.126-55.06.091 1.066.551 3.54.464 4.312-.109.966-2.067 7.126-5.823 12.387-3.755 5.262-9.389 7.543-15.159 13.836-5.77 6.294-5.306 10.606-10.694 19.13-5.388 8.524-10.341 13.186-16.601 18.214-6.26 5.029-5.118.5-8.086-4.045Z"/><path fill="#D376FF" d="M889.204 324.268c1.51 39.268 36.248 36.248 52.862 43.799 14.599 0 47.122 1.208 60.414 6.041 16.61 6.042 25.67 0 37.76-6.041 12.08-6.041 16.61-22.655 15.1-43.799-1.51-21.145-31.72-33.227-52.86-40.779-21.146-7.552-22.656-37.758-30.208-60.413-7.552-22.655-45.31 4.531-70.985 22.655-25.676 18.124-13.593 39.268-12.083 78.537Z"/><path fill="#A156C5" d="M900.516 319.573c1.231 32.188 29.529 29.712 43.062 35.902 11.894 0 38.387.99 49.214 4.952 13.538 4.952 20.918 0 30.758-4.952s13.53-18.57 12.3-35.902c-1.23-17.332-25.83-27.236-43.058-33.426-17.225-6.19-18.455-30.95-24.607-49.52-6.151-18.57-36.91 3.714-57.826 18.57-20.916 14.856-11.073 32.188-9.843 64.376Z"/><path fill="#783A95" d="M914.664 314.125c.882 22.678 21.183 20.934 30.892 25.295 8.532 0 27.538.698 35.306 3.489 9.709 3.489 15.004 0 22.068-3.489 7.06-3.489 9.71-13.083 8.82-25.295-.88-12.211-18.531-19.189-30.888-23.55-12.357-4.361-13.24-21.806-17.653-34.889-4.413-13.083-26.479 2.617-41.484 13.083-15.005 10.467-7.944 22.678-7.061 45.356Z"/><path fill="#D376FF" d="M519.548 137.44c-15.708-8.458-27.183-21.145-25.676-25.676l36.251-25.675 39.266-25.676c-1.007 2.517-4.531 9.062-10.573 15.103-7.551 7.552 28.696-3.02 49.841-18.124 21.145-15.103 27.186-9.062 37.758-1.51 10.572 7.552-1.51 42.29-36.248 46.82-34.737 4.531-12.082 24.165-19.634 39.269-7.551 15.103-51.351 6.041-70.985-4.531Z"/><path fill="#A156C5" d="M516.102 126.722c-9.873-6.876-14.739-16.003-15.44-19.666l27.951-20.967 28.696-18.124c-.813 1.735-7.275 12.907-11.621 16.872-5.432 4.957 28.484 6.103 43.338-3.478 14.854-9.582 34.243-18.032 40.778-12.082 6.536 5.95-23.613 36.46-46.82 37.778-23.206 1.318-14.395 16.453-20.274 26.78-5.878 10.327-34.266 1.482-46.608-7.113Z"/><path fill="#783A95" d="M517.524 117.686c-7.296-5.081-10.892-11.826-11.409-14.533l20.654-15.493 21.205-13.393c-.601 1.282-5.376 9.538-8.588 12.468-4.014 3.663 23.559 15.496 34.536 8.415 10.976-7.08 35.952-19.5 40.781-15.104 4.83 4.397-26.653 23.192-43.802 24.166-17.149.975-14.592 11.099-18.936 18.73-4.344 7.631-25.322 1.095-34.441-5.256Z"/><path fill="#D376FF" d="M909.213 61.923c10.572-16.614 19.634-10.572 27.186-13.593 5.034-4.027 16.614-12.082 22.656-12.082 7.551 0 10.572 9.062 12.082 25.675 1.51 16.614 0 13.593 9.062 28.696 9.062 15.103 24.161 0 51.351-9.062 27.19-9.062 33.23 22.655 36.25 31.717 3.02 9.062-39.27 74.006-49.84 75.516-10.58 1.511-15.11-3.02-34.74-25.675-19.634-22.655-7.552-25.676-27.186-37.758-19.634-12.083-37.759-9.062-52.863-18.124-15.103-9.062-4.531-28.696 6.042-45.31Z"/><path fill="#D376FF" d="M909.213 61.923c10.572-16.614 19.634-10.572 27.186-13.593 5.034-4.027 16.614-12.082 22.656-12.082 7.551 0 10.572 9.062 12.082 25.675 1.51 16.614 0 13.593 9.062 28.696 9.062 15.103 24.161 0 51.351-9.062 27.19-9.062 33.23 22.655 36.25 31.717 3.02 9.062-39.27 74.006-49.84 75.516-10.58 1.511-15.11-3.02-34.74-25.675-19.634-22.655-7.552-25.676-27.186-37.758-19.634-12.083-37.759-9.062-52.863-18.124-15.103-9.062-4.531-28.696 6.042-45.31Z"/><path fill="#A156C5" d="M913.744 66.455c8.526-12.151 19.587-14.405 25.677-16.614 4.06-2.946 21.642 3.26 23.945 7.552 3.241 6.04-1.218 10.503 0 22.654 1.218 12.152 9.744 6.067 17.051 17.114 7.308 11.047 19.487 0 41.413-6.628 21.92-6.628 31.45 22.155 33.89 28.783 2.43 6.628-31.67 54.128-40.2 55.233-8.52 1.105-16.834-7.794-32.667-24.364-15.833-16.57-6.09-18.779-21.923-27.617-15.833-8.837-30.449-6.628-42.628-13.256-12.18-6.628-13.083-30.706-4.558-42.857Z"/><path fill="#783A95" d="M922.873 72.025c6.974-10.23 16.022-12.128 21.003-13.988 3.321-2.48 17.702 2.744 19.586 6.358 2.65 5.087-.997 8.844 0 19.075.996 10.231 7.969 5.108 13.947 14.409 5.977 9.301 15.939 0 33.871-5.58 17.93-5.581 25.73 18.653 27.72 24.234 1.99 5.58-25.9 45.574-32.88 46.504-6.969.931-13.768-6.562-26.719-20.513-12.951-13.952-4.981-15.812-17.932-23.253-12.951-7.441-24.906-5.58-34.868-11.161-9.962-5.58-10.701-25.854-3.728-36.085Z"/><path fill="#D376FF" d="M673.97 125.472c-3.021-9.061 13.593-15.103 15.103-16.613 5.034-1.51 17.519-4.833 27.185-6.041 12.083-1.511 9.062 12.082 6.042 24.165-3.021 12.082 0 9.062-10.573 22.655-10.572 13.593-22.654-1.511-27.185-6.042-4.532-4.531-7.552-9.062-10.572-18.124Z"/><path fill="#A156C5" d="M679.924 125.781c-2.307-6.78 10.385-11.301 11.539-12.431 3.847-1.13 13.385-3.616 20.77-4.52 9.231-1.13 6.924 9.041 4.616 18.081-2.308 9.041 0 6.781-8.077 16.951-8.078 10.171-17.309-1.13-20.771-4.52-3.462-3.39-5.769-6.781-8.077-13.561Z"/><path fill="#783A95" d="M685.879 126.58c-1.597-4.694 7.19-7.824 7.989-8.606 2.663-.782 9.266-2.504 14.379-3.13 6.391-.782 4.793 6.259 3.195 12.518-1.597 6.259 0 4.694-5.592 11.736-5.592 7.041-11.982-.783-14.379-3.13-2.397-2.347-3.994-4.694-5.592-9.388Z"/><path fill="#D376FF" d="M726.891 194.065c4.166-3.474 7.594 14.804 8.359 16.451.887 5.544 2.89 19.298 3.797 29.967 1.134 13.337-5.379 10.199-11.18 7.04-5.801-3.16-4.271.134-11.048-11.352-6.776-11.487-.079-25.07 1.898-30.147 1.978-5.078 4.008-8.484 8.174-11.959Z"/><path fill="#A156C5" d="M726.954 200.654c3.115-2.653 5.689 11.314 6.262 12.573.667 4.235 2.172 14.744 2.856 22.896.855 10.189-4.019 7.789-8.361 5.372-4.342-2.417-3.196.101-8.273-8.678-5.076-8.779-.071-19.153 1.406-23.031 1.477-3.878 2.994-6.48 6.11-9.132Z"/><path fill="#783A95" d="M726.783 207.25c2.157-1.837 3.939 7.832 4.335 8.704.462 2.932 1.504 10.208 1.978 15.851.592 7.054-2.783 5.393-5.789 3.72-3.006-1.674-2.213.069-5.727-6.008-3.514-6.078-.05-13.26.973-15.945 1.023-2.685 2.073-4.486 4.23-6.322Z"/><path fill="#D376FF" d="M1176.29 305.085c-10.87-20.54 1.51-48.833 9.07-60.413 4.53 5.538 15.4 18.426 22.65 25.676 9.07 9.062 50.89 44.617 58.91 52.861 54.01 55.518 45.42 50.414 63.08 72.066.35-.139.35.04.35.43-.12-.145-.24-.288-.35-.43-.56.219-1.99 1.23-5.69 3.45-7.55 4.531 0 28.697 7.55 48.331 7.55 19.634-25.68 58.902-55.88 55.882-30.21-3.021-39.27-15.103-67.97-37.758-28.69-22.655-4.53-36.248 0-93.64 4.53-57.393-18.12-40.779-31.72-66.455Z"/><path fill="#A156C5" d="M1193.52 307.793c-8.58-16.326-1.78-38.814 4.17-48.018 3.57 4.402 15.12 14.646 20.83 20.408 7.15 7.202 39.88 36.03 47.13 41.516 4.74 3.578 41.81 41.796 54.14 60.063.15.127.24.248.24.35l-.24-.35c-1.05-.874-5.43-2.057-9.59.457-5.95 3.601 0 22.808 5.95 38.414 5.96 15.605-20.24 46.816-44.05 44.416-23.81-2.401-30.96-12.005-53.58-30.011-22.62-18.007-3.57-28.81 0-74.427 3.57-45.616-14.29-32.411-25-52.818Z"/><path fill="#783A95" d="M1211.45 313.01c-6.74-12.964-3.34-30.823 1.34-38.131 3.02 3.021 13.43 12.063 18.33 16.206 5.84 4.938 31.37 28.612 37.07 32.968 3.73 2.847 34.51 33.396 44.16 47.869.08.069.12.135.12.192l-.12-.192c-.85-.709-5.7-1.891-9.11.192-4.69 2.859 0 18.112 4.68 30.505 4.68 12.392-15.92 37.178-34.66 35.271-18.73-1.907-24.35-9.533-42.14-23.832-17.8-14.299-2.81-22.879 0-59.103 2.81-36.225-11.24-25.739-19.67-41.945Z"/><path fill="#D376FF" d="M434.974 314.147c0-16.614 4.531-10.572 16.613-12.083 4.028-2.013 13.291-7.853 18.124-15.103 6.041-9.062 19.634-3.02 31.717 0 12.083 3.021 0 22.655-6.041 27.186-6.042 4.53-15.104 4.531-15.104 16.614 0 12.082-12.082 16.613-28.696 13.593-16.613-3.021-16.613-13.594-16.613-30.207Z"/><path fill="#A156C5" d="M444.035 314.435c0-11.137 3.058-7.087 11.211-8.099 2.717-1.35 8.968-5.265 12.229-10.125 4.077-6.074 13.249-2.025 21.402 0s0 15.187-4.077 18.224c-4.076 3.037-10.191 3.038-10.191 11.137 0 8.1-8.153 11.137-19.363 9.113-11.211-2.025-11.211-9.113-11.211-20.25Z"/><path fill="#783A95" d="M450.076 314.353c0-7.955 2.293-5.062 8.408-5.786 2.038-.964 6.726-3.76 9.172-7.231 3.058-4.339 9.937-1.447 16.052 0 6.114 1.446 0 10.847-3.058 13.017-3.057 2.169-7.643 2.169-7.643 7.955 0 5.785-6.115 7.955-14.523 6.509-8.408-1.447-8.408-6.509-8.408-14.464Z"/><path fill="#D376FF" d="M1049.67 261.287c-10.57-9.062-1.51-27.186 6.04-37.759 9.07-16.613 30.82-14.801 45.32-19.634 18.12-6.041 18.12 15.104 16.61 30.207-1.51 15.103-1.51 19.634 12.08 33.227 13.6 13.593-7.55 43.799-21.14 45.31-13.59 1.51-4.53-15.104-24.17-40.779-19.63-25.676-24.16-1.51-34.74-10.572Z"/><path fill="#A156C5" d="M1066.05 254.761c-6.69-6.727.32-18.706 5.95-25.583 6.94-10.945 21.53-8.641 31.56-11.246 12.54-3.256 11.49 11.236 9.72 21.514-1.76 10.278-1.99 13.383 6.52 23.363 8.5 9.979-7.27 29.65-16.53 30.022-9.25.371-2.31-10.573-14.29-29.128-11.99-18.556-16.24-2.215-22.93-8.942Z"/><path fill="#783A95" d="M1073.71 251.083c-5.08-5.105.25-14.194 4.51-19.413 5.27-8.304 16.34-6.556 23.95-8.533 9.52-2.47 8.72 8.526 7.38 16.325-1.34 7.798-1.51 10.154 4.94 17.727 6.45 7.572-5.51 22.498-12.53 22.78-7.03.282-1.76-8.022-10.85-22.102-9.1-14.079-12.33-1.68-17.4-6.784Z"/><path fill="#D376FF" d="M446.315 702.649c-5.01-8.717-.716-26.153 2.862-36.324 4.295-15.983 14.601-14.239 21.472-18.888 8.588-5.812 8.588 14.529 7.873 29.059-.716 14.53-.716 18.889 5.725 31.965 6.441 13.077-3.578 42.136-10.02 43.589-6.441 1.453-2.147-14.529-11.451-39.23-9.304-24.7-11.452-1.453-16.461-10.171Z"/><path fill="#A156C5" d="M454.072 696.371c-3.17-6.471.155-17.996 2.819-24.612 3.29-10.528 10.206-8.312 14.958-10.818 5.941-3.132 5.445 10.809 4.607 20.696-.838 9.888-.944 12.875 3.086 22.476 4.03 9.6-3.445 28.524-7.829 28.882-4.385.357-1.095-10.171-6.775-28.022-5.679-17.851-7.696-2.131-10.866-8.602Z"/><path fill="#783A95" d="M457.701 692.833c-2.405-4.91.118-13.655 2.14-18.675 2.496-7.989 7.744-6.307 11.35-8.209 4.507-2.377 4.131 8.202 3.495 15.704-.636 7.503-.716 9.77 2.341 17.054 3.058 7.285-2.613 21.644-5.94 21.916-3.327.271-.831-7.718-5.14-21.263-4.31-13.545-5.84-1.617-8.246-6.527Z"/><path fill="#D376FF" d="M981.63 964.743c-15.129 2.123-31.953-16.896-40.76-29.736-15.086-18.018-3.329-33.565-2.443-47.943 1.108-17.972 25.438-3.926 42.145 7.271 16.706 11.197 21.918 14.207 43.608 12.768 21.68-1.44 47.04 34.913 42.73 46.386-4.31 11.472-19.39-6.544-57.67-8.479-38.272-1.934-12.482 17.611-27.61 19.733Z"/><path fill="#A156C5" d="M981.405 947.799c-10.715.683-21.379-12.679-26.792-21.578-9.505-12.618-.365-22.329 1.098-31.784 1.828-11.818 18.037-1.384 29.077 6.805 11.04 8.19 14.513 10.426 29.782 10.505 15.26.08 30.88 25.296 27.19 32.669-3.68 7.374-13.19-5.243-39.87-8.339-26.679-3.097-9.77 11.038-20.485 11.722Z"/><path fill="#783A95" d="M980.58 939.453c-8.13.519-16.222-9.62-20.329-16.373-7.213-9.574-.277-16.942.832-24.117 1.388-8.967 13.687-1.05 22.064 5.164 8.376 6.214 11.012 7.91 22.593 7.971 11.58.06 23.44 19.194 20.64 24.789-2.8 5.595-10.01-3.979-30.256-6.328-20.245-2.35-7.414 8.376-15.544 8.894Z"/><path fill="#D376FF" d="M1013.57 585.637c-40.032-27.746-25.897-50.771-26.739-93.293 5.107-23.814 26.109 13.492 27.999-8.174 2.36-27.083-2.87-36.636 4.72-54.167s25.13-9.939 49 11.851c23.87 21.789-.01 34.868 18.77 45.601 18.77 10.732 54.16 4.72 63.51 19.181 9.36 14.461-22.91 88.966-46.33 114.214-23.43 25.247-50.9-7.468-90.93-35.213Z"/><path fill="#A156C5" d="M1025.87 576.437c-30.689-21.267-19.85-38.917-20.5-71.512 3.92-18.253 20.02 10.343 21.46-6.265 1.81-20.76-2.2-28.082 3.62-41.52 5.82-13.438 19.26-7.619 37.56 9.083 18.3 16.702 0 26.728 14.39 34.955 14.39 8.226 41.52 3.618 48.68 14.703 7.17 11.085-17.56 68.195-35.52 87.548-17.95 19.353-39.01-5.724-69.69-26.992Z"/><path fill="#783A95" d="M1035.89 567.535c-22.13-15.336-14.32-28.062-14.78-51.566 2.82-13.162 14.43 7.458 15.47-4.518 1.31-14.97-1.58-20.249 2.61-29.939 4.2-9.69 13.89-5.494 27.09 6.55 13.19 12.043-.01 19.273 10.37 25.205 10.38 5.932 29.94 2.609 35.11 10.602 5.17 7.993-12.67 49.174-25.62 63.129-12.94 13.955-28.13-4.127-50.25-19.463Z"/><path fill="#D376FF" d="M1103.56 894.524c-26.61-18.44-17.21-33.742-17.77-62.003 3.39-15.826 17.35 8.967 18.61-5.432 1.57-18-1.91-24.348 3.13-35.999 5.05-11.651 16.7-6.606 32.57 7.876 15.86 14.481-.01 23.173 12.47 30.306 12.48 7.133 36 3.137 42.21 12.748 6.22 9.611-15.22 59.127-30.79 75.906-15.57 16.78-33.83-4.963-60.43-23.402Z"/><path fill="#A156C5" d="M1111.73 888.41c-20.39-14.135-13.19-25.864-13.62-47.527 2.6-12.131 13.3 6.874 14.26-4.164 1.21-13.797-1.46-18.664 2.41-27.594 3.87-8.931 12.8-5.064 24.96 6.036 12.16 11.101 0 17.764 9.56 23.231 9.56 5.468 27.59 2.405 32.36 9.772 4.76 7.367-11.67 45.323-23.61 58.185-11.93 12.862-25.93-3.805-46.32-17.939Z"/><path fill="#783A95" d="M1118.39 882.493c-14.7-10.192-9.51-18.65-9.82-34.271 1.88-8.747 9.59 4.957 10.29-3.002.86-9.949-1.06-13.458 1.73-19.898 2.79-6.44 9.23-3.651 18 4.353s0 12.809 6.89 16.751c6.9 3.943 19.9 1.734 23.34 7.047 3.43 5.312-8.42 32.681-17.03 41.955-8.6 9.275-18.69-2.743-33.4-12.935Z"/><path fill="#D376FF" d="M285.452 448.566c6.041-27.79-17.62-51.854-30.207-60.413-5.034 18.124-15.405 56.486-16.613 64.944-1.511 10.573-15.103 33.227-25.676 51.351-10.572 18.124 22.655 1.511 49.841 3.021s15.103-24.165 22.655-58.903Z"/><path fill="#A156C5" d="M274.142 453.106c4.594-20.846-14.817-39.285-24.387-45.705-3.829 13.595-11.715 42.373-12.633 48.717-1.149 7.931-10.066 25.312-18.105 38.908-8.039 13.595 17.227 1.133 37.899 2.266s11.484-18.128 17.226-44.186Z"/><path fill="#783A95" d="M265.269 456.578c3.63-16.743-11.707-31.552-19.268-36.708-3.025 10.919-9.255 34.031-9.981 39.127-.908 6.369-7.953 20.329-14.304 31.248-6.352 10.919 13.61.91 29.943 1.82 16.333.91 9.074-14.559 13.61-35.487Z"/><path fill="#D376FF" d="M266.94 565.191c10.865-20.964 39.51-17.47 56.302-20.964 7.901-6.988 17.779-18.634 25.681-18.634 9.878 0 9.878 11.646 21.731 34.939 11.853 23.293 16.792 20.964 24.694 29.117 7.902 8.152.988 46.586-10.866 54.738-11.853 8.153-34.571-10.481-61.24-16.305-26.668-5.823-27.658 13.976-44.45 12.812-16.792-1.165-19.754-13.976-23.705-32.611-3.951-18.634.988-22.128 11.853-43.092Z"/><path fill="#A156C5" d="M281.488 569.405c7.922-15.199 28.809-12.666 41.054-15.199 5.761-5.066 12.963-13.51 18.725-13.51 7.202 0 7.202 8.444 15.845 25.331 8.643 16.888 12.244 15.199 18.006 21.109 5.762 5.911.721 33.775-7.922 39.686-8.643 5.911-25.209-7.599-44.654-11.821-19.446-4.222-20.168 10.132-32.412 9.288-12.244-.845-14.404-10.133-17.285-23.643-2.881-13.51.72-16.043 8.643-31.241Z"/><path fill="#783A95" d="M291.37 573.567c6.112-11.006 22.225-9.171 31.67-11.006 4.444-3.668 10.001-9.783 14.445-9.783 5.557 0 5.557 6.115 12.224 18.344 6.667 12.228 9.445 11.006 13.89 15.286 4.445 4.28.556 24.457-6.111 28.738-6.668 4.28-19.447-5.503-34.448-8.561-15.001-3.057-15.558 7.338-25.003 6.726-9.446-.611-11.112-7.337-13.334-17.12-2.223-9.783.555-11.618 6.667-22.624Z"/><path fill="#D376FF" d="M524.447 649.165c-15.767 5.883-21.602-4.672-24.007-15.772.513-1.002 1.294-14.652.209-20.717-1.43-7.991-8.94-12.173-19.36-27.382-10.419-15.209 6.315-27.124 18.443-31.533 12.128-4.409 8.94 12.173 17.895 22.836 8.955 10.663 18.123.183 31.624 9.382 13.501 9.198-5.094 55.833-24.804 63.186Z"/><path fill="#A156C5" d="M522.724 636.065c-11.154 4.162-15.281-3.304-16.983-11.157.363-.708.915-10.364.148-14.654-1.012-5.653-6.324-8.612-13.695-19.37-7.37-10.759 4.468-19.187 13.047-22.306 8.578-3.119 6.323 8.611 12.658 16.154 6.334 7.543 12.82.129 22.37 6.636s-3.603 39.496-17.545 44.697Z"/><path fill="#783A95" d="M521.689 627.522c-7.78 2.903-10.659-2.305-11.846-7.782.254-.494.639-7.229.103-10.221-.705-3.943-4.41-6.007-9.551-13.511s3.115-13.383 9.099-15.558c5.984-2.175 4.411 6.006 8.829 11.267 4.419 5.262 8.942.091 15.603 4.629 6.662 4.539-2.513 27.548-12.237 31.176Z"/><path fill="#D376FF" d="M823.692 769.792c-37.997 1.557-76.498-47.292-56.305-64.33 8.625-3.434 24.005-14.284 16.533-30.211-9.34-19.909-27.648-85.795-24.578-104.651 3.07-18.857 56.656-9.165 58.782 13.44 2.127 22.606 12.432 48.478 53.323 64.813s31.616 34.663 18.461 85.749c-13.156 51.087-28.219 33.634-66.216 35.19Z"/><path fill="#A156C5" d="M825.156 757.972c-28.632.941-58.052-38.584-42.968-52.097 6.473-2.687 17.98-11.272 12.218-24.118-7.203-16.057-21.539-69.096-19.378-84.208 2.161-15.111 42.635-6.896 44.422 11.267 1.787 18.164 9.765 39.016 40.724 52.461 30.958 13.445 24.115 28.082 14.612 68.984-9.502 40.903-20.999 26.771-49.63 27.711Z"/><path fill="#783A95" d="M825.613 741.328c-19.788.65-40.122-26.667-29.696-36.007 4.474-1.857 12.426-7.79 8.444-16.669-4.978-11.098-14.887-47.755-13.393-58.199 1.493-10.444 29.467-4.766 30.702 7.787 1.235 12.554 6.749 26.966 28.146 36.258 21.396 9.292 16.667 19.408 10.099 47.678-6.567 28.269-14.513 18.502-34.302 19.152Z"/><path fill="#D376FF" d="M930.356 428.932c-13.593-10.572-1.51-19.634 13.593-27.186 5.539-3.524 18.429-10.27 25.678-9.062 9.062 1.511 6.042 13.593-4.531 22.655-10.572 9.062 4.531 21.145-4.531 28.697-9.062 7.551-16.616-4.531-30.209-15.104Z"/><path fill="#A156C5" d="M934.954 427.303c-10.559-8.302-1.173-15.418 10.559-21.349 4.303-2.767 14.315-8.064 19.947-7.116 7.039 1.186 4.693 10.675-3.52 17.791-8.212 7.116 3.52 16.604-3.52 22.534-7.039 5.93-12.907-3.558-23.466-11.86Z"/><path fill="#783A95" d="M936.915 424.2c-8.122-6.523-.902-12.115 8.123-16.774 3.309-2.174 11.011-6.337 15.343-5.591 5.415.932 3.61 8.387-2.707 13.978-6.318 5.591 2.707 13.046-2.708 17.706-5.415 4.659-9.928-2.796-18.051-9.319Z"/><path fill="#D376FF" d="M744.321 943.159c27.374-16.633 49.408.278 67.467 20.981 8.519 7.68 24.688 25.383 21.216 34.764-4.339 11.726-34.507 6.366-56.632-8.559-22.125-14.927-53.384 3.515-71.807-9.255-18.423-12.77 12.382-21.298 39.756-37.931Z"/><path fill="#A156C5" d="M748.139 949.384c21.489-12.91 38.798.235 52.987 16.325 6.693 5.969 19.396 19.728 16.674 27.014-3.403 9.107-27.094 4.933-44.474-6.671-17.38-11.605-41.919 2.709-56.391-7.218-14.471-9.927 9.715-16.54 31.204-29.45Z"/><path fill="#783A95" d="M755.815 952.312c16.874-9.915 30.483.21 41.643 12.598 5.262 4.596 15.254 15.19 13.12 20.793-2.666 7.004-21.283 3.775-34.947-5.165-13.664-8.94-32.933 2.053-44.31-5.595-11.378-7.647 7.62-12.716 24.494-22.631Z"/><path fill="#D376FF" d="M594.748 348.94c-12.083-15.104-1.51-16.614 0-24.166 6.042-4.531 18.729-11.78 21.146-4.531 3.02 9.062-3.021 10.573 12.082 31.717 15.103 21.145 28.696 31.717 40.779 42.289 12.083 10.573 27.186 36.248 24.165 43.8-3.02 7.551-24.165-7.552-31.717-19.634-7.551-12.083-16.613-22.655-33.227-39.269-16.613-16.613-21.145-15.103-33.228-30.206Z"/><path fill="#A156C5" d="M605.861 355.862c-8.716-11.305-8.621-16.661-7.771-22.486 4.051-3.612 14.761-2.076 16.611 3.427 2.313 6.879 3.199 4.749 14.151 20.616s20.595 23.663 29.195 31.493c8.601 7.83 29.531 29.63 27.64 35.489-1.892 5.859-22.125-7.522-27.64-16.613-5.514-9.092-16.626-17.166-28.505-29.525-11.879-12.359-14.966-11.097-23.681-22.401Z"/><path fill="#783A95" d="M613.192 357.946c-7.384-9.576-9.288-10.843-8.568-15.777 3.432-3.06 10.02-.967 11.588 3.695 1.959 5.828 1.294 6.192 10.572 19.634 9.279 13.442 21.348 17.085 28.634 23.719 7.287 6.633 25.018 25.102 23.416 30.065-1.603 4.964-12.637-8.323-17.309-16.025-4.672-7.703-18.633-15.206-28.696-25.676-10.063-10.47-12.254-10.058-19.637-19.635Z"/><path fill="#D376FF" d="M841.365 922.638c-6.76 12.061-9.691 3.562-14.516 3.371-3.878-4.345-10.66-13.787-6.768-16.789 4.865-3.753 6.929 1.013 16.74-14.38 9.811-15.393 13.56-28.067 17.599-39.496 4.038-11.43 16.571-27.455 21.685-26.02 5.114 1.435.088 20.963-5.725 28.87s-10.429 16.848-17.229 32.853c-6.801 16.006-5.026 19.529-11.786 31.591Z"/><path fill="#A156C5" d="M843.399 912.515c-5.123 8.758-8.358 9.427-12.02 9.54-2.945-2.834-4.071-11.872-1.12-14.164 3.69-2.865 2.24-3.298 9.676-14.535 7.435-11.237 10.273-20.269 13.33-28.447 3.058-8.178 12.148-28.463 16.029-27.723 3.881.741-.285 19.278-4.691 25.09-4.406 5.811-7.129 16.093-12.28 27.603-5.15 11.511-3.802 13.879-8.924 22.636Z"/><path fill="#783A95" d="M843.246 906.186c-4.339 7.419-4.736 9.164-7.838 9.259-2.494-2.4-2.498-8.12.003-10.062 3.125-2.428 3.471-1.93 9.77-11.45 6.299-9.519 6.178-19.971 8.768-26.9 2.591-6.928 10.291-24.113 13.579-23.485 3.288.627-2.581 11.572-6.314 16.495-3.732 4.924-5.568 17.473-9.931 27.225-4.364 9.751-3.697 11.498-8.037 18.918Z"/><path fill="#D376FF" d="M1103.32 145.077c-.57-9.725 8.66-16.58 13.35-18.792l14.98 25.211 13.37 26.619c-1.07.938-5.06 3.297-6.43 5.628-1.71 2.914-4.72 2.715-13.46-2.406-8.74-5.121-4.12-6.328-11.06-15.87-6.93-9.541-10.05-8.234-10.75-20.39Z"/><path fill="#A156C5" d="M1110.55 147.509c-.42-7.244 6.46-12.351 9.95-13.999l12.24 19.033 8.88 19.58c-.8.698-3.77 2.456-4.79 4.193-1.27 2.17-3.52 2.022-10.03-1.793-6.51-3.815-3.07-4.714-8.24-11.823-5.16-7.108-7.48-6.135-8.01-15.191Z"/><path fill="#783A95" d="M1118.97 151.819c-.28-4.886 4.36-8.331 6.71-9.443l7.06 10.167 7.19 15.879c-.54.471-2.54 1.657-3.23 2.828-.86 1.465-2.37 1.364-6.77-1.209-4.39-2.573-2.07-3.18-5.55-7.975-3.49-4.795-5.05-4.138-5.41-10.247Z"/><path fill="#D376FF" d="M1377.24 550.29c-4.15-24.188 9.89-43.431 17.43-50.03l34.52 59.631 32.15 63.515c-1.59 2.59-7.85 9.397-9.5 15.537-2.06 7.676-7.43 7.863-24.48-2.951-17.04-10.813-9.3-14.884-24.59-37.164-15.3-22.28-20.36-18.302-25.53-48.538Z"/><path fill="#A156C5" d="M1390.76 554.727c-3.09-18.02 7.37-32.356 12.98-37.272l27.71 44.804 21.96 46.938c-1.18 1.929-5.85 7.001-7.07 11.575-1.54 5.718-5.54 5.857-18.24-2.198-12.7-8.056-6.93-11.089-18.32-27.687-11.4-16.598-15.17-13.635-19.02-36.16Z"/><path fill="#783A95" d="M1406.98 563.585c-2.08-12.155 4.97-21.825 8.76-25.141l15.71 23.815 17.79 38.068c-.79 1.302-3.94 4.723-4.77 7.808-1.03 3.857-3.73 3.951-12.3-1.483s-4.67-7.48-12.36-18.676c-7.68-11.196-10.23-9.197-12.83-24.391Z"/><path fill="#D376FF" d="M989.264 661.521c22.656-39.268 43.796-4.531 52.866 0 17.62 3.021 51.95 11.177 48.32 19.635-4.53 10.572-75.51 42.289-66.45 64.944 9.06 22.655 58.9 66.454 34.74 63.434-24.17-3.021-55.88-19.634-83.069-63.434-27.186-43.799-9.062-45.31 13.593-84.579Z"/><path fill="#A156C5" d="M996.758 669.029c21.062-26.408 33.042 1.433 39.282 5.751 12.77 4.138 37.41 13.87 33.8 19.694-4.5 7.281-60.67 22.877-56.37 40.52 4.29 17.643 36.62 55.269 18.99 50.419-17.64-4.85-39.419-20.515-54.908-55.677-15.489-35.161-1.857-34.3 19.206-60.707Z"/><path fill="#783A95" d="M1002.13 671.793c15.91-22.864 21.7 1.314 25.49 5.073 8.12 3.617 23.64 12.113 20.82 17.158-3.52 6.306-41.78 19.717-40.29 35.032 1.5 15.315 19.98 48.026 8.71 43.781-11.27-4.246-24.463-17.883-32.018-48.419-7.555-30.537 1.378-29.761 17.288-52.625Z"/><path fill="#D376FF" d="M1286.6 591.331c3.61 8.845-22.43 27.2-34.49 27.99l-36.17 2.369c-18.08 1.185-36.93-32.393-22.45-42.422 14.48-10.03 7.66-21.692-2.47-37.678-10.13-15.986 42.03-28.483 51.24-3.356 9.22 25.127 13.24 17.295 24.29 24.14 11.04 6.842 16.44 20.104 20.05 28.949v.008Z"/><path fill="#A156C5" d="M1275.73 590.362c2.8 6.865-17.41 21.11-26.76 21.723l-28.07 1.839c-14.04.919-28.67-25.14-17.43-32.924 11.24-7.784 5.94-16.835-1.92-29.241-7.86-12.407 32.62-22.106 39.77-2.605 7.15 19.501 10.28 13.423 18.85 18.735 8.57 5.31 12.76 15.602 15.56 22.467v.006Z"/><path fill="#783A95" d="M1261.66 587.137c1.69 4.618-10.25 14.071-15.81 14.435l-16.68 1.092c-8.34.547-17.17-17.004-10.53-22.168 6.65-5.164 3.46-11.261-1.28-19.621s19.28-14.662 23.63-1.548c4.35 13.115 6.18 9.054 11.3 12.66 5.12 3.604 7.67 10.528 9.36 15.146l.01.004Z"/><path fill="#D376FF" d="M557.307 708.343c-25.675-1.51-13.593 31.717-12.083 52.861 0 6.041-3.624 18.124-18.123 18.124-18.124 0-4.531 12.082 9.062 22.655 13.592 10.572 27.185 40.778 40.778 49.84 13.593 9.062 40.779 10.573 57.393-9.062 16.613-19.634 13.593-22.655 25.675-40.778 12.083-18.124-7.551-24.166-12.082-55.882-4.531-31.717 31.716-37.758 40.778-52.861 9.062-15.103-21.144-66.454-49.84-63.433-28.697 3.02-19.635 39.268-21.145 55.882-1.51 16.613-34.737 24.164-60.413 22.654Z"/><path fill="#D376FF" d="M557.307 708.343c-25.675-1.51-13.593 31.717-12.083 52.861 0 6.041-3.624 18.124-18.123 18.124-18.124 0-4.531 12.082 9.062 22.655 13.592 10.572 27.185 40.778 40.778 49.84 13.593 9.062 40.779 10.573 57.393-9.062 16.613-19.634 13.593-22.655 25.675-40.778 12.083-18.124-7.551-24.166-12.082-55.882-4.531-31.717 31.716-37.758 40.778-52.861 9.062-15.103-21.144-66.454-49.84-63.433-28.697 3.02-19.635 39.268-21.145 55.882-1.51 16.613-34.737 24.164-60.413 22.654Z"/><path fill="#A156C5" d="M568.463 715.876c-20.293-1.218-10.743 25.569-9.55 42.615 0 4.87-11.286 25.368-22.746 25.368-14.325 0 1.343 12.621 12.087 21.144 10.744 8.523 20.976 33.474 31.719 40.779 10.744 7.305 36.24-5.715 49.371-21.544 13.132-15.828 12.056-13.686 21.606-28.297 9.55-14.611-7.281-24.058-10.862-49.626-3.581-25.569 33.915-46.942 41.077-59.117 7.162-12.175-12.056-49.256-34.737-46.821-22.682 2.435-21.462 40.979-22.655 54.372-1.194 13.394-35.016 22.345-55.31 21.127Z"/><path fill="#783A95" d="M575.432 726.467c-16.908-1.028-7.034 26.393-6.04 40.778 0 4.11-19.636 15.104-27.184 21.145-9.319 7.458 24.269 16.973 33.22 24.165 8.952 7.193 1.626 18 10.578 24.165 8.951 6.165 22.286-9.297 33.227-22.655 10.941-13.357 7.9-8.814 15.857-21.144 7.957-12.33 2.984-29.384 0-50.962-2.984-21.577 23.484-38.445 29.451-48.72 5.968-10.274 8.326-45.854-10.572-43.799-18.898 2.055-26.836 38.538-27.83 49.841-.995 11.302-33.798 28.213-50.707 27.186Z"/><path fill="#D376FF" d="M1181.08 650.951c28.69 6.041 36.24 10.572 51.35 13.593 21.14 4.228 32.01 30.81 45.3 33.226 16.62 3.021 54.38-18.124 78.54-25.675 24.17-7.552 40.78 21.144 48.33 43.799 7.55 22.655-33.23 40.779-58.9 36.248-25.68-4.531-37.76-16.614-64.95-27.186-27.18-10.572-34.73 0-39.26 10.572-7.46 17.394-3.02 18.124-25.68 30.207-22.65 12.082-40.78-12.083-64.94-30.207-24.17-18.124-15.1-28.695-13.59-60.412 1.51-31.717 15.1-30.207 43.8-24.165Z"/><path fill="#A156C5" d="M1189.47 658.5c25.58 5.256 32.31 9.199 45.77 11.827 18.84 3.679 28.53 26.808 40.38 28.911 14.8 2.628 48.45-15.77 69.99-22.341 21.53-6.57 36.34 18.398 43.07 38.11 6.73 19.712-29.61 35.482-52.49 31.54-22.89-3.943-33.65-14.456-57.88-23.655-24.23-9.199-30.96 0-35 9.199-6.64 15.135-2.69 15.77-22.88 26.283-20.19 10.513-36.34-10.513-57.88-26.283-21.53-15.77-13.46-24.968-12.11-52.565 1.35-27.597 13.46-26.283 39.03-21.026Z"/><path fill="#783A95" d="M1195.41 664.196c23.66 4.656 29.89 8.148 42.34 10.476 17.42 3.259 26.39 23.744 37.35 25.606 13.69 2.328 44.82-13.967 64.74-19.787 19.92-5.82 33.61 16.296 39.84 33.755 6.22 17.459-27.39 31.427-48.56 27.935-21.16-3.492-31.12-12.804-53.53-20.951-22.42-8.148-28.64 0-32.38 8.147-6.14 13.405-2.49 13.968-21.16 23.279-18.68 9.312-33.62-9.311-53.54-23.279-19.92-13.967-12.45-22.114-11.2-46.557 1.24-24.443 12.45-23.279 36.1-18.624Z"/><path fill="#D376FF" d="M309.617 367.008c-19.635-7.551-6.043-27.185-.001-28.695 3.524-4.531 18.126-8.156 24.167-4.531 7.552 4.531 6.041 15.102 9.062 15.102 3.021 0 18.124-12.082 31.717-10.572 13.593 1.51 1.51 28.696-6.042 28.696-7.551 0-10.572 10.573-19.634 19.634-9.062 9.062-19.635-12.082-39.269-19.634Z"/><path fill="#A156C5" d="M316.085 366.116c-15.314-6.05-4.712-21.779 0-22.988 2.749-3.63 14.137-6.534 18.849-3.63 5.89 3.63 4.712 12.099 7.068 12.099s14.136-9.68 24.738-8.47c10.602 1.21 1.178 22.989-4.712 22.989s-8.246 8.47-15.314 15.729c-7.068 7.26-15.315-9.679-30.629-15.729Z"/><path fill="#783A95" d="M321.608 364.998c-11.667-4.84-4.976-15.824-1.385-16.792 2.094-2.904 10.771-5.227 14.361-2.904 4.488 2.904 3.59 9.679 5.385 9.679s10.77-7.743 18.848-6.775.897 18.391-3.59 18.391c-4.488 0-4.897 5.176-10.282 10.984-5.386 5.808-11.669-7.744-23.337-12.583Z"/><path fill="#D376FF" d="M219.633 870.188c17.01 12.376-1.2 27.823-7.427 27.718-4.577 3.464-19.619 3.186-24.516-1.879-6.122-6.331-1.927-16.151-4.844-16.933-2.918-.782-20.634 6.98-33.373 2.003-12.739-4.977 5.969-28.109 13.263-26.155 7.294 1.955 12.948-7.475 24.047-13.883 11.098-6.408 15.839 16.753 32.85 29.129Z"/><path fill="#A156C5" d="M213.153 869.375c13.226 9.807-1.084 22.256-5.949 22.206-3.595 2.794-15.347 2.652-19.147-1.373-4.749-5.031-1.42-12.906-3.695-13.516-2.276-.61-16.16 5.691-26.087 1.778-9.928-3.912 4.812-22.51 10.501-20.986 5.689 1.525 10.157-6.047 18.863-11.229 8.706-5.183 12.288 13.313 25.514 23.12Z"/><path fill="#783A95" d="M207.528 869.026c10.017 7.695.711 16.573-3.007 16.578-2.775 2.263-11.758 2.261-14.624-.912-3.583-3.966-.963-10.278-2.696-10.743-1.734-.465-12.408 4.692-19.96 1.667-7.552-3.026 3.893-17.997 8.228-16.836 4.335 1.162 6.07-3.732 12.775-7.948s9.266 10.499 19.284 18.194Z"/><path fill="#D376FF" d="M1466.52 780.838c12.09-15.708 47.33-16.614 63.44-15.104 2.52 5.035 12.08 27.488 12.08 40.779 0 16.614-1.51 25.676-4.53 40.779-2.42 12.083-28.19 29.2-40.78 36.248-29.7 9.062-92.73 28.092-107.23 31.717-18.12 4.531-70.99-9.062-78.54-42.289-7.55-33.228 25.68-49.841 70.99-60.413 45.31-10.573 69.47-12.083 84.57-31.717Z"/><path fill="#A156C5" d="M1473.72 790.066c10.69-13.836 41.87-14.634 56.12-13.304 6.68 2.565 10.69 24.213 10.69 35.921 0 14.634-1.34 22.616-4.01 35.92-2.14 10.643-24.94 25.72-36.08 31.929-26.28 7.982-82.05 24.745-94.88 27.937-16.03 3.992-62.8-7.982-69.48-37.25-6.69-29.268 22.71-43.902 62.8-53.215 40.09-9.312 61.47-10.643 74.84-27.938Z"/><path fill="#783A95" d="M1479.47 796.626c8.8-11.32 34.48-11.973 46.22-10.884 5.5 2.098 8.8 19.81 8.8 29.389 0 11.973-1.1 18.504-3.3 29.389-1.76 8.708-20.54 21.044-29.71 26.124-21.65 6.531-67.57 20.245-78.14 22.858-13.2 3.265-51.72-6.531-57.22-30.478-5.51-23.946 18.7-35.92 51.72-43.539 33.01-7.62 50.62-8.708 61.63-22.859Z"/><path fill="#D376FF" d="M915.257 610.171c-6.041-12.083 6.042-12.083 13.593-16.614 6.041-5.034 19.935-15.405 27.184-16.614 9.062-1.51 7.552 13.593 4.531 19.635-3.021 6.041-7.552 6.041-4.531 16.613s-13.593 21.145-24.165 18.124c-10.572-3.021-10.57-9.062-16.612-21.144Z"/><path fill="#A156C5" d="M919.579 608.614c-4.814-9.29 4.814-9.29 10.831-12.774 4.813-3.871 15.884-11.845 21.66-12.774 7.221-1.161 6.017 10.452 3.61 15.097-2.406 4.645-6.017 4.645-3.61 12.774 2.407 8.128-10.831 16.257-19.255 13.935-8.424-2.323-8.422-6.968-13.236-16.258Z"/><path fill="#783A95" d="M922.3 609.164c-3.703-7.3 3.703-7.3 8.331-10.037 3.703-3.041 12.218-9.306 16.662-10.036 5.554-.913 4.628 8.211 2.777 11.861-1.851 3.65-4.629 3.65-2.777 10.037 1.851 6.386-8.332 12.773-14.812 10.949-6.48-1.825-6.478-5.475-10.181-12.774Z"/><path fill="#D376FF" d="M287.863 883.025c-3.332-9.121 3.333-9.121 7.499-12.541 3.332-3.8 10.996-11.628 14.995-12.54 4.999-1.14 4.166 10.26 2.5 14.82-1.667 4.561-4.166 4.561-2.5 12.541 1.667 7.98-7.498 15.96-13.33 13.68-5.832-2.28-5.831-6.84-9.164-15.96Z"/><path fill="#A156C5" d="M290.252 881.85c-2.655-7.013 2.656-7.013 5.975-9.642 2.655-2.922 8.762-8.941 11.948-9.642 3.984-.877 3.32 7.889 1.992 11.395-1.328 3.506-3.319 3.506-1.992 9.642 1.328 6.136-5.974 12.272-10.621 10.518-4.647-1.753-4.646-5.259-7.302-12.271Z"/><path fill="#783A95" d="M291.749 882.265c-2.042-5.51 2.043-5.51 4.596-7.576 2.043-2.296 6.74-7.025 9.191-7.576 3.064-.689 2.554 6.199 1.532 8.953-1.021 2.755-2.553 2.755-1.532 7.576 1.022 4.821-4.595 9.642-8.17 8.265-3.575-1.378-3.574-4.132-5.617-9.642Z"/><path fill="#D376FF" d="M394.192 687.198c-24.165-34.738-67.965 3.02-86.088 34.737 0 13.593-43.8-13.593-61.924-10.572-18.124 3.021 0 48.33 30.207 39.268 30.206-9.062 45.31-15.103 72.495 9.062 27.186 24.166-16.613 42.289 0 95.151 16.614 52.861 63.434 12.082 93.64 0 30.207-12.083 3.021-54.372-19.634-83.068-22.655-28.696-4.531-49.841-28.696-84.578Z"/><path fill="#A156C5" d="M390.752 688.702c-20.859-30.28-60.961 10.117-76.604 37.764 0 11.849-49.304-7.164-64.948-4.531-15.643 2.634 13.794 29.961 39.867 22.062 26.073-7.9 39.11-13.166 62.575 7.899 23.466 21.065 1.027 32.704 15.367 78.783 14.34 46.079 41.892 30.166 67.965 19.634s-6.121-50.502-25.676-75.516c-19.555-25.014 2.312-55.815-18.546-86.095Z"/><path fill="#783A95" d="M388.153 697.771c-17.019-26.374-56.71 6.125-69.475 30.206 0 10.32-50.67-.783-63.434 1.51-12.764 2.294 21.016 15.943 42.29 9.063 21.273-6.88 42.777-9.285 61.923 9.062s4.913 30.851 16.614 70.985c11.7 40.134 27.056 36.359 48.33 27.186 21.274-9.174-8.21-50.709-24.165-72.496-15.955-21.787 4.936-49.142-12.083-75.516Z"/><path fill="#D376FF" d="M787.856 874.903c12.241-2.293 21.497-36.449 20.981-41.197-.307-4.291-2.374-13.868-8.188-17.848-7.267-4.975-14.244 1.549-23.967 9.333-9.722 7.783-22.884-2.796-26.322-21.158-3.439-18.363-27.532-45.528-44.812-54.218-17.28-8.69-4.105 41.763 19.069 56.057 23.174 14.294 10.769 41.587 21.073 56.802 10.303 15.216 29.924 14.521 42.166 12.229Z"/><path fill="#A156C5" d="M780.055 865.639c9.325-1.746 22.318-26.813 21.925-30.43-.234-3.268 4.426-4.404-.003-7.436-5.535-3.789-21.285-1.513-28.691 4.416-7.405 5.929-19.173-6.546-21.792-20.533-2.619-13.987-26.394-47.264-39.556-53.883-13.162-6.619-3.127 31.811 14.525 42.699 17.652 10.888 13.625 44.262 21.473 55.852 7.849 11.591 22.794 11.061 32.119 9.315Z"/><path fill="#783A95" d="M776.457 862.921c7.667-1.188 16.463-14.119 17.973-17.139.536-3.022 4.773-7.432.972-10.346-4.751-3.643-17.728-2.243-23.63 2.793-5.902 5.037-18.498-12.418-21.25-25.13-2.752-12.711-23.858-43.678-35.056-50.186-11.197-6.508-1.281 28.535 13.819 39.075 15.101 10.54 13.137 40.446 20.13 51.214 6.992 10.767 19.375 10.908 27.042 9.719Z"/><path fill="#D376FF" d="M902.092 808.152c-9.503-11.836 6.663-27.707 7.78-33.036 3.28-8.158 12.621-25.089 23.751-27.55 13.912-3.075 8.346 21.437 6.151 27.825-2.195 6.388-7.583 11.678-10.856 19.125-3.273 7.446 22.357 7.681 29.783 13.09 7.427 5.409-6.565 17.028-23.652 16.87-17.086-.157-23.454-4.488-32.957-16.324Z"/><path fill="#A156C5" d="M903.645 806.118c-7-8.719 4.908-20.41 5.731-24.336 2.416-6.009 9.297-18.481 17.496-20.294 10.248-2.266 6.148 15.791 4.531 20.497-1.617 4.705-5.586 8.602-7.997 14.088-2.411 5.485 16.469 5.658 21.94 9.643 5.47 3.984-4.837 12.543-17.423 12.427-12.587-.116-17.278-3.307-24.278-12.025Z"/><path fill="#783A95" d="M907.147 803.004c-5.734-6.859 1.903-14.356 2.182-17.127 1.258-4.149 5.214-12.612 10.97-13.267 7.194-.819 5.685 11.901 4.897 15.172-.788 3.271-3.333 5.77-4.63 9.541-1.298 3.771 12.303 5.404 16.558 8.72 4.255 3.315-2.479 8.677-11.546 7.589-9.067-1.089-12.698-3.769-18.431-10.628Z"/><path fill="#D376FF" d="M255.239 673.962c9.873-7.592 2.483-25.014-33.961-51.977-3.157-2.503-9.814-10.478-11.188-22.36-1.718-14.852-21.262-7.218-31.828 3.679-10.565 10.898-1.34 16.284-8.355 29.996-7.015 13.712-27.252 24.652-34.715 43.791-7.463 19.139 14.044 28.479 26.038 20.641 11.995-7.837 27.497-22.53 54.633-20.292 27.136 2.238 29.503 4.114 39.376-3.478Z"/><path fill="#A156C5" d="M240.099 665.046c7.266-5.587 1.828-18.41-24.995-38.255-2.324-1.841-7.223-7.711-8.234-16.456-1.264-10.931-15.649-5.312-23.425 2.708-7.776 8.02-.986 11.984-6.15 22.076-5.163 10.092-20.057 18.144-25.549 32.23-5.493 14.086 10.336 20.96 19.164 15.192 8.828-5.768 20.237-16.582 40.209-14.935 19.971 1.647 21.714 3.028 28.98-2.56Z"/><path fill="#783A95" d="M227.821 659c5.299-4.074 1.333-13.425-18.228-27.897-1.694-1.343-5.267-5.624-6.005-12.001-.921-7.971-11.411-3.874-17.082 1.975-5.671 5.849-.719 8.74-4.484 16.099-3.766 7.36-14.627 13.231-18.633 23.504-4.005 10.272 7.538 15.285 13.976 11.078 6.437-4.206 14.758-12.092 29.322-10.891 14.564 1.201 15.835 2.208 21.134-1.867Z"/><path fill="#D376FF" d="M90.62 709.852c-18.125-12.082-31.718 0-34.738 0l-24.165 30.207-18.124 30.207c8.558 2.517 27.79 6.645 36.248 3.02 10.572-4.531 33.227 9.062 36.247 16.614 3.021 7.551 12.083 40.779 33.227 49.841 21.145 9.061 39.269-22.655 39.269-30.207s-28.696-12.083-49.841-27.186c-21.144-15.103-4.531-27.186-1.51-42.289 3.021-15.103 1.51-18.124-16.614-30.207Z"/><path fill="#A156C5" d="M80.707 714.119c-14.725-9.6-25.77 0-28.224 0l-19.634 23.999-14.726 23.999c6.954 1.999 22.58 5.279 29.451 2.399 8.59-3.599 27.374 10.325 33.133 13.301 6.041 3.122 24.448 44.152 41.628 51.351 17.18 7.2 21.145-10.614 21.145-16.613 0-6-25.109-21.228-42.289-33.228-17.18-11.999-9.44-29.21-6.985-41.209 2.454-12 1.227-14.4-13.499-23.999Z"/><path fill="#783A95" d="M75.434 716.601c-12.774-8.387-22.354 0-24.483 0L33.919 737.57l-12.774 20.968c6.032 1.747 19.586 4.613 25.548 2.097 7.451-3.145 26.766 7.51 31.762 10.111 5.24 2.727 31.999 40.049 46.902 46.34 14.903 6.29 9.062.711 9.062-4.531s-27.386-25.764-42.29-36.248c-14.902-10.484-7.114-28.253-4.985-38.737 2.129-10.484 1.064-12.581-11.71-20.969Z"/><path fill="#D376FF" d="M202.385 786.879c-6.041-16.613 12.082-16.613 18.124-16.613 6.041 3.524 20.238 8.458 28.695 0 10.573-10.572 27.186 0 33.227 10.572 6.042 10.572-15.103 19.634-19.634 31.717-4.531 12.083-4.531 33.227-13.593 36.248-9.062 3.02-19.634-13.593-19.634-30.207 0-16.613-21.144-15.103-27.185-31.717Z"/><path fill="#A156C5" d="M209.407 787.78c-4.876-13.861 9.752-13.861 14.627-13.861 4.876 2.94 16.334 7.056 23.16 0 8.533-8.82 21.941 0 26.817 8.821 4.876 8.82-12.19 16.38-15.846 26.461-3.657 10.08-3.657 27.721-10.971 30.241-7.314 2.52-15.846-11.341-15.846-25.201 0-13.861-17.065-12.601-21.941-26.461Z"/><path fill="#783A95" d="M218.246 790.014c-3.768-10.848 7.535-10.848 11.303-10.848 3.767 2.301 12.621 5.523 17.896 0 6.593-6.902 16.954 0 20.722 6.903 3.767 6.903-9.419 12.82-12.245 20.709-2.826 7.889-2.826 21.695-8.477 23.667-5.652 1.972-12.245-8.875-12.245-19.723 0-10.847-13.187-9.861-16.954-20.708Z"/></svg>