<svg xmlns="http://www.w3.org/2000/svg" width="1093" height="1120" fill="none"><path fill="#D4DB7C" d="M434.597 81.56c-72.969-8.585-119.826 57.23-134.133 91.21 5.365 10.731 112.672 64.385 160.96 64.385 48.288 0 112.672-101.942 112.672-107.307 0-5.366-48.289-37.558-139.499-48.289Z"/><path fill="#739643" d="M338.021 430.307c-11.255-48.775-35.769-189.576-37.557-257.537 1.788 3.577 25.754 17.169 107.307 42.923 81.553 25.753 144.864-46.5 166.325-85.846 8.943 57.231 30.046 178.13 42.923 203.883 16.096 32.192 16.096 85.846 16.096 134.134V634.19c0 68.676-5.365 75.115-32.192 85.845l-118.037 32.192c-37.558-10.73-66.531-70.822-96.577-139.499-37.557-85.845-32.192-112.672-48.288-182.421Z"/><path fill="#90B162" fill-rule="evenodd" d="M321.837 346.327c-10.145-59.334-20.249-130.837-21.373-173.557 1.788 3.577 25.754 17.169 107.307 42.923s144.864-46.5 166.325-85.846c4.974 31.833 13.711 83.364 22.701 127.264-20.048 11.803-48.415 26.615-61.958 32.439-26.794 11.524-105.823 6.705-122.983 2.415-26.937-6.734 3.001 10.252 20.02 12.871 18.591 2.86 125.349-1.64 141.461-15.286 7.962-6.744 11.524-8.985 14.563-10.898 3.054-1.922 5.582-3.512 11.518-9.006 6.312 29.548 12.582 54.045 17.601 64.085 12.844 25.688 15.439 65.042 15.964 104.43-35.837 5.679-73.276 10.577-81.448 5.982-24.203-13.609 16.833 30.102 31.361 20.857 3.437-2.187 8.459-4.101 14.431-5.757-9.164 7.244-28.848 18.869-55.267 23.464-33.543 5.835-151.961 22.03-192.648 7.193-.308-1.805-.616-3.622-.926-5.452l-.003-.016v-.005c-1.471-8.675-2.997-17.676-4.858-27.446 1.208 1.39 2.43 2.654 3.639 3.729 12.87 11.44 114.403 2.86 132.994-7.15 9.187-4.948 13.135-6.402 16.505-7.643 3.449-1.271 6.292-2.318 13.525-6.658 14.301-8.58 22.881-18.59 24.311-22.88-5.244 5.72-21.451 18.304-44.331 22.88-26.418 5.284-122.383 20.328-149.272 4.562a683.135 683.135 0 0 0-2.975-13.514c-3.578-15.506-8.496-40.314-13.599-69.125 15.909 1.525 40.055.53 62.519-.396 23.658-.974 45.452-1.872 53.797.331 17.737 4.682 35.128-3.96 49.364-11.034a506.783 506.783 0 0 1 4.696-2.315c15.01-7.267 45.384-31.637 47.191-35.782-5.733 5.228-66.804 33.27-90.002 35.782-22.137 2.398-92.182 7.189-130.15-1.441Zm277.549 112.365c-3.773 5.659-14.478 15.456-30.879 24.015-9.555 4.986-13.311 6.189-17.867 7.649-4.451 1.426-9.667 3.097-21.804 8.781-24.557 11.501-158.681 21.359-175.683 8.215-.248-.193-.498-.39-.747-.593 3.811 20.262 8.717 40.885 18.585 67.992 41.829-2.694 84.394-8.825 102.427-11.962 30.225-5.257 51.635-19.715 58.561-26.287-1.889 4.929-13.223 16.429-32.114 26.287-9.555 4.986-13.31 6.19-17.866 7.649-4.452 1.426-9.668 3.097-21.804 8.781-11.423 5.35-46.552 10.344-82.573 12.833a733.57 733.57 0 0 0 8.687 20.677c30.046 68.676 59.019 128.768 96.577 139.498l118.037-32.192c26.827-10.73 32.192-17.169 32.192-85.845V467.864c0-4.928 0-9.913-.017-14.925-11.745 1.304-23.847 3.202-33.712 5.753ZM348.934 241.914c-22.88-4.576-39.087-17.16-44.331-22.881 1.43 4.291 10.01 14.301 24.311 22.881 7.233 4.34 10.076 5.387 13.525 6.658 3.37 1.241 7.318 2.695 16.506 7.642 18.59 10.011 120.123 18.591 132.993 7.151 12.87-11.441 27.171-44.332 11.44-21.451-15.73 22.881-125.843 5.72-154.444 0Zm171.605 131.563c22.88-2.86 55.804-33.24 59.542-40.041-.042.508-.055 1.237-.071 2.132-.123 7.05-.429 24.471-16.57 26.469-7.576.938-19.302 8.208-31.575 15.817-14.54 9.014-29.846 18.504-39.927 18.504-21.114 0-70.072 4.29-85.802 14.3-14.528 9.245-55.564-34.465-31.362-20.856 10.578 5.948 70.194-4.011 111.895-10.977l.002-.001c14.292-2.387 26.48-4.423 33.868-5.347Z" clip-rule="evenodd"/><path fill="#A0A650" d="M351.793 137.521c1.43-20.02 65.782-35.751 68.642-35.751 21.927 0 69.784 1.716 85.801 8.58 20.02 8.581 25.74 27.171 25.74 37.181 0 10.011-55.771 44.332-80.082 48.622-24.31 4.29-62.92-4.29-74.36-12.871-11.44-8.58-27.171-25.74-25.741-45.761Z"/><path fill="#5B5E31" d="M380.453 141.409c.908-12.588 41.746-22.478 43.561-22.478 13.915 0 44.285 1.079 54.449 5.395 12.705 5.394 16.335 17.083 16.335 23.378 0 6.294-35.392 27.873-50.82 30.571-15.428 2.697-39.929-2.698-47.19-8.093-7.26-5.395-17.242-16.184-16.335-28.773Z"/><path fill="#5B5E31" d="M380.453 141.409c.908-12.588 41.746-22.478 43.561-22.478 13.915 0 44.285 1.079 54.449 5.395 12.705 5.394 16.335 17.083 16.335 23.378 0 6.294-35.392 27.873-50.82 30.571-15.428 2.697-39.929-2.698-47.19-8.093-7.26-5.395-17.242-16.184-16.335-28.773Z"/><path fill="#ACB62E" d="M128.691 439.077c-72.355 12.762-98.305 89.272-102.236 125.932 8.225 8.734 126.428 29.262 172.677 15.375 46.248-13.886 78.596-130.037 77.053-135.176-1.543-5.139-57.05-22.084-147.494-6.131Z"/><path fill="#8F991A" d="M122.143 454.835c-47.94 7.827-63.693 62.91-65.578 89.473 5.653 6.512 84.798 23.797 115.325 14.63 30.528-9.166 49.75-92.93 48.619-96.695-1.131-3.765-38.442-17.191-98.366-7.408Z"/><path fill="#727A10" d="M126.358 469.066c-32.616 5.138-42.908 43.916-43.977 62.663 3.907 4.645 57.999 17.496 78.735 11.27 20.736-6.226 33.159-65.233 32.357-67.902-.801-2.669-26.345-12.455-67.115-6.031Z"/><path fill="#567D20" d="M136.484 800.869c-24.806-43.477-88.776-171.281-110.033-235.857 2.742 2.912 29.603 9.038 115.118 10.25 85.514 1.213 125.372-86.195 134.612-130.05 25.023 52.241 80.003 161.964 99.742 182.926 24.674 26.204 40.104 77.591 53.99 123.839l47.832 159.299c19.75 65.776 16.463 73.485-6.145 91.474l-103.793 64.78c-39.057.52-84.087-48.7-132.614-105.832-60.658-71.419-63.234-98.655-98.709-160.829Z"/><path fill="#416411" d="M136.487 800.868c-24.806-43.477-88.776-171.281-110.033-235.857 2.742 2.912 29.603 9.038 115.118 10.251 85.514 1.212 125.372-86.196 134.612-130.051 25.023 52.241 80.003 161.964 99.742 182.927 24.674 26.203 40.103 77.59 53.99 123.838l47.832 159.3c19.75 65.775 16.463 73.484-6.145 91.474l-103.793 64.78c-39.057.52-84.087-48.7-132.614-105.833-60.658-71.418-63.234-98.655-98.709-160.829Z"/><path fill="#E8CE89" d="M949.507 291.214c-49.526-32.443-105.86-4.922-127.837 12.894.168 9.232 58.89 84.758 93.618 102.376 34.729 17.619 116.092-27.998 117.942-31.636 1.84-3.637-21.82-43.08-83.723-83.634Z"/><path fill="#BA9E57" d="M940.154 302.51c-31.888-21.227-69.291-1.492-84.007 11.028-.052 6.285 37.105 56.693 59.555 68.082 22.451 11.39 76.576-21.109 77.85-23.619 1.273-2.51-13.538-28.958-53.398-55.491Z"/><path fill="#BA9E57" d="M940.154 302.51c-31.888-21.227-69.291-1.492-84.007 11.028-.052 6.285 37.105 56.693 59.555 68.082 22.451 11.39 76.576-21.109 77.85-23.619 1.273-2.51-13.538-28.958-53.398-55.491Z"/><path fill="#BA9E57" d="M940.154 302.51c-31.888-21.227-69.291-1.492-84.007 11.028-.052 6.285 37.105 56.693 59.555 68.082 22.451 11.39 76.576-21.109 77.85-23.619 1.273-2.51-13.538-28.958-53.398-55.491Z"/><path fill="#BA9E57" d="M940.154 302.51c-31.888-21.227-69.291-1.492-84.007 11.028-.052 6.285 37.105 56.693 59.555 68.082 22.451 11.39 76.576-21.109 77.85-23.619 1.273-2.51-13.538-28.958-53.398-55.491Z"/><path fill="#967D3C" d="M937.126 313.524c-22.967-15.165-49.493-1.688-59.885 6.946.021 4.402 27.022 40.057 43.159 48.244 16.137 8.186 54.485-14.077 55.371-15.823.886-1.746-9.936-20.41-38.645-39.367Z"/><path fill="#3E5420" d="M760.125 492.402c8.68-37.172 39.475-141.568 61.562-188.293.056 3.077 12.617 21.036 62.412 68.25 49.795 47.215 120.181 21.333 149.141 2.49-13.25 42.06-31.94 131.052-39.247 153.878-9.544 29.797-17.948 64.069-34.555 96.805l-57.204 112.755c-23.619 46.558-29.693 48.965-52.677 46.451l-95.963-21.244c-23.321-20.977-23.491-72.286-21.48-129.806 2.513-71.9 15.598-88.129 28.011-141.286Z"/><path fill="#F7FF96" d="M616.885 468.267c-76.28-21.742-133.779 2.774-152.995 17.75 4.403 7.047 111.68 61.154 162.837 72.478 51.157 11.324 131.54-28.571 132.181-31.465.64-2.895-46.674-31.585-142.023-58.763Z"/><path fill="#BBC636" d="M603.529 483.029c-50.286-13.641-86.978-2.517-99.038 4.751 3.074 3.818 74.492 35.316 108.12 42.76 33.628 7.444 84.756-11.05 85.087-12.546.331-1.495-31.311-17.913-94.169-34.965Z"/><path fill="#7C841E" d="M603.977 490.47c-33.781-9.148-58.403-1.785-66.492 3.04 2.069 2.548 50.061 23.617 72.65 28.617 22.588 5 56.894-7.254 57.114-8.25.221-.996-21.045-11.971-63.272-23.407Z"/><path fill="#2D440F" d="M450.47 632.316c-6.1-28.951 7.212-109.219 13.432-146.301 1.468 2.349 25.234 15.302 108.558 48.319 83.324 33.017 159.024 8.887 186.459-7.306 2.64 32.97 19.844 102.151 21.128 120.051 1.677 23.367 6.802 50.085 1.036 76.134l-19.861 89.725c-8.2 37.047-14.653 39.262-44.355 38.76L572.46 873.992c-38.508-14.596-62.027-53.807-85.658-97.9-29.538-55.117-27.608-102.375-36.332-143.776Z"/><path fill="#3A5417" fill-rule="evenodd" d="M626.365 751.126c21.027-2.905 119.124-24.981 157.366-57.291-.155-10.441-1.2-20.746-2.206-30.656v-.003c-.558-5.502-1.104-10.883-1.478-16.097-.435-6.072-2.703-18.045-5.613-32.504-3.986 2.827-8.071 5.901-12.218 9.159-7.37 5.791-10.671 9.256-13.183 11.894-4.313 4.528-6.303 6.618-22.568 13.847-25.741 11.44-100.103 24.311-127.274 17.16-21.736-5.72-51.958-30.984-64.351-42.901 5.243 0 21.736 2.86 45.761 14.301 30.031 14.3 134.423-4.291 155.874-14.301 12.964-6.05 26.201-16.834 34.776-24.829-5.149-25.284-10.896-53.939-12.332-71.877-27.435 16.193-103.135 40.323-186.459 7.306s-107.09-45.97-108.558-48.319c-2.82 16.812-7.098 42.502-10.364 68.261 19.434 15.626 54.601 35.592 94.169 33.707 24.413-1.162 37.722-.199 48.569.587 15.84 1.147 26.43 1.914 58.684-4.877 43.473-9.152 68.642-8.58 75.792-7.15-14.3 9.534-51.767 28.887-87.232 30.031-31.37 1.012-57.728.591-78.566.259-8.61-.137-16.277-.259-22.967-.259-6.445 0-11.869 1.134-16.911 2.189-12.857 2.69-23.231 4.86-41.72-13.63-12.723-12.722-23.188-25.737-30.453-35.737-3.555 29.316-5.584 57.965-2.433 72.92 2.233 10.595 3.768 21.573 5.311 32.968 9.309 3.511 20.119 8.057 32.377 13.886 8.504 4.043 15.834 7.711 22.437 11.016 32.339 16.185 47.238 23.641 97.174 23.641 50.051 0 125.068-28.671 143.004-40.041-5.674 5.876-17.282 12.948-36.525 24.672l-.001.001-.004.002-.021.013c-2.895 1.764-5.964 3.634-9.211 5.62-31.052 18.999-82.142 45.122-104.387 39.765-9.894-2.383-23.637-8.185-39.61-14.929v-.001c-19.937-8.417-43.348-18.302-67.09-24.836-12.176-3.351-24.058-9.004-34.839-15.464 4.185 26.82 10.775 55.849 27.717 87.463l.046.085c9.442 3.068 21.175 7.412 35.158 13.176l-26.138 3.327c20.807 37.105 42.994 68.577 76.592 81.312l144.407-22.294c29.702.502 36.155-1.713 44.355-38.76l14.952-67.549c-4.221 3.905-9.179 8.36-14.917 13.517l-9.524 1.212c9.707-6.952 18.401-13.576 25.423-19.163l3.9-17.622a1671.518 1671.518 0 0 1-4.537 6.224c-8.871 12.112-31.788 12.457-56.662 12.832-13.036.197-26.61.402-38.981 2.312-3.773.583-7.332 1.14-10.691 1.665-22.263 3.481-35.693 5.581-43.82 4.76Zm125.364 8.995.004-.003-229.727 29.235.001.001-26.139 3.326c14.826 8.029 31.964 16.006 48.488 21.09 37.181 11.44 81.542 14.553 104.392 15.73 22.851 1.178 77.433-38.974 104.465-63.356 2.824-2.548 5.495-4.948 8.016-7.213l.019-.017.005-.005-9.524 1.212Zm0 0c-31.146 22.306-72.725 47.992-102.981 53.649-50.741 9.488-60.068 5.257-93.928-10.099-5.583-2.532-11.833-5.366-19.045-8.492a836.046 836.046 0 0 0-13.768-5.825l229.722-29.233Z" clip-rule="evenodd"/><path fill="#569451" d="M270.99 636.45c-63.325 13.54-91.02 65.078-96.953 89.154 6.493 5.07 107.078 9.802 147.951-2.571 40.874-12.373 76.836-90.1 75.861-93.323-.976-3.223-47.703-10.186-126.859 6.74Z"/><path fill="#367330" d="M253.213 660.895c-37.478 8.067-53.992 38.199-57.564 52.256 3.825 2.94 63.286 5.43 87.486-1.896 24.201-7.326 45.673-52.754 45.105-54.631-.568-1.877-28.178-5.813-75.027 4.271Z"/><path fill="#24561F" d="M255.259 669.459c-27.423 6.073-39.899 26.934-42.709 36.606 2.744 1.954 46.026 2.78 63.764-2.59 17.739-5.369 34.053-36.77 33.667-38.046-.386-1.276-20.443-3.561-54.722 4.03Z"/><path fill="#7C9B50" d="M252.658 870.661c-18.395-26.412-64.745-104.701-78.616-145.063 2.165 1.69 24.921 3.714 98.634-1.714s114.166-65.048 125.178-94.18c17.974 32.084 63.746 93.975 73.402 111.462 12.605 22.83 29.232 47.438 38.012 76.442l30.241 99.902c12.487 41.249 9.116 46.491-11.64 59.81l-94.06 49.58c-33.741 3.18-69.191-25.49-107.11-59.042-47.399-41.939-47.735-59.427-74.041-97.197Z"/><path fill="#4D632F" fill-rule="evenodd" d="M244.839 858.919c2.026.72 4.902 1.903 8.298 3.301 10.654 4.385 26.427 10.878 37.165 11.772 17.161 1.43 61.497-1.431 81.517-11.441 20.021-10.01 40.041-32.891 42.901-37.181 2.288-3.432 17.161-30.031 24.311-42.901-3.337 20.02-12.012 62.063-20.02 70.072-1.758 1.757-3.559 3.691-5.475 5.747l-.002.003h-.001c-8.993 9.654-20.494 22-41.714 31.431-25.74 11.44-77.233 2.86-81.517 0-4.285-2.86-24.305-11.441-31.456-11.441-.372 0-.754-.056-1.145-.164 5.383 8.204 9.626 15.472 13.654 22.371 10.566 18.096 19.646 33.649 43.911 56.869 2.809.581 6.245 1.707 10.294 3.034 12.299 4.031 30.246 9.913 53.404 7.983 34.322-2.86 64.357-14.3 80.088-25.74 8.79-6.393 17.134-15.02 23.534-21.636 5.053-5.223 8.894-9.194 10.786-9.825 4.291-1.43-32.89 48.621-50.051 57.201l-3.024 1.517c-16.003 8.041-30.964 15.559-48.457 14.213-11.714-.901-25.698-3.505-37.303-5.666-6.813-1.269-12.807-2.385-17.039-2.914a15.5 15.5 0 0 1-2.798-.638c34.92 30.414 67.754 54.964 99.111 52.014l94.06-49.58c20.756-13.319 24.127-18.561 11.64-59.81l-25.486-84.192c-6.236 3.341-14.129 6.778-23.513 10.642-21.619 8.902-26.274 22.328-30.057 33.237-.471 1.358-.928 2.678-1.403 3.944l-.154.409c-4.372 11.665-14.331 38.236-29.877 41.062-12.585 2.289-55.772-7.626-75.792-12.87 9.533-.477 34.321-2.002 57.201-4.29 20.336-2.034 21.152-9.851 21.981-17.797.338-3.23.677-6.481 2.33-9.374 1.46-2.556 3.107-5.764 4.87-9.197 5.138-10.011 11.256-21.929 16.58-25.124 3.665-2.198 8.079-6.275 12.86-10.689v-.001c4.547-4.199 9.426-8.704 14.306-12.19 7.153-5.11 11.799-22.774 13.73-33.62-5.321-10.761-11.238-20.938-16.922-30.715l-.001-.001-.006-.011c-3.079-5.297-6.09-10.476-8.901-15.566-2.792-5.058-8.605-13.83-15.894-24.52 1.585 14.605.225 30.866-.596 35.79-.704 4.221-7.293 6.365-14.827 8.817-7.779 2.532-16.565 5.392-20.924 11.203-3.015 4.021-5.238 7.573-7.214 10.73-5.134 8.207-8.597 13.74-19.957 17.871-6.279 2.283-13.242 6.618-21.162 11.548-11.919 7.419-26.006 16.188-43.189 21.343-22.881 6.864-54.818-6.197-65.782-18.591 7.627 1.907 28.601 5.72 51.481 5.72 26.365 0 63.663-29.165 99.577-57.249l.002-.002.008-.005c3.042-2.38 6.075-4.751 9.091-7.097 21.495-16.718 29.003-33.022 30.618-44.283-2.77-4.044-5.709-8.31-8.741-12.713l-.051-.073-.012-.018-.027-.039v-.001c-16.43-23.851-35.597-51.677-45.802-69.893-11.012 29.131-51.465 88.752-125.178 94.179-73.713 5.428-96.469 3.404-98.634 1.714 2.093 6.09 4.925 13.042 8.289 20.55 9.588 4.493 19.455 8.435 28.238 10.682 8.26 2.114 15.261 4.293 21.557 6.253v.001c21.16 6.587 34.355 10.694 60.601 1.484 34.057-11.952 59.768-20.134 66.019-21.487 5-1.082 22.296-17.912 30.319-26.192-11.46 23.637-43.48 60.318-67.631 62.404-12.314 1.064-23.723 5.307-34.56 9.337-15.731 5.85-30.258 11.253-44.604 5.834-5.969-2.255-11.269-3.836-16.092-5.276-12.902-3.851-22.385-6.681-32.105-18.643 16.099 31.64 36.827 66.754 50.764 88.374Z" clip-rule="evenodd"/><path fill="#D4DB7C" d="M914.242 475.016c-44.182-25.181-93.097 8.674-112.033 28.75.34 8.934 53.495 74.741 84.37 87.421 30.874 12.679 101.402-41.911 102.947-45.674 1.546-3.763-20.057-39.021-75.284-70.497Z"/><path fill="#ACB542" d="M908.413 487.74c-31.647-18.002-66.582 6.023-80.094 20.285.257 6.362 38.39 53.304 60.497 62.383 22.106 9.079 72.468-29.674 73.567-32.35 1.099-2.677-14.412-27.816-53.97-50.318Z"/><path fill="#8C932D" d="M904.668 501.822c-20.792-11.777-43.599 3.685-52.403 12.888.19 4.126 25.326 34.69 39.838 40.65 14.512 5.96 47.376-19.001 48.087-20.733.711-1.732-9.533-18.084-35.522-32.805Z"/><path fill="#617D3B" d="M738.159 734.488c10.187-44.85 44.587-172.272 67.477-231.193-.144 3.536 10.053 21.389 51.995 64.504 41.943 43.116 107.093-2.765 134.425-31.095-14.622 51.529-44.125 160.954-45.164 186.418-1.299 31.829-20.254 77.983-37.313 119.522l-58.76 143.078c-24.262 59.078-29.895 63.238-50.475 65.568l-85.248-2.64c-19.715-18.89-16.619-78.027-11.161-144.827 6.821-83.5 19.657-105.198 34.224-169.335Z"/><path fill="#90B162" fill-rule="evenodd" d="M771.202 609.975c11.649-40.252 24.193-80.321 34.433-106.68-.144 3.536 10.053 21.388 51.995 64.504 41.943 43.116 107.093-2.766 134.425-31.096a3925.116 3925.116 0 0 0-10.986 39.568 339.62 339.62 0 0 1-12.934 7.42c-9.842 5.369-16.045 10.178-21.018 14.033-10.922 8.466-15.907 12.331-40.473 7.418-7.352-1.471-13.676-2.639-19.171-3.654h-.001c-21.224-3.92-30.078-5.555-38.03-13.507-10.01-10.01-40.041-51.481-42.901-58.631-2.86-7.151 4.29 51.481 12.871 61.491 8.58 10.011 15.728 15.73 30.03 21.45 14.303 5.72 37.185 11.44 47.194 8.58 10.008-2.86 35.75-8.58 50.051-4.29 5.91 1.773 15.483-1.094 25.086-5.574-6.092 23.195-12.065 46.877-16.634 66.845-8.341 4.283-18.334 9.384-32.762 11.662-18.113 2.861-37.498 1.907-56.883.954-9.693-.477-19.386-.954-28.919-.954-8.58 11.441 67.211 20.021 70.072 20.021 1.428 0 22.249-5.201 43.956-10.733-2.15 10.722-3.504 19.211-3.712 24.319-.242 5.917-1.093 12.328-2.429 19.113-13.848 2.732-38.561 7.465-56.898 10.497-25.313 4.186-47.556-1.101-87.566-10.61l-3.778-.897c-27.196-6.457-35.61-17.647-42.449-26.74-2.712-3.606-5.175-6.883-8.464-9.404 5.879-23.176 13.825-52.831 22.461-83.146 2.721 4.174 5.663 7.408 8.744 8.949 7.596 3.798 11.157 7.192 14.969 10.825 3.366 3.208 6.927 6.602 13.632 10.625 4.335 2.602 7.094 5.86 9.868 9.138 6.378 7.535 12.844 15.173 38.753 15.173 37.181 0 101.533-34.321 90.093-32.891-4.348.544-13.445 1.5-24.231 2.634-17.598 1.85-39.692 4.173-52.991 5.946-21.451 2.861-32.89-2.86-75.792-28.6-8.467-5.08-14.817-9.659-19.611-13.758Zm-29.035 107.663a992.72 992.72 0 0 0-4.009 16.85c-4.387 19.315-8.617 34.781-12.573 49.245a3039.55 3039.55 0 0 0-2.957 10.868c3.558 2.809 9.238 4.364 22.425 2.166 20.592-3.432 33.367-5.243 37.181-5.72-17.161 8.58-53.198 25.455-60.062 24.311a44.385 44.385 0 0 1-4.622-1.04c-4.707 19.468-8.768 40.808-11.9 70.927 4.226 1.976 9.209 4.394 15.091 7.335 47.841 23.92 73.53 18.766 87.965 15.87l.697-.14c14.301-2.86 40.041-8.58 48.621-15.73 6.865-5.72 25.741-25.264 34.321-34.321-8.58 20.974-31.746 63.207-55.771 64.352-11.025.524-25.519 2.013-40.44 3.546h-.002c-25.721 2.642-52.711 5.414-65.381 3.604-11.505-1.644-21.593-5.176-28.093-9.783-.832 11.007-1.549 21.721-2.055 31.987 12.265 1.99 30.161 4.434 55.294 7.866 6.395.873 13.258 1.81 20.617 2.82 51.012 7.002 71.941-2.088 87.743-9.652l45.321-110.355c3.513-8.556 7.108-17.308 10.611-26.09-12.319 1.866-27.451 5.561-36.424 14.534-1.753 1.754-3.036 3.171-4.127 4.376l-.001.001c-6.026 6.657-6.186 6.834-47.353 21.364-38.897 13.728-78.176-11.44-92.953-25.741 1.907 1.43 12.013 4.576 37.181 5.72 20.106.914 34.372-2.844 53.621-7.916 10.871-2.864 23.332-6.147 39.332-9.244 27.931-5.406 46.211-15.353 58.06-21.974 6.599-17.552 12.34-34.748 15.838-50.247-10.235 8.252-30.643 18.251-62.324 18.251-17.586 0-30.831.87-41.658 1.581h-.005c-20.299 1.334-32.093 2.109-48.049-4.458-24.467-10.07-40.779-18.7-45.672-31.647-1.618-4.281-2.735-9.037-3.488-13.516Zm120.047 240.335c-14.743 7.229-36.788 16.451-67.11 26.128-39.717 12.676-73.942-4.61-95.001-19.988-1.292 40.017 1.539 71.647 14.992 84.537l85.248 2.64c20.58-2.33 26.213-6.49 50.475-65.568l11.396-27.749Z" clip-rule="evenodd"/><path fill="#EEF684" d="M693.389 9.626c-53.133-12.082-94.035 40.59-108.234 79.737 2.837 12.644 47.223 52.036 82.987 53.418 35.764 1.383 112.973-46.731 112.973-80.643 0-6.25-21.31-37.41-87.726-52.512Z"/><path fill="#BEC655" d="M686.35 26.553c-35.078-8.355-62.291 28.462-71.808 55.8 1.832 8.82 47.775 25.767 71.409 26.68 23.634.914 63.043-42.126 63.44-46.486.397-4.36-19.193-25.55-63.041-35.994Z"/><path fill="#929A2D" d="M685.189 40.365c-23.541-5.843-41.933 20.14-48.409 39.42 1.204 6.214 32.018 18.099 47.892 18.713 15.875.613 42.479-29.772 42.759-32.845.28-3.073-12.817-17.983-42.242-25.288Z"/><path fill="#A3DA57" d="M584.57 582.67c-3.166-87.645-5.878-380.361.002-501.874.945 6.47.125-10.867 53.912 42.92 37.558 37.557 118.014-3.353 142.325-69.135.556 102.653 13.827 321.201 20.634 367.784 8.508 58.228 2.821 154.097-2.298 240.379l-17.631 297.194c-7.28 122.712-3.531 97.352-14.261 102.722l-166.257-16.1c-26.679-20.82-10.8-21.46 0-135.814 14.683-155.474-11.899-202.739-16.426-328.076Z"/><path fill="#7BBB22" fill-rule="evenodd" d="M581.348 379.913c-.141-23.186-.226-46.929-.24-70.6 2.017 3.029 3.818 5.904 5.202 8.394 5.792 10.427 23.785 16.159 34.211 19.481 2.444.778 4.472 1.425 5.83 1.968 4.228 1.691 14.457 1.382 32.165.847h.008c12.237-.37 28.044-.847 47.909-.847 29.81 0 62.643-27.438 84.082-50.771 3.109 49.962 6.447 94.039 9.173 119.574-19.813 12.393-53.362 32.376-110.405 31.299-57.737-1.089-71.65-8.317-71.614-12.298.034-.195.07-.386.107-.573a1.678 1.678 0 0 0-.107.573c-1.692 9.748 1.178 29.261 25.852 33.747 31.461 5.721 94.378-10.01 98.668-11.44 3.023-1.007 37.986-18.34 58.384-33.496.3 2.474.59 4.677.87 6.59 2.483 16.989 3.757 37.182 4.189 59.407-3.244 3.281-7.202 7.639-11.959 13.262-8.356 9.875-62.777 14.436-109.615 18.361h-.003l-.002.001h-.004c-18.039 1.512-34.952 2.929-47.675 4.52-33.754 4.22-47.281-11.793-53.776-21.058-.513-32.351-.934-69.584-1.197-108.633 7.128 10.965 16.422 22.936 23.505 25.297 11.309 3.769 32.554 2.018 50.155.568 2.43-.2 4.791-.395 7.046-.568 14.873-1.144 43.378-29.078 55.772-42.901-.953.476-10.007 4.863-38.606 18.591-29.503 14.163-78.491.079-97.925-9.295Zm1.442 128.549c.532 30.933 1.147 56.672 1.78 74.204l.091 2.437c17.287 5.728 44.523 12.272 55.743 7.171a4168.608 4168.608 0 0 1 28.601-12.872c-14.777 17.16-50.623 47.191-75.792 30.031a145.708 145.708 0 0 1-7.636-5.555c2.133 36.169 6.024 65.902 9.796 94.721v.004c1.16 8.86 2.308 17.634 3.39 26.482 9.528 2.314 19.076 4.971 28.478 7.588 38.319 10.663 74.209 20.651 96.363 4.033 22.879-17.161 42.897-27.172 50.046-30.032-9.057 13.824-30.317 42.615-42.901 47.191-15.73 5.72-81.512 11.44-102.963 5.72-11.69-3.117-21.389-13.932-27.741-23.675 1.714 15.016 3.18 30.427 4.138 46.993 6.567 3.061 14.547 8.622 22.173 18.156 17.159 21.45 77.211 8.583 117.255.003l.014-.003c22.837-4.893 39.275-16.861 48.903-26.784l6.617-111.534.562-9.484c-24.016 14.229-56.04 31.335-86.147 42.524-46.05 17.114-80.145-34.401-91.436-62.298 2.18 1.725 10.749 8.313 27.581 20.872 21.041 15.698 61.849 12.328 103.763.448 27.952-7.923 42.157-19.095 47.665-26.012 2.559-44.865 4.768-90.63 4.669-131.032-6.713 8.706-15.338 17.121-23.57 20.153-21.417 7.889-79.266 15.78-106.306 19.468-7.263.991-12.303 1.678-13.817 1.981-7.15 1.43-61.491 1.433-74.362-21.449-1.994-3.546-3.627-6.684-4.957-9.45Zm209.287 273.429c-16.933 22.974-52.596 44.365-68.478 47.768-20.026 4.29-78.652 11.44-97.243 0-7.625-4.693-15.075-14.348-21.232-24.378.61 23.181.158 48.91-1.937 78.892 22.76 14.653 97.423 58.958 134.814 32.781 25.042-17.532 40.401-28.754 48.113-34.561l5.963-100.502Zm-6.48 109.22c-5.65 10.842-14.394 23.707-25.064 29.818-19.383 11.102-65.193 32.063-89.548 21.958-20.76-8.614-54.883-31.19-68.302-51.827a1112.6 1112.6 0 0 1-1.687 19.682c-3.709 39.278-8.018 65.14-10.995 83.012-5.692 34.156-6.52 39.136 10.995 52.806l166.257 16.09c1.836-.92 3.248-.93 4.364-.95.669-.01 1.232-.01 1.716-.21 2.556-1.06 2.908-7.46 5.122-47.72.409-7.43.881-16.017 1.443-25.939-9.278 5.142-19.69 10.732-29.129 14.859-22.88 10.01-38.611 10.01-61.491 10.01-18.305 0-52.435-25.738-67.212-38.608 5.244 1.906 18.591 6.578 30.031 10.01 14.3 4.29 61.491 2.86 104.393-4.29 8.694-1.449 16.838-4.092 24.292-7.416.231-3.974.475-8.126.732-12.462l4.083-68.823ZM582.019 296.255l-.911-.587c.018-30.749.159-61.169.455-89.87 18.251 1.638 41.99 3.224 63.389 3.224 33.177 0 66.259-34.321 78.652-51.481-16.207 8.58-57.487 26.885-92.952 31.461-16.373 2.112-33.332-1.822-48.786-8.13.549-38.904 1.423-73.567 2.706-100.08.254 1.742.381 1.759 1.479 1.902 2.982.388 13.125 1.71 52.434 41.018 37.557 37.558 116.583-3.349 142.324-69.13.202 37.348 2.087 90.036 4.732 144.203-7.42 8.384-14.893 15.36-20.473 17.389-3.825 1.391-8.073 3.711-12.97 6.386-15.243 8.327-36.773 20.088-71.408 17.923-45.761-2.86-67.21-4.29-74.362-8.58-7.852-4.71 65.782 67.21 120.124 25.741 25.956-19.809 46.067-34.825 59.785-44.928a6836.892 6836.892 0 0 0 3.692 66.136l-7.704 4.532c-5.244 4.29-21.451 14.587-44.331 21.451-25.665 7.699-32.903 8.49-62.016 11.672l-.038.004-.019.002c-3.315.362-6.913.756-10.854 1.194-34.771 3.864-64.909-11.992-78.915-19.361-1.546-.813-2.895-1.523-4.033-2.091Z" clip-rule="evenodd"/><path fill="#EEF684" d="M233.174 283.915c-34.533 17.272-45.168 22.926-41.916 68.769 5.89 13.343 59.106 26.467 82.87 20.933 23.764-5.534 42.767-84.91 41.142-91.889-1.626-6.98-49.919-13.907-82.096 2.187Z"/><path fill="#B7C04C" d="M239.713 293.526c-24.718 11.88-32.334 15.762-30.523 46.259 4.038 8.823 41.695 16.983 58.635 13.039 16.94-3.945 31.303-57.019 30.225-61.65-1.078-4.631-35.306-8.718-58.337 2.352Z"/><path fill="#969F32" d="M242.372 300.705c-17.443 8.344-22.818 11.069-21.583 32.397 2.835 6.166 29.372 11.822 41.321 9.04 11.948-2.783 22.147-39.925 21.393-43.162-.753-3.238-24.879-6.05-41.131 1.725Z"/><path fill="#518011" d="M294.457 708.391c-20.314-62.158-83.031-271.3-104.497-359.501 1.964 4.448.426 7.859 53.929 15.503 37.557 5.365 71.107-32.2 69.75-85.842 21.737 73.422 74.727 240.212 88.865 272.238 17.673 40.032 33.925 109.826 48.552 172.641l50.383 216.362c20.803 89.338 17.968 70.428 12.088 76.388l-111.769 21.26c-21.734-9.65-11.512-13.24-28.279-97.283-22.797-114.265-49.973-142.878-79.022-231.766Z"/><path fill="#669F18" fill-rule="evenodd" d="M243.671 541.907a10180.418 10180.418 0 0 1-11.008-37.652c6.538 1.132 15.316 1.925 22.757 2.598h.001c4.145.374 7.874.711 10.571 1.049 11.44 1.43 31.461-4.291 45.761-10.011 6.035-2.414 7.179-2.382 8.12-2.356 1.289.035 2.195.06 14.764-6.224 18.276-9.138 31.783-23.837 33.998-35.395 14.732 45.011 27.837 83.208 33.87 96.872a256.394 256.394 0 0 1 3.864 9.273c-2.099 3.496-4.435 6.937-7.005 10.163-14.618 18.34-127.346 15.946-129.076 14.899 4.729 3.251 67.623 14.037 75.79 12.871 6.976-.997 23.835-5.522 37.175-9.103 5.803-1.557 10.94-2.936 14.307-3.768 4.69-1.158 9.824-4.479 14.689-9.051 3.95 11.494 7.823 24.205 11.615 37.683-4.798 4.14-10.513 8.5-16.296 11.837-2.681 1.547-5.696 4.049-9.441 7.157l-.001.001c-6.512 5.404-15.232 12.641-28.244 19.876-14.206 7.901-68.207-11.346-100.415-24.445a10621.217 10621.217 0 0 1-24.699-82.552c4.505 4.654 10.63 10.503 15.507 13.754 8.58 5.72 58.63 5.72 70.071 5.72 11.441 0 31.461-15.73 41.472-28.601 8.008-10.296 5.243-32.891 2.86-42.901-1.43 3.337-4.291 10.582-4.291 12.871 0 2.86-12.866 25.74-31.455 40.041-16.428 12.638-79.774-.414-95.261-4.606Zm28.297 94.491a6095.699 6095.699 0 0 0 14.696 47.578c17.376 9.658 75.306 37.224 100.884 26.991 17.052-6.822 41.936-23.884 53.1-31.792-4.695-19.577-9.538-39.013-14.522-57.259-7.387 10.145-17.008 20.678-22.241 25.667-11.801 11.251-30.026 19.825-41.341 18.136-3.43-.512-8.704-1.192-14.662-1.96h-.004l-.003-.001c-13.697-1.765-31.008-3.995-37.837-5.728-4.326-1.098-22.137-11.528-38.07-21.632Zm22.489 71.993c-1.63-4.987-3.532-10.92-5.665-17.661 5.174 5.838 12.142 11.906 18.674 14.518 14.3 5.719 51.481 17.159 64.352 20.019 12.87 2.86 30.03-4.29 37.18-10.01.387-.309.879-.698 1.463-1.159l.01-.007c6.315-4.985 23.245-18.349 31.379-29.888a7058.205 7058.205 0 0 1 8.231 35.035c-6.831 8.569-31.607 34.074-63.963 30.341-29.746-3.432-59.107-8.58-68.642-14.3 10.487 12.87 40.613 27.169 65.782 27.169 31.461 0 50.127-11.787 58.631-18.59 3.369-2.696 7.479-7.19 11.133-11.988l14.68 63.042c-5.082 9.759-13.542 21.402-24.383 24.738-14.872 4.576-41.471 3.813-52.911 2.86l-21.451-2.86c9.534 5.243 33.463 15.73 52.912 15.73 24.31 0 41.471-7.15 45.761-11.44 1.426-1.426 3.231-4.383 5.024-7.763l13.984 60.053-1.845 2.051c-5.72 8.104-22.595 27.457-44.331 40.041-19.438 11.254-52.523 6.573-71.234 1.708-3.398-15.194-6.886-28.76-10.456-41.15 8.263 2.814 17.711 5.949 24.486 7.981 10.211 3.064 26.984-1.893 40.947-6.02 5.593-1.652 10.735-3.172 14.824-3.99 11.441-2.288 17.161-20.02 18.591-28.601-.837.168-2.156 1.256-4.315 3.038-3.992 3.294-10.856 8.957-22.85 15.553-23.558 12.954-52.926 6.512-75.337-.158-7.81-25.093-15.989-45.433-24.458-65.535 9.971 4.947 22.688 9.162 35.437 8.491 19.282-1.014 24.88-7.79 30.594-14.706 2.338-2.83 4.696-5.683 8.017-8.174 9.153-6.864 10.487-17.161 10.011-21.451l-25.741 25.742c-9.594 9.595-43.035 4.884-61.803 1.865l-.638-1.502-.896-2.108c-10.058-23.657-20.494-48.205-31.184-80.914Zm78.592 229.62c.143.712.287 1.427.43 2.146 3.533 17.705 5.867 31.84 7.555 43.212 11.691 5.999 31.35 14.123 47.985 7.885 18.304-6.864 30.507-17.16 34.321-21.45 1.43 2.86 2.86 9.724-2.86 14.3-7.15 5.72-35.751 20.016-44.331 21.446-8.581 1.43-28.601 0-31.461-5.716a74.742 74.742 0 0 0-1.798-3.311c.249 1.852.482 3.607.703 5.267 3.402 25.59 3.896 29.32 18.165 35.65l111.769-21.26c1.006-1.02 1.923-1.31 2.648-1.54.411-.13.759-.24 1.028-.45 1.517-1.2.463-5.65-6.548-35.228l-.001-.005c-2.063-8.704-4.642-19.584-7.822-33.197-3.295 2.249-6.752 4.716-9.461 6.883-5.774 4.619-16.208 2.711-25.282 1.053l-.002-.001c-2.164-.395-4.25-.777-6.177-1.052-8.008-1.144-18.591-9.057-22.881-12.87 7.627 1.907 26.313 5.434 40.041 4.29 11.461-.955 17.74-7.957 20.333-13.017l-11.217-48.169c-11.048 20.222-27.014 44.078-40.574 48.316-18.765 5.864-56.766 10.766-74.563 6.818Zm-99.901-442.978c-15.769 4.506-34.203.139-44.114-3.318-10.504-36.391-20.444-71.712-28.407-101.437 10.068 8.583 25.11 16.117 39.738 17.87 20.303 2.433 38.838-5.397 50.786-10.444 4.014-1.697 7.285-3.078 9.629-3.651 7.456-1.82 19.525-34.172 20.445-51.075-1.989 4.436-7.782 16.12-15.041 27.373-9.074 14.065-51.487 26.397-66.383 27.401-13.291.896-19.767-2.492-41.214-15.132-3.313-12.505-6.227-23.873-8.627-33.731.108.244.205.483.3.721 1.66 4.113 3.05 7.557 53.629 14.783 37.558 5.365 71.108-32.2 69.751-85.842 9.544 32.238 25.113 82.476 40.773 131.403-.569.805-1.133 1.61-1.696 2.415l-.008.011c-3.602 5.147-7.204 10.294-12.352 15.441-8.582 8.58-42.901 15.729-71.502 12.869-22.881-2.288-43.855-6.674-51.482-8.58 19.544 11.44 63.494 33.176 82.943 28.6 1.944-.457 3.961-.924 6.028-1.402 23.772-5.498 54.033-12.497 54.033-24.338v-6.462a6608.176 6608.176 0 0 0 7.351 22.635c-2.174.987-5.472 3.435-7.353 8.137-1.52 3.798-10.301 5.982-19.488 8.267-8.108 2.017-16.531 4.111-20.554 7.464-8.58 7.15-27.166 14.3-47.185 20.022Z" clip-rule="evenodd"/><path fill="#ACDB7C" d="M526.049 668.975c-56.43-17.349-101.183 9.989-116.506 25.826 2.943 6.724 81.029 54.37 119.051 62.786 38.021 8.416 100.89-35.355 101.53-38.249.641-2.895-33.537-28.677-104.075-50.363Z"/><path fill="#79A44D" d="M521.952 678.291c-38.036-11.168-67.278 3.429-77.146 12.123 2.115 3.903 55.278 32.848 80.833 38.504 25.555 5.657 66.514-17.912 66.876-19.549.363-1.638-23.018-17.119-70.563-31.078Z"/><path fill="#507030" d="M522.931 685.597c-28.268-8.069-49.596 1.1-56.727 6.693 1.628 2.625 41.372 22.747 60.332 26.943 18.959 4.197 48.779-10.717 49.018-11.797.239-1.079-17.288-11.753-52.623-21.839Z"/><path fill="#618430" d="M408.375 840.275c-3.039-28.274-5.528-108.502 1.179-145.475.981 2.241 18.228 13.75 79.368 41.857 61.139 28.107 119.617.164 141.214-17.321.207 32.432 9.452 99.851 9.452 117.467 0 22.996 2.423 49.115-3.343 75.164l-19.861 89.723c-8.2 37.05-13.194 39.59-35.598 40.7L484 1039.18c-28.291-12.33-43.929-49.797-59.386-92.081-19.322-52.856-11.894-66.392-16.239-106.824Z"/></svg>