<svg width="3043" height="429" viewBox="0 0 3043 429" fill="none" xmlns="http://www.w3.org/2000/svg">
<path fill-rule="evenodd" clip-rule="evenodd" d="M0 6.48934V0.484526C112.959 -4.02135 182.944 23.2495 246.32 67.7022C276.678 88.9951 305.502 114.217 336.645 141.47L338.133 142.772C338.816 143.369 339.5 143.968 340.185 144.567C372.759 173.064 408.148 203.815 451.039 235.144C536.439 297.523 673.156 353.282 796.595 373.564C858.308 383.703 916.213 384.891 962.488 373.926C1008.69 362.98 1042.56 340.15 1057.95 302.708C1073.44 265.035 1116.35 225.319 1171.4 189.691C1226.74 153.872 1295.43 121.503 1364 98.9195C1432.49 76.3621 1501.34 63.4063 1556.9 66.8305C1612.3 70.2444 1656.52 90.2126 1671.69 135.587C1699.04 217.398 1779.03 295.565 1866.86 348.796C1910.66 375.341 1956.08 395.481 1997.34 406.692C2038.76 417.948 2075.25 420.003 2101.62 411.292C2157.01 392.993 2190.25 374.643 2228.85 348.108C2242.77 338.535 2257.59 327.744 2274.5 315.438L2274.5 315.433C2304.17 293.829 2340.26 267.553 2389.18 234.995C2418.78 215.289 2444 196.489 2466.89 179.423C2473.65 174.387 2480.2 169.502 2486.6 164.79C2514.58 144.195 2539.79 126.824 2566.07 115.191C2619.37 91.596 2675.96 92.082 2767.89 131.986C2840.21 163.376 2900.74 178.299 2946.93 184.239C2993.27 190.199 3024.81 187.074 3039.28 182.742L3042.72 194.237C3026.02 199.238 2992.61 202.214 2945.4 196.141C2898.02 190.047 2836.39 174.803 2763.11 142.993C2673.04 103.897 2620.13 104.383 2570.93 126.163C2545.96 137.217 2521.67 153.878 2493.71 174.454C2487.41 179.094 2480.92 183.93 2474.21 188.933L2474.21 188.935C2451.28 206.028 2425.73 225.082 2395.82 244.984C2346.9 277.545 2311.58 303.274 2282.19 324.688L2282.19 324.69L2282.18 324.696C2265.18 337.077 2250.17 348.014 2235.65 357.996C2196.25 385.086 2161.99 403.986 2105.38 422.687C2075.75 432.476 2036.55 429.781 1994.19 418.272C1951.67 406.717 1905.22 386.075 1860.64 359.058C1771.72 305.164 1688.96 225.081 1660.31 139.392C1647.48 101.016 1609.76 82.1109 1556.16 78.8077C1502.73 75.5148 1435.51 87.9983 1367.75 110.317C1300.07 132.61 1232.32 164.554 1177.92 199.765C1123.22 235.168 1083.06 273.199 1069.05 307.271C1051.69 349.488 1013.74 374.114 965.255 385.603C916.841 397.075 857.185 395.68 794.649 385.405C669.59 364.857 531.061 308.455 443.961 244.834C400.602 213.164 364.866 182.102 332.284 153.599C331.171 152.625 330.061 151.654 328.955 150.687C297.633 123.279 269.247 98.4408 239.43 77.5265C178.102 34.5109 110.641 8.03887 0.241415 12.4845L0 6.48934Z" fill="url(#paint0_linear_2069_768)"/>
<defs>
<linearGradient id="paint0_linear_2069_768" x1="151" y1="14.9995" x2="3157" y2="347.999" gradientUnits="userSpaceOnUse">
<stop offset="0.0707335" stop-color="#D376FF"/>
<stop offset="0.488886" stop-color="#3F0075"/>
<stop offset="1" stop-color="#388DB2"/>
</linearGradient>
</defs>
</svg>
