<svg width="636" height="636" viewBox="0 0 636 636" fill="none" xmlns="http://www.w3.org/2000/svg">
<circle cx="318" cy="318" r="318" fill="#30A9DF"/>
<path d="M309.082 57.0141C325.082 24.0141 417.582 47.5141 437.582 57.0141C471.082 83.0141 541.782 140.814 556.582 164.014C575.082 193.014 628.082 314.014 556.582 314.014C485.082 314.014 437.582 230.514 428.082 220.014C418.582 209.514 379.082 200.014 355.582 193.514C332.082 187.014 322.582 155.014 309.082 126.014C295.582 97.0142 293.082 90.0141 309.082 57.0141Z" fill="url(#paint0_linear_2094_92)"/>
<path d="M174.507 245.5C185.007 228 188.507 208.5 208.007 205C212.174 205 224.807 208.5 242.007 222.5C263.507 240 270.007 245.5 252.507 304C235.007 362.5 208.007 334 174.507 304C141.007 274 164.007 263 174.507 245.5Z" fill="url(#paint1_linear_2094_92)"/>
<path d="M400.79 268.097C406.061 259.413 407.818 249.737 417.609 248C419.7 248 426.043 249.737 434.678 256.684C445.473 265.367 448.736 268.097 439.95 297.125C431.164 326.153 417.609 312.011 400.79 297.125C383.971 282.239 395.518 276.78 400.79 268.097Z" fill="url(#paint2_linear_2094_92)"/>
<path d="M271.79 286.098C277.061 277.414 286.21 274.737 296 273C298.092 273 323.365 218.555 332 225.501C342.794 234.185 340.786 236.973 332 266.001C323.214 295.03 288.609 330.013 271.79 315.126C254.971 300.24 266.518 294.782 271.79 286.098Z" fill="#1A7586"/>
<path d="M372.836 504.371C365.416 497.432 340.617 475.657 330.836 473.871C328.875 473.141 276.665 444.412 270.994 434.89C263.906 422.988 266.76 421.075 285.117 396.932C303.474 372.79 348.106 352.07 358.678 371.887C369.25 391.703 411.116 540.168 372.836 504.371Z" fill="url(#paint3_linear_2094_92)"/>
<path d="M165.23 159.5C205.975 137.533 197.44 74.7367 207.23 73C209.322 73 270.094 79.1653 278.73 86.1123C289.524 94.796 287.516 97.5837 278.73 126.612C269.944 155.64 238.874 166.242 218.519 175.737C192.23 188 135.941 175.291 165.23 159.5Z" fill="url(#paint4_linear_2094_92)"/>
<path d="M400.641 241C390.141 239 388.141 230.5 400.641 225C401.475 225 403.841 225.5 406.641 227.5C410.141 230 414.641 225 417.641 231C420.041 235.8 407.308 239.667 400.641 241Z" fill="#1F8DB1"/>
<path d="M315.112 313.588C312.927 311.118 314.058 308.636 318.161 309.625C318.365 309.782 318.848 310.351 319.152 311.373C319.531 312.651 321.583 312.259 321.173 314.309C320.845 315.949 316.996 314.512 315.112 313.588Z" fill="#1F8DB1"/>
<path d="M357.112 260.588C354.927 258.118 356.058 255.636 360.161 256.625C360.365 256.782 360.848 257.351 361.152 258.373C361.531 259.651 363.583 259.259 363.173 261.309C362.845 262.949 358.996 261.512 357.112 260.588Z" fill="#1A7586"/>
<path d="M236.467 188.422C234.117 184.54 236.296 181.409 241.643 183.71C241.881 183.971 242.395 184.861 242.547 186.328C242.738 188.162 245.64 188.101 244.555 190.809C243.687 192.975 238.801 190.12 236.467 188.422Z" fill="#1F8DB1"/>
<path d="M185.467 191.422C183.117 187.54 185.296 184.409 190.643 186.71C190.881 186.971 191.395 187.861 191.547 189.328C191.738 191.162 194.64 191.101 193.555 193.809C192.687 195.975 187.801 193.12 185.467 191.422Z" fill="#1F8DB1"/>
<path d="M149.467 322.422C147.117 318.54 149.296 315.409 154.643 317.71C154.881 317.971 155.395 318.861 155.547 320.328C155.738 322.162 158.64 322.101 157.555 324.809C156.687 326.975 151.801 324.12 149.467 322.422Z" fill="#1F8DB1"/>
<path d="M267.241 171.534C268.412 175.919 265.444 178.315 260.953 174.61C260.798 174.292 254.736 172.985 255 171.534C255.33 169.72 258.344 169.277 260.143 166.98C261.583 165.143 265.475 169.251 267.241 171.534Z" fill="#1F8DB1"/>
<path d="M246.195 198.589C247.366 202.974 244.398 205.37 239.907 201.665C239.752 201.348 233.69 200.041 233.954 198.589C234.285 196.776 237.299 196.332 239.098 194.035C240.537 192.198 244.429 196.306 246.195 198.589Z" fill="#1A7687"/>
<path d="M290.21 129.251C294.432 130.915 294.595 134.726 288.947 136.136C288.599 136.072 283.945 140.171 282.935 139.096C281.673 137.753 283.107 135.065 282.329 132.253C281.707 130.004 287.324 129.315 290.21 129.251Z" fill="#1A7687"/>
<path d="M281.195 170.589C282.366 174.974 279.398 177.37 274.907 173.665C274.752 173.348 268.69 172.041 268.954 170.589C269.285 168.776 272.299 168.332 274.098 166.035C275.537 164.198 279.429 168.306 281.195 170.589Z" fill="#1A7687"/>
<path d="M369.195 226.589C370.366 230.974 367.398 233.37 362.907 229.665C362.752 229.348 356.69 228.041 356.954 226.589C357.285 224.776 360.299 224.332 362.098 222.035C363.537 220.198 367.429 224.306 369.195 226.589Z" fill="#1A7687"/>
<path d="M406.195 219.589C407.366 223.974 404.398 226.37 399.907 222.665C399.752 222.348 393.69 221.041 393.954 219.589C394.285 217.776 395.201 213.296 397 211C398.439 209.163 404.429 217.306 406.195 219.589Z" fill="#1A7687"/>
<path d="M253.17 445.626C254.34 450.01 251.372 452.406 246.882 448.702C246.726 448.384 240.664 447.077 240.929 445.626C241.259 443.812 242.175 439.333 243.974 437.036C245.414 435.2 251.403 443.342 253.17 445.626Z" fill="#1A7687"/>
<path d="M376.404 250.831C380.668 252.384 380.931 256.189 375.321 257.746C374.972 257.692 370.427 261.91 369.389 260.862C368.092 259.552 364.946 256.234 364.096 253.443C363.415 251.211 373.521 250.969 376.404 250.831Z" fill="#1A7687"/>
<path d="M374.641 225C364.141 223 362.141 214.5 374.641 209C375.475 209 379.2 204.5 382 206.5C385.5 209 388.641 209 391.641 215C394.041 219.8 381.308 223.667 374.641 225Z" fill="#1F8DB1"/>
<path d="M309.641 209C299.141 207 297.141 198.5 309.641 193C310.475 193 312.841 193.5 315.641 195.5C319.141 198 323.641 193 326.641 199C329.041 203.8 316.308 207.667 309.641 209Z" fill="#1F8DB1"/>
<path d="M289.404 186.843C293.668 188.397 293.931 192.202 288.321 193.759C287.972 193.704 283.427 197.923 282.389 196.874C281.092 195.564 277.946 192.246 277.096 189.456C276.415 187.224 286.521 186.982 289.404 186.843Z" fill="#1A7687"/>
<path d="M287.641 161.012C277.141 159.012 275.141 150.512 287.641 145.012C288.475 145.012 292.2 140.512 295 142.512C298.5 145.012 301.641 145.012 304.641 151.012C307.041 155.812 294.308 159.679 287.641 161.012Z" fill="#1F8DB1"/>
<path d="M377.705 228.087C388.242 226.295 393.085 233.561 383.292 243.08C382.511 243.371 380.592 248.888 377.27 247.992C373.117 246.872 370.174 247.969 365.267 243.394C361.342 239.735 371.924 231.665 377.705 228.087Z" fill="#1F8DB1"/>
<path d="M356.208 274.018C366.745 272.225 371.588 279.491 361.795 289.01C361.015 289.301 359.095 294.819 355.773 293.923C351.62 292.802 348.677 293.899 343.77 289.325C339.845 285.665 350.427 277.595 356.208 274.018Z" fill="#1F8DB1"/>
<path d="M305.667 173.155C311.731 181.957 307.181 189.41 294.423 184.538C293.83 183.953 288.017 184.536 287.431 181.146C286.698 176.908 284.463 174.7 286.545 168.323C288.21 163.222 299.987 169.419 305.667 173.155Z" fill="#1F8DB1"/>
<path d="M386.759 251.933C395.388 245.626 399.567 242.182 395.054 255.071C394.485 255.68 395.23 261.474 391.857 262.155C387.641 263.006 385.497 265.301 379.064 263.398C373.918 261.875 383.182 257.715 386.759 251.933Z" fill="#1C7E96"/>
<path d="M445.208 370.018C455.745 368.225 460.588 375.491 450.795 385.01C450.015 385.301 448.095 390.819 444.773 389.923C440.62 388.802 437.677 389.899 432.77 385.325C428.845 381.665 439.427 373.595 445.208 370.018Z" fill="#1F8DB1"/>
<path d="M452.759 392.933C461.388 386.626 465.567 383.182 461.054 396.071C460.485 396.68 461.23 402.474 457.857 403.155C453.641 404.006 451.497 406.301 445.064 404.398C439.918 402.875 449.182 398.715 452.759 392.933Z" fill="#1C7E96"/>
<path d="M202.759 186.933C211.388 180.626 215.568 177.182 211.054 190.071C210.485 190.68 211.23 196.474 207.857 197.155C203.641 198.006 201.497 200.301 195.064 198.398C189.918 196.875 199.182 192.715 202.759 186.933Z" fill="#1C7E96"/>
<path d="M320.467 212.422C318.117 208.54 320.296 205.409 325.643 207.71C325.881 207.971 326.395 208.861 326.547 210.328C326.738 212.162 329.64 212.101 328.555 214.809C327.687 216.975 322.801 214.12 320.467 212.422Z" fill="#1F8DB1"/>
<path d="M337.759 207.933C346.388 201.626 350.568 198.182 346.054 211.071C345.485 211.68 346.23 217.474 342.857 218.155C338.641 219.006 336.497 221.301 330.064 219.398C324.918 217.875 334.182 213.715 337.759 207.933Z" fill="#1C7E96"/>
<path d="M264.759 181.933C273.388 175.626 277.567 172.182 273.054 185.071C272.485 185.68 273.23 191.474 269.857 192.155C265.641 193.006 263.497 195.301 257.064 193.398C251.918 191.875 261.182 187.715 264.759 181.933Z" fill="#1C7E96"/>
<path d="M223.748 181.439C232.377 175.132 235.815 183.621 231.301 196.51C230.733 197.119 231.478 202.913 228.105 203.594C223.889 204.445 221.745 206.741 215.312 204.837C210.207 203.326 220.012 187.478 223.661 181.58L223.748 181.439Z" fill="#1F8EB2"/>
<path d="M257.822 174.973C266.029 181.821 258.623 187.21 245.025 185.947C244.296 185.543 241.476 182.608 240 179.5C238.155 175.615 232.787 179.148 233.078 172.446C233.312 167.085 251.346 172.901 257.822 174.973Z" fill="#1F8EB2"/>
<path d="M347.262 302.765C348.433 307.149 345.465 309.545 340.974 305.84C340.819 305.523 334.757 304.216 335.021 302.765C335.352 300.951 338.366 300.507 340.165 298.211C341.604 296.374 345.496 300.481 347.262 302.765Z" fill="#1F8DB1"/>
<path d="M361.217 301.82C362.387 306.204 359.419 308.6 354.929 304.895C354.773 304.578 348.711 303.271 348.976 301.82C349.306 300.006 352.32 299.562 354.119 297.266C355.558 295.429 359.45 299.536 361.217 301.82Z" fill="#1A7687"/>
<path d="M321.994 320.775C323.164 325.159 320.197 327.555 315.706 323.851C315.551 323.533 302.534 317.672 302.799 316.221C303.129 314.407 306.201 310.651 312.299 313.186C314.453 314.082 320.228 318.492 321.994 320.775Z" fill="#1A7687"/>
<path d="M344.78 313.164C353.409 306.856 357.589 303.412 353.075 316.301C352.506 316.91 353.251 322.704 349.878 323.385C345.662 324.236 343.518 326.532 337.086 324.628C331.94 323.105 341.203 318.946 344.78 313.164Z" fill="#1C7E96"/>
<path d="M375.321 279.197C377.25 281.872 375.878 284.229 371.893 282.837C371.706 282.661 371.281 282.046 371.081 280.999C370.831 279.691 368.749 279.877 369.361 277.877C369.85 276.278 373.538 278.09 375.321 279.197Z" fill="#1F8DB1"/>
<path d="M410.312 441.657C412.241 444.332 410.869 446.689 406.884 445.297C406.697 445.121 406.272 444.507 406.072 443.46C405.822 442.151 403.74 442.337 404.352 440.338C404.842 438.738 408.529 440.551 410.312 441.657Z" fill="#1F8DB1"/>
<path d="M309.312 136.657C311.241 139.332 309.869 141.689 305.884 140.297C305.697 140.121 305.272 139.507 305.072 138.46C304.822 137.151 302.74 137.337 303.352 135.338C303.842 133.738 307.529 135.551 309.312 136.657Z" fill="#1F8DB1"/>
<path d="M328.275 286.328C327.546 281.849 330.737 279.76 334.838 283.892C334.961 284.224 340.863 286.126 340.456 287.544C339.947 289.316 336.904 289.458 334.886 291.565C333.271 293.25 329.806 288.776 328.275 286.328Z" fill="#1A7687"/>
<path d="M98.1122 329.588C95.9268 327.118 97.0579 324.636 101.161 325.625C101.365 325.782 101.848 326.351 102.152 327.373C102.531 328.651 104.583 328.259 104.173 330.309C103.845 331.949 99.9958 330.512 98.1122 329.588Z" fill="#1A7586"/>
<path d="M116.321 348.197C118.25 350.872 116.878 353.229 112.893 351.837C112.706 351.661 112.281 351.046 112.081 349.999C111.831 348.691 109.749 348.877 110.361 346.877C110.85 345.278 114.538 347.09 116.321 348.197Z" fill="#1F8DB1"/>
<path d="M89.2753 370.299C88.546 365.82 91.7371 363.731 95.8378 367.863C95.9608 368.194 101.863 370.097 101.456 371.514C100.947 373.287 97.9039 373.429 95.8858 375.535C94.2712 377.22 90.8061 372.746 89.2753 370.299Z" fill="#1A7687"/>
<path d="M345.757 276.673C336.545 282.092 332.043 285.104 337.815 272.727C338.441 272.178 338.275 266.338 341.699 265.996C345.979 265.567 348.341 263.496 354.552 266.029C359.521 268.055 349.891 271.275 345.757 276.673Z" fill="#1C7E96"/>
<path d="M337.843 306.204C346.05 313.052 338.644 318.441 325.046 317.178C324.318 316.773 321.498 313.838 320.021 310.73C318.176 306.845 312.808 310.378 313.1 303.677C313.333 298.315 331.368 304.132 337.843 306.204Z" fill="#1F8EB2"/>
<path d="M231.262 421.765C232.433 426.149 229.465 428.545 224.974 424.84C224.819 424.523 218.757 423.216 219.021 421.765C219.352 419.951 222.366 419.507 224.165 417.211C225.604 415.374 229.496 419.481 231.262 421.765Z" fill="#1F8DB1"/>
<path d="M205.994 439.775C207.165 444.159 204.197 446.555 199.706 442.851C199.551 442.533 186.534 436.672 186.799 435.221C187.129 433.407 190.201 429.651 196.299 432.186C198.453 433.082 204.228 437.492 205.994 439.775Z" fill="#1A7687"/>
<path d="M221.843 425.204C230.05 432.052 222.644 437.441 209.046 436.178C208.318 435.773 205.498 432.838 204.021 429.73C202.176 425.845 196.808 429.378 197.1 422.677C197.333 417.315 215.368 423.132 221.843 425.204Z" fill="#1F8EB2"/>
<path d="M496.757 348.673C487.545 354.092 483.043 357.104 488.815 344.727C489.441 344.178 489.275 338.338 492.699 337.996C496.979 337.567 499.341 335.496 505.552 338.029C510.521 340.055 500.891 343.275 496.757 348.673Z" fill="#1C7E96"/>
<path d="M488.843 378.204C497.05 385.052 489.644 390.441 476.046 389.178C475.318 388.773 472.498 385.838 471.021 382.73C469.176 378.845 463.808 382.378 464.1 375.677C464.333 370.315 482.368 376.132 488.843 378.204Z" fill="#1F8EB2"/>
<path d="M351.195 254.589C352.366 258.974 349.398 261.37 344.907 257.665C344.752 257.348 338.69 256.041 338.954 254.589C339.285 252.776 342.299 252.332 344.098 250.035C345.537 248.198 349.429 252.306 351.195 254.589Z" fill="#1F8DB1"/>
<path d="M361.082 212.575C357.341 215.143 354.091 213.146 356.083 207.676C356.33 207.423 355.537 201.273 356.993 201.038C358.814 200.743 360.239 203.436 363.004 204.364C365.216 205.107 362.645 210.148 361.082 212.575Z" fill="#1F8DB1"/>
<path d="M311.999 500.755C304.414 493.224 307.51 485.059 320.948 487.492C321.639 487.958 323.321 489.696 324.523 492.921C326.026 496.951 332.553 495.323 331.684 501.975C330.988 507.296 318.27 503.379 311.999 500.755Z" fill="#1F8DB1"/>
<path d="M352.639 532.493C348.102 532.528 346.525 529.055 351.236 525.635C351.582 525.564 354.365 520.022 355.704 520.642C357.377 521.416 357.053 524.445 358.825 526.761C360.243 528.614 355.292 531.354 352.639 532.493Z" fill="#1F8DB1"/>
<path d="M359.284 241.925C358.469 252.582 349.783 249.677 342.922 237.87C342.829 237.041 343.582 233.042 345.257 230.036C347.351 226.279 341.359 223.957 346.986 220.306C351.488 217.385 357.215 235.449 359.284 241.925Z" fill="#1F8EB2"/>
<path d="M331.994 189.775C333.164 194.159 330.197 196.555 325.706 192.851C325.551 192.533 312.534 186.672 312.799 185.221C313.129 183.407 316.201 179.651 322.299 182.186C324.453 183.082 330.228 187.492 331.994 189.775Z" fill="#1A7687"/>
<path d="M167.994 310.775C169.165 315.159 166.197 317.555 161.706 313.851C161.551 313.533 148.534 307.672 148.799 306.221C149.129 304.407 152.201 300.651 158.299 303.186C160.453 304.082 166.228 308.492 167.994 310.775Z" fill="#1A7687"/>
<path d="M404.914 432.028C399.569 441.284 390.884 440.374 389.806 426.76C390.08 425.973 391.332 423.903 394.142 421.918C397.655 419.436 394.415 413.541 401.068 412.683C406.391 411.998 405.85 425.294 404.914 432.028Z" fill="#1F8DB1"/>
<path d="M413.184 434.043C414.96 423.503 423.416 421.323 429.18 433.703C429.198 434.536 433.776 438.165 431.836 441.007C429.41 444.56 429.477 447.7 423.542 450.827C418.794 453.328 414.658 440.68 413.184 434.043Z" fill="#1F8DB1"/>
<path d="M433 403.116C442.795 407.394 437.192 414.64 423.784 417.231C422.971 417.046 419.443 415.018 417.156 412.447C414.298 409.233 410.132 414.127 408.538 407.611C407.262 402.398 426.204 402.937 433 403.116Z" fill="#1F8EB2"/>
<path d="M394.12 404.592C398.645 404.93 399.931 408.521 394.954 411.542C394.603 411.584 384.784 421.945 383.5 421.218C381.896 420.309 379.36 416.171 383.762 411.248C385.317 409.509 391.382 405.508 394.12 404.592Z" fill="#1A7687"/>
<path d="M323.843 164.204C332.05 171.052 324.644 176.441 311.046 175.178C310.318 174.773 307.498 171.838 306.021 168.73C304.176 164.845 298.808 168.378 299.1 161.677C299.333 156.315 317.368 162.132 323.843 164.204Z" fill="#1C7D93"/>
<path d="M255.912 428.822C248.562 436.583 240.326 433.679 242.442 420.188C242.892 419.486 241.114 413.921 244.309 412.643C248.302 411.046 249.997 408.401 256.667 409.114C262.004 409.684 258.387 422.49 255.912 428.822Z" fill="#1F8DB1"/>
<path d="M207.364 474.91C200.014 482.67 191.778 479.767 193.894 466.275C194.344 465.574 196.042 463.851 199.237 462.573C203.23 460.976 201.449 454.489 208.119 455.201C213.456 455.771 209.839 468.578 207.364 474.91Z" fill="#1F8DB1"/>
<path d="M221.64 450.663C220.986 439.994 220.343 434.617 228.758 445.373C228.963 446.18 234.244 448.68 232.996 451.887C231.438 455.895 232.213 458.939 227.139 463.327C223.08 466.838 224.577 456.794 221.64 450.663Z" fill="#1C7E96"/>
<path d="M177.315 438.779C187.509 435.565 188.049 444.708 179.648 455.475C178.914 455.869 174.922 456.66 171.508 456.225C167.241 455.682 167.319 462.108 161.834 458.246C157.446 455.156 172.076 443.112 177.315 438.779Z" fill="#1C7D93"/>
<path d="M440.21 315.324C444.432 316.988 444.595 320.799 438.947 322.209C438.599 322.145 433.945 326.244 432.935 325.169C431.673 323.825 433.107 321.137 432.329 318.326C431.707 316.077 437.324 315.387 440.21 315.324Z" fill="#1A7687"/>
<path d="M437.641 347.085C427.141 345.085 425.141 336.585 437.641 331.085C438.475 331.085 442.2 326.585 445 328.585C448.5 331.085 451.641 331.085 454.641 337.085C457.041 341.885 444.308 345.752 437.641 347.085Z" fill="#1F8DB1"/>
<path d="M459.312 322.73C461.241 325.405 459.869 327.762 455.884 326.37C455.697 326.194 455.272 325.58 455.072 324.533C454.822 323.224 452.74 323.41 453.352 321.411C453.842 319.811 457.529 321.624 459.312 322.73Z" fill="#1F8DB1"/>
<path d="M155.757 248.6C146.545 254.02 142.043 257.031 147.815 244.654C148.441 244.105 148.275 238.265 151.699 237.923C155.979 237.495 158.341 235.423 164.552 237.956C169.521 239.983 159.891 243.202 155.757 248.6Z" fill="#1C7E96"/>
<path d="M96.6412 247.012C86.1412 245.012 84.1412 236.512 96.6412 231.012C97.4746 231.012 101.2 226.512 104 228.512C107.5 231.012 110.641 231.012 113.641 237.012C116.041 241.812 103.308 245.679 96.6412 247.012Z" fill="#1F8DB1"/>
<path d="M118.312 222.657C120.241 225.332 118.869 227.689 114.884 226.297C114.697 226.121 114.272 225.507 114.072 224.46C113.822 223.151 111.74 223.337 112.352 221.338C112.842 219.738 116.529 221.551 118.312 222.657Z" fill="#1F8DB1"/>
<path d="M248.218 456.324C252.44 457.988 252.603 461.799 246.955 463.209C246.607 463.145 241.954 467.244 240.944 466.169C239.681 464.825 241.115 462.137 240.338 459.326C239.716 457.077 245.332 456.387 248.218 456.324Z" fill="#1A7687"/>
<path d="M267.32 463.73C269.249 466.405 267.878 468.762 263.892 467.37C263.705 467.194 263.281 466.58 263.081 465.533C262.83 464.224 260.749 464.41 261.361 462.411C261.85 460.811 265.538 462.624 267.32 463.73Z" fill="#1F8DB1"/>
<path d="M473.843 350.276C482.05 357.124 474.644 362.513 461.046 361.25C460.318 360.846 457.498 357.911 456.021 354.803C454.176 350.918 448.808 354.451 449.1 347.749C449.333 342.388 467.368 348.204 473.843 350.276Z" fill="#1C7D93"/>
<path d="M126.208 353.018C136.746 351.225 141.588 358.491 131.796 368.01C131.015 368.301 129.095 373.819 125.773 372.923C121.62 371.802 118.677 372.899 113.771 368.325C109.845 364.665 120.427 356.595 126.208 353.018Z" fill="#1F8DB1"/>
<path d="M177.757 331.673C168.545 337.092 164.043 340.104 169.815 327.727C170.441 327.178 170.275 321.338 173.699 320.996C177.979 320.567 180.341 318.496 186.552 321.029C191.521 323.055 181.891 326.275 177.757 331.673Z" fill="#1C7E96"/>
<path d="M114 386.116C123.795 390.394 118.192 397.64 104.784 400.231C103.971 400.046 100.443 398.018 98.1561 395.447C95.2976 392.233 91.1324 397.127 89.5376 390.611C88.2618 385.398 107.204 385.937 114 386.116Z" fill="#1F8EB2"/>
<path d="M154.843 333.276C163.05 340.124 155.644 345.513 142.046 344.25C141.318 343.846 138.498 340.911 137.021 337.803C135.176 333.918 129.808 337.451 130.1 330.749C130.333 325.388 148.368 331.204 154.843 333.276Z" fill="#1C7D93"/>
<path d="M145.654 226C118.127 220.75 112.884 198.438 145.654 184C147.839 184 154.043 185.312 161.384 190.562C170.559 197.125 182.356 184 190.221 199.75C196.513 212.35 163.131 222.5 145.654 226Z" fill="#1F8DB1"/>
<path d="M264.198 359.5C236.671 354.25 264.581 333.438 297.352 319C299.536 319 305.741 320.312 313.081 325.562C322.257 332.125 334.054 319 341.919 334.75C348.211 347.35 281.675 356 264.198 359.5Z" fill="#2094BF"/>
<path d="M143 429.5C93.2087 420 130.702 373.125 189.977 347C193.929 347 205.152 349.375 218.429 358.875C235.026 370.75 256.366 347 270.592 375.5C281.973 398.3 174.613 423.167 143 429.5Z" fill="#1F8DB1"/>
<path d="M246.266 213.147C241.766 201.147 248.766 197.147 275.266 198.147C279.766 198.147 290.766 199.847 298.766 206.647L305.766 232.647C305.766 241.147 290.266 269.147 275.266 271.647C260.266 274.147 270 253.5 270 242.5C270 231.5 250.766 225.147 246.266 213.147Z" fill="#1F8DB1"/>
<path d="M362.586 353.41C353.21 344.673 357.694 337.973 381.863 327.059C385.892 325.054 396.497 321.674 406.689 324.196L424.541 344.352C428.329 351.962 426.931 383.935 414.617 392.858C402.302 401.78 384.133 396.697 379.232 386.849C374.33 377.002 371.962 362.148 362.586 353.41Z" fill="url(#paint5_linear_2094_92)"/>
<path d="M83.8834 281.075C74.5074 272.337 78.9915 265.637 103.16 254.723C107.189 252.718 117.794 249.338 127.986 251.86L145.839 272.017C149.626 279.626 148.228 311.599 135.914 320.522C123.6 329.444 105.431 324.361 100.529 314.514C95.6269 304.666 93.2594 289.812 83.8834 281.075Z" fill="url(#paint6_linear_2094_92)"/>
<defs>
<linearGradient id="paint0_linear_2094_92" x1="437.582" y1="61.0142" x2="445.442" y2="314.014" gradientUnits="userSpaceOnUse">
<stop stop-color="#1A7485"/>
<stop offset="1" stop-color="#24A9E4"/>
</linearGradient>
<linearGradient id="paint1_linear_2094_92" x1="209.783" y1="205" x2="209.783" y2="338.008" gradientUnits="userSpaceOnUse">
<stop stop-color="#1A7586"/>
<stop offset="1" stop-color="#2090B7"/>
</linearGradient>
<linearGradient id="paint2_linear_2094_92" x1="418.5" y1="248" x2="418.5" y2="314" gradientUnits="userSpaceOnUse">
<stop offset="0.315" stop-color="#1A7586"/>
<stop offset="1" stop-color="#219BCA"/>
</linearGradient>
<linearGradient id="paint3_linear_2094_92" x1="362.682" y1="369.592" x2="319.098" y2="486.735" gradientUnits="userSpaceOnUse">
<stop stop-color="#1A7586"/>
<stop offset="1" stop-color="#2093BD"/>
</linearGradient>
<linearGradient id="paint4_linear_2094_92" x1="221.546" y1="180.645" x2="221.546" y2="73" gradientUnits="userSpaceOnUse">
<stop stop-color="#1A7586"/>
<stop offset="0.56" stop-color="#1E88A9"/>
</linearGradient>
<linearGradient id="paint5_linear_2094_92" x1="381.902" y1="326.875" x2="414.864" y2="393.092" gradientUnits="userSpaceOnUse">
<stop stop-color="#1F8DB1"/>
<stop offset="1" stop-color="#24A7E0"/>
</linearGradient>
<linearGradient id="paint6_linear_2094_92" x1="145.88" y1="272.101" x2="89.965" y2="294.368" gradientUnits="userSpaceOnUse">
<stop stop-color="#1F8DB1"/>
<stop offset="1" stop-color="#24A7E0"/>
</linearGradient>
</defs>
</svg>
