<svg xmlns="http://www.w3.org/2000/svg" width="636" height="636" fill="none"><circle cx="318" cy="318" r="318" fill="#30A9DF"/><path fill="url(#a)" d="M309.082 57.014c16-33 108.5-9.5 128.5 0 33.5 26 104.2 83.8 119 107 18.5 29 71.5 150 0 150s-119-83.5-128.5-94-49-20-72.5-26.5-33-38.5-46.5-67.5-16-36 0-69Z"/><path fill="url(#b)" d="M174.507 245.5c10.5-17.5 14-37 33.5-40.5 4.167 0 16.8 3.5 34 17.5 21.5 17.5 28 23 10.5 81.5s-44.5 30-78 0-10.5-41 0-58.5Z"/><path fill="url(#c)" d="M400.79 268.097c5.271-8.684 7.028-18.36 16.819-20.097 2.091 0 8.434 1.737 17.069 8.684 10.795 8.683 14.058 11.413 5.272 40.441-8.786 29.028-22.341 14.886-39.16 0-16.819-14.886-5.272-20.345 0-29.028Z"/><path fill="#1A7586" d="M271.79 286.098c5.271-8.684 14.42-11.361 24.21-13.098 2.092 0 27.365-54.445 36-47.499 10.794 8.684 8.786 11.472 0 40.5-8.786 29.029-43.391 64.012-60.21 49.125-16.819-14.886-5.272-20.344 0-29.028Z"/><path fill="url(#d)" d="M372.836 504.371c-7.42-6.939-32.219-28.714-42-30.5-1.961-.73-54.171-29.459-59.842-38.981-7.088-11.902-4.234-13.815 14.123-37.958 18.357-24.142 62.989-44.862 73.561-25.045 10.572 19.816 52.438 168.281 14.158 132.484Z"/><path fill="url(#e)" d="M165.23 159.5c40.745-21.967 32.21-84.763 42-86.5 2.092 0 62.864 6.165 71.5 13.112 10.794 8.684 8.786 11.472 0 40.5s-39.856 39.63-60.211 49.125C192.23 188 135.941 175.291 165.23 159.5Z"/><path fill="#1F8DB1" d="M400.641 241c-10.5-2-12.5-10.5 0-16 .834 0 3.2.5 6 2.5 3.5 2.5 8-2.5 11 3.5 2.4 4.8-10.333 8.667-17 10ZM315.112 313.588c-2.185-2.47-1.054-4.952 3.049-3.963.204.157.687.726.991 1.748.379 1.278 2.431.886 2.021 2.936-.328 1.64-4.177.203-6.061-.721Z"/><path fill="#1A7586" d="M357.112 260.588c-2.185-2.47-1.054-4.952 3.049-3.963.204.157.687.726.991 1.748.379 1.278 2.431.886 2.021 2.936-.328 1.64-4.177.203-6.061-.721Z"/><path fill="#1F8DB1" d="M236.467 188.422c-2.35-3.882-.171-7.013 5.176-4.712.238.261.752 1.151.904 2.618.191 1.834 3.093 1.773 2.008 4.481-.868 2.166-5.754-.689-8.088-2.387ZM185.467 191.422c-2.35-3.882-.171-7.013 5.176-4.712.238.261.752 1.151.904 2.618.191 1.834 3.093 1.773 2.008 4.481-.868 2.166-5.754-.689-8.088-2.387ZM149.467 322.422c-2.35-3.882-.171-7.013 5.176-4.712.238.261.752 1.151.904 2.618.191 1.834 3.093 1.773 2.008 4.481-.868 2.166-5.754-.689-8.088-2.387ZM267.241 171.534c1.171 4.385-1.797 6.781-6.288 3.076-.155-.318-6.217-1.625-5.953-3.076.33-1.814 3.344-2.257 5.143-4.554 1.44-1.837 5.332 2.271 7.098 4.554Z"/><path fill="#1A7687" d="M246.195 198.589c1.171 4.385-1.797 6.781-6.288 3.076-.155-.317-6.217-1.624-5.953-3.076.331-1.813 3.345-2.257 5.144-4.554 1.439-1.837 5.331 2.271 7.097 4.554ZM290.21 129.251c4.222 1.664 4.385 5.475-1.263 6.885-.348-.064-5.002 4.035-6.012 2.96-1.262-1.343.172-4.031-.606-6.843-.622-2.249 4.995-2.938 7.881-3.002ZM281.195 170.589c1.171 4.385-1.797 6.781-6.288 3.076-.155-.317-6.217-1.624-5.953-3.076.331-1.813 3.345-2.257 5.144-4.554 1.439-1.837 5.331 2.271 7.097 4.554ZM369.195 226.589c1.171 4.385-1.797 6.781-6.288 3.076-.155-.317-6.217-1.624-5.953-3.076.331-1.813 3.345-2.257 5.144-4.554 1.439-1.837 5.331 2.271 7.097 4.554ZM406.195 219.589c1.171 4.385-1.797 6.781-6.288 3.076-.155-.317-6.217-1.624-5.953-3.076.331-1.813 1.247-6.293 3.046-8.589 1.439-1.837 7.429 6.306 9.195 8.589ZM253.17 445.626c1.17 4.384-1.798 6.78-6.288 3.076-.156-.318-6.218-1.625-5.953-3.076.33-1.814 1.246-6.293 3.045-8.59 1.44-1.836 7.429 6.306 9.196 8.59ZM376.404 250.831c4.264 1.553 4.527 5.358-1.083 6.915-.349-.054-4.894 4.164-5.932 3.116-1.297-1.31-4.443-4.628-5.293-7.419-.681-2.232 9.425-2.474 12.308-2.612Z"/><path fill="#1F8DB1" d="M374.641 225c-10.5-2-12.5-10.5 0-16 .834 0 4.559-4.5 7.359-2.5 3.5 2.5 6.641 2.5 9.641 8.5 2.4 4.8-10.333 8.667-17 10ZM309.641 209c-10.5-2-12.5-10.5 0-16 .834 0 3.2.5 6 2.5 3.5 2.5 8-2.5 11 3.5 2.4 4.8-10.333 8.667-17 10Z"/><path fill="#1A7687" d="M289.404 186.843c4.264 1.554 4.527 5.359-1.083 6.916-.349-.055-4.894 4.164-5.932 3.115-1.297-1.31-4.443-4.628-5.293-7.418-.681-2.232 9.425-2.474 12.308-2.613Z"/><path fill="#1F8DB1" d="M287.641 161.012c-10.5-2-12.5-10.5 0-16 .834 0 4.559-4.5 7.359-2.5 3.5 2.5 6.641 2.5 9.641 8.5 2.4 4.8-10.333 8.667-17 10ZM377.705 228.087c10.537-1.792 15.38 5.474 5.587 14.993-.781.291-2.7 5.808-6.022 4.912-4.153-1.12-7.096-.023-12.003-4.598-3.925-3.659 6.657-11.729 12.438-15.307ZM356.208 274.018c10.537-1.793 15.38 5.473 5.587 14.992-.78.291-2.7 5.809-6.022 4.913-4.153-1.121-7.096-.024-12.003-4.598-3.925-3.66 6.657-11.73 12.438-15.307ZM305.667 173.155c6.064 8.802 1.514 16.255-11.244 11.383-.593-.585-6.406-.002-6.992-3.392-.733-4.238-2.968-6.446-.886-12.823 1.665-5.101 13.442 1.096 19.122 4.832Z"/><path fill="#1C7E96" d="M386.759 251.933c8.629-6.307 12.808-9.751 8.295 3.138-.569.609.176 6.403-3.197 7.084-4.216.851-6.36 3.146-12.793 1.243-5.146-1.523 4.118-5.683 7.695-11.465Z"/><path fill="#1F8DB1" d="M445.208 370.018c10.537-1.793 15.38 5.473 5.587 14.992-.78.291-2.7 5.809-6.022 4.913-4.153-1.121-7.096-.024-12.003-4.598-3.925-3.66 6.657-11.73 12.438-15.307Z"/><path fill="#1C7E96" d="M452.759 392.933c8.629-6.307 12.808-9.751 8.295 3.138-.569.609.176 6.403-3.197 7.084-4.216.851-6.36 3.146-12.793 1.243-5.146-1.523 4.118-5.683 7.695-11.465ZM202.759 186.933c8.629-6.307 12.809-9.751 8.295 3.138-.569.609.176 6.403-3.197 7.084-4.216.851-6.36 3.146-12.793 1.243-5.146-1.523 4.118-5.683 7.695-11.465Z"/><path fill="#1F8DB1" d="M320.467 212.422c-2.35-3.882-.171-7.013 5.176-4.712.238.261.752 1.151.904 2.618.191 1.834 3.093 1.773 2.008 4.481-.868 2.166-5.754-.689-8.088-2.387Z"/><path fill="#1C7E96" d="M337.759 207.933c8.629-6.307 12.809-9.751 8.295 3.138-.569.609.176 6.403-3.197 7.084-4.216.851-6.36 3.146-12.793 1.243-5.146-1.523 4.118-5.683 7.695-11.465ZM264.759 181.933c8.629-6.307 12.808-9.751 8.295 3.138-.569.609.176 6.403-3.197 7.084-4.216.851-6.36 3.146-12.793 1.243-5.146-1.523 4.118-5.683 7.695-11.465Z"/><path fill="#1F8EB2" d="M223.748 181.439c8.629-6.307 12.067 2.182 7.553 15.071-.568.609.177 6.403-3.196 7.084-4.216.851-6.36 3.147-12.793 1.243-5.105-1.511 4.7-17.359 8.349-23.257l.087-.141ZM257.822 174.973c8.207 6.848.801 12.237-12.797 10.974-.729-.404-3.549-3.339-5.025-6.447-1.845-3.885-7.213-.352-6.922-7.054.234-5.361 18.268.455 24.744 2.527Z"/><path fill="#1F8DB1" d="M347.262 302.765c1.171 4.384-1.797 6.78-6.288 3.075-.155-.317-6.217-1.624-5.953-3.075.331-1.814 3.345-2.258 5.144-4.554 1.439-1.837 5.331 2.27 7.097 4.554Z"/><path fill="#1A7687" d="M361.217 301.82c1.17 4.384-1.798 6.78-6.288 3.075-.156-.317-6.218-1.624-5.953-3.075.33-1.814 3.344-2.258 5.143-4.554 1.439-1.837 5.331 2.27 7.098 4.554ZM321.994 320.775c1.17 4.384-1.797 6.78-6.288 3.076-.155-.318-13.172-6.179-12.907-7.63.33-1.814 3.402-5.57 9.5-3.035 2.154.896 7.929 5.306 9.695 7.589Z"/><path fill="#1C7E96" d="M344.78 313.164c8.629-6.308 12.809-9.752 8.295 3.137-.569.609.176 6.403-3.197 7.084-4.216.851-6.36 3.147-12.792 1.243-5.146-1.523 4.117-5.682 7.694-11.464Z"/><path fill="#1F8DB1" d="M375.321 279.197c1.929 2.675.557 5.032-3.428 3.64-.187-.176-.612-.791-.812-1.838-.25-1.308-2.332-1.122-1.72-3.122.489-1.599 4.177.213 5.96 1.32ZM410.312 441.657c1.929 2.675.557 5.032-3.428 3.64-.187-.176-.612-.79-.812-1.837-.25-1.309-2.332-1.123-1.72-3.122.49-1.6 4.177.213 5.96 1.319ZM309.312 136.657c1.929 2.675.557 5.032-3.428 3.64-.187-.176-.612-.79-.812-1.837-.25-1.309-2.332-1.123-1.72-3.122.49-1.6 4.177.213 5.96 1.319Z"/><path fill="#1A7687" d="M328.275 286.328c-.729-4.479 2.462-6.568 6.563-2.436.123.332 6.025 2.234 5.618 3.652-.509 1.772-3.552 1.914-5.57 4.021-1.615 1.685-5.08-2.789-6.611-5.237Z"/><path fill="#1A7586" d="M98.112 329.588c-2.185-2.47-1.054-4.952 3.049-3.963.204.157.687.726.991 1.748.379 1.278 2.431.886 2.021 2.936-.328 1.64-4.177.203-6.06-.721Z"/><path fill="#1F8DB1" d="M116.321 348.197c1.929 2.675.557 5.032-3.428 3.64-.187-.176-.612-.791-.812-1.838-.25-1.308-2.332-1.122-1.72-3.122.489-1.599 4.177.213 5.96 1.32Z"/><path fill="#1A7687" d="M89.275 370.299c-.729-4.479 2.462-6.568 6.563-2.436.123.331 6.025 2.234 5.618 3.651-.509 1.773-3.552 1.915-5.57 4.021-1.615 1.685-5.08-2.789-6.61-5.236Z"/><path fill="#1C7E96" d="M345.757 276.673c-9.212 5.419-13.714 8.431-7.942-3.946.626-.549.46-6.389 3.884-6.731 4.28-.429 6.642-2.5 12.853.033 4.969 2.026-4.661 5.246-8.795 10.644Z"/><path fill="#1F8EB2" d="M337.843 306.204c8.207 6.848.801 12.237-12.797 10.974-.728-.405-3.548-3.34-5.025-6.448-1.845-3.885-7.213-.352-6.921-7.053.233-5.362 18.268.455 24.743 2.527Z"/><path fill="#1F8DB1" d="M231.262 421.765c1.171 4.384-1.797 6.78-6.288 3.075-.155-.317-6.217-1.624-5.953-3.075.331-1.814 3.345-2.258 5.144-4.554 1.439-1.837 5.331 2.27 7.097 4.554Z"/><path fill="#1A7687" d="M205.994 439.775c1.171 4.384-1.797 6.78-6.288 3.076-.155-.318-13.172-6.179-12.907-7.63.33-1.814 3.402-5.57 9.5-3.035 2.154.896 7.929 5.306 9.695 7.589Z"/><path fill="#1F8EB2" d="M221.843 425.204c8.207 6.848.801 12.237-12.797 10.974-.728-.405-3.548-3.34-5.025-6.448-1.845-3.885-7.213-.352-6.921-7.053.233-5.362 18.268.455 24.743 2.527Z"/><path fill="#1C7E96" d="M496.757 348.673c-9.212 5.419-13.714 8.431-7.942-3.946.626-.549.46-6.389 3.884-6.731 4.28-.429 6.642-2.5 12.853.033 4.969 2.026-4.661 5.246-8.795 10.644Z"/><path fill="#1F8EB2" d="M488.843 378.204c8.207 6.848.801 12.237-12.797 10.974-.728-.405-3.548-3.34-5.025-6.448-1.845-3.885-7.213-.352-6.921-7.053.233-5.362 18.268.455 24.743 2.527Z"/><path fill="#1F8DB1" d="M351.195 254.589c1.171 4.385-1.797 6.781-6.288 3.076-.155-.317-6.217-1.624-5.953-3.076.331-1.813 3.345-2.257 5.144-4.554 1.439-1.837 5.331 2.271 7.097 4.554ZM361.082 212.575c-3.741 2.568-6.991.571-4.999-4.899.247-.253-.546-6.403.91-6.638 1.821-.295 3.246 2.398 6.011 3.326 2.212.743-.359 5.784-1.922 8.211ZM311.999 500.755c-7.585-7.531-4.489-15.696 8.949-13.263.691.466 2.373 2.204 3.575 5.429 1.503 4.03 8.03 2.402 7.161 9.054-.696 5.321-13.414 1.404-19.685-1.22ZM352.639 532.493c-4.537.035-6.114-3.438-1.403-6.858.346-.071 3.129-5.613 4.468-4.993 1.673.774 1.349 3.803 3.121 6.119 1.418 1.853-3.533 4.593-6.186 5.732Z"/><path fill="#1F8EB2" d="M359.284 241.925c-.815 10.657-9.501 7.752-16.362-4.055-.093-.829.66-4.828 2.335-7.834 2.094-3.757-3.898-6.079 1.729-9.73 4.502-2.921 10.229 15.143 12.298 21.619Z"/><path fill="#1A7687" d="M331.994 189.775c1.17 4.384-1.797 6.78-6.288 3.076-.155-.318-13.172-6.179-12.907-7.63.33-1.814 3.402-5.57 9.5-3.035 2.154.896 7.929 5.306 9.695 7.589ZM167.994 310.775c1.171 4.384-1.797 6.78-6.288 3.076-.155-.318-13.172-6.179-12.907-7.63.33-1.814 3.402-5.57 9.5-3.035 2.154.896 7.929 5.306 9.695 7.589Z"/><path fill="#1F8DB1" d="M404.914 432.028c-5.345 9.256-14.03 8.346-15.108-5.268.274-.787 1.526-2.857 4.336-4.842 3.513-2.482.273-8.377 6.926-9.235 5.323-.685 4.782 12.611 3.846 19.345ZM413.184 434.043c1.776-10.54 10.232-12.72 15.996-.34.018.833 4.596 4.462 2.656 7.304-2.426 3.553-2.359 6.693-8.294 9.82-4.748 2.501-8.884-10.147-10.358-16.784Z"/><path fill="#1F8EB2" d="M433 403.116c9.795 4.278 4.192 11.524-9.216 14.115-.813-.185-4.341-2.213-6.628-4.784-2.858-3.214-7.024 1.68-8.618-4.836-1.276-5.213 17.666-4.674 24.462-4.495Z"/><path fill="#1A7687" d="M394.12 404.592c4.525.338 5.811 3.929.834 6.95-.351.042-10.17 10.403-11.454 9.676-1.604-.909-4.14-5.047.262-9.97 1.555-1.739 7.62-5.74 10.358-6.656Z"/><path fill="#1C7D93" d="M323.843 164.204c8.207 6.848.801 12.237-12.797 10.974-.728-.405-3.548-3.34-5.025-6.448-1.845-3.885-7.213-.352-6.921-7.053.233-5.362 18.268.455 24.743 2.527Z"/><path fill="#1F8DB1" d="M255.912 428.822c-7.35 7.761-15.586 4.857-13.47-8.634.45-.702-1.328-6.267 1.867-7.545 3.993-1.597 5.688-4.242 12.358-3.529 5.337.57 1.72 13.376-.755 19.708ZM207.364 474.91c-7.35 7.76-15.586 4.857-13.47-8.635.45-.701 2.148-2.424 5.343-3.702 3.993-1.597 2.212-8.084 8.882-7.372 5.337.57 1.72 13.377-.755 19.709Z"/><path fill="#1C7E96" d="M221.64 450.663c-.654-10.669-1.297-16.046 7.118-5.29.205.807 5.486 3.307 4.238 6.514-1.558 4.008-.783 7.052-5.857 11.44-4.059 3.511-2.562-6.533-5.499-12.664Z"/><path fill="#1C7D93" d="M177.315 438.779c10.194-3.214 10.734 5.929 2.333 16.696-.734.394-4.726 1.185-8.14.75-4.267-.543-4.189 5.883-9.674 2.021-4.388-3.09 10.242-15.134 15.481-19.467Z"/><path fill="#1A7687" d="M440.21 315.324c4.222 1.664 4.385 5.475-1.263 6.885-.348-.064-5.002 4.035-6.012 2.96-1.262-1.344.172-4.032-.606-6.843-.622-2.249 4.995-2.939 7.881-3.002Z"/><path fill="#1F8DB1" d="M437.641 347.085c-10.5-2-12.5-10.5 0-16 .834 0 4.559-4.5 7.359-2.5 3.5 2.5 6.641 2.5 9.641 8.5 2.4 4.8-10.333 8.667-17 10ZM459.312 322.73c1.929 2.675.557 5.032-3.428 3.64-.187-.176-.612-.79-.812-1.837-.25-1.309-2.332-1.123-1.72-3.122.49-1.6 4.177.213 5.96 1.319Z"/><path fill="#1C7E96" d="M155.757 248.6c-9.212 5.42-13.714 8.431-7.942-3.946.626-.549.46-6.389 3.884-6.731 4.28-.428 6.642-2.5 12.853.033 4.969 2.027-4.661 5.246-8.795 10.644Z"/><path fill="#1F8DB1" d="M96.641 247.012c-10.5-2-12.5-10.5 0-16 .834 0 4.559-4.5 7.359-2.5 3.5 2.5 6.641 2.5 9.641 8.5 2.4 4.8-10.333 8.667-17 10ZM118.312 222.657c1.929 2.675.557 5.032-3.428 3.64-.187-.176-.612-.79-.812-1.837-.25-1.309-2.332-1.123-1.72-3.122.49-1.6 4.177.213 5.96 1.319Z"/><path fill="#1A7687" d="M248.218 456.324c4.222 1.664 4.385 5.475-1.263 6.885-.348-.064-5.001 4.035-6.011 2.96-1.263-1.344.171-4.032-.606-6.843-.622-2.249 4.994-2.939 7.88-3.002Z"/><path fill="#1F8DB1" d="M267.32 463.73c1.929 2.675.558 5.032-3.428 3.64-.187-.176-.611-.79-.811-1.837-.251-1.309-2.332-1.123-1.72-3.122.489-1.6 4.177.213 5.959 1.319Z"/><path fill="#1C7D93" d="M473.843 350.276c8.207 6.848.801 12.237-12.797 10.974-.728-.404-3.548-3.339-5.025-6.447-1.845-3.885-7.213-.352-6.921-7.054.233-5.361 18.268.455 24.743 2.527Z"/><path fill="#1F8DB1" d="M126.208 353.018c10.538-1.793 15.38 5.473 5.588 14.992-.781.291-2.701 5.809-6.023 4.913-4.153-1.121-7.096-.024-12.002-4.598-3.926-3.66 6.656-11.73 12.437-15.307Z"/><path fill="#1C7E96" d="M177.757 331.673c-9.212 5.419-13.714 8.431-7.942-3.946.626-.549.46-6.389 3.884-6.731 4.28-.429 6.642-2.5 12.853.033 4.969 2.026-4.661 5.246-8.795 10.644Z"/><path fill="#1F8EB2" d="M114 386.116c9.795 4.278 4.192 11.524-9.216 14.115-.813-.185-4.341-2.213-6.628-4.784-2.858-3.214-7.024 1.68-8.618-4.836-1.276-5.213 17.666-4.674 24.462-4.495Z"/><path fill="#1C7D93" d="M154.843 333.276c8.207 6.848.801 12.237-12.797 10.974-.728-.404-3.548-3.339-5.025-6.447-1.845-3.885-7.213-.352-6.921-7.054.233-5.361 18.268.455 24.743 2.527Z"/><path fill="#1F8DB1" d="M145.654 226c-27.527-5.25-32.77-27.562 0-42 2.185 0 8.389 1.312 15.73 6.562 9.175 6.563 20.972-6.562 28.837 9.188 6.292 12.6-27.09 22.75-44.567 26.25Z"/><path fill="#2094BF" d="M264.198 359.5c-27.527-5.25.383-26.062 33.154-40.5 2.184 0 8.389 1.312 15.729 6.562 9.176 6.563 20.973-6.562 28.838 9.188 6.292 12.6-60.244 21.25-77.721 24.75Z"/><path fill="#1F8DB1" d="M143 429.5c-49.791-9.5-12.298-56.375 46.977-82.5 3.952 0 15.175 2.375 28.452 11.875C235.026 370.75 256.366 347 270.592 375.5c11.381 22.8-95.979 47.667-127.592 54ZM246.266 213.147c-4.5-12 2.5-16 29-15 4.5 0 15.5 1.7 23.5 8.5l7 26c0 8.5-15.5 36.5-30.5 39S270 253.5 270 242.5s-19.234-17.353-23.734-29.353Z"/><path fill="url(#f)" d="M362.586 353.41c-9.376-8.737-4.892-15.437 19.277-26.351 4.029-2.005 14.634-5.385 24.826-2.863l17.852 20.156c3.788 7.61 2.39 39.583-9.924 48.506-12.315 8.922-30.484 3.839-35.385-6.009-4.902-9.847-7.27-24.701-16.646-33.439Z"/><path fill="url(#g)" d="M83.883 281.075c-9.376-8.738-4.891-15.438 19.277-26.352 4.029-2.005 14.634-5.385 24.826-2.863l17.853 20.157c3.787 7.609 2.389 39.582-9.925 48.505-12.314 8.922-30.483 3.839-35.385-6.008-4.902-9.848-7.27-24.702-16.646-33.439Z"/><defs><linearGradient id="a" x1="437.582" x2="445.442" y1="61.014" y2="314.014" gradientUnits="userSpaceOnUse"><stop stop-color="#1A7485"/><stop offset="1" stop-color="#24A9E4"/></linearGradient><linearGradient id="b" x1="209.783" x2="209.783" y1="205" y2="338.008" gradientUnits="userSpaceOnUse"><stop stop-color="#1A7586"/><stop offset="1" stop-color="#2090B7"/></linearGradient><linearGradient id="c" x1="418.5" x2="418.5" y1="248" y2="314" gradientUnits="userSpaceOnUse"><stop offset=".315" stop-color="#1A7586"/><stop offset="1" stop-color="#219BCA"/></linearGradient><linearGradient id="d" x1="362.682" x2="319.098" y1="369.592" y2="486.735" gradientUnits="userSpaceOnUse"><stop stop-color="#1A7586"/><stop offset="1" stop-color="#2093BD"/></linearGradient><linearGradient id="e" x1="221.546" x2="221.546" y1="180.645" y2="73" gradientUnits="userSpaceOnUse"><stop stop-color="#1A7586"/><stop offset=".56" stop-color="#1E88A9"/></linearGradient><linearGradient id="f" x1="381.902" x2="414.864" y1="326.875" y2="393.092" gradientUnits="userSpaceOnUse"><stop stop-color="#1F8DB1"/><stop offset="1" stop-color="#24A7E0"/></linearGradient><linearGradient id="g" x1="145.88" x2="89.965" y1="272.101" y2="294.368" gradientUnits="userSpaceOnUse"><stop stop-color="#1F8DB1"/><stop offset="1" stop-color="#24A7E0"/></linearGradient></defs></svg>