<svg xmlns="http://www.w3.org/2000/svg" width="1920" height="1080"><defs><style>.cls-1,.cls-3{fill:#dfa975;fill-rule:evenodd}.cls-3{fill:#c26c18}</style></defs><path id="Forme_2" d="M1180.96 786.068 1121.53 879s103.91-67.211 105.86-94.791-46.43 1.859-46.43 1.859Z" class="cls-1" data-name="Forme 2"/><path id="Forme_1" d="M1054.67 830.675 982.245 879s100.625-7.209 122.575-39.032-50.15-9.293-50.15-9.293Z" class="cls-1" data-name="Forme 1"/><path id="nageoire_haut" d="M737.105 566.748S616.619 503.091 675.82 371.59s99.078-86.418 70.57-122.67-139.284-87.357-139.284-87.357 95.181-28.473 169 33.456 5.572-29.738 5.572-29.738 147.615 19.047 198.712 94.79 13-22.3 13-22.3 73.232 27.882 156 150.55-102.88-37.126-206.144 11.152-206.141 167.275-206.141 167.275Z" class="cls-1"/><path id="nageoire_bas" d="M724.105 680.125s-57.485 129.133-104 148.692 239.745 57.745 267.426 46.466 26-50.184 26-50.184-85.363-42.353-120.713-72.487-68.713-72.487-68.713-72.487Z" class="cls-1"/><path id="queue" d="M718.533 589.051S558.676 462.278 530.964 486.826s-29.526 90.9-22.286 135.681c-11.687 51.8-26.282 154.46 31.571 137.54s178.284-94.791 178.284-94.791a85.768 85.768 0 0 1-9.285-31.6c-1.47-17.729 9.285-44.605 9.285-44.605Z" class="cls-1"/><path id="corps" d="M698.105 633.659c-.272-47.208 158.416-260.87 328.715-256.493s317.56 213.744 317.56 213.744l42.72 3.717s6.54 27.261 0 33.456-162.84 204.5-339.86 217.461-348.863-164.677-349.135-211.885Z" style="fill:#122245;fill-rule:evenodd"/><path id="Forme_3" d="M857.818 434.784s-14.637 27.1 0 66.911 58.431 52.74 52 94.791-11.142 65.053-11.142 65.053 52.9-53.508 50.142-76.205-29.681-85.9-35.286-113.377 13.2-75.373 11.143-74.346c-33.075 16.552-66.857 37.173-66.857 37.173Z" class="cls-3" data-name="Forme 3"/><path id="Forme_4" d="M777.961 505.413s-16.636 27.4-1.857 52.042 56.541 27.582 44.571 48.324a175.189 175.189 0 0 0-16.714 39.032S861 621.856 857.818 600.2s-38.886-46.616-42.714-66.911 1.857-65.052 1.857-65.052Z" class="cls-3" data-name="Forme 4"/><path id="Forme_5" d="M982.245 379.025c-3.591 3.593-22.119 21-18.571 59.476s23.978 73.035 24.142 94.791-1.857 55.759-1.857 55.759 34.611-68.8 26-92.932-17.914-54.826-9.29-74.346c8.36-18.9 22.29-44.607 22.29-44.607a197.152 197.152 0 0 0-42.714 1.859Z" class="cls-3" data-name="Forme 5"/><circle id="yeux" cx="1260.815" cy="590.907" r="46.435" style="fill:#fff"/><circle id="pupille" cx="1265.455" cy="593.703" r="26.925"/></svg>