<svg xmlns="http://www.w3.org/2000/svg" width="969" height="678" fill="none"><path fill="#511797" d="M337.953 40.257c-4.601 9.201 18.403 89.713 25.304 126.518 90.479-5.367 270.977-17.943 269.137-25.305-2.3-9.201 6.901-46.005-151.822-112.715-158.723-66.71-138.018 2.3-142.619 11.502Z"/><path fill="#9973C7" d="M542.72 95.464c-204.25 0-336.365 158.043-376.891 237.064l-62.513-119.747c-6.08-14.183-94.05 17.7-98.913 158.723-4.863 141.023 98.914 211.63 131.032 216.324 25.391-50.7 34.042-164.121 48.631-139.807 18.237 30.393 145.893 158.043 443.758 188.435 238.292 24.315 326.233-192.488 340.417-303.928-16.21 0-51.063-8.51-60.789-42.55-12.158-42.55-109.42-194.514-364.732-194.514Z"/><path fill="#511797" d="M685.302 254.187c12.881-62.569 55.974-98.148 75.91-108.116-1.533-1.533 2.301-.92 29.905 13.802s85.112 64.409 103.515 98.914c9.201 11.502 23.463 50.608 34.505 59.809 11.041 9.201 29.137 12.269 39.105 13.802l-9.201 52.908-18.403 52.907c-23.003 24.537-72.69 77.752-78.211 85.113-6.901 9.201-50.607 36.805-140.32 0s-52.908-190.928-36.805-269.139Z"/><ellipse cx="34.639" cy="27.847" fill="#fff" rx="34.639" ry="27.847" transform="matrix(.99048 -.13764 .28286 .95916 770.414 285.576)"/><ellipse cx="28.336" cy="20.837" fill="#000" rx="28.336" ry="20.837" transform="matrix(.99205 -.12583 .2599 .96563 782.585 289.487)"/><path fill="#DFC5FF" d="M641.595 518.725c123.298-5.521 249.203-57.508 296.743-82.812 0 39.106-87.413 140.32-110.416 154.122-23.003 13.802-73.413 45.24-151.624 51.758-55.208 4.601-172.525-18.403-301.344-57.508C271.899 553 205.298 475.786 181.528 445.114c21.47 9.969 70.391 32.205 94.314 41.406 29.904 11.502 211.631 39.106 365.753 32.205Z"/><path fill="#511797" d="M55.012 261.087c7.36-18.403 37.571-36.805 50.607-43.706-1.534-3.068-1.445-5.008-4.601-6.901-11.502-6.902-39.106 11.502-52.908 27.604-11.042 12.881-29.905 42.173-34.505 57.509-6.901 13.802-25.512 66.565-2.297 144.92C48.11 564.732 98.717 572.399 135.522 587.735l4.601-9.201 4.6-11.502-18.399-9.202c-3.834-3.067-23.005-21.623-69.012-71.31-57.508-62.109-11.502-202.43-2.3-225.433ZM517.378 419.81c25.764-9.201 19.936-115.016 9.201-167.924-4.601-9.2-7.361-9.202-36.805-18.403-36.805-11.502-92.013 52.908-96.614 55.208-3.681 1.84-102.748 54.441-151.822 80.512 9.201 16.869 46.467 46.466 121.918 29.904 94.313-20.703 121.917 32.205 154.122 20.703Z"/><ellipse cx="751.315" cy="571.127" fill="#511797" rx="29.704" ry="11.972" transform="rotate(174.138 751.315 571.127)"/><ellipse cx="812.89" cy="507.214" fill="#511797" rx="29.704" ry="11.972" transform="rotate(174.138 812.89 507.214)"/><ellipse cx="675.213" cy="589.613" fill="#511797" rx="17.823" ry="6.841" transform="rotate(174.138 675.213 589.613)"/><ellipse cx="632.648" cy="573.879" fill="#511797" rx="17.823" ry="6.841" transform="rotate(174.138 632.648 573.879)"/><ellipse cx="878.756" cy="505.498" fill="#511797" rx="17.823" ry="6.841" transform="rotate(174.138 878.756 505.498)"/><ellipse cx="677.025" cy="544.709" fill="#511797" rx="44.556" ry="13.682" transform="rotate(174.138 677.025 544.709)"/><ellipse cx="716.769" cy="616.293" fill="#511797" rx="44.556" ry="13.682" transform="rotate(174.138 716.769 616.293)"/><ellipse cx="844.151" cy="548.195" fill="#511797" rx="17.823" ry="6.841" transform="rotate(174.138 844.151 548.195)"/><ellipse cx="809.635" cy="575.348" fill="#511797" rx="11.882" ry="6.841" transform="rotate(174.138 809.635 575.348)"/><ellipse cx="785.149" cy="533.591" fill="#511797" rx="11.882" ry="6.841" transform="rotate(174.138 785.149 533.591)"/><ellipse cx="748.627" cy="523.294" fill="#511797" rx="11.882" ry="6.841" transform="rotate(174.138 748.627 523.294)"/><ellipse cx="841.355" cy="520.977" fill="#511797" rx="11.882" ry="3.421" transform="rotate(174.138 841.355 520.977)"/><ellipse cx="514.217" cy="533.932" fill="#511797" rx="11.882" ry="3.421" transform="rotate(174.138 514.217 533.932)"/><ellipse cx="521.212" cy="601.985" fill="#511797" rx="11.882" ry="3.421" transform="rotate(174.138 521.212 601.985)"/><ellipse cx="286.161" cy="522.961" fill="#511797" rx="11.882" ry="3.421" transform="rotate(174.138 286.161 522.961)"/><ellipse cx="463.239" cy="585.426" fill="#511797" rx="29.704" ry="11.972" transform="rotate(174.138 463.239 585.426)"/><ellipse cx="250.078" cy="492.668" fill="#511797" rx="19.363" ry="7.661" transform="rotate(174.138 250.078 492.668)"/><ellipse cx="418.615" cy="530.03" fill="#511797" rx="44.556" ry="13.682" transform="rotate(-172.533 418.615 530.03)"/><ellipse cx="597.802" cy="611.648" fill="#511797" rx="44.556" ry="13.682" transform="rotate(174.138 597.802 611.648)"/><ellipse cx="593.151" cy="546.461" fill="#511797" rx="17.823" ry="6.841" transform="rotate(174.138 593.151 546.461)"/><ellipse cx="624.41" cy="532.495" fill="#511797" rx="11.882" ry="6.841" transform="rotate(174.138 624.41 532.495)"/><ellipse cx="399.516" cy="580.094" fill="#511797" rx="11.882" ry="6.841" transform="rotate(174.138 399.516 580.094)"/><ellipse cx="390.817" cy="553.479" fill="#511797" rx="11.882" ry="6.841" transform="rotate(174.138 390.817 553.479)"/><ellipse cx="348.049" cy="544.115" fill="#511797" rx="11.882" ry="3.421" transform="rotate(174.138 348.049 544.115)"/><ellipse cx="849.491" cy="487.685" fill="#511797" rx="11.882" ry="3.421" transform="rotate(174.138 849.491 487.685)"/><ellipse cx="432.714" cy="554.338" fill="#511797" rx="5.941" ry="1.708" transform="rotate(174.138 432.714 554.338)"/><ellipse cx="546.738" cy="559.822" fill="#511797" rx="5.941" ry="1.708" transform="rotate(174.138 546.738 559.822)"/><ellipse cx="702.055" cy="566.478" fill="#511797" rx="5.941" ry="1.708" transform="rotate(174.138 702.055 566.478)"/><ellipse cx="912.415" cy="462.373" fill="#511797" rx="5.941" ry="1.708" transform="rotate(174.138 912.415 462.373)"/><ellipse cx="331.464" cy="516.112" fill="#511797" rx="26.734" ry="11.972" transform="rotate(174.138 331.464 516.112)"/><ellipse cx="495.808" cy="558.173" fill="#511797" rx="26.734" ry="8.551" transform="rotate(174.138 495.808 558.173)"/><ellipse cx="561.149" cy="535.714" fill="#511797" rx="26.734" ry="8.551" transform="rotate(174.138 561.149 535.714)"/><ellipse cx="884.962" cy="480.394" fill="#511797" rx="11.882" ry="5.131" transform="rotate(174.138 884.962 480.394)"/><ellipse cx="563.958" cy="582.123" fill="#511797" rx="26.734" ry="8.551" transform="rotate(174.138 563.958 582.123)"/></svg>