<svg xmlns="http://www.w3.org/2000/svg" width="1447" height="1267" fill="none"><path fill="#000F92" d="m879.42 274.843-525.46-20.424c-7.256 4.018-68.42-21.587-85.665 36.825-21.652 73.337 5.033 60.399 32.1 96.865 9.307 12.538-43.677-17.364-87.256-66.646-7.733-8.746-13.078-6.76-63.099 102.036-50.02 108.797-15.442 205.217 8.1 239.827l123.72-43.979c-74.219 61.763-114.12 156.662-29.331 217.06 84.788 60.399 290.912 95.126 383.375 104.94 95.957-3.951 274.544-19.157 326.62-35.743 65.096-20.732 90.426-22.683 94.966-23.418 6.41-1.036 153.28-50.604 246.8-67.868 19.25-3.857 19.43-17.797 13.8-25.304-13.8-18.403-20.7-4.601-32.21-13.802-4.6-11.502-11.26-14.862-23-30.512-13.8-18.403-20.7 4.817-50.61-8.594-37.84-16.969-51.33 37.324-106.92 8.594-55.58-28.73 29.26-122.546 17.21-144.313-17.14-52.015-36.34-172.56-93.12-235.052-56.772-62.491-123.669-86.366-150.02-90.492Z"/><path fill="#06002D" d="M664.795 685.499c-128.819-36.805-216.231-52.141-239.235-52.908-15.335 19.937-36.805 80.972-36.805 147.222 0 82.812 34.505 94.313 64.409 117.317l.539.415c29.398 22.617 32.514 25.014 171.986 45.591 112.256 16.563 354.251-39.872 425.561-62.109-6.13-10.734-72.69-24.383-87.412-48.307-14.722-23.923-31.438-86.645-34.505-115.016-34.505 4.6-135.72 4.6-264.538-32.205Z"/><path fill="#FFD6A6" d="m308.241 250.736 280.807 13.802c-5.368 14.569-108.118 54.288-108.118 105.816 0 64.409 2.302 172.524-18.401 209.33-15.172 26.973-75.913 121.917-71.312 220.832 3.68 79.131 87.412 115.783 128.818 124.218-12.268.766-65.329-6.901-179.426-43.707-142.62-46.006-135.118-92.309-138.018-124.218-2.3-25.303 19.935-71.31 34.504-92.013 78.211-92.013 63.029-58.428 94.313-98.914 39.106-50.608 40.565-74.434 32.205-98.915-7.01-20.527-42.098-55.917-61.268-70.486l-.303-.238c-10.995-8.636-41.075-32.262-46.545-74.196-5.521-42.327 32.041-68.244 52.744-71.311ZM960.808 517.575c19.843-33.125 90.722-52.141 120.342-57.508 20.67 48.307 45.01 154.122 57.41 177.125 15.71 29.124 14.47 25.304 33.08 46.007 18.6 20.703 183.95 89.713 183.95 101.215 0 11.501-18.6 9.201-22.73 13.802-3.51 3.903 8.95 3.067 14.47 2.3 4.13-1.534 14.46-1.38 14.46 2.3 0 3.681-4.13 7.668-6.2 9.202l-45.47 13.802-57.87 11.501-265.41 64.41c-2.066-3.834-12.803-27.144-26.032-52.908-16.535-32.205-45.474-149.522-33.071-234.634 6.749-46.313 8.268-55.208 33.071-96.614Z"/><ellipse cx="1068.94" cy="620.94" fill="#fff" rx="35.005" ry="39.699" transform="rotate(-11.444 1068.94 620.94)"/><ellipse cx="1074.25" cy="621.091" fill="#000" rx="16.102" ry="18.403" transform="rotate(-10.468 1074.25 621.091)"/><path fill="#000227" d="m152.044 653.564 15.613-9.358 2.38 3.902-15.612 9.358z"/><path fill="#000227" d="m152.044 653.564 15.613-9.358 2.38 3.902-15.612 9.358z"/><path fill="#000227" d="m152.044 653.564 15.613-9.358 2.38 3.902-15.612 9.358z"/><path fill="#000227" d="m152.044 653.564 15.613-9.358 2.38 3.902-15.612 9.358zM147.259 643.833l17.04-8.07 1.984 4.115-17.04 8.07z"/><path fill="#000227" d="m147.259 643.833 17.04-8.07 1.984 4.115-17.04 8.07z"/><path fill="#000227" d="m147.259 643.833 17.04-8.07 1.984 4.115-17.04 8.07z"/><path fill="#000227" d="m147.259 643.833 17.04-8.07 1.984 4.115-17.04 8.07zM142.816 634.346l17.687-8.376 1.983 4.115-17.687 8.376z"/><path fill="#000227" d="m142.816 634.346 17.687-8.376 1.983 4.115-17.687 8.376z"/><path fill="#000227" d="m142.816 634.346 17.687-8.376 1.983 4.115-17.687 8.376z"/><path fill="#000227" d="m142.816 634.346 17.687-8.376 1.983 4.115-17.687 8.376zM138.956 624.527l17.968-7.18 1.72 4.23-17.968 7.18z"/><path fill="#000227" d="m138.956 624.527 17.968-7.18 1.72 4.23-17.968 7.18z"/><path fill="#000227" d="m138.956 624.527 17.968-7.18 1.72 4.23-17.968 7.18z"/><path fill="#000227" d="m138.956 624.527 17.968-7.18 1.72 4.23-17.968 7.18zM135.475 613.926l20.03-6.827 1.497 4.313-20.03 6.827z"/><path fill="#000227" d="m135.475 613.926 20.03-6.827 1.497 4.313-20.03 6.827z"/><path fill="#000227" d="m135.475 613.926 20.03-6.827 1.497 4.313-20.03 6.827z"/><path fill="#000227" d="m135.475 613.926 20.03-6.827 1.497 4.313-20.03 6.827zM152.115 420.366l26.39 10.503-1.714 4.232-26.39-10.503z"/><path fill="#000227" d="m152.115 420.366 26.39 10.503-1.714 4.232-26.39-10.503z"/><path fill="#000227" d="m152.115 420.366 26.39 10.503-1.714 4.232-26.39-10.503z"/><path fill="#000227" d="m152.115 420.366 26.39 10.503-1.714 4.232-26.39-10.503zM131.214 597.889l22.886-4.471.89 4.474-22.886 4.471z"/><path fill="#000227" d="m131.214 597.889 22.886-4.471.89 4.474-22.886 4.471z"/><path fill="#000227" d="m131.214 597.889 22.886-4.471.89 4.474-22.886 4.471z"/><path fill="#000227" d="m131.214 597.889 22.886-4.471.89 4.474-22.886 4.471zM128.16 583.907l22.003-4.299.89 4.475-22.003 4.298z"/><path fill="#000227" d="m128.16 583.907 22.003-4.299.89 4.475-22.003 4.298z"/><path fill="#000227" d="m128.16 583.907 22.003-4.299.89 4.475-22.003 4.298z"/><path fill="#000227" d="m128.16 583.907 22.003-4.299.89 4.475-22.003 4.298zM126.179 570.193l22.548-3.178.648 4.515-22.548 3.178z"/><path fill="#000227" d="m126.179 570.193 22.548-3.178.648 4.515-22.548 3.178z"/><path fill="#000227" d="m126.179 570.193 22.548-3.178.648 4.515-22.548 3.178z"/><path fill="#000227" d="m126.179 570.193 22.548-3.178.648 4.515-22.548 3.178zM158.352 406.865l21.832 8.274-1.643 4.259-21.832-8.274z"/><path fill="#000227" d="m158.352 406.865 21.832 8.274-1.643 4.259-21.832-8.274z"/><path fill="#000227" d="m158.352 406.865 21.832 8.274-1.643 4.259-21.832-8.274z"/><path fill="#000227" d="m158.352 406.865 21.832 8.274-1.643 4.259-21.832-8.274zM165.09 393.058l20.07 9.493-1.981 4.116-20.07-9.493z"/><path fill="#000227" d="m165.09 393.058 20.07 9.493-1.981 4.116-20.07-9.493z"/><path fill="#000227" d="m165.09 393.058 20.07 9.493-1.981 4.116-20.07-9.493z"/><path fill="#000227" d="m165.09 393.058 20.07 9.493-1.981 4.116-20.07-9.493zM171.695 379.076l21.422 10.132-1.982 4.116-21.421-10.132z"/><path fill="#000227" d="m171.695 379.076 21.422 10.132-1.982 4.116-21.421-10.132z"/><path fill="#000227" d="m171.695 379.076 21.422 10.132-1.982 4.116-21.421-10.132z"/><path fill="#000227" d="m171.695 379.076 21.422 10.132-1.982 4.116-21.421-10.132zM179.777 362.482l19.294 9.126-1.982 4.116-19.293-9.126z"/><path fill="#000227" d="m179.777 362.482 19.294 9.126-1.982 4.116-19.293-9.126z"/><path fill="#000227" d="m179.777 362.482 19.294 9.126-1.982 4.116-19.293-9.126z"/><path fill="#000227" d="m179.777 362.482 19.294 9.126-1.982 4.116-19.293-9.126zM185.326 351.636l20.816 9.846-1.982 4.116-20.815-9.846z"/><path fill="#000227" d="m185.326 351.636 20.816 9.846-1.982 4.116-20.815-9.846z"/><path fill="#000227" d="m185.326 351.636 20.816 9.846-1.982 4.116-20.815-9.846z"/><path fill="#000227" d="m185.326 351.636 20.816 9.846-1.982 4.116-20.815-9.846zM192.641 338.551l19.24 10.488-2.217 3.996-19.24-10.488z"/><path fill="#000227" d="m192.641 338.551 19.24 10.488-2.217 3.996-19.24-10.488z"/><path fill="#000227" d="m192.641 338.551 19.24 10.488-2.217 3.996-19.24-10.488z"/><path fill="#000227" d="m192.641 338.551 19.24 10.488-2.217 3.996-19.24-10.488zM199.588 327.505l20.12 13.63-2.595 3.766-20.12-13.631z"/><path fill="#000227" d="m199.588 327.505 20.12 13.63-2.595 3.766-20.12-13.631z"/><path fill="#000227" d="m199.588 327.505 20.12 13.63-2.595 3.766-20.12-13.631z"/><path fill="#000227" d="m199.588 327.505 20.12 13.63-2.595 3.766-20.12-13.631zM206.654 318.504l16.352 13.653-2.96 3.486-16.352-13.653z"/><path fill="#000227" d="m206.654 318.504 16.352 13.653-2.96 3.486-16.352-13.653z"/><path fill="#000227" d="m206.654 318.504 16.352 13.653-2.96 3.486-16.352-13.653z"/><path fill="#000227" d="m206.654 318.504 16.352 13.653-2.96 3.486-16.352-13.653zM125.061 554.389l23.257-1.386.276 4.552-23.257 1.386z"/><path fill="#000227" d="m125.061 554.389 23.257-1.386.276 4.552-23.257 1.386z"/><path fill="#000227" d="m125.061 554.389 23.257-1.386.276 4.552-23.257 1.386z"/><path fill="#000227" d="m125.061 554.389 23.257-1.386.276 4.552-23.257 1.386zM124.215 540.417l24.182-.755.145 4.558-24.182.755z"/><path fill="#000227" d="m124.215 540.417 24.182-.755.145 4.558-24.182.755z"/><path fill="#000227" d="m124.215 540.417 24.182-.755.145 4.558-24.182.755z"/><path fill="#000227" d="m124.215 540.417 24.182-.755.145 4.558-24.182.755zM124.489 526.03l24.835-.01.002 4.56-24.835.01z"/><path fill="#000227" d="m124.489 526.03 24.835-.01.002 4.56-24.835.01z"/><path fill="#000227" d="m124.489 526.03 24.835-.01.002 4.56-24.835.01z"/><path fill="#000227" d="m124.489 526.03 24.835-.01.002 4.56-24.835.01zM125.688 511.249l24.322 1.47-.28 4.552-24.322-1.47z"/><path fill="#000227" d="m125.688 511.249 24.322 1.47-.28 4.552-24.322-1.47z"/><path fill="#000227" d="m125.688 511.249 24.322 1.47-.28 4.552-24.322-1.47z"/><path fill="#000227" d="m125.688 511.249 24.322 1.47-.28 4.552-24.322-1.47zM127.455 497.649l26.852 2.591-.446 4.54-26.852-2.592z"/><path fill="#000227" d="m127.455 497.649 26.852 2.591-.446 4.54-26.852-2.592z"/><path fill="#000227" d="m127.455 497.649 26.852 2.591-.446 4.54-26.852-2.592z"/><path fill="#000227" d="m127.455 497.649 26.852 2.591-.446 4.54-26.852-2.592zM130.253 483.521l26.738 4.768-.814 4.487-26.738-4.767z"/><path fill="#000227" d="m130.253 483.521 26.738 4.768-.814 4.487-26.738-4.767z"/><path fill="#000227" d="m130.253 483.521 26.738 4.768-.814 4.487-26.738-4.767z"/><path fill="#000227" d="m130.253 483.521 26.738 4.768-.814 4.487-26.738-4.767z"/><path fill="#000227" d="m130.253 483.521 26.738 4.768-.814 4.487-26.738-4.767z"/><path fill="#000227" d="m130.253 483.521 26.738 4.768-.814 4.487-26.738-4.767z"/><path fill="#000227" d="m130.253 483.521 26.738 4.768-.814 4.487-26.738-4.767z"/><path fill="#000227" d="m130.253 483.521 26.738 4.768-.814 4.487-26.738-4.767zM139.271 451.27l27.073 7.431-1.228 4.395-27.073-7.431z"/><path fill="#000227" d="m139.271 451.27 27.073 7.431-1.228 4.395-27.073-7.431z"/><path fill="#000227" d="m139.271 451.27 27.073 7.431-1.228 4.395-27.073-7.431z"/><path fill="#000227" d="m139.271 451.27 27.073 7.431-1.228 4.395-27.073-7.431zM146.44 433.271l25.055 10.21-1.75 4.217-25.054-10.21z"/><path fill="#000227" d="m146.44 433.271 25.055 10.21-1.75 4.217-25.054-10.21z"/><path fill="#000227" d="m146.44 433.271 25.055 10.21-1.75 4.217-25.054-10.21z"/><path fill="#000227" d="m146.44 433.271 25.055 10.21-1.75 4.217-25.054-10.21zM134.364 465.781l27.431 5.796-.959 4.46-27.431-5.796z"/><path fill="#000227" d="m134.364 465.781 27.431 5.796-.959 4.46-27.431-5.796z"/><path fill="#000227" d="m134.364 465.781 27.431 5.796-.959 4.46-27.431-5.796z"/><path fill="#000227" d="m134.364 465.781 27.431 5.796-.959 4.46-27.431-5.796z"/><path fill="#F3DAE5" d="M365.258 524.146c29.133-43.526-27.39-104.278-60.772-128.46-20.703-13.68-30.774-18.155-60.653-43.733-28.49-24.389-25.707-27.571-27.604-25.303-15.932 31.737-50.807 87.773-67.194 156.69-16.388 68.916 6.831 152.644 25.039 174.558l106.971-36.271c15.932-13.602 55.08-53.955 84.213-97.481Z"/><path fill="#F3885E" d="m253.877 361.473-25.304-20.521c-14.569 15.961-47.388 69.316-62.111 155.048-14.722 85.732 12.269 139.086 27.604 155.047l18.405-6.84c-7.668-19.001-21.623-74.332-16.102-143.647 5.52-69.315 40.639-121.606 57.508-139.087Z"/><path fill="#F3885E" d="m304.486 395.675-23.004-13.681c-12.351 13.376-38.622 58.09-51.102 129.936-12.48 71.847 3.597 107.501 16.597 120.876l18.403-6.84c-6.5-15.923-14.328-52.126-9.648-110.214 4.68-58.089 34.453-105.427 48.754-120.077Z"/><path fill="#F3885E" d="M276.882 498.28c1.84-58.371 32.971-80.564 48.307-84.364l13.802 13.681c-5.368 3.04-19.783 18.697-34.505 57.002-14.722 38.306-3.067 88.925 4.601 109.446l-25.304 25.081c-3.067-15.961-8.741-62.475-6.901-120.846Z"/><ellipse cx="625.689" cy="319.746" fill="#F3885E" rx="23.003" ry="16.102"/><ellipse cx="593.484" cy="434.763" fill="#F3885E" rx="23.003" ry="16.102"/><ellipse cx="713.103" cy="326.647" fill="#F3885E" rx="13.802" ry="9.201"/><ellipse cx="733.805" cy="368.053" fill="#F3885E" rx="25.304" ry="9.201"/><ellipse cx="650.992" cy="391.057" fill="#F3885E" rx="34.505" ry="18.403"/><ellipse cx="522.174" cy="616.489" fill="#F3885E" rx="34.505" ry="18.403"/><ellipse cx="683.197" cy="285.241" fill="#F3885E" rx="34.505" ry="18.403"/><ellipse cx="579.682" cy="358.852" fill="#F3885E" rx="13.802" ry="9.201"/><circle cx="607.286" cy="280.64" r="9.201" fill="#F3885E"/><circle cx="676.296" cy="349.65" r="9.201" fill="#F3885E"/><ellipse cx="575.081" cy="299.043" fill="#F3885E" rx="9.201" ry="4.601"/><ellipse cx="713.102" cy="404.858" fill="#F3885E" rx="9.201" ry="4.601"/><ellipse cx="579.682" cy="395.657" fill="#F3885E" rx="9.201" ry="4.601"/><ellipse cx="832.719" cy="423.261" fill="#F3885E" rx="9.201" ry="4.601"/><ellipse cx="832.719" cy="331.248" fill="#F3885E" rx="9.201" ry="4.601"/><ellipse cx="1021.35" cy="372.654" fill="#F3885E" rx="9.201" ry="4.601"/><ellipse cx="1007.55" cy="469.268" fill="#F3885E" rx="9.201" ry="4.601"/><ellipse cx="662.494" cy="439.363" fill="#F3885E" rx="4.601" ry="2.3"/><ellipse cx="715.403" cy="448.565" fill="#F3885E" rx="20.703" ry="16.102"/><ellipse cx="531.375" cy="411.759" fill="#F3885E" rx="20.703" ry="11.502"/><ellipse cx="549.778" cy="324.347" fill="#F3885E" rx="20.703" ry="11.502"/><ellipse cx="874.124" cy="347.35" fill="#F3885E" rx="23.003" ry="16.102"/><ellipse cx="800.514" cy="443.964" fill="#F3885E" rx="23.003" ry="16.102"/><ellipse cx="961.537" cy="354.251" fill="#F3885E" rx="13.802" ry="9.201"/><ellipse cx="924.732" cy="335.848" fill="#F3885E" rx="13.802" ry="9.201"/><ellipse cx="982.24" cy="395.657" fill="#F3885E" rx="25.304" ry="9.201"/><ellipse cx="1020.33" cy="434.389" fill="#F3885E" rx="25.304" ry="9.201" transform="rotate(-12.454 1020.33 434.389)"/><ellipse cx="831.07" cy="475.849" fill="#F3885E" rx="25.304" ry="9.201" transform="rotate(-2.82 831.07 475.849)"/><ellipse cx="876.425" cy="441.664" fill="#F3885E" rx="34.505" ry="18.403"/><ellipse cx="784.411" cy="299.043" fill="#F3885E" rx="34.505" ry="18.403"/><ellipse cx="772.911" cy="395.657" fill="#F3885E" rx="13.802" ry="9.201"/><circle cx="855.722" cy="308.245" r="9.201" fill="#F3885E"/><circle cx="924.732" cy="377.255" r="9.201" fill="#F3885E"/><circle cx="1062.75" cy="446.264" r="9.201" fill="#F3885E"/><circle cx="929.332" cy="414.06" r="9.201" fill="#F3885E"/><circle cx="910.93" cy="299.043" r="9.201" fill="#F3885E"/><ellipse cx="961.537" cy="432.462" fill="#F3885E" rx="9.201" ry="4.601"/><ellipse cx="897.128" cy="407.159" fill="#F3885E" rx="4.601" ry="2.3"/><ellipse cx="809.715" cy="384.155" fill="#F3885E" rx="4.601" ry="2.3"/><ellipse cx="529.075" cy="365.753" fill="#F3885E" rx="4.601" ry="2.3"/><ellipse cx="759.109" cy="430.162" fill="#F3885E" rx="4.601" ry="2.3"/><ellipse cx="963.839" cy="476.169" fill="#F3885E" rx="20.703" ry="16.102"/><ellipse cx="848.821" cy="393.357" fill="#F3885E" rx="20.703" ry="11.502"/><ellipse cx="542.877" cy="443.964" fill="#F3885E" rx="9.201" ry="6.901"/><ellipse cx="798.214" cy="351.951" fill="#F3885E" rx="20.703" ry="11.502"/><ellipse cx="819.632" cy="624.342" fill="#F3885E" rx="18.29" ry="16.102" transform="rotate(-176.947 819.632 624.342)"/><ellipse cx="871.894" cy="533.157" fill="#F3885E" rx="18.29" ry="16.102" transform="rotate(-176.947 871.894 533.157)"/><ellipse cx="771.165" cy="636.054" fill="#F3885E" rx="10.974" ry="9.201" transform="rotate(-176.947 771.165 636.054)"/><ellipse cx="747.552" cy="607.86" fill="#F3885E" rx="10.974" ry="9.201" transform="rotate(-176.947 747.552 607.86)"/><ellipse cx="899.304" cy="484.127" fill="#F3885E" rx="20.119" ry="9.201" transform="rotate(-176.947 899.304 484.127)"/><ellipse cx="778.279" cy="576.519" fill="#F3885E" rx="27.434" ry="18.403" transform="rotate(-176.947 778.279 576.519)"/><ellipse cx="792.702" cy="678.668" fill="#F3885E" rx="27.434" ry="18.403" transform="rotate(-176.947 792.702 678.668)"/><ellipse cx="878.808" cy="609.545" fill="#F3885E" rx="10.974" ry="9.201" transform="rotate(-176.947 878.808 609.545)"/><ellipse cx="854.315" cy="639.868" fill="#F3885E" rx="7.316" ry="9.201" transform="rotate(-176.947 854.315 639.868)"/><ellipse cx="845.113" cy="580.06" fill="#F3885E" rx="7.316" ry="9.201" transform="rotate(-176.947 845.113 580.06)"/><ellipse cx="863.271" cy="676.681" fill="#F3885E" rx="7.316" ry="4.601" transform="rotate(-176.947 863.271 676.681)"/><ellipse cx="757.455" cy="478.852" fill="#F3885E" rx="7.316" ry="4.601" transform="rotate(-176.947 757.455 478.852)"/><ellipse cx="880.771" cy="572.793" fill="#F3885E" rx="7.316" ry="4.601" transform="rotate(-176.947 880.771 572.793)"/><ellipse cx="681.337" cy="534.512" fill="#F3885E" rx="7.316" ry="4.601" transform="rotate(-176.947 681.337 534.512)"/><ellipse cx="676.441" cy="626.394" fill="#F3885E" rx="7.316" ry="4.601" transform="rotate(-176.947 676.441 626.394)"/><ellipse cx="528.882" cy="577.059" fill="#F3885E" rx="7.316" ry="4.601" transform="rotate(-176.947 528.882 577.059)"/><ellipse cx="544.988" cy="481.166" fill="#F3885E" rx="7.316" ry="4.601" transform="rotate(-176.947 544.988 481.166)"/><ellipse cx="817.348" cy="525.641" fill="#F3885E" rx="3.658" ry="2.3" transform="rotate(-176.947 817.348 525.641)"/><ellipse cx="775.83" cy="514.212" fill="#F3885E" rx="16.461" ry="16.102" transform="rotate(-176.947 775.83 514.212)"/><ellipse cx="919.98" cy="558.758" fill="#F3885E" rx="16.461" ry="11.502" transform="rotate(-176.947 919.98 558.758)"/><ellipse cx="900.711" cy="645.268" fill="#F3885E" rx="16.461" ry="11.502" transform="rotate(-176.947 900.711 645.268)"/><ellipse cx="644.421" cy="608.56" fill="#F3885E" rx="18.29" ry="16.102" transform="rotate(-176.947 644.421 608.56)"/><ellipse cx="511.388" cy="467.919" fill="#F3885E" rx="18.29" ry="16.102" transform="rotate(-176.947 511.388 467.919)"/><ellipse cx="708.014" cy="515.202" fill="#F3885E" rx="18.29" ry="16.102" transform="rotate(-176.947 708.014 515.202)"/><ellipse cx="575.389" cy="597.967" fill="#F3885E" rx="10.974" ry="9.201" transform="rotate(-176.947 575.389 597.967)"/><ellipse cx="603.627" cy="617.903" fill="#F3885E" rx="10.974" ry="9.201" transform="rotate(-176.947 603.627 617.903)"/><ellipse cx="561.154" cy="555.743" fill="#F3885E" rx="20.119" ry="9.201" transform="rotate(-176.947 561.154 555.743)"/><ellipse cx="20.389" cy="9.122" fill="#F3885E" rx="20.389" ry="9.122" transform="matrix(-.9764 .21593 -.12024 -.99274 553.981 520.106)"/><ellipse cx="20.133" cy="9.197" fill="#F3885E" rx="20.133" ry="9.197" transform="matrix(-.99996 .00859 .01414 -.9999 705.452 491.092)"/><ellipse cx="647.618" cy="514.284" fill="#F3885E" rx="27.434" ry="18.403" transform="rotate(-176.947 647.618 514.284)"/><ellipse cx="506.841" cy="548.915" fill="#F3885E" rx="27.434" ry="18.403" transform="rotate(-176.947 506.841 548.915)"/><ellipse cx="713.074" cy="660.598" fill="#F3885E" rx="27.434" ry="18.403" transform="rotate(-176.947 713.074 660.598)"/><ellipse cx="727.355" cy="564.609" fill="#F3885E" rx="10.974" ry="9.201" transform="rotate(-176.947 727.355 564.609)"/><ellipse cx="656.948" cy="648.389" fill="#F3885E" rx="7.316" ry="9.201" transform="rotate(-176.947 656.948 648.389)"/><ellipse cx="605.833" cy="576.555" fill="#F3885E" rx="7.316" ry="9.201" transform="rotate(-176.947 605.833 576.555)"/><ellipse cx="633.483" cy="469.644" fill="#F3885E" rx="7.316" ry="9.201" transform="rotate(-176.947 633.483 469.644)"/><ellipse cx="499.927" cy="501.799" fill="#F3885E" rx="7.316" ry="9.201" transform="rotate(-176.947 499.927 501.799)"/><ellipse cx="604.144" cy="539.609" fill="#F3885E" rx="7.316" ry="9.201" transform="rotate(-176.947 604.144 539.609)"/><ellipse cx="612.627" cy="655.241" fill="#F3885E" rx="7.316" ry="9.201" transform="rotate(-176.947 612.627 655.241)"/><ellipse cx="579.553" cy="519.867" fill="#F3885E" rx="7.316" ry="4.601" transform="rotate(-176.947 579.553 519.867)"/><ellipse cx="629.344" cy="547.863" fill="#F3885E" rx="3.658" ry="2.3" transform="rotate(-176.947 629.344 547.863)"/><ellipse cx="697.519" cy="574.534" fill="#F3885E" rx="3.658" ry="2.3" transform="rotate(-176.947 697.519 574.534)"/><ellipse cx="790.485" cy="609.781" fill="#F3885E" rx="3.658" ry="2.3" transform="rotate(-176.947 790.485 609.781)"/><ellipse cx="919.355" cy="604.798" fill="#F3885E" rx="3.658" ry="2.3" transform="rotate(-176.947 919.355 604.798)"/><ellipse cx="740.152" cy="530.738" fill="#F3885E" rx="3.658" ry="2.3" transform="rotate(-176.947 740.152 530.738)"/><ellipse cx="580.054" cy="476.126" fill="#F3885E" rx="16.461" ry="16.102" transform="rotate(-176.947 580.054 476.126)"/><ellipse cx="666.963" cy="563.691" fill="#F3885E" rx="16.461" ry="11.502" transform="rotate(-176.947 666.963 563.691)"/><ellipse cx="912.563" cy="526.113" fill="#F3885E" rx="7.316" ry="6.901" transform="rotate(-176.947 912.563 526.113)"/><ellipse cx="704.936" cy="607.182" fill="#F3885E" rx="16.461" ry="11.502" transform="rotate(-176.947 704.936 607.182)"/><path fill="#F3885E" d="M282.938 299.043c1.841-36.805 25.304-47.54 36.806-48.307l36.804 2.301c-19.936 1.533-38.741 13.013-43.705 55.208-4.601 39.105 11.502 60.575 13.802 64.409 16.563 27.604 69.93 57.968 73.611 87.412 4.6 36.806-16.103 82.812-34.507 117.317-14.723 27.604-41.404 75.911-71.309 121.918-8.435 16.102-39.105 60.729-39.105 101.215 0 31.103 16.744 48.358 33.545 58.857 15.39 7.062 16.897 8.386 14.762 7.852-4.621-2.132-9.694-4.685-14.762-7.852-6.718-3.082-16.083-7.258-28.945-12.851-52.55-22.848-39.288-59.312-30.092-84.598l.187-.514c9.942-27.346 59.81-105.815 66.711-119.617 6.901-13.802 43.704-75.911 59.807-103.515 16.102-27.604 13.804-48.307 4.602-78.212-7.361-23.923-33.423-41.406-52.908-62.109-36.805-39.105-27.144-62.108-25.304-98.914Z"/><path fill="#F3885E" d="M374.953 303.644c-5.52-29.444 20.703-42.94 34.505-46.007h48.306c-22.237 13.035-59.809 41.406-25.304 87.413 45.063 60.084 32.205 156.422 29.905 165.624-2.301 9.201-78.174 139.577-96.614 181.726-16.103 36.805-34.505 43.706-32.205 112.716 1.84 55.208 51.374 85.113 69.01 94.314l-34.505-9.201c-3.067-1.534-17.483-13.802-50.608-50.608-33.125-36.805-15.335-85.879-2.3-105.815 29.904-52.908 93.393-167.464 108.115-202.429 18.403-43.707 11.503-82.812 9.202-89.713-2.3-6.901-18.403-52.908-27.604-66.71-9.202-13.802-23.002-34.505-29.903-71.31Z"/></svg>