<svg width="1447" height="1267" viewBox="0 0 1447 1267" fill="none" xmlns="http://www.w3.org/2000/svg">
<path d="M879.42 274.843L353.96 254.419C346.704 258.437 285.54 232.832 268.295 291.244C246.643 364.581 273.328 351.643 300.395 388.109C309.702 400.647 256.718 370.745 213.139 321.463C205.406 312.717 200.061 314.703 150.04 423.499C100.02 532.296 134.598 628.716 158.14 663.326L281.86 619.347C207.641 681.11 167.74 776.009 252.529 836.407C337.317 896.806 543.441 931.533 635.904 941.347C731.861 937.396 910.448 922.19 962.524 905.604C1027.62 884.872 1052.95 882.921 1057.49 882.186C1063.9 881.15 1210.77 831.582 1304.29 814.318C1323.54 810.461 1323.72 796.521 1318.09 789.014C1304.29 770.611 1297.39 784.413 1285.88 775.212C1281.28 763.71 1274.62 760.35 1262.88 744.7C1249.08 726.297 1242.18 749.517 1212.27 736.106C1174.43 719.137 1160.94 773.43 1105.35 744.7C1049.77 715.97 1134.61 622.154 1122.56 600.387C1105.42 548.372 1086.22 427.827 1029.44 365.335C972.668 302.844 905.771 278.969 879.42 274.843Z" fill="#000F92"/>
<path d="M664.795 685.499C535.976 648.694 448.564 633.358 425.56 632.591C410.225 652.528 388.755 713.563 388.755 779.813C388.755 862.625 423.26 874.126 453.164 897.13L453.703 897.545C483.101 920.162 486.217 922.559 625.689 943.136C737.945 959.699 979.94 903.264 1051.25 881.027C1045.12 870.293 978.56 856.644 963.838 832.72C949.116 808.797 932.4 746.075 929.333 717.704C894.828 722.304 793.613 722.304 664.795 685.499Z" fill="#06002D"/>
<path d="M308.241 250.736L589.048 264.538C583.68 279.107 480.93 318.826 480.93 370.354C480.93 434.763 483.232 542.878 462.529 579.684C447.357 606.657 386.616 701.601 391.217 800.516C394.897 879.647 478.629 916.299 520.035 924.734C507.767 925.5 454.706 917.833 340.609 881.027C197.989 835.021 205.491 788.718 202.591 756.809C200.291 731.506 222.526 685.499 237.095 664.796C315.306 572.783 300.124 606.368 331.408 565.882C370.514 515.274 371.973 491.448 363.613 466.967C356.603 446.44 321.515 411.05 302.345 396.481L302.042 396.243C291.047 387.607 260.967 363.981 255.497 322.047C249.976 279.72 287.538 253.803 308.241 250.736Z" fill="#FFD6A6"/>
<path d="M960.808 517.575C980.651 484.45 1051.53 465.434 1081.15 460.067C1101.82 508.374 1126.16 614.189 1138.56 637.192C1154.27 666.316 1153.03 662.496 1171.64 683.199C1190.24 703.902 1355.59 772.912 1355.59 784.414C1355.59 795.915 1336.99 793.615 1332.86 798.216C1329.35 802.119 1341.81 801.283 1347.33 800.516C1351.46 798.982 1361.79 799.136 1361.79 802.816C1361.79 806.497 1357.66 810.484 1355.59 812.018L1310.12 825.82L1252.25 837.321L986.84 901.731C984.774 897.897 974.037 874.587 960.808 848.823C944.273 816.618 915.334 699.301 927.737 614.189C934.486 567.876 936.005 558.981 960.808 517.575Z" fill="#FFD6A6"/>
<ellipse cx="1068.94" cy="620.94" rx="35.0052" ry="39.6988" transform="rotate(-11.4441 1068.94 620.94)" fill="white"/>
<ellipse cx="1074.25" cy="621.091" rx="16.1023" ry="18.4027" transform="rotate(-10.4683 1074.25 621.091)" fill="black"/>
<rect width="18.2027" height="4.57108" transform="matrix(0.857724 -0.51411 0.520802 0.853678 152.044 653.564)" fill="#000227"/>
<rect width="18.2027" height="4.57108" transform="matrix(0.857724 -0.51411 0.520802 0.853678 152.044 653.564)" fill="#000227"/>
<rect width="18.2027" height="4.57108" transform="matrix(0.857724 -0.51411 0.520802 0.853678 152.044 653.564)" fill="#000227"/>
<rect width="18.2027" height="4.57108" transform="matrix(0.857724 -0.51411 0.520802 0.853678 152.044 653.564)" fill="#000227"/>
<rect width="18.8549" height="4.56776" transform="matrix(0.903781 -0.427996 0.434194 0.900819 147.259 643.833)" fill="#000227"/>
<rect width="18.8549" height="4.56776" transform="matrix(0.903781 -0.427996 0.434194 0.900819 147.259 643.833)" fill="#000227"/>
<rect width="18.8549" height="4.56776" transform="matrix(0.903781 -0.427996 0.434194 0.900819 147.259 643.833)" fill="#000227"/>
<rect width="18.8549" height="4.56776" transform="matrix(0.903781 -0.427996 0.434194 0.900819 147.259 643.833)" fill="#000227"/>
<rect width="19.5698" height="4.56776" transform="matrix(0.903781 -0.427996 0.434194 0.900819 142.816 634.346)" fill="#000227"/>
<rect width="19.5698" height="4.56776" transform="matrix(0.903781 -0.427996 0.434194 0.900819 142.816 634.346)" fill="#000227"/>
<rect width="19.5698" height="4.56776" transform="matrix(0.903781 -0.427996 0.434194 0.900819 142.816 634.346)" fill="#000227"/>
<rect width="19.5698" height="4.56776" transform="matrix(0.903781 -0.427996 0.434194 0.900819 142.816 634.346)" fill="#000227"/>
<rect width="19.3487" height="4.56589" transform="matrix(0.928603 -0.371076 0.376756 0.926312 138.956 624.527)" fill="#000227"/>
<rect width="19.3487" height="4.56589" transform="matrix(0.928603 -0.371076 0.376756 0.926312 138.956 624.527)" fill="#000227"/>
<rect width="19.3487" height="4.56589" transform="matrix(0.928603 -0.371076 0.376756 0.926312 138.956 624.527)" fill="#000227"/>
<rect width="19.3487" height="4.56589" transform="matrix(0.928603 -0.371076 0.376756 0.926312 138.956 624.527)" fill="#000227"/>
<rect width="21.1624" height="4.56451" transform="matrix(0.946532 -0.32261 0.327745 0.944766 135.475 613.926)" fill="#000227"/>
<rect width="21.1624" height="4.56451" transform="matrix(0.946532 -0.32261 0.327745 0.944766 135.475 613.926)" fill="#000227"/>
<rect width="21.1624" height="4.56451" transform="matrix(0.946532 -0.32261 0.327745 0.944766 135.475 613.926)" fill="#000227"/>
<rect width="21.1624" height="4.56451" transform="matrix(0.946532 -0.32261 0.327745 0.944766 135.475 613.926)" fill="#000227"/>
<rect width="28.4028" height="4.56585" transform="matrix(0.929124 0.369768 -0.375435 0.926849 152.115 420.366)" fill="#000227"/>
<rect width="28.4028" height="4.56585" transform="matrix(0.929124 0.369768 -0.375435 0.926849 152.115 420.366)" fill="#000227"/>
<rect width="28.4028" height="4.56585" transform="matrix(0.929124 0.369768 -0.375435 0.926849 152.115 420.366)" fill="#000227"/>
<rect width="28.4028" height="4.56585" transform="matrix(0.929124 0.369768 -0.375435 0.926849 152.115 420.366)" fill="#000227"/>
<rect width="23.3188" height="4.56174" transform="matrix(0.981445 -0.191742 0.195029 0.980797 131.214 597.889)" fill="#000227"/>
<rect width="23.3188" height="4.56174" transform="matrix(0.981445 -0.191742 0.195029 0.980797 131.214 597.889)" fill="#000227"/>
<rect width="23.3188" height="4.56174" transform="matrix(0.981445 -0.191742 0.195029 0.980797 131.214 597.889)" fill="#000227"/>
<rect width="23.3188" height="4.56174" transform="matrix(0.981445 -0.191742 0.195029 0.980797 131.214 597.889)" fill="#000227"/>
<rect width="22.4192" height="4.56174" transform="matrix(0.981445 -0.191742 0.195029 0.980797 128.16 583.907)" fill="#000227"/>
<rect width="22.4192" height="4.56174" transform="matrix(0.981445 -0.191742 0.195029 0.980797 128.16 583.907)" fill="#000227"/>
<rect width="22.4192" height="4.56174" transform="matrix(0.981445 -0.191742 0.195029 0.980797 128.16 583.907)" fill="#000227"/>
<rect width="22.4192" height="4.56174" transform="matrix(0.981445 -0.191742 0.195029 0.980797 128.16 583.907)" fill="#000227"/>
<rect width="22.7707" height="4.56102" transform="matrix(0.990214 -0.13956 0.141998 0.989867 126.179 570.193)" fill="#000227"/>
<rect width="22.7707" height="4.56102" transform="matrix(0.990214 -0.13956 0.141998 0.989867 126.179 570.193)" fill="#000227"/>
<rect width="22.7707" height="4.56102" transform="matrix(0.990214 -0.13956 0.141998 0.989867 126.179 570.193)" fill="#000227"/>
<rect width="22.7707" height="4.56102" transform="matrix(0.990214 -0.13956 0.141998 0.989867 126.179 570.193)" fill="#000227"/>
<rect width="23.3467" height="4.5654" transform="matrix(0.935103 0.354376 -0.359879 0.932999 158.352 406.865)" fill="#000227"/>
<rect width="23.3467" height="4.5654" transform="matrix(0.935103 0.354376 -0.359879 0.932999 158.352 406.865)" fill="#000227"/>
<rect width="23.3467" height="4.5654" transform="matrix(0.935103 0.354376 -0.359879 0.932999 158.352 406.865)" fill="#000227"/>
<rect width="23.3467" height="4.5654" transform="matrix(0.935103 0.354376 -0.359879 0.932999 158.352 406.865)" fill="#000227"/>
<rect width="22.2017" height="4.56775" transform="matrix(0.903979 0.427576 -0.433772 0.901023 165.09 393.058)" fill="#000227"/>
<rect width="22.2017" height="4.56775" transform="matrix(0.903979 0.427576 -0.433772 0.901023 165.09 393.058)" fill="#000227"/>
<rect width="22.2017" height="4.56775" transform="matrix(0.903979 0.427576 -0.433772 0.901023 165.09 393.058)" fill="#000227"/>
<rect width="22.2017" height="4.56775" transform="matrix(0.903979 0.427576 -0.433772 0.901023 165.09 393.058)" fill="#000227"/>
<rect width="23.6972" height="4.56775" transform="matrix(0.903979 0.427576 -0.433772 0.901023 171.695 379.076)" fill="#000227"/>
<rect width="23.6972" height="4.56775" transform="matrix(0.903979 0.427576 -0.433772 0.901023 171.695 379.076)" fill="#000227"/>
<rect width="23.6972" height="4.56775" transform="matrix(0.903979 0.427576 -0.433772 0.901023 171.695 379.076)" fill="#000227"/>
<rect width="23.6972" height="4.56775" transform="matrix(0.903979 0.427576 -0.433772 0.901023 171.695 379.076)" fill="#000227"/>
<rect width="21.3428" height="4.56775" transform="matrix(0.903979 0.427576 -0.433772 0.901023 179.777 362.482)" fill="#000227"/>
<rect width="21.3428" height="4.56775" transform="matrix(0.903979 0.427576 -0.433772 0.901023 179.777 362.482)" fill="#000227"/>
<rect width="21.3428" height="4.56775" transform="matrix(0.903979 0.427576 -0.433772 0.901023 179.777 362.482)" fill="#000227"/>
<rect width="21.3428" height="4.56775" transform="matrix(0.903979 0.427576 -0.433772 0.901023 179.777 362.482)" fill="#000227"/>
<rect width="23.0273" height="4.56775" transform="matrix(0.903979 0.427576 -0.433772 0.901023 185.326 351.636)" fill="#000227"/>
<rect width="23.0273" height="4.56775" transform="matrix(0.903979 0.427576 -0.433772 0.901023 185.326 351.636)" fill="#000227"/>
<rect width="23.0273" height="4.56775" transform="matrix(0.903979 0.427576 -0.433772 0.901023 185.326 351.636)" fill="#000227"/>
<rect width="23.0273" height="4.56775" transform="matrix(0.903979 0.427576 -0.433772 0.901023 185.326 351.636)" fill="#000227"/>
<rect width="21.9125" height="4.56964" transform="matrix(0.878024 0.478616 -0.48515 0.874431 192.641 338.551)" fill="#000227"/>
<rect width="21.9125" height="4.56964" transform="matrix(0.878024 0.478616 -0.48515 0.874431 192.641 338.551)" fill="#000227"/>
<rect width="21.9125" height="4.56964" transform="matrix(0.878024 0.478616 -0.48515 0.874431 192.641 338.551)" fill="#000227"/>
<rect width="21.9125" height="4.56964" transform="matrix(0.878024 0.478616 -0.48515 0.874431 192.641 338.551)" fill="#000227"/>
<rect width="24.303" height="4.57313" transform="matrix(0.827901 0.560874 -0.567666 0.823259 199.588 327.505)" fill="#000227"/>
<rect width="24.303" height="4.57313" transform="matrix(0.827901 0.560874 -0.567666 0.823259 199.588 327.505)" fill="#000227"/>
<rect width="24.303" height="4.57313" transform="matrix(0.827901 0.560874 -0.567666 0.823259 199.588 327.505)" fill="#000227"/>
<rect width="24.303" height="4.57313" transform="matrix(0.827901 0.560874 -0.567666 0.823259 199.588 327.505)" fill="#000227"/>
<rect width="21.3018" height="4.57313" transform="matrix(0.767611 0.640916 -0.64721 0.762312 206.654 318.504)" fill="#000227"/>
<rect width="21.3018" height="4.57313" transform="matrix(0.767611 0.640916 -0.64721 0.762312 206.654 318.504)" fill="#000227"/>
<rect width="21.3018" height="4.57313" transform="matrix(0.767611 0.640916 -0.64721 0.762312 206.654 318.504)" fill="#000227"/>
<rect width="21.3018" height="4.57313" transform="matrix(0.767611 0.640916 -0.64721 0.762312 206.654 318.504)" fill="#000227"/>
<rect width="23.2983" height="4.56036" transform="matrix(0.998229 -0.0594858 0.0605419 0.998166 125.061 554.389)" fill="#000227"/>
<rect width="23.2983" height="4.56036" transform="matrix(0.998229 -0.0594858 0.0605419 0.998166 125.061 554.389)" fill="#000227"/>
<rect width="23.2983" height="4.56036" transform="matrix(0.998229 -0.0594858 0.0605419 0.998166 125.061 554.389)" fill="#000227"/>
<rect width="23.2983" height="4.56036" transform="matrix(0.998229 -0.0594858 0.0605419 0.998166 125.061 554.389)" fill="#000227"/>
<rect width="24.1939" height="4.56026" transform="matrix(0.999513 -0.0312 0.0317554 0.999496 124.215 540.417)" fill="#000227"/>
<rect width="24.1939" height="4.56026" transform="matrix(0.999513 -0.0312 0.0317554 0.999496 124.215 540.417)" fill="#000227"/>
<rect width="24.1939" height="4.56026" transform="matrix(0.999513 -0.0312 0.0317554 0.999496 124.215 540.417)" fill="#000227"/>
<rect width="24.1939" height="4.56026" transform="matrix(0.999513 -0.0312 0.0317554 0.999496 124.215 540.417)" fill="#000227"/>
<rect width="24.8349" height="4.56022" transform="matrix(1 -0.000409754 0.000417056 1 124.489 526.03)" fill="#000227"/>
<rect width="24.8349" height="4.56022" transform="matrix(1 -0.000409754 0.000417056 1 124.489 526.03)" fill="#000227"/>
<rect width="24.8349" height="4.56022" transform="matrix(1 -0.000409754 0.000417056 1 124.489 526.03)" fill="#000227"/>
<rect width="24.8349" height="4.56022" transform="matrix(1 -0.000409754 0.000417056 1 124.489 526.03)" fill="#000227"/>
<rect width="24.3659" height="4.56037" transform="matrix(0.998178 0.0603418 -0.061413 0.998112 125.688 511.249)" fill="#000227"/>
<rect width="24.3659" height="4.56037" transform="matrix(0.998178 0.0603418 -0.061413 0.998112 125.688 511.249)" fill="#000227"/>
<rect width="24.3659" height="4.56037" transform="matrix(0.998178 0.0603418 -0.061413 0.998112 125.688 511.249)" fill="#000227"/>
<rect width="24.3659" height="4.56037" transform="matrix(0.998178 0.0603418 -0.061413 0.998112 125.688 511.249)" fill="#000227"/>
<rect width="26.9771" height="4.5606" transform="matrix(0.995376 0.0960571 -0.0977525 0.995211 127.455 497.649)" fill="#000227"/>
<rect width="26.9771" height="4.5606" transform="matrix(0.995376 0.0960571 -0.0977525 0.995211 127.455 497.649)" fill="#000227"/>
<rect width="26.9771" height="4.5606" transform="matrix(0.995376 0.0960571 -0.0977525 0.995211 127.455 497.649)" fill="#000227"/>
<rect width="26.9771" height="4.5606" transform="matrix(0.995376 0.0960571 -0.0977525 0.995211 127.455 497.649)" fill="#000227"/>
<rect width="27.1604" height="4.56149" transform="matrix(0.984473 0.175536 -0.178565 0.983928 130.253 483.521)" fill="#000227"/>
<rect width="27.1604" height="4.56149" transform="matrix(0.984473 0.175536 -0.178565 0.983928 130.253 483.521)" fill="#000227"/>
<rect width="27.1604" height="4.56149" transform="matrix(0.984473 0.175536 -0.178565 0.983928 130.253 483.521)" fill="#000227"/>
<rect width="27.1604" height="4.56149" transform="matrix(0.984473 0.175536 -0.178565 0.983928 130.253 483.521)" fill="#000227"/>
<rect width="27.1604" height="4.56149" transform="matrix(0.984473 0.175536 -0.178565 0.983928 130.253 483.521)" fill="#000227"/>
<rect width="27.1604" height="4.56149" transform="matrix(0.984473 0.175536 -0.178565 0.983928 130.253 483.521)" fill="#000227"/>
<rect width="27.1604" height="4.56149" transform="matrix(0.984473 0.175536 -0.178565 0.983928 130.253 483.521)" fill="#000227"/>
<rect width="27.1604" height="4.56149" transform="matrix(0.984473 0.175536 -0.178565 0.983928 130.253 483.521)" fill="#000227"/>
<rect width="28.0743" height="4.56311" transform="matrix(0.964329 0.264707 -0.269085 0.963117 139.271 451.27)" fill="#000227"/>
<rect width="28.0743" height="4.56311" transform="matrix(0.964329 0.264707 -0.269085 0.963117 139.271 451.27)" fill="#000227"/>
<rect width="28.0743" height="4.56311" transform="matrix(0.964329 0.264707 -0.269085 0.963117 139.271 451.27)" fill="#000227"/>
<rect width="28.0743" height="4.56311" transform="matrix(0.964329 0.264707 -0.269085 0.963117 139.271 451.27)" fill="#000227"/>
<rect width="27.0554" height="4.56609" transform="matrix(0.926073 0.377346 -0.38309 0.923711 146.44 433.271)" fill="#000227"/>
<rect width="27.0554" height="4.56609" transform="matrix(0.926073 0.377346 -0.38309 0.923711 146.44 433.271)" fill="#000227"/>
<rect width="27.0554" height="4.56609" transform="matrix(0.926073 0.377346 -0.38309 0.923711 146.44 433.271)" fill="#000227"/>
<rect width="27.0554" height="4.56609" transform="matrix(0.926073 0.377346 -0.38309 0.923711 146.44 433.271)" fill="#000227"/>
<rect width="28.0365" height="4.56198" transform="matrix(0.978401 0.206719 -0.210241 0.97765 134.364 465.781)" fill="#000227"/>
<rect width="28.0365" height="4.56198" transform="matrix(0.978401 0.206719 -0.210241 0.97765 134.364 465.781)" fill="#000227"/>
<rect width="28.0365" height="4.56198" transform="matrix(0.978401 0.206719 -0.210241 0.97765 134.364 465.781)" fill="#000227"/>
<rect width="28.0365" height="4.56198" transform="matrix(0.978401 0.206719 -0.210241 0.97765 134.364 465.781)" fill="#000227"/>
<path d="M365.258 524.146C394.391 480.62 337.868 419.868 304.486 395.686C283.783 382.006 273.712 377.531 243.833 351.953C215.343 327.564 218.126 324.382 216.229 326.65C200.297 358.387 165.422 414.423 149.035 483.34C132.647 552.256 155.866 635.984 174.074 657.898L281.045 621.627C296.977 608.025 336.125 567.672 365.258 524.146Z" fill="#F3DAE5"/>
<path d="M253.877 361.473L228.573 340.952C214.004 356.913 181.185 410.268 166.462 496C151.74 581.732 178.731 635.086 194.066 651.047L212.471 644.207C204.803 625.206 190.848 569.875 196.369 500.56C201.889 431.245 237.008 378.954 253.877 361.473Z" fill="#F3885E"/>
<path d="M304.486 395.675L281.482 381.994C269.131 395.37 242.86 440.084 230.38 511.93C217.9 583.777 233.977 619.431 246.977 632.806L265.38 625.966C258.88 610.043 251.052 573.84 255.732 515.752C260.412 457.663 290.185 410.325 304.486 395.675Z" fill="#F3885E"/>
<path d="M276.882 498.28C278.722 439.909 309.853 417.716 325.189 413.916L338.991 427.597C333.623 430.637 319.208 446.294 304.486 484.599C289.764 522.905 301.419 573.524 309.087 594.045L283.783 619.126C280.716 603.165 275.042 556.651 276.882 498.28Z" fill="#F3885E"/>
<ellipse cx="625.689" cy="319.746" rx="23.0033" ry="16.1023" fill="#F3885E"/>
<ellipse cx="593.484" cy="434.763" rx="23.0033" ry="16.1023" fill="#F3885E"/>
<ellipse cx="713.103" cy="326.647" rx="13.802" ry="9.20133" fill="#F3885E"/>
<ellipse cx="733.805" cy="368.053" rx="25.3037" ry="9.20133" fill="#F3885E"/>
<ellipse cx="650.992" cy="391.057" rx="34.505" ry="18.4027" fill="#F3885E"/>
<ellipse cx="522.174" cy="616.489" rx="34.505" ry="18.4027" fill="#F3885E"/>
<ellipse cx="683.197" cy="285.241" rx="34.505" ry="18.4027" fill="#F3885E"/>
<ellipse cx="579.682" cy="358.852" rx="13.802" ry="9.20133" fill="#F3885E"/>
<circle cx="607.286" cy="280.64" r="9.20133" fill="#F3885E"/>
<circle cx="676.296" cy="349.65" r="9.20133" fill="#F3885E"/>
<ellipse cx="575.081" cy="299.043" rx="9.20133" ry="4.60067" fill="#F3885E"/>
<ellipse cx="713.102" cy="404.858" rx="9.20133" ry="4.60067" fill="#F3885E"/>
<ellipse cx="579.682" cy="395.657" rx="9.20133" ry="4.60067" fill="#F3885E"/>
<ellipse cx="832.719" cy="423.261" rx="9.20133" ry="4.60067" fill="#F3885E"/>
<ellipse cx="832.719" cy="331.248" rx="9.20133" ry="4.60067" fill="#F3885E"/>
<ellipse cx="1021.35" cy="372.654" rx="9.20133" ry="4.60067" fill="#F3885E"/>
<ellipse cx="1007.55" cy="469.268" rx="9.20133" ry="4.60067" fill="#F3885E"/>
<ellipse cx="662.494" cy="439.363" rx="4.60067" ry="2.30033" fill="#F3885E"/>
<ellipse cx="715.403" cy="448.565" rx="20.703" ry="16.1023" fill="#F3885E"/>
<ellipse cx="531.375" cy="411.759" rx="20.703" ry="11.5017" fill="#F3885E"/>
<ellipse cx="549.778" cy="324.347" rx="20.703" ry="11.5017" fill="#F3885E"/>
<ellipse cx="874.124" cy="347.35" rx="23.0033" ry="16.1023" fill="#F3885E"/>
<ellipse cx="800.514" cy="443.964" rx="23.0033" ry="16.1023" fill="#F3885E"/>
<ellipse cx="961.537" cy="354.251" rx="13.802" ry="9.20133" fill="#F3885E"/>
<ellipse cx="924.732" cy="335.848" rx="13.802" ry="9.20133" fill="#F3885E"/>
<ellipse cx="982.24" cy="395.657" rx="25.3037" ry="9.20133" fill="#F3885E"/>
<ellipse cx="1020.33" cy="434.389" rx="25.3037" ry="9.20133" transform="rotate(-12.4538 1020.33 434.389)" fill="#F3885E"/>
<ellipse cx="831.07" cy="475.849" rx="25.3037" ry="9.20133" transform="rotate(-2.82031 831.07 475.849)" fill="#F3885E"/>
<ellipse cx="876.425" cy="441.664" rx="34.505" ry="18.4027" fill="#F3885E"/>
<ellipse cx="784.411" cy="299.043" rx="34.505" ry="18.4027" fill="#F3885E"/>
<ellipse cx="772.911" cy="395.657" rx="13.802" ry="9.20133" fill="#F3885E"/>
<circle cx="855.722" cy="308.245" r="9.20133" fill="#F3885E"/>
<circle cx="924.732" cy="377.255" r="9.20133" fill="#F3885E"/>
<circle cx="1062.75" cy="446.264" r="9.20133" fill="#F3885E"/>
<circle cx="929.332" cy="414.06" r="9.20133" fill="#F3885E"/>
<circle cx="910.93" cy="299.043" r="9.20133" fill="#F3885E"/>
<ellipse cx="961.537" cy="432.462" rx="9.20133" ry="4.60067" fill="#F3885E"/>
<ellipse cx="897.128" cy="407.159" rx="4.60067" ry="2.30033" fill="#F3885E"/>
<ellipse cx="809.715" cy="384.155" rx="4.60067" ry="2.30033" fill="#F3885E"/>
<ellipse cx="529.075" cy="365.753" rx="4.60067" ry="2.30033" fill="#F3885E"/>
<ellipse cx="759.109" cy="430.162" rx="4.60067" ry="2.30033" fill="#F3885E"/>
<ellipse cx="963.839" cy="476.169" rx="20.703" ry="16.1023" fill="#F3885E"/>
<ellipse cx="848.821" cy="393.357" rx="20.703" ry="11.5017" fill="#F3885E"/>
<ellipse cx="542.877" cy="443.964" rx="9.20133" ry="6.901" fill="#F3885E"/>
<ellipse cx="798.214" cy="351.951" rx="20.703" ry="11.5017" fill="#F3885E"/>
<ellipse cx="819.632" cy="624.342" rx="18.2895" ry="16.1023" transform="rotate(-176.947 819.632 624.342)" fill="#F3885E"/>
<ellipse cx="871.894" cy="533.157" rx="18.2895" ry="16.1023" transform="rotate(-176.947 871.894 533.157)" fill="#F3885E"/>
<ellipse cx="771.165" cy="636.054" rx="10.9737" ry="9.20133" transform="rotate(-176.947 771.165 636.054)" fill="#F3885E"/>
<ellipse cx="747.552" cy="607.86" rx="10.9737" ry="9.20133" transform="rotate(-176.947 747.552 607.86)" fill="#F3885E"/>
<ellipse cx="899.304" cy="484.127" rx="20.1185" ry="9.20133" transform="rotate(-176.947 899.304 484.127)" fill="#F3885E"/>
<ellipse cx="778.279" cy="576.519" rx="27.4343" ry="18.4027" transform="rotate(-176.947 778.279 576.519)" fill="#F3885E"/>
<ellipse cx="792.702" cy="678.668" rx="27.4343" ry="18.4027" transform="rotate(-176.947 792.702 678.668)" fill="#F3885E"/>
<ellipse cx="878.808" cy="609.545" rx="10.9737" ry="9.20133" transform="rotate(-176.947 878.808 609.545)" fill="#F3885E"/>
<ellipse cx="854.315" cy="639.868" rx="7.31581" ry="9.20133" transform="rotate(-176.947 854.315 639.868)" fill="#F3885E"/>
<ellipse cx="845.113" cy="580.06" rx="7.31581" ry="9.20133" transform="rotate(-176.947 845.113 580.06)" fill="#F3885E"/>
<ellipse cx="863.271" cy="676.681" rx="7.31581" ry="4.60067" transform="rotate(-176.947 863.271 676.681)" fill="#F3885E"/>
<ellipse cx="757.455" cy="478.852" rx="7.31581" ry="4.60067" transform="rotate(-176.947 757.455 478.852)" fill="#F3885E"/>
<ellipse cx="880.771" cy="572.793" rx="7.31581" ry="4.60067" transform="rotate(-176.947 880.771 572.793)" fill="#F3885E"/>
<ellipse cx="681.337" cy="534.512" rx="7.31581" ry="4.60067" transform="rotate(-176.947 681.337 534.512)" fill="#F3885E"/>
<ellipse cx="676.441" cy="626.394" rx="7.31581" ry="4.60067" transform="rotate(-176.947 676.441 626.394)" fill="#F3885E"/>
<ellipse cx="528.882" cy="577.059" rx="7.31581" ry="4.60067" transform="rotate(-176.947 528.882 577.059)" fill="#F3885E"/>
<ellipse cx="544.988" cy="481.166" rx="7.31581" ry="4.60067" transform="rotate(-176.947 544.988 481.166)" fill="#F3885E"/>
<ellipse cx="817.348" cy="525.641" rx="3.65791" ry="2.30033" transform="rotate(-176.947 817.348 525.641)" fill="#F3885E"/>
<ellipse cx="775.83" cy="514.212" rx="16.4606" ry="16.1023" transform="rotate(-176.947 775.83 514.212)" fill="#F3885E"/>
<ellipse cx="919.98" cy="558.758" rx="16.4606" ry="11.5017" transform="rotate(-176.947 919.98 558.758)" fill="#F3885E"/>
<ellipse cx="900.711" cy="645.268" rx="16.4606" ry="11.5017" transform="rotate(-176.947 900.711 645.268)" fill="#F3885E"/>
<ellipse cx="644.421" cy="608.56" rx="18.2895" ry="16.1023" transform="rotate(-176.947 644.421 608.56)" fill="#F3885E"/>
<ellipse cx="511.388" cy="467.919" rx="18.2895" ry="16.1023" transform="rotate(-176.947 511.388 467.919)" fill="#F3885E"/>
<ellipse cx="708.014" cy="515.202" rx="18.2895" ry="16.1023" transform="rotate(-176.947 708.014 515.202)" fill="#F3885E"/>
<ellipse cx="575.389" cy="597.967" rx="10.9737" ry="9.20133" transform="rotate(-176.947 575.389 597.967)" fill="#F3885E"/>
<ellipse cx="603.627" cy="617.903" rx="10.9737" ry="9.20133" transform="rotate(-176.947 603.627 617.903)" fill="#F3885E"/>
<ellipse cx="561.154" cy="555.743" rx="20.1185" ry="9.20133" transform="rotate(-176.947 561.154 555.743)" fill="#F3885E"/>
<ellipse cx="20.3889" cy="9.12229" rx="20.3889" ry="9.12229" transform="matrix(-0.976409 0.215931 -0.120236 -0.992745 553.981 520.106)" fill="#F3885E"/>
<ellipse cx="20.1327" cy="9.19723" rx="20.1327" ry="9.19723" transform="matrix(-0.999963 0.00858786 0.0141442 -0.9999 705.452 491.092)" fill="#F3885E"/>
<ellipse cx="647.618" cy="514.284" rx="27.4343" ry="18.4027" transform="rotate(-176.947 647.618 514.284)" fill="#F3885E"/>
<ellipse cx="506.841" cy="548.915" rx="27.4343" ry="18.4027" transform="rotate(-176.947 506.841 548.915)" fill="#F3885E"/>
<ellipse cx="713.074" cy="660.598" rx="27.4343" ry="18.4027" transform="rotate(-176.947 713.074 660.598)" fill="#F3885E"/>
<ellipse cx="727.355" cy="564.609" rx="10.9737" ry="9.20133" transform="rotate(-176.947 727.355 564.609)" fill="#F3885E"/>
<ellipse cx="656.948" cy="648.389" rx="7.31581" ry="9.20133" transform="rotate(-176.947 656.948 648.389)" fill="#F3885E"/>
<ellipse cx="605.833" cy="576.555" rx="7.31581" ry="9.20133" transform="rotate(-176.947 605.833 576.555)" fill="#F3885E"/>
<ellipse cx="633.483" cy="469.644" rx="7.31581" ry="9.20133" transform="rotate(-176.947 633.483 469.644)" fill="#F3885E"/>
<ellipse cx="499.927" cy="501.799" rx="7.31581" ry="9.20133" transform="rotate(-176.947 499.927 501.799)" fill="#F3885E"/>
<ellipse cx="604.144" cy="539.609" rx="7.31581" ry="9.20133" transform="rotate(-176.947 604.144 539.609)" fill="#F3885E"/>
<ellipse cx="612.627" cy="655.241" rx="7.31581" ry="9.20133" transform="rotate(-176.947 612.627 655.241)" fill="#F3885E"/>
<ellipse cx="579.553" cy="519.867" rx="7.31581" ry="4.60067" transform="rotate(-176.947 579.553 519.867)" fill="#F3885E"/>
<ellipse cx="629.344" cy="547.863" rx="3.65791" ry="2.30033" transform="rotate(-176.947 629.344 547.863)" fill="#F3885E"/>
<ellipse cx="697.519" cy="574.534" rx="3.65791" ry="2.30033" transform="rotate(-176.947 697.519 574.534)" fill="#F3885E"/>
<ellipse cx="790.485" cy="609.781" rx="3.65791" ry="2.30033" transform="rotate(-176.947 790.485 609.781)" fill="#F3885E"/>
<ellipse cx="919.355" cy="604.798" rx="3.65791" ry="2.30033" transform="rotate(-176.947 919.355 604.798)" fill="#F3885E"/>
<ellipse cx="740.152" cy="530.738" rx="3.65791" ry="2.30033" transform="rotate(-176.947 740.152 530.738)" fill="#F3885E"/>
<ellipse cx="580.054" cy="476.126" rx="16.4606" ry="16.1023" transform="rotate(-176.947 580.054 476.126)" fill="#F3885E"/>
<ellipse cx="666.963" cy="563.691" rx="16.4606" ry="11.5017" transform="rotate(-176.947 666.963 563.691)" fill="#F3885E"/>
<ellipse cx="912.563" cy="526.113" rx="7.31581" ry="6.901" transform="rotate(-176.947 912.563 526.113)" fill="#F3885E"/>
<ellipse cx="704.936" cy="607.182" rx="16.4606" ry="11.5017" transform="rotate(-176.947 704.936 607.182)" fill="#F3885E"/>
<path d="M282.938 299.043C284.779 262.238 308.242 251.503 319.744 250.736L356.548 253.037C336.612 254.57 317.807 266.05 312.843 308.245C308.242 347.35 324.345 368.82 326.645 372.654C343.208 400.258 396.575 430.622 400.256 460.066C404.856 496.872 384.153 542.878 365.749 577.383C351.026 604.987 324.345 653.294 294.44 699.301C286.005 715.403 255.335 760.03 255.335 800.516C255.335 831.619 272.079 848.874 288.88 859.373C304.27 866.435 305.777 867.759 303.642 867.225C299.021 865.093 293.948 862.54 288.88 859.373C282.162 856.291 272.797 852.115 259.935 846.522C207.385 823.674 220.647 787.21 229.843 761.924L230.03 761.41C239.972 734.064 289.84 655.595 296.741 641.793C303.642 627.991 340.445 565.882 356.548 538.278C372.65 510.674 370.352 489.971 361.15 460.066C353.789 436.143 327.727 418.66 308.242 397.957C271.437 358.852 281.098 335.849 282.938 299.043Z" fill="#F3885E"/>
<path d="M374.953 303.644C369.433 274.2 395.656 260.704 409.458 257.637H457.764C435.527 270.672 397.955 299.043 432.46 345.05C477.523 405.134 464.665 501.472 462.365 510.674C460.064 519.875 384.191 650.251 365.751 692.4C349.648 729.205 331.246 736.106 333.546 805.116C335.386 860.324 384.92 890.229 402.556 899.43L368.051 890.229C364.984 888.695 350.568 876.427 317.443 839.621C284.318 802.816 302.108 753.742 315.143 733.806C345.047 680.898 408.536 566.342 423.258 531.377C441.661 487.67 434.761 448.565 432.46 441.664C430.16 434.763 414.057 388.756 404.856 374.954C395.654 361.152 381.854 340.449 374.953 303.644Z" fill="#F3885E"/>
</svg>
