<svg xmlns="http://www.w3.org/2000/svg" width="1297" height="690" fill="none"><path fill="#AE4C92" d="M297.355 131.673c-66.952 2.183-35.485 105.569-11.383 156.989 4.242-1.783 18.528-5.79 41.739-7.558 29.013-2.21 140.485-4.139 211.664 10.864 56.943 12.003 105.825 42.031 123.147 55.545 3.606 2.644 16.474-5.924 39.099-61.342 22.624-55.418-25.279-70.055-52.059-70.446-31.502-1.734-100.733-4.58-125.64-2.099-31.134 3.102-73.853-21.365-100.282-42.697-26.43-21.331-42.597-41.985-126.285-39.256Z"/><path fill="#2F0036" fill-rule="evenodd" d="M303.801 131.506c8.079-.153 15.494-.075 22.324.211l1.121 135.648c.005.552.456.996 1.009.992l7.201-.06a1 1 0 0 0 .991-1.008l-1.116-135.036c8.968.678 16.826 1.755 23.804 3.165l-8.667 135.967a1 1 0 0 0 .934 1.061l7.187.458a1 1 0 0 0 1.062-.934l8.567-134.405c6.002 1.643 11.282 3.567 16.045 5.712l-14.789 132.319a1 1 0 0 0 .883 1.104l7.156.8a1 1 0 0 0 1.105-.882l14.402-128.855c4.534 2.616 8.618 5.446 12.517 8.413l-13.799 123.456c-28.999-.205-52.748.612-64.029 1.471-23.211 1.768-37.497 5.776-41.739 7.558-18.99-40.513-42.552-113.286-18.946-143.402l20.989 130.331a1 1 0 0 0 1.146.829l7.11-1.145a1 1 0 0 0 .828-1.146l-21.839-135.614a.99.99 0 0 0-.286-.553c5.186-3.376 11.661-5.519 19.628-6.138l9.064 135.661a1 1 0 0 0 1.064.931l7.186-.48a1 1 0 0 0 .931-1.064l-9.044-135.365Zm97.185 148.224c3.663.053 7.393.122 11.177.209l12.125-108.487a488.79 488.79 0 0 1-.65-.523c-2.379-1.92-4.674-3.834-6.944-5.727l-.004-.003a1109.12 1109.12 0 0 0-2.656-2.211L400.986 279.73Zm36.797 1.075c-5.523-.248-10.999-.452-16.39-.618l11.425-102.216a259.259 259.259 0 0 0 11.223 7.749l-6.258 95.085Zm9.192.452c3.824.204 7.662.43 11.501.68l5.559-84.462a234.171 234.171 0 0 1-11.136-6.231l-5.924 90.013Zm35.562 2.574a818.817 818.817 0 0 0-14.882-1.251l5.311-80.697a170.562 170.562 0 0 0 11.921 5.001l-2.35 76.947Zm9.178.916a621.63 621.63 0 0 1 16.039 1.91l2.238-73.295c-5.186-.632-10.55-1.808-15.993-3.418l-2.284 74.803Zm39.431 5.593a427.302 427.302 0 0 0-14.226-2.384l2.262-74.068a55.711 55.711 0 0 0 4.738-.262 152.92 152.92 0 0 1 7.471-.532l-.245 77.246Zm9.195 1.834a278.395 278.395 0 0 1 16.485 4.077l.266-83.59a646.2 646.2 0 0 0-16.498.118l-.253 79.395Zm39.479 11.496a318.852 318.852 0 0 0-13.801-4.689l.274-86.239c4.503.059 9.133.145 13.815.252l-.288 90.676Zm9.19 3.51a352.77 352.77 0 0 1 16.176 6.924l6.204-100.138a2230.56 2230.56 0 0 0-22.081-.737l-.299 93.951Zm35.857 16.661a362.159 362.159 0 0 0-10.725-5.489l6.445-104.017c5.69.238 11.103.484 16.073.725l-11.793 108.781Zm8.734 4.814a329.795 329.795 0 0 1 8.986 5.308l26.493-115.691c-6.877-1.704-13.698-2.462-19.52-2.547-1.18-.065-2.413-.132-3.695-.2l-12.264 113.13Zm23.948 15.158a223 223 0 0 0-6.722-4.612l27.065-118.19c7.694 2.925 14.937 7.231 20.335 13.32l-40.678 109.482Zm8.501 3.538c5.948-2.905 17.723-17.469 35.569-61.18 7.376-18.07 7.255-31.803 2.813-42.121L666.05 347.351Z" clip-rule="evenodd"/><path fill="#F9D0ED" d="M62.422 396.905c-12.881 16.562-49.842 20.702-59.81 20.702-5.368 3.067-1.378 9.661 2.302 11.502 3.68 1.84 15.336 8.434 20.703 11.501 6.134 5.368 25.304 30.825 52.908 89.713 34.505 73.611 147.221 135.72 241.535 151.822 94.313 16.102 207.03 4.601 312.845-34.505 84.652-31.284 202.429-108.115 250.736-142.62 60.576-6.902 184.029-19.323 193.229-13.803 9.2 5.521 106.58 71.311 154.12 103.515 10.74-10.734 37.73-53.367 59.81-138.019 22.08-84.653-26.07-157.957-52.91-184.027l-151.82 117.317c-46.01-3.067-150.901-11.502-202.429-20.703-64.409-11.502-271.439-62.109-312.845-78.211-41.406-16.103-126.518-23.003-190.928-27.604-64.409-4.6-119.93 3.791-177.125 20.703-58.029 17.159-124.218 92.014-140.32 112.717Z"/><path fill="#AE4C92" d="m1074.25 489.971 11.51-98.915 151.82-119.617c8.43 6.901 28.06 27.604 39.1 55.208 13.81 34.505 23.01 66.71 16.11 131.119-5.52 51.527-43.71 111.949-62.11 135.72l-156.43-103.515ZM509.121 424.659c-36.805-22.083-116.55-4.6-151.822 6.901-2.3 23.003-5.521 78.21 0 115.016 5.521 36.805 46.774 39.872 66.71 36.805 70.562-15.199 94.314-84.192 103.515-98.914 11.502-18.403 27.604-32.204-18.403-59.808Z"/><path fill="#2F0036" fill-rule="evenodd" d="M374.845 426.408c-6.583 1.751-12.516 3.512-17.545 5.152l-.103 1.046 91.369 4.457 73.8-3.6c-2.818-2.119-6.036-4.324-9.697-6.627l-73.304-3.575-64.52 3.147Zm111.119-10.021c-20.389-3.92-45.471-2.453-69.06 1.177l22.461 1.096 46.599-2.273ZM356.07 446.175a712.567 712.567 0 0 0-.603 9.35l93.099 4.541 91.086-4.443c-.516-3.073-1.873-6.289-4.362-9.729l-86.724-4.231-92.496 4.512Zm-1.585 32.529c.085-3.215.191-6.377.313-9.463l93.768-4.574 88.588 4.321c-1.596 3.262-3.725 6.496-5.939 9.825l-87.25 4.256-89.48-4.365Zm-.221 13.342c-.021 3.352-.015 6.727.023 10.101l80.477 3.926 83.675-4.082a594.514 594.514 0 0 0 4.025-7.943l.003-.006.009-.017.023-.047 1.212-2.418-79.746-3.89-89.701 4.376Zm.877 33.595a387.589 387.589 0 0 1-.561-11.056l80.184-3.912 76.848 3.749a209.198 209.198 0 0 1-6.752 10.786l-79.297 3.868-70.422-3.435Zm.96 11.424c.343 3.278.741 6.457 1.199 9.511.136.902.292 1.783.47 2.645l58.59 2.858 69.577-3.394a152.554 152.554 0 0 0 10.214-11.565l-70.588-3.443-69.462 3.388Zm16.541 36.109c-4.663-3.517-8.64-8.042-11.458-13.802l55.176-2.692 57.677 2.814c-6.258 5.027-13.202 9.64-20.911 13.571l-41.367 2.018-39.117-1.909Zm39.117 6.509 22.294 1.088a122.253 122.253 0 0 1-10.043 2.61c-9.316 1.433-23.285 1.527-36.089-2.535l23.838-1.163Z" clip-rule="evenodd"/><path fill="#2F0036" d="M1225.32 373.171c0-58.163-21.73-66.829-32.6-63.891l34.77-28.64c1.45 0 10.43 9.694 34.76 48.469 30.42 48.469 20.26 108.115 17.38 134.391-2.17 19.829-34.76 95.47-54.31 129.985l-52.15-35.25c8.69-8.812 28.68-29.962 30.42-35.25 2.17-6.609 21.73-77.111 21.73-149.814Z"/><ellipse cx="157.203" cy="395.506" fill="#fff" rx="35.005" ry="39.699" transform="rotate(-11.444 157.203 395.506)"/><ellipse cx="147.221" cy="394.216" fill="#000" rx="23.079" ry="27.021" transform="rotate(-10.468 147.221 394.216)"/><path fill="#5F016E" d="M266.836 386.456c-13.802-6.901-4.601-11.502 4.601-27.604.002-9.201 5.062-6.441 6.903-4.601 2.3 2.3 4.6 6.901 4.6 11.502 0 4.601 6.901 4.601 11.502 4.601 4.601 0 2.3 16.102 0 20.703-2.3 4.6-13.804 2.3-27.606-4.601ZM513.115 353.82c-13.802-6.901-27.744-20.272-18.542-36.375.002-9.2 18.257 11.933 25.3 6.901 2.646-1.891 29.905-13.802 29.905-9.201 0 4.601-9.06 20.273-4.46 20.273 4.601 0 6.76 32.634 4.46 37.235-2.301 4.601-22.861-11.932-36.663-18.833ZM246.135 483.069c-2.3-13.802 6.901-6.901 11.502-6.901 3.067 1.534 8.742 5.521 6.902 9.202-2.301 4.6-9.202 13.802-9.202 20.703s-2.3 16.102-11.501 18.402c-9.202 2.301-16.103-4.6-16.103-18.402 0-13.802 20.703-9.202 18.402-23.004ZM333.854 406.846c3.951-13.423 9.22-3.199 13.36-1.192 2.091 2.718 5.458 8.781 2.197 11.29-4.077 3.136-14.301 8.406-17.311 14.615-3.011 6.21-9.095 13.486-18.378 11.542-9.283-1.944-12.482-11.164-6.461-23.584 6.021-12.419 22.642.752 26.593-12.671Z"/><path fill="#5F016F" d="M80.513 411.758c-2.3-11.502-6.9-6.9 4.6-36.804 11.505-13.801 20.706-19.324 29.907-23.005 11.502-4.6 6.901 18.404 2.3 25.304-5.104 7.656-18.402 25.304-20.703 32.205-2.3 6.901 16.103 13.802 27.604 25.303 11.502 11.502 11.502 13.802 4.601 36.805-6.901 23.004-34.505-16.101-36.805-27.603-2.3-11.502-9.204-20.703-11.504-32.205Z"/><path fill="#5F016F" d="M80.513 411.758c-2.3-11.502-6.9-6.9 4.6-36.804 11.505-13.801 20.706-19.324 29.907-23.005 11.502-4.6 6.901 18.404 2.3 25.304-5.104 7.656-18.402 25.304-20.703 32.205-2.3 6.901 16.103 13.802 27.604 25.303 11.502 11.502 11.502 13.802 4.601 36.805-6.901 23.004-34.505-16.101-36.805-27.603-2.3-11.502-9.204-20.703-11.504-32.205ZM693.846 536.415c-9.385 7.035-3.25 9.201-35.19 11.72-17.413-4.427-26.364-10.347-33.653-17.061-9.111-8.393 13.629-14.163 21.838-12.988 9.109 1.304 30.766 5.691 37.984 4.791 7.219-.901 41.251-38.62 46.668-53.958 5.417-15.337-30.632-60.715-6.901-64.409 23.73-3.694 73.794 13.667 64.409 20.703-9.385 7.035-85.77 104.166-95.155 111.202ZM461.604 359.554c11.727-.259 7.998-5.592 35.438 10.95 11.583 13.734 15.416 23.757 17.435 33.46 2.524 12.128-19.325 3.585-25.317-2.149-6.648-6.361-21.705-22.534-28.099-26.003-6.394-3.468-16.399 13.448-29.731 22.768-13.332 9.319-15.597 8.918-37.044-1.89-21.447-10.808 21.874-31.167 33.601-31.426 11.726-.259 21.991-5.452 33.717-5.71ZM250.766 573.685c-13.802-18.403-4.601-20.703 6.901-29.905 6.9-.766 20.702-5.52 20.702-18.402 0-16.103 9.201-18.403 13.802-23.004 4.601-4.6 16.102 9.202 18.403 23.004 2.3 13.802-23.004 18.402-32.205 36.805-9.201 18.403 9.201 9.201 25.304 11.502 16.102 2.3-2.301 29.904-11.502 29.904s-27.603-11.502-41.405-29.904ZM335.515 388.594c-14.36-2.338-15.768-20.541-5.141-31.791 8.717-3.74 24.714-11.453 18.971-12.389-7.18-1.169-23.077 1.402-52.898-10.088-29.82-11.489 1.604-18.901 9.519-13.19 7.914 5.711 24.612-6.31 38.304-22.505 13.693-16.196 43.813 11.557 36.565 24.38-7.247 12.823-5.044 26.448-14.997 51.359-9.953 24.912-15.964 16.563-30.323 14.224ZM1002.61 477.62c-9.952-10.609-27.343-21.04-12.06-23.477 9.189 2.351 13.66-3.137 9.68-7.381-4.976-5.304 4.43 9.196-12.199-18.093-16.63-27.29 9.555-40.487 12.349-31.134 2.79 9.352-5.157 28.078 15.57 23.591 20.73-4.488 18.04 23.82 4.48 29.564-13.56 5.745-6.97 22.196-1.69 24.825 3.31 1.644-6.17 12.714-16.13 2.105Z"/><path fill="#5F016F" d="M697.002 487.67c-14.359-2.338-40.533-39.355-29.906-50.605 8.717-3.74-20.703-3.382-20.703-9.202 0-4.599 15.722-8.436-14.098-19.926-29.821-11.489 19.986-50.194 27.9-44.483 7.914 5.711 6.23 24.983 19.922 8.788 13.693-16.196 43.813 11.557 36.566 24.38-7.248 12.823-2.829 6.328-12.782 31.24-9.953 24.911 7.46 62.147-6.899 59.808ZM443.965 326.647c-4.601-9.202 11.501-11.502 13.802-11.502 3.834 0 11.501 1.38 11.501 6.901 0 6.901 9.202 2.3 11.502 4.601 2.3 2.3-11.502 16.102-16.102 13.802-4.601-2.301-16.103-4.601-20.703-13.802ZM727.728 384.157c-4.6-9.201 11.502-11.502 13.802-11.502 3.834 0 26.782-14.723 26.782-9.202 0 6.901-12.849 18.402-16.102 18.402-10.024-.002-11.502 16.102-16.102 13.802-4.601-2.301-3.779-2.299-8.38-11.5ZM529.898 568.182c-4.6-9.202 11.502-11.502 13.802-11.502 3.834 0 11.502 1.38 11.502 6.901 0 6.901-8.795 7.397-11.502 9.201-6.901 4.601-3.122 13.802-7.723 11.502-4.6-2.3-1.478-6.901-6.079-16.102Z"/><path fill="#5F016F" d="M485.373 591.185c-4.601-9.201 18.401-66.71 25.304-41.406 18.403-2.3 0 26.684 0 32.205 0 6.901 52.907 4.6 55.207 6.901 2.301 2.3-20.703 29.904-25.303 27.604-4.601-2.301-50.608-16.103-55.208-25.304ZM295.265 480.769c-4.601-9.201 11.501-11.502 13.802-11.502 3.833 0 11.501 1.381 11.501 6.901 0 6.901 9.202 2.301 11.502 4.601 2.3 2.3-11.502 16.102-16.102 13.802-4.601-2.3-16.103-4.601-20.703-13.802ZM566.705 361.152c-4.6-9.202 1.477-43.707 3.778-43.707 3.834 0 16.102 42.787 16.102 48.307 0 6.901 34.505 4.601 36.805 6.901 2.301 2.301-52.084 27.604-56.685 25.304-4.6-2.3 4.601-27.604 0-36.805Z"/><path fill="#5F016F" d="M549.78 418.66c-4.601-9.201-11.503-27.604-9.203-27.604 3.834 0 16.102 10.582 16.102 16.102 0 6.901 27.604-6.901 29.905-4.6 2.3 2.3-29.905 39.105-34.505 36.805-4.601-2.3 2.301-11.502-2.299-20.703ZM186.863 326.274c7.577 6.959-6.65 14.844-8.799 15.664-3.583 1.366-11.239 2.807-13.206-2.351-2.458-6.449-9.417 1.128-12.386-.202-2.969-1.33 5.011-19.143 10.13-18.633 5.118.511 16.685-1.437 24.261 5.522ZM282.065 299.864c-4.443 9.279-10.071 8.705-11.482 6.889-2.352-3.028-20.255-14.383-15.895-17.77 5.449-4.235 10.457-4.224 10.862-7.452.405-3.227 33.964 2.84 34.971 7.884 1.006 5.044-14.013 1.17-18.456 10.449ZM71.847 422.888c7.576 6.959-6.65 14.845-8.8 15.664-3.582 1.366-11.239 2.807-13.205-2.351-2.459-6.449-3.166-9.31-6.134-10.64-2.97-1.33-1.241-8.705 3.877-8.195 5.118.511 16.685-1.437 24.262 5.522ZM202.431 319.745c-6.901-25.304 13.802-9.201 16.103-11.502 8.434 1.534 27.143 6.442 34.504 13.803 9.201 9.201-2.301 32.205-16.103 41.406-13.802 9.201-20.702 29.904-13.802 52.908 6.901 23.003 52.908-27.604 57.509 0 4.6 27.604-34.504 29.904-62.108 23.003s-18.403-25.304-13.802-36.805c4.6-11.502 16.102-41.406 13.802-46.007-2.301-4.601-9.202-11.502-16.103-36.806ZM603.391 432.369c8.07-24.956 16.587-.15 19.772-.816 6.22 5.899 19.194 20.244 21.327 30.433 2.667 12.736-19.547 25.697-36.134 25.847-16.587.149-33.692 13.702-40.502 36.732-6.811 23.03 59.388 5.845 48.135 31.467-11.254 25.623-45.244 6.151-64.573-14.73-19.329-20.881-1.557-31.249 8.587-38.359 10.144-7.109 36.135-25.846 36.726-30.956.592-5.109-1.407-14.663 6.662-39.618ZM177.128 455.465c11.502-4.601 18.403 2.3 20.703 4.601 3.067 3.834 5.979 12.422-6.902 16.102-16.103 4.601-6.901 13.802-2.301 16.103 4.601 2.3 4.601 13.802 2.301 36.805-1.841 18.403-9.967 9.201-13.801 2.3-3.067-6.901-10.581-21.623-16.102-25.303-6.901-4.601-13.802-18.403-11.502-27.604 2.301-9.202 16.103-18.403 27.604-23.004ZM361.342 612.057c-2.225-12.186 5.909-17.579 8.621-19.377 4.366-2.244 24.648-10.251 25.697 3.105 1.311 16.695 8.916 21.417 12.084 17.365 3.168-4.052 5.909-3.485 27.998 3.338 17.67 5.458 4.248 24.805-3.277 27.192-7.372 1.635-32.101 7.234-36.804 11.914-5.88 5.85-17.14-14.32-25.701-18.402-8.561-4.082-6.393-12.949-8.618-25.135ZM89.711 503.772c-4.6-9.201 2.302-9.201 6.901-6.901 4.601.767 13.804 2.761 13.804 4.601 0 2.3-4.601 9.201-4.601 11.502 0 2.3 16.102 6.901 25.304 18.402 9.201 11.502-16.103 16.103-27.604 11.502-11.502-4.601-2.301-11.502-4.601-16.102-2.3-4.601-4.602-13.802-9.203-23.004ZM392.574 302.621c-4.601-9.201 2.302-9.201 6.901-6.901 4.601.767 13.803 2.76 13.803 4.601 0 2.3-4.601 9.201-4.601 11.501 0 2.301 16.103 6.901 25.304 18.403 9.201 11.502-16.102 16.102-27.604 11.502-11.502-4.601-2.3-11.502-4.601-16.103-2.3-4.6-4.602-13.802-9.202-23.003Z"/><path fill="#5F016E" d="M929.334 437.063c-13.802-6.901-41.403 11.501-32.201-4.601.002-9.201 25.159-20.272 32.202-25.304 2.647-1.891 29.905-13.802 29.905-9.201 0 4.601-9.444 23.489-11.502 27.604-4.602 9.201 13.803 25.303 11.502 29.904-2.3 4.601-16.104-11.501-29.906-18.402Z"/><path fill="#5F016F" d="M860.323 427.86c11.727-.259 18.738 8.913 46.178 25.455 11.583 13.734 25.411-4.393 27.43 5.31 2.524 12.127-29.32 31.735-35.312 26.001-6.648-6.361-27.301-27.843-33.695-31.311-6.394-3.469-41.408 46.007-46.009 31.311-4.86-15.523 23.75-15.195 2.303-26.003-21.447-10.807-14.03-21.302-2.303-21.561 11.726-.259 29.682-8.943 41.408-9.202ZM853.426 409.459c-4.601-9.202 6.898-39.106 9.199-39.106 3.834 0 4.6 24.384 4.6 29.904 0 6.901 16.101-20.703 27.604 0 1.58 2.844-2.3 29.905-6.901 27.604-4.6-2.3-29.902-9.201-34.502-18.402ZM792.834 373.929c-4.6-9.201 37.588-3.576 42.187-1.276 4.601.767 9.983 16.102 2.3 16.103-7.784.001-19.183 3.577-19.183 5.878 0 2.3 16.102 6.901 25.303 18.402 9.202 11.502-16.102 16.103-27.604 11.502-11.501-4.601-33.722-36.807-36.022-41.407-2.301-4.601 17.62 0 13.019-9.202Z"/></svg>