<svg xmlns="http://www.w3.org/2000/svg" width="884" height="512" fill="none"><path fill="#1E0500" d="M669.308 104.483C633.44-13.864 500.627 76.51 496.502 84.735c-.368 21.261.127 67.486 5.048 82.306 4.92 14.82 103.485 63.903 152.152 86.592 17.158-10.267 44.3-54.472 15.606-149.15Z"/><path fill="#F14424" fill-rule="evenodd" d="M572.054 46.906c11.505-2.566 23.345-3.672 34.754-2.33l-33.3 98.057 13.069 4.438L620.4 47.473c9.553 3.044 18.541 8.262 26.452 16.311l-55.928 86.774 11.601 7.477 53.448-82.925c5.254 7.922 9.774 17.618 13.336 29.373a132.81 132.81 0 0 1 .252.833l-71.474 58.913 8.779 10.65 66.738-55.01c2.549 10.02 4.438 19.414 5.762 28.204l-63.681 32.914 6.337 12.261 59.088-30.54c4.774 55.229-14.251 83.052-27.407 90.925-48.667-22.689-147.231-71.772-152.152-86.592-4.921-14.82-5.415-61.046-5.047-82.306 1.023-2.04 9.961-9.132 23.373-16.841v79.328h13.802v-86.61c7.393-3.568 15.523-6.967 24.041-9.75l-10.239 91.097 13.716 1.542 10.857-96.595Z" clip-rule="evenodd"/><path fill="#1E0500" d="M325.45 36.96c-68.539-95.883-111.012 66.352-110.165 76.692 8.282 21.01 27.054 65.971 35.891 77.74 8.837 11.768 86.792 5.034 124.665.197 6.05-19.582 4.441-77.921-50.391-154.628Z"/><path fill="#F14424" fill-rule="evenodd" d="M267.099 11.408c5.669-3.337 11.751-5.058 18.222-4.551l2.443 57.888 9.193-.388-2.333-55.276c5.884 2.342 12.047 6.55 18.473 13.017l-9.454 45.67 9.01 1.866 8.061-38.943a144.41 144.41 0 0 1 4.734 6.27c54.832 76.707 56.441 135.046 50.391 154.628-37.873 4.837-115.828 11.571-124.665-.197-8.837-11.769-27.609-56.73-35.891-77.74-.39-4.758 8.393-41.68 24.668-70.814l12.439 40.01 8.787-2.732-14.826-47.686c3.865-5.674 8.062-10.768 12.574-14.894l10.237 52.126 9.029-1.773-11.092-56.48Z" clip-rule="evenodd"/><path fill="#1E0500" d="M266.838 425.562c-7.361-20.243-10.735-34.505-11.502-39.105 90.48 1.533 271.439 5.98 271.439 11.501 0 6.901-2.3 23.004-13.802 46.007-11.501 23.003-55.208 59.809-62.109 64.409-6.901 4.601-13.802 4.601-20.703 0-6.901-4.6-13.802-6.901-23.003-4.6-9.201 2.3-11.502 6.901-18.403 4.6-6.901-2.3-18.402-6.901-39.105-23.003-20.703-16.102-36.806 2.3-50.608 0s-23.003-34.505-32.204-59.809Z"/><path fill="#F14424" fill-rule="evenodd" d="M431.63 390.951c12.701.464 24.741.954 35.718 1.466l-56.31 110.637c-1.201.141-2.44.366-3.725.681l37.059-108.43-12.742-4.354Zm-3.418 116.188a36.971 36.971 0 0 0-2.952-1.6l57.189-112.364c26.831 1.454 44.326 3.067 44.326 4.783 0 6.901-2.3 23.004-13.802 46.007-11.501 23.003-55.208 59.809-62.109 64.409-2.984 1.989-5.968 3.119-8.952 3.388l75.068-103.394-11.169-8.109-77.599 106.88ZM287.643 387.056c10.532.212 21.656.449 33.112.711l3.926 91.711c-2.729.578-5.366 1.414-7.922 2.282l-29.116-94.704Zm57.664 95.386c-2.328-1.332-4.595-2.252-6.806-2.846l-3.917-91.504c32.306.778 66.368 1.739 96.695 2.846L390.96 508.906a12.431 12.431 0 0 1-2.205-.532 80.073 80.073 0 0 1-9.162-3.668l26.209-109.829-13.425-3.204-25.31 106.062a188.093 188.093 0 0 1-8.963-6.046l11.81-99.097-13.705-1.634-10.902 91.484Zm-72.19-95.668c-6.231-.116-12.179-.223-17.781-.317.767 4.6 4.141 18.862 11.502 39.105 1.271 3.497 2.543 7.126 3.827 10.79 8.005 22.844 16.483 47.036 28.377 49.019 1.447.241 2.92.255 4.42.104l-30.345-98.701Z" clip-rule="evenodd"/><path fill="#F14424" d="M484.441 75.333C333.053 19.795 75.694 90.478 0 151.065c5.046 38.71 25.231 126.222 90.833 171.667 77.173 53.461 262.405 95.929 439.024 95.929C701.43 368.167 723.647 249.05 741.8 297.483c15.139 40.391 23.549 80.782 25.231 95.929 18.461-13.464 106.88-51.499 111.018-95.929 28.259-121.174-63.92-168.298-111.018-176.712 1.682 43.757-7.065 121.173-55.509 80.782-48.444-40.391-171.572-100.976-227.081-126.22Z"/><ellipse cx="34.938" cy="37.788" fill="#fff" rx="34.938" ry="37.788" transform="matrix(.98201 -.18882 .20845 .97803 69.01 137.414)"/><ellipse cx="27.051" cy="31.169" fill="#000" rx="27.051" ry="31.169" transform="matrix(.98498 -.17267 .19076 .98164 78.21 142.091)"/><path fill="#FFD3D3" d="M239.236 170.225c7.361-51.527-28.371-87.412-46.007-96.614l34.505-6.9c5.368 6.9 21.163 30.824 41.406 71.31 25.304 50.607-13.802 105.815-29.904 144.92-16.102 39.106-75.911 71.311-89.713 69.01-11.042-1.84-39.873-17.635-52.908-25.303 1.534 0 11.042-1.84 36.806-9.202 32.204-9.201 96.614-82.812 105.815-147.221ZM403.755 158.712c7.304-51.522-28.151-94.303-45.65-103.503l42.155 2.3c5.326 6.9 13.081 28.52 33.167 69.002 25.108 50.601-13.695 105.803-29.672 144.904-15.978 39.101-54.21 133.444-67.905 131.144-10.956-1.84-58.376-6.135-71.31-13.802 1.522 0 33.177-50.759 50.197-71.341 22.825-27.601 79.888-94.303 89.018-158.704ZM519.878 195.529c7.398-47.08 10.825-97.408-6.901-105.815l46.006 20.703c5.395 6.305-15.746 18.216 4.601 55.208 25.433 46.239 12.286 92.828-3.899 128.559-16.185 35.73-39.737 126.579-53.609 124.477-11.099-1.681-60.509.105-73.611-6.901 1.541 0 49.468-52.502 66.709-71.31 23.122-25.222 11.455-86.071 20.704-144.921ZM632.592 149.522c.97.331 1.857.88 2.664 1.628l38.742 23.676c5.463 4.585-39.004 3.004-18.402 29.904 25.752 33.625-11.502 69.01-3.948 93.488 9.06 29.353 8.548 53.734-7.554 65.235-9.198 6.57-55.744 41.9-69.01 36.805 1.561 0 22.485-57.026 39.942-70.702 23.412-18.341 10.665-21.311 18.857-62.717 5.636-28.493 15.516-102.588 1.373-115.689l-2.664-1.628Z"/><path fill="#1E0500" d="m729.205 285.242 2.3-71.31 16.103-6.901c2.3-.767 9.201-6.901 13.802-25.304 4.498-17.992 2.3-48.307 4.6-62.109 23.004 2.3 63.49 22.083 78.212 36.805 18.402 18.403 43.818 63.234 39.105 112.717-4.6 48.307-18.402 55.208-23.003 64.409-4.601 9.201-92.013 64.409-92.013 59.809 0-4.601-20.703-78.212-25.304-92.014-3.68-11.041-10.735-15.335-13.802-16.102Z"/><path fill="#F14424" fill-rule="evenodd" d="m742.415 212.332 3.047-4.382-13.957 5.982-2.3 71.31c3.067.767 10.122 5.061 13.802 16.102 4.601 13.802 25.304 87.413 25.304 92.014 0 1.774 13.003-5.349 29.244-15.298l-59.327-93.337 10.974-6.975 59.388 93.432c13.349-8.461 27.359-17.824 37.458-25.246L749.1 277.547l7.571-10.732-.296-.105 4.274-12.104-.094-.001.035-13.113-3.552-11.637-.126.077-7.005-11.463.71-.433-8.202-5.704Zm117.909 121.217c-.405.81-1.453 1.978-3.027 3.43l-98.306-69.345 116.13 40.998c-3.64 9.445-7.649 14.768-10.781 18.926l-.001.001c-1.637 2.174-3.035 4.03-4.015 5.99Zm-96.754-78.936 115.594 40.809c1.701-7.074 3.154-15.681 4.163-26.282.456-4.786.63-9.528.556-14.206l-120.313-.321Zm111.165-47.563c3.838 10.524 6.789 22.008 8.217 34.079l-118.805-.316 110.588-33.763Zm-113.438 20.202 108.138-33.015c-4.315-9.3-9.207-17.562-14.105-24.451l-94.033 57.466Zm38.632-97.632-40.078 57.637a93.014 93.014 0 0 0 1.559-5.53c2.649-10.598 2.976-25.471 3.266-38.727.203-9.249.389-17.71 1.334-23.382 9.378.938 21.661 4.781 33.919 10.002Zm-46.915 86.951 57.193-82.25c14.074 6.885 26.983 15.071 34.015 22.102.87.87 1.756 1.8 2.653 2.786l-93.861 57.362Z" clip-rule="evenodd"/></svg>