<svg xmlns="http://www.w3.org/2000/svg" width="1343" height="753" fill="none"><path fill="#FF9166" d="M591.997 90.318c-106.491 12.127-227.631 125.355-274.889 180.453l-53.313 40.099c134.005 26.188 407.083 78.942 427.354 80.45 25.338 1.885 82.437-18.928 147.851-61.677 65.413-42.749-64.321-131.967-96.092-151.246-31.771-19.28-79.8-24.941-.013-55.97 63.83-24.823 69.953-37.33 65.036-40.48-27.607-2.262-109.444-3.756-215.934 8.371Z"/><path fill="#92BED7" d="M517.786 290.634C168.135 251.528 96.826 437.855 85.323 440.155c-13.035 4.602-43.246 13.804-59.808 13.804-20.703 0-18.403 0-9.201 11.501 9.2 11.502 16.102 13.802-9.202 20.703-25.304 6.901 20.703 27.604 78.211 92.014 57.509 64.409 117.317 89.712 193.228 126.518 75.911 36.805 292.143 48.307 480.77 48.307s218.532-105.816 250.739-135.72c25.76-23.923 84.34-9.968 110.41 0 13.04 24.537 61.65 82.812 151.83 119.617 112.71 46.007 46-89.713 27.6-119.617-18.4-29.904-27.6-27.604-27.6-103.515s0-41.406 27.6-87.412c27.6-46.007-4.6-121.918-27.6-112.717-18.41 7.361-108.89 108.883-151.83 158.723-39.1 11.502-122.375 23.924-142.617-18.402-25.304-52.908-110.416-124.219-460.067-163.325Z"/><path fill="#7E82E1" d="M622.054 569.826c73.847-107.34-116.356-111.898-174.322-117.07-27.802-7.594-55.574-9.05-68.626-.282-16.315 10.959 35.69 102.843 39.96 108.732 13.396 18.478 20.963 33.127 36.399 48.381 15.436 15.254 67.105 8.228 50.607-11.502-13.197-15.784-9.405-25.328-6.128-34.773 2.321 23.09 79.739 56.438 122.11 6.514Z"/><ellipse cx="34.938" cy="37.788" fill="#fff" rx="34.938" ry="37.788" transform="matrix(.98201 -.18882 .20845 .97803 142.622 413.453)"/><ellipse cx="27.141" cy="27.483" fill="#000" rx="27.141" ry="27.483" transform="matrix(.98495 -.17286 .19095 .9816 152.272 421.232)"/><path fill="#7E82E1" d="m1120.26 616.489 2.3-144.921 92.02-105.814c12.26-18.403 46.46-57.049 66.71-55.209 25.3 2.3 32.2 66.71 32.2 92.014 0 20.243-18.4 36.805-29.9 48.307-6.91 11.502-11.51 28.288-11.51 50.607 0 46.007 5.37 72.844 11.51 85.113 28.37 48.306 85.11 149.981 39.1 161.023-46.01 11.041-179.42-71.311-202.43-131.12ZM604.988 110.416c-50.608 6.901-115.017 46.007-165.624 80.512-40.437 27.57-111.775 83.442-142.508 108.025l29.791-6.811c45.24-26.837 147.682-89.713 195.529-126.518 59.808-46.007 140.32-41.406 181.726-46.007 33.125-3.68 78.211-18.402 96.614-25.303h-52.908c-9.201 0-92.013 9.201-142.62 16.102Z"/><path fill="#7E82E1" d="M627.991 135.72c16.103-2.301 96.614-6.901 98.914-6.901l-13.802 6.901c-8.434 0-28.524.46-41.405 2.3-16.103 2.3-48.307 25.304-57.509 29.904-9.201 4.601-98.914 50.608-119.617 69.01-16.563 14.722-75.911 38.339-103.515 48.307l-43.706 4.601c30.671-12.268 101.674-43.246 140.32-69.01 48.307-32.205 124.218-82.812 140.32-85.112Z"/><path fill="#7E82E1" d="M563.581 218.531c27.604-13.802 27.604-11.502 59.809-41.407 25.763-23.923 61.342-28.37 75.911-27.604l4.6 6.903c-3.834 0-13.342-1.841-20.703 0-9.201 2.3-11.501 9.201-29.904 27.603-18.403 18.403-23.003 16.103-69.01 39.106-36.805 18.403-92.013 49.074-115.017 62.109h-36.805c34.505-17.636 109.036-55.668 131.119-66.71ZM692.4 177.126c7.361-9.202 15.335-15.336 18.402-16.103l11.502 6.901c-5.367 2.301-17.022 9.662-20.703 20.703-4.601 13.802 0 16.103-6.901 25.304-6.901 9.201-18.402 50.607-85.112 57.508-53.368 5.521-74.378 16.103-78.211 20.703l-32.205-6.901c1.533-1.533 5.981-5.06 11.502-6.901 6.901-2.3 32.204-9.201 66.709-16.102s94.314-52.908 103.515-64.409c9.202-11.502 2.301-9.202 11.502-20.703Z"/><path fill="#7E82E1" d="M729.205 200.128c1.84-16.562 11.501-19.169 16.102-18.402l9.201 4.601c-2.3 0-8.281 6.441-13.802 32.205-6.901 32.204 29.905 11.501 36.806 34.505 6.901 23.003-39.106 29.904-59.809 32.204-20.703 2.301-23.003 4.601-43.706 9.202-16.563 3.68-32.972 9.201-39.106 11.501l-27.604-6.901c16.869-6.134 52.448-18.862 59.809-20.703 9.201-2.3 36.805-6.901 46.006-11.501 9.202-4.601 11.502-16.103 11.502-29.905s2.3-16.103 4.601-36.806Z"/><path fill="#7E82E1" d="M798.215 246.136c0-14.722-4.6-29.905-6.901-34.505l13.802 11.501s-4.14-.46-2.3 6.901c2.3 9.202 4.601 11.502 11.502 29.905 6.901 18.402 0 13.802-4.601 29.904s-16.102 11.502-39.106 23.003c-18.402 9.202-23.003 13.036-23.003 13.802l-27.604-9.201 6.901-6.901c4.601-3.067 15.642-10.121 23.003-13.802 9.202-4.601 25.304-9.201 41.406-23.003 16.103-13.802 6.901-9.202 6.901-27.604Z"/><path fill="#3844B2" d="m395.656 457.765-13.802-6.901 16.105-4.599c6.134 3.067 19.783 9.661 25.303 11.5 6.901 2.3 6.901 9.203 6.901 18.404s4.601 16.102 6.901 18.403c2.301 2.3 9.202-2.301 16.103-2.301 6.901 0 16.102 4.601 20.703 16.103 4.6 11.501-2.301 13.802-4.601 18.402-2.057 4.115 2.3 4.601 4.601 13.802 1.84 7.361 13.035 16.869 18.402 20.703 0 2.301-2.76 6.441-13.802 4.601-13.802-2.3-18.402-25.304-20.703-29.904-2.3-4.601-2.3-6.901-4.6-20.703-2.301-13.802-9.202-9.202-18.403-9.202-9.201 0-6.901-6.901-11.502-16.102-4.6-9.201 0-6.901-2.3-16.102-2.3-9.202-6.903-6.902-25.306-16.104ZM441.665 453.166c.318 0 .767.131 1.348.389 5.77 1.678 15.958 4.813 19.355 6.512 4.601 2.3 20.703 11.501 27.604 13.802 6.901 2.3 23.003 11.501 25.304 13.802 2.3 2.3 6.901 25.303 9.201 36.805 2.3 11.502 4.601 18.403 13.802 34.505 9.201 16.102 41.406 20.703 43.706 32.205 2.301 11.501-36.805-13.802-41.406-16.103-4.6-2.3-23.003-25.303-32.204-36.805-9.202-11.502-4.601-23.003-4.601-34.505 0-11.502-18.403-20.703-34.505-32.205-13.878-9.913-22.63-16.408-26.256-18.013-.482-.141-.934-.271-1.348-.389ZM512.975 464.667c-9.201-3.68-17.635-7.667-20.703-9.201 8.435.767 28.985 4.601 34.505 4.601 6.901 0 18.403 6.901 23.004 11.501 4.6 4.601 0 25.304 0 41.406 0 16.103 6.901 18.403 20.703 18.403s32.204 6.901 41.406 11.502c9.201 4.6 6.901 9.201 6.901 13.802 0 4.6-6.901 2.3-6.901-2.301 0-4.6-23.004-13.802-32.205-11.501-9.201 2.3-16.102 4.6-20.703 0-4.601-4.601-13.802-20.703-16.102-29.905-2.301-9.201-2.301-18.402-4.601-29.904-2.3-11.502-13.802-13.802-25.304-18.403Z"/><path fill="#3844B2" d="m568.183 483.07-6.901-16.102 9.202 9.201c3.067 5.367 9.661 16.562 11.501 18.403 2.301 2.3 13.802 2.3 25.304 4.6 11.502 2.301 11.502 6.901 16.102 9.202 4.601 2.3 4.601 16.102 4.601 18.402 0 2.301-6.901 2.301-11.502-2.3-4.6-4.601-9.201-9.201-27.604-13.802-18.402-4.601-13.802-11.502-20.703-27.604ZM384.154 485.37c-11.041-11.041-9.202-22.236-6.901-25.303 3.833.766 11.5 5.981 11.5 11.501 0 6.901 9.202 13.802 18.403 20.703 9.201 6.901 6.905 16.103 16.106 23.004 9.202 6.901 13.802 2.3 16.103 20.703 2.3 18.402-2.301 16.102 0 25.303 1.84 7.361 12.268 32.205 11.501 34.505 0 7.668-.924 3.221-4.604-2.3-4.601-6.901-13.802-29.904-16.103-50.607-2.3-20.703-11.501-23.004-20.703-34.505-9.201-11.502-11.5-9.202-25.302-23.004Z"/><path fill="#3844B3" d="M618.79 545.179c20.242-23.923-18.403-59.809-39.106-73.611 17.636 3.834 57.968 19.783 59.809 43.707 2.3 29.904-4.601 34.505-20.703 62.109-16.103 27.604-75.911 18.402-94.314 11.501-14.209-5.328-23.003-13.802-25.304-23.003 0 2.3 1.841 4.141 0 11.502-2.3 9.201 6.901 9.201 9.202 13.802 2.3 4.6 6.901 20.703-13.802 32.204-16.563 9.202-39.106-9.968-48.307-20.703l-25.304-39.105c9.201 2.3 29.904 12.421 39.106 34.505 9.201 22.083 18.402 17.636 27.604 11.501 4.6-4.6 4.6-11.501 2.3-16.102-2.3-4.601-11.502-4.601-11.502-34.505 0-23.923 21.47-13.035 32.205-4.601 13.035 7.668 39.566 23.004 41.406 23.004 2.3 0 41.406-2.301 66.71-32.205Z"/><path fill="#3844B2" d="M1122.56 494.571v-23.004c3.84.767 12.42 1.841 16.1.001 4.6-2.301 55.21-32.205 59.81-43.707 4.6-11.501 25.31-25.303 43.71-41.405 18.4-16.103 25.3-13.803 41.4-27.605 12.89-11.042 20.71-7.668 23.01-4.601v11.502c-2.3.767-4.14 0-11.5 0-9.2 0-43.71 34.505-57.51 43.706-13.8 9.202-25.31 29.905-48.31 48.307-18.4 14.722-52.14 30.671-66.71 36.806ZM1122.56 529.076v-22.891c3.84.763 12.42 1.832 16.1.001 4.6-2.29 31.38-29.58 43.71-30.017 9.2-.327 57.51-27.683 75.91-43.707 18.4-16.023 27.61-16.17 43.71-29.904 12.88-10.988 6.9 1.549 9.2 4.601l-2.3 6.9c-2.3.763-6.44 16.102-13.8 16.102-9.2 0-36.81 13.847-50.61 23.004-13.8 9.156-32.21 20.973-55.21 39.285-18.4 14.651-52.14 30.522-66.71 36.626ZM1121.15 555.68v-20.8c3.74 3.02 17.14 9.024 26.12 7.212 11.23-2.265 26.96-13.588 49.42-27.175 22.47-13.588 20.22-11.323 26.96-15.852 5.39-3.624 26.21-6.039 35.94-6.794.75 8.303 1.8 24.91 0 24.91-2.25 0-15.72 0-35.94 2.265s-65.15 33.969-74.13 36.234c-7.19 1.811-22.38.755-28.37 0ZM1120.26 591.185l1.11-23.003c1.53.767 6.25 2.3 8.09 2.3 2.3 0 25.31 0 43.71-6.901 18.4-6.901 23-6.901 41.41-9.201 18.4-2.301 50.6-2.301 52.9 0 1.84 1.84 3.84 13.035 4.61 18.402-2.31.767-9.21 2.301-18.41 2.301-11.5 0-18.4 0-39.1-2.301-20.71-2.3-29.91 0-46.01 4.601-16.1 4.601-16.1 6.901-29.9 13.802-11.05 5.521-16.87 3.067-18.41 0ZM1150.17 625.691c-12.88-12.882-25.31-9.202-29.91-9.202v-4.601c-.01-11.501 57.51 11.502 59.81 18.403 2.3 6.901 13.8 4.601 34.51 16.103 20.7 11.501 34.5-2.301 41.4 0 5.52 1.84 37.57 6.901 52.91 9.201l13.8 32.205c-3.07 3.067-10.58 8.741-16.1 6.901-6.9-2.301-13.8-11.502-29.9-20.703-16.11-9.202-23.01-4.601-36.81 2.3s-20.7-4.601-48.31-23.003c-27.6-18.403-25.3-11.502-41.4-27.604Z"/><path fill="#3844B2" d="M1258.28 602.687c23-4.6 16.1-4.6 20.7-4.6l4.6 6.9c-6.13 3.834-19.32 13.342-23 20.703-4.6 9.202-25.3-1.505-59.81-13.007-34.5-11.502-80.51-4.227-80.51-11.501v-5.395c-2.3-4.601 16.56 4.599 18.4 4.599h.01c2.3 0 20.7 0 41.4-2.299 20.7-2.301 20.7 0 29.9 2.3 9.21 2.3 25.31 6.901 48.31 2.3Z"/><path fill="#3844B2" d="M1239.88 333.548c-14.72 11.041-84.35 96.614-117.32 138.02 5.52 0 16.1-4.601 20.71-6.901 22.23-26.07 67.16-79.131 69.01-82.812 2.3-4.6 23-20.703 46-48.307 23.01-27.605 27.61 0 41.41 32.205 13.8 32.205-11.5 69.01-16.1 71.31-4.61 2.301-27.61 39.106-29.91 50.608-2.3 11.501 0 75.91 36.81 140.32 36.8 64.409 34.5 87.412 32.2 101.214-2.3 13.802-55.21-9.201-89.71-20.703-34.51-11.501-112.72-94.313-112.72-92.013 0 1.84 7.67 17.636 18.4 32.205 20.71 25.303 111.8 91.553 154.13 98.914 42.32 7.361 47.54-4.601 48.3-13.802 4.6-20.703-6.9-66.71-29.9-105.815-23-39.106-32.06-44.702-36.81-87.413-4.6-41.406 4.6-73.61 11.51-87.412 6.9-13.802 9.2-9.202 20.7-23.004 11.5-13.802 6.9-32.204 6.9-36.805 0-4.601 0-34.505-16.1-71.311-16.1-36.805-39.11-2.3-57.51 11.502Z"/><path fill="#FF9166" d="M62.108 552.08c2.06.824 3.603 2.754 5.766 5.447 4.64 4.386 9.84 9.303 15.344 14.514 19.283 13.3 61.042 29.609 162.917 37.547 177.126 13.802 462.367 36.805 547.479 27.604 68.09-7.361 170.992-16.869 213.936-20.703-10.74 23.77-41.871 75.451-80.516 92.013-48.307 20.703-20.703 43.707-209.331 43.707-188.627 0-342.749-20.703-393.357-32.205-50.607-11.502-151.822-62.109-165.624-75.911-8.681-8.681-46.371-44.475-75.504-72.052-8.24-5.683-12.375-10.817-15.344-14.514-2.036-1.925-3.966-3.747-5.766-5.447Z"/></svg>