<svg xmlns="http://www.w3.org/2000/svg" width="1920" height="1080" viewBox="0 0 1920 1080">
  <defs>
    <style>
      .cls-1 {
        fill: #122245;
      }

      .cls-1, .cls-2, .cls-4 {
        fill-rule: evenodd;
      }

      .cls-2 {
        fill: #e69f35;
      }

      .cls-3 {
        fill: #fff;
      }

      .cls-4 {
        fill: none;
        stroke: #000;
        stroke-width: 3.43px;
      }
    </style>
  </defs>
  <path id="nageoire_gauche" class="cls-1" d="M652.6,554.985c-4.439-6.032-133.72-125.5-167.556-115.788s-26.219,332.479,33.753,293.088,131.839-115.9,136.214-113.376S657.036,561.017,652.6,554.985Z"/>
  <path id="nageoire_bas" class="cls-1" d="M663.445,622.528s-20.224,24.74-19.287,33.771S662.61,847.326,837.029,872.2,1163.04,838.01,1197.45,772.087s-185.57,43.638-253.137,20.5S724.8,662.679,710.457,646.65,663.445,622.528,663.445,622.528Z"/>
  <path id="nageoire_haut" class="cls-1" d="M663.445,547.748s-31.347-33.94-28.93-43.421S710.5,256.99,820.152,223.3s312.808-34.05,399,148.354-7.23,25.328-7.23,25.328-85.52-74.339-120.54-79.6-199.724,7.276-249.53,53.07S663.445,547.748,663.445,547.748Z"/>
  <path id="corps" class="cls-2" d="M652.6,548.954c-9.184,1.021,3.041,13.955,3.617,33.772A174.341,174.341,0,0,1,653.8,617.7S798.824,803.167,993.736,808.271C1224.36,830.73,1273.3,686.543,1316.79,680.422s62.01-14.726,65.1-36.184-68.18-44.7-83.18-82.017-93.26-264.888-250.73-262.935C836.422,294.093,758.726,468.306,652.6,548.954Z"/>
  <path id="nageoire_centrale" class="cls-1" d="M1143.21,624.94s-29.19,90.963-126.57,92.872-3.94,39.1,10.85,38.6,77,1.991,98.84-24.123,47.89-81.138,45.81-83.223C1166.93,634.473,1143.21,624.94,1143.21,624.94Z"/>
  <circle id="yeux" class="cls-3" cx="1201.075" cy="505.531" r="40.985"/>
  <circle id="pupille" cx="1211.61" cy="512.422" r="23.77"/>
  <path id="Forme_1" data-name="Forme 1" class="cls-4" d="M1380.68,649.062s-39.78-2.833-53.04-9.649"/>
</svg>
