<svg width="1297" height="690" viewBox="0 0 1297 690" fill="none" xmlns="http://www.w3.org/2000/svg">
<path d="M297.355 131.673C230.403 133.856 261.87 237.242 285.972 288.662C290.214 286.879 304.5 282.872 327.711 281.104C356.724 278.894 468.196 276.965 539.375 291.968C596.318 303.971 645.2 333.999 662.522 347.513C666.128 350.157 678.996 341.589 701.621 286.171C724.245 230.753 676.342 216.116 649.562 215.725C618.06 213.991 548.829 211.145 523.922 213.626C492.788 216.728 450.069 192.261 423.64 170.929C397.21 149.598 381.043 128.944 297.355 131.673Z" fill="#AE4C92"/>
<path fill-rule="evenodd" clip-rule="evenodd" d="M303.801 131.506C311.88 131.353 319.295 131.431 326.125 131.717L327.246 267.365C327.251 267.917 327.702 268.361 328.255 268.357L335.456 268.297C336.008 268.292 336.452 267.841 336.447 267.289L335.331 132.253C344.299 132.931 352.157 134.008 359.135 135.418L350.468 271.385C350.433 271.936 350.851 272.411 351.402 272.446L358.589 272.904C359.14 272.939 359.616 272.521 359.651 271.97L368.218 137.565C374.22 139.208 379.5 141.132 384.263 143.277L369.474 275.596C369.412 276.144 369.808 276.639 370.357 276.7L377.513 277.5C378.062 277.562 378.557 277.166 378.618 276.618L393.02 147.763C397.554 150.379 401.638 153.209 405.537 156.176L391.738 279.632C362.739 279.427 338.99 280.244 327.709 281.103C304.498 282.871 290.212 286.879 285.97 288.661C266.98 248.148 243.418 175.375 267.024 145.259L288.013 275.59C288.101 276.136 288.614 276.507 289.159 276.419L296.269 275.274C296.814 275.186 297.185 274.673 297.097 274.128L275.258 138.514C275.223 138.295 275.119 138.105 274.972 137.961C280.158 134.585 286.633 132.442 294.6 131.823L303.664 267.484C303.701 268.035 304.177 268.452 304.728 268.415L311.914 267.935C312.465 267.898 312.882 267.422 312.845 266.871L303.801 131.506ZM400.986 279.73C404.649 279.783 408.379 279.852 412.163 279.939L424.288 171.452C424.07 171.277 423.854 171.103 423.638 170.929C421.259 169.009 418.964 167.095 416.694 165.202L416.69 165.199C415.802 164.458 414.918 163.721 414.034 162.988L400.986 279.73ZM437.783 280.805C432.26 280.557 426.784 280.353 421.393 280.187L432.818 177.971C436.384 180.575 440.141 183.176 444.041 185.72L437.783 280.805ZM446.975 281.257C450.799 281.461 454.637 281.687 458.476 281.937L464.035 197.475C460.26 195.499 456.537 193.409 452.899 191.244L446.975 281.257ZM482.537 283.831C477.605 283.37 472.636 282.954 467.655 282.58L472.966 201.883C476.926 203.717 480.912 205.398 484.887 206.884L482.537 283.831ZM491.715 284.747C497.139 285.324 502.497 285.959 507.754 286.657L509.992 213.362C504.806 212.73 499.442 211.554 493.999 209.944L491.715 284.747ZM531.146 290.34C526.533 289.483 521.781 288.69 516.92 287.956L519.182 213.888C520.788 213.866 522.368 213.78 523.92 213.626C526.091 213.409 528.6 213.233 531.391 213.094L531.146 290.34ZM540.341 292.174C545.923 293.372 551.425 294.742 556.826 296.251L557.092 212.661C551.191 212.636 545.628 212.67 540.594 212.779L540.341 292.174ZM579.82 303.67C575.32 302.027 570.715 300.456 566.019 298.981L566.293 212.742C570.796 212.801 575.426 212.887 580.108 212.994L579.82 303.67ZM589.01 307.18C594.607 309.411 600.01 311.735 605.186 314.104L611.39 213.966C604.213 213.692 596.755 213.439 589.309 213.229L589.01 307.18ZM624.867 323.841C621.445 322.017 617.865 320.18 614.142 318.352L620.587 214.335C626.277 214.573 631.69 214.819 636.66 215.06L624.867 323.841ZM633.601 328.655C636.777 330.465 639.778 332.242 642.587 333.963L669.08 218.272C662.203 216.568 655.382 215.81 649.56 215.725C648.38 215.66 647.147 215.593 645.865 215.525L633.601 328.655ZM657.549 343.813C655.54 342.377 653.294 340.831 650.827 339.201L677.892 221.011C685.586 223.936 692.829 228.242 698.227 234.331L657.549 343.813ZM666.05 347.351C671.998 344.446 683.773 329.882 701.619 286.171C708.995 268.101 708.874 254.368 704.432 244.05L666.05 347.351Z" fill="#2F0036"/>
<path d="M62.4224 396.905C49.5405 413.467 12.5797 417.607 2.61159 417.607C-2.75585 420.674 1.23356 427.268 4.91409 429.109C8.59462 430.949 20.2496 437.543 25.6171 440.61C31.7513 445.978 50.9208 471.435 78.5248 530.323C113.03 603.934 225.746 666.043 320.06 682.145C414.373 698.247 527.09 686.746 632.905 647.64C717.557 616.356 835.334 539.525 883.641 505.02C944.217 498.118 1067.67 485.697 1076.87 491.217C1086.07 496.738 1183.45 562.528 1230.99 594.732C1241.73 583.998 1268.72 541.365 1290.8 456.713C1312.88 372.06 1264.73 298.756 1237.89 272.686L1086.07 390.003C1040.06 386.936 935.169 378.501 883.641 369.3C819.232 357.798 612.202 307.191 570.796 291.089C529.39 274.986 444.278 268.086 379.868 263.485C315.459 258.885 259.938 267.276 202.743 284.188C144.714 301.347 78.5247 376.202 62.4224 396.905Z" fill="#F9D0ED"/>
<path d="M1074.25 489.971L1085.76 391.056L1237.58 271.439C1246.01 278.34 1265.64 299.043 1276.68 326.647C1290.49 361.152 1299.69 393.357 1292.79 457.766C1287.27 509.293 1249.08 569.715 1230.68 593.486L1074.25 489.971Z" fill="#AE4C92"/>
<path d="M509.121 424.659C472.316 402.576 392.571 420.059 357.299 431.56C354.999 454.563 351.778 509.77 357.299 546.576C362.82 583.381 404.073 586.448 424.009 583.381C494.571 568.182 518.323 499.189 527.524 484.467C539.026 466.064 555.128 452.263 509.121 424.659Z" fill="#AE4C92"/>
<path fill-rule="evenodd" clip-rule="evenodd" d="M374.845 426.408C368.262 428.159 362.329 429.92 357.3 431.56C357.266 431.902 357.232 432.25 357.197 432.606L448.566 437.063L522.366 433.463C519.548 431.344 516.33 429.139 512.669 426.836L439.365 423.261L374.845 426.408ZM485.964 416.387C465.575 412.467 440.493 413.934 416.904 417.564L439.365 418.66L485.964 416.387ZM356.07 446.175C355.861 449.114 355.657 452.243 355.467 455.525L448.566 460.066L539.652 455.623C539.136 452.55 537.779 449.334 535.29 445.894L448.566 441.663L356.07 446.175ZM354.485 478.704C354.57 475.489 354.676 472.327 354.798 469.241L448.566 464.667L537.154 468.988C535.558 472.25 533.429 475.484 531.215 478.813L443.965 483.069L354.485 478.704ZM354.264 492.046C354.243 495.398 354.249 498.773 354.287 502.147L434.764 506.073L518.439 501.991C519.932 499.111 521.267 496.442 522.464 494.048L522.467 494.042L522.467 494.042L522.476 494.025L522.499 493.978C522.92 493.137 523.324 492.33 523.711 491.56L443.965 487.67L354.264 492.046ZM355.141 525.641C354.903 522.016 354.718 518.319 354.58 514.585L434.764 510.673L511.612 514.422C509.571 517.907 507.328 521.527 504.86 525.208L425.563 529.076L355.141 525.641ZM356.101 537.065C356.444 540.343 356.842 543.522 357.3 546.576C357.436 547.478 357.592 548.359 357.77 549.221L416.36 552.079L485.937 548.685C489.634 544.912 493.03 541.027 496.151 537.12L425.563 533.677L356.101 537.065ZM372.642 573.174C367.979 569.657 364.002 565.132 361.184 559.372L416.36 556.68L474.037 559.494C467.779 564.521 460.835 569.134 453.126 573.065L411.759 575.083L372.642 573.174ZM411.759 579.683L434.053 580.771C430.815 581.762 427.469 582.636 424.01 583.381C414.694 584.814 400.725 584.908 387.921 580.846L411.759 579.683Z" fill="#2F0036"/>
<path d="M1225.32 373.171C1225.32 315.008 1203.59 306.342 1192.72 309.28L1227.49 280.64C1228.94 280.64 1237.92 290.334 1262.25 329.109C1292.67 377.578 1282.51 437.224 1279.63 463.5C1277.46 483.329 1244.87 558.97 1225.32 593.485L1173.17 558.235C1181.86 549.423 1201.85 528.273 1203.59 522.985C1205.76 516.376 1225.32 445.874 1225.32 373.171Z" fill="#2F0036"/>
<ellipse cx="157.203" cy="395.506" rx="35.0052" ry="39.6988" transform="rotate(-11.4441 157.203 395.506)" fill="white"/>
<ellipse cx="147.221" cy="394.216" rx="23.0787" ry="27.0206" transform="rotate(-10.4683 147.221 394.216)" fill="black"/>
<path d="M266.836 386.456C253.034 379.555 262.235 374.954 271.437 358.852C271.439 349.651 276.499 352.411 278.34 354.251C280.64 356.551 282.94 361.152 282.94 365.753C282.94 370.354 289.841 370.354 294.442 370.354C299.043 370.354 296.742 386.456 294.442 391.057C292.142 395.657 280.638 393.357 266.836 386.456Z" fill="#5F016E"/>
<path d="M513.115 353.82C499.313 346.919 485.371 333.548 494.573 317.445C494.575 308.245 512.83 329.378 519.873 324.346C522.519 322.455 549.778 310.544 549.778 315.145C549.778 319.746 540.718 335.418 545.318 335.418C549.919 335.418 552.078 368.052 549.778 372.653C547.477 377.254 526.917 360.721 513.115 353.82Z" fill="#5F016E"/>
<path d="M246.135 483.069C243.835 469.267 253.036 476.168 257.637 476.168C260.704 477.702 266.379 481.689 264.539 485.37C262.238 489.97 255.337 499.172 255.337 506.073C255.337 512.974 253.037 522.175 243.836 524.475C234.634 526.776 227.733 519.875 227.733 506.073C227.733 492.271 248.436 496.871 246.135 483.069Z" fill="#5F016E"/>
<path d="M333.854 406.846C337.805 393.423 343.074 403.647 347.214 405.654C349.305 408.372 352.672 414.435 349.411 416.944C345.334 420.08 335.11 425.35 332.1 431.559C329.089 437.769 323.005 445.045 313.722 443.101C304.439 441.157 301.24 431.937 307.261 419.517C313.282 407.098 329.903 420.269 333.854 406.846Z" fill="#5F016E"/>
<path d="M80.5128 411.758C78.2125 400.256 73.6121 404.858 85.1138 374.954C96.6175 361.153 105.819 355.63 115.02 351.949C126.522 347.349 121.921 370.353 117.32 377.253C112.216 384.909 98.9176 402.557 96.6172 409.458C94.3169 416.359 112.72 423.26 124.221 434.761C135.723 446.263 135.723 448.563 128.822 471.566C121.921 494.57 94.3171 455.465 92.0166 443.963C89.7162 432.461 82.8132 423.26 80.5128 411.758Z" fill="#5F016F"/>
<path d="M80.5128 411.758C78.2125 400.256 73.6121 404.858 85.1138 374.954C96.6175 361.153 105.819 355.63 115.02 351.949C126.522 347.349 121.921 370.353 117.32 377.253C112.216 384.909 98.9176 402.557 96.6172 409.458C94.3169 416.359 112.72 423.26 124.221 434.761C135.723 446.263 135.723 448.563 128.822 471.566C121.921 494.57 94.3171 455.465 92.0166 443.963C89.7162 432.461 82.8132 423.26 80.5128 411.758Z" fill="#5F016F"/>
<path d="M693.846 536.415C684.461 543.45 690.596 545.616 658.656 548.135C641.243 543.708 632.292 537.788 625.003 531.074C615.892 522.681 638.632 516.911 646.841 518.086C655.95 519.39 677.607 523.777 684.825 522.877C692.044 521.976 726.076 484.257 731.493 468.919C736.91 453.582 700.861 408.204 724.592 404.51C748.322 400.816 798.386 418.177 789.001 425.213C779.616 432.248 703.231 529.379 693.846 536.415Z" fill="#5F016F"/>
<path d="M461.604 359.554C473.331 359.295 469.602 353.962 497.042 370.504C508.625 384.238 512.458 394.261 514.477 403.964C517.001 416.092 495.152 407.549 489.16 401.815C482.512 395.454 467.455 379.281 461.061 375.812C454.667 372.344 444.662 389.26 431.33 398.58C417.998 407.899 415.733 407.498 394.286 396.69C372.839 385.882 416.16 365.523 427.887 365.264C439.613 365.005 449.878 359.812 461.604 359.554Z" fill="#5F016F"/>
<path d="M250.766 573.685C236.964 555.282 246.165 552.982 257.667 543.78C264.567 543.014 278.369 538.26 278.369 525.378C278.369 509.275 287.57 506.975 292.171 502.374C296.772 497.774 308.273 511.576 310.574 525.378C312.874 539.18 287.57 543.78 278.369 562.183C269.168 580.586 287.57 571.384 303.673 573.685C319.775 575.985 301.372 603.589 292.171 603.589C282.97 603.589 264.568 592.087 250.766 573.685Z" fill="#5F016F"/>
<path d="M335.515 388.594C321.155 386.256 319.747 368.053 330.374 356.803C339.091 353.063 355.088 345.35 349.345 344.414C342.165 343.245 326.268 345.816 296.447 334.326C266.627 322.837 298.051 315.425 305.966 321.136C313.88 326.847 330.578 314.826 344.27 298.631C357.963 282.435 388.083 310.188 380.835 323.011C373.588 335.834 375.791 349.459 365.838 374.37C355.885 399.282 349.874 390.933 335.515 388.594Z" fill="#5F016F"/>
<path d="M1002.61 477.62C992.658 467.011 975.267 456.58 990.55 454.143C999.739 456.494 1004.21 451.006 1000.23 446.762C995.254 441.458 1004.66 455.958 988.031 428.669C971.401 401.379 997.586 388.182 1000.38 397.535C1003.17 406.887 995.223 425.613 1015.95 421.126C1036.68 416.638 1033.99 444.946 1020.43 450.69C1006.87 456.435 1013.46 472.886 1018.74 475.515C1022.05 477.159 1012.57 488.229 1002.61 477.62Z" fill="#5F016F"/>
<path d="M697.002 487.67C682.643 485.332 656.469 448.315 667.096 437.065C675.813 433.325 646.393 433.683 646.393 427.863C646.393 423.264 662.115 419.427 632.295 407.937C602.474 396.448 652.281 357.743 660.195 363.454C668.109 369.165 666.425 388.437 680.117 372.242C693.81 356.046 723.93 383.799 716.683 396.622C709.435 409.445 713.854 402.95 703.901 427.862C693.948 452.773 711.361 490.009 697.002 487.67Z" fill="#5F016F"/>
<path d="M443.965 326.647C439.364 317.445 455.466 315.145 457.767 315.145C461.601 315.145 469.268 316.525 469.268 322.046C469.268 328.947 478.47 324.346 480.77 326.647C483.07 328.947 469.268 342.749 464.668 340.449C460.067 338.148 448.565 335.848 443.965 326.647Z" fill="#5F016F"/>
<path d="M727.728 384.157C723.128 374.956 739.23 372.655 741.53 372.655C745.364 372.655 768.312 357.932 768.312 363.453C768.312 370.354 755.463 381.855 752.21 381.855C742.186 381.853 740.708 397.957 736.108 395.657C731.507 393.356 732.329 393.358 727.728 384.157Z" fill="#5F016F"/>
<path d="M529.898 568.182C525.298 558.98 541.4 556.68 543.7 556.68C547.534 556.68 555.202 558.06 555.202 563.581C555.202 570.482 546.407 570.978 543.7 572.782C536.799 577.383 540.578 586.584 535.977 584.284C531.377 581.984 534.499 577.383 529.898 568.182Z" fill="#5F016F"/>
<path d="M485.373 591.185C480.772 581.984 503.774 524.475 510.677 549.779C529.08 547.479 510.677 576.463 510.677 581.984C510.677 588.885 563.584 586.584 565.884 588.885C568.185 591.185 545.181 618.789 540.581 616.489C535.98 614.188 489.973 600.386 485.373 591.185Z" fill="#5F016F"/>
<path d="M295.265 480.769C290.664 471.568 306.766 469.267 309.067 469.267C312.9 469.267 320.568 470.648 320.568 476.168C320.568 483.069 329.77 478.469 332.07 480.769C334.37 483.069 320.568 496.871 315.968 494.571C311.367 492.271 299.865 489.97 295.265 480.769Z" fill="#5F016F"/>
<path d="M566.705 361.152C562.105 351.95 568.182 317.445 570.483 317.445C574.317 317.445 586.585 360.232 586.585 365.752C586.585 372.653 621.09 370.353 623.39 372.653C625.691 374.954 571.306 400.257 566.705 397.957C562.105 395.657 571.306 370.353 566.705 361.152Z" fill="#5F016F"/>
<path d="M549.78 418.66C545.179 409.459 538.277 391.056 540.577 391.056C544.411 391.056 556.679 401.638 556.679 407.158C556.679 414.059 584.283 400.257 586.584 402.558C588.884 404.858 556.679 441.663 552.079 439.363C547.478 437.063 554.38 427.861 549.78 418.66Z" fill="#5F016F"/>
<path d="M186.863 326.274C194.44 333.233 180.213 341.118 178.064 341.938C174.481 343.304 166.825 344.745 164.858 339.587C162.4 333.138 155.441 340.715 152.472 339.385C149.503 338.055 157.483 320.242 162.602 320.752C167.72 321.263 179.287 319.315 186.863 326.274Z" fill="#5F016F"/>
<path d="M282.065 299.864C277.622 309.143 271.994 308.569 270.583 306.753C268.231 303.725 250.328 292.37 254.688 288.983C260.137 284.748 265.145 284.759 265.55 281.531C265.955 278.304 299.514 284.371 300.521 289.415C301.527 294.459 286.508 290.585 282.065 299.864Z" fill="#5F016F"/>
<path d="M71.8465 422.888C79.4231 429.847 65.1964 437.733 63.047 438.552C59.4646 439.918 51.8082 441.359 49.8416 436.201C47.3833 429.752 46.6764 426.891 43.7075 425.561C40.7387 424.231 42.4668 416.856 47.5851 417.366C52.7034 417.877 64.27 415.929 71.8465 422.888Z" fill="#5F016F"/>
<path d="M202.431 319.745C195.53 294.441 216.233 310.544 218.534 308.243C226.968 309.777 245.677 314.685 253.038 322.046C262.239 331.247 250.737 354.251 236.935 363.452C223.133 372.653 216.233 393.356 223.133 416.36C230.034 439.363 276.041 388.756 280.642 416.36C285.242 443.964 246.138 446.264 218.534 439.363C190.93 432.462 200.131 414.059 204.732 402.558C209.332 391.056 220.834 361.152 218.534 356.551C216.233 351.95 209.332 345.049 202.431 319.745Z" fill="#5F016F"/>
<path d="M603.391 432.369C611.461 407.413 619.978 432.219 623.163 431.553C629.383 437.452 642.357 451.797 644.49 461.986C647.157 474.722 624.943 487.683 608.356 487.833C591.769 487.982 574.664 501.535 567.854 524.565C561.043 547.595 627.242 530.41 615.989 556.032C604.735 581.655 570.745 562.183 551.416 541.302C532.087 520.421 549.859 510.053 560.003 502.943C570.147 495.834 596.138 477.097 596.729 471.987C597.321 466.878 595.322 457.324 603.391 432.369Z" fill="#5F016F"/>
<path d="M177.128 455.465C188.63 450.864 195.531 457.765 197.831 460.066C200.898 463.9 203.81 472.488 190.929 476.168C174.826 480.769 184.028 489.97 188.628 492.271C193.229 494.571 193.229 506.073 190.929 529.076C189.088 547.479 180.962 538.277 177.128 531.376C174.061 524.475 166.547 509.753 161.026 506.073C154.125 501.472 147.224 487.67 149.524 478.469C151.825 469.267 165.627 460.066 177.128 455.465Z" fill="#5F016F"/>
<path d="M361.342 612.057C359.117 599.871 367.251 594.478 369.963 592.68C374.329 590.436 394.611 582.429 395.66 595.785C396.971 612.48 404.576 617.202 407.744 613.15C410.912 609.098 413.653 609.665 435.742 616.488C453.412 621.946 439.99 641.293 432.465 643.68C425.093 645.315 400.364 650.914 395.661 655.594C389.781 661.444 378.521 641.274 369.96 637.192C361.399 633.11 363.567 624.243 361.342 612.057Z" fill="#5F016F"/>
<path d="M89.7113 503.772C85.1106 494.571 92.0132 494.571 96.6123 496.871C101.213 497.638 110.416 499.632 110.416 501.472C110.416 503.772 105.815 510.673 105.815 512.974C105.815 515.274 121.917 519.875 131.119 531.376C140.32 542.878 115.016 547.479 103.515 542.878C92.013 538.277 101.214 531.376 98.914 526.776C96.6137 522.175 94.312 512.974 89.7113 503.772Z" fill="#5F016F"/>
<path d="M392.574 302.621C387.973 293.42 394.876 293.42 399.475 295.72C404.076 296.487 413.278 298.48 413.278 300.321C413.278 302.621 408.677 309.522 408.677 311.822C408.677 314.123 424.78 318.723 433.981 330.225C443.182 341.727 417.879 346.327 406.377 341.727C394.875 337.126 404.077 330.225 401.776 325.624C399.476 321.024 397.174 311.822 392.574 302.621Z" fill="#5F016F"/>
<path d="M929.334 437.063C915.532 430.162 887.931 448.564 897.133 432.462C897.135 423.261 922.292 412.19 929.335 407.158C931.982 405.267 959.24 393.356 959.24 397.957C959.24 402.558 949.796 421.446 947.738 425.561C943.136 434.762 961.541 450.864 959.24 455.465C956.94 460.066 943.136 443.964 929.334 437.063Z" fill="#5F016E"/>
<path d="M860.323 427.86C872.05 427.601 879.061 436.773 906.501 453.315C918.084 467.049 931.912 448.922 933.931 458.625C936.455 470.752 904.611 490.36 898.619 484.626C891.971 478.265 871.318 456.783 864.924 453.315C858.53 449.846 823.516 499.322 818.915 484.626C814.055 469.103 842.665 469.431 821.218 458.623C799.771 447.816 807.188 437.321 818.915 437.062C830.641 436.803 848.597 428.119 860.323 427.86Z" fill="#5F016F"/>
<path d="M853.426 409.459C848.825 400.257 860.324 370.353 862.625 370.353C866.459 370.353 867.225 394.737 867.225 400.257C867.225 407.158 883.326 379.554 894.829 400.257C896.409 403.101 892.529 430.162 887.928 427.861C883.328 425.561 858.026 418.66 853.426 409.459Z" fill="#5F016F"/>
<path d="M792.834 373.929C788.234 364.728 830.422 370.353 835.021 372.653C839.622 373.42 845.004 388.755 837.321 388.756C829.537 388.757 818.138 392.333 818.138 394.634C818.138 396.934 834.24 401.535 843.441 413.036C852.643 424.538 827.339 429.139 815.837 424.538C804.336 419.937 782.115 387.731 779.815 383.131C777.514 378.53 797.435 383.131 792.834 373.929Z" fill="#5F016F"/>
</svg>
