<svg width="884" height="512" viewBox="0 0 884 512" fill="none" xmlns="http://www.w3.org/2000/svg">
<path d="M669.308 104.483C633.44 -13.8638 500.627 76.5101 496.502 84.7352C496.134 105.996 496.629 152.221 501.55 167.041C506.47 181.861 605.035 230.944 653.702 253.633C670.86 243.366 698.002 199.161 669.308 104.483Z" fill="#1E0500"/>
<path fill-rule="evenodd" clip-rule="evenodd" d="M572.054 46.906C583.559 44.3402 595.399 43.2343 606.808 44.5756L573.508 142.633L586.577 147.071L620.4 47.4731C629.953 50.5174 638.941 55.7349 646.852 63.7843L590.924 150.558L602.525 158.035L655.973 75.1101C661.227 83.0318 665.747 92.7279 669.309 104.483C669.369 104.68 669.429 104.877 669.488 105.074C669.512 105.155 669.536 105.235 669.561 105.316L598.087 164.229L606.866 174.879L673.604 119.869C676.153 129.889 678.042 139.283 679.366 148.073L615.685 180.987L622.022 193.248L681.11 162.708C685.884 217.937 666.859 245.76 653.703 253.633C605.036 230.944 506.472 181.861 501.551 167.041C496.63 152.221 496.136 105.995 496.504 84.7351C497.527 82.6952 506.465 75.6025 519.877 67.894V147.222H533.679V60.6113C541.072 57.0443 549.202 53.645 557.72 50.8615L547.481 141.959L561.197 143.501L572.054 46.906Z" fill="#F14424"/>
<path d="M325.45 36.9608C256.911 -58.9234 214.438 103.312 215.285 113.652C223.567 134.662 242.339 179.623 251.176 191.392C260.013 203.16 337.968 196.426 375.841 191.589C381.891 172.007 380.282 113.668 325.45 36.9608Z" fill="#1E0500"/>
<path fill-rule="evenodd" clip-rule="evenodd" d="M267.099 11.4084C272.768 8.07099 278.85 6.34998 285.321 6.85681L287.764 64.7454L296.957 64.3573L294.624 9.08139C300.508 11.4234 306.671 15.6318 313.097 22.0978L303.643 67.7689L312.653 69.6341L320.714 30.6914C322.278 32.6453 323.856 34.7334 325.448 36.9607C380.28 113.668 381.889 172.007 375.839 191.589C337.966 196.426 260.011 203.16 251.174 191.392C242.337 179.623 223.565 134.662 215.283 113.652C214.893 108.894 223.676 71.9719 239.951 42.8378L252.39 82.8479L261.177 80.1162L246.351 32.4303C250.216 26.7556 254.413 21.6615 258.925 17.5364L269.162 69.6621L278.191 67.8891L267.099 11.4084Z" fill="#F14424"/>
<path d="M266.838 425.562C259.477 405.319 256.103 391.057 255.336 386.457C345.816 387.99 526.775 392.437 526.775 397.958C526.775 404.859 524.475 420.962 512.973 443.965C501.472 466.968 457.765 503.774 450.864 508.374C443.963 512.975 437.062 512.975 430.161 508.374C423.26 503.774 416.359 501.473 407.158 503.774C397.957 506.074 395.656 510.675 388.755 508.374C381.854 506.074 370.353 501.473 349.65 485.371C328.947 469.269 312.844 487.671 299.042 485.371C285.24 483.071 276.039 450.866 266.838 425.562Z" fill="#1E0500"/>
<path fill-rule="evenodd" clip-rule="evenodd" d="M431.63 390.951C444.331 391.415 456.371 391.905 467.348 392.417L411.038 503.054C409.837 503.195 408.598 503.42 407.313 503.735L444.372 395.305L431.63 390.951ZM428.212 507.139C427.235 506.553 426.253 506.018 425.26 505.539L482.449 393.175C509.28 394.629 526.775 396.242 526.775 397.958C526.775 404.859 524.475 420.962 512.973 443.965C501.472 466.968 457.765 503.774 450.864 508.374C447.88 510.363 444.896 511.493 441.912 511.762L516.98 408.368L505.811 400.259L428.212 507.139ZM287.643 387.056C298.175 387.268 309.299 387.505 320.755 387.767L324.681 479.478C321.952 480.056 319.315 480.892 316.759 481.76L287.643 387.056ZM345.307 482.442C342.979 481.11 340.712 480.19 338.501 479.596L334.584 388.092C366.89 388.87 400.952 389.831 431.279 390.938L390.96 508.906C390.274 508.81 389.545 508.637 388.755 508.374C386.334 507.567 383.346 506.477 379.593 504.706L405.802 394.877L392.377 391.673L367.067 497.735C364.336 496.012 361.358 494.014 358.104 491.689L369.914 392.592L356.209 390.958L345.307 482.442ZM273.117 386.774C266.886 386.658 260.938 386.551 255.336 386.457C256.103 391.057 259.477 405.319 266.838 425.562C268.109 429.059 269.381 432.688 270.665 436.352C278.67 459.196 287.148 483.388 299.042 485.371C300.489 485.612 301.962 485.626 303.462 485.475L273.117 386.774Z" fill="#F14424"/>
<path d="M484.441 75.333C333.053 19.795 75.6939 90.4776 0 151.065C5.04626 189.775 25.2313 277.287 90.8326 322.732C168.006 376.193 353.238 418.661 529.857 418.661C701.43 368.167 723.647 249.05 741.8 297.483C756.939 337.874 765.349 378.265 767.031 393.412C785.492 379.948 873.911 341.913 878.049 297.483C906.308 176.309 814.129 129.185 767.031 120.771C768.713 164.528 759.966 241.944 711.522 201.553C663.078 161.162 539.95 100.577 484.441 75.333Z" fill="#F14424"/>
<ellipse cx="34.9377" cy="37.7877" rx="34.9377" ry="37.7877" transform="matrix(0.982011 -0.188823 0.208447 0.978034 69.0098 137.414)" fill="white"/>
<ellipse cx="27.0507" cy="31.1693" rx="27.0507" ry="31.1693" transform="matrix(0.98498 -0.172668 0.190758 0.981637 78.2109 142.091)" fill="black"/>
<path d="M239.236 170.225C246.597 118.698 210.865 82.8125 193.229 73.6112L227.734 66.7102C233.102 73.6112 248.897 97.5347 269.14 138.021C294.444 188.628 255.338 243.836 239.236 282.941C223.134 322.047 163.325 354.252 149.523 351.951C138.481 350.111 109.65 334.316 96.6152 326.648C98.1488 326.648 107.657 324.808 133.421 317.446C165.625 308.245 230.035 234.634 239.236 170.225Z" fill="#FFD3D3"/>
<path d="M403.755 158.712C411.059 107.19 375.604 64.4088 358.105 55.2086L400.26 57.5089C405.586 64.4091 413.341 86.0295 433.427 126.511C458.535 177.112 419.732 232.314 403.755 271.415C387.777 310.516 349.545 404.859 335.85 402.559C324.894 400.719 277.474 396.424 264.54 388.757C266.062 388.757 297.717 337.998 314.737 317.416C337.562 289.815 394.625 223.113 403.755 158.712Z" fill="#FFD3D3"/>
<path d="M519.878 195.529C527.276 148.449 530.703 98.1208 512.977 89.7136L558.983 110.417C564.378 116.722 543.237 128.633 563.584 165.625C589.017 211.864 575.87 258.453 559.685 294.184C543.5 329.914 519.948 420.763 506.076 418.661C494.977 416.98 445.567 418.766 432.465 411.76C434.006 411.76 481.933 359.258 499.174 340.45C522.296 315.228 510.629 254.379 519.878 195.529Z" fill="#FFD3D3"/>
<path d="M632.592 149.522C633.562 149.853 634.449 150.402 635.256 151.15L673.998 174.826C679.461 179.411 634.994 177.83 655.596 204.73C681.348 238.355 644.094 273.74 651.648 298.218C660.708 327.571 660.196 351.952 644.094 363.453C634.896 370.023 588.35 405.353 575.084 400.258C576.645 400.258 597.569 343.232 615.026 329.556C638.438 311.215 625.691 308.245 633.883 266.839C639.519 238.346 649.399 164.251 635.256 151.15L632.592 149.522Z" fill="#FFD3D3"/>
<path d="M729.205 285.242L731.505 213.932L747.608 207.031C749.908 206.264 756.809 200.13 761.41 181.727C765.908 163.735 763.71 133.42 766.01 119.618C789.014 121.918 829.5 141.701 844.222 156.423C862.624 174.826 888.04 219.657 883.327 269.14C878.727 317.447 864.925 324.348 860.324 333.549C855.723 342.75 768.311 397.958 768.311 393.358C768.311 388.757 747.608 315.146 743.007 301.344C739.327 290.303 732.272 286.009 729.205 285.242Z" fill="#1E0500"/>
<path fill-rule="evenodd" clip-rule="evenodd" d="M742.415 212.332L745.462 207.95L731.505 213.932L729.205 285.242C732.272 286.009 739.327 290.303 743.007 301.344C747.608 315.146 768.311 388.757 768.311 393.358C768.311 395.132 781.314 388.009 797.555 378.06L738.228 284.723L749.202 277.748L808.59 371.18C821.939 362.719 835.949 353.356 846.048 345.934L749.1 277.547L756.671 266.815L756.375 266.71L760.649 254.606L760.555 254.605L760.59 241.492L757.038 229.855L756.912 229.932L749.907 218.469L750.617 218.036L742.415 212.332ZM860.324 333.549C859.919 334.359 858.871 335.527 857.297 336.979L758.991 267.634L875.121 308.632C871.481 318.077 867.472 323.4 864.34 327.558L864.339 327.559C862.702 329.733 861.304 331.589 860.324 333.549ZM763.57 254.613L879.164 295.422C880.865 288.348 882.318 279.741 883.327 269.14C883.783 264.354 883.957 259.612 883.883 254.934L763.57 254.613ZM874.735 207.05C878.573 217.574 881.524 229.058 882.952 241.129L764.147 240.813L874.735 207.05ZM761.297 227.252L869.435 194.237C865.12 184.937 860.228 176.675 855.33 169.786L761.297 227.252ZM799.929 129.62L759.851 187.257C760.392 185.55 760.914 183.71 761.41 181.727C764.059 171.129 764.386 156.256 764.676 143V143V143C764.879 133.751 765.065 125.29 766.01 119.618C775.388 120.556 787.671 124.399 799.929 129.62ZM753.014 216.571L810.207 134.321C824.281 141.206 837.19 149.392 844.222 156.423C845.092 157.293 845.978 158.223 846.875 159.209L753.014 216.571Z" fill="#F14424"/>
</svg>
