<svg xmlns="http://www.w3.org/2000/svg" width="1920" height="1080"><defs><style>.cls-1{fill:#777879;fill-rule:evenodd}</style></defs><path id="roche_04" d="M1166.85 700.888c-13.47-18.752 32.19-147.31 202.88-139.643s193.31 112.737 187.52 143.049-98.71 34.4-173.89 32.356-174 .94-190.94-10.218-12.09-6.793-25.57-25.544Z" class="cls-1"/><path id="roche_01" d="M426.966 687.264c-24.881-22.092-34.212-198.123 18.752-245.226S569.041 330.9 699.735 344.969s282.883 48.715 296.637 180.514-76.694 188.725-151.728 197.543-227.039 3.057-279.589-5.109-113.208-8.56-138.089-30.653Z" style="fill:#929090;fill-rule:evenodd"/><path id="roche_02" d="M812.252 740.056c-14.352-16.681 9.561-206.177 126.156-209.464s172.852 149.1 158.552 173.7-104.76 40.57-146.618 40.873-123.737 11.571-138.09-5.109Z" style="fill:#848788;fill-rule:evenodd"/><path id="roche_03" d="M1023.65 762.194c-29.974-25.7-29.19-46.559-10.23-110.692s9.42-278.3 75.01-255.444 110.41 80.532 156.84 151.563c52.55 80.389 96.37 130.407 117.62 175.576 12.47 26.5-145.21 46.412-197.74 49.215-53.31 2.845-111.53 15.488-141.5-10.218Z" style="fill:#969c9f;fill-rule:evenodd"/><path id="roche_05" d="M403.1 639.581S263.05 659.9 273.533 687.264s34.027 40.568 66.487 40.871 71.948 11.8 98.879 15.327 49.739-9.462 88.65-6.812 100.607-8.542 46.03-44.277-93.511-57.974-121.041-57.9a248.356 248.356 0 0 0-49.438 5.108Z" class="cls-1"/></svg>